# Blender 5.1.2
# www.blender.org
mtllib CorridorSide.mtl
o WallALLColumns.006
v -1.684045 5.743387 -11.636266
v 1.579684 5.743388 -11.636267
v -1.684045 5.743387 -11.069659
v 1.579684 5.743388 -11.069660
v -1.684047 2.348302 -11.636266
v 1.579684 2.348302 -11.636267
v 1.579684 2.348302 -11.069660
v -1.684047 2.348302 -11.069659
v 1.579684 0.650759 -11.636267
v 1.579684 0.650759 -11.069660
v -1.684047 0.650759 -11.069659
v -1.684047 0.650759 -11.636266
v -2.095448 2.348302 -11.636266
v -2.095447 5.743387 -11.636266
v -2.095448 0.650759 -11.069659
v -2.095448 -1.084435 -11.069659
v -2.095448 -1.084435 -11.636266
v -2.095447 5.743387 -11.069659
v -2.095448 0.650759 -11.636266
v -2.095448 2.348302 -11.069659
v -1.684045 6.422404 -11.636266
v 1.579684 6.422405 -11.636267
v -2.095447 6.422404 -11.069659
v -2.095447 6.422404 -11.636266
v 1.579684 5.743388 -10.664941
v -1.684045 5.743387 -10.664940
v -1.684045 6.422404 -10.664940
v -1.684047 2.348302 -10.664940
v -1.684047 0.650759 -10.664940
v -2.095447 5.743387 -10.664940
v -2.095448 2.348302 -10.664940
v -2.095448 0.650759 -10.664940
v 1.579684 6.422405 -10.664941
v -2.095447 6.422404 -10.664940
v -1.684047 -1.084435 -10.646749
v -2.095448 -1.084435 -10.646749
v 1.906058 0.650759 -11.636267
v 1.906058 -1.084435 -11.636267
v 1.906058 -1.084435 -11.069660
v 1.906058 5.743388 -11.636267
v 1.906058 5.743388 -11.069660
v 1.906058 0.650759 -11.069660
v 1.906058 2.348302 -11.636267
v 1.906058 2.348302 -11.069660
v 1.906058 6.422405 -11.636267
v 1.906058 6.422405 -11.069660
v 1.579684 -1.084435 -10.646749
v 1.906058 -1.084435 -10.646749
v 1.579684 0.650759 -10.664941
v 1.579684 2.348302 -10.664941
v 1.906058 6.422405 -10.664941
v 1.906058 5.743388 -10.664941
v 1.906058 0.650759 -10.664941
v 1.906058 2.348302 -10.664941
v -1.684047 4.045845 -11.636266
v -1.684047 4.045845 -11.069659
v -2.095447 4.045845 -11.636266
v -2.095447 4.045845 -11.069659
v -1.684047 4.045845 -10.664940
v -2.095447 4.045845 -10.664940
v 1.579684 4.045845 -11.636267
v 1.579684 4.045845 -11.069660
v 1.906058 4.045845 -11.636267
v 1.906058 4.045845 -11.069660
v 1.579684 4.045845 -10.664941
v 1.906058 4.045845 -10.664941
v -1.031301 5.743387 -11.636266
v -0.378553 5.743387 -11.636267
v 0.274196 5.743387 -11.636267
v 0.926940 5.743387 -11.636267
v 0.926940 5.743387 -11.069660
v 0.274196 5.743387 -11.069659
v -0.378552 5.743387 -11.069659
v -1.031301 5.743387 -11.069659
v -1.031297 6.422405 -11.636266
v -0.378553 6.422405 -11.636267
v 0.274196 6.422405 -11.636267
v 0.926940 6.422405 -11.636267
v 0.926940 5.743387 -10.664941
v 0.274196 5.743387 -10.664941
v -0.378552 5.743387 -10.664941
v -1.031300 5.743387 -10.664941
v 0.926940 6.422405 -10.664941
v 0.274196 6.422405 -10.664941
v -0.378552 6.422405 -10.664941
v -1.031297 6.422405 -10.664941
v 1.906058 -0.198012 -11.636267
v 1.906058 -0.198012 -11.069660
v 1.579684 -0.198012 -10.651709
v 1.906058 -0.198012 -10.651709
v -2.095448 -0.198012 -11.069659
v -2.095448 -0.198012 -11.636266
v -1.684047 -0.198012 -10.651708
v -2.095448 -0.198012 -10.651708
v -1.684047 -1.084435 -11.636266
v 1.579684 -1.084435 -11.636267
v -1.684047 -1.084435 -11.069659
v 1.579684 -1.084435 -11.069660
v 1.579684 -0.198012 -11.636267
v 1.579684 -0.198012 -11.069660
v -1.684047 -0.198012 -11.069659
v -1.684047 -0.198012 -11.636266
v 1.906058 -0.198012 -21.636267
v 1.579684 -0.198012 -21.636267
v 1.579684 0.650759 -21.636267
v 1.906058 0.650759 -21.636267
v -1.684047 4.045845 -21.636265
v -2.095447 4.045845 -21.636265
v -1.684047 2.348302 -21.636265
v -2.095448 2.348302 -21.636265
v -1.684047 0.650759 -21.636265
v -2.095448 0.650759 -21.636265
v 1.579684 4.045845 -21.636267
v 1.906058 4.045845 -21.636267
v 1.579684 5.743388 -21.636267
v 1.906058 5.743388 -21.636267
v -2.095448 -0.198012 -21.636265
v -1.684047 -0.198012 -21.636265
v -1.684047 -1.084435 -21.636265
v -2.095448 -1.084435 -21.636265
v -2.095447 5.743387 -21.636265
v -1.684045 6.422404 -21.636265
v -1.031297 6.422405 -21.636265
v -2.095447 6.422404 -21.636265
v -1.684045 5.743387 -21.636265
v -1.031301 5.743387 -21.636265
v 1.906058 2.348302 -21.636267
v 1.906058 6.422405 -21.636267
v 1.579684 2.348302 -21.636267
v 1.579684 6.422405 -21.636267
v 1.906058 -1.084435 -21.636267
v 1.579684 -1.084435 -21.636267
v 0.926940 5.743387 -21.636265
v -0.378552 5.743387 -21.636265
v 0.274196 5.743387 -21.636265
v 0.926940 6.422405 -21.636265
v 0.274196 6.422405 -21.636265
v -0.378552 6.422405 -21.636265
v 1.906058 -0.198012 -25.636267
v 1.579684 -0.198012 -25.636267
v 1.579684 0.650759 -25.636267
v 1.906058 0.650759 -25.636267
v -1.684047 4.045845 -25.636265
v -2.095447 4.045845 -25.636265
v -1.684047 2.348302 -25.636265
v -2.095448 2.348302 -25.636265
v -1.684047 0.650759 -25.636265
v -2.095448 0.650759 -25.636265
v 1.579684 4.045845 -25.636267
v 1.906058 4.045845 -25.636267
v 1.579684 5.743388 -25.636267
v 1.906058 5.743388 -25.636267
v -2.095448 -0.198012 -25.636265
v -1.684047 -0.198012 -25.636265
v -1.684047 -1.084435 -25.636265
v -2.095448 -1.084435 -25.636265
v -2.095447 5.743387 -25.636265
v -1.684045 6.422404 -25.636265
v -1.031297 6.422405 -25.636265
v -2.095447 6.422404 -25.636265
v -1.684045 5.743387 -25.636265
v -1.031301 5.743387 -25.636265
v 1.906058 2.348302 -25.636267
v 1.906058 6.422405 -25.636267
v 1.579684 2.348302 -25.636267
v 1.579684 6.422405 -25.636267
v 1.906058 -1.084435 -25.636267
v 1.579684 -1.084435 -25.636267
v 0.926940 5.743387 -25.636265
v -0.378552 5.743387 -25.636265
v 0.274196 5.743387 -25.636265
v 0.926940 6.422405 -25.636265
v 0.274196 6.422405 -25.636265
v -0.378552 6.422405 -25.636265
v 1.906058 -0.198012 -29.636265
v 1.579684 -0.198012 -29.636265
v 1.579684 0.650759 -29.636265
v 1.906058 0.650759 -29.636265
v 1.579684 4.045845 -29.636265
v 1.906058 4.045845 -29.636265
v 1.579684 5.743388 -29.636265
v 1.906058 5.743388 -29.636265
v -1.684045 6.422404 -29.636265
v -1.031297 6.422405 -29.636265
v -2.095447 6.422404 -29.636265
v -1.684045 5.743387 -29.636265
v -2.095447 5.743387 -29.636265
v -1.031301 5.743387 -29.636265
v 1.906058 2.348302 -29.636265
v 1.906058 6.422405 -29.636265
v 1.579684 2.348302 -29.636265
v 1.579684 6.422405 -29.636265
v 1.906058 -1.084435 -29.636265
v 1.579684 -1.084435 -29.636265
v 0.926939 5.743387 -29.636265
v -0.378553 5.743387 -29.636265
v 0.274195 5.743387 -29.636265
v 0.926939 6.422405 -29.636265
v 0.274195 6.422405 -29.636265
v -0.378553 6.422405 -29.636265
v 1.906057 -0.198012 -32.636265
v 1.579683 -0.198012 -32.636265
v 1.579683 0.650759 -32.636265
v 1.906057 0.650759 -32.636265
v 1.579683 4.045845 -32.636265
v 1.906057 4.045845 -32.636265
v 1.579683 5.743388 -32.636265
v 1.906057 5.743388 -32.636265
v -1.684046 6.422404 -32.636265
v -1.031297 6.422405 -32.636265
v -2.095447 6.422404 -32.636265
v -1.684046 5.743387 -32.636265
v -2.095447 5.743387 -32.636265
v -1.031301 5.743387 -32.636265
v 1.906057 2.348302 -32.636265
v 1.906057 6.422405 -32.636265
v 1.579683 2.348302 -32.636265
v 1.579683 6.422405 -32.636265
v 1.906057 -1.084435 -32.636265
v 1.579683 -1.084435 -32.636265
v 0.926939 5.743387 -32.636265
v -0.378553 5.743387 -32.636265
v 0.274195 5.743387 -32.636265
v 0.926939 6.422405 -32.636265
v 0.274195 6.422405 -32.636265
v -0.378553 6.422405 -32.636265
v 1.906057 -0.198012 -33.636265
v 1.579683 -0.198012 -33.636265
v 1.579683 0.650759 -33.636265
v 1.906057 0.650759 -33.636265
v 1.579683 4.045845 -33.636265
v 1.906057 4.045845 -33.636265
v 1.579683 5.743388 -33.636265
v 1.906057 5.743388 -33.636265
v -1.684046 6.422404 -33.636265
v -1.031298 6.422405 -33.636265
v -2.095448 6.422404 -33.636265
v -1.684046 5.743387 -33.636265
v -2.095448 5.743387 -33.636265
v -1.031301 5.743387 -33.636265
v 1.906057 2.348302 -33.636265
v 1.906057 6.422405 -33.636265
v 1.579683 2.348302 -33.636265
v 1.579683 6.422405 -33.636265
v 1.906057 -1.084435 -33.636265
v 1.579683 -1.084435 -33.636265
v 0.926939 5.743387 -33.636265
v -0.378553 5.743387 -33.636265
v 0.274195 5.743387 -33.636265
v 0.926939 6.422405 -33.636265
v 0.274195 6.422405 -33.636265
v -0.378553 6.422405 -33.636265
v -10.420317 0.650759 -32.636261
v -10.420317 -0.198012 -32.636261
v -10.420317 4.045845 -32.636261
v -10.420317 2.348302 -32.636261
v -10.420317 -1.084435 -32.636261
v -10.420317 0.650759 -33.636261
v -10.420317 -0.198012 -33.636261
v -10.419743 5.743387 -33.636261
v -10.420317 4.045845 -33.636261
v -10.420317 2.348302 -33.636261
v -10.420317 -1.084435 -33.636261
v -1.684047 4.045845 -26.636265
v -2.095447 4.045845 -26.636265
v -1.684047 2.348302 -26.636265
v -2.095449 2.348302 -26.636265
v -1.684047 0.650759 -26.636265
v -2.095449 0.650759 -26.636265
v -2.095449 -0.198012 -26.636265
v -1.684047 -0.198012 -26.636265
v -1.684047 -1.084435 -26.636265
v -2.095449 -1.084435 -26.636265
v -2.095447 5.743387 -26.636265
v -1.684045 5.743387 -26.636265
v -10.418318 4.045845 -26.636265
v -10.418318 4.045845 -25.636265
v -10.418742 5.743387 -25.636265
v -10.418318 5.743387 -26.636265
v -10.418320 2.348302 -25.636265
v -10.418320 0.650759 -25.636265
v -10.418320 -1.084435 -25.636265
v -10.418320 -0.198012 -25.636265
v -10.418320 2.348302 -26.636265
v -10.418320 0.650759 -26.636265
v -10.418320 -1.084435 -26.636265
v -10.418320 -0.198012 -26.636265
v -10.419168 6.422404 -25.636265
v -10.419168 6.422404 -29.636263
v -10.419168 5.743387 -29.636263
v -10.419743 5.743387 -32.636261
v -10.419168 6.422404 -32.636261
v -10.419168 6.422404 -33.636261
v 1.906058 4.045845 -28.636265
v 1.906058 4.045845 -27.636265
v 1.906058 4.045845 -26.636265
v 1.906058 2.348302 -26.636267
v 1.906058 2.348302 -27.636265
v 1.906058 2.348302 -28.636265
v 0.274195 6.422405 -28.636265
v 0.274195 6.422405 -27.636265
v 0.274195 6.422405 -26.636265
v 0.926940 6.422405 -26.636265
v 0.926939 6.422405 -27.636265
v 0.926939 6.422405 -28.636265
v 1.579684 0.650759 -28.636265
v 1.579684 0.650759 -27.636265
v 1.579684 0.650759 -26.636265
v 1.579684 2.348302 -28.636265
v 1.579684 2.348302 -27.636265
v 1.579684 2.348302 -26.636265
v 1.579684 4.045845 -26.636267
v 1.579684 4.045845 -27.636265
v 1.579684 4.045845 -28.636265
v -2.095447 6.422404 -28.636265
v -2.095447 6.422404 -27.636265
v -2.095447 6.422404 -26.636265
v -1.684045 6.422404 -26.636265
v -1.684045 6.422404 -27.636265
v -1.684045 6.422404 -28.636265
v 1.906058 6.422405 -28.636265
v 1.906058 6.422405 -27.636265
v 1.906058 6.422405 -26.636265
v 1.906058 5.743388 -26.636267
v 1.906058 5.743388 -27.636265
v 1.906058 5.743388 -28.636265
v 1.579684 -0.198012 -28.636265
v 1.579684 -0.198012 -27.636265
v 1.579684 -0.198012 -26.636265
v -2.095447 5.743387 -26.636265
v -2.095447 5.743387 -27.636265
v -2.095447 5.743387 -28.636265
v -1.684045 5.743387 -28.636265
v -1.684045 5.743387 -27.636265
v -1.684045 5.743387 -26.636265
v -1.031301 5.743387 -26.636265
v -1.031301 5.743387 -27.636265
v -1.031301 5.743387 -28.636265
v -0.378553 5.743387 -28.636265
v -0.378553 5.743387 -27.636265
v -0.378553 5.743387 -26.636265
v -0.378553 6.422405 -28.636265
v -0.378553 6.422405 -27.636265
v -0.378553 6.422405 -26.636265
v 0.274195 5.743387 -28.636265
v 0.274195 5.743387 -27.636265
v 0.274195 5.743387 -26.636265
v 1.906058 -0.198012 -26.636267
v 1.906058 -0.198012 -27.636265
v 1.906058 -0.198012 -28.636265
v 1.906058 0.650759 -28.636265
v 1.906058 0.650759 -27.636265
v 1.906058 0.650759 -26.636265
v 1.579684 6.422405 -28.636265
v 1.579684 6.422405 -27.636265
v 1.579684 6.422405 -26.636265
v -1.031297 6.422405 -28.636265
v -1.031297 6.422405 -27.636265
v -1.031297 6.422405 -26.636265
v 0.926939 5.743387 -28.636265
v 0.926939 5.743387 -27.636265
v 0.926940 5.743387 -26.636265
v 1.579684 -1.084435 -26.636267
v 1.579684 -1.084435 -27.636265
v 1.579684 -1.084435 -28.636265
v 1.906058 -1.084435 -28.636265
v 1.906058 -1.084435 -27.636265
v 1.906058 -1.084435 -26.636265
v 1.579684 5.743388 -26.636267
v 1.579684 5.743388 -27.636265
v 1.579684 5.743388 -28.636265
v -10.419168 6.422404 -28.636263
v -10.419168 6.422404 -27.636263
v -10.419168 6.422404 -26.636265
v -10.418849 5.743387 -26.636265
v -10.418955 5.743387 -27.636265
v -10.419062 5.743387 -28.636263
v 0.274195 5.743387 -31.636265
v 0.274195 5.743387 -30.636265
v -1.684046 5.743387 -31.636265
v -1.684046 5.743387 -30.636265
v -2.095447 5.743387 -30.636265
v -2.095447 5.743387 -31.636265
v -0.378553 6.422405 -31.636265
v -0.378553 6.422405 -30.636265
v 0.274195 6.422405 -30.636265
v 0.274195 6.422405 -31.636265
v 1.906058 0.650759 -31.636265
v 1.906058 0.650759 -30.636265
v 1.906058 -0.198012 -30.636265
v 1.906057 -0.198012 -31.636265
v -0.378553 5.743387 -31.636265
v -0.378553 5.743387 -30.636265
v -1.031301 5.743387 -30.636265
v -1.031301 5.743387 -31.636265
v 1.579684 0.650759 -31.636265
v 1.579684 0.650759 -30.636265
v 1.579684 2.348302 -30.636265
v 1.579683 2.348302 -31.636265
v -1.031297 6.422405 -31.636265
v -1.031297 6.422405 -30.636265
v -2.095447 6.422404 -30.636265
v -2.095447 6.422404 -31.636265
v 0.926939 5.743387 -31.636265
v 0.926939 5.743387 -30.636265
v 1.579684 5.743388 -30.636265
v 1.579683 5.743388 -31.636265
v 1.579684 4.045845 -31.636265
v 1.579684 4.045845 -30.636265
v 1.906058 6.422405 -30.636265
v 1.906057 6.422405 -31.636265
v 1.579684 6.422405 -31.636265
v 1.579684 6.422405 -30.636265
v 1.906058 -1.084435 -30.636265
v 1.906057 -1.084435 -31.636265
v 1.579684 -1.084435 -30.636265
v 1.579683 -1.084435 -31.636265
v 1.579684 -0.198012 -30.636265
v 1.579683 -0.198012 -31.636265
v 0.926939 6.422405 -31.636265
v 0.926939 6.422405 -30.636265
v 1.906058 4.045845 -30.636265
v 1.906057 4.045845 -31.636265
v 1.906058 5.743388 -31.636265
v 1.906058 5.743388 -30.636265
v 1.906058 2.348302 -31.636265
v 1.906058 2.348302 -30.636265
v -1.684046 6.422404 -31.636265
v -1.684046 6.422404 -30.636265
v -10.419360 5.743387 -30.636263
v -10.419552 5.743387 -31.636263
v -10.419168 6.422404 -30.636263
v -10.419168 6.422404 -31.636263
v -3.284632 5.743387 -32.636265
v -4.473818 5.743387 -32.636265
v -5.663003 5.743387 -32.636265
v -6.852188 5.743387 -32.636265
v -8.041372 5.743387 -32.636265
v -9.230557 5.743387 -32.636261
v -3.284550 6.422404 -29.636265
v -4.473653 6.422404 -29.636265
v -5.662756 6.422404 -29.636265
v -6.851859 6.422404 -29.636265
v -8.040962 6.422404 -29.636265
v -9.230064 6.422404 -29.636263
v -9.230064 6.422404 -25.636265
v -8.040961 6.422404 -25.636265
v -6.851858 6.422404 -25.636265
v -5.662755 6.422404 -25.636265
v -4.473652 6.422404 -25.636265
v -3.284550 6.422404 -25.636265
v -3.284550 5.743387 -29.636265
v -4.473653 5.743387 -29.636265
v -5.662756 5.743387 -29.636265
v -6.851859 5.743387 -29.636265
v -8.040962 5.743387 -29.636265
v -9.230064 5.743387 -29.636263
v -3.284550 6.422404 -32.636265
v -4.473654 6.422404 -32.636265
v -5.662757 6.422404 -32.636265
v -6.851860 6.422404 -32.636265
v -8.040962 6.422404 -32.636265
v -9.230065 6.422404 -32.636261
v -9.230066 6.422404 -33.636261
v -8.040962 6.422404 -33.636265
v -6.851860 6.422404 -33.636265
v -5.662756 6.422404 -33.636265
v -4.473653 6.422404 -33.636265
v -3.284550 6.422404 -33.636265
v -9.230558 5.743387 -33.636261
v -8.041372 5.743387 -33.636265
v -6.852188 5.743387 -33.636265
v -5.663002 5.743387 -33.636265
v -4.473817 5.743387 -33.636265
v -3.284632 5.743387 -33.636265
v -3.284535 5.743387 -28.636265
v -4.473622 5.743387 -28.636265
v -5.662710 5.743387 -28.636265
v -6.851798 5.743387 -28.636265
v -8.040886 5.743387 -28.636265
v -9.229973 5.743387 -28.636263
v -3.284520 5.743387 -27.636265
v -4.473592 5.743387 -27.636265
v -5.662665 5.743387 -27.636265
v -6.851737 5.743387 -27.636265
v -8.040810 5.743387 -27.636265
v -9.229883 5.743387 -27.636263
v -3.284504 5.743387 -26.636265
v -4.473562 5.743387 -26.636265
v -5.662620 5.743387 -26.636265
v -6.851677 5.743387 -26.636265
v -8.040735 5.743387 -26.636265
v -9.229792 5.743387 -26.636265
v -3.284550 6.422404 -26.636265
v -4.473653 6.422404 -26.636265
v -5.662756 6.422404 -26.636265
v -6.851859 6.422404 -26.636265
v -8.040962 6.422404 -26.636265
v -9.230064 6.422404 -26.636265
v -3.284550 6.422404 -27.636265
v -4.473653 6.422404 -27.636265
v -5.662756 6.422404 -27.636265
v -6.851859 6.422404 -27.636265
v -8.040962 6.422404 -27.636265
v -9.230064 6.422404 -27.636263
v -3.284550 6.422404 -28.636265
v -4.473653 6.422404 -28.636265
v -5.662756 6.422404 -28.636265
v -6.851859 6.422404 -28.636265
v -8.040962 6.422404 -28.636265
v -9.230064 6.422404 -28.636263
v -3.284550 6.422404 -30.636265
v -4.473653 6.422404 -30.636265
v -5.662756 6.422404 -30.636265
v -6.851860 6.422404 -30.636265
v -8.040962 6.422404 -30.636265
v -9.230065 6.422404 -30.636263
v -3.284550 6.422404 -31.636265
v -4.473653 6.422404 -31.636265
v -5.662756 6.422404 -31.636265
v -6.851860 6.422404 -31.636265
v -8.040962 6.422404 -31.636265
v -9.230065 6.422404 -31.636263
v -3.284605 5.743387 -31.636265
v -4.473763 5.743387 -31.636265
v -5.662921 5.743387 -31.636265
v -6.852078 5.743387 -31.636265
v -8.041237 5.743387 -31.636265
v -9.230394 5.743387 -31.636263
v -3.284578 5.743387 -30.636265
v -4.473708 5.743387 -30.636265
v -5.662838 5.743387 -30.636265
v -6.851969 5.743387 -30.636265
v -8.041100 5.743387 -30.636265
v -9.230230 5.743387 -30.636263
v -2.095447 5.743387 -22.969599
v -2.095447 5.743387 -24.302933
v -1.684047 4.045845 -24.302933
v -1.684047 4.045845 -22.969599
v -1.684047 2.348302 -22.969599
v -1.684047 2.348302 -24.302933
v 0.274195 6.422405 -24.302933
v 0.274195 6.422405 -22.969599
v -2.095448 -0.198012 -22.969599
v -2.095448 -0.198012 -24.302933
v -2.095448 -1.084435 -22.969599
v -2.095448 -1.084435 -24.302933
v 1.579684 0.650759 -24.302933
v 1.579684 0.650759 -22.969601
v 1.579684 2.348302 -22.969601
v 1.579684 2.348302 -24.302933
v 1.906058 0.650759 -24.302933
v 1.906058 0.650759 -22.969601
v 1.906058 -0.198012 -22.969601
v 1.906058 -0.198012 -24.302933
v 0.926940 6.422405 -24.302933
v 0.926940 6.422405 -22.969599
v 1.579684 6.422405 -22.969601
v 1.579684 6.422405 -24.302933
v -1.684047 -0.198012 -24.302933
v -1.684047 -0.198012 -22.969599
v -1.684047 -1.084435 -22.969599
v -1.684047 -1.084435 -24.302933
v 1.906058 6.422405 -24.302933
v 1.906058 6.422405 -22.969601
v 1.906058 5.743388 -22.969601
v 1.906058 5.743388 -24.302933
v -2.095447 4.045845 -24.302933
v -2.095447 4.045845 -22.969599
v -2.095448 0.650759 -22.969599
v -2.095448 0.650759 -24.302933
v -0.378552 6.422405 -24.302933
v -0.378552 6.422405 -22.969599
v -2.095448 2.348302 -24.302933
v -2.095448 2.348302 -22.969599
v 1.579684 -1.084435 -22.969601
v 1.579684 -1.084435 -24.302933
v 1.906058 -1.084435 -24.302933
v 1.906058 -1.084435 -22.969601
v -1.031297 6.422405 -22.969599
v -1.031297 6.422405 -24.302933
v -1.684045 6.422404 -24.302933
v -1.684045 6.422404 -22.969599
v -1.684047 0.650759 -22.969599
v -1.684047 0.650759 -24.302933
v 0.926940 5.743387 -22.969599
v 0.926940 5.743387 -24.302933
v 1.579684 5.743388 -24.302933
v 1.579684 5.743388 -22.969601
v -2.095447 6.422404 -24.302933
v -2.095447 6.422404 -22.969599
v -1.684045 5.743387 -24.302933
v -1.684045 5.743387 -22.969599
v 1.579684 -0.198012 -22.969601
v 1.579684 -0.198012 -24.302933
v 1.579684 4.045845 -22.969601
v 1.579684 4.045845 -24.302933
v 1.906058 2.348302 -22.969601
v 1.906058 2.348302 -24.302933
v 1.906058 4.045845 -24.302933
v 1.906058 4.045845 -22.969601
v -1.031301 5.743387 -22.969599
v -1.031300 5.743387 -24.302933
v -0.378552 5.743387 -24.302933
v -0.378552 5.743387 -22.969599
v 0.274195 5.743387 -24.302933
v 0.274195 5.743387 -22.969599
v 1.579684 4.045845 -19.636267
v 1.579684 4.045845 -17.636267
v 1.579684 4.045845 -15.636267
v 1.579684 4.045845 -13.636267
v 1.579684 5.743388 -13.636267
v 1.579684 5.743388 -15.636267
v 1.579684 5.743388 -17.636267
v 1.579684 5.743388 -19.636267
v 1.906058 -0.198012 -19.636267
v 1.906058 -0.198012 -17.636267
v 1.906058 -0.198012 -15.636267
v 1.906059 -0.198012 -13.636267
v 1.906058 -1.084435 -13.636267
v 1.906058 -1.084435 -15.636267
v 1.906058 -1.084435 -17.636267
v 1.906058 -1.084435 -19.636267
v -1.684047 4.045845 -13.636266
v -1.684047 4.045845 -15.636266
v -1.684047 4.045845 -17.636265
v -1.684047 4.045845 -19.636265
v 1.579684 -0.198012 -19.636267
v 1.579684 -0.198012 -17.636267
v 1.579684 -0.198012 -15.636267
v 1.579684 -0.198012 -13.636267
v 1.579684 0.650759 -13.636267
v 1.579684 0.650759 -15.636267
v 1.579684 0.650759 -17.636267
v 1.579684 0.650759 -19.636267
v -2.095448 0.650759 -19.636265
v -2.095448 0.650759 -17.636265
v -2.095448 0.650759 -15.636266
v -2.095448 0.650759 -13.636266
v -2.095448 2.348302 -13.636266
v -2.095448 2.348302 -15.636266
v -2.095448 2.348302 -17.636265
v -2.095448 2.348302 -19.636265
v -1.684045 5.743387 -13.636266
v -1.684045 5.743387 -15.636266
v -1.684045 5.743387 -17.636265
v -1.684045 5.743387 -19.636265
v -0.378552 5.743387 -19.636265
v -0.378552 5.743387 -17.636267
v -0.378552 5.743387 -15.636267
v -0.378553 5.743387 -13.636266
v -1.031301 5.743387 -13.636267
v -1.031301 5.743387 -15.636266
v -1.031301 5.743387 -17.636265
v -1.031301 5.743387 -19.636265
v -2.095448 -1.084435 -19.636265
v -2.095448 -1.084435 -17.636265
v -2.095448 -1.084435 -15.636266
v -2.095448 -1.084435 -13.636266
v -2.095448 -0.198012 -13.636266
v -2.095448 -0.198012 -15.636266
v -2.095448 -0.198012 -17.636265
v -2.095448 -0.198012 -19.636265
v -1.684047 2.348302 -19.636265
v -1.684047 2.348302 -17.636265
v -1.684047 2.348302 -15.636266
v -1.684047 2.348302 -13.636266
v -1.684047 0.650759 -13.636266
v -1.684047 0.650759 -15.636266
v -1.684047 0.650759 -17.636265
v -1.684047 0.650759 -19.636265
v 1.906058 6.422405 -13.636267
v 1.906058 6.422405 -15.636267
v 1.906058 6.422405 -17.636267
v 1.906058 6.422405 -19.636267
v 1.579684 6.422405 -19.636267
v 1.579684 6.422405 -17.636267
v 1.579684 6.422405 -15.636267
v 1.579684 6.422405 -13.636267
v 1.906058 0.650759 -19.636267
v 1.906058 0.650759 -17.636267
v 1.906058 0.650759 -15.636267
v 1.906059 0.650759 -13.636267
v 0.274196 5.743387 -19.636265
v 0.274196 5.743387 -17.636267
v 0.274196 5.743387 -15.636267
v 0.274196 5.743387 -13.636266
v -2.095447 5.743387 -13.636266
v -2.095447 5.743387 -15.636266
v -2.095447 5.743387 -17.636265
v -2.095447 5.743387 -19.636265
v -2.095447 4.045845 -19.636265
v -2.095447 4.045845 -17.636265
v -2.095447 4.045845 -15.636266
v -2.095447 4.045845 -13.636266
v 1.906058 2.348302 -19.636267
v 1.906058 2.348302 -17.636267
v 1.906058 2.348302 -15.636267
v 1.906059 2.348302 -13.636267
v 1.579684 -1.084435 -19.636267
v 1.579684 -1.084435 -17.636267
v 1.579684 -1.084435 -15.636267
v 1.579684 -1.084435 -13.636267
v 1.906058 4.045845 -13.636267
v 1.906058 4.045845 -15.636267
v 1.906058 4.045845 -17.636267
v 1.906058 4.045845 -19.636267
v 1.906058 5.743388 -19.636267
v 1.906058 5.743388 -17.636267
v 1.906058 5.743388 -15.636267
v 1.906059 5.743388 -13.636267
v 0.926940 6.422405 -19.636265
v 0.926940 6.422405 -17.636267
v 0.926940 6.422405 -15.636267
v 0.926940 6.422405 -13.636267
v 0.926940 5.743387 -13.636267
v 0.926940 5.743387 -15.636267
v 0.926940 5.743387 -17.636267
v 0.926940 5.743387 -19.636265
v -1.684047 -0.198012 -13.636266
v -1.684047 -0.198012 -15.636266
v -1.684047 -0.198012 -17.636265
v -1.684047 -0.198012 -19.636265
v -1.031297 6.422405 -13.636267
v -1.031297 6.422405 -15.636266
v -1.031297 6.422405 -17.636265
v -1.031297 6.422405 -19.636265
v -1.684045 6.422404 -19.636265
v -1.684045 6.422404 -17.636265
v -1.684045 6.422404 -15.636266
v -1.684045 6.422404 -13.636266
v 1.579684 2.348302 -19.636267
v 1.579684 2.348302 -17.636267
v 1.579684 2.348302 -15.636267
v 1.579684 2.348302 -13.636267
v 0.274196 6.422405 -19.636265
v 0.274196 6.422405 -17.636267
v 0.274196 6.422405 -15.636267
v 0.274196 6.422405 -13.636266
v -2.095447 6.422404 -19.636265
v -2.095447 6.422404 -17.636265
v -2.095447 6.422404 -15.636266
v -2.095447 6.422404 -13.636266
v -0.378552 6.422405 -19.636265
v -0.378552 6.422405 -17.636267
v -0.378552 6.422405 -15.636267
v -0.378553 6.422405 -13.636266
v -1.684047 -1.084435 -13.636266
v -1.684047 -1.084435 -15.636266
v -1.684047 -1.084435 -17.636265
v -1.684047 -1.084435 -19.636265
vn -0.0000 -1.0000 -0.0000
vn 1.0000 -0.0000 -0.0000
vn -1.0000 -0.0000 -0.0000
vn -0.0000 -0.0000 1.0000
vn -0.0000 0.0156 0.9999
vn -0.0000 1.0000 -0.0000
vn -0.0000 0.0056 1.0000
vn -0.0000 -0.0000 -1.0000
vn -1.0000 0.0003 -0.0000
vn -1.0000 -0.0000 0.0001
vn -1.0000 -0.0002 -0.0004
vn -1.0000 0.0004 -0.0000
vn -1.0000 0.0006 0.0006
vn -1.0000 0.0002 -0.0000
vn -1.0000 -0.0001 -0.0000
vn -1.0000 -0.0006 -0.0004
vn -1.0000 -0.0005 -0.0004
vn -1.0000 0.0001 -0.0000
vn -1.0000 -0.0003 -0.0004
vn -1.0000 -0.0003 -0.0000
vn -1.0000 -0.0000 0.0006
vn -1.0000 0.0003 0.0006
vt 0.232826 0.289983
vt 0.226662 0.289983
vt 0.226662 0.248557
vt 0.232826 0.248557
vt 0.497195 0.655537
vt 0.529259 0.655537
vt 0.529259 0.696963
vt 0.497195 0.696963
vt 0.761684 0.008760
vt 0.729620 0.008760
vt 0.729620 0.000377
vt 0.761684 0.000377
vt 0.767575 0.738606
vt 0.750832 0.738606
vt 0.750832 0.697180
vt 0.767575 0.697180
vt 0.561323 0.655537
vt 0.593387 0.655537
vt 0.593387 0.696963
vt 0.561323 0.696963
vt 0.609419 0.478096
vt 0.593387 0.478096
vt 0.593387 0.469713
vt 0.609419 0.469439
vt 0.044890 0.614110
vt 0.012826 0.614110
vt 0.012826 0.572684
vt 0.044890 0.572684
vt 0.044890 0.791551
vt 0.012826 0.791551
vt 0.012826 0.779815
vt 0.044890 0.779815
vt 0.109018 0.791551
vt 0.076954 0.791551
vt 0.076954 0.779815
vt 0.109018 0.779815
vt 0.125050 0.791551
vt 0.125050 0.779815
vt 0.245272 0.509951
vt 0.245272 0.498215
vt 0.253043 0.498215
vt 0.253043 0.509951
vt 0.459594 0.467424
vt 0.471923 0.467424
vt 0.471923 0.475807
vt 0.459594 0.475807
vt 0.109018 0.799934
vt 0.076954 0.799934
vt 0.447264 0.289983
vt 0.434935 0.289983
vt 0.434935 0.248557
vt 0.447265 0.248557
vt 0.609419 0.655537
vt 0.609419 0.696963
vt 0.000000 0.791551
vt 0.000000 0.779815
vt 0.226662 0.467424
vt 0.232826 0.467424
vt 0.232826 0.476184
vt 0.226662 0.476184
vt 0.172733 0.503896
vt 0.160403 0.503896
vt 0.160403 0.489832
vt 0.172733 0.489832
vt 0.222050 0.539058
vt 0.222050 0.503896
vt 0.229821 0.503896
vt 0.229821 0.539058
vt 0.222050 0.609380
vt 0.222050 0.574219
vt 0.229821 0.574219
vt 0.229821 0.609380
vt 0.222050 0.489832
vt 0.229821 0.489832
vt 0.825812 0.008760
vt 0.793748 0.008760
vt 0.793748 0.000377
vt 0.825812 0.000377
vt 0.044890 0.799934
vt 0.012826 0.799934
vt 0.000000 0.799934
vt 0.222050 0.626961
vt 0.229821 0.626961
vt 0.841844 0.008760
vt 0.841844 0.000103
vt 0.141793 0.791551
vt 0.141793 0.800311
vt 0.125050 0.800208
vt 0.245272 0.489455
vt 0.253043 0.489455
vt 0.529259 0.489832
vt 0.497195 0.489832
vt 0.497195 0.478096
vt 0.529259 0.478096
vt 0.593387 0.489832
vt 0.561323 0.489832
vt 0.561323 0.478096
vt 0.609419 0.489832
vt 0.484369 0.489832
vt 0.484369 0.478096
vt 0.711009 0.165705
vt 0.717174 0.165705
vt 0.717174 0.207131
vt 0.711009 0.207131
vt 0.670672 0.738606
vt 0.638608 0.738606
vt 0.638608 0.697180
vt 0.670672 0.697180
vt 0.226662 0.455688
vt 0.232826 0.455688
vt 0.160403 0.626961
vt 0.160403 0.645322
vt 0.154239 0.645322
vt 0.154239 0.626961
vt 0.154239 0.503896
vt 0.154239 0.489832
vt 0.160403 0.539058
vt 0.160403 0.574219
vt 0.154239 0.574219
vt 0.154239 0.539058
vt 0.160403 0.609380
vt 0.154239 0.609380
vt 0.750832 0.916047
vt 0.767575 0.916047
vt 0.767575 0.924806
vt 0.750832 0.924704
vt 0.484369 0.469713
vt 0.497195 0.469713
vt 0.561323 0.469713
vt 0.670672 0.916047
vt 0.702736 0.916047
vt 0.702736 0.924430
vt 0.670672 0.924430
vt 0.734800 0.916047
vt 0.734800 0.924430
vt 0.529259 0.469713
vt 0.459594 0.455688
vt 0.471923 0.455688
vt 0.670672 0.904311
vt 0.638608 0.916047
vt 0.638608 0.904311
vt 0.734800 0.904311
vt 0.702736 0.904311
vt 0.750832 0.904311
vt 0.761684 0.020496
vt 0.729620 0.020496
vt 0.825812 0.020496
vt 0.793748 0.020496
vt 0.626162 0.655537
vt 0.626162 0.696963
vt 0.638608 0.924430
vt 0.729620 0.186201
vt 0.761684 0.186201
vt 0.761684 0.227627
vt 0.729620 0.227627
vt 0.410276 0.455688
vt 0.422606 0.455688
vt 0.422606 0.467424
vt 0.410276 0.467424
vt 0.434935 0.455688
vt 0.434935 0.467424
vt 0.447264 0.455688
vt 0.447264 0.467424
vt 0.209721 0.503896
vt 0.209721 0.489832
vt 0.197391 0.503896
vt 0.197391 0.489832
vt 0.185062 0.503896
vt 0.185062 0.489832
vt 0.734800 0.738606
vt 0.734800 0.697180
vt 0.109018 0.614110
vt 0.076954 0.614110
vt 0.076954 0.572684
vt 0.109018 0.572684
vt 0.422606 0.289983
vt 0.410276 0.289983
vt 0.410276 0.248557
vt 0.422606 0.248557
vt 0.422606 0.475807
vt 0.410276 0.475807
vt 0.434935 0.475807
vt 0.447264 0.475807
vt 0.626162 0.489832
vt 0.626162 0.478096
vt 0.626162 0.469336
vt 0.141793 0.614110
vt 0.125050 0.614110
vt 0.125050 0.572684
vt 0.141793 0.572684
vt 0.841844 0.020496
vt 0.858587 0.008760
vt 0.858587 0.000000
vt 0.222050 0.645322
vt 0.229821 0.645322
vt 0.141793 0.779815
vt 0.793748 0.186201
vt 0.825812 0.186201
vt 0.825812 0.227627
vt 0.793748 0.227627
vt 0.858587 0.020496
vt 0.767575 0.904311
vt 0.661692 0.262366
vt 0.674021 0.262366
vt 0.674021 0.289983
vt 0.661692 0.289983
vt 0.649362 0.262366
vt 0.649362 0.289983
vt 0.232826 0.193322
vt 0.226662 0.193322
vt 0.226662 0.165705
vt 0.232826 0.165705
vt 0.076954 0.517449
vt 0.044890 0.517449
vt 0.044890 0.489832
vt 0.076954 0.489832
vt 0.686350 0.262366
vt 0.686350 0.289983
vt 0.125050 0.517449
vt 0.109018 0.517449
vt 0.109018 0.489832
vt 0.125050 0.489832
vt 0.711009 0.262366
vt 0.717174 0.262366
vt 0.717174 0.289983
vt 0.711009 0.289983
vt 0.012826 0.517449
vt 0.012826 0.489832
vt 0.761684 0.282862
vt 0.793748 0.282862
vt 0.793748 0.310479
vt 0.761684 0.310479
vt 0.698680 0.262366
vt 0.698680 0.289983
vt 0.141793 0.517449
vt 0.141793 0.489832
vt 0.245272 0.772317
vt 0.253043 0.772317
vt 0.253043 0.799934
vt 0.245272 0.799934
vt 0.734800 0.641945
vt 0.702736 0.641945
vt 0.702736 0.614327
vt 0.734800 0.614327
vt 0.593387 0.752198
vt 0.609419 0.752198
vt 0.609419 0.779815
vt 0.593387 0.779815
vt 0.841844 0.282862
vt 0.858587 0.282862
vt 0.858587 0.310479
vt 0.841844 0.310479
vt 0.484369 0.752198
vt 0.497195 0.752198
vt 0.497195 0.779815
vt 0.484369 0.779815
vt 0.698680 0.165705
vt 0.698680 0.207131
vt 0.471923 0.289983
vt 0.459594 0.289983
vt 0.459594 0.248557
vt 0.471923 0.248557
vt 0.841844 0.186201
vt 0.841844 0.227627
vt 0.649362 0.165705
vt 0.661692 0.165705
vt 0.661692 0.207131
vt 0.649362 0.207131
vt 0.702736 0.738606
vt 0.702736 0.697180
vt 0.686350 0.165705
vt 0.686350 0.207131
vt 0.641591 0.165705
vt 0.641591 0.207131
vt 0.484369 0.655536
vt 0.484369 0.696963
vt 0.674021 0.165705
vt 0.674021 0.207131
vt 0.858587 0.186201
vt 0.858587 0.227627
vt 0.245272 0.675656
vt 0.253043 0.675656
vt 0.253043 0.717082
vt 0.245272 0.717082
vt 0.000000 0.614110
vt 0.000000 0.572684
vt 0.447265 0.103565
vt 0.434935 0.103565
vt 0.434935 0.082852
vt 0.447265 0.082852
vt 0.125050 0.986369
vt 0.109018 0.986369
vt 0.109018 0.813977
vt 0.125050 0.813977
vt 0.871033 0.008521
vt 0.903097 0.008521
vt 0.903097 0.180914
vt 0.871033 0.180914
vt 0.267740 0.062139
vt 0.267743 0.082852
vt 0.245283 0.082852
vt 0.245280 0.062139
vt 0.858587 0.331192
vt 0.841844 0.331192
vt 0.674021 0.352122
vt 0.686350 0.352122
vt 0.686350 0.372835
vt 0.674021 0.372835
vt 0.422606 0.103565
vt 0.422606 0.082852
vt 0.410276 0.103565
vt 0.402506 0.103565
vt 0.402506 0.082852
vt 0.410276 0.082852
vt 0.750832 0.552188
vt 0.734800 0.552188
vt 0.734800 0.531475
vt 0.750832 0.531475
vt 0.173127 0.831371
vt 0.154239 0.831371
vt 0.154239 0.658979
vt 0.173127 0.658970
vt 0.529259 0.841954
vt 0.561323 0.841954
vt 0.561323 0.862667
vt 0.529259 0.862667
vt 0.698680 0.352122
vt 0.698680 0.372835
vt 0.702736 0.552188
vt 0.702736 0.531475
vt 0.670672 0.552188
vt 0.670672 0.531475
vt 0.641591 0.352122
vt 0.649362 0.352122
vt 0.649362 0.372835
vt 0.641591 0.372835
vt 0.484369 0.841954
vt 0.497195 0.841954
vt 0.497195 0.862667
vt 0.484369 0.862667
vt 0.729620 0.310479
vt 0.761684 0.331192
vt 0.729620 0.331192
vt 0.825812 0.282862
vt 0.825812 0.310479
vt 0.471923 0.193322
vt 0.459594 0.193322
vt 0.459594 0.165705
vt 0.471923 0.165705
vt 0.641591 0.262366
vt 0.641591 0.289983
vt 0.626162 0.752198
vt 0.626162 0.779815
vt 0.729620 0.282862
vt 0.767575 0.641945
vt 0.750832 0.641945
vt 0.750832 0.614327
vt 0.767575 0.614327
vt 0.670672 0.641945
vt 0.670672 0.614327
vt 0.529259 0.752198
vt 0.561323 0.752198
vt 0.561323 0.779815
vt 0.529259 0.779815
vt 0.000000 0.517449
vt 0.000000 0.489832
vt 0.638608 0.641945
vt 0.638608 0.614327
vt 0.434935 0.193322
vt 0.422606 0.193322
vt 0.422606 0.165705
vt 0.434935 0.165705
vt 0.447265 0.193322
vt 0.447265 0.165705
vt 0.410276 0.193322
vt 0.410276 0.165705
vt 0.609419 0.904094
vt 0.626162 0.904094
vt 0.626162 0.924807
vt 0.609419 0.924807
vt 0.711009 0.414262
vt 0.717174 0.414262
vt 0.717174 0.434975
vt 0.711009 0.434975
vt 0.670672 0.490049
vt 0.638608 0.490049
vt 0.638608 0.469336
vt 0.670672 0.469336
vt 0.459594 0.041426
vt 0.447265 0.041426
vt 0.447265 0.020713
vt 0.459594 0.020713
vt 0.506829 0.352122
vt 0.506829 0.372835
vt 0.484369 0.372835
vt 0.484369 0.352122
vt 0.661692 0.414262
vt 0.674021 0.414262
vt 0.674021 0.434975
vt 0.661692 0.434975
vt 0.434935 0.041426
vt 0.434935 0.020713
vt 0.410276 0.041426
vt 0.402506 0.041426
vt 0.402506 0.020713
vt 0.410276 0.020713
vt 0.686350 0.414262
vt 0.686350 0.434975
vt 0.593387 0.904094
vt 0.593387 0.924807
vt 0.422606 0.041426
vt 0.422606 0.020713
vt 0.734800 0.490049
vt 0.702736 0.490049
vt 0.702736 0.469336
vt 0.734800 0.469336
vt 0.593387 0.841954
vt 0.609419 0.841954
vt 0.609419 0.862667
vt 0.593387 0.862667
vt 0.711009 0.352122
vt 0.717174 0.352122
vt 0.717174 0.372835
vt 0.711009 0.372835
vt 0.661692 0.352122
vt 0.661692 0.372835
vt 0.459594 0.103565
vt 0.459594 0.082852
vt 0.232826 0.103565
vt 0.226662 0.103565
vt 0.226662 0.082852
vt 0.232826 0.082852
vt 0.626162 0.841954
vt 0.626162 0.862667
vt 0.638608 0.552188
vt 0.638608 0.531475
vt 0.471923 0.103565
vt 0.471923 0.082852
vt 0.767575 0.552188
vt 0.767575 0.531475
vt 0.792847 0.476096
vt 0.824911 0.476096
vt 0.824910 0.724653
vt 0.792847 0.724641
vt 0.232826 0.020713
vt 0.226662 0.020713
vt 0.226662 0.000000
vt 0.232826 0.000000
vt 0.856975 0.476096
vt 0.856974 0.724653
vt 0.626162 0.945520
vt 0.609419 0.945520
vt 0.717174 0.455688
vt 0.711009 0.455688
vt 0.447265 0.000000
vt 0.459594 0.000000
vt 0.267734 0.000000
vt 0.267734 0.020713
vt 0.245272 0.020713
vt 0.245272 0.000000
vt 0.674021 0.455688
vt 0.661692 0.455688
vt 0.593387 0.945520
vt 0.434935 0.000000
vt 0.232826 0.041426
vt 0.226662 0.041426
vt 0.767575 0.490049
vt 0.750832 0.490049
vt 0.750832 0.469336
vt 0.767575 0.469336
vt 0.698680 0.414262
vt 0.698680 0.434975
vt 0.497195 0.904094
vt 0.529259 0.904094
vt 0.529259 0.924807
vt 0.497195 0.924807
vt 0.471923 0.041426
vt 0.471923 0.020713
vt 0.561323 0.904094
vt 0.561323 0.924807
vt 0.649362 0.414262
vt 0.649362 0.434975
vt 0.484369 0.904094
vt 0.484369 0.924807
vt 0.641591 0.414262
vt 0.641591 0.434975
vt 0.402506 0.000000
vt 0.410276 0.000000
vt 0.686350 0.455688
vt 0.905070 0.476096
vt 0.889039 0.476096
vt 0.889039 0.469336
vt 0.905070 0.469336
vt 0.792847 0.469336
vt 0.824911 0.469336
vt 0.856975 0.469336
vt 0.780021 0.476096
vt 0.780021 0.469336
vt 0.792847 0.489616
vt 0.780021 0.489616
vt 0.792847 0.503137
vt 0.780021 0.503137
vt 0.792847 0.516657
vt 0.780021 0.516657
vt 0.792847 0.530178
vt 0.780021 0.530178
vt 0.921814 0.476096
vt 0.921814 0.469336
vt 0.792847 0.543698
vt 0.792847 0.552219
vt 0.780021 0.552219
vt 0.780021 0.543698
vt 0.422606 0.000000
vt 0.698680 0.455688
vt 0.471923 0.000000
vt 0.561323 0.945520
vt 0.529259 0.945520
vt 0.497195 0.945520
vt 0.000000 0.020713
vt 0.000000 0.000000
vt 0.484369 0.945520
vt 0.649362 0.455688
vt 0.905070 0.724653
vt 0.889039 0.724653
vt 0.921814 0.724653
vt 0.641591 0.455688
vt 0.387065 0.855008
vt 0.370322 0.855008
vt 0.370322 0.834295
vt 0.387065 0.834295
vt 0.290162 0.855008
vt 0.258098 0.855008
vt 0.258098 0.834295
vt 0.290162 0.834295
vt 0.322226 0.855008
vt 0.322226 0.834295
vt 0.354290 0.855008
vt 0.354290 0.834295
vt 0.780021 0.738301
vt 0.796764 0.738301
vt 0.796764 0.986858
vt 0.780021 0.986858
vt 0.812796 0.738301
vt 0.812796 0.986858
vt 0.844860 0.738301
vt 0.876924 0.738301
vt 0.876924 0.986858
vt 0.844860 0.986858
vt 0.908988 0.738301
vt 0.908988 0.986846
vt 0.441584 0.738000
vt 0.422695 0.738000
vt 0.422695 0.489455
vt 0.441584 0.489455
vt 0.903097 0.000000
vt 0.935161 0.000000
vt 0.935161 0.008521
vt 0.967225 0.000000
vt 0.967225 0.008521
vt 0.983257 0.000000
vt 1.000000 0.000000
vt 1.000000 0.008521
vt 0.983257 0.008521
vt 0.871033 0.000000
vt 0.825812 0.331192
vt 0.253043 0.820647
vt 0.245272 0.820647
vt 0.173127 0.839892
vt 0.154239 0.839892
vt 0.044890 0.986369
vt 0.012826 0.986369
vt 0.012826 0.813968
vt 0.044890 0.813977
vt 1.000000 0.180914
vt 0.983257 0.180914
vt 0.793748 0.331192
vt 0.185573 0.764454
vt 0.185573 0.729292
vt 0.204461 0.729292
vt 0.204461 0.764454
vt 0.185573 0.782034
vt 0.204461 0.782034
vt 0.185573 0.694131
vt 0.185573 0.658970
vt 0.204461 0.658970
vt 0.204461 0.694131
vt 0.185573 0.800395
vt 0.204461 0.800395
vt 0.076954 0.986369
vt 0.076954 0.813977
vt 0.410249 0.799934
vt 0.410249 0.820647
vt 0.967225 0.180914
vt 0.141793 0.986369
vt 0.141793 0.813977
vt 0.935161 0.180914
vt 0.258098 0.937861
vt 0.245272 0.937861
vt 0.245272 0.917148
vt 0.258098 0.917148
vt 0.258098 0.875722
vt 0.245272 0.875722
vt 0.245272 0.855008
vt 0.245272 0.834295
vt 0.402506 0.144992
vt 0.402506 0.165705
vt 0.245291 0.165705
vt 0.245289 0.144992
vt 0.267749 0.144992
vt 0.290208 0.144992
vt 0.312668 0.144992
vt 0.335127 0.144992
vt 0.357587 0.144992
vt 0.380046 0.144992
vt 0.506829 0.414262
vt 0.506829 0.434975
vt 0.484369 0.434975
vt 0.484369 0.414262
vt 0.780021 0.699999
vt 0.792847 0.700010
vt 0.780021 0.724629
vt 0.506829 0.455688
vt 0.484369 0.455688
vt 0.000000 0.986369
vt 0.000000 0.961739
vt 0.000000 0.937109
vt 0.000000 0.912479
vt 0.000000 0.887849
vt 0.000000 0.863219
vt 0.000000 0.838589
vt 0.000000 0.813959
vt 0.267745 0.103565
vt 0.245285 0.103565
vt 0.267747 0.124279
vt 0.245287 0.124278
vt 0.258098 1.000000
vt 0.245272 1.000000
vt 0.245272 0.979287
vt 0.258098 0.979287
vt 0.245272 0.958574
vt 0.258098 0.958574
vt 0.529259 0.800528
vt 0.497195 0.800528
vt 0.529259 0.821241
vt 0.497195 0.821241
vt 0.661692 0.310696
vt 0.649362 0.310696
vt 0.661692 0.331409
vt 0.649362 0.331409
vt 0.711009 0.310696
vt 0.698680 0.310696
vt 0.711009 0.331409
vt 0.698680 0.331409
vt 0.593387 0.800528
vt 0.561323 0.800528
vt 0.593387 0.821241
vt 0.561323 0.821241
vt 0.750832 0.593614
vt 0.767575 0.593614
vt 0.750832 0.572901
vt 0.767575 0.572901
vt 0.459594 0.144992
vt 0.471923 0.144992
vt 0.459594 0.124279
vt 0.471923 0.124279
vt 0.410276 0.144992
vt 0.422606 0.144992
vt 0.410276 0.124279
vt 0.422606 0.124279
vt 0.638608 0.593614
vt 0.670672 0.593614
vt 0.638608 0.572901
vt 0.670672 0.572901
vt 0.626162 0.800528
vt 0.609419 0.800528
vt 0.626162 0.821241
vt 0.609419 0.821241
vt 0.226662 0.144992
vt 0.232826 0.144992
vt 0.226662 0.124279
vt 0.232826 0.124279
vt 0.447265 0.144992
vt 0.447265 0.124279
vt 0.674021 0.310696
vt 0.674021 0.331409
vt 0.717174 0.310696
vt 0.717174 0.331409
vt 0.506829 0.289983
vt 0.506829 0.310696
vt 0.484369 0.310696
vt 0.484369 0.289983
vt 0.506829 0.331409
vt 0.484369 0.331409
vt 0.484369 0.800528
vt 0.484369 0.821241
vt 0.641591 0.310696
vt 0.641591 0.331409
vt 0.702736 0.593614
vt 0.702736 0.572901
vt 0.734800 0.593614
vt 0.734800 0.572901
vt 0.686350 0.310696
vt 0.686350 0.331409
vt 0.402506 0.124279
vt 0.434935 0.144992
vt 0.434935 0.124279
vt 0.506829 0.393549
vt 0.484369 0.393549
vt 0.245272 0.896435
vt 0.258098 0.896435
vt 0.561323 0.883380
vt 0.529259 0.883380
vt 0.649362 0.393549
vt 0.641591 0.393549
vt 0.698680 0.393549
vt 0.686350 0.393549
vt 0.497195 0.883380
vt 0.484369 0.883380
vt 0.734800 0.510762
vt 0.750832 0.510762
vt 0.670672 0.510762
vt 0.702736 0.510762
vt 0.661692 0.393549
vt 0.593387 0.883380
vt 0.459594 0.062139
vt 0.471923 0.062139
vt 0.711009 0.393549
vt 0.410276 0.062139
vt 0.422606 0.062139
vt 0.767575 0.510762
vt 0.226662 0.062139
vt 0.232826 0.062139
vt 0.434935 0.062139
vt 0.609419 0.883380
vt 0.674021 0.393549
vt 0.402506 0.062139
vt 0.447265 0.062139
vt 0.638608 0.510762
vt 0.717174 0.393549
vt 0.626162 0.883380
vt 0.267737 0.041426
vt 0.245276 0.041426
vt 0.380045 0.062139
vt 0.380044 0.041426
vt 0.357584 0.062139
vt 0.357583 0.041426
vt 0.335123 0.062139
vt 0.335121 0.041426
vt 0.312662 0.062139
vt 0.312660 0.041426
vt 0.290201 0.062139
vt 0.290199 0.041426
vt 0.380044 0.020713
vt 0.357582 0.020713
vt 0.335120 0.020713
vt 0.312658 0.020713
vt 0.290196 0.020713
vt 0.619131 0.414262
vt 0.619131 0.393549
vt 0.596671 0.414262
vt 0.596671 0.393549
vt 0.574211 0.414262
vt 0.574211 0.393549
vt 0.551750 0.414262
vt 0.551750 0.393549
vt 0.529290 0.414262
vt 0.529290 0.393549
vt 0.619131 0.372835
vt 0.596671 0.372835
vt 0.574211 0.372835
vt 0.551750 0.372835
vt 0.529290 0.372835
vt 0.619131 0.352122
vt 0.619131 0.331409
vt 0.596671 0.352122
vt 0.596671 0.331409
vt 0.574211 0.352122
vt 0.574211 0.331409
vt 0.551750 0.352122
vt 0.551750 0.331409
vt 0.529290 0.352122
vt 0.529290 0.331409
vt 0.619131 0.310696
vt 0.596671 0.310696
vt 0.574211 0.310696
vt 0.551750 0.310696
vt 0.529290 0.310696
vt 0.619131 0.289983
vt 0.596671 0.289983
vt 0.574211 0.289983
vt 0.551750 0.289983
vt 0.529290 0.289983
vt 0.380046 0.124279
vt 0.357586 0.124279
vt 0.335126 0.124279
vt 0.312667 0.124279
vt 0.290207 0.124279
vt 0.380046 0.103565
vt 0.357585 0.103565
vt 0.335125 0.103565
vt 0.312665 0.103565
vt 0.290205 0.103565
vt 0.380045 0.082852
vt 0.357585 0.082852
vt 0.335125 0.082852
vt 0.312664 0.082852
vt 0.290204 0.082852
vt 0.619131 0.455688
vt 0.619131 0.434975
vt 0.596671 0.455688
vt 0.596671 0.434975
vt 0.574211 0.455688
vt 0.574211 0.434975
vt 0.551750 0.455688
vt 0.551750 0.434975
vt 0.529290 0.455688
vt 0.529290 0.434975
vt 0.792847 0.576851
vt 0.780021 0.576849
vt 0.792847 0.601483
vt 0.780021 0.601479
vt 0.792847 0.626114
vt 0.780021 0.626109
vt 0.792847 0.650746
vt 0.780021 0.650739
vt 0.792847 0.675378
vt 0.780021 0.675369
vt 0.380044 0.000000
vt 0.357582 0.000000
vt 0.335120 0.000000
vt 0.312658 0.000000
vt 0.290196 0.000000
vt 0.593387 0.724580
vt 0.561323 0.724580
vt 0.734800 0.669562
vt 0.750832 0.669562
vt 0.447265 0.220940
vt 0.459594 0.220940
vt 0.529259 0.724580
vt 0.497195 0.724580
vt 0.410276 0.220940
vt 0.422606 0.220940
vt 0.434935 0.220940
vt 0.638608 0.669562
vt 0.670672 0.669562
vt 0.000000 0.545067
vt 0.012826 0.545067
vt 0.841844 0.255244
vt 0.825812 0.255244
vt 0.702736 0.669562
vt 0.076954 0.545067
vt 0.109018 0.545067
vt 0.767575 0.669562
vt 0.761684 0.255244
vt 0.729620 0.255244
vt 0.626162 0.724580
vt 0.609419 0.724580
vt 0.649362 0.234748
vt 0.641591 0.234748
vt 0.471923 0.220940
vt 0.793748 0.255244
vt 0.484369 0.724580
vt 0.858587 0.255244
vt 0.711009 0.234748
vt 0.698680 0.234748
vt 0.253043 0.744699
vt 0.245272 0.744699
vt 0.125050 0.545067
vt 0.141793 0.545067
vt 0.686350 0.234748
vt 0.044890 0.545067
vt 0.717174 0.234748
vt 0.674021 0.234748
vt 0.226662 0.220940
vt 0.232826 0.220940
vt 0.661692 0.234748
vt 0.000000 0.738389
vt 0.012826 0.738389
vt 0.000000 0.696963
vt 0.012826 0.696963
vt 0.000000 0.655537
vt 0.012826 0.655537
vt 0.253043 0.551377
vt 0.245272 0.551377
vt 0.253043 0.592803
vt 0.245272 0.592803
vt 0.253043 0.634229
vt 0.245272 0.634229
vt 0.702736 0.862884
vt 0.734800 0.862884
vt 0.702736 0.821458
vt 0.734800 0.821458
vt 0.702736 0.780032
vt 0.734800 0.780032
vt 0.661692 0.000000
vt 0.674021 0.000000
vt 0.674021 0.041426
vt 0.661692 0.041426
vt 0.674021 0.082852
vt 0.661692 0.082852
vt 0.674021 0.124278
vt 0.661692 0.124278
vt 0.561323 0.531258
vt 0.529259 0.531258
vt 0.561323 0.572684
vt 0.529259 0.572684
vt 0.561323 0.614110
vt 0.529259 0.614110
vt 0.858587 0.061922
vt 0.841844 0.061922
vt 0.858587 0.103348
vt 0.841844 0.103348
vt 0.858587 0.144774
vt 0.841844 0.144774
vt 0.686350 0.000000
vt 0.686350 0.041426
vt 0.686350 0.082852
vt 0.686350 0.124279
vt 0.109018 0.738389
vt 0.125050 0.738389
vt 0.109018 0.696963
vt 0.125050 0.696963
vt 0.109018 0.655537
vt 0.125050 0.655537
vt 0.497195 0.531258
vt 0.484369 0.531258
vt 0.497195 0.572684
vt 0.484369 0.572684
vt 0.497195 0.614110
vt 0.484369 0.614110
vt 0.641591 0.000000
vt 0.649362 0.000000
vt 0.649362 0.041426
vt 0.641591 0.041426
vt 0.649362 0.082852
vt 0.641591 0.082852
vt 0.649362 0.124278
vt 0.641591 0.124278
vt 0.698680 0.000000
vt 0.698680 0.041426
vt 0.698680 0.082852
vt 0.698680 0.124279
vt 0.670672 0.862884
vt 0.670672 0.821458
vt 0.670672 0.780032
vt 0.044890 0.738389
vt 0.076954 0.738389
vt 0.044890 0.696963
vt 0.076954 0.696963
vt 0.044890 0.655537
vt 0.076954 0.655537
vt 0.825812 0.061922
vt 0.825812 0.103348
vt 0.825812 0.144774
vt 0.447264 0.414262
vt 0.459594 0.414262
vt 0.447264 0.372835
vt 0.459594 0.372836
vt 0.447264 0.331409
vt 0.459594 0.331409
vt 0.471923 0.414262
vt 0.471923 0.372836
vt 0.471923 0.331409
vt 0.711009 0.000000
vt 0.711009 0.041426
vt 0.711009 0.082852
vt 0.711009 0.124279
vt 0.793748 0.061922
vt 0.761684 0.061922
vt 0.793748 0.103348
vt 0.761684 0.103348
vt 0.793748 0.144774
vt 0.761684 0.144774
vt 0.141793 0.738389
vt 0.141793 0.696963
vt 0.141793 0.655537
vt 0.422606 0.414262
vt 0.434935 0.414262
vt 0.422606 0.372835
vt 0.434935 0.372835
vt 0.422606 0.331409
vt 0.434935 0.331409
vt 0.410276 0.414262
vt 0.410276 0.372835
vt 0.410276 0.331409
vt 0.750832 0.862884
vt 0.750832 0.821458
vt 0.750832 0.780032
vt 0.729620 0.061922
vt 0.729620 0.103348
vt 0.729620 0.144774
vt 0.626162 0.531258
vt 0.609419 0.531258
vt 0.626162 0.572684
vt 0.609419 0.572684
vt 0.626162 0.614110
vt 0.609419 0.614110
vt 0.638608 0.862884
vt 0.638608 0.821458
vt 0.638608 0.780032
vt 0.717174 0.000000
vt 0.717174 0.041426
vt 0.717174 0.082852
vt 0.717174 0.124279
vt 0.593387 0.531258
vt 0.593387 0.572684
vt 0.593387 0.614110
vt 0.767575 0.862884
vt 0.767575 0.821458
vt 0.767575 0.780032
vt 0.226662 0.414262
vt 0.232826 0.414262
vt 0.226662 0.372836
vt 0.232826 0.372836
vt 0.226662 0.331409
vt 0.232826 0.331409
s 0
usemtl frames
f 623/1/1 700/2/1 132/3/1 131/4/1
f 708/5/2 707/6/2 114/7/2 116/8/2
f 56/9/2 3/10/2 26/11/2 59/12/2
f 700/13/3 628/14/3 104/15/3 132/16/3
f 696/17/2 680/18/2 106/19/2 127/20/2
f 88/21/2 42/22/2 53/23/2 90/24/2
f 692/25/3 691/26/3 121/27/3 108/28/3
f 58/29/3 18/30/3 14/31/3 57/32/3
f 15/33/3 20/34/3 13/35/3 19/36/3
f 91/37/3 15/33/3 19/36/3 92/38/3
f 95/39/1 97/40/1 16/41/1 17/42/1
f 71/43/1 4/44/1 25/45/1 79/46/1
f 20/34/3 15/33/3 32/47/3 31/48/3
f 684/49/1 648/50/1 134/51/1 135/52/1
f 680/18/2 616/53/2 103/54/2 106/19/2
f 14/31/3 18/30/3 23/55/3 24/56/3
f 98/57/1 39/58/1 48/59/1 47/60/1
f 79/61/4 25/62/4 33/63/4 83/64/4
f 59/65/4 26/66/4 30/67/4 60/68/4
f 29/69/4 28/70/4 31/71/4 32/72/4
f 30/67/4 26/66/4 27/73/4 34/74/4
f 11/75/2 8/76/2 28/77/2 29/78/2
f 58/29/3 20/34/3 31/48/3 60/79/3
f 23/55/3 18/30/3 30/80/3 34/81/3
f 93/82/5 29/69/5 32/72/5 94/83/5
f 101/84/2 11/75/2 29/78/2 93/85/2
f 91/37/3 16/86/3 36/87/3 94/88/3
f 16/41/1 97/40/1 35/89/1 36/90/1
f 63/91/2 40/92/2 41/93/2 64/94/2
f 37/95/2 43/96/2 44/97/2 42/22/2
f 87/98/2 37/95/2 42/22/2 88/21/2
f 41/93/2 40/92/2 45/99/2 46/100/2
f 676/101/6 675/102/6 128/103/6 130/104/6
f 608/105/3 615/106/3 115/107/3 113/108/3
f 98/57/1 96/109/1 38/110/1 39/58/1
f 89/111/7 47/112/7 48/113/7 90/114/7
f 33/63/4 25/62/4 52/115/4 51/116/4
f 65/117/4 50/118/4 54/119/4 66/120/4
f 50/118/4 49/121/4 53/122/4 54/119/4
f 100/123/3 98/124/3 47/125/3 89/126/3
f 41/93/2 46/100/2 51/127/2 52/128/2
f 42/22/2 44/97/2 54/129/2 53/23/2
f 62/130/3 7/131/3 50/132/3 65/133/3
f 7/131/3 10/134/3 49/135/3 50/132/3
f 64/94/2 41/93/2 52/128/2 66/136/2
f 70/137/1 2/138/1 4/44/1 71/43/1
f 61/139/3 62/130/3 4/140/3 2/141/3
f 9/142/3 10/134/3 7/131/3 6/143/3
f 99/144/3 100/123/3 10/134/3 9/142/3
f 55/145/2 1/146/2 3/10/2 56/9/2
f 12/147/2 5/148/2 8/76/2 11/75/2
f 5/148/2 55/145/2 56/9/2 8/76/2
f 18/30/3 58/29/3 60/79/3 30/80/3
f 28/70/4 59/65/4 60/68/4 31/71/4
f 20/34/3 58/29/3 57/32/3 13/35/3
f 8/76/2 56/9/2 59/12/2 28/77/2
f 616/53/2 623/149/2 131/150/2 103/54/2
f 6/143/3 7/131/3 62/130/3 61/139/3
f 44/97/2 64/94/2 66/136/2 54/129/2
f 4/140/3 62/130/3 65/133/3 25/151/3
f 25/62/4 65/117/4 66/120/4 52/115/4
f 43/96/2 63/91/2 64/94/2 44/97/2
f 647/152/2 627/153/2 107/154/2 125/155/2
f 1/156/1 67/157/1 74/158/1 3/159/1
f 67/157/1 68/160/1 73/161/1 74/158/1
f 68/160/1 69/162/1 72/163/1 73/161/1
f 69/162/1 70/137/1 71/43/1 72/163/1
f 26/66/4 82/164/4 86/165/4 27/73/4
f 82/164/4 81/166/4 85/167/4 86/165/4
f 81/166/4 80/168/4 84/169/4 85/167/4
f 80/168/4 79/61/4 83/64/4 84/169/4
f 628/14/3 635/170/3 105/171/3 104/15/3
f 636/172/3 643/173/3 110/174/3 112/175/3
f 655/176/1 647/177/1 125/178/1 126/179/1
f 648/50/1 655/176/1 126/179/1 134/51/1
f 3/159/1 74/158/1 82/180/1 26/181/1
f 74/158/1 73/161/1 81/182/1 82/180/1
f 73/161/1 72/163/1 80/183/1 81/182/1
f 72/163/1 71/43/1 79/46/1 80/183/1
f 10/134/3 100/123/3 89/126/3 49/135/3
f 49/121/5 89/111/5 90/114/5 53/122/5
f 38/184/2 87/98/2 88/21/2 39/185/2
f 39/185/2 88/21/2 90/24/2 48/186/2
f 656/187/3 663/188/3 117/189/3 120/190/3
f 11/75/2 101/84/2 102/191/2 12/147/2
f 15/33/3 91/37/3 94/88/3 32/47/3
f 97/192/2 101/84/2 93/85/2 35/193/2
f 35/194/7 93/82/7 94/83/7 36/195/7
f 16/86/3 91/37/3 92/38/3 17/196/3
f 664/197/2 671/198/2 111/199/2 109/200/2
f 101/84/2 97/192/2 95/201/2 102/191/2
f 96/202/3 98/124/3 100/123/3 99/144/3
f 581/203/6 572/204/6 174/205/6 159/206/6
f 582/207/6 581/203/6 159/206/6 158/208/6
f 578/209/1 577/210/1 168/211/1 167/212/1
f 574/213/3 568/214/3 144/215/3 146/216/3
f 572/204/6 542/217/6 173/218/6 174/205/6
f 545/219/3 571/220/3 148/221/3 153/222/3
f 559/223/6 564/224/6 164/225/6 166/226/6
f 568/214/3 537/227/3 157/228/3 144/215/3
f 538/229/2 541/230/2 145/231/2 143/232/2
f 542/217/6 556/233/6 172/234/6 173/218/6
f 547/235/3 545/219/3 153/222/3 156/236/3
f 563/237/1 547/238/1 156/239/1 155/240/1
f 548/241/3 551/242/3 165/243/3 141/244/3
f 552/245/2 555/246/2 139/247/2 142/248/2
f 556/233/6 559/223/6 166/226/6 172/234/6
f 560/249/2 563/250/2 155/251/2 154/252/2
f 564/253/2 567/254/2 152/255/2 164/256/2
f 627/153/2 664/197/2 109/200/2 107/154/2
f 712/257/6 676/101/6 130/104/6 136/258/6
f 615/259/1 719/260/1 133/261/1 115/262/1
f 719/260/1 684/49/1 135/52/1 133/261/1
f 671/198/2 723/263/2 118/264/2 111/199/2
f 728/265/6 727/266/6 123/267/6 122/268/6
f 643/173/3 692/25/3 108/28/3 110/174/3
f 732/269/3 608/105/3 113/108/3 129/270/3
f 736/271/6 712/257/6 136/258/6 137/272/6
f 740/273/6 728/265/6 122/268/6 124/274/6
f 675/275/2 708/5/2 116/8/2 128/276/2
f 663/188/3 636/172/3 112/175/3 117/189/3
f 744/277/6 736/271/6 137/272/6 138/278/6
f 723/263/2 751/279/2 119/280/2 118/264/2
f 707/6/2 696/17/2 127/20/2 114/7/2
f 727/266/6 744/277/6 138/278/6 123/267/6
f 635/170/3 732/269/3 129/270/3 105/171/3
f 751/281/1 656/282/1 120/283/1 119/284/1
f 691/26/3 740/285/3 124/286/3 121/27/3
f 345/287/1 339/288/1 196/289/1 197/290/1
f 153/291/4 148/292/4 281/293/4 283/294/4
f 274/295/8 265/296/8 276/297/8 279/298/8
f 535/299/1 457/300/1 290/301/1 430/302/1
f 154/252/2 155/251/2 272/303/2 271/304/2
f 342/305/6 300/306/6 199/307/6 200/308/6
f 339/288/1 338/309/1 188/310/1 196/289/1
f 333/311/1 332/312/1 187/313/1 186/314/1
f 327/315/3 306/316/3 177/317/3 176/318/3
f 157/319/6 274/320/6 279/321/6 278/322/6
f 294/323/2 299/324/2 189/325/2 180/326/2
f 300/306/6 305/327/6 198/328/6 199/307/6
f 306/316/3 309/329/3 191/330/3 177/317/3
f 309/329/3 314/331/3 179/332/3 191/330/3
f 315/333/6 320/334/6 183/335/6 185/336/6
f 321/337/2 326/338/2 182/339/2 190/340/2
f 161/341/2 143/232/2 264/342/2 275/343/2
f 541/230/2 585/344/2 147/345/2 145/231/2
f 588/346/1 587/347/1 169/348/1 151/349/1
f 590/350/6 582/207/6 158/208/6 160/351/6
f 555/246/2 578/352/2 167/353/2 139/247/2
f 592/354/2 538/229/2 143/232/2 161/341/2
f 577/355/3 595/356/3 140/357/3 168/358/3
f 571/220/3 574/213/3 146/216/3 148/221/3
f 551/242/3 597/359/3 149/360/3 165/243/3
f 585/344/2 560/249/2 154/252/2 147/345/2
f 600/361/2 599/362/2 163/363/2 150/364/2
f 537/227/3 590/365/3 160/366/3 157/228/3
f 597/359/3 588/367/3 151/368/3 149/360/3
f 604/369/1 603/370/1 162/371/1 170/372/1
f 606/373/1 604/369/1 170/372/1 171/374/1
f 603/370/1 592/375/1 161/376/1 162/371/1
f 567/254/2 600/361/2 150/364/2 152/255/2
f 587/347/1 606/373/1 171/374/1 169/348/1
f 595/356/3 548/241/3 141/244/3 140/357/3
f 599/362/2 552/245/2 142/248/2 163/363/2
f 391/377/2 415/378/2 219/379/2 201/380/2
f 412/381/6 411/382/6 216/383/6 218/384/6
f 408/385/3 407/386/3 207/387/3 205/388/3
f 404/389/1 378/390/1 223/391/1 221/392/1
f 511/393/6 445/394/6 289/395/6 372/396/6
f 400/397/6 384/398/6 226/399/6 210/400/6
f 378/390/1 392/401/1 222/402/1 223/391/1
f 380/403/1 383/404/1 213/405/1 212/406/1
f 384/398/6 387/407/6 225/408/6 226/399/6
f 388/409/2 391/377/2 201/380/2 204/410/2
f 392/401/1 395/411/1 214/412/1 222/402/1
f 396/413/3 399/414/3 217/415/3 203/416/3
f 351/417/2 350/418/2 175/419/2 178/420/2
f 354/421/6 321/422/6 190/423/6 192/424/6
f 357/425/6 342/305/6 200/308/6 184/426/6
f 360/427/1 345/287/1 197/290/1 195/428/1
f 366/429/1 365/430/1 194/431/1 193/432/1
f 350/418/2 366/433/2 193/434/2 175/419/2
f 314/331/3 371/435/3 181/436/3 179/332/3
f 338/309/1 333/311/1 186/314/1 188/310/1
f 371/437/1 360/427/1 195/428/1 181/438/1
f 365/439/3 327/315/3 176/318/3 194/440/3
f 299/324/2 351/417/2 178/420/2 189/325/2
f 305/327/6 354/421/6 192/424/6 198/328/6
f 320/334/6 357/425/6 184/426/6 183/335/6
f 326/338/2 294/323/2 180/326/2 182/339/2
f 233/441/8 231/442/8 261/443/8 260/444/8
f 219/445/1 220/446/1 246/447/1 245/448/1
f 231/442/8 243/449/8 262/450/8 261/443/8
f 201/380/2 219/379/2 245/451/2 227/452/2
f 218/384/6 216/383/6 242/453/6 244/454/6
f 221/392/1 223/391/1 249/455/1 247/456/1
f 470/457/1 439/458/1 291/459/1 260/460/1
f 210/400/6 226/399/6 252/461/6 236/462/6
f 204/410/2 201/380/2 227/452/2 230/463/2
f 223/391/1 222/402/1 248/464/1 249/455/1
f 415/465/1 417/466/1 220/446/1 219/445/1
f 417/467/3 419/468/3 202/469/3 220/470/3
f 395/411/1 380/403/1 212/406/1 214/412/1
f 420/471/6 412/381/6 218/384/6 224/472/6
f 424/473/2 423/474/2 206/475/2 208/476/2
f 407/477/1 404/389/1 221/392/1 207/478/1
f 426/479/2 388/409/2 204/410/2 215/480/2
f 428/481/6 400/397/6 210/400/6 209/482/6
f 399/414/3 408/385/3 205/388/3 217/415/3
f 419/468/3 396/413/3 203/416/3 202/469/3
f 411/483/2 424/473/2 208/476/2 216/484/2
f 387/407/6 420/471/6 224/472/6 225/408/6
f 403/485/6 428/481/6 209/482/6 211/486/6
f 423/474/2 426/479/2 215/480/2 206/475/2
f 212/406/1 213/405/1 239/487/1 238/488/1
f 226/399/6 225/408/6 251/489/6 252/461/6
f 228/490/8 229/491/8 230/492/8 227/493/8
f 231/442/8 233/441/8 234/494/8 232/495/8
f 229/491/8 243/449/8 241/496/8 230/492/8
f 233/441/8 244/497/8 242/498/8 234/494/8
f 243/449/8 231/442/8 232/495/8 241/496/8
f 233/441/8 247/499/8 250/500/8 244/497/8
f 247/499/8 249/501/8 251/502/8 250/500/8
f 249/501/8 248/503/8 252/504/8 251/502/8
f 248/503/8 240/505/8 236/506/8 252/504/8
f 246/507/8 228/490/8 227/493/8 245/508/8
f 238/509/8 239/510/8 237/511/8 235/512/8
f 240/505/8 238/509/8 235/512/8 236/506/8
f 214/412/1 212/406/1 238/488/1 240/513/1
f 224/472/6 218/384/6 244/454/6 250/514/6
f 207/478/1 221/392/1 247/456/1 233/515/1
f 215/480/2 204/410/2 230/463/2 241/516/2
f 208/476/2 206/475/2 232/517/2 234/518/2
f 246/447/1 220/446/1 257/519/1 263/520/1
f 216/484/2 208/476/2 234/518/2 242/521/2
f 225/408/6 224/472/6 250/514/6 251/489/6
f 209/482/6 210/400/6 236/462/6 235/522/6
f 206/475/2 215/480/2 241/516/2 232/517/2
f 229/491/8 228/490/8 259/523/8 258/524/8
f 228/490/8 246/507/8 263/525/8 259/523/8
f 211/486/6 209/482/6 235/522/6 237/526/6
f 222/402/1 214/412/1 240/513/1 248/464/1
f 257/527/3 254/528/3 259/529/3 263/530/3
f 255/531/9 291/532/9 260/533/9 261/534/9
f 256/535/3 255/531/3 261/534/3 262/536/3
f 254/528/3 253/537/3 258/538/3 259/529/3
f 253/537/3 256/535/3 262/536/3 258/538/3
f 220/539/4 202/540/4 254/541/4 257/542/4
f 202/540/4 203/543/4 253/544/4 254/541/4
f 217/545/4 205/546/4 255/547/4 256/548/4
f 205/546/4 207/549/4 291/550/4 255/547/4
f 243/449/8 229/491/8 258/524/8 262/450/8
f 207/551/6 233/552/6 260/553/6 291/554/6
f 203/543/4 217/545/4 256/548/4 253/544/4
f 264/555/8 266/556/8 267/557/8 265/296/8
f 266/556/8 268/558/8 269/559/8 267/557/8
f 271/560/8 272/561/8 273/562/8 270/563/8
f 275/564/8 264/555/8 265/296/8 274/295/8
f 268/558/8 271/560/8 270/563/8 269/559/8
f 147/345/2 154/252/2 271/304/2 268/565/2
f 155/240/1 156/239/1 273/566/1 272/567/1
f 157/319/6 161/568/6 275/569/6 274/320/6
f 144/570/4 157/571/4 278/572/4 277/573/4
f 270/563/8 273/562/8 286/574/8 287/575/8
f 145/231/2 147/345/2 268/565/2 266/576/2
f 143/232/2 145/231/2 266/576/2 264/342/2
f 281/577/3 280/578/3 284/579/3 285/580/3
f 283/581/3 281/577/3 285/580/3 287/582/3
f 277/583/10 278/584/10 279/585/10 276/586/10
f 280/578/3 277/583/3 276/586/3 284/579/3
f 282/587/3 283/581/3 287/582/3 286/588/3
f 148/292/4 146/589/4 280/590/4 281/293/4
f 273/566/1 156/239/1 282/591/1 286/592/1
f 146/589/4 144/570/4 277/573/4 280/590/4
f 269/559/8 270/563/8 287/575/8 285/593/8
f 156/594/4 153/291/4 283/294/4 282/595/4
f 267/557/8 269/559/8 285/593/8 284/596/8
f 265/296/8 267/557/8 284/596/8 276/297/8
f 377/597/11 372/598/12 289/599/12 290/600/12
f 431/601/13 433/602/14 292/603/14 291/532/14
f 291/532/3 292/603/3 293/604/3 260/533/3
f 330/605/1 157/606/1 278/607/1 375/608/1 493/609/1 492/610/1 491/611/1 490/612/1 489/613/1 488/614/1
f 523/615/6 463/616/6 292/617/6 433/618/6
f 464/619/8 470/620/8 260/444/8 293/621/8
f 463/616/6 464/622/6 293/623/6 292/617/6
f 157/571/4 160/624/4 451/625/4 450/626/4 449/627/4 448/628/4 447/629/4 446/630/4 288/631/4 278/572/4
f 457/300/1 481/632/1 377/633/1 290/301/1
f 481/632/1 487/634/1 376/635/1 377/633/1
f 487/634/1 493/609/1 375/608/1 376/635/1
f 278/636/15 288/637/15 374/638/16 375/639/15
f 375/639/17 374/638/18 373/640/17 376/641/18
f 376/641/19 373/640/14 372/598/19 377/597/14
f 152/255/2 150/364/2 296/642/2 324/643/2
f 324/643/2 296/642/2 295/644/2 325/645/2
f 325/645/2 295/644/2 294/323/2 326/338/2
f 158/208/6 159/206/6 359/646/6 318/647/6
f 318/647/6 359/646/6 358/648/6 319/649/6
f 319/649/6 358/648/6 357/425/6 320/334/6
f 172/234/6 166/226/6 356/650/6 303/651/6
f 303/651/6 356/650/6 355/652/6 304/653/6
f 304/653/6 355/652/6 354/421/6 305/327/6
f 163/363/2 142/248/2 353/654/2 297/655/2
f 297/655/2 353/654/2 352/656/2 298/657/2
f 298/657/2 352/656/2 351/417/2 299/324/2
f 168/358/3 140/357/3 329/658/3 363/659/3
f 363/659/3 329/658/3 328/660/3 364/661/3
f 364/661/3 328/660/3 327/315/3 365/439/3
f 151/349/1 169/348/1 362/662/1 369/663/1
f 369/663/1 362/662/1 361/664/1 370/665/1
f 370/665/1 361/664/1 360/427/1 371/437/1
f 162/371/1 161/376/1 335/666/1 336/667/1
f 336/667/1 335/666/1 334/668/1 337/669/1
f 337/669/1 334/668/1 333/311/1 338/309/1
f 149/360/3 151/368/3 369/670/3 312/671/3
f 312/671/3 369/670/3 370/672/3 313/673/3
f 313/673/3 370/672/3 371/435/3 314/331/3
f 139/247/2 167/353/2 368/674/2 348/675/2
f 348/675/2 368/674/2 367/676/2 349/677/2
f 349/677/2 367/676/2 366/433/2 350/418/2
f 167/212/1 168/211/1 363/678/1 368/679/1
f 368/679/1 363/678/1 364/680/1 367/681/1
f 367/681/1 364/680/1 365/430/1 366/429/1
f 169/348/1 171/374/1 347/682/1 362/662/1
f 362/662/1 347/682/1 346/683/1 361/664/1
f 361/664/1 346/683/1 345/287/1 360/427/1
f 159/206/6 174/205/6 344/684/6 359/646/6
f 359/646/6 344/684/6 343/685/6 358/648/6
f 358/648/6 343/685/6 342/305/6 357/425/6
f 166/226/6 164/225/6 323/686/6 356/650/6
f 356/650/6 323/686/6 322/687/6 355/652/6
f 355/652/6 322/687/6 321/422/6 354/421/6
f 142/248/2 139/247/2 348/675/2 353/654/2
f 353/654/2 348/675/2 349/677/2 352/656/2
f 352/656/2 349/677/2 350/418/2 351/417/2
f 446/688/6 499/689/6 374/690/6 288/691/6
f 499/689/6 505/692/6 373/693/6 374/690/6
f 505/692/6 511/393/6 372/396/6 373/693/6
f 164/256/2 152/255/2 324/643/2 323/694/2
f 323/694/2 324/643/2 325/645/2 322/695/2
f 322/695/2 325/645/2 326/338/2 321/337/2
f 160/351/6 158/208/6 318/647/6 317/696/6
f 317/696/6 318/647/6 319/649/6 316/697/6
f 316/697/6 319/649/6 320/334/6 315/333/6
f 165/243/3 149/360/3 312/671/3 311/698/3
f 311/698/3 312/671/3 313/673/3 310/699/3
f 310/699/3 313/673/3 314/331/3 309/329/3
f 141/244/3 165/243/3 311/698/3 308/700/3
f 308/700/3 311/698/3 310/699/3 307/701/3
f 307/701/3 310/699/3 309/329/3 306/316/3
f 173/218/6 172/234/6 303/651/6 302/702/6
f 302/702/6 303/651/6 304/653/6 301/703/6
f 301/703/6 304/653/6 305/327/6 300/306/6
f 150/364/2 163/363/2 297/655/2 296/642/2
f 296/642/2 297/655/2 298/657/2 295/644/2
f 295/644/2 298/657/2 299/324/2 294/323/2
f 140/357/3 141/244/3 308/700/3 329/658/3
f 329/658/3 308/700/3 307/701/3 328/660/3
f 328/660/3 307/701/3 306/316/3 327/315/3
f 161/376/1 157/606/1 330/605/1 335/666/1
f 335/666/1 330/605/1 331/704/1 334/668/1
f 334/668/1 331/704/1 332/312/1 333/311/1
f 170/372/1 162/371/1 336/667/1 341/705/1
f 341/705/1 336/667/1 337/669/1 340/706/1
f 340/706/1 337/669/1 338/309/1 339/288/1
f 174/205/6 173/218/6 302/702/6 344/684/6
f 344/684/6 302/702/6 301/703/6 343/685/6
f 343/685/6 301/703/6 300/306/6 342/305/6
f 171/374/1 170/372/1 341/705/1 347/682/1
f 347/682/1 341/705/1 340/706/1 346/683/1
f 346/683/1 340/706/1 339/288/1 345/287/1
f 445/394/6 517/707/6 432/708/6 289/395/6
f 517/707/6 523/615/6 433/618/6 432/708/6
f 290/600/20 289/599/20 432/709/21 430/710/20
f 430/710/22 432/709/3 433/602/22 431/601/3
f 180/326/2 189/325/2 427/711/2 422/712/2
f 422/712/2 427/711/2 426/479/2 423/474/2
f 185/336/6 183/335/6 429/713/6 402/714/6
f 402/714/6 429/713/6 428/481/6 403/485/6
f 199/307/6 198/328/6 421/715/6 386/716/6
f 386/716/6 421/715/6 420/471/6 387/407/6
f 190/340/2 182/339/2 425/717/2 410/718/2
f 410/718/2 425/717/2 424/473/2 411/483/2
f 176/318/3 177/317/3 397/719/3 418/720/3
f 418/720/3 397/719/3 396/413/3 419/468/3
f 191/330/3 179/332/3 409/721/3 398/722/3
f 398/722/3 409/721/3 408/385/3 399/414/3
f 183/335/6 184/426/6 401/723/6 429/713/6
f 429/713/6 401/723/6 400/397/6 428/481/6
f 189/325/2 178/420/2 389/724/2 427/711/2
f 427/711/2 389/724/2 388/409/2 426/479/2
f 181/438/1 195/428/1 405/725/1 406/726/1
f 406/726/1 405/725/1 404/389/1 407/477/1
f 182/339/2 180/326/2 422/712/2 425/717/2
f 425/717/2 422/712/2 423/474/2 424/473/2
f 198/328/6 192/424/6 413/727/6 421/715/6
f 421/715/6 413/727/6 412/381/6 420/471/6
f 188/310/1 186/314/1 381/728/1 394/729/1
f 394/729/1 381/728/1 380/403/1 395/411/1
f 194/440/3 176/318/3 418/720/3 416/730/3
f 416/730/3 418/720/3 419/468/3 417/467/3
f 193/432/1 194/431/1 416/731/1 414/732/1
f 414/732/1 416/731/1 417/466/1 415/465/1
f 177/317/3 191/330/3 398/722/3 397/719/3
f 397/719/3 398/722/3 399/414/3 396/413/3
f 196/289/1 188/310/1 394/729/1 393/733/1
f 393/733/1 394/729/1 395/411/1 392/401/1
f 178/420/2 175/419/2 390/734/2 389/724/2
f 389/724/2 390/734/2 391/377/2 388/409/2
f 200/308/6 199/307/6 386/716/6 385/735/6
f 385/735/6 386/716/6 387/407/6 384/398/6
f 186/314/1 187/313/1 382/736/1 381/728/1
f 381/728/1 382/736/1 383/404/1 380/403/1
f 197/290/1 196/289/1 393/733/1 379/737/1
f 379/737/1 393/733/1 392/401/1 378/390/1
f 184/426/6 200/308/6 385/735/6 401/723/6
f 401/723/6 385/735/6 384/398/6 400/397/6
f 195/428/1 197/290/1 379/737/1 405/725/1
f 405/725/1 379/737/1 378/390/1 404/389/1
f 179/332/3 181/436/3 406/738/3 409/721/3
f 409/721/3 406/738/3 407/386/3 408/385/3
f 192/424/6 190/423/6 410/739/6 413/727/6
f 413/727/6 410/739/6 411/382/6 412/381/6
f 175/419/2 193/434/2 414/740/2 390/734/2
f 390/734/2 414/740/2 415/378/2 391/377/2
f 439/458/1 529/741/1 431/742/1 291/459/1
f 529/741/1 535/299/1 430/302/1 431/742/1
f 383/404/1 382/736/1 530/743/1 524/744/1
f 524/744/1 530/743/1 531/745/1 525/746/1
f 525/746/1 531/745/1 532/747/1 526/748/1
f 526/748/1 532/747/1 533/749/1 527/750/1
f 527/750/1 533/749/1 534/751/1 528/752/1
f 528/752/1 534/751/1 535/299/1 529/741/1
f 213/405/1 383/404/1 524/744/1 434/753/1
f 434/753/1 524/744/1 525/746/1 435/754/1
f 435/754/1 525/746/1 526/748/1 436/755/1
f 436/755/1 526/748/1 527/750/1 437/756/1
f 437/756/1 527/750/1 528/752/1 438/757/1
f 438/757/1 528/752/1 529/741/1 439/458/1
f 402/714/6 403/485/6 518/758/6 512/759/6
f 512/759/6 518/758/6 519/760/6 513/761/6
f 513/761/6 519/760/6 520/762/6 514/763/6
f 514/763/6 520/762/6 521/764/6 515/765/6
f 515/765/6 521/764/6 522/766/6 516/767/6
f 516/767/6 522/766/6 523/615/6 517/707/6
f 185/336/6 402/714/6 512/759/6 440/768/6
f 440/768/6 512/759/6 513/761/6 441/769/6
f 441/769/6 513/761/6 514/763/6 442/770/6
f 442/770/6 514/763/6 515/765/6 443/771/6
f 443/771/6 515/765/6 516/767/6 444/772/6
f 444/772/6 516/767/6 517/707/6 445/394/6
f 316/697/6 315/333/6 506/773/6 500/774/6
f 500/774/6 506/773/6 507/775/6 501/776/6
f 501/776/6 507/775/6 508/777/6 502/778/6
f 502/778/6 508/777/6 509/779/6 503/780/6
f 503/780/6 509/779/6 510/781/6 504/782/6
f 504/782/6 510/781/6 511/393/6 505/692/6
f 317/696/6 316/697/6 500/774/6 494/783/6
f 494/783/6 500/774/6 501/776/6 495/784/6
f 495/784/6 501/776/6 502/778/6 496/785/6
f 496/785/6 502/778/6 503/780/6 497/786/6
f 497/786/6 503/780/6 504/782/6 498/787/6
f 498/787/6 504/782/6 505/692/6 499/689/6
f 160/351/6 317/696/6 494/783/6 451/788/6
f 451/788/6 494/783/6 495/784/6 450/789/6
f 450/789/6 495/784/6 496/785/6 449/790/6
f 449/790/6 496/785/6 497/786/6 448/791/6
f 448/791/6 497/786/6 498/787/6 447/792/6
f 447/792/6 498/787/6 499/689/6 446/688/6
f 331/704/1 330/605/1 488/614/1 482/793/1
f 482/793/1 488/614/1 489/613/1 483/794/1
f 483/794/1 489/613/1 490/612/1 484/795/1
f 484/795/1 490/612/1 491/611/1 485/796/1
f 485/796/1 491/611/1 492/610/1 486/797/1
f 486/797/1 492/610/1 493/609/1 487/634/1
f 332/312/1 331/704/1 482/793/1 476/798/1
f 476/798/1 482/793/1 483/794/1 477/799/1
f 477/799/1 483/794/1 484/795/1 478/800/1
f 478/800/1 484/795/1 485/796/1 479/801/1
f 479/801/1 485/796/1 486/797/1 480/802/1
f 480/802/1 486/797/1 487/634/1 481/632/1
f 187/313/1 332/312/1 476/798/1 452/803/1
f 452/803/1 476/798/1 477/799/1 453/804/1
f 453/804/1 477/799/1 478/800/1 454/805/1
f 454/805/1 478/800/1 479/801/1 455/806/1
f 455/806/1 479/801/1 480/802/1 456/807/1
f 456/807/1 480/802/1 481/632/1 457/300/1
f 211/486/6 237/526/6 469/808/6 458/809/6
f 458/809/6 469/808/6 468/810/6 459/811/6
f 459/811/6 468/810/6 467/812/6 460/813/6
f 460/813/6 467/812/6 466/814/6 461/815/6
f 461/815/6 466/814/6 465/816/6 462/817/6
f 462/817/6 465/816/6 464/622/6 463/616/6
f 237/511/8 239/510/8 475/818/8 469/819/8
f 469/819/8 475/818/8 474/820/8 468/821/8
f 468/821/8 474/820/8 473/822/8 467/823/8
f 467/823/8 473/822/8 472/824/8 466/825/8
f 466/825/8 472/824/8 471/826/8 465/827/8
f 465/827/8 471/826/8 470/620/8 464/619/8
f 403/485/6 211/486/6 458/809/6 518/758/6
f 518/758/6 458/809/6 459/811/6 519/760/6
f 519/760/6 459/811/6 460/813/6 520/762/6
f 520/762/6 460/813/6 461/815/6 521/764/6
f 521/764/6 461/815/6 462/817/6 522/766/6
f 522/766/6 462/817/6 463/616/6 523/615/6
f 239/487/1 213/405/1 434/753/1 475/828/1
f 475/828/1 434/753/1 435/754/1 474/829/1
f 474/829/1 435/754/1 436/755/1 473/830/1
f 473/830/1 436/755/1 437/756/1 472/831/1
f 472/831/1 437/756/1 438/757/1 471/832/1
f 471/832/1 438/757/1 439/458/1 470/457/1
f 315/333/6 185/336/6 440/768/6 506/773/6
f 506/773/6 440/768/6 441/769/6 507/775/6
f 507/775/6 441/769/6 442/770/6 508/777/6
f 508/777/6 442/770/6 443/771/6 509/779/6
f 509/779/6 443/771/6 444/772/6 510/781/6
f 510/781/6 444/772/6 445/394/6 511/393/6
f 382/736/1 187/313/1 452/803/1 530/743/1
f 530/743/1 452/803/1 453/804/1 531/745/1
f 531/745/1 453/804/1 454/805/1 532/747/1
f 532/747/1 454/805/1 455/806/1 533/749/1
f 533/749/1 455/806/1 456/807/1 534/751/1
f 534/751/1 456/807/1 457/300/1 535/299/1
f 127/20/2 106/19/2 553/833/2 598/834/2
f 598/834/2 553/833/2 552/245/2 599/362/2
f 104/15/3 105/171/3 549/835/3 594/836/3
f 594/836/3 549/835/3 548/241/3 595/356/3
f 133/261/1 135/52/1 607/837/1 586/838/1
f 586/838/1 607/837/1 606/373/1 587/347/1
f 116/8/2 114/7/2 601/839/2 566/840/2
f 566/840/2 601/839/2 600/361/2 567/254/2
f 126/179/1 125/178/1 593/841/1 602/842/1
f 602/842/1 593/841/1 592/375/1 603/370/1
f 135/52/1 134/51/1 605/843/1 607/837/1
f 607/837/1 605/843/1 604/369/1 606/373/1
f 134/51/1 126/179/1 602/842/1 605/843/1
f 605/843/1 602/842/1 603/370/1 604/369/1
f 113/108/3 115/107/3 589/844/3 596/845/3
f 596/845/3 589/844/3 588/367/3 597/359/3
f 121/27/3 124/286/3 591/846/3 536/847/3
f 536/847/3 591/846/3 590/365/3 537/227/3
f 114/7/2 127/20/2 598/834/2 601/839/2
f 601/839/2 598/834/2 599/362/2 600/361/2
f 111/199/2 118/264/2 561/848/2 584/849/2
f 584/849/2 561/848/2 560/249/2 585/344/2
f 129/270/3 113/108/3 596/845/3 550/850/3
f 550/850/3 596/845/3 597/359/3 551/242/3
f 112/175/3 110/174/3 575/851/3 570/852/3
f 570/852/3 575/851/3 574/213/3 571/220/3
f 132/16/3 104/15/3 594/836/3 576/853/3
f 576/853/3 594/836/3 595/356/3 577/355/3
f 125/155/2 107/154/2 539/854/2 593/855/2
f 593/855/2 539/854/2 538/229/2 592/354/2
f 103/54/2 131/150/2 579/856/2 554/857/2
f 554/857/2 579/856/2 578/352/2 555/246/2
f 124/274/6 122/268/6 583/858/6 591/859/6
f 591/859/6 583/858/6 582/207/6 590/350/6
f 115/262/1 133/261/1 586/838/1 589/860/1
f 589/860/1 586/838/1 587/347/1 588/346/1
f 109/200/2 111/199/2 584/849/2 540/861/2
f 540/861/2 584/849/2 585/344/2 541/230/2
f 128/276/2 116/8/2 566/840/2 565/862/2
f 565/862/2 566/840/2 567/254/2 564/253/2
f 118/264/2 119/280/2 562/863/2 561/848/2
f 561/848/2 562/863/2 563/250/2 560/249/2
f 136/258/6 130/104/6 558/864/6 557/865/6
f 557/865/6 558/864/6 559/223/6 556/233/6
f 106/19/2 103/54/2 554/857/2 553/833/2
f 553/833/2 554/857/2 555/246/2 552/245/2
f 105/171/3 129/270/3 550/850/3 549/835/3
f 549/835/3 550/850/3 551/242/3 548/241/3
f 119/284/1 120/283/1 546/866/1 562/867/1
f 562/867/1 546/866/1 547/238/1 563/237/1
f 120/190/3 117/189/3 544/868/3 546/869/3
f 546/869/3 544/868/3 545/219/3 547/235/3
f 137/272/6 136/258/6 557/865/6 543/870/6
f 543/870/6 557/865/6 556/233/6 542/217/6
f 107/154/2 109/200/2 540/861/2 539/854/2
f 539/854/2 540/861/2 541/230/2 538/229/2
f 108/28/3 121/27/3 536/847/3 569/871/3
f 569/871/3 536/847/3 537/227/3 568/214/3
f 130/104/6 128/103/6 565/872/6 558/864/6
f 558/864/6 565/872/6 564/224/6 559/223/6
f 117/189/3 112/175/3 570/852/3 544/868/3
f 544/868/3 570/852/3 571/220/3 545/219/3
f 138/278/6 137/272/6 543/870/6 573/873/6
f 573/873/6 543/870/6 542/217/6 572/204/6
f 110/174/3 108/28/3 569/871/3 575/851/3
f 575/851/3 569/871/3 568/214/3 574/213/3
f 131/4/1 132/3/1 576/874/1 579/875/1
f 579/875/1 576/874/1 577/210/1 578/209/1
f 122/268/6 123/267/6 580/876/6 583/858/6
f 583/858/6 580/876/6 581/203/6 582/207/6
f 123/267/6 138/278/6 573/873/6 580/876/6
f 580/876/6 573/873/6 572/204/6 581/203/6
f 14/31/3 24/56/3 743/877/3 688/878/3
f 688/878/3 743/877/3 742/879/3 689/880/3
f 689/880/3 742/879/3 741/881/3 690/882/3
f 690/882/3 741/881/3 740/285/3 691/26/3
f 95/39/1 17/42/1 659/883/1 748/884/1
f 748/884/1 659/883/1 658/885/1 749/886/1
f 749/886/1 658/885/1 657/887/1 750/888/1
f 750/888/1 657/887/1 656/282/1 751/281/1
f 9/142/3 6/143/3 735/889/3 632/890/3
f 632/890/3 735/889/3 734/891/3 633/892/3
f 633/892/3 734/891/3 733/893/3 634/894/3
f 634/894/3 733/893/3 732/269/3 635/170/3
f 75/895/6 76/896/6 747/897/6 724/898/6
f 724/898/6 747/897/6 746/899/6 725/900/6
f 725/900/6 746/899/6 745/901/6 726/902/6
f 726/902/6 745/901/6 744/277/6 727/266/6
f 63/91/2 43/96/2 699/903/2 704/904/2
f 704/904/2 699/903/2 698/905/2 705/906/2
f 705/906/2 698/905/2 697/907/2 706/908/2
f 706/908/2 697/907/2 696/17/2 707/6/2
f 102/191/2 95/201/2 748/909/2 720/910/2
f 720/910/2 748/909/2 749/911/2 721/912/2
f 721/912/2 749/911/2 750/913/2 722/914/2
f 722/914/2 750/913/2 751/279/2 723/263/2
f 76/896/6 77/915/6 739/916/6 747/897/6
f 747/897/6 739/916/6 738/917/6 746/899/6
f 746/899/6 738/917/6 737/918/6 745/901/6
f 745/901/6 737/918/6 736/271/6 744/277/6
f 92/38/3 19/36/3 639/919/3 660/920/3
f 660/920/3 639/919/3 638/921/3 661/922/3
f 661/922/3 638/921/3 637/923/3 662/924/3
f 662/924/3 637/923/3 636/172/3 663/188/3
f 45/99/2 40/92/2 711/925/2 672/926/2
f 672/926/2 711/925/2 710/927/2 673/928/2
f 673/928/2 710/927/2 709/929/2 674/930/2
f 674/930/2 709/929/2 708/5/2 675/275/2
f 24/931/6 21/932/6 731/933/6 743/934/6
f 743/934/6 731/933/6 730/935/6 742/936/6
f 742/936/6 730/935/6 729/937/6 741/938/6
f 741/938/6 729/937/6 728/265/6 740/273/6
f 77/915/6 78/939/6 715/940/6 739/916/6
f 739/916/6 715/940/6 714/941/6 738/917/6
f 738/917/6 714/941/6 713/942/6 737/918/6
f 737/918/6 713/942/6 712/257/6 736/271/6
f 6/143/3 61/139/3 611/943/3 735/889/3
f 735/889/3 611/943/3 610/944/3 734/891/3
f 734/891/3 610/944/3 609/945/3 733/893/3
f 733/893/3 609/945/3 608/105/3 732/269/3
f 13/35/3 57/32/3 695/946/3 640/947/3
f 640/947/3 695/946/3 694/948/3 641/949/3
f 641/949/3 694/948/3 693/950/3 642/951/3
f 642/951/3 693/950/3 692/25/3 643/173/3
f 21/932/6 75/895/6 724/898/6 731/933/6
f 731/933/6 724/898/6 725/900/6 730/935/6
f 730/935/6 725/900/6 726/902/6 729/937/6
f 729/937/6 726/902/6 727/266/6 728/265/6
f 12/147/2 102/191/2 720/910/2 668/952/2
f 668/952/2 720/910/2 721/912/2 669/953/2
f 669/953/2 721/912/2 722/914/2 670/954/2
f 670/954/2 722/914/2 723/263/2 671/198/2
f 70/137/1 69/162/1 687/955/1 716/956/1
f 716/956/1 687/955/1 686/957/1 717/958/1
f 717/958/1 686/957/1 685/959/1 718/960/1
f 718/960/1 685/959/1 684/49/1 719/260/1
f 2/138/1 70/137/1 716/956/1 612/961/1
f 612/961/1 716/956/1 717/958/1 613/962/1
f 613/962/1 717/958/1 718/960/1 614/963/1
f 614/963/1 718/960/1 719/260/1 615/259/1
f 78/939/6 22/964/6 679/965/6 715/940/6
f 715/940/6 679/965/6 678/966/6 714/941/6
f 714/941/6 678/966/6 677/967/6 713/942/6
f 713/942/6 677/967/6 676/101/6 712/257/6
f 55/145/2 5/148/2 667/968/2 624/969/2
f 624/969/2 667/968/2 666/970/2 625/971/2
f 625/971/2 666/970/2 665/972/2 626/973/2
f 626/973/2 665/972/2 664/197/2 627/153/2
f 5/148/2 12/147/2 668/952/2 667/968/2
f 667/968/2 668/952/2 669/953/2 666/970/2
f 666/970/2 669/953/2 670/954/2 665/972/2
f 665/972/2 670/954/2 671/198/2 664/197/2
f 17/196/3 92/38/3 660/920/3 659/974/3
f 659/974/3 660/920/3 661/922/3 658/975/3
f 658/975/3 661/922/3 662/924/3 657/976/3
f 657/976/3 662/924/3 663/188/3 656/187/3
f 68/160/1 67/157/1 652/977/1 651/978/1
f 651/978/1 652/977/1 653/979/1 650/980/1
f 650/980/1 653/979/1 654/981/1 649/982/1
f 649/982/1 654/981/1 655/176/1 648/50/1
f 67/157/1 1/156/1 644/983/1 652/977/1
f 652/977/1 644/983/1 645/984/1 653/979/1
f 653/979/1 645/984/1 646/985/1 654/981/1
f 654/981/1 646/985/1 647/177/1 655/176/1
f 19/36/3 13/35/3 640/947/3 639/919/3
f 639/919/3 640/947/3 641/949/3 638/921/3
f 638/921/3 641/949/3 642/951/3 637/923/3
f 637/923/3 642/951/3 643/173/3 636/172/3
f 99/144/3 9/142/3 632/890/3 631/986/3
f 631/986/3 632/890/3 633/892/3 630/987/3
f 630/987/3 633/892/3 634/894/3 629/988/3
f 629/988/3 634/894/3 635/170/3 628/14/3
f 1/146/2 55/145/2 624/969/2 644/989/2
f 644/989/2 624/969/2 625/971/2 645/990/2
f 645/990/2 625/971/2 626/973/2 646/991/2
f 646/991/2 626/973/2 627/153/2 647/152/2
f 87/98/2 38/184/2 620/992/2 619/993/2
f 619/993/2 620/992/2 621/994/2 618/995/2
f 618/995/2 621/994/2 622/996/2 617/997/2
f 617/997/2 622/996/2 623/149/2 616/53/2
f 61/139/3 2/141/3 612/998/3 611/943/3
f 611/943/3 612/998/3 613/999/3 610/944/3
f 610/944/3 613/999/3 614/1000/3 609/945/3
f 609/945/3 614/1000/3 615/106/3 608/105/3
f 22/964/6 45/1001/6 672/1002/6 679/965/6
f 679/965/6 672/1002/6 673/1003/6 678/966/6
f 678/966/6 673/1003/6 674/1004/6 677/967/6
f 677/967/6 674/1004/6 675/102/6 676/101/6
f 37/95/2 87/98/2 619/993/2 683/1005/2
f 683/1005/2 619/993/2 618/995/2 682/1006/2
f 682/1006/2 618/995/2 617/997/2 681/1007/2
f 681/1007/2 617/997/2 616/53/2 680/18/2
f 69/162/1 68/160/1 651/978/1 687/955/1
f 687/955/1 651/978/1 650/980/1 686/957/1
f 686/957/1 650/980/1 649/982/1 685/959/1
f 685/959/1 649/982/1 648/50/1 684/49/1
f 57/32/3 14/31/3 688/878/3 695/946/3
f 695/946/3 688/878/3 689/880/3 694/948/3
f 694/948/3 689/880/3 690/882/3 693/950/3
f 693/950/3 690/882/3 691/26/3 692/25/3
f 43/96/2 37/95/2 683/1005/2 699/903/2
f 699/903/2 683/1005/2 682/1006/2 698/905/2
f 698/905/2 682/1006/2 681/1007/2 697/907/2
f 697/907/2 681/1007/2 680/18/2 696/17/2
f 96/202/3 99/144/3 631/986/3 703/1008/3
f 703/1008/3 631/986/3 630/987/3 702/1009/3
f 702/1009/3 630/987/3 629/988/3 701/1010/3
f 701/1010/3 629/988/3 628/14/3 700/13/3
f 40/92/2 63/91/2 704/904/2 711/925/2
f 711/925/2 704/904/2 705/906/2 710/927/2
f 710/927/2 705/906/2 706/908/2 709/929/2
f 709/929/2 706/908/2 707/6/2 708/5/2
f 38/110/1 96/109/1 703/1011/1 620/1012/1
f 620/1012/1 703/1011/1 702/1013/1 621/1014/1
f 621/1014/1 702/1013/1 701/1015/1 622/1016/1
f 622/1016/1 701/1015/1 700/2/1 623/1/1
