# Blender 5.1.2
# www.blender.org
mtllib ButtonCap.mtl
o Cube.001
v -0.210841 0.075746 0.036721
v -0.178808 0.162875 0.062172
v -0.010513 0.075307 -0.213912
v 0.021521 0.162436 -0.188460
v 0.015908 -0.060632 0.218199
v 0.047942 0.026497 0.243650
v 0.216237 -0.061071 -0.032434
v 0.248270 0.026058 -0.006982
vn -0.7067 0.4250 -0.5656
vn 0.6244 -0.0014 -0.7811
vn 0.7067 -0.4250 0.5656
vn -0.6244 0.0014 0.7811
vn -0.3328 -0.9052 -0.2644
vn 0.3328 0.9052 0.2644
vt 0.148743 0.620488
vt 0.210008 0.620488
vt 0.210008 0.824705
vt 0.148743 0.824705
vt 0.746155 0.604604
vt 0.807421 0.604604
vt 0.807420 0.808822
vt 0.746155 0.808822
vt 0.850938 0.233377
vt 0.789673 0.233377
vt 0.789673 0.029159
vt 0.850938 0.029159
vt 0.090424 0.824705
vt 0.029159 0.824705
vt 0.029159 0.620488
vt 0.090424 0.620488
vt 0.808822 0.342068
vt 0.808822 0.546286
vt 0.604604 0.546286
vt 0.604604 0.342068
vt 0.342068 0.546286
vt 0.342068 0.342068
vt 0.546286 0.342068
vt 0.546286 0.546286
s 1
f 1/1/1 2/2/1 4/3/1 3/4/1
f 3/5/2 4/6/2 8/7/2 7/8/2
f 7/9/3 8/10/3 6/11/3 5/12/3
f 5/13/4 6/14/4 2/15/4 1/16/4
f 3/17/5 7/18/5 5/19/5 1/20/5
f 8/21/6 4/22/6 2/23/6 6/24/6
