# Blender 5.1.2
# www.blender.org
mtllib Untitled.mtl
o Cube
v -0.286179 0.030973 0.027242
v -0.210180 0.128040 0.053131
v -0.036436 0.030425 -0.285213
v 0.005730 0.127566 -0.216995
v -0.003499 -0.139045 0.253484
v 0.034205 -0.018946 0.248724
v 0.246244 -0.139593 -0.058971
v 0.250115 -0.019419 -0.021402
v -0.246244 0.139593 0.058971
v 0.003499 0.139045 -0.253484
v 0.286179 -0.030973 -0.027242
v 0.036436 -0.030425 0.285213
v -0.222410 0.094773 0.043414
v -0.006501 0.094299 -0.226712
v 0.237884 -0.052686 -0.031120
v 0.021975 -0.052212 0.239006
vn -0.7067 0.4250 -0.5656
vn 0.6244 -0.0014 -0.7811
vn 0.7067 -0.4250 0.5656
vn -0.6244 0.0014 0.7811
vn -0.3328 -0.9052 -0.2644
vn 0.3328 0.9052 0.2644
vt 0.654978 0.029159
vt 0.731355 0.029159
vt 0.731355 0.283750
vt 0.654978 0.283750
vt 0.342068 0.604604
vt 0.418446 0.604604
vt 0.418446 0.859195
vt 0.342068 0.859195
vt 0.553141 0.859195
vt 0.476764 0.859195
vt 0.476764 0.604604
vt 0.553141 0.604604
vt 0.687837 0.859195
vt 0.611460 0.859195
vt 0.611460 0.604604
vt 0.687837 0.604604
vt 0.283750 0.283750
vt 0.029159 0.283750
vt 0.029159 0.029159
vt 0.283750 0.029159
vt 0.865739 0.824705
vt 0.865739 0.604604
vt 0.889131 0.604604
vt 0.889131 0.824705
vt 0.359314 0.046404
vt 0.359314 0.266505
vt 0.342068 0.283750
vt 0.342068 0.029159
vt 0.579414 0.266505
vt 0.596659 0.283750
vt 0.579414 0.046404
vt 0.596659 0.029159
vt 0.029159 0.562169
vt 0.029159 0.342068
vt 0.249260 0.342068
vt 0.249260 0.562169
vt 0.890532 0.326185
vt 0.890532 0.546286
vt 0.867140 0.546286
vt 0.867140 0.326185
vt 0.947449 0.824705
vt 0.947449 0.604604
vt 0.970841 0.604604
vt 0.970841 0.824705
vt 0.932649 0.029159
vt 0.932649 0.249260
vt 0.909257 0.249260
vt 0.909257 0.029159
s 1
f 1/1/1 9/2/1 10/3/1 3/4/1
f 3/5/2 10/6/2 11/7/2 7/8/2
f 7/9/3 11/10/3 12/11/3 5/12/3
f 5/13/4 12/14/4 9/15/4 1/16/4
f 3/17/5 7/18/5 5/19/5 1/20/5
f 4/21/3 2/22/3 13/23/3 14/24/3
f 2/25/6 4/26/6 10/27/6 9/28/6
f 4/26/6 8/29/6 11/30/6 10/27/6
f 8/29/6 6/31/6 12/32/6 11/30/6
f 6/31/6 2/25/6 9/28/6 12/32/6
f 15/33/6 14/34/6 13/35/6 16/36/6
f 2/37/2 6/38/2 16/39/2 13/40/2
f 8/41/4 4/42/4 14/43/4 15/44/4
f 6/45/1 8/46/1 15/47/1 16/48/1
