# Blender 5.1.2
# www.blender.org
mtllib WallCorner.mtl
o WallCORNER
v -0.700000 -5.000000 50.071175
v -0.700000 5.000000 51.071175
v -0.700000 -5.000000 41.071175
v -0.700000 5.000000 41.071175
v 1.700000 -5.000000 50.071175
v 0.700000 5.000000 51.071175
v 1.700000 -5.000000 41.071175
v 0.700000 5.000000 41.071175
v -0.700000 0.000000 51.071175
v -0.700000 0.000000 41.071175
v 0.700000 0.000000 41.071175
v 0.700000 0.000000 51.071175
v -0.700000 -2.500000 41.071175
v 0.700000 -2.500000 41.071175
v 0.700000 -2.500000 51.071175
v -0.700000 -2.500000 51.071175
v -0.700000 6.000000 51.071175
v -0.700000 6.000000 41.071175
v 0.700000 6.000000 41.071175
v 0.700000 6.000000 51.071175
v 1.700000 5.000000 41.071175
v 1.700000 5.000000 51.071175
v 1.700000 6.000000 41.071175
v 1.700000 6.000000 51.071175
v -0.700000 0.000000 52.071175
v -0.700000 5.000000 52.071175
v 0.700000 -2.500000 52.071175
v 1.700000 -5.000000 52.071175
v -0.700000 -5.000000 52.071175
v 0.700000 5.000000 52.071175
v -0.700000 -2.500000 52.071175
v 0.700000 0.000000 52.071175
v 0.700000 6.000000 52.071175
v -0.700000 6.000000 52.071175
v 1.700000 5.000000 52.071175
v 1.700000 6.000000 52.071175
v 10.700001 -2.500000 51.071175
v 10.700001 -5.000000 50.071175
v 10.700001 5.000000 52.071175
v 10.700001 5.000000 51.071175
v 10.700001 5.000000 51.071175
v 10.700001 0.000000 51.071175
v 10.700001 6.000000 52.071175
v 10.700001 6.000000 51.071175
v 10.700001 -2.500000 52.071175
v 10.700001 -5.000000 52.071175
v 10.700001 5.000000 52.071175
v 10.700001 0.000000 52.071175
v 1.700000 5.000000 50.071175
v 1.700000 6.000000 50.071175
v 10.700001 5.000000 50.071175
v 10.700001 6.000000 50.071175
vn -1.0000 -0.0000 -0.0000
vn -0.0000 -0.0000 -1.0000
vn 1.0000 -0.0000 -0.0000
vn -0.0000 -0.0000 1.0000
vn -0.0000 -1.0000 -0.0000
vn 0.9285 0.3714 -0.0000
vn -0.0000 1.0000 -0.0000
vn -0.0000 0.3714 -0.9285
vt 0.921976 0.132476
vt 0.867524 0.132476
vt 0.867524 0.023572
vt 0.921976 0.023572
vt 0.805908 0.957508
vt 0.751456 0.957508
vt 0.751456 0.848603
vt 0.805908 0.848603
vt 0.589729 0.910365
vt 0.535277 0.910365
vt 0.535277 0.801460
vt 0.589729 0.801460
vt 0.116140 0.132476
vt 0.143367 0.210265
vt 0.143367 0.910365
vt 0.116140 0.910365
vt 0.310305 0.023572
vt 0.310305 0.210265
vt 0.212291 0.210265
vt 0.201401 0.023572
vt 0.921976 0.143367
vt 0.867524 0.143367
vt 0.907504 0.770815
vt 0.918394 0.770815
vt 0.918394 0.868829
vt 0.907504 0.868829
vt 0.616955 0.910365
vt 0.616955 0.801460
vt 0.833134 0.957508
vt 0.833134 0.848603
vt 0.949202 0.132476
vt 0.949202 0.023572
vt 0.976428 0.132476
vt 0.976428 0.023572
vt 0.860360 0.957508
vt 0.860360 0.770815
vt 0.939049 0.299414
vt 0.856633 0.299414
vt 0.856633 0.190510
vt 0.939049 0.201400
vt 0.368339 0.801460
vt 0.368339 0.910365
vt 0.357448 0.910365
vt 0.357448 0.801460
vt 0.477243 0.801460
vt 0.477243 0.910365
vt 0.740566 0.957508
vt 0.740566 0.848603
vt 0.368339 0.723671
vt 0.357448 0.723671
vt 0.856633 0.132476
vt 0.856633 0.023572
vt 0.934422 0.346558
vt 0.934422 0.455462
vt 0.856633 0.455462
vt 0.856633 0.346558
vt 0.477243 0.723671
vt 0.740566 0.770815
vt 0.751456 0.770815
vt 0.088914 0.132476
vt 0.034462 0.132476
vt 0.034462 0.023572
vt 0.088914 0.023572
vt 0.023572 0.132476
vt 0.023572 0.023572
vt 0.116141 0.023572
vt 0.143367 0.023572
vt 0.034462 0.210265
vt 0.023572 0.210265
vt 0.524387 0.801460
vt 0.524387 0.023572
vt 0.535277 0.023572
vt 0.949202 0.143367
vt 0.740566 0.723671
vt 0.740566 0.023572
vt 0.751456 0.023572
vt 0.751456 0.723671
vt 0.856633 0.143367
vt 0.976428 0.143367
vt 0.190510 0.210265
vt 0.190510 0.023572
vt 0.867524 0.557058
vt 0.867524 0.502606
vt 0.878414 0.502606
vt 0.878414 0.557058
vt 0.867524 0.669544
vt 0.856634 0.669544
vt 0.856634 0.658653
vt 0.867524 0.658653
vt 0.867524 0.584284
vt 0.878414 0.584284
vt 0.856633 0.611510
vt 0.878414 0.611510
vt 0.212291 0.910365
vt 0.190510 0.910365
vt 0.088914 0.910365
vt 0.034462 0.910365
vt 0.589729 0.023572
vt 0.616955 0.023572
vt 0.693422 0.723671
vt 0.664099 0.801460
vt 0.664099 0.023572
vt 0.693422 0.023572
vt 0.023572 0.910365
vt 0.357448 0.023572
vt 0.368339 0.023572
vt 0.809490 0.723671
vt 0.798600 0.723671
vt 0.798600 0.023572
vt 0.809490 0.023572
vt 0.379229 0.023572
vt 0.379229 0.723671
vt 0.867524 0.680434
vt 0.856634 0.680434
s 0
f 9/1/1 2/2/1 4/3/1 10/4/1
f 10/5/2 4/6/2 8/7/2 11/8/2
f 11/9/3 8/10/3 6/11/3 12/12/3
f 27/13/4 28/14/4 46/15/4 45/16/4
f 3/17/5 7/18/5 5/19/5 1/20/5
f 2/2/1 9/1/1 25/21/1 26/22/1
f 50/23/3 49/24/3 21/25/3 23/26/3
f 14/27/3 11/9/3 12/12/3 15/28/3
f 13/29/2 10/5/2 11/8/2 14/30/2
f 16/31/1 9/1/1 10/4/1 13/32/1
f 1/33/1 16/31/1 13/32/1 3/34/1
f 3/35/2 13/29/2 14/30/2 7/36/2
f 7/37/6 14/38/6 15/39/6 5/40/6
f 20/41/7 17/42/7 34/43/7 33/44/7
f 19/45/7 18/46/7 17/42/7 20/41/7
f 8/7/2 4/6/2 18/47/2 19/48/2
f 24/49/7 20/41/7 33/44/7 36/50/7
f 4/3/1 2/2/1 17/51/1 18/52/1
f 6/53/5 8/54/5 21/55/5 22/56/5
f 19/45/7 20/41/7 24/49/7 23/57/7
f 8/7/2 19/48/2 23/58/2 21/59/2
f 32/60/4 30/61/4 26/62/4 25/63/4
f 26/62/4 30/61/4 33/64/4 34/65/4
f 27/13/4 32/60/4 25/63/4 31/66/4
f 28/14/4 27/13/4 31/66/4 29/67/4
f 33/64/4 30/61/4 35/68/4 36/69/4
f 6/11/7 30/70/7 47/71/7 41/72/7
f 9/1/1 16/31/1 31/73/1 25/21/1
f 40/74/5 22/75/5 49/76/5 51/77/5
f 17/51/1 2/2/1 26/22/1 34/78/1
f 16/31/1 1/33/1 29/79/1 31/73/1
f 1/20/5 5/19/5 28/80/5 29/81/5
f 42/82/3 41/83/3 47/84/3 48/85/3
f 40/86/3 44/87/3 43/88/3 39/89/3
f 37/90/3 42/82/3 48/85/3 45/91/3
f 38/92/3 37/90/3 45/91/3 46/93/3
f 28/80/5 5/19/5 38/94/5 46/95/5
f 30/61/4 32/60/4 48/96/4 47/97/4
f 12/12/2 6/11/2 41/72/2 42/98/2
f 15/28/2 12/12/2 42/98/2 37/99/2
f 5/100/8 15/101/8 37/102/8 38/103/8
f 36/69/4 35/68/4 39/97/4 43/104/4
f 24/49/7 36/50/7 43/105/7 44/106/7
f 32/60/4 27/13/4 45/16/4 48/96/4
f 49/107/2 50/108/2 52/109/2 51/110/2
f 24/49/7 44/106/7 52/111/7 50/112/7
f 44/87/3 40/86/3 51/113/3 52/114/3
