# Blender 5.1.2
# www.blender.org
mtllib room.mtl
o Room
v 6.416964 6.677221 1.850449
v 6.536964 -1.072782 5.850449
v 6.414763 6.677222 5.851296
v 5.458988 -1.072781 1.850449
v 5.856964 6.677221 1.850449
v 6.416964 3.302224 1.850449
v 6.414764 3.302223 5.851296
v 5.860258 3.302223 5.851296
v 5.856964 3.302224 1.850449
v 6.414764 0.614722 5.851296
v 5.860258 0.614722 5.851296
v 5.858768 0.640102 1.850289
v 6.422071 0.640102 1.850289
v 6.414763 7.352223 5.851296
v 5.460258 6.677222 5.851295
v 5.456964 6.677221 1.850449
v 5.460258 7.352223 5.851295
v 5.456409 7.352078 1.850289
v -10.656370 -1.072779 5.850452
v -10.596370 6.677221 1.850452
v -9.638394 -1.072781 1.850452
v -10.596370 3.302223 1.850452
v -10.036369 3.302223 5.850452
v -10.036370 0.614722 1.850452
v -9.636371 6.677221 1.850452
v -9.636371 7.352222 1.850452
v -10.596371 -1.072777 9.450457
v -10.596370 6.677223 9.850452
v -10.596371 6.677222 5.850451
v -9.636370 -1.072777 9.403709
v -10.036368 6.677223 9.803707
v -9.637382 -1.072779 5.850452
v -10.036369 6.677222 5.850451
v -10.596370 3.302223 9.850454
v -10.596371 3.302223 5.850452
v -10.036368 3.302223 9.803707
v -10.596371 0.614722 5.850452
v -10.036369 0.614722 5.850452
v -10.036368 0.614723 9.803707
v -10.596370 0.614723 9.850454
v -10.596370 7.352224 9.850452
v -10.596371 7.352222 5.850451
v -10.036369 7.352222 5.850451
v -10.036368 7.352224 9.850452
v -9.636370 6.677222 5.850451
v -9.636369 6.677223 9.850452
v -9.636370 7.352222 5.850451
v -9.636369 7.352224 9.850452
v -10.596370 3.302223 10.352720
v -10.596370 6.677223 10.352718
v -10.036368 0.614723 10.352720
v -9.636369 -1.072777 10.352720
v -10.596370 -1.072777 10.352720
v -10.036368 6.677223 10.352718
v -10.596370 0.614723 10.352720
v -10.036368 3.302223 10.352720
v -10.036368 7.352224 10.352718
v -10.596370 7.352224 10.352718
v -9.636369 6.677223 10.352718
v -9.636369 7.352224 10.352718
v -6.090549 6.677222 10.354918
v -6.090832 6.677223 9.817092
v -6.090549 7.352223 10.354918
v -6.091396 -1.072777 10.352719
v -6.090549 3.302223 10.354918
v -9.636370 6.677223 9.403708
v -9.636370 7.352224 9.403708
v -10.716371 -1.072781 1.850452
v -10.716371 -1.072781 -2.149548
v -10.596370 6.677221 -2.149548
v -10.036370 6.677221 1.850452
v -9.638394 -1.072781 -2.149549
v -10.036369 6.677221 -2.149549
v -10.596370 3.302223 -2.149548
v -10.036369 3.302223 -2.149549
v -10.036370 3.302223 1.850452
v -10.596370 0.614722 -2.149548
v -10.036369 0.614722 -2.149549
v -10.596370 0.614722 1.850452
v -10.596370 7.352222 1.850452
v -10.596370 7.352222 -2.149548
v -10.036369 7.352222 -2.149549
v -10.036370 7.352222 1.850452
v -9.636370 6.677221 -2.149549
v -9.636370 7.352222 -2.149549
v -10.716370 -1.072782 -6.149549
v -10.594169 6.677222 -6.150395
v -10.594170 0.614722 -6.150395
v -10.039663 0.614722 -6.150395
v -9.639664 6.677222 -6.150395
v -9.689708 -1.072777 -10.656216
v -10.089704 6.677223 -10.656216
v -9.642961 -1.072777 -9.696214
v -10.042958 6.677223 -10.096214
v -6.089703 6.677222 -10.096215
v -10.089705 3.302223 -10.656216
v -6.089704 3.302223 -10.656215
v -6.089704 3.302223 -10.096215
v -10.042958 3.302223 -10.096214
v -6.089704 0.614722 -10.656215
v -10.042958 0.614723 -10.096214
v -10.089705 0.614723 -10.656216
v -10.089704 7.352224 -10.656216
v -6.089703 7.352222 -10.096215
v -10.089704 7.352224 -10.096214
v -6.089703 6.677222 -9.696216
v -10.089704 6.677223 -9.696215
v -6.089703 7.352222 -9.696216
v -10.089704 7.352224 -9.696215
v -10.591971 3.302223 -10.656216
v -10.591969 6.677223 -10.656216
v -10.591971 0.614723 -10.096214
v -10.591971 -1.072777 -9.696215
v -10.591971 -1.072777 -10.656216
v -10.591969 6.677223 -10.096214
v -10.591971 0.614723 -10.656216
v -10.591971 3.302223 -10.096214
v -10.591969 7.352224 -10.096214
v -10.591969 7.352224 -10.656216
v -10.591969 6.677223 -9.696215
v -10.591969 7.352224 -9.696215
v -9.640677 -1.072780 -6.150395
v -10.056343 6.677223 -6.150677
v -10.039663 3.302223 -6.150395
v -10.594169 7.352223 -6.150395
v -10.063036 7.352223 -6.150395
v -10.591970 -1.072777 -6.151241
v -10.594170 3.302223 -6.150395
v -9.642959 6.677223 -9.696214
v -9.642959 7.352224 -9.696214
v -9.639664 7.352223 -6.150395
v -6.089704 -1.072779 -10.716216
v -6.089703 6.677222 -10.656215
v -2.090616 -1.071248 -10.721323
v -2.089703 6.677221 -10.656216
v -6.089704 -1.072779 -9.697227
v -2.089703 -1.072782 -9.698240
v -2.089703 6.677221 -10.096216
v -2.089703 3.302223 -10.656216
v -2.089703 3.302223 -10.096216
v -2.090616 0.640101 -10.661324
v -6.089704 0.614722 -10.096215
v -6.089703 7.352222 -10.656215
v -2.089703 6.677221 -9.696216
v -2.090616 7.352078 -9.695660
v -2.089703 6.677221 10.357117
v -6.089703 -1.072782 10.477118
v -2.089703 -1.072781 9.399141
v -2.089703 6.677221 9.797117
v -6.090549 -1.072780 9.401425
v -2.089703 3.302224 10.357117
v -6.090549 3.302223 9.800412
v -2.089703 3.302224 9.797117
v -6.090549 0.614722 10.354918
v -6.090549 0.614722 9.800412
v -6.090549 7.352223 9.823785
v -6.090549 6.677222 9.400413
v -2.089703 6.677221 9.397117
v -6.090549 7.352223 9.400413
v -1.680126 5.758109 -10.666430
v 1.583603 5.758110 -10.666430
v -1.680126 5.758109 -10.099824
v 1.583603 5.758110 -10.099824
v -1.680128 2.363024 -10.666430
v 1.583603 2.363024 -10.666430
v 1.583603 2.363024 -10.099824
v -1.680128 2.363024 -10.099824
v 1.583603 0.665481 -10.666430
v 1.583603 0.665481 -10.099824
v -1.680128 0.665481 -10.099824
v -1.680128 0.665481 -10.666430
v -2.091530 2.363024 -10.666430
v -2.091528 5.758109 -10.666430
v -2.090617 0.640101 -10.098021
v -2.091530 -1.069713 -10.099824
v -2.091528 5.758109 -10.099824
v -2.091530 2.363024 -10.099824
v -1.680126 6.437126 -10.666430
v 1.583603 6.437127 -10.666430
v -2.091528 6.437126 -10.099824
v -2.091528 6.437126 -10.666430
v 1.583603 5.758110 -9.695105
v -1.680126 5.758109 -9.695105
v -1.680126 6.437126 -9.695105
v -1.680128 2.363024 -9.695105
v -1.680128 0.665481 -9.695105
v -2.091528 5.758109 -9.695105
v -2.091530 2.363024 -9.695105
v -2.091530 0.665481 -9.695105
v 1.583603 6.437127 -9.695105
v -2.091528 6.437126 -9.695105
v -1.680128 -1.069713 -9.290386
v -2.091530 -1.069713 -9.290386
v 1.909977 -1.069713 -10.099824
v 1.909977 5.758110 -10.666430
v 1.909977 5.758110 -10.099824
v 1.909977 2.363024 -10.666430
v 1.909977 2.363024 -10.099824
v 1.909977 6.437127 -10.666430
v 1.909977 6.437127 -10.099824
v 1.583603 -1.069713 -9.290385
v 1.909977 -1.069713 -9.290385
v 1.583603 0.665481 -9.695105
v 1.583603 2.363024 -9.695105
v 1.909977 6.437127 -9.695105
v 1.909977 5.758110 -9.695105
v 1.909977 0.665481 -9.695105
v 1.909977 2.363024 -9.695105
v -1.680128 4.060567 -10.666430
v -1.680128 4.060567 -10.099824
v -2.091528 4.060567 -10.666430
v -2.091528 4.060567 -10.099824
v -1.680128 4.060567 -9.695105
v -2.091528 4.060567 -9.695105
v 1.583603 4.060567 -10.666430
v 1.583603 4.060567 -10.099824
v 1.909977 4.060567 -10.666430
v 1.909977 4.060567 -10.099824
v 1.583603 4.060567 -9.695105
v 1.909977 4.060567 -9.695105
v -1.027382 5.758109 -10.666430
v -0.374634 5.758109 -10.666430
v 0.278114 5.758109 -10.666430
v 0.930858 5.758109 -10.666430
v 0.930858 5.758109 -10.099824
v 0.278114 5.758109 -10.099824
v -0.374634 5.758109 -10.099824
v -1.027382 5.758109 -10.099824
v -1.027378 6.437127 -10.666430
v -0.374634 6.437127 -10.666430
v 0.278114 6.437127 -10.666430
v 0.930858 6.437127 -10.666430
v 0.930859 5.758109 -9.695105
v 0.278114 5.758109 -9.695105
v -0.374634 5.758109 -9.695105
v -1.027382 5.758109 -9.695105
v 0.930859 6.437127 -9.695105
v 0.278114 6.437127 -9.695105
v -0.374634 6.437127 -9.695105
v -1.027378 6.437127 -9.695105
v 1.909977 -0.183290 -10.666430
v 1.909977 -0.183290 -10.099824
v 1.583603 -0.183290 -9.492745
v 1.909977 -0.183290 -9.492745
v -2.091530 -0.183290 -10.099824
v -2.091530 -0.183290 -10.666430
v -1.680128 -0.183290 -9.492745
v -2.091530 -0.183290 -9.492745
v -1.680128 -1.069713 -10.666430
v 1.583603 -1.069713 -10.666430
v -1.680128 -1.069713 -10.099824
v 1.583603 -1.069713 -10.099824
v 1.583603 -0.183290 -10.666430
v 1.583603 -0.183290 -10.099824
v -1.680128 -0.183290 -10.099824
v -1.680128 -0.183290 -10.666430
v -1.680126 7.351933 -10.099824
v -1.027378 7.351933 -10.099824
v -1.027378 7.351933 -10.666430
v -1.680126 7.351933 -10.666430
v -2.090616 7.352078 -10.098021
v -2.090616 7.352078 -10.661324
v 1.583603 7.351934 -9.695105
v 0.930859 7.351933 -9.695105
v -1.680126 7.351933 -9.695105
v -1.027378 7.351933 -9.695105
v 1.583603 7.351934 -10.099824
v 1.583603 7.351934 -10.666430
v 0.930858 7.351933 -10.099824
v 0.278114 7.351933 -10.099824
v 0.278114 7.351933 -9.695105
v -0.374634 7.351933 -10.099824
v -0.374634 7.351933 -9.695105
v 0.930858 7.351933 -10.666430
v 0.278114 7.351933 -10.666430
v -0.374634 7.351933 -10.666430
v 1.500721 5.758109 10.367332
v -1.763008 5.758110 10.367332
v 1.500721 5.758109 9.800725
v -1.763009 5.758110 9.800724
v 1.500723 2.363024 10.367332
v -1.763008 2.363024 10.367332
v -1.763009 2.363024 9.800724
v 1.500722 2.363024 9.800725
v -1.763008 0.665481 10.367332
v -1.763009 0.665481 9.800724
v 1.500722 0.665481 9.800725
v 1.500723 0.665481 10.367332
v 1.912124 2.363024 10.367332
v 1.912122 5.758109 10.367332
v 1.912124 -1.069713 9.800725
v 1.912122 5.758109 9.800725
v 1.912124 2.363024 9.800725
v 1.500721 6.437126 10.367332
v -1.763008 6.437127 10.367332
v 1.912122 6.437126 9.800725
v 1.912122 6.437126 10.367332
v -1.763009 5.758110 9.396006
v 1.500721 5.758109 9.396006
v 1.500721 6.437126 9.396006
v 1.500722 2.363024 9.396006
v 1.500722 0.665481 9.396006
v 1.912122 5.758109 9.396006
v 1.912124 2.363024 9.396006
v 1.912124 0.665481 9.396006
v -1.763009 6.437127 9.396006
v 1.912122 6.437126 9.396006
v 1.500722 -1.069713 8.991286
v 1.912124 -1.069713 8.991286
v -2.089543 0.640102 10.362225
v -2.089543 -1.071247 10.422224
v -2.089383 -1.069713 9.800724
v -2.089382 5.758110 10.367332
v -2.089383 5.758110 9.800724
v -2.089543 0.640102 9.798921
v -2.089382 2.363024 10.367332
v -2.089383 2.363024 9.800724
v -2.089382 6.437127 10.367332
v -2.089383 6.437127 9.800724
v -1.763009 -1.069713 8.991286
v -2.089383 -1.069713 8.991286
v -1.763009 0.665481 9.396006
v -1.763009 2.363024 9.396006
v -2.089383 6.437127 9.396005
v -2.089383 5.758110 9.396005
v -2.089383 0.665481 9.396005
v -2.089383 2.363024 9.396005
v 1.500723 4.060567 10.367332
v 1.500722 4.060567 9.800725
v 1.912122 4.060567 10.367332
v 1.912122 4.060567 9.800725
v 1.500722 4.060567 9.396006
v 1.912122 4.060567 9.396006
v -1.763008 4.060567 10.367332
v -1.763009 4.060567 9.800724
v -2.089382 4.060567 10.367332
v -2.089383 4.060567 9.800724
v -1.763009 4.060567 9.396006
v -2.089383 4.060567 9.396005
v 0.847976 5.758109 10.367332
v 0.195228 5.758109 10.367332
v -0.457520 5.758109 10.367332
v -1.110264 5.758109 10.367332
v -1.110264 5.758109 9.800724
v -0.457520 5.758109 9.800724
v 0.195228 5.758109 9.800725
v 0.847976 5.758109 9.800725
v 0.847973 6.437127 10.367332
v 0.195228 6.437127 10.367332
v -0.457520 6.437127 10.367332
v -1.110264 6.437127 10.367332
v -1.110264 5.758109 9.396006
v -0.457520 5.758109 9.396006
v 0.195228 5.758109 9.396006
v 0.847976 5.758109 9.396006
v -1.110264 6.437127 9.396006
v -0.457520 6.437127 9.396006
v 0.195228 6.437127 9.396006
v 0.847972 6.437127 9.396006
v -2.089382 -0.183290 10.367332
v -2.089383 -0.183290 9.800724
v -1.763009 -0.183290 9.193645
v -2.089383 -0.183290 9.193645
v 1.912124 -0.183290 9.800725
v 1.912124 -0.183290 10.367332
v 1.500722 -0.183290 9.193646
v 1.912124 -0.183290 9.193646
v 1.500723 -1.069713 10.367332
v -1.763008 -1.069713 10.367332
v 1.500722 -1.069713 9.800725
v -1.763009 -1.069713 9.800724
v -1.763008 -0.183290 10.367332
v -1.763009 -0.183290 9.800724
v 1.500722 -0.183290 9.800725
v 1.500723 -0.183290 10.367332
v 1.500721 7.351933 9.800725
v 0.847972 7.351933 9.800725
v 0.847973 7.351933 10.367332
v 1.500721 7.351933 10.367332
v 1.911210 7.352078 9.798921
v 1.911210 7.352078 10.362225
v -1.763009 7.351934 9.396006
v -1.110264 7.351933 9.396006
v 1.500721 7.351933 9.396006
v 1.911210 7.352078 9.396561
v 0.847972 7.351933 9.396006
v -2.089543 7.352078 10.362225
v -2.089543 7.352078 9.798921
v -1.763009 7.351934 9.800724
v -1.763008 7.351934 10.367332
v -2.089543 7.352078 9.396561
v -1.110264 7.351933 9.800724
v -0.457520 7.351933 9.800724
v -0.457520 7.351933 9.396006
v 0.195228 7.351933 9.800725
v 0.195228 7.351933 9.396006
v -1.110264 7.351933 10.367332
v -0.457520 7.351933 10.367332
v 0.195228 7.351933 10.367332
v 6.416964 -1.072777 -9.749555
v 6.416964 6.677223 -10.149550
v 6.476964 -1.072779 -6.149552
v 5.456963 -1.072777 -9.702807
v 5.856963 6.677223 -10.102805
v 5.457975 -1.072779 -6.149552
v 5.856964 6.677222 -6.149551
v 6.416964 3.302223 -10.149552
v 6.416964 3.302223 -6.149552
v 5.856964 3.302223 -6.149552
v 5.856963 3.302223 -10.102805
v 6.416964 0.614722 -6.149552
v 5.856963 0.614723 -10.102805
v 6.416964 0.614723 -10.149552
v 6.416964 7.352224 -10.149550
v 5.856964 7.352222 -6.149551
v 5.856963 7.352224 -10.149550
v 5.456964 6.677222 -6.149551
v 5.456963 6.677223 -10.149550
v 5.456963 7.352224 -10.149550
v 6.416964 3.302223 -10.651818
v 6.416964 6.677223 -10.651816
v 5.856963 0.614723 -10.651818
v 5.456963 -1.072777 -10.651818
v 6.416964 -1.072777 -10.651818
v 5.856963 6.677223 -10.651816
v 6.416964 0.614723 -10.651818
v 5.856963 3.302223 -10.651818
v 5.856963 7.352224 -10.651816
v 6.416964 7.352224 -10.651816
v 5.456963 6.677223 -10.651816
v 5.456963 7.352224 -10.651816
v 1.910983 0.640102 -10.101315
v 1.911989 -1.072777 -9.702806
v 1.911989 6.677223 -10.651815
v 1.911989 6.677223 -10.126177
v 1.911989 3.302223 -10.102804
v 1.910983 7.352079 -10.659122
v 1.910983 7.352079 -10.124687
v 1.910983 0.640102 -10.659124
v 1.910983 -1.071245 -10.659124
v 1.911989 3.302223 -10.651817
v 5.456963 6.677223 -9.702806
v 5.456963 7.352224 -9.702806
v 1.911989 6.677223 -9.702805
v 1.910983 7.352079 -9.698955
v 5.510301 -1.072777 10.357118
v 5.910297 6.677223 10.357118
v 1.911212 -1.071245 10.362225
v 1.910297 6.677222 10.357118
v 5.463554 -1.072777 9.397117
v 5.863552 6.677223 9.797116
v 1.910299 -1.072777 9.397117
v 1.910297 6.677222 9.797116
v 5.910299 3.302223 10.357118
v 1.910299 3.302222 10.357118
v 1.910299 3.302222 9.797116
v 5.863552 3.302223 9.797116
v 1.911212 0.640102 10.362225
v 1.911211 0.640102 9.798921
v 5.863552 0.614723 9.797116
v 5.910299 0.614723 10.357118
v 5.910297 7.352224 10.357118
v 5.910297 7.352224 9.797116
v 1.910297 6.677222 9.397117
v 5.910297 6.677223 9.397117
v 5.910297 7.352224 9.397117
v 6.412565 3.302223 10.357118
v 6.412563 6.677223 10.357118
v 6.412565 0.614723 9.797116
v 6.412565 -1.072777 9.397117
v 6.412565 -1.072777 10.357118
v 6.412563 6.677223 9.797116
v 6.412565 0.614723 10.357118
v 6.412565 3.302223 9.797116
v 6.412563 7.352224 9.797116
v 6.412563 7.352224 10.357118
v 6.412563 6.677223 9.397117
v 6.412563 7.352224 9.397117
v 5.461271 -1.072780 5.851295
v 5.876938 6.677223 5.851578
v 5.883631 7.352223 5.851296
v 6.412565 -1.072777 5.852143
v 5.463552 6.677223 9.397117
v 5.463552 7.352224 9.397117
v 6.416964 6.677222 -6.149551
v 6.416964 6.677221 -2.149551
v 5.458988 -1.072782 -2.149551
v 5.856964 6.677221 -2.149551
v 6.416964 3.302223 -2.149551
v 5.856964 3.302223 -2.149551
v 6.422071 0.640101 -2.150465
v 5.858768 0.640101 -2.150465
v 5.856964 0.614722 -6.149552
v 6.416964 7.352222 -6.149551
v 5.456964 6.677221 -2.149551
v 5.456408 7.352078 -2.150463
v 5.456964 7.352222 -6.149551
v 6.427178 5.758109 -1.739974
v 6.427178 5.758110 1.523755
v 5.860571 5.758109 -1.739974
v 5.860572 5.758110 1.523755
v 6.427178 2.363024 -1.739976
v 6.427178 2.363024 1.523755
v 5.860572 2.363024 1.523755
v 5.860571 2.363024 -1.739976
v 6.427178 0.665481 1.523755
v 5.860572 0.665481 1.523755
v 5.860571 0.665481 -1.739976
v 6.427178 0.665481 -1.739976
v 6.427178 2.363024 -2.151378
v 6.427178 5.758109 -2.151376
v 5.860571 -1.069713 -2.151378
v 6.482070 -1.071248 -2.150465
v 5.860571 5.758109 -2.151376
v 5.860571 2.363024 -2.151378
v 6.427178 6.437126 -1.739974
v 6.427178 6.437127 1.523755
v 5.860571 6.437126 -2.151376
v 6.427178 6.437126 -2.151376
v 5.455853 5.758110 1.523755
v 5.455853 5.758109 -1.739974
v 5.455853 6.437126 -1.739974
v 5.455853 2.363024 -1.739976
v 5.455853 0.665481 -1.739976
v 5.455853 5.758109 -2.151376
v 5.455853 2.363024 -2.151378
v 5.455853 0.665481 -2.151378
v 5.455853 6.437127 1.523755
v 5.455853 6.437126 -2.151376
v 5.051133 -1.069713 -1.739976
v 5.051133 -1.069713 -2.151378
v 6.482071 -1.071247 1.850289
v 5.860572 -1.069713 1.850129
v 6.427179 5.758110 1.850129
v 5.860572 5.758110 1.850129
v 6.427179 2.363024 1.850129
v 5.860572 2.363024 1.850129
v 6.427179 6.437127 1.850129
v 5.860572 6.437127 1.850129
v 5.051134 -1.069713 1.523755
v 5.051134 -1.069713 1.850129
v 5.455853 0.665481 1.523755
v 5.455853 2.363024 1.523755
v 5.455853 6.437127 1.850129
v 5.455853 5.758110 1.850129
v 5.455853 0.665481 1.850129
v 5.455853 2.363024 1.850129
v 6.427178 4.060567 -1.739976
v 5.860571 4.060567 -1.739976
v 6.427178 4.060567 -2.151376
v 5.860571 4.060567 -2.151376
v 5.455853 4.060567 -1.739976
v 5.455853 4.060567 -2.151376
v 6.427178 4.060567 1.523755
v 5.860572 4.060567 1.523755
v 6.427179 4.060567 1.850129
v 5.860572 4.060567 1.850129
v 5.455853 4.060567 1.523755
v 5.455853 4.060567 1.850129
v 6.427178 5.758109 -1.087230
v 6.427178 5.758109 -0.434482
v 6.427178 5.758109 0.218266
v 6.427178 5.758109 0.871010
v 5.860572 5.758109 0.871010
v 5.860572 5.758109 0.218266
v 5.860572 5.758109 -0.434482
v 5.860572 5.758109 -1.087230
v 6.427178 6.437127 -1.087226
v 6.427178 6.437127 -0.434482
v 6.427178 6.437127 0.218266
v 6.427178 6.437127 0.871010
v 5.455853 5.758109 0.871011
v 5.455853 5.758109 0.218266
v 5.455853 5.758109 -0.434482
v 5.455853 5.758109 -1.087230
v 5.455853 6.437127 0.871011
v 5.455853 6.437127 0.218266
v 5.455853 6.437127 -0.434482
v 5.455853 6.437127 -1.087226
v 6.427179 -0.183290 1.850129
v 5.860572 -0.183290 1.850129
v 5.253493 -0.183290 1.523755
v 5.253494 -0.183290 1.850129
v 5.860571 -0.183290 -2.151378
v 6.427178 -0.183290 -2.151378
v 5.253493 -0.183290 -1.739976
v 5.253493 -0.183290 -2.151378
v 6.427178 -1.069713 -1.739976
v 6.427178 -1.069713 1.523755
v 5.860571 -1.069713 -1.739976
v 5.860572 -1.069713 1.523755
v 6.427178 -0.183290 1.523755
v 5.860572 -0.183290 1.523755
v 5.860571 -0.183290 -1.739976
v 6.427178 -0.183290 -1.739976
v 5.860571 7.351933 -1.739974
v 5.860572 7.351933 -1.087226
v 6.427178 7.351933 -1.087226
v 6.427178 7.351933 -1.739974
v 5.858768 7.352078 -2.150464
v 6.422071 7.352078 -2.150464
v 5.455853 7.351934 1.523755
v 5.455853 7.351933 0.871011
v 5.455853 7.351933 -1.739974
v 5.455853 7.351933 -1.087226
v 6.422071 7.352078 1.850289
v 5.858768 7.352078 1.850289
v 5.860572 7.351934 1.523755
v 6.427178 7.351934 1.523755
v 5.860572 7.351933 0.871010
v 5.860572 7.351933 0.218266
v 5.455853 7.351933 0.218266
v 5.860572 7.351933 -0.434482
v 5.455853 7.351933 -0.434482
v 6.427178 7.351933 0.871010
v 6.427178 7.351933 0.218266
v 6.427178 7.351933 -0.434482
vn 1.0000 -0.0000 -0.0000
vn 1.0000 -0.0001 -0.0001
vn 0.0001 -0.0000 1.0000
vn -0.0001 -0.0000 1.0000
vn -1.0000 -0.0000 -0.0000
vn -0.0000 -0.0000 -1.0000
vn -0.0000 -0.0002 -1.0000
vn -0.0000 0.0002 -1.0000
vn 0.0002 -1.0000 -0.0000
vn -0.0000 0.0001 -1.0000
vn -1.0000 0.0001 -0.0002
vn -0.0000 -0.0000 1.0000
vn 0.9994 0.0355 -0.0000
vn 0.9975 0.0709 -0.0000
vn -0.9733 0.2295 -0.0000
vn -0.0001 -0.0000 -1.0000
vn -0.0000 1.0000 -0.0000
vn -0.0000 -0.0001 1.0000
vn -0.0000 0.0002 1.0000
vn -0.0000 -1.0000 -0.0000
vn -0.9994 0.0355 -0.0000
vn -0.9975 0.0709 -0.0000
vn 0.9732 0.2298 -0.0001
vn -0.0002 -0.0001 1.0000
vn -0.0002 -0.0004 1.0000
vn 0.9731 0.2304 -0.0001
vn 1.0000 -0.0000 -0.0001
vn 1.0000 -0.0000 0.0001
vn 1.0000 0.0001 -0.0000
vn 1.0000 -0.0002 -0.0000
vn 1.0000 -0.0001 0.0001
vn -0.0002 -0.0000 1.0000
vn 0.0002 -0.0000 1.0000
vn -0.0000 -0.0001 -1.0000
vn -0.0001 0.2306 -0.9731
vn -0.0000 0.2306 -0.9730
vn -0.0002 -0.0000 -1.0000
vn 0.9733 0.2295 -0.0000
vn 0.0001 -0.0000 -1.0000
vn -0.9994 0.0354 0.0001
vn -0.9994 0.0356 -0.0002
vn -0.9975 0.0710 -0.0000
vn 0.9733 0.2296 -0.0002
vn 0.9733 0.2297 -0.0004
vn -1.0000 -0.0001 -0.0002
vn -1.0000 -0.0004 -0.0002
vn -1.0000 -0.0002 -0.0001
vn -1.0000 -0.0000 -0.0001
vn 0.0001 0.2304 0.9731
vn -1.0000 -0.0000 -0.0003
vn -1.0000 -0.0000 0.0003
vn -0.0001 -0.0001 1.0000
vn 1.0000 -0.0001 -0.0000
vn 0.9731 0.2306 -0.0001
vn 0.9731 0.2305 -0.0003
vn 0.9731 0.2305 -0.0002
vn -1.0000 -0.0000 0.0001
vn 1.0000 0.0002 -0.0000
vn 0.0001 -0.0002 1.0000
vn -0.0000 -1.0000 -0.0002
vn -0.0000 0.0001 1.0000
vn 1.0000 -0.0003 -0.0000
vn -0.0000 0.0355 -0.9994
vn -0.0000 0.0709 -0.9975
vn -0.0000 0.2296 0.9733
vn -0.0000 0.2295 0.9733
vn 0.0001 0.2297 0.9733
vn 0.0001 -0.0001 1.0000
vn 0.0001 -1.0000 0.0004
vn 1.0000 0.0003 -0.0000
vn -0.0000 0.0355 0.9994
vn -0.0000 0.0709 0.9975
vn -0.0001 0.2295 -0.9733
vn 0.0001 0.0001 -1.0000
vn -1.0000 -0.0001 -0.0000
vn 0.0001 -1.0000 0.0001
vn -0.0000 0.2319 0.9727
vn -0.0001 -1.0000 -0.0000
vn -0.0000 0.2226 0.9749
vn -1.0000 0.0001 -0.0000
vn 1.0000 0.0001 0.0002
vn -1.0000 0.0001 -0.0001
vn -0.0002 1.0000 -0.0000
vn 0.0002 1.0000 -0.0000
vn 1.0000 -0.0005 -0.0000
vn -0.0000 0.2319 -0.9727
vn -1.0000 -0.0002 -0.0000
vn -0.0000 0.2226 -0.9749
vn -1.0000 -0.0000 -0.0002
vn 1.0000 -0.0001 0.0002
vn 0.0004 1.0000 -0.0000
vn -0.0001 -1.0000 -0.0003
vn -0.9731 0.2304 0.0001
vn -0.0000 -1.0000 0.0001
vn -1.0000 0.0002 -0.0000
vn -0.0001 -0.0002 1.0000
vn -0.0000 0.2306 0.9730
vn -0.0001 -0.0002 -1.0000
vn 1.0000 -0.0004 0.0002
vn 1.0000 -0.0002 0.0001
vn 0.0001 -0.0004 -1.0000
vn -1.0000 0.0001 0.0003
vn 0.0001 0.2305 -0.9731
vn 1.0000 -0.0000 0.0003
vn 0.0001 -0.0001 -1.0000
vn 1.0000 -0.0000 0.0002
vn -0.9730 0.2306 -0.0000
vn -0.9730 0.2307 -0.0000
vn 1.0000 0.0002 -0.0001
vn -0.0000 -0.0002 1.0000
vn -1.0000 -0.0002 0.0001
vn -0.9733 0.2294 -0.0001
vn -0.0000 -0.0005 -1.0000
vn -0.9727 0.2319 -0.0000
vn -0.9749 0.2226 -0.0000
vn -0.0001 0.0001 1.0000
vn -0.0001 0.0001 -1.0000
vn -0.0000 1.0000 -0.0002
vt 0.326700 0.321853
vt 0.368602 0.321853
vt 0.368602 0.371528
vt 0.326701 0.371528
vt 0.850745 0.358363
vt 0.850740 0.316464
vt 0.857418 0.316463
vt 0.857630 0.358362
vt 0.596496 0.070011
vt 0.554595 0.070015
vt 0.554598 0.020337
vt 0.596497 0.020337
vt 0.367682 0.809925
vt 0.367694 0.768025
vt 0.374647 0.768027
vt 0.374634 0.809927
vt 0.804385 0.927074
vt 0.791030 0.927074
vt 0.791040 0.877400
vt 0.803743 0.877408
vt 0.367719 0.759647
vt 0.374713 0.759649
vt 0.367694 0.842975
vt 0.374688 0.842977
vt 0.629860 0.070011
vt 0.629545 0.020335
vt 0.850750 0.391728
vt 0.857634 0.391727
vt 0.293649 0.321851
vt 0.293334 0.371528
vt 0.272394 0.321852
vt 0.272369 0.371517
vt 0.849235 0.412678
vt 0.862591 0.412676
vt 0.650888 0.070011
vt 0.650888 0.020337
vt 0.362724 0.864238
vt 0.375426 0.864223
vt 0.027084 0.225418
vt 0.020490 0.225418
vt 0.020399 0.175742
vt 0.027393 0.175742
vt 0.850739 0.308084
vt 0.857333 0.308083
vt 0.362728 0.768023
vt 0.362724 0.759645
vt 0.376980 0.321851
vt 0.376983 0.371528
vt 0.906991 0.538113
vt 0.906991 0.488439
vt 0.915370 0.488439
vt 0.915369 0.538115
vt 0.956862 0.586922
vt 0.957064 0.636600
vt 0.951891 0.636591
vt 0.951896 0.586917
vt 0.032388 0.175742
vt 0.032341 0.225418
vt 0.862590 0.308082
vt 0.862591 0.316462
vt 0.322647 0.225281
vt 0.280749 0.225281
vt 0.280749 0.175617
vt 0.322647 0.175617
vt 0.364199 0.664659
vt 0.364188 0.622759
vt 0.371141 0.622757
vt 0.371152 0.664657
vt 0.472020 0.168664
vt 0.513922 0.168664
vt 0.513922 0.218328
vt 0.472021 0.218328
vt 0.833076 0.208731
vt 0.833076 0.166831
vt 0.840029 0.166831
vt 0.840029 0.208731
vt 0.417655 0.407399
vt 0.431037 0.407588
vt 0.430349 0.457247
vt 0.417699 0.457068
vt 0.833076 0.242096
vt 0.840028 0.242096
vt 0.438654 0.168664
vt 0.438654 0.218328
vt 0.364208 0.698024
vt 0.371161 0.698022
vt 0.356011 0.225281
vt 0.356011 0.175617
vt 0.376972 0.225281
vt 0.376984 0.175617
vt 0.362724 0.718974
vt 0.376108 0.718971
vt 0.417655 0.168665
vt 0.417655 0.218329
vt 0.828122 0.263046
vt 0.840773 0.263046
vt 0.224745 0.175744
vt 0.231698 0.175744
vt 0.231698 0.225407
vt 0.224745 0.225407
vt 0.364186 0.614379
vt 0.371139 0.614377
vt 0.272369 0.225280
vt 0.272369 0.175617
vt 0.651391 0.501108
vt 0.651391 0.451444
vt 0.659772 0.451444
vt 0.659772 0.501108
vt 0.782387 0.214590
vt 0.782433 0.164927
vt 0.787399 0.164931
vt 0.787353 0.214595
vt 0.219779 0.225407
vt 0.219779 0.175744
vt 0.376105 0.614376
vt 0.376108 0.622756
vt 0.322647 0.274944
vt 0.280748 0.274944
vt 0.513923 0.267411
vt 0.472021 0.267411
vt 0.041307 0.420826
vt 0.020357 0.415860
vt 0.020356 0.371846
vt 0.041306 0.371835
vt 0.429739 0.501360
vt 0.417813 0.501772
vt 0.322647 0.281181
vt 0.280748 0.281180
vt 0.659772 0.545225
vt 0.651392 0.545225
vt 0.438655 0.267411
vt 0.356010 0.274945
vt 0.376960 0.269978
vt 0.417655 0.262446
vt 0.224745 0.275071
vt 0.231698 0.275071
vt 0.231698 0.281307
vt 0.224745 0.281307
vt 0.791030 0.974698
vt 0.791030 0.967745
vt 0.799410 0.967745
vt 0.799410 0.974698
vt 0.219779 0.275071
vt 0.219779 0.281307
vt 0.272369 0.274944
vt 0.782341 0.263674
vt 0.787307 0.264259
vt 0.799410 0.979664
vt 0.791030 0.979665
vt 0.074671 0.420826
vt 0.116571 0.420826
vt 0.116571 0.427779
vt 0.074672 0.427779
vt 0.124951 0.420826
vt 0.124951 0.427779
vt 0.041307 0.427779
vt 0.020357 0.427779
vt 0.116571 0.415860
vt 0.124951 0.415860
vt 0.362724 0.904909
vt 0.369540 0.904913
vt 0.369540 0.953904
vt 0.362863 0.953897
vt 0.356010 0.281181
vt 0.957064 0.771051
vt 0.957437 0.815072
vt 0.951890 0.815067
vt 0.951890 0.771043
vt 0.272369 0.281180
vt 0.376960 0.281181
vt 0.429573 0.513141
vt 0.417655 0.512973
vt 0.223180 0.811726
vt 0.223388 0.769824
vt 0.230065 0.769824
vt 0.230065 0.811726
vt 0.223471 0.761444
vt 0.230065 0.761444
vt 0.223180 0.845092
vt 0.230065 0.845092
vt 0.218227 0.866043
vt 0.230038 0.866042
vt 0.473760 0.501952
vt 0.473582 0.513762
vt 0.074671 0.371835
vt 0.116570 0.371835
vt 0.596496 0.258340
vt 0.554596 0.258340
vt 0.554594 0.209353
vt 0.596497 0.209349
vt 0.629861 0.258340
vt 0.629862 0.209349
vt 0.650877 0.253377
vt 0.650877 0.209352
vt 0.124950 0.371835
vt 0.175754 0.281334
vt 0.175754 0.274740
vt 0.903262 0.308082
vt 0.911642 0.308082
vt 0.911642 0.352106
vt 0.903262 0.352107
vt 0.175754 0.269483
vt 0.219779 0.269524
vt 0.218214 0.769824
vt 0.218214 0.761444
vt 0.280749 0.125953
vt 0.322647 0.125954
vt 0.112167 0.664967
vt 0.112156 0.623067
vt 0.119109 0.623065
vt 0.119120 0.664965
vt 0.472020 0.119001
vt 0.513922 0.119000
vt 0.418356 0.357740
vt 0.431738 0.357929
vt 0.438654 0.119001
vt 0.112176 0.698332
vt 0.119129 0.698330
vt 0.356011 0.125954
vt 0.376984 0.125954
vt 0.110691 0.719283
vt 0.124075 0.719279
vt 0.417655 0.119002
vt 0.224745 0.126080
vt 0.231698 0.126080
vt 0.112154 0.614687
vt 0.119107 0.614685
vt 0.272369 0.125953
vt 0.651391 0.401781
vt 0.659771 0.401781
vt 0.782479 0.115263
vt 0.787446 0.115268
vt 0.219779 0.126080
vt 0.124073 0.614684
vt 0.124075 0.623064
vt 0.280749 0.076279
vt 0.322647 0.076279
vt 0.829632 0.071845
vt 0.829626 0.029945
vt 0.836304 0.029945
vt 0.836516 0.071845
vt 0.472020 0.069326
vt 0.513924 0.069323
vt 0.419057 0.308082
vt 0.432411 0.308260
vt 0.438654 0.069327
vt 0.829636 0.105210
vt 0.836521 0.105209
vt 0.356011 0.076280
vt 0.376984 0.076290
vt 0.828122 0.126160
vt 0.841477 0.126159
vt 0.417655 0.069328
vt 0.225076 0.076406
vt 0.231671 0.076406
vt 0.829625 0.021565
vt 0.836220 0.021565
vt 0.272369 0.076279
vt 0.651391 0.352106
vt 0.659772 0.352106
vt 0.782277 0.065585
vt 0.787451 0.065594
vt 0.219820 0.076406
vt 0.841476 0.021564
vt 0.841477 0.029944
vt 0.074660 0.474686
vt 0.116560 0.474686
vt 0.116560 0.524349
vt 0.074660 0.524350
vt 0.902840 0.906102
vt 0.902840 0.864200
vt 0.909793 0.864200
vt 0.909793 0.906102
vt 0.556330 0.496583
vt 0.514431 0.496583
vt 0.514430 0.447499
vt 0.556330 0.447500
vt 0.356010 0.027289
vt 0.376960 0.032255
vt 0.376959 0.076269
vt 0.165622 0.518868
vt 0.178273 0.519037
vt 0.177697 0.563150
vt 0.165771 0.563571
vt 0.074660 0.468450
vt 0.116560 0.468450
vt 0.902840 0.586917
vt 0.911220 0.586917
vt 0.911220 0.631034
vt 0.902840 0.631034
vt 0.589695 0.496583
vt 0.589695 0.447500
vt 0.902840 0.939468
vt 0.909793 0.939468
vt 0.041295 0.474686
vt 0.041295 0.524350
vt 0.020345 0.479653
vt 0.020335 0.524350
vt 0.610712 0.496580
vt 0.610712 0.452463
vt 0.225407 0.027415
vt 0.225407 0.020462
vt 0.231643 0.020462
vt 0.231643 0.027415
vt 0.175744 0.027415
vt 0.175744 0.020462
vt 0.902840 0.855820
vt 0.909793 0.855820
vt 0.225407 0.032381
vt 0.231643 0.032381
vt 0.124940 0.474686
vt 0.124940 0.524349
vt 0.939200 0.265578
vt 0.939200 0.216495
vt 0.944166 0.216495
vt 0.944166 0.266158
vt 0.175744 0.032381
vt 0.914759 0.855820
vt 0.914759 0.864200
vt 0.322647 0.027289
vt 0.280748 0.027288
vt 0.280749 0.020335
vt 0.322647 0.020336
vt 0.272369 0.027288
vt 0.272369 0.020335
vt 0.356010 0.020336
vt 0.376960 0.020336
vt 0.280748 0.032255
vt 0.272369 0.032255
vt 0.272369 0.904941
vt 0.279185 0.904945
vt 0.279185 0.953936
vt 0.272508 0.953929
vt 0.041295 0.468450
vt 0.781904 0.021564
vt 0.787451 0.021569
vt 0.124940 0.468450
vt 0.020345 0.468451
vt 0.177540 0.574932
vt 0.165622 0.574773
vt 0.956041 0.465380
vt 0.960968 0.444423
vt 0.967852 0.444414
vt 0.967852 0.465364
vt 0.221718 0.563708
vt 0.221550 0.575518
vt 0.472020 0.020336
vt 0.513922 0.020335
vt 0.438654 0.020336
vt 0.417655 0.025303
vt 0.651392 0.308082
vt 0.659772 0.308082
vt 0.219861 0.032381
vt 0.116560 0.574013
vt 0.074660 0.574013
vt 0.850258 0.637201
vt 0.850245 0.595299
vt 0.857198 0.595297
vt 0.857211 0.637199
vt 0.556331 0.546247
vt 0.514431 0.546246
vt 0.166220 0.469219
vt 0.178922 0.469377
vt 0.589380 0.546235
vt 0.850205 0.670252
vt 0.857199 0.670250
vt 0.041609 0.574002
vt 0.020354 0.574002
vt 0.849467 0.691499
vt 0.862169 0.691515
vt 0.610712 0.546243
vt 0.955430 0.961454
vt 0.960384 0.940504
vt 0.967337 0.940504
vt 0.968082 0.961454
vt 0.126091 0.027393
vt 0.126091 0.020399
vt 0.850179 0.586921
vt 0.857173 0.586919
vt 0.124937 0.574002
vt 0.911220 0.680698
vt 0.902842 0.680686
vt 0.939200 0.166831
vt 0.944166 0.166831
vt 0.126091 0.032388
vt 0.862169 0.586917
vt 0.862165 0.595296
vt 0.074670 0.322161
vt 0.116570 0.322161
vt 0.554598 0.159675
vt 0.596498 0.159675
vt 0.854425 0.782467
vt 0.854437 0.740565
vt 0.861390 0.740567
vt 0.861377 0.782469
vt 0.714722 0.918785
vt 0.701366 0.918788
vt 0.701366 0.869114
vt 0.714068 0.869119
vt 0.854462 0.732187
vt 0.861456 0.732189
vt 0.854437 0.815518
vt 0.861431 0.815520
vt 0.629548 0.159673
vt 0.041619 0.322159
vt 0.020363 0.322160
vt 0.020335 0.371826
vt 0.417655 0.942721
vt 0.419172 0.921772
vt 0.426057 0.921772
vt 0.431010 0.942721
vt 0.650878 0.159678
vt 0.849467 0.836783
vt 0.862169 0.836767
vt 0.126078 0.281425
vt 0.126078 0.274431
vt 0.849471 0.740564
vt 0.849467 0.732185
vt 0.124947 0.322159
vt 0.903262 0.401781
vt 0.911640 0.401782
vt 0.956862 0.721373
vt 0.951896 0.721368
vt 0.126078 0.269435
vt 0.211252 0.709740
vt 0.211252 0.699203
vt 0.215317 0.699517
vt 0.215304 0.709740
vt 0.170730 0.657053
vt 0.170730 0.678128
vt 0.165622 0.678128
vt 0.165622 0.657053
vt 0.765233 0.474412
vt 0.765233 0.453336
vt 0.770258 0.453336
vt 0.770258 0.474412
vt 0.170730 0.699203
vt 0.165633 0.699517
vt 0.211252 0.657054
vt 0.211252 0.635979
vt 0.215304 0.635979
vt 0.215304 0.657054
vt 0.618035 0.825821
vt 0.618101 0.815598
vt 0.623147 0.815325
vt 0.625573 0.825883
vt 0.170730 0.709740
vt 0.170730 0.720745
vt 0.165633 0.720773
vt 0.165622 0.709740
vt 0.801012 0.773030
vt 0.800990 0.751956
vt 0.808025 0.751949
vt 0.808047 0.773023
vt 0.801035 0.815493
vt 0.801034 0.794104
vt 0.808069 0.794096
vt 0.808029 0.815485
vt 0.801068 0.825715
vt 0.808103 0.825707
vt 0.854575 0.959328
vt 0.854575 0.966363
vt 0.849467 0.966363
vt 0.849478 0.958646
vt 0.856502 0.885558
vt 0.856502 0.877453
vt 0.861527 0.877453
vt 0.861527 0.885558
vt 0.796032 0.815183
vt 0.796009 0.794109
vt 0.170730 0.627549
vt 0.165622 0.627549
vt 0.165633 0.616189
vt 0.170730 0.616192
vt 0.203148 0.627549
vt 0.195043 0.627549
vt 0.195043 0.616192
vt 0.203148 0.616192
vt 0.170730 0.635979
vt 0.165622 0.635979
vt 0.178834 0.635979
vt 0.178834 0.627549
vt 0.800981 0.743527
vt 0.808016 0.743519
vt 0.701366 0.966494
vt 0.705418 0.966494
vt 0.705418 0.976543
vt 0.701366 0.976543
vt 0.623169 0.606707
vt 0.615065 0.606707
vt 0.615065 0.598277
vt 0.623170 0.598277
vt 0.655586 0.627783
vt 0.655587 0.606708
vt 0.660695 0.606708
vt 0.660694 0.627783
vt 0.655584 0.669932
vt 0.655585 0.648857
vt 0.660693 0.648857
vt 0.660692 0.669932
vt 0.655587 0.598278
vt 0.660695 0.598278
vt 0.765233 0.516563
vt 0.765233 0.495487
vt 0.770258 0.495487
vt 0.770258 0.516563
vt 0.647483 0.598278
vt 0.647483 0.586921
vt 0.655588 0.586921
vt 0.795987 0.773035
vt 0.215304 0.627549
vt 0.211252 0.627549
vt 0.211252 0.616192
vt 0.215317 0.616189
vt 0.795965 0.751962
vt 0.795956 0.743532
vt 0.655586 0.680503
vt 0.660694 0.680503
vt 0.765233 0.527101
vt 0.772771 0.527101
vt 0.801080 0.836719
vt 0.791030 0.836730
vt 0.793530 0.825723
vt 0.854575 0.976413
vt 0.849467 0.976413
vt 0.611434 0.773076
vt 0.611608 0.752001
vt 0.618642 0.752059
vt 0.618469 0.773134
vt 0.611176 0.815541
vt 0.611261 0.794151
vt 0.618296 0.794209
vt 0.611001 0.825763
vt 0.611677 0.743571
vt 0.618712 0.743629
vt 0.211252 0.678128
vt 0.215304 0.678128
vt 0.701366 0.959459
vt 0.705431 0.959549
vt 0.615066 0.586920
vt 0.623170 0.586920
vt 0.611861 0.732213
vt 0.618497 0.732268
vt 0.615064 0.680502
vt 0.615065 0.691541
vt 0.611013 0.691541
vt 0.611011 0.680502
vt 0.611013 0.606707
vt 0.611013 0.598277
vt 0.615064 0.627781
vt 0.615063 0.648856
vt 0.611011 0.648856
vt 0.611012 0.627781
vt 0.615062 0.669931
vt 0.611010 0.669930
vt 0.891494 0.240590
vt 0.891494 0.251594
vt 0.881444 0.251594
vt 0.883956 0.240590
vt 0.623737 0.743670
vt 0.623667 0.752100
vt 0.623320 0.794250
vt 0.891494 0.187905
vt 0.891494 0.208979
vt 0.886469 0.208979
vt 0.886469 0.187905
vt 0.891494 0.230053
vt 0.886469 0.230053
vt 0.623494 0.773175
vt 0.849467 0.885558
vt 0.849467 0.877453
vt 0.898529 0.187905
vt 0.891494 0.166831
vt 0.898529 0.166831
vt 0.898529 0.230053
vt 0.898529 0.208979
vt 0.898529 0.240590
vt 0.758198 0.474412
vt 0.758198 0.453336
vt 0.758198 0.516563
vt 0.758198 0.495487
vt 0.886469 0.166831
vt 0.849467 0.917975
vt 0.849467 0.909871
vt 0.856502 0.909871
vt 0.856502 0.917975
vt 0.849467 0.901767
vt 0.856502 0.901767
vt 0.849467 0.893662
vt 0.856502 0.893662
vt 0.631274 0.598277
vt 0.631274 0.586920
vt 0.611001 0.586917
vt 0.178834 0.616192
vt 0.647483 0.606708
vt 0.639378 0.606708
vt 0.639378 0.598278
vt 0.631274 0.606707
vt 0.203148 0.635979
vt 0.195043 0.635979
vt 0.186939 0.635979
vt 0.186939 0.627549
vt 0.639379 0.586921
vt 0.623782 0.732311
vt 0.795951 0.732173
vt 0.800946 0.732168
vt 0.186939 0.616192
vt 0.861527 0.909871
vt 0.861527 0.917975
vt 0.861527 0.901767
vt 0.861527 0.893662
vt 0.611001 0.836788
vt 0.617945 0.836826
vt 0.627995 0.836908
vt 0.211252 0.720745
vt 0.215317 0.720763
vt 0.758198 0.527101
vt 0.765233 0.538106
vt 0.775283 0.538106
vt 0.655587 0.691542
vt 0.660695 0.691542
vt 0.808796 0.836730
vt 0.758198 0.538106
vt 0.898529 0.251594
vt 0.112890 0.027370
vt 0.112890 0.020335
vt 0.120995 0.020335
vt 0.120995 0.027370
vt 0.120995 0.032395
vt 0.112890 0.032395
vt 0.076408 0.027062
vt 0.080473 0.027370
vt 0.080473 0.032395
vt 0.076408 0.032347
vt 0.080473 0.020335
vt 0.076408 0.020426
vt 0.088577 0.027370
vt 0.088577 0.032395
vt 0.096682 0.027370
vt 0.096682 0.032395
vt 0.104786 0.027370
vt 0.104786 0.032395
vt 0.088577 0.020335
vt 0.096682 0.020335
vt 0.104786 0.020335
vt 0.660684 0.586919
vt 0.807940 0.732161
vt 0.746073 0.401632
vt 0.746073 0.391095
vt 0.750127 0.391409
vt 0.750125 0.401632
vt 0.705551 0.348946
vt 0.705551 0.370021
vt 0.700443 0.370021
vt 0.700443 0.348946
vt 0.889183 0.042638
vt 0.889183 0.021564
vt 0.894208 0.021564
vt 0.894208 0.042638
vt 0.705551 0.391095
vt 0.700454 0.391410
vt 0.746073 0.348946
vt 0.746073 0.327871
vt 0.750125 0.327871
vt 0.750125 0.348946
vt 0.709094 0.817428
vt 0.709128 0.807206
vt 0.714131 0.806896
vt 0.716632 0.817436
vt 0.705551 0.401633
vt 0.705551 0.412637
vt 0.700454 0.412656
vt 0.700443 0.401633
vt 0.524114 0.773087
vt 0.523993 0.752012
vt 0.531027 0.751971
vt 0.531149 0.773046
vt 0.524336 0.815552
vt 0.524235 0.794162
vt 0.531270 0.794122
vt 0.531329 0.815512
vt 0.524417 0.825775
vt 0.531452 0.825734
vt 0.560209 0.975786
vt 0.560209 0.968751
vt 0.565317 0.968751
vt 0.565306 0.975723
vt 0.519455 0.909926
vt 0.519455 0.918031
vt 0.514430 0.918031
vt 0.514430 0.909926
vt 0.519331 0.815266
vt 0.519210 0.794191
vt 0.705551 0.319442
vt 0.700443 0.319442
vt 0.700454 0.308082
vt 0.705551 0.308085
vt 0.737969 0.319442
vt 0.729864 0.319442
vt 0.729864 0.308085
vt 0.737969 0.308085
vt 0.705551 0.327872
vt 0.700443 0.327872
vt 0.713655 0.327872
vt 0.713656 0.319442
vt 0.523944 0.743582
vt 0.530979 0.743541
vt 0.615055 0.968822
vt 0.611003 0.968822
vt 0.611003 0.958772
vt 0.615055 0.958772
vt 0.032494 0.634473
vt 0.024390 0.634473
vt 0.024390 0.626043
vt 0.032494 0.626043
vt 0.064912 0.655548
vt 0.064912 0.634473
vt 0.070020 0.634473
vt 0.070020 0.655548
vt 0.064913 0.697697
vt 0.064913 0.676622
vt 0.070021 0.676622
vt 0.070021 0.697697
vt 0.064912 0.626043
vt 0.070020 0.626043
vt 0.889183 0.084786
vt 0.889183 0.063712
vt 0.894208 0.063712
vt 0.894208 0.084786
vt 0.056808 0.626043
vt 0.056808 0.614686
vt 0.064912 0.614686
vt 0.519089 0.773116
vt 0.750125 0.319442
vt 0.746073 0.319442
vt 0.746073 0.308085
vt 0.750127 0.308082
vt 0.518968 0.752041
vt 0.518919 0.743611
vt 0.064911 0.708268
vt 0.070019 0.708268
vt 0.889183 0.095323
vt 0.896720 0.095323
vt 0.524480 0.836780
vt 0.514430 0.836838
vt 0.516880 0.825818
vt 0.560209 0.958701
vt 0.565317 0.958701
vt 0.702116 0.764736
vt 0.702139 0.743662
vt 0.709174 0.743669
vt 0.709151 0.764743
vt 0.702134 0.807198
vt 0.702093 0.785809
vt 0.709128 0.785817
vt 0.702059 0.817420
vt 0.702148 0.735232
vt 0.709183 0.735240
vt 0.746073 0.370021
vt 0.750125 0.370021
vt 0.615055 0.975857
vt 0.611001 0.976538
vt 0.024390 0.614686
vt 0.032494 0.614686
vt 0.702223 0.723874
vt 0.709217 0.723881
vt 0.024389 0.708268
vt 0.024388 0.719306
vt 0.020335 0.719306
vt 0.020337 0.708268
vt 0.020338 0.634473
vt 0.020338 0.626043
vt 0.024390 0.655548
vt 0.024390 0.676622
vt 0.020338 0.676622
vt 0.020338 0.655548
vt 0.024391 0.697697
vt 0.020338 0.697697
vt 0.710493 0.527101
vt 0.710493 0.538106
vt 0.700443 0.538106
vt 0.702955 0.527101
vt 0.714208 0.735245
vt 0.714199 0.743675
vt 0.714153 0.785822
vt 0.710493 0.474412
vt 0.710493 0.495487
vt 0.705468 0.495487
vt 0.705468 0.474412
vt 0.710493 0.516563
vt 0.705468 0.516563
vt 0.714176 0.764749
vt 0.526490 0.909926
vt 0.526490 0.918031
vt 0.717528 0.474412
vt 0.710493 0.453336
vt 0.717528 0.453336
vt 0.717528 0.516563
vt 0.717528 0.495487
vt 0.717528 0.527101
vt 0.882148 0.042638
vt 0.882148 0.021564
vt 0.882148 0.084786
vt 0.882148 0.063712
vt 0.705468 0.453336
vt 0.526490 0.877509
vt 0.526490 0.885613
vt 0.519455 0.885613
vt 0.519455 0.877509
vt 0.526490 0.893717
vt 0.519455 0.893717
vt 0.526490 0.901822
vt 0.519455 0.901822
vt 0.040599 0.626043
vt 0.040599 0.614686
vt 0.020336 0.614684
vt 0.713656 0.308085
vt 0.056808 0.634473
vt 0.048703 0.634473
vt 0.048703 0.626043
vt 0.040599 0.634473
vt 0.737969 0.327872
vt 0.729864 0.327872
vt 0.721760 0.327872
vt 0.721760 0.319442
vt 0.048703 0.614686
vt 0.714213 0.723887
vt 0.518861 0.732251
vt 0.523856 0.732222
vt 0.721760 0.308085
vt 0.514430 0.885613
vt 0.514430 0.877509
vt 0.514430 0.893717
vt 0.514430 0.901822
vt 0.701366 0.828443
vt 0.709082 0.828432
vt 0.719132 0.828443
vt 0.746073 0.412637
vt 0.750127 0.412665
vt 0.882148 0.095323
vt 0.889183 0.106327
vt 0.899233 0.106327
vt 0.064910 0.719306
vt 0.070018 0.719306
vt 0.531452 0.836759
vt 0.882148 0.106327
vt 0.717528 0.538106
vt 0.089606 0.274454
vt 0.089606 0.281488
vt 0.081502 0.281488
vt 0.081502 0.274454
vt 0.076405 0.281425
vt 0.076405 0.274431
vt 0.081502 0.269429
vt 0.089606 0.269429
vt 0.076405 0.269435
vt 0.122024 0.274454
vt 0.122024 0.269429
vt 0.122024 0.281488
vt 0.113920 0.274454
vt 0.113920 0.269429
vt 0.105815 0.274454
vt 0.105815 0.269429
vt 0.097711 0.274454
vt 0.097711 0.269429
vt 0.113920 0.281488
vt 0.105815 0.281488
vt 0.097711 0.281488
vt 0.070009 0.614684
vt 0.530850 0.732182
vt 0.326693 0.474378
vt 0.368595 0.474378
vt 0.368595 0.524042
vt 0.326693 0.524042
vt 0.111429 0.810235
vt 0.111424 0.768335
vt 0.118377 0.768334
vt 0.118382 0.810234
vt 0.568822 0.357745
vt 0.610720 0.357745
vt 0.610720 0.406829
vt 0.568822 0.406829
vt 0.466648 0.638078
vt 0.461681 0.659028
vt 0.417655 0.659010
vt 0.417655 0.637764
vt 0.221707 0.378900
vt 0.209057 0.378731
vt 0.209632 0.334618
vt 0.221558 0.334197
vt 0.326693 0.468142
vt 0.368595 0.468142
vt 0.902840 0.721368
vt 0.911220 0.721368
vt 0.911220 0.765485
vt 0.902840 0.765485
vt 0.535458 0.357745
vt 0.535459 0.406829
vt 0.111434 0.843599
vt 0.118387 0.843598
vt 0.293327 0.474378
vt 0.293327 0.524042
vt 0.272376 0.479345
vt 0.272369 0.524042
vt 0.110691 0.864549
vt 0.123343 0.864547
vt 0.514431 0.357746
vt 0.514430 0.401863
vt 0.027415 0.026753
vt 0.020462 0.026753
vt 0.020462 0.020517
vt 0.027415 0.020517
vt 0.027415 0.076416
vt 0.020462 0.076416
vt 0.111423 0.759955
vt 0.118376 0.759954
vt 0.032381 0.026753
vt 0.032381 0.020517
vt 0.376975 0.474378
vt 0.376975 0.524042
vt 0.944870 0.022144
vt 0.944870 0.071228
vt 0.939903 0.071228
vt 0.939903 0.021564
vt 0.032381 0.076416
vt 0.123342 0.759953
vt 0.123343 0.768333
vt 0.466648 0.604713
vt 0.466648 0.562813
vt 0.473601 0.562813
vt 0.473601 0.604713
vt 0.466648 0.554433
vt 0.473601 0.554433
vt 0.473601 0.638078
vt 0.473601 0.659028
vt 0.461681 0.562813
vt 0.461681 0.554433
vt 0.027152 0.954217
vt 0.020335 0.954217
vt 0.020335 0.905236
vt 0.026862 0.905236
vt 0.293327 0.468142
vt 0.960686 0.855820
vt 0.960977 0.899834
vt 0.955430 0.899834
vt 0.955430 0.855820
vt 0.376975 0.468142
vt 0.272376 0.468142
vt 0.209789 0.322837
vt 0.221707 0.322995
vt 0.170636 0.811720
vt 0.170926 0.769821
vt 0.177453 0.769821
vt 0.177453 0.811720
vt 0.170908 0.761444
vt 0.177543 0.761444
vt 0.170618 0.844768
vt 0.177543 0.844768
vt 0.165670 0.866032
vt 0.177543 0.866014
vt 0.165622 0.334032
vt 0.165768 0.322159
vt 0.417667 0.604713
vt 0.417667 0.562813
vt 0.701366 0.628821
vt 0.701367 0.586921
vt 0.750347 0.586917
vt 0.750347 0.628821
vt 0.701366 0.662186
vt 0.750359 0.661871
vt 0.706336 0.683203
vt 0.750350 0.683203
vt 0.417655 0.554436
vt 0.218214 0.906714
vt 0.226594 0.906713
vt 0.226594 0.950740
vt 0.218217 0.950728
vt 0.032381 0.032300
vt 0.165670 0.769821
vt 0.165622 0.761444
vt 0.520667 0.637197
vt 0.520667 0.595297
vt 0.570330 0.595297
vt 0.570330 0.637196
vt 0.020402 0.810254
vt 0.020399 0.768355
vt 0.027352 0.768355
vt 0.027355 0.810253
vt 0.691561 0.062235
vt 0.691561 0.020335
vt 0.740644 0.020335
vt 0.740645 0.062235
vt 0.293335 0.420519
vt 0.272384 0.415552
vt 0.272384 0.371538
vt 0.417655 0.755664
vt 0.417655 0.743682
vt 0.461772 0.743723
vt 0.462341 0.755643
vt 0.514430 0.637197
vt 0.514430 0.595297
vt 0.174002 0.950820
vt 0.165622 0.950820
vt 0.165622 0.906703
vt 0.174000 0.906714
vt 0.691573 0.095285
vt 0.740645 0.095600
vt 0.020341 0.843302
vt 0.027335 0.843301
vt 0.520667 0.670562
vt 0.570319 0.670247
vt 0.525633 0.691511
vt 0.570319 0.691493
vt 0.020342 0.864547
vt 0.032325 0.864565
vt 0.691559 0.116616
vt 0.735676 0.116616
vt 0.026753 0.274409
vt 0.026753 0.281362
vt 0.020517 0.281362
vt 0.020517 0.274409
vt 0.020335 0.759977
vt 0.027329 0.759977
vt 0.026753 0.269442
vt 0.020517 0.269442
vt 0.520667 0.586917
vt 0.570319 0.586919
vt 0.952312 0.357165
vt 0.952312 0.308082
vt 0.957279 0.308082
vt 0.957279 0.357745
vt 0.032325 0.759976
vt 0.032319 0.768354
vt 0.326701 0.420519
vt 0.368603 0.420519
vt 0.368603 0.427471
vt 0.326701 0.427471
vt 0.376983 0.420519
vt 0.376983 0.427471
vt 0.293335 0.427471
vt 0.272384 0.427471
vt 0.368603 0.415552
vt 0.376983 0.415552
vt 0.117508 0.954215
vt 0.110691 0.954211
vt 0.110691 0.905220
vt 0.117369 0.905227
vt 0.514430 0.670562
vt 0.957437 0.680621
vt 0.951891 0.680616
vt 0.514430 0.586917
vt 0.514430 0.691512
vt 0.473554 0.743734
vt 0.473543 0.755654
vt 0.956041 0.527016
vt 0.960968 0.506059
vt 0.967852 0.506051
vt 0.967852 0.527000
vt 0.461785 0.699699
vt 0.473596 0.699720
vt 0.596496 0.119002
vt 0.554597 0.119002
vt 0.629859 0.119002
vt 0.650887 0.114035
vt 0.906991 0.444414
vt 0.915370 0.444414
vt 0.032300 0.269442
vt 0.368595 0.573705
vt 0.326693 0.573705
vt 0.273160 0.809960
vt 0.273148 0.768060
vt 0.280101 0.768058
vt 0.280113 0.809958
vt 0.568822 0.308082
vt 0.610720 0.308082
vt 0.221109 0.428549
vt 0.208408 0.428391
vt 0.535774 0.308093
vt 0.273107 0.843009
vt 0.280101 0.843007
vt 0.293641 0.573694
vt 0.272387 0.573694
vt 0.272369 0.864255
vt 0.285071 0.864271
vt 0.514431 0.308083
vt 0.027393 0.126069
vt 0.020399 0.126069
vt 0.273082 0.759682
vt 0.280076 0.759680
vt 0.376973 0.573694
vt 0.911219 0.815149
vt 0.902842 0.815138
vt 0.944870 0.120891
vt 0.939903 0.120891
vt 0.032388 0.126069
vt 0.285071 0.759678
vt 0.285067 0.768056
vt 0.737179 0.253228
vt 0.737179 0.242690
vt 0.741233 0.243004
vt 0.741231 0.253228
vt 0.696657 0.200539
vt 0.696657 0.221614
vt 0.691549 0.221614
vt 0.691549 0.200539
vt 0.424690 0.817410
vt 0.424691 0.796335
vt 0.429715 0.796335
vt 0.429715 0.817410
vt 0.696657 0.242690
vt 0.691560 0.243004
vt 0.737179 0.200539
vt 0.737179 0.179463
vt 0.741231 0.179463
vt 0.741231 0.200539
vt 0.798758 0.680474
vt 0.798791 0.670252
vt 0.803794 0.669942
vt 0.806295 0.680482
vt 0.696657 0.253228
vt 0.696657 0.264233
vt 0.691560 0.264259
vt 0.691549 0.253228
vt 0.800780 0.348953
vt 0.800757 0.327878
vt 0.807792 0.327871
vt 0.807815 0.348945
vt 0.800803 0.391417
vt 0.800802 0.370028
vt 0.807837 0.370020
vt 0.807797 0.391410
vt 0.800836 0.401640
vt 0.807871 0.401632
vt 0.519538 0.959383
vt 0.519538 0.966418
vt 0.514430 0.966418
vt 0.514442 0.958701
vt 0.616026 0.909997
vt 0.616026 0.918101
vt 0.611001 0.918101
vt 0.611001 0.909997
vt 0.795800 0.391108
vt 0.795777 0.370033
vt 0.696657 0.171033
vt 0.691549 0.171033
vt 0.691560 0.159673
vt 0.696657 0.159676
vt 0.729075 0.171033
vt 0.720970 0.171033
vt 0.720970 0.159676
vt 0.729075 0.159676
vt 0.696657 0.179463
vt 0.691549 0.179463
vt 0.704761 0.179463
vt 0.704762 0.171033
vt 0.800748 0.319448
vt 0.807783 0.319441
vt 0.655726 0.966488
vt 0.659778 0.966488
vt 0.659778 0.976538
vt 0.655726 0.976538
vt 0.284527 0.634164
vt 0.276423 0.634164
vt 0.276423 0.625735
vt 0.284527 0.625735
vt 0.316945 0.655239
vt 0.316945 0.634165
vt 0.322053 0.634165
vt 0.322053 0.655239
vt 0.316945 0.697386
vt 0.316945 0.676312
vt 0.322053 0.676312
vt 0.322052 0.697386
vt 0.316945 0.625735
vt 0.322053 0.625735
vt 0.424690 0.859559
vt 0.424690 0.838484
vt 0.429715 0.838484
vt 0.429715 0.859559
vt 0.308841 0.625735
vt 0.308841 0.614378
vt 0.316945 0.614378
vt 0.795755 0.348958
vt 0.741231 0.171033
vt 0.737179 0.171033
vt 0.737179 0.159676
vt 0.741233 0.159673
vt 0.795732 0.327884
vt 0.795723 0.319454
vt 0.316945 0.707963
vt 0.322053 0.707963
vt 0.424690 0.870096
vt 0.432227 0.870096
vt 0.800848 0.412644
vt 0.790798 0.412655
vt 0.793299 0.401648
vt 0.519538 0.976468
vt 0.514430 0.976468
vt 0.791780 0.627780
vt 0.791803 0.606706
vt 0.798838 0.606713
vt 0.798815 0.627788
vt 0.791797 0.670245
vt 0.791757 0.648855
vt 0.798792 0.648862
vt 0.791723 0.680467
vt 0.791812 0.598276
vt 0.798847 0.598284
vt 0.737179 0.221614
vt 0.741231 0.221614
vt 0.655726 0.959453
vt 0.659780 0.958772
vt 0.276423 0.614378
vt 0.284527 0.614378
vt 0.791888 0.586917
vt 0.798882 0.586925
vt 0.276423 0.707963
vt 0.276423 0.719007
vt 0.272371 0.719007
vt 0.272370 0.707963
vt 0.272371 0.634164
vt 0.272371 0.625735
vt 0.276423 0.655238
vt 0.276423 0.676312
vt 0.272370 0.676312
vt 0.272370 0.655238
vt 0.276422 0.697386
vt 0.272370 0.697386
vt 0.859285 0.527110
vt 0.859285 0.538115
vt 0.849235 0.538115
vt 0.851748 0.527110
vt 0.803872 0.598289
vt 0.803863 0.606719
vt 0.803817 0.648868
vt 0.859285 0.474423
vt 0.859285 0.495498
vt 0.854260 0.495498
vt 0.854260 0.474423
vt 0.859285 0.516573
vt 0.854260 0.516573
vt 0.803840 0.627793
vt 0.623061 0.909997
vt 0.623061 0.918101
vt 0.866319 0.474423
vt 0.859284 0.453349
vt 0.866319 0.453349
vt 0.866320 0.516573
vt 0.866320 0.495498
vt 0.866320 0.527110
vt 0.417655 0.817410
vt 0.417656 0.796335
vt 0.417655 0.859559
vt 0.417655 0.838484
vt 0.854259 0.453349
vt 0.623061 0.877579
vt 0.623061 0.885683
vt 0.616026 0.885683
vt 0.616026 0.877579
vt 0.623061 0.893788
vt 0.616026 0.893788
vt 0.623061 0.901892
vt 0.616026 0.901892
vt 0.292632 0.625735
vt 0.292632 0.614378
vt 0.272369 0.614376
vt 0.704762 0.159676
vt 0.308841 0.634165
vt 0.300736 0.634165
vt 0.300736 0.625735
vt 0.292632 0.634165
vt 0.729075 0.179463
vt 0.720970 0.179463
vt 0.712866 0.179463
vt 0.712866 0.171033
vt 0.300736 0.614378
vt 0.803877 0.586930
vt 0.795718 0.308095
vt 0.800713 0.308089
vt 0.712866 0.159676
vt 0.611001 0.885683
vt 0.611001 0.877579
vt 0.611001 0.893788
vt 0.611001 0.901892
vt 0.791030 0.691490
vt 0.798746 0.691479
vt 0.808796 0.691490
vt 0.737179 0.264233
vt 0.741233 0.264259
vt 0.417655 0.870096
vt 0.424690 0.881101
vt 0.434740 0.881101
vt 0.316945 0.719007
vt 0.322053 0.719007
vt 0.808564 0.412655
vt 0.417655 0.881101
vt 0.866320 0.538115
vt 0.027370 0.139270
vt 0.020335 0.139270
vt 0.020335 0.131165
vt 0.027370 0.131165
vt 0.032395 0.131165
vt 0.032395 0.139270
vt 0.027370 0.171687
vt 0.032395 0.171687
vt 0.020335 0.171687
vt 0.027370 0.163583
vt 0.032395 0.163583
vt 0.027370 0.155479
vt 0.032395 0.155479
vt 0.027370 0.147374
vt 0.032395 0.147374
vt 0.020335 0.163583
vt 0.020335 0.155479
vt 0.020335 0.147374
vt 0.322042 0.614376
vt 0.807707 0.308082
s 1
f 6/1/1 1/2/1 3/3/1 7/4/2
f 7/5/3 3/6/4 480/7/4 8/8/3
f 8/9/5 480/10/5 5/11/5 9/12/5
f 9/13/6 5/14/7 1/15/8 6/16/6
f 2/17/9 479/18/9 4/19/9 532/20/9
f 1/15/8 5/14/7 607/21/7 606/22/10
f 12/23/10 9/13/6 6/16/6 13/24/10
f 11/25/11 8/9/5 9/12/5 12/26/11
f 10/27/12 7/5/3 8/8/3 11/28/12
f 13/29/13 6/1/1 7/4/2 10/30/13
f 532/31/14 13/29/13 10/30/13 2/32/14
f 2/33/12 10/27/12 11/28/12 479/34/12
f 479/35/15 11/25/15 12/26/15 4/36/15
f 4/37/16 12/23/16 13/24/16 532/38/16
f 481/39/17 14/40/17 606/41/17 607/42/17
f 480/7/18 3/6/12 14/43/12 481/44/19
f 607/21/7 5/14/7 16/45/10 18/46/10
f 3/3/1 1/2/1 606/47/1 14/48/1
f 16/49/5 15/50/5 17/51/5 18/52/5
f 5/53/20 480/54/20 15/55/20 16/56/20
f 481/39/17 607/42/17 18/57/17 17/58/17
f 480/7/18 481/44/19 17/59/3 15/60/3
f 35/61/5 29/62/5 20/63/5 22/64/5
f 22/65/6 20/66/6 71/67/6 76/68/6
f 76/69/1 71/70/1 33/71/1 23/72/1
f 23/73/12 33/74/12 29/75/12 35/76/12
f 68/77/20 21/78/20 32/79/20 19/80/20
f 38/81/12 23/73/12 35/76/12 37/82/12
f 24/83/1 76/69/1 23/72/1 38/84/1
f 79/85/6 22/65/6 76/68/6 24/86/6
f 37/87/21 35/61/5 22/64/5 79/88/21
f 19/89/22 37/87/21 79/88/21 68/90/22
f 68/91/6 79/85/6 24/86/6 21/92/6
f 21/93/23 24/83/23 38/84/23 32/94/23
f 32/95/12 38/81/12 37/82/12 19/96/12
f 83/97/17 80/98/17 42/99/17 43/100/17
f 71/67/6 20/66/6 80/101/6 83/102/6
f 20/63/5 29/62/5 42/103/5 80/104/5
f 45/105/1 25/106/1 26/107/1 47/108/1
f 33/109/20 71/110/20 25/111/20 45/112/20
f 83/97/17 43/100/17 47/113/17 26/114/17
f 71/67/6 83/102/6 26/115/6 25/116/6
f 34/117/5 28/118/5 29/62/5 35/61/5
f 23/72/1 33/71/1 31/119/1 36/120/1
f 51/121/24 52/122/25 64/123/12 154/124/4
f 19/80/20 32/79/20 30/125/20 27/126/20
f 28/118/5 34/117/5 49/127/5 50/128/5
f 67/129/1 66/130/1 45/105/1 47/108/1
f 38/84/1 23/72/1 36/120/1 39/131/1
f 40/132/5 34/117/5 35/61/5 37/87/5
f 27/133/5 40/132/5 37/87/5 19/89/5
f 32/94/26 38/84/26 39/131/26 30/134/26
f 44/135/17 41/136/17 58/137/17 57/138/17
f 43/100/17 42/99/17 41/136/17 44/135/17
f 33/139/6 29/140/6 42/141/6 43/142/6
f 48/143/17 44/135/17 57/138/17 60/144/17
f 29/62/5 28/118/5 41/145/5 42/103/5
f 31/146/20 33/109/20 45/112/20 46/147/20
f 43/100/17 44/135/17 48/143/17 47/113/17
f 33/139/6 43/142/6 47/148/6 45/149/6
f 56/150/3 54/151/4 50/152/12 49/153/12
f 50/152/12 54/151/4 57/154/12 58/155/12
f 51/121/24 56/150/3 49/153/12 55/156/12
f 52/122/25 51/121/24 55/156/12 53/157/12
f 57/154/12 54/151/4 59/158/12 60/159/12
f 31/160/17 54/161/17 61/162/17 62/163/17
f 34/117/5 40/132/5 55/164/5 49/127/5
f 62/165/20 46/166/20 66/167/20 157/168/20
f 41/145/5 28/118/5 50/128/5 58/169/5
f 40/132/5 27/133/5 53/170/5 55/164/5
f 27/126/20 30/125/20 52/171/20 53/172/20
f 152/173/27 62/174/28 61/175/28 65/176/27
f 62/174/29 156/177/30 63/178/1 61/175/1
f 155/179/1 152/173/27 65/176/27 154/180/1
f 150/181/31 155/179/31 154/180/31 64/182/31
f 52/171/20 30/125/20 150/183/20 64/184/20
f 54/151/4 56/150/3 65/185/32 61/186/33
f 36/187/34 31/188/6 62/189/6 152/190/34
f 39/191/6 36/187/34 152/190/34 155/192/6
f 30/193/35 39/191/36 155/192/35 150/194/35
f 60/159/12 59/158/12 61/186/12 63/195/12
f 48/143/17 60/144/17 63/196/17 156/197/17
f 56/150/3 51/121/24 154/124/4 65/185/32
f 66/198/37 67/199/37 159/200/37 157/201/37
f 48/143/17 156/197/17 159/202/17 67/203/17
f 156/177/30 62/174/29 157/204/27 159/205/27
f 22/64/5 20/63/5 70/206/5 74/207/5
f 74/208/6 70/209/6 73/210/6 75/211/6
f 75/212/1 73/213/1 71/70/1 76/69/1
f 69/214/20 72/215/20 21/78/20 68/77/20
f 78/216/1 75/212/1 76/69/1 24/83/1
f 77/217/6 74/208/6 75/211/6 78/218/6
f 79/88/21 22/64/5 74/207/5 77/219/21
f 68/90/22 79/88/21 77/219/21 69/220/22
f 69/221/6 77/217/6 78/218/6 72/222/6
f 72/223/38 78/216/38 24/83/38 21/93/38
f 82/224/17 81/225/17 80/98/17 83/97/17
f 73/210/6 70/209/6 81/226/6 82/227/6
f 70/206/5 20/63/5 80/104/5 81/228/5
f 25/106/1 84/229/1 85/230/1 26/107/1
f 71/110/20 73/231/20 84/232/20 25/111/20
f 82/224/17 83/97/17 26/114/17 85/233/17
f 73/210/6 82/227/6 85/234/6 84/235/6
f 74/207/5 70/206/5 87/236/5 128/237/5
f 128/238/16 87/239/39 123/240/39 124/241/16
f 124/242/1 123/243/1 73/213/1 75/212/1
f 86/244/20 122/245/20 72/215/20 69/214/20
f 89/246/28 124/242/1 75/212/1 78/216/28
f 88/247/6 128/238/16 124/241/16 89/248/6
f 77/219/40 74/207/5 128/237/5 88/249/41
f 69/220/42 77/219/40 88/249/41 86/250/42
f 86/251/6 88/247/6 89/248/6 122/252/6
f 122/253/43 89/246/44 78/216/43 72/223/44
f 126/254/17 125/255/17 81/225/17 82/224/17
f 123/240/34 87/239/6 125/256/6 126/257/8
f 87/236/5 70/206/5 81/228/5 125/258/5
f 84/229/28 90/259/28 131/260/28 85/230/28
f 73/231/20 123/261/20 90/262/20 84/232/20
f 126/254/17 82/224/17 85/233/17 131/263/17
f 123/240/34 126/257/8 131/264/16 90/265/16
f 96/266/6 92/267/6 133/268/6 97/269/6
f 97/270/1 133/271/1 95/272/1 98/273/1
f 98/274/12 95/275/12 94/276/12 99/277/12
f 112/278/45 113/279/46 127/280/47 88/249/48
f 132/281/20 136/282/20 93/283/20 91/284/20
f 92/267/6 96/266/6 110/285/6 111/286/6
f 130/287/12 129/288/12 106/289/12 108/290/12
f 142/291/12 98/274/12 99/277/12 101/292/12
f 100/293/1 97/270/1 98/273/1 142/294/1
f 102/295/6 96/266/6 97/269/6 100/296/6
f 91/297/6 102/295/6 100/296/6 132/298/6
f 136/299/49 142/291/49 101/292/49 93/300/49
f 105/301/17 103/302/17 119/303/17 118/304/17
f 104/305/17 143/306/17 103/302/17 105/301/17
f 95/272/1 133/271/1 143/307/1 104/308/1
f 109/309/17 105/301/17 118/304/17 121/310/17
f 133/268/6 92/267/6 103/311/6 143/312/6
f 94/313/20 95/314/20 106/315/20 107/316/20
f 104/305/17 105/301/17 109/309/17 108/317/17
f 95/272/1 104/308/1 108/318/1 106/319/1
f 117/320/50 115/321/48 111/322/5 110/323/5
f 111/322/5 115/321/48 118/324/5 119/325/5
f 112/278/45 117/320/50 110/323/5 116/326/5
f 113/279/46 112/278/45 116/326/5 114/327/5
f 118/324/5 115/321/48 120/328/51 121/329/5
f 94/330/17 115/331/17 87/332/17 123/333/17
f 96/266/6 102/295/6 116/334/6 110/285/6
f 123/261/20 107/335/20 129/336/20 90/262/20
f 103/311/6 92/267/6 111/286/6 119/337/6
f 102/295/6 91/297/6 114/338/6 116/334/6
f 91/284/20 93/283/20 113/339/20 114/340/20
f 122/341/52 89/342/52 88/343/52 127/344/52
f 113/339/20 93/283/20 122/345/20 127/346/20
f 115/321/48 117/320/50 128/237/5 87/236/5
f 99/347/53 94/348/1 123/243/1 124/242/30
f 101/349/1 99/347/53 124/242/30 89/246/1
f 93/350/54 101/349/55 89/246/54 122/253/56
f 121/329/5 120/328/51 87/236/57 125/258/57
f 109/309/17 121/310/17 125/255/17 126/254/17
f 117/320/50 112/278/45 88/249/48 128/237/5
f 129/351/1 130/352/1 131/260/1 90/259/1
f 109/309/17 126/254/17 131/263/17 130/353/17
f 97/269/6 133/268/34 135/354/6 139/355/6
f 139/356/30 135/357/58 138/358/1 140/359/30
f 140/360/59 138/361/12 95/275/12 98/274/59
f 134/362/60 137/363/60 136/282/60 132/281/60
f 174/364/61 140/360/59 98/274/59 142/291/61
f 141/365/62 139/356/30 140/359/30 174/366/62
f 100/296/63 97/269/6 139/355/6 141/367/63
f 132/298/64 100/296/63 141/367/63 134/368/64
f 134/369/1 141/365/1 174/366/1 137/370/1
f 137/371/65 174/364/66 142/291/65 136/299/67
f 136/372/5 142/373/5 100/374/5 132/375/5
f 261/376/17 262/377/17 143/306/17 104/305/17
f 138/358/1 135/357/58 262/378/53 261/379/1
f 135/354/6 133/268/34 143/312/6 262/380/6
f 106/289/61 144/381/61 145/382/61 108/290/61
f 95/314/20 138/383/20 144/384/20 106/315/20
f 261/376/17 104/305/17 108/317/17 145/385/17
f 138/358/1 261/379/1 145/386/1 144/387/1
f 151/388/12 146/389/12 61/186/12 65/185/68
f 152/190/6 62/189/6 149/390/6 153/391/6
f 153/392/1 149/393/30 146/394/53 151/395/1
f 147/396/69 150/397/69 148/398/69 311/399/69
f 146/394/53 149/393/30 388/400/70 387/401/30
f 315/402/29 153/392/1 151/395/1 310/403/29
f 155/192/6 152/190/6 153/391/6 315/404/6
f 310/405/71 151/388/12 65/185/68 154/124/71
f 311/406/72 310/405/71 154/124/71 147/407/72
f 147/408/5 154/409/5 155/410/5 150/411/5
f 150/194/73 155/192/73 315/404/73 148/412/73
f 148/413/27 315/402/27 310/403/27 311/414/27
f 156/197/17 63/196/17 387/415/17 388/416/17
f 388/400/70 149/393/30 158/417/30 391/418/30
f 61/186/12 146/389/12 387/419/12 63/195/12
f 158/420/74 157/201/74 159/200/74 391/421/74
f 149/422/20 62/165/20 157/168/20 158/423/20
f 156/197/17 388/416/17 391/424/17 159/202/17
s 0
f 253/425/6 168/426/6 439/427/6 241/428/6
f 209/429/6 164/430/6 172/431/6 211/432/6
f 210/433/1 162/434/1 183/435/1 213/436/1
f 164/430/6 171/437/6 141/438/6 172/431/6
f 215/439/6 161/440/6 195/441/6 217/442/6
f 242/443/27 432/444/27 207/445/27 244/446/27
f 256/447/6 249/448/6 134/449/6 246/450/6
f 212/451/5 176/452/5 173/453/5 211/454/5
f 174/455/75 177/456/75 172/457/75 141/458/75
f 245/459/75 174/455/75 141/458/75 246/460/75
f 249/461/20 251/462/76 175/463/20 134/464/76
f 225/465/20 163/466/20 182/467/20 233/468/20
f 177/456/57 174/455/57 189/469/57 188/470/57
f 178/471/6 181/472/6 262/473/6 260/474/6
f 232/475/6 231/476/6 275/477/6 274/478/6
f 160/479/6 173/480/6 181/472/6 178/471/6
f 221/481/6 160/479/6 178/471/6 229/482/6
f 173/453/5 176/452/5 180/483/5 181/484/5
f 252/485/20 194/486/20 202/487/20 201/488/20
f 233/489/12 182/490/12 190/491/12 237/492/12
f 213/493/12 183/494/12 187/495/12 214/496/12
f 186/497/12 185/498/12 188/499/12 189/500/12
f 187/495/12 183/494/12 184/501/12 191/502/12
f 170/503/1 167/504/1 185/505/1 186/506/1
f 184/501/12 240/507/12 266/508/12 265/509/12
f 212/451/5 177/456/5 188/470/5 214/510/5
f 199/511/6 179/512/6 268/513/6 437/514/6
f 180/483/5 176/452/5 187/515/5 191/516/5
f 247/517/77 186/497/77 189/500/77 248/518/77
f 255/519/1 170/503/1 186/506/1 247/520/1
f 245/459/5 175/521/5 193/522/5 248/523/5
f 175/463/20 251/462/20 192/524/20 193/525/20
f 217/526/1 195/527/1 196/528/1 218/529/1
f 439/530/30 197/531/30 198/532/30 432/444/30
f 241/533/53 439/530/53 432/444/53 242/443/53
f 196/528/1 195/527/1 199/534/1 200/535/1
f 168/426/6 165/536/6 197/537/6 439/427/6
f 161/440/6 179/512/6 199/511/6 195/441/6
f 252/485/78 250/538/78 440/539/78 194/486/78
f 237/492/12 190/491/12 263/540/12 264/541/12
f 200/535/1 199/534/1 437/542/1 438/543/1
f 243/544/79 201/545/79 202/546/79 244/547/79
f 190/491/12 182/490/12 206/548/12 205/549/12
f 219/550/12 204/551/12 208/552/12 220/553/12
f 204/551/12 203/554/12 207/555/12 208/552/12
f 254/556/5 252/557/5 201/558/5 243/559/5
f 196/528/1 200/535/1 205/560/1 206/561/1
f 432/444/1 198/532/1 208/562/1 207/445/1
f 216/563/5 166/564/5 204/565/5 219/566/5
f 166/564/5 169/567/5 203/568/5 204/565/5
f 218/529/1 196/528/1 206/561/1 220/569/1
f 224/570/20 161/571/20 163/466/20 225/465/20
f 215/572/5 216/563/5 163/573/5 161/574/5
f 168/575/5 169/567/5 166/564/5 165/576/5
f 253/577/5 254/556/5 169/567/5 168/575/5
f 209/578/1 160/579/1 162/434/1 210/433/1
f 171/580/1 164/581/1 167/504/1 170/503/1
f 164/581/1 209/578/1 210/433/1 167/504/1
f 176/452/5 212/451/5 214/510/5 187/515/5
f 185/498/12 213/493/12 214/496/12 188/499/12
f 177/456/5 212/451/5 211/454/5 172/457/5
f 167/504/1 210/433/1 213/436/1 185/505/1
f 160/479/6 209/429/6 211/432/6 173/480/6
f 165/576/5 166/564/5 216/563/5 215/572/5
f 198/532/1 218/529/1 220/569/1 208/562/1
f 163/573/5 216/563/5 219/566/5 182/582/5
f 182/490/12 219/550/12 220/553/12 206/548/12
f 197/531/1 217/526/1 218/529/1 198/532/1
f 165/536/6 215/439/6 217/442/6 197/537/6
f 160/583/20 221/584/20 228/585/20 162/586/20
f 221/584/20 222/587/20 227/588/20 228/585/20
f 222/587/20 223/589/20 226/590/20 227/588/20
f 223/589/20 224/570/20 225/465/20 226/590/20
f 238/591/12 237/492/12 264/541/12 271/592/12
f 190/491/12 205/549/12 445/593/12 263/540/12
f 179/512/6 232/475/6 274/478/6 268/513/6
f 229/482/6 178/471/6 260/474/6 259/594/6
f 183/494/12 236/595/12 240/507/12 184/501/12
f 236/595/12 235/596/12 239/597/12 240/507/12
f 235/596/12 234/598/12 238/591/12 239/597/12
f 234/598/12 233/489/12 237/492/12 238/591/12
f 161/440/6 224/599/6 232/475/6 179/512/6
f 224/599/6 223/600/6 231/476/6 232/475/6
f 223/600/6 222/601/6 230/602/6 231/476/6
f 222/601/6 221/481/6 229/482/6 230/602/6
f 240/507/12 239/597/12 273/603/12 266/508/12
f 205/560/1 200/535/1 438/543/1 445/604/1
f 180/483/80 191/516/80 145/605/80 261/606/80
f 230/602/6 229/482/6 259/594/6 276/607/6
f 162/586/20 228/585/20 236/608/20 183/609/20
f 228/585/20 227/588/20 235/610/20 236/608/20
f 227/588/20 226/590/20 234/611/20 235/610/20
f 226/590/20 225/465/20 233/468/20 234/611/20
f 169/567/5 254/556/5 243/559/5 203/568/5
f 203/554/77 243/544/77 244/547/77 207/555/77
f 440/612/81 241/533/81 242/443/81 194/613/81
f 194/613/1 242/443/1 244/446/1 202/614/1
f 250/615/6 253/425/6 241/428/6 440/616/6
f 170/503/1 255/519/1 256/617/1 171/580/1
f 174/455/82 245/459/82 248/523/82 189/469/82
f 251/618/1 255/519/1 247/520/1 192/619/1
f 192/620/79 247/517/79 248/518/79 193/621/79
f 175/521/5 245/459/5 246/460/5 134/622/5
f 171/437/6 256/447/6 246/450/6 141/438/6
f 255/519/1 251/618/1 249/623/1 256/617/1
f 250/624/5 252/557/5 254/556/5 253/577/5
f 258/625/17 259/626/17 260/627/17 257/628/17
f 257/628/17 260/627/17 262/377/17 261/376/17
f 258/625/17 257/628/17 265/629/17 266/630/17
f 257/628/83 261/376/83 145/385/83 265/629/83
f 438/631/17 267/632/17 263/633/17 445/634/17
f 268/635/84 267/632/84 438/631/84 437/636/84
f 267/632/17 269/637/17 264/638/17 263/633/17
f 269/637/17 270/639/17 271/640/17 264/638/17
f 270/639/17 272/641/17 273/642/17 271/640/17
f 272/641/17 258/625/17 266/630/17 273/642/17
f 267/632/17 268/635/17 274/643/17 269/637/17
f 269/637/17 274/643/17 275/644/17 270/639/17
f 270/639/17 275/644/17 276/645/17 272/641/17
f 272/641/17 276/645/17 259/626/17 258/625/17
f 191/502/12 184/501/12 265/509/12 145/646/12
f 181/484/80 180/483/80 261/606/80 262/647/80
f 239/597/12 238/591/12 271/592/12 273/603/12
f 231/476/6 230/602/6 276/607/6 275/477/6
f 372/648/12 285/649/12 310/650/12 360/651/12
f 328/652/12 281/653/12 289/654/12 330/655/12
f 329/656/5 279/657/5 299/658/5 332/659/5
f 281/653/12 288/660/12 458/661/12 289/654/12
f 334/662/12 278/663/12 313/664/12 336/665/12
f 361/666/45 315/667/45 326/668/45 363/669/45
f 375/670/12 368/671/12 448/672/12 365/673/12
f 331/674/1 292/675/1 290/676/1 330/677/1
f 459/678/85 293/679/85 289/680/85 458/681/85
f 364/682/53 459/678/53 458/681/53 365/683/53
f 368/684/20 370/685/20 291/686/20 448/687/20
f 344/688/20 280/689/20 298/690/20 352/691/20
f 293/679/1 459/678/1 305/692/1 304/693/1
f 294/694/12 297/695/12 381/696/12 379/697/12
f 351/698/12 350/699/12 398/700/12 397/701/12
f 277/702/12 290/703/12 297/695/12 294/694/12
f 340/704/12 277/702/12 294/694/12 348/705/12
f 290/676/1 292/675/1 296/706/1 297/707/1
f 371/708/20 312/709/20 321/710/20 320/711/20
f 352/712/6 298/713/6 306/714/6 356/715/6
f 332/716/6 299/717/6 303/718/6 333/719/6
f 302/720/6 301/721/6 304/722/6 305/723/6
f 303/718/6 299/717/6 300/724/6 307/725/6
f 287/726/5 284/727/5 301/728/5 302/729/5
f 300/724/6 359/730/6 386/731/6 384/732/6
f 331/674/1 293/679/1 304/693/1 333/733/1
f 318/734/12 295/735/12 390/736/12 387/737/12
f 296/706/1 292/675/1 303/738/1 307/739/1
f 366/740/86 302/720/86 305/723/86 367/741/86
f 374/742/5 287/726/5 302/729/5 366/743/5
f 364/682/1 291/744/1 309/745/1 367/746/1
f 291/686/20 370/685/20 308/747/20 309/748/20
f 336/749/5 313/750/5 314/751/5 337/752/5
f 310/753/80 316/754/80 317/755/80 315/667/80
f 360/756/80 310/753/80 315/667/80 361/666/80
f 314/751/5 313/750/5 318/757/5 319/758/5
f 285/649/12 282/759/12 316/760/12 310/650/12
f 278/663/12 295/735/12 318/734/12 313/664/12
f 371/708/20 369/761/20 311/762/20 312/709/20
f 356/715/6 306/714/6 382/763/6 383/764/6
f 319/758/87 318/757/87 387/765/87 388/766/87
f 362/767/88 320/768/88 321/769/88 363/770/88
f 306/714/6 298/713/6 325/771/6 324/772/6
f 338/773/6 323/774/6 327/775/6 339/776/6
f 323/774/6 322/777/6 326/778/6 327/775/6
f 373/779/1 371/780/1 320/781/1 362/782/1
f 314/751/5 319/758/5 324/783/5 325/784/5
f 315/667/89 317/755/89 327/785/89 326/668/89
f 335/786/1 283/787/1 323/788/1 338/789/1
f 283/787/1 286/790/1 322/791/1 323/788/1
f 337/752/5 314/751/5 325/784/5 339/792/5
f 343/793/20 278/794/20 280/689/20 344/688/20
f 334/795/1 335/786/1 280/796/1 278/797/1
f 285/798/1 286/790/1 283/787/1 282/799/1
f 372/800/1 373/779/1 286/790/1 285/798/1
f 328/801/5 277/802/5 279/657/5 329/656/5
f 288/803/5 281/804/5 284/727/5 287/726/5
f 281/804/5 328/801/5 329/656/5 284/727/5
f 292/675/1 331/674/1 333/733/1 303/738/1
f 301/721/6 332/716/6 333/719/6 304/722/6
f 293/679/1 331/674/1 330/677/1 289/680/1
f 284/727/5 329/656/5 332/659/5 301/728/5
f 277/702/12 328/652/12 330/655/12 290/703/12
f 282/799/1 283/787/1 335/786/1 334/795/1
f 317/755/5 337/752/5 339/792/5 327/785/5
f 280/796/1 335/786/1 338/789/1 298/805/1
f 298/713/6 338/773/6 339/776/6 325/771/6
f 316/754/5 336/749/5 337/752/5 317/755/5
f 282/759/12 334/662/12 336/665/12 316/760/12
f 277/806/20 340/807/20 347/808/20 279/809/20
f 340/807/20 341/810/20 346/811/20 347/808/20
f 341/810/20 342/812/20 345/813/20 346/811/20
f 342/812/20 343/793/20 344/688/20 345/813/20
f 357/814/6 356/715/6 383/764/6 394/815/6
f 306/714/6 324/772/6 391/816/6 382/763/6
f 295/735/12 351/698/12 397/701/12 390/736/12
f 348/705/12 294/694/12 379/697/12 378/817/12
f 299/717/6 355/818/6 359/730/6 300/724/6
f 355/818/6 354/819/6 358/820/6 359/730/6
f 354/819/6 353/821/6 357/814/6 358/820/6
f 353/821/6 352/712/6 356/715/6 357/814/6
f 278/663/12 343/822/12 351/698/12 295/735/12
f 343/822/12 342/823/12 350/699/12 351/698/12
f 342/823/12 341/824/12 349/825/12 350/699/12
f 341/824/12 340/704/12 348/705/12 349/825/12
f 359/730/6 358/820/6 396/826/6 386/731/6
f 324/783/87 319/758/87 388/766/87 391/827/87
f 296/706/53 307/739/53 385/828/53 380/829/53
f 349/825/12 348/705/12 378/817/12 399/830/12
f 279/809/20 347/808/20 355/831/20 299/832/20
f 347/808/20 346/811/20 354/833/20 355/831/20
f 346/811/20 345/813/20 353/834/20 354/833/20
f 345/813/20 344/688/20 352/691/20 353/834/20
f 286/790/1 373/779/1 362/782/1 322/791/1
f 322/777/86 362/767/86 363/770/86 326/778/86
f 311/835/82 360/756/82 361/666/82 312/836/82
f 312/836/5 361/666/5 363/669/5 321/837/5
f 369/838/12 372/648/12 360/651/12 311/839/12
f 287/726/5 374/742/5 375/840/5 288/803/5
f 459/678/28 364/682/28 367/746/28 305/692/28
f 370/841/5 374/742/5 366/743/5 308/842/5
f 308/843/88 366/740/88 367/741/88 309/844/88
f 291/744/90 364/682/90 365/683/90 448/845/90
f 288/660/12 375/670/12 365/673/12 458/661/12
f 374/742/5 370/841/5 368/846/5 375/840/5
f 369/847/1 371/780/1 373/779/1 372/800/1
f 377/848/17 378/849/17 379/850/17 376/851/17
f 376/851/17 379/850/17 381/852/17 380/853/17
f 377/848/17 376/851/17 384/854/17 386/855/17
f 376/851/17 380/853/17 385/856/17 384/854/17
f 388/416/17 389/857/17 382/858/17 391/424/17
f 390/859/91 389/857/91 388/416/91 387/415/91
f 389/857/17 392/860/17 383/861/17 382/858/17
f 392/860/17 393/862/17 394/863/17 383/861/17
f 393/862/17 395/864/17 396/865/17 394/863/17
f 395/864/17 377/848/17 386/855/17 396/865/17
f 389/857/17 390/859/17 397/866/17 392/860/17
f 392/860/17 397/866/17 398/867/17 393/862/17
f 393/862/17 398/867/17 399/868/17 395/864/17
f 395/864/17 399/868/17 378/849/17 377/848/17
f 307/725/6 300/724/6 384/732/6 385/869/6
f 297/707/29 296/706/29 380/829/29 381/870/29
f 358/820/6 357/814/6 394/815/6 396/826/6
f 350/699/12 349/825/12 399/830/12 398/700/12
s 1
f 407/871/1 401/872/1 485/873/1 408/874/1
f 408/875/12 485/876/12 406/877/12 409/878/12
f 409/879/5 406/880/5 404/881/5 410/882/5
f 422/883/6 423/884/6 440/885/6 439/886/39
f 402/887/20 405/888/20 403/889/92 400/890/20
f 401/872/1 407/871/1 420/891/1 421/892/1
f 443/893/5 442/894/5 417/895/5 497/896/5
f 493/897/5 409/879/5 410/882/5 412/898/5
f 411/899/12 408/875/12 409/878/12 493/900/12
f 413/901/1 407/871/1 408/874/1 411/902/1
f 400/903/1 413/901/1 411/902/1 402/904/1
f 402/905/12 411/899/12 493/900/12 405/906/12
f 405/907/93 493/897/93 412/898/93 403/908/93
f 416/909/17 414/910/17 429/911/17 428/912/17
f 415/913/17 494/914/17 414/910/17 416/909/17
f 406/877/12 485/876/12 494/915/12 415/916/12
f 419/917/17 416/909/17 428/912/17 431/918/17
f 485/873/1 401/872/1 414/919/1 494/920/1
f 404/921/20 406/922/20 417/923/20 418/924/20
f 415/913/17 416/909/17 419/917/17 497/925/17
f 406/877/12 415/916/12 497/926/12 417/927/12
f 427/928/34 425/929/6 421/930/6 420/931/6
f 421/930/6 425/929/6 428/932/6 429/933/6
f 422/883/6 427/928/34 420/931/6 426/934/6
f 423/884/6 422/883/6 426/934/6 424/935/6
f 428/932/6 425/929/6 430/936/6 431/937/6
f 404/938/17 425/939/17 434/940/17 435/941/17
f 407/871/1 413/901/1 426/942/1 420/891/1
f 435/943/20 418/944/20 442/945/20 444/946/20
f 414/919/1 401/872/1 421/892/1 429/947/1
f 413/901/1 400/903/1 424/948/1 426/942/1
f 400/890/20 403/889/92 423/949/94 424/950/20
f 436/951/75 435/952/5 434/953/5 441/954/95
f 435/952/75 438/955/75 437/956/75 434/953/75
f 432/957/87 436/951/75 441/954/95 439/958/87
f 433/959/11 432/957/11 439/958/11 440/960/11
f 423/949/94 403/889/92 433/961/20 440/962/20
f 425/929/6 427/928/34 441/963/74 434/964/6
f 410/965/61 404/966/12 435/967/12 436/968/12
f 412/969/96 410/965/61 436/968/12 432/970/96
f 403/971/97 412/969/97 432/970/97 433/972/97
f 431/937/6 430/936/6 434/964/6 437/973/6
f 419/917/17 431/918/17 437/636/17 438/631/17
f 427/928/34 422/883/6 439/886/39 441/963/74
f 442/974/12 443/975/61 445/976/12 444/977/61
f 419/917/17 438/631/17 445/634/17 443/978/17
f 438/955/5 435/952/5 444/979/5 445/980/5
f 454/981/12 447/982/18 449/983/12 455/984/12
f 455/985/87 449/986/5 453/987/5 456/988/87
f 456/989/74 453/990/6 451/991/6 457/992/98
f 469/993/90 470/994/99 482/995/100 10/30/28
f 448/996/20 452/997/20 450/998/20 446/999/94
f 447/982/18 454/981/12 467/1000/12 468/1001/12
f 484/1002/101 483/1003/101 464/1004/101 385/1005/101
f 459/1006/34 456/989/74 457/992/98 460/1007/34
f 458/1008/95 455/985/87 456/988/87 459/1009/95
f 461/1010/12 454/981/12 455/984/12 458/1011/4
f 446/1012/12 461/1010/12 458/1011/4 448/1013/4
f 448/1014/102 458/1008/102 459/1009/102 452/1015/102
f 452/1016/36 459/1006/103 460/1007/36 450/1017/103
f 463/1018/17 462/1019/17 476/1020/17 475/1021/17
f 380/853/17 381/852/17 462/1019/17 463/1018/17
f 453/987/5 449/986/5 381/1022/75 380/1023/5
f 466/1024/17 463/1018/17 475/1021/17 478/1025/17
f 449/983/12 447/982/18 462/1026/12 381/1027/12
f 451/1028/20 453/1029/20 464/1030/20 465/1031/20
f 380/853/17 463/1018/17 466/1024/17 385/856/17
f 453/987/5 380/1023/5 385/1032/5 464/1033/5
f 474/1034/104 472/1035/28 468/1036/1 467/1037/1
f 468/1036/1 472/1035/28 475/1038/1 476/1039/1
f 469/993/90 474/1034/104 467/1037/1 473/1040/1
f 470/994/99 469/993/90 473/1040/1 471/1041/1
f 475/1038/1 472/1035/28 477/1042/1 478/1043/1
f 451/1044/17 472/1045/17 3/1046/17 480/1047/17
f 454/981/12 461/1010/12 473/1048/12 467/1000/12
f 480/54/20 465/1049/20 483/1050/20 15/55/20
f 462/1026/12 447/982/18 468/1001/12 476/1051/12
f 461/1010/12 446/1012/12 471/1052/12 473/1048/12
f 446/999/94 450/998/20 470/1053/20 471/1054/20
f 479/1055/105 11/1056/105 10/1057/105 482/1058/105
f 470/1053/20 450/998/20 479/1059/20 482/1060/20
f 472/1035/28 474/1034/104 7/4/1 3/3/106
f 457/1061/75 451/1062/5 480/10/5 8/9/87
f 460/1063/5 457/1061/75 8/9/87 11/25/5
f 450/1064/107 460/1063/107 11/25/107 479/35/108
f 478/1043/1 477/1042/1 3/3/1 14/48/1
f 466/1024/17 478/1025/17 14/40/17 481/39/17
f 474/1034/104 469/993/90 10/30/28 7/4/1
f 483/1065/5 484/1066/5 17/51/5 15/50/5
f 466/1024/17 481/39/17 17/58/17 484/1067/17
f 408/874/109 485/873/53 486/1068/1 489/1069/109
f 489/1070/110 486/1071/19 488/1072/12 490/1073/110
f 490/1074/111 488/1075/5 406/880/5 409/879/111
f 513/1076/9 487/1077/9 405/888/9 402/887/9
f 492/1078/80 490/1074/111 409/879/111 493/897/80
f 491/1079/12 489/1070/110 490/1073/110 492/1080/12
f 411/902/13 408/874/109 489/1069/109 491/1081/13
f 402/904/14 411/902/13 491/1081/13 513/1082/14
f 513/1083/52 491/1079/52 492/1080/52 487/1084/52
f 487/1085/112 492/1078/15 493/897/112 405/907/15
f 600/1086/17 601/1087/17 494/914/17 415/913/17
f 488/1072/12 486/1071/19 601/1088/18 600/1089/12
f 486/1068/1 485/873/53 494/920/1 601/1090/1
f 417/895/80 495/1091/80 496/1092/80 497/896/80
f 406/922/20 488/1093/20 495/1094/20 417/923/20
f 600/1086/17 415/913/17 497/925/17 496/1095/17
f 488/1072/12 600/1089/12 496/1096/12 495/1097/12
s 0
f 592/1098/1 506/1099/1 13/1100/1 580/1101/1
f 548/1102/1 502/1103/1 510/1104/1 550/1105/1
f 549/1106/12 500/1107/12 521/1108/12 552/1109/12
f 502/1103/1 509/1110/1 491/1111/1 510/1104/1
f 554/1112/1 499/1113/1 534/1114/1 556/1115/1
f 581/1116/24 12/1117/24 546/1118/24 583/1119/24
f 595/1120/1 588/1121/1 513/1122/1 585/1123/1
f 551/1124/6 514/1125/6 511/1126/6 550/1127/6
f 492/1128/113 515/1129/113 510/1130/113 491/1131/113
f 584/1132/34 492/1128/34 491/1131/34 585/1133/34
f 588/1134/20 590/1135/20 512/1136/20 513/1137/20
f 564/1138/20 501/1139/20 520/1140/20 572/1141/20
f 515/1129/16 492/1128/16 527/1142/16 526/1143/16
f 516/1144/1 519/1145/1 601/1146/1 599/1147/1
f 571/1148/1 570/1149/1 616/1150/1 615/1151/1
f 498/1152/1 511/1153/1 519/1145/1 516/1144/1
f 560/1154/1 498/1152/1 516/1144/1 568/1155/1
f 511/1126/6 514/1125/6 518/1156/6 519/1157/6
f 591/1158/20 533/1159/20 541/1160/20 540/1161/20
f 572/1162/5 520/1163/5 528/1164/5 576/1165/5
f 552/1166/5 521/1167/5 525/1168/5 553/1169/5
f 524/1170/5 523/1171/5 526/1172/5 527/1173/5
f 525/1168/5 521/1167/5 522/1174/5 529/1175/5
f 508/1176/12 505/1177/12 523/1178/12 524/1179/12
f 522/1174/5 579/1180/5 605/1181/5 604/1182/5
f 551/1124/6 515/1129/6 526/1143/6 553/1183/6
f 538/1184/1 517/1185/1 609/1186/1 606/1187/1
f 518/1156/6 514/1125/6 525/1188/6 529/1189/6
f 586/1190/114 524/1170/114 527/1173/114 587/1191/114
f 594/1192/12 508/1176/12 524/1179/12 586/1193/12
f 584/1132/6 512/1194/6 531/1195/6 587/1196/6
f 512/1136/20 590/1135/20 530/1197/20 531/1198/20
f 556/1199/12 534/1200/12 535/1201/12 557/1202/12
f 13/1203/61 536/1204/61 537/1205/61 12/1117/61
f 580/1206/61 13/1203/61 12/1117/61 581/1116/61
f 535/1201/12 534/1200/12 538/1207/12 539/1208/12
f 506/1099/1 503/1209/1 536/1210/1 13/1100/1
f 499/1113/1 517/1185/1 538/1184/1 534/1114/1
f 591/1158/20 589/1211/20 532/1212/20 533/1159/20
f 576/1165/5 528/1164/5 602/1213/5 603/1214/5
f 539/1208/110 538/1207/110 606/1215/110 607/1216/110
f 582/1217/115 540/1218/115 541/1219/115 583/1220/115
f 528/1164/5 520/1163/5 545/1221/5 544/1222/5
f 558/1223/5 543/1224/5 547/1225/5 559/1226/5
f 543/1224/5 542/1227/5 546/1228/5 547/1225/5
f 593/1229/6 591/1230/6 540/1231/6 582/1232/6
f 535/1201/12 539/1208/12 544/1233/12 545/1234/12
f 12/1117/32 537/1205/32 547/1235/32 546/1118/32
f 555/1236/6 504/1237/6 543/1238/6 558/1239/6
f 504/1237/6 507/1240/6 542/1241/6 543/1238/6
f 557/1202/12 535/1201/12 545/1234/12 559/1242/12
f 563/1243/20 499/1244/20 501/1139/20 564/1138/20
f 554/1245/6 555/1236/6 501/1246/6 499/1247/6
f 506/1248/6 507/1240/6 504/1237/6 503/1249/6
f 592/1250/6 593/1229/6 507/1240/6 506/1248/6
f 548/1251/12 498/1252/12 500/1107/12 549/1106/12
f 509/1253/12 502/1254/12 505/1177/12 508/1176/12
f 502/1254/12 548/1251/12 549/1106/12 505/1177/12
f 514/1125/6 551/1124/6 553/1183/6 525/1188/6
f 523/1171/5 552/1166/5 553/1169/5 526/1172/5
f 515/1129/6 551/1124/6 550/1127/6 510/1130/6
f 505/1177/12 549/1106/12 552/1109/12 523/1178/12
f 498/1152/1 548/1102/1 550/1105/1 511/1153/1
f 503/1249/6 504/1237/6 555/1236/6 554/1245/6
f 537/1205/12 557/1202/12 559/1242/12 547/1235/12
f 501/1246/6 555/1236/6 558/1239/6 520/1255/6
f 520/1163/5 558/1223/5 559/1226/5 545/1221/5
f 536/1204/12 556/1199/12 557/1202/12 537/1205/12
f 503/1209/1 554/1112/1 556/1115/1 536/1210/1
f 498/1256/20 560/1257/20 567/1258/20 500/1259/20
f 560/1257/20 561/1260/20 566/1261/20 567/1258/20
f 561/1260/20 562/1262/20 565/1263/20 566/1261/20
f 562/1262/20 563/1243/20 564/1138/20 565/1263/20
f 577/1264/5 576/1165/5 603/1214/5 612/1265/5
f 528/1164/5 544/1222/5 18/1266/5 602/1213/5
f 517/1185/1 571/1148/1 615/1151/1 609/1186/1
f 568/1155/1 516/1144/1 599/1147/1 598/1267/1
f 521/1167/5 575/1268/5 579/1180/5 522/1174/5
f 575/1268/5 574/1269/5 578/1270/5 579/1180/5
f 574/1269/5 573/1271/5 577/1264/5 578/1270/5
f 573/1271/5 572/1162/5 576/1165/5 577/1264/5
f 499/1113/1 563/1272/1 571/1148/1 517/1185/1
f 563/1272/1 562/1273/1 570/1149/1 571/1148/1
f 562/1273/1 561/1274/1 569/1275/1 570/1149/1
f 561/1274/1 560/1154/1 568/1155/1 569/1275/1
f 579/1180/5 578/1270/5 614/1276/5 605/1181/5
f 544/1233/110 539/1208/110 607/1216/110 18/1277/110
f 518/1156/34 529/1189/34 496/1278/34 600/1279/34
f 569/1275/1 568/1155/1 598/1267/1 617/1280/1
f 500/1259/20 567/1258/20 575/1281/20 521/1282/20
f 567/1258/20 566/1261/20 574/1283/20 575/1281/20
f 566/1261/20 565/1263/20 573/1284/20 574/1283/20
f 565/1263/20 564/1138/20 572/1141/20 573/1284/20
f 507/1240/6 593/1229/6 582/1232/6 542/1241/6
f 542/1227/114 582/1217/114 583/1220/114 546/1228/114
f 532/1285/116 580/1206/116 581/1116/116 533/1286/116
f 533/1286/12 581/1116/12 583/1119/12 541/1287/12
f 589/1288/1 592/1098/1 580/1101/1 532/1289/1
f 508/1176/12 594/1192/12 595/1290/12 509/1253/12
f 492/1128/16 584/1132/16 587/1196/16 527/1142/16
f 590/1291/12 594/1192/12 586/1193/12 530/1292/12
f 530/1293/115 586/1190/115 587/1191/115 531/1294/115
f 512/1194/117 584/1132/117 585/1133/117 513/1295/117
f 509/1110/1 595/1120/1 585/1123/1 491/1111/1
f 594/1192/12 590/1291/12 588/1296/12 595/1290/12
f 589/1297/6 591/1230/6 593/1229/6 592/1250/6
f 597/1298/17 598/1299/17 599/1300/17 596/1301/17
f 596/1301/118 599/1300/118 601/1087/118 600/1086/118
f 597/1298/17 596/1301/17 604/1302/17 605/1303/17
f 596/1301/118 600/1086/118 496/1095/118 604/1302/118
f 607/42/17 608/1304/17 602/1305/17 18/57/17
f 609/1306/17 608/1304/17 607/42/17 606/41/17
f 608/1304/17 610/1307/17 603/1308/17 602/1305/17
f 610/1307/17 611/1309/17 612/1310/17 603/1308/17
f 611/1309/17 613/1311/17 614/1312/17 612/1310/17
f 613/1311/17 597/1298/17 605/1303/17 614/1312/17
f 608/1304/17 609/1306/17 615/1313/17 610/1307/17
f 610/1307/17 615/1313/17 616/1314/17 611/1309/17
f 611/1309/17 616/1314/17 617/1315/17 613/1311/17
f 613/1311/17 617/1315/17 598/1299/17 597/1298/17
f 529/1175/5 522/1174/5 604/1182/5 496/1316/5
f 519/1157/10 518/1156/10 600/1279/10 601/1317/10
f 578/1270/5 577/1264/5 612/1265/5 614/1276/5
f 570/1149/1 569/1275/1 617/1280/1 616/1150/1
