# Blender 5.1.2
# www.blender.org
mtllib Pipe.mtl
o Cylinder.006
v -2.470278 2.117380 1.065502
v -2.470278 1.411587 1.065502
v -2.646726 2.117380 1.112780
v -2.646726 1.411587 1.112780
v -2.775895 2.117380 1.241950
v -2.775895 1.411587 1.241950
v -2.823174 2.117380 1.418398
v -2.823174 1.411587 1.418398
v -2.775895 2.117380 1.594847
v -2.775895 1.411587 1.594847
v -2.646726 2.117380 1.724017
v -2.646726 1.411587 1.724017
v -2.470278 2.117380 1.771295
v -2.470278 1.411587 1.771295
v -2.293829 2.117380 1.724017
v -2.293829 1.411587 1.724017
v -2.164660 2.117380 1.594847
v -2.164660 1.411587 1.594847
v -2.117381 2.117380 1.418398
v -2.117381 1.411587 1.418398
v -2.164660 2.117380 1.241950
v -2.164660 1.411587 1.241950
v -2.293829 2.117380 1.112780
v -2.293829 1.411587 1.112780
v -2.470278 -0.000000 1.065501
v -2.646726 -0.000000 1.112780
v -2.775895 -0.000000 1.241950
v -2.823174 -0.000000 1.418398
v -2.775895 -0.000000 1.594846
v -2.646726 -0.000000 1.724017
v -2.470278 -0.000000 1.771295
v -2.293829 -0.000000 1.724017
v -2.164660 -0.000000 1.594846
v -2.117381 -0.000000 1.418398
v -2.164660 -0.000000 1.241950
v -2.293829 -0.000000 1.112780
v -2.470278 2.823174 1.065502
v -2.646726 2.823174 1.112780
v -2.775895 2.823174 1.241950
v -2.823174 2.823174 1.418398
v -2.775895 2.823174 1.594847
v -2.646726 2.823174 1.724017
v -2.470278 2.823174 1.771295
v -2.293829 2.823174 1.724017
v -2.164660 2.823174 1.594847
v -2.117381 2.823174 1.418398
v -2.164660 2.823174 1.241950
v -2.293829 2.823174 1.112780
v -2.470278 3.528967 1.065502
v -2.646726 3.528967 1.112780
v -2.775895 3.528967 1.241950
v -2.823174 3.528967 1.418398
v -2.775895 3.528967 1.594847
v -2.646726 3.528967 1.724017
v -2.470278 3.528967 1.771295
v -2.293829 3.528967 1.724017
v -2.164660 3.528967 1.594847
v -2.117381 3.528967 1.418399
v -2.164660 3.528967 1.241950
v -2.293829 3.528967 1.112780
v -2.823175 -0.000000 7.064746
v -2.646727 -0.305618 7.064746
v -2.470279 -0.352897 7.064746
v -2.164661 0.176448 7.064746
v -2.470279 0.352897 7.064746
v -2.470278 0.352897 6.358953
v -2.646727 0.305617 7.064746
v -2.646727 0.305617 6.358953
v -2.775896 0.176448 7.064746
v -2.775896 0.176448 6.358953
v -2.823175 -0.000000 6.358953
v -2.775896 -0.176448 7.064746
v -2.775896 -0.176449 6.358953
v -2.646727 -0.305618 6.358953
v -2.470278 -0.352897 6.358953
v -2.293830 -0.305618 7.064746
v -2.293830 -0.305618 6.358953
v -2.164661 -0.176448 7.064746
v -2.164661 -0.176449 6.358953
v -2.117382 -0.000000 7.064746
v -2.117382 -0.000000 6.358953
v -2.164661 0.176448 6.358953
v -2.293830 0.305617 7.064746
v -2.293830 0.305617 6.358953
v -2.470278 0.352897 4.947366
v -2.646727 0.305617 4.947366
v -2.775896 0.176448 4.947366
v -2.823175 -0.000000 4.947366
v -2.775896 -0.176448 4.947366
v -2.470278 -0.352897 4.947366
v -2.164661 -0.176448 4.947366
v -2.117381 -0.000000 4.947366
v -2.164661 0.176448 4.947366
v -2.293830 0.305617 4.947366
v -2.470278 2.117380 5.300262
v -2.470278 1.411587 5.300262
v -2.646727 2.117380 5.347541
v -2.646727 1.411587 5.347541
v -2.775896 2.117380 5.476711
v -2.775896 1.411587 5.476711
v -2.823175 2.117380 5.653160
v -2.823175 1.411587 5.653159
v -2.775896 2.117380 5.829608
v -2.775896 1.411587 5.829608
v -2.646727 2.117380 5.958778
v -2.646727 1.411587 5.958777
v -2.470278 2.117380 6.006056
v -2.470278 1.411587 6.006056
v -2.293830 2.117380 5.958778
v -2.293830 1.411587 5.958777
v -2.164661 2.117380 5.829608
v -2.164661 1.411587 5.829608
v -2.117382 2.117380 5.653160
v -2.117382 1.411587 5.653159
v -2.164661 2.117380 5.476711
v -2.164661 1.411587 5.476711
v -2.293830 2.117380 5.347541
v -2.293830 1.411587 5.347541
v -2.470278 -0.000000 5.300262
v -2.646727 -0.000000 5.347541
v -2.775896 -0.000000 5.476710
v -2.823175 -0.000000 5.653159
v -2.775896 -0.000000 5.829607
v -2.646727 -0.000000 5.958777
v -2.470278 -0.000000 6.006056
v -2.293830 -0.000000 5.958777
v -2.164661 -0.000000 5.829607
v -2.117382 -0.000000 5.653159
v -2.164661 -0.000000 5.476710
v -2.293830 -0.000000 5.347541
v -2.470278 2.823174 5.300262
v -2.646727 2.823174 5.347541
v -2.775896 2.823174 5.476711
v -2.823175 2.823174 5.653160
v -2.775896 2.823174 5.829608
v -2.646727 2.823174 5.958778
v -2.470278 2.823174 6.006056
v -2.293830 2.823174 5.958778
v -2.164661 2.823174 5.829608
v -2.117382 2.823174 5.653160
v -2.164661 2.823174 5.476711
v -2.293830 2.823174 5.347541
v -2.470278 3.528967 5.300263
v -2.646727 3.528967 5.347541
v -2.775896 3.528967 5.476711
v -2.823175 3.528967 5.653160
v -2.775896 3.528967 5.829608
v -2.646727 3.528967 5.958778
v -2.470278 3.528967 6.006057
v -2.293830 3.528967 5.958778
v -2.164661 3.528967 5.829608
v -2.117382 3.528967 5.653160
v -2.164661 3.528967 5.476711
v -2.293830 3.528967 5.347541
v -2.470278 0.352897 4.241572
v -2.646726 0.305617 4.241572
v -2.775895 0.176448 4.241572
v -2.823175 -0.000000 4.241572
v -2.775895 -0.176448 4.241572
v -2.646727 -0.305618 4.947366
v -2.646726 -0.305618 4.241572
v -2.470278 -0.352897 4.241572
v -2.293830 -0.305618 4.947366
v -2.293830 -0.305618 4.241572
v -2.164661 -0.176448 4.241572
v -2.117381 -0.000000 4.241572
v -2.164661 0.176448 4.241572
v -2.293830 0.305617 4.241572
v -2.470278 0.352897 2.829985
v -2.646726 0.305617 2.829985
v -2.775895 0.176448 2.829985
v -2.823174 -0.000000 2.829985
v -2.646726 -0.305618 2.829985
v -2.293829 -0.305618 2.829985
v -2.164660 -0.176448 2.829985
v -2.117381 -0.000000 2.829985
v -2.164660 0.176448 2.829985
v -2.293829 0.305617 2.829985
v -2.470278 2.117380 3.182882
v -2.470278 1.411587 3.182882
v -2.646726 2.117380 3.230160
v -2.646726 1.411587 3.230160
v -2.775895 2.117380 3.359331
v -2.775895 1.411587 3.359330
v -2.823175 2.117380 3.535779
v -2.823175 1.411587 3.535779
v -2.775895 2.117380 3.712227
v -2.775895 1.411587 3.712227
v -2.646726 2.117380 3.841397
v -2.646726 1.411587 3.841397
v -2.470278 2.117380 3.888676
v -2.470278 1.411587 3.888676
v -2.293829 2.117380 3.841397
v -2.293829 1.411587 3.841397
v -2.164660 2.117380 3.712227
v -2.164660 1.411587 3.712227
v -2.117381 2.117380 3.535779
v -2.117381 1.411587 3.535779
v -2.164660 2.117380 3.359331
v -2.164660 1.411587 3.359330
v -2.293829 2.117380 3.230160
v -2.293829 1.411587 3.230160
v -2.470278 -0.000000 3.182882
v -2.646726 -0.000000 3.230160
v -2.775895 -0.000000 3.359330
v -2.823175 -0.000000 3.535779
v -2.775895 -0.000000 3.712227
v -2.646726 -0.000000 3.841397
v -2.470278 -0.000000 3.888675
v -2.293829 -0.000000 3.841397
v -2.164660 -0.000000 3.712227
v -2.117381 -0.000000 3.535779
v -2.164660 -0.000000 3.359330
v -2.293829 -0.000000 3.230160
v -2.470278 2.823174 3.182882
v -2.646726 2.823174 3.230161
v -2.775895 2.823174 3.359331
v -2.823175 2.823174 3.535779
v -2.775895 2.823174 3.712227
v -2.646726 2.823174 3.841397
v -2.470278 2.823174 3.888676
v -2.293829 2.823174 3.841397
v -2.164660 2.823174 3.712227
v -2.117381 2.823174 3.535779
v -2.164660 2.823174 3.359331
v -2.293829 2.823174 3.230161
v -2.470278 3.528967 3.182882
v -2.646726 3.528967 3.230161
v -2.775895 3.528967 3.359331
v -2.823175 3.528967 3.535779
v -2.775895 3.528967 3.712227
v -2.646726 3.528967 3.841398
v -2.470278 3.528967 3.888676
v -2.293829 3.528967 3.841398
v -2.164660 3.528967 3.712228
v -2.117381 3.528967 3.535779
v -2.164660 3.528967 3.359331
v -2.293829 3.528967 3.230161
v -2.470278 0.352897 2.124192
v -2.646726 0.305617 2.124192
v -2.775895 0.176448 2.124192
v -2.823174 -0.000000 2.124192
v -2.775895 -0.176448 2.829985
v -2.775895 -0.176448 2.124192
v -2.646726 -0.305618 2.124192
v -2.470278 -0.352897 2.829985
v -2.470278 -0.352897 2.124192
v -2.293829 -0.305618 2.124192
v -2.164660 -0.176448 2.124192
v -2.117381 -0.000000 2.124192
v -2.164660 0.176448 2.124192
v -2.293829 0.305617 2.124192
v -2.470277 0.352897 0.359708
v -2.646726 0.305617 0.359708
v -2.775895 0.176448 0.359708
v -2.823174 -0.000000 0.359708
v -2.775895 -0.176448 0.359708
v -2.646726 -0.305618 0.359708
v -2.470277 -0.352897 0.359708
v -2.293829 -0.305618 0.359708
v -2.164660 -0.176448 0.359708
v -2.117381 -0.000000 0.359708
v -2.164660 0.176448 0.359708
v -2.293829 0.305617 0.359708
v -2.463497 0.352897 0.290861
v -2.636555 0.305617 0.256439
v -2.763242 0.176448 0.231238
v -2.809613 -0.000000 0.222014
v -2.763242 -0.176448 0.231238
v -2.636555 -0.305618 0.256438
v -2.463497 -0.352897 0.290861
v -2.290439 -0.305618 0.325283
v -2.163752 -0.176448 0.350484
v -2.117381 -0.000000 0.359708
v -2.163752 0.176448 0.350484
v -2.290439 0.305617 0.325283
v -2.443415 0.352897 0.224660
v -2.606432 0.305617 0.157135
v -2.725769 0.176448 0.107706
v -2.769449 -0.000000 0.089613
v -2.725769 -0.176448 0.107706
v -2.606432 -0.305618 0.157135
v -2.443415 -0.352897 0.224660
v -2.280398 -0.305618 0.292183
v -2.161061 -0.176448 0.341615
v -2.117381 -0.000000 0.359708
v -2.161061 0.176448 0.341615
v -2.280398 0.305617 0.292183
v -2.410804 0.352897 0.163648
v -2.557515 0.305617 0.065619
v -2.664915 0.176448 -0.006145
v -2.704226 -0.000000 -0.032412
v -2.664915 -0.176448 -0.006145
v -2.557515 -0.305618 0.065618
v -2.410804 -0.352897 0.163648
v -2.264092 -0.305618 0.261678
v -2.156692 -0.176448 0.333441
v -2.117381 -0.000000 0.359708
v -2.156692 0.176448 0.333441
v -2.264092 0.305617 0.261678
v -2.366916 0.352897 0.110172
v -2.491684 0.305617 -0.014596
v -2.583020 0.176448 -0.105933
v -2.616452 -0.000000 -0.139364
v -2.583020 -0.176448 -0.105933
v -2.491684 -0.305618 -0.014596
v -2.366916 -0.352897 0.110172
v -2.242148 -0.305618 0.234940
v -2.150812 -0.176448 0.326274
v -2.117381 -0.000000 0.359708
v -2.150812 0.176448 0.326274
v -2.242148 0.305617 0.234940
v -2.313439 0.352897 0.066283
v -2.411469 0.305617 -0.080427
v -2.483231 0.176448 -0.187827
v -2.509498 0.000000 -0.227139
v -2.483231 -0.176448 -0.187827
v -2.411469 -0.305617 -0.080428
v -2.313439 -0.352897 0.066283
v -2.215410 -0.305618 0.212994
v -2.143647 -0.176448 0.320396
v -2.117380 -0.000000 0.359708
v -2.143647 0.176448 0.320396
v -2.215410 0.305617 0.212994
v -2.252428 0.352897 0.033673
v -2.319952 0.305617 -0.129343
v -2.369383 0.176448 -0.248681
v -2.387475 0.000000 -0.292362
v -2.369382 -0.176448 -0.248681
v -2.319952 -0.305617 -0.129343
v -2.252428 -0.352897 0.033673
v -2.184904 -0.305618 0.196689
v -2.135473 -0.176448 0.316026
v -2.117380 -0.000000 0.359708
v -2.135473 0.176448 0.316026
v -2.184904 0.305617 0.196689
v -2.186227 0.352897 0.013591
v -2.220650 0.305617 -0.159465
v -2.245850 0.176448 -0.286153
v -2.255073 0.000000 -0.332524
v -2.245850 -0.176448 -0.286153
v -2.220650 -0.305617 -0.159466
v -2.186227 -0.352897 0.013591
v -2.151803 -0.305618 0.186649
v -2.126604 -0.176448 0.313337
v -2.117380 -0.000000 0.359708
v -2.126604 0.176448 0.313337
v -2.151803 0.305617 0.186649
v 0.000000 0.352897 0.000000
v 0.000000 0.305617 -0.176448
v 0.000000 0.176448 -0.305619
v 0.000001 -0.000000 -0.352897
v 0.000000 -0.176448 -0.305619
v 0.000000 -0.305618 -0.176449
v 0.000000 -0.352897 -0.000000
v 0.000000 -0.305618 0.176448
v 0.000000 -0.176448 0.305618
v 0.000000 -0.000000 0.352897
v 0.000000 0.176448 0.305618
v 0.000000 0.305617 0.176449
v -2.470278 6.528967 1.065502
v -2.646726 6.528967 1.112780
v -2.775895 6.528966 1.241950
v -2.823174 6.528966 1.418398
v -2.775895 6.528966 1.594847
v -2.646726 6.528966 1.724017
v -2.470278 6.528966 1.771295
v -2.293829 6.528966 1.724017
v -2.164660 6.528966 1.594847
v -2.117381 6.528966 1.418399
v -2.164660 6.528966 1.241950
v -2.293829 6.528967 1.112780
v -2.470278 6.528967 5.300263
v -2.646727 6.528967 5.347541
v -2.775896 6.528967 5.476711
v -2.823175 6.528967 5.653160
v -2.775896 6.528967 5.829608
v -2.646727 6.528967 5.958778
v -2.470278 6.528967 6.006057
v -2.293830 6.528967 5.958778
v -2.164661 6.528967 5.829608
v -2.117382 6.528967 5.653160
v -2.164661 6.528967 5.476711
v -2.293830 6.528967 5.347541
v -2.470278 6.528967 3.182882
v -2.646726 6.528967 3.230161
v -2.775895 6.528967 3.359331
v -2.823175 6.528967 3.535779
v -2.775895 6.528967 3.712227
v -2.646726 6.528967 3.841398
v -2.470278 6.528967 3.888676
v -2.293829 6.528967 3.841398
v -2.164660 6.528967 3.712227
v -2.117381 6.528967 3.535779
v -2.164660 6.528967 3.359331
v -2.293829 6.528967 3.230161
v -2.652469 1.988106 1.107602
v -2.952469 1.988106 1.151783
v -2.652469 2.138106 1.147794
v -2.952469 2.116015 1.186056
v -2.652469 2.247913 1.257602
v -2.952469 2.209651 1.279693
v -2.652469 2.288106 1.407602
v -2.952469 2.243925 1.407602
v -2.652469 2.247913 1.557602
v -2.952469 2.209651 1.535511
v -2.652469 2.138106 1.667410
v -2.952469 2.116015 1.629148
v -2.652469 1.988106 1.707602
v -2.952469 1.988106 1.663421
v -2.652469 1.838106 1.667410
v -2.952469 1.860196 1.629148
v -2.652469 1.728298 1.557602
v -2.952469 1.766560 1.535511
v -2.652469 1.688106 1.407602
v -2.952469 1.732287 1.407602
v -2.652469 1.728298 1.257602
v -2.952469 1.766560 1.279693
v -2.652469 1.838106 1.147794
v -2.952469 1.860196 1.186056
v -2.952469 2.138106 1.147794
v -2.952469 1.988106 1.107602
v -2.952469 2.247913 1.257602
v -2.952469 2.288106 1.407602
v -2.952469 2.247913 1.557602
v -2.952469 2.138106 1.667410
v -2.952469 1.988106 1.707602
v -2.952469 1.838106 1.667410
v -2.952469 1.728298 1.557602
v -2.952469 1.688106 1.407602
v -2.952469 1.728298 1.257602
v -2.952469 1.838106 1.147794
v -2.844131 2.088319 1.234027
v -2.844131 1.988106 1.207175
v -2.844131 2.161681 1.307388
v -2.844131 2.188533 1.407602
v -2.844131 2.161681 1.507816
v -2.844131 2.088319 1.581177
v -2.844131 1.988106 1.608029
v -2.844131 1.887892 1.581177
v -2.844131 1.814531 1.507816
v -2.844131 1.787678 1.407602
v -2.844131 1.814531 1.307388
v -2.844131 1.887892 1.234027
v -2.844131 2.116015 1.186056
v -2.844131 1.988106 1.151783
v -2.844131 2.209651 1.279693
v -2.844131 2.243925 1.407602
v -2.844131 2.209651 1.535511
v -2.844131 2.116015 1.629148
v -2.844131 1.988106 1.663421
v -2.844131 1.860196 1.629148
v -2.844131 1.766560 1.535511
v -2.844131 1.732287 1.407602
v -2.844131 1.766560 1.279693
v -2.844131 1.860196 1.186056
v -2.934311 2.060652 1.281947
v -2.934311 1.988106 1.262508
v -2.934311 2.113760 1.335055
v -2.934311 2.133199 1.407602
v -2.934311 2.113760 1.480149
v -2.934311 2.060652 1.533257
v -2.934311 1.988106 1.552696
v -2.934311 1.915559 1.533257
v -2.934311 1.862451 1.480149
v -2.934311 1.843012 1.407602
v -2.934311 1.862451 1.335055
v -2.934311 1.915559 1.281947
v -2.934311 2.088319 1.234027
v -2.934311 1.988106 1.207175
v -2.934311 2.161681 1.307388
v -2.934311 2.188533 1.407602
v -2.934311 2.161681 1.507816
v -2.934311 2.088319 1.581177
v -2.934311 1.988106 1.608029
v -2.934311 1.887892 1.581177
v -2.934311 1.814531 1.507816
v -2.934311 1.787678 1.407602
v -2.934311 1.814531 1.307388
v -2.934311 1.887892 1.234027
v -2.832536 2.024021 1.345395
v -2.832536 1.988106 1.335771
v -2.832536 2.050313 1.371687
v -2.832536 2.059937 1.407602
v -2.832536 2.050313 1.443517
v -2.832536 2.024021 1.469809
v -2.832536 1.988106 1.479433
v -2.832536 1.952190 1.469809
v -2.832536 1.925899 1.443517
v -2.832536 1.916275 1.407602
v -2.832536 1.925899 1.371687
v -2.832536 1.952190 1.345395
v -2.832536 2.060652 1.281947
v -2.832536 1.988106 1.262508
v -2.832536 2.113760 1.335055
v -2.832536 2.133199 1.407602
v -2.832536 2.113760 1.480149
v -2.832536 2.060652 1.533257
v -2.832536 1.988106 1.552696
v -2.832536 1.915559 1.533257
v -2.832536 1.862451 1.480149
v -2.832536 1.843012 1.407602
v -2.832536 1.862451 1.335055
v -2.832536 1.915559 1.281947
v -2.685264 2.024021 1.345395
v -2.685264 1.988106 1.335771
v -2.685264 2.050313 1.371687
v -2.685264 2.059937 1.407602
v -2.685264 2.050313 1.443517
v -2.685264 2.024021 1.469809
v -2.685264 1.988106 1.479433
v -2.685264 1.952190 1.469809
v -2.685264 1.925899 1.443517
v -2.685264 1.916275 1.407602
v -2.685264 1.925899 1.371687
v -2.685264 1.952190 1.345395
v -2.652469 1.988106 3.239013
v -2.952469 1.988106 3.283195
v -2.652469 2.138106 3.279206
v -2.952469 2.116015 3.317468
v -2.652469 2.247913 3.389013
v -2.952469 2.209651 3.411104
v -2.652469 2.288106 3.539013
v -2.952469 2.243925 3.539013
v -2.652469 2.247913 3.689013
v -2.952469 2.209651 3.666923
v -2.652469 2.138106 3.798821
v -2.952469 2.116015 3.760559
v -2.652469 1.988106 3.839013
v -2.952469 1.988106 3.794832
v -2.652469 1.838106 3.798821
v -2.952469 1.860196 3.760559
v -2.652469 1.728298 3.689013
v -2.952469 1.766560 3.666923
v -2.652469 1.688106 3.539013
v -2.952469 1.732287 3.539013
v -2.652469 1.728298 3.389013
v -2.952469 1.766560 3.411104
v -2.652469 1.838106 3.279206
v -2.952469 1.860196 3.317468
v -2.952469 2.138106 3.279206
v -2.952469 1.988106 3.239013
v -2.952469 2.247913 3.389013
v -2.952469 2.288106 3.539013
v -2.952469 2.247913 3.689013
v -2.952469 2.138106 3.798821
v -2.952469 1.988106 3.839013
v -2.952469 1.838106 3.798821
v -2.952469 1.728298 3.689013
v -2.952469 1.688106 3.539013
v -2.952469 1.728298 3.389013
v -2.952469 1.838106 3.279206
v -2.844131 2.088319 3.365438
v -2.844131 1.988106 3.338586
v -2.844131 2.161681 3.438800
v -2.844131 2.188533 3.539013
v -2.844131 2.161681 3.639227
v -2.844131 2.088319 3.712588
v -2.844131 1.988106 3.739440
v -2.844131 1.887892 3.712588
v -2.844131 1.814531 3.639227
v -2.844131 1.787678 3.539013
v -2.844131 1.814531 3.438800
v -2.844131 1.887892 3.365438
v -2.844131 2.116015 3.317468
v -2.844131 1.988106 3.283195
v -2.844131 2.209651 3.411104
v -2.844131 2.243925 3.539013
v -2.844131 2.209651 3.666923
v -2.844131 2.116015 3.760559
v -2.844131 1.988106 3.794832
v -2.844131 1.860196 3.760559
v -2.844131 1.766560 3.666923
v -2.844131 1.732287 3.539013
v -2.844131 1.766560 3.411104
v -2.844131 1.860196 3.317468
v -2.934311 2.060652 3.413359
v -2.934311 1.988106 3.393920
v -2.934311 2.113760 3.466466
v -2.934311 2.133199 3.539013
v -2.934311 2.113760 3.611560
v -2.934311 2.060652 3.664668
v -2.934311 1.988106 3.684107
v -2.934311 1.915559 3.664668
v -2.934311 1.862451 3.611560
v -2.934311 1.843012 3.539013
v -2.934311 1.862451 3.466466
v -2.934311 1.915559 3.413359
v -2.934311 2.088319 3.365438
v -2.934311 1.988106 3.338586
v -2.934311 2.161681 3.438800
v -2.934311 2.188533 3.539013
v -2.934311 2.161681 3.639227
v -2.934311 2.088319 3.712588
v -2.934311 1.988106 3.739440
v -2.934311 1.887892 3.712588
v -2.934311 1.814531 3.639227
v -2.934311 1.787678 3.539013
v -2.934311 1.814531 3.438800
v -2.934311 1.887892 3.365438
v -2.832536 2.024021 3.476806
v -2.832536 1.988106 3.467182
v -2.832536 2.050313 3.503098
v -2.832536 2.059937 3.539013
v -2.832536 2.050313 3.574929
v -2.832536 2.024021 3.601221
v -2.832536 1.988106 3.610844
v -2.832536 1.952190 3.601221
v -2.832536 1.925899 3.574929
v -2.832536 1.916275 3.539013
v -2.832536 1.925899 3.503098
v -2.832536 1.952190 3.476806
v -2.832536 2.060652 3.413359
v -2.832536 1.988106 3.393920
v -2.832536 2.113760 3.466466
v -2.832536 2.133199 3.539013
v -2.832536 2.113760 3.611560
v -2.832536 2.060652 3.664668
v -2.832536 1.988106 3.684107
v -2.832536 1.915559 3.664668
v -2.832536 1.862451 3.611560
v -2.832536 1.843012 3.539013
v -2.832536 1.862451 3.466466
v -2.832536 1.915559 3.413359
v -2.685264 2.024021 3.476806
v -2.685264 1.988106 3.467182
v -2.685264 2.050313 3.503098
v -2.685264 2.059937 3.539013
v -2.685264 2.050313 3.574929
v -2.685264 2.024021 3.601221
v -2.685264 1.988106 3.610844
v -2.685264 1.952190 3.601221
v -2.685264 1.925899 3.574929
v -2.685264 1.916275 3.539013
v -2.685264 1.925899 3.503098
v -2.685264 1.952190 3.476806
v -2.652469 1.988106 5.348677
v -2.952469 1.988106 5.392858
v -2.652469 2.138106 5.388869
v -2.952469 2.116015 5.427131
v -2.652469 2.247913 5.498676
v -2.952469 2.209651 5.520767
v -2.652469 2.288106 5.648677
v -2.952469 2.243925 5.648677
v -2.652469 2.247913 5.798676
v -2.952469 2.209651 5.776586
v -2.652469 2.138106 5.908484
v -2.952469 2.116015 5.870222
v -2.652469 1.988106 5.948677
v -2.952469 1.988106 5.904495
v -2.652469 1.838106 5.908484
v -2.952469 1.860196 5.870222
v -2.652469 1.728298 5.798676
v -2.952469 1.766560 5.776586
v -2.652469 1.688106 5.648677
v -2.952469 1.732287 5.648677
v -2.652469 1.728298 5.498676
v -2.952469 1.766560 5.520767
v -2.652469 1.838106 5.388869
v -2.952469 1.860196 5.427131
v -2.952469 2.138106 5.388869
v -2.952469 1.988106 5.348677
v -2.952469 2.247913 5.498676
v -2.952469 2.288106 5.648677
v -2.952469 2.247913 5.798676
v -2.952469 2.138106 5.908484
v -2.952469 1.988106 5.948677
v -2.952469 1.838106 5.908484
v -2.952469 1.728298 5.798676
v -2.952469 1.688106 5.648677
v -2.952469 1.728298 5.498676
v -2.952469 1.838106 5.388869
v -2.844131 2.088319 5.475101
v -2.844131 1.988106 5.448249
v -2.844131 2.161681 5.548463
v -2.844131 2.188533 5.648677
v -2.844131 2.161681 5.748890
v -2.844131 2.088319 5.822252
v -2.844131 1.988106 5.849104
v -2.844131 1.887892 5.822252
v -2.844131 1.814531 5.748890
v -2.844131 1.787678 5.648677
v -2.844131 1.814531 5.548463
v -2.844131 1.887892 5.475101
v -2.844131 2.116015 5.427131
v -2.844131 1.988106 5.392858
v -2.844131 2.209651 5.520767
v -2.844131 2.243925 5.648677
v -2.844131 2.209651 5.776586
v -2.844131 2.116015 5.870222
v -2.844131 1.988106 5.904495
v -2.844131 1.860196 5.870222
v -2.844131 1.766560 5.776586
v -2.844131 1.732287 5.648677
v -2.844131 1.766560 5.520767
v -2.844131 1.860196 5.427131
v -2.934311 2.060652 5.523022
v -2.934311 1.988106 5.503583
v -2.934311 2.113760 5.576130
v -2.934311 2.133199 5.648677
v -2.934311 2.113760 5.721223
v -2.934311 2.060652 5.774331
v -2.934311 1.988106 5.793770
v -2.934311 1.915559 5.774331
v -2.934311 1.862451 5.721223
v -2.934311 1.843012 5.648677
v -2.934311 1.862451 5.576130
v -2.934311 1.915559 5.523022
v -2.934311 2.088319 5.475101
v -2.934311 1.988106 5.448249
v -2.934311 2.161681 5.548463
v -2.934311 2.188533 5.648677
v -2.934311 2.161681 5.748890
v -2.934311 2.088319 5.822252
v -2.934311 1.988106 5.849104
v -2.934311 1.887892 5.822252
v -2.934311 1.814531 5.748890
v -2.934311 1.787678 5.648677
v -2.934311 1.814531 5.548463
v -2.934311 1.887892 5.475101
v -2.832536 2.024021 5.586470
v -2.832536 1.988106 5.576846
v -2.832536 2.050313 5.612761
v -2.832536 2.059937 5.648677
v -2.832536 2.050313 5.684592
v -2.832536 2.024021 5.710884
v -2.832536 1.988106 5.720508
v -2.832536 1.952190 5.710884
v -2.832536 1.925899 5.684592
v -2.832536 1.916275 5.648677
v -2.832536 1.925899 5.612761
v -2.832536 1.952190 5.586470
v -2.832536 2.060652 5.523022
v -2.832536 1.988106 5.503583
v -2.832536 2.113760 5.576130
v -2.832536 2.133199 5.648677
v -2.832536 2.113760 5.721223
v -2.832536 2.060652 5.774331
v -2.832536 1.988106 5.793770
v -2.832536 1.915559 5.774331
v -2.832536 1.862451 5.721223
v -2.832536 1.843012 5.648677
v -2.832536 1.862451 5.576130
v -2.832536 1.915559 5.523022
v -2.685264 2.024021 5.586470
v -2.685264 1.988106 5.576846
v -2.685264 2.050313 5.612761
v -2.685264 2.059937 5.648677
v -2.685264 2.050313 5.684592
v -2.685264 2.024021 5.710884
v -2.685264 1.988106 5.720508
v -2.685264 1.952190 5.710884
v -2.685264 1.925899 5.684592
v -2.685264 1.916275 5.648677
v -2.685264 1.925899 5.612761
v -2.685264 1.952190 5.586470
vn -0.2588 -0.0000 -0.9659
vn -0.7071 -0.0000 -0.7071
vn -0.9659 -0.0000 -0.2588
vn -0.9659 -0.0000 0.2588
vn -0.7071 -0.0000 0.7071
vn -0.2588 -0.0000 0.9659
vn 0.2588 -0.0000 0.9659
vn 0.7071 -0.0000 0.7071
vn 0.9659 -0.0000 0.2588
vn 0.9659 -0.0000 -0.2588
vn 0.7071 -0.0000 -0.7071
vn 0.2588 -0.0000 -0.9659
vn -0.0000 -1.0000 -0.0000
vn -0.0000 -0.0000 -1.0000
vn -0.2588 0.9659 -0.0000
vn -0.7071 0.7071 -0.0000
vn -0.9659 0.2588 -0.0000
vn -0.9659 -0.2588 -0.0000
vn -0.7071 -0.7071 -0.0000
vn -0.2588 -0.9659 -0.0000
vn 0.2588 -0.9659 -0.0000
vn 0.7071 -0.7071 -0.0000
vn 0.9659 -0.2588 -0.0000
vn 0.9659 0.2588 -0.0000
vn 0.7071 0.7071 -0.0000
vn 0.2588 0.9659 -0.0000
vn 0.7054 -0.7054 0.0695
vn -0.9246 -0.2577 -0.2805
vn -0.7054 -0.7054 -0.0695
vn 0.2587 0.9656 0.0255
vn -0.7054 0.7054 -0.0695
vn 0.9616 -0.2577 0.0947
vn -0.2587 -0.9656 -0.0255
vn -0.9616 0.2577 -0.0947
vn 0.9616 0.2577 0.0947
vn 0.2587 -0.9656 0.0255
vn -0.9616 -0.2577 -0.0947
vn 0.7054 0.7054 0.0695
vn -0.2587 0.9656 -0.0255
vn -0.8521 -0.2577 -0.4555
vn 0.6783 0.7054 0.2058
vn -0.2488 0.9656 -0.0755
vn 0.6783 -0.7054 0.2058
vn -0.6783 -0.7054 -0.2058
vn 0.2488 0.9656 0.0755
vn -0.6783 0.7054 -0.2058
vn 0.9246 -0.2577 0.2804
vn -0.2488 -0.9656 -0.0755
vn -0.9246 0.2577 -0.2805
vn 0.9246 0.2577 0.2804
vn 0.2488 -0.9656 0.0755
vn 0.2010 -0.9656 0.1649
vn 0.6251 0.7054 0.3341
vn -0.2293 0.9656 -0.1226
vn 0.6251 -0.7054 0.3341
vn -0.6251 -0.7054 -0.3341
vn 0.2293 0.9656 0.1226
vn -0.6251 0.7054 -0.3341
vn 0.8521 -0.2577 0.4555
vn -0.2293 -0.9656 -0.1226
vn -0.8521 0.2577 -0.4555
vn 0.8521 0.2577 0.4555
vn 0.2293 -0.9656 0.1226
vn 0.1649 -0.9656 0.2010
vn -0.7469 -0.2577 -0.6130
vn 0.5479 0.7054 0.4496
vn -0.2010 0.9656 -0.1649
vn 0.5479 -0.7054 0.4496
vn -0.5479 -0.7054 -0.4497
vn 0.2010 0.9656 0.1649
vn -0.5479 0.7054 -0.4497
vn 0.7470 -0.2577 0.6129
vn -0.2010 -0.9656 -0.1649
vn -0.7469 0.2577 -0.6130
vn 0.7470 0.2577 0.6129
vn 0.4555 0.2577 0.8521
vn -0.6130 -0.2577 -0.7469
vn 0.4497 0.7054 0.5479
vn -0.1649 0.9656 -0.2010
vn 0.4497 -0.7054 0.5479
vn -0.4497 -0.7054 -0.5479
vn 0.1649 0.9656 0.2010
vn -0.4497 0.7054 -0.5479
vn 0.6128 -0.2577 0.7471
vn -0.1649 -0.9656 -0.2010
vn -0.6130 0.2577 -0.7469
vn 0.6128 0.2577 0.7471
vn -0.2805 0.2577 -0.9246
vn 0.1226 -0.9656 0.2293
vn -0.4555 -0.2577 -0.8521
vn 0.3341 0.7054 0.6251
vn -0.1226 0.9656 -0.2293
vn 0.3341 -0.7054 0.6251
vn -0.3341 -0.7054 -0.6251
vn 0.1226 0.9656 0.2293
vn -0.3341 0.7054 -0.6251
vn 0.4555 -0.2577 0.8521
vn -0.1226 -0.9656 -0.2293
vn -0.4555 0.2577 -0.8521
vn -0.0086 0.2567 -0.9665
vn 0.2804 0.2577 0.9247
vn 0.0755 -0.9656 0.2488
vn -0.2805 -0.2577 -0.9246
vn 0.2057 0.7054 0.6783
vn -0.0755 0.9656 -0.2488
vn 0.2057 -0.7054 0.6783
vn -0.2058 -0.7054 -0.6783
vn 0.0755 0.9656 0.2488
vn -0.2058 0.7054 -0.6783
vn 0.2804 -0.2577 0.9247
vn -0.0755 -0.9656 -0.2488
vn 1.0000 -0.0000 -0.0000
vn 0.0033 0.2566 0.9665
vn 0.0014 -0.9653 0.2610
vn -0.0086 -0.2567 -0.9665
vn 0.0030 0.7038 0.7104
vn -0.0018 0.9653 -0.2610
vn 0.0030 -0.7038 0.7104
vn -0.0058 -0.7040 -0.7102
vn 0.0014 0.9653 0.2610
vn -0.0058 0.7040 -0.7102
vn 0.0033 -0.2566 0.9665
vn -0.0018 -0.9653 -0.2610
vn -0.0000 1.0000 -0.0000
vn -0.0000 0.2588 -0.9659
vn -0.0000 0.7071 -0.7071
vn -0.0000 0.9659 -0.2588
vn -0.0000 0.9659 0.2588
vn -0.0000 0.7071 0.7071
vn -0.0000 0.2588 0.9659
vn -0.0000 -0.2588 0.9659
vn -0.0000 -0.7071 0.7071
vn -0.0000 -0.9659 0.2588
vn -0.0000 -0.9659 -0.2588
vn -0.0000 -0.7071 -0.7071
vn -0.0000 -0.2588 -0.9659
vn -1.0000 -0.0000 -0.0000
vt 0.890611 0.297282
vt 0.890611 0.341835
vt 0.880625 0.341835
vt 0.880625 0.297282
vt 0.869093 0.341835
vt 0.869093 0.297282
vt 0.859107 0.341835
vt 0.859107 0.297282
vt 0.545075 0.747025
vt 0.545075 0.791578
vt 0.535089 0.791578
vt 0.535089 0.747025
vt 0.523557 0.791578
vt 0.523557 0.747025
vt 0.513571 0.791578
vt 0.513571 0.747025
vt 0.614182 0.297282
vt 0.614182 0.341835
vt 0.604196 0.341835
vt 0.604196 0.297282
vt 0.592665 0.341835
vt 0.592665 0.297282
vt 0.582678 0.341835
vt 0.582678 0.297282
vt 0.614182 0.747025
vt 0.614182 0.791578
vt 0.604196 0.791578
vt 0.604196 0.747025
vt 0.545075 0.880684
vt 0.535089 0.880684
vt 0.592665 0.791578
vt 0.592665 0.747025
vt 0.582678 0.791578
vt 0.582678 0.747025
vt 0.523557 0.702472
vt 0.535089 0.702472
vt 0.301912 0.725969
vt 0.290381 0.725969
vt 0.280395 0.720204
vt 0.274629 0.710218
vt 0.274629 0.698686
vt 0.280395 0.688700
vt 0.290381 0.682934
vt 0.301912 0.682935
vt 0.311898 0.688700
vt 0.317664 0.698686
vt 0.317664 0.710218
vt 0.311898 0.720204
vt 0.592665 0.880684
vt 0.582678 0.880684
vt 0.890611 0.430941
vt 0.880625 0.430941
vt 0.869093 0.430941
vt 0.859107 0.430941
vt 0.604196 0.880684
vt 0.614182 0.880684
vt 0.592665 0.430941
vt 0.582678 0.430941
vt 0.604196 0.430941
vt 0.614182 0.430941
vt 0.523557 0.880684
vt 0.513571 0.880684
vt 0.523557 0.657919
vt 0.535089 0.657919
vt 0.545075 0.702472
vt 0.582678 0.702472
vt 0.592665 0.702472
vt 0.880625 0.252729
vt 0.890611 0.252729
vt 0.859107 0.252729
vt 0.869093 0.252729
vt 0.604196 0.702472
vt 0.614182 0.702472
vt 0.582678 0.252729
vt 0.592665 0.252729
vt 0.604196 0.252729
vt 0.614182 0.252729
vt 0.513571 0.702472
vt 0.683289 0.657919
vt 0.673303 0.657919
vt 0.673303 0.468544
vt 0.683289 0.468544
vt 0.582678 0.657919
vt 0.592665 0.657919
vt 0.869093 0.208176
vt 0.880625 0.208176
vt 0.582678 0.208176
vt 0.592665 0.208176
vt 0.513571 0.657919
vt 0.859107 0.208176
vt 0.604196 0.657919
vt 0.614182 0.657919
vt 0.604196 0.208176
vt 0.614182 0.208176
vt 0.545075 0.657919
vt 0.890611 0.208176
vt 0.206318 0.764066
vt 0.214193 0.761081
vt 0.222069 0.764066
vt 0.227835 0.772219
vt 0.229945 0.783358
vt 0.227835 0.794496
vt 0.222069 0.802650
vt 0.214193 0.805634
vt 0.206318 0.802650
vt 0.200552 0.794496
vt 0.198442 0.783358
vt 0.200552 0.772219
vt 0.038094 0.018802
vt 0.038094 0.063355
vt 0.026956 0.063355
vt 0.026955 0.018802
vt 0.018802 0.063355
vt 0.018802 0.018802
vt 0.232056 0.772219
vt 0.229945 0.783358
vt 0.232056 0.794496
vt 0.406860 0.018802
vt 0.406860 0.063355
vt 0.398707 0.063355
vt 0.398707 0.018802
vt 0.387568 0.063355
vt 0.387568 0.018802
vt 0.376430 0.063355
vt 0.376430 0.018802
vt 0.368276 0.063355
vt 0.368276 0.018802
vt 0.018802 0.820943
vt 0.018802 0.789439
vt 0.029940 0.791550
vt 0.029940 0.823053
vt 0.041078 0.789439
vt 0.041078 0.820943
vt 0.198442 0.658360
vt 0.209580 0.660470
vt 0.209580 0.723478
vt 0.198442 0.721367
vt 0.057386 0.018802
vt 0.057386 0.063355
vt 0.049232 0.063355
vt 0.049232 0.018802
vt 0.086558 0.737626
vt 0.094434 0.734642
vt 0.102309 0.737626
vt 0.108075 0.745780
vt 0.110185 0.756918
vt 0.108075 0.768057
vt 0.102309 0.776210
vt 0.094434 0.779195
vt 0.086558 0.776210
vt 0.080792 0.768057
vt 0.078682 0.756918
vt 0.080792 0.745780
vt 0.049232 0.152461
vt 0.038094 0.152461
vt 0.026955 0.152461
vt 0.220718 0.658360
vt 0.220718 0.721367
vt 0.057386 0.152461
vt 0.018802 0.152461
vt 0.029940 0.728542
vt 0.041078 0.726432
vt 0.018802 0.726432
vt 0.376430 0.152461
vt 0.368276 0.152461
vt 0.387568 0.152461
vt 0.398707 0.152461
vt 0.406860 0.152461
vt 0.683289 0.297282
vt 0.683289 0.341835
vt 0.673303 0.341835
vt 0.673303 0.297282
vt 0.661772 0.341835
vt 0.661772 0.297282
vt 0.651786 0.341835
vt 0.651786 0.297282
vt 0.545075 0.297282
vt 0.545075 0.341835
vt 0.535089 0.341835
vt 0.535089 0.297282
vt 0.523557 0.341835
vt 0.523557 0.297282
vt 0.513571 0.341835
vt 0.513571 0.297282
vt 0.752396 0.747025
vt 0.752396 0.791578
vt 0.742410 0.791578
vt 0.742410 0.747025
vt 0.730879 0.791578
vt 0.730879 0.747025
vt 0.720893 0.791578
vt 0.720893 0.747025
vt 0.475968 0.297282
vt 0.475968 0.341835
vt 0.465981 0.341835
vt 0.465981 0.297282
vt 0.545075 0.430941
vt 0.535089 0.430941
vt 0.454450 0.341835
vt 0.454450 0.297282
vt 0.444464 0.341835
vt 0.444464 0.297282
vt 0.523557 0.252729
vt 0.535089 0.252729
vt 0.392537 0.558927
vt 0.382550 0.564692
vt 0.371019 0.564692
vt 0.361033 0.558927
vt 0.355267 0.548940
vt 0.355267 0.537409
vt 0.361033 0.527423
vt 0.371019 0.521657
vt 0.382551 0.521657
vt 0.392537 0.527423
vt 0.398302 0.537409
vt 0.398302 0.548941
vt 0.454450 0.430941
vt 0.444464 0.430941
vt 0.683289 0.430941
vt 0.673303 0.430941
vt 0.661772 0.430941
vt 0.651786 0.430941
vt 0.465981 0.430941
vt 0.475968 0.430941
vt 0.730879 0.880684
vt 0.720893 0.880684
vt 0.742410 0.880684
vt 0.752396 0.880684
vt 0.523557 0.430941
vt 0.513571 0.430941
vt 0.523557 0.208176
vt 0.535089 0.208176
vt 0.545075 0.252729
vt 0.444464 0.252729
vt 0.454450 0.252729
vt 0.673303 0.252729
vt 0.683289 0.252729
vt 0.651786 0.252729
vt 0.661772 0.252729
vt 0.465981 0.252729
vt 0.475968 0.252729
vt 0.720893 0.702472
vt 0.730879 0.702472
vt 0.742410 0.702472
vt 0.752396 0.702472
vt 0.513571 0.252729
vt 0.592665 0.468545
vt 0.604196 0.468545
vt 0.444464 0.208176
vt 0.454450 0.208176
vt 0.661772 0.208176
vt 0.673303 0.208176
vt 0.720893 0.657919
vt 0.730879 0.657919
vt 0.513571 0.208176
vt 0.651786 0.208176
vt 0.465981 0.208176
vt 0.475968 0.208176
vt 0.742410 0.657919
vt 0.752396 0.657919
vt 0.545075 0.208176
vt 0.683289 0.208176
vt 0.038094 0.197014
vt 0.026955 0.197014
vt 0.018802 0.197014
vt 0.112296 0.745780
vt 0.110185 0.756918
vt 0.112296 0.768057
vt 0.406860 0.197014
vt 0.398707 0.197014
vt 0.387568 0.197014
vt 0.376430 0.197014
vt 0.368276 0.197014
vt 0.018802 0.694928
vt 0.029940 0.697038
vt 0.041078 0.694928
vt 0.078682 0.521657
vt 0.089820 0.523768
vt 0.089820 0.586775
vt 0.078682 0.584665
vt 0.057386 0.197014
vt 0.049232 0.197014
vt 0.354515 0.765039
vt 0.362809 0.763573
vt 0.369992 0.767971
vt 0.374139 0.777056
vt 0.374139 0.788392
vt 0.369992 0.798943
vt 0.362809 0.805881
vt 0.354515 0.807347
vt 0.347333 0.802949
vt 0.343186 0.793864
vt 0.343186 0.782528
vt 0.347333 0.771977
vt 0.049232 0.286120
vt 0.038094 0.286120
vt 0.026955 0.286120
vt 0.100958 0.521657
vt 0.100958 0.584665
vt 0.057386 0.286120
vt 0.018802 0.286120
vt 0.029940 0.634031
vt 0.041078 0.631921
vt 0.018802 0.631921
vt 0.376430 0.286120
vt 0.368276 0.286120
vt 0.387568 0.286120
vt 0.398707 0.286120
vt 0.406860 0.286120
vt 0.683289 0.747025
vt 0.683289 0.791578
vt 0.673303 0.791578
vt 0.673303 0.747025
vt 0.661772 0.791578
vt 0.661772 0.747025
vt 0.651786 0.791578
vt 0.651786 0.747025
vt 0.821504 0.297282
vt 0.821504 0.341835
vt 0.811517 0.341835
vt 0.811517 0.297282
vt 0.799986 0.341835
vt 0.799986 0.297282
vt 0.790000 0.341835
vt 0.790000 0.297282
vt 0.752396 0.297282
vt 0.752397 0.341835
vt 0.742410 0.341835
vt 0.742410 0.297282
vt 0.730879 0.341835
vt 0.730879 0.297282
vt 0.720893 0.341835
vt 0.720893 0.297282
vt 0.475968 0.747025
vt 0.475968 0.791578
vt 0.465981 0.791578
vt 0.465981 0.747025
vt 0.821504 0.430941
vt 0.811517 0.430941
vt 0.454450 0.791578
vt 0.454450 0.747025
vt 0.444464 0.791578
vt 0.444464 0.747025
vt 0.799986 0.252729
vt 0.811517 0.252729
vt 0.382550 0.645331
vt 0.371019 0.645331
vt 0.361033 0.639565
vt 0.355267 0.629579
vt 0.355267 0.618048
vt 0.361033 0.608061
vt 0.371019 0.602296
vt 0.382550 0.602296
vt 0.392537 0.608061
vt 0.398302 0.618048
vt 0.398302 0.629579
vt 0.392537 0.639565
vt 0.454450 0.880684
vt 0.444464 0.880684
vt 0.683289 0.880684
vt 0.673303 0.880684
vt 0.661772 0.880684
vt 0.651786 0.880684
vt 0.465981 0.880684
vt 0.475968 0.880684
vt 0.730879 0.430941
vt 0.720893 0.430941
vt 0.742410 0.430941
vt 0.752397 0.430941
vt 0.799986 0.430941
vt 0.790000 0.430941
vt 0.799986 0.208176
vt 0.811517 0.208176
vt 0.821504 0.252729
vt 0.444464 0.702472
vt 0.454450 0.702472
vt 0.673303 0.702472
vt 0.683289 0.702472
vt 0.651786 0.702472
vt 0.661772 0.702472
vt 0.465981 0.702472
vt 0.475968 0.702472
vt 0.720893 0.252729
vt 0.730879 0.252729
vt 0.742410 0.252729
vt 0.752396 0.252729
vt 0.790000 0.252729
vt 0.513571 0.018802
vt 0.523557 0.018802
vt 0.444464 0.657919
vt 0.454450 0.657919
vt 0.661772 0.657919
vt 0.720893 0.208176
vt 0.730879 0.208176
vt 0.790000 0.208176
vt 0.651786 0.657919
vt 0.465981 0.657919
vt 0.475968 0.657919
vt 0.742410 0.208176
vt 0.752397 0.208176
vt 0.821504 0.208176
vt 0.038094 0.330673
vt 0.026955 0.330673
vt 0.018802 0.330673
vt 0.100958 0.616169
vt 0.089820 0.618279
vt 0.078682 0.616169
vt 0.406860 0.330673
vt 0.398707 0.330673
vt 0.387568 0.330673
vt 0.376430 0.330673
vt 0.368276 0.330673
vt 0.018802 0.600417
vt 0.029940 0.602527
vt 0.041078 0.600417
vt 0.089820 0.697038
vt 0.078682 0.694928
vt 0.057386 0.330673
vt 0.049232 0.330673
vt 0.368276 0.442055
vt 0.376430 0.442055
vt 0.376216 0.444229
vt 0.368219 0.442638
vt 0.049232 0.442055
vt 0.038094 0.442055
vt 0.026955 0.442055
vt 0.100958 0.694928
vt 0.057386 0.442055
vt 0.018802 0.442055
vt 0.029940 0.523768
vt 0.041078 0.521657
vt 0.018802 0.521657
vt 0.387568 0.442055
vt 0.398707 0.442055
vt 0.406860 0.442055
vt 0.138562 0.530067
vt 0.149700 0.528409
vt 0.149700 0.536111
vt 0.138562 0.537254
vt 0.406062 0.450165
vt 0.398065 0.448574
vt 0.049446 0.444229
vt 0.038522 0.446401
vt 0.027598 0.448574
vt 0.019600 0.450165
vt 0.217734 0.523830
vt 0.228872 0.521720
vt 0.228872 0.522172
vt 0.387140 0.446401
vt 0.149700 0.521657
vt 0.160838 0.523768
vt 0.160838 0.530067
vt 0.206595 0.521720
vt 0.206595 0.522172
vt 0.138562 0.523768
vt 0.057443 0.442638
vt 0.149700 0.544469
vt 0.138562 0.545052
vt 0.057613 0.443198
vt 0.050080 0.446318
vt 0.039789 0.450580
vt 0.029499 0.454843
vt 0.375582 0.446318
vt 0.368049 0.443198
vt 0.403696 0.457963
vt 0.396163 0.454843
vt 0.021966 0.457963
vt 0.228872 0.522688
vt 0.385873 0.450580
vt 0.160838 0.537254
vt 0.206595 0.522688
vt 0.374553 0.448244
vt 0.383814 0.454432
vt 0.381044 0.457807
vt 0.373168 0.449931
vt 0.057889 0.443714
vt 0.051109 0.448244
vt 0.041848 0.454432
vt 0.032587 0.460620
vt 0.367773 0.443714
vt 0.399855 0.465150
vt 0.393075 0.460620
vt 0.025807 0.465150
vt 0.228872 0.523248
vt 0.160838 0.545052
vt 0.206595 0.523248
vt 0.377668 0.460578
vt 0.371480 0.451317
vt 0.149700 0.553161
vt 0.138562 0.553161
vt 0.198442 0.521657
vt 0.206595 0.523831
vt 0.198442 0.523830
vt 0.044618 0.457807
vt 0.036742 0.465683
vt 0.237026 0.521657
vt 0.237026 0.523830
vt 0.228872 0.523831
vt 0.394685 0.471449
vt 0.388920 0.465683
vt 0.052494 0.449931
vt 0.030977 0.471449
vt 0.160838 0.553161
vt 0.206595 0.524413
vt 0.206595 0.524973
vt 0.149700 0.561853
vt 0.138562 0.561271
vt 0.198442 0.526004
vt 0.047994 0.460578
vt 0.041806 0.469839
vt 0.237026 0.526004
vt 0.228872 0.524413
vt 0.388386 0.476618
vt 0.383856 0.469839
vt 0.054182 0.451317
vt 0.037276 0.476618
vt 0.160838 0.561271
vt 0.149700 0.570211
vt 0.160838 0.569069
vt 0.160838 0.576255
vt 0.149700 0.577914
vt 0.373817 0.462636
vt 0.369554 0.452346
vt 0.138562 0.569069
vt 0.058712 0.444537
vt 0.059228 0.444813
vt 0.056108 0.452346
vt 0.051845 0.462636
vt 0.047583 0.472927
vt 0.366950 0.444537
vt 0.366434 0.444813
vt 0.381199 0.480460
vt 0.378079 0.472927
vt 0.044463 0.480460
vt 0.228872 0.524973
vt 0.160838 0.677370
vt 0.149700 0.679480
vt 0.206595 0.525489
vt 0.369638 0.463904
vt 0.367465 0.452980
vt 0.138562 0.576255
vt 0.059788 0.444983
vt 0.058197 0.452980
vt 0.056024 0.463904
vt 0.053851 0.474828
vt 0.365874 0.444983
vt 0.373401 0.482825
vt 0.371811 0.474828
vt 0.052261 0.482825
vt 0.228872 0.525489
vt 0.285959 0.765039
vt 0.294252 0.763573
vt 0.301435 0.767971
vt 0.305582 0.777056
vt 0.305582 0.788392
vt 0.301435 0.798943
vt 0.294253 0.805881
vt 0.285959 0.807347
vt 0.278776 0.802949
vt 0.274629 0.793864
vt 0.274629 0.782528
vt 0.278776 0.771977
vt 0.217734 0.618646
vt 0.206595 0.620756
vt 0.231633 0.464762
vt 0.231633 0.453624
vt 0.138562 0.677370
vt 0.194029 0.445470
vt 0.194029 0.453624
vt 0.194029 0.464762
vt 0.194029 0.475900
vt 0.231633 0.445470
vt 0.231633 0.484054
vt 0.231633 0.475900
vt 0.194029 0.484054
vt 0.228872 0.620756
vt 0.382550 0.725969
vt 0.371019 0.725969
vt 0.361033 0.720204
vt 0.355267 0.710217
vt 0.355267 0.698686
vt 0.361033 0.688700
vt 0.371019 0.682934
vt 0.382550 0.682934
vt 0.392537 0.688700
vt 0.398302 0.698686
vt 0.398302 0.710217
vt 0.392537 0.720204
vt 0.290381 0.645331
vt 0.280395 0.639565
vt 0.274629 0.629579
vt 0.274629 0.618048
vt 0.280395 0.608062
vt 0.290381 0.602296
vt 0.301912 0.602296
vt 0.311898 0.608062
vt 0.317664 0.618048
vt 0.317664 0.629579
vt 0.311898 0.639565
vt 0.301912 0.645331
vt 0.290381 0.564692
vt 0.280395 0.558927
vt 0.274629 0.548941
vt 0.274629 0.537409
vt 0.280395 0.527423
vt 0.290381 0.521657
vt 0.301912 0.521658
vt 0.311898 0.527423
vt 0.317664 0.537409
vt 0.317664 0.548941
vt 0.311898 0.558927
vt 0.301912 0.564692
vt 0.742410 0.468544
vt 0.752396 0.468544
vt 0.582678 0.468545
vt 0.661772 0.468544
vt 0.730879 0.468544
vt 0.651786 0.468544
vt 0.720893 0.468544
vt 0.880625 0.018802
vt 0.890611 0.018802
vt 0.811517 0.018802
vt 0.821504 0.018802
vt 0.465981 0.018802
vt 0.475968 0.018802
vt 0.869093 0.018802
vt 0.799986 0.018802
vt 0.454450 0.018802
vt 0.859107 0.018802
vt 0.790000 0.018802
vt 0.444464 0.018802
vt 0.535089 0.468545
vt 0.545075 0.468545
vt 0.742410 0.018802
vt 0.752396 0.018802
vt 0.523557 0.468545
vt 0.730879 0.018802
vt 0.673303 0.018802
vt 0.683289 0.018802
vt 0.513571 0.468545
vt 0.720893 0.018802
vt 0.661772 0.018802
vt 0.604196 0.018802
vt 0.614182 0.018802
vt 0.465981 0.468545
vt 0.475968 0.468545
vt 0.651786 0.018802
vt 0.592665 0.018802
vt 0.454450 0.468545
vt 0.535089 0.018802
vt 0.545075 0.018802
vt 0.582678 0.018802
vt 0.444464 0.468545
vt 0.614182 0.468545
vt 0.919704 0.901645
vt 0.906313 0.901645
vt 0.904519 0.892176
vt 0.917910 0.892176
vt 0.814128 0.784169
vt 0.795190 0.784169
vt 0.795190 0.777237
vt 0.814128 0.777237
vt 0.795190 0.767769
vt 0.814128 0.767769
vt 0.795190 0.758300
vt 0.814128 0.758300
vt 0.795190 0.751368
vt 0.814128 0.751368
vt 0.078682 0.891614
vt 0.092072 0.891614
vt 0.093867 0.901083
vt 0.080476 0.901083
vt 0.092072 0.910552
vt 0.078682 0.910552
vt 0.795190 0.821772
vt 0.814128 0.821772
vt 0.814128 0.828704
vt 0.795190 0.828704
vt 0.814128 0.838173
vt 0.795190 0.838173
vt 0.814128 0.847641
vt 0.795190 0.847641
vt 0.910415 0.690080
vt 0.910415 0.684169
vt 0.917254 0.684169
vt 0.917254 0.690080
vt 0.814128 0.854573
vt 0.795190 0.854573
vt 0.917910 0.911114
vt 0.904519 0.911114
vt 0.078682 0.837897
vt 0.078682 0.828260
vt 0.082207 0.820537
vt 0.088313 0.816798
vt 0.095364 0.818045
vt 0.101470 0.823943
vt 0.104995 0.832912
vt 0.104995 0.842549
vt 0.101470 0.850272
vt 0.095364 0.854011
vt 0.088313 0.852765
vt 0.082207 0.846867
vt 0.819566 0.489277
vt 0.819566 0.481059
vt 0.821504 0.480007
vt 0.821504 0.489644
vt 0.816560 0.474473
vt 0.817978 0.472284
vt 0.811353 0.471285
vt 0.811872 0.468545
vt 0.805341 0.472348
vt 0.804822 0.469791
vt 0.800134 0.477377
vt 0.798716 0.475689
vt 0.797128 0.485025
vt 0.795190 0.484658
vt 0.797128 0.493243
vt 0.795190 0.494295
vt 0.800134 0.499829
vt 0.798716 0.502018
vt 0.805341 0.503017
vt 0.804822 0.505757
vt 0.811353 0.501954
vt 0.811872 0.504511
vt 0.816560 0.496925
vt 0.817978 0.498613
vt 0.933907 0.029759
vt 0.933907 0.036085
vt 0.928214 0.036085
vt 0.928214 0.029759
vt 0.918612 0.543361
vt 0.918612 0.549272
vt 0.911773 0.549272
vt 0.911773 0.543361
vt 0.549959 0.926362
vt 0.551489 0.934436
vt 0.546653 0.934436
vt 0.545123 0.926362
vt 0.918612 0.565420
vt 0.918612 0.571331
vt 0.911773 0.571331
vt 0.911773 0.565420
vt 0.910415 0.698154
vt 0.917254 0.698154
vt 0.589092 0.926362
vt 0.590622 0.918287
vt 0.595458 0.918287
vt 0.593928 0.926362
vt 0.918612 0.557346
vt 0.911773 0.557346
vt 0.910415 0.706228
vt 0.917254 0.706228
vt 0.590622 0.934436
vt 0.595458 0.934436
vt 0.910415 0.712139
vt 0.917254 0.712139
vt 0.551489 0.918287
vt 0.546653 0.918287
vt 0.815199 0.626897
vt 0.812844 0.620905
vt 0.814622 0.618789
vt 0.817629 0.626437
vt 0.808765 0.616965
vt 0.809416 0.613759
vt 0.804054 0.616132
vt 0.803403 0.612697
vt 0.799975 0.618630
vt 0.798196 0.615885
vt 0.797620 0.623790
vt 0.795190 0.622471
vt 0.797620 0.630228
vt 0.795190 0.630688
vt 0.799975 0.636220
vt 0.798196 0.638337
vt 0.804054 0.640161
vt 0.803403 0.643366
vt 0.808765 0.640994
vt 0.809416 0.644429
vt 0.812844 0.638496
vt 0.814622 0.641241
vt 0.815199 0.633336
vt 0.817629 0.634655
vt 0.142599 0.943736
vt 0.142599 0.939156
vt 0.149023 0.939156
vt 0.149023 0.943736
vt 0.928214 0.095602
vt 0.928214 0.089276
vt 0.933907 0.089276
vt 0.933907 0.095602
vt 0.078682 0.960807
vt 0.079880 0.954481
vt 0.083906 0.954481
vt 0.082707 0.960807
vt 0.933907 0.023433
vt 0.928214 0.023433
vt 0.928214 0.100233
vt 0.933907 0.100233
vt 0.960240 0.543361
vt 0.961439 0.549687
vt 0.957414 0.549687
vt 0.956215 0.543361
vt 0.928214 0.082950
vt 0.928214 0.078319
vt 0.933907 0.078319
vt 0.933907 0.082950
vt 0.933907 0.018802
vt 0.928214 0.018802
vt 0.960240 0.556013
vt 0.956215 0.556013
vt 0.933907 0.040715
vt 0.928214 0.040715
vt 0.078682 0.948155
vt 0.082707 0.948155
vt 0.870385 0.697805
vt 0.870385 0.693144
vt 0.872812 0.691826
vt 0.872812 0.698265
vt 0.868680 0.689409
vt 0.870457 0.686667
vt 0.865727 0.687601
vt 0.866377 0.684169
vt 0.405729 0.888575
vt 0.405729 0.892038
vt 0.402463 0.892121
vt 0.402463 0.887338
vt 0.862317 0.688203
vt 0.859364 0.691056
vt 0.857587 0.688942
vt 0.861667 0.685001
vt 0.857659 0.695394
vt 0.855232 0.694934
vt 0.857659 0.700055
vt 0.855232 0.701373
vt 0.859364 0.703790
vt 0.857587 0.706532
vt 0.862317 0.705598
vt 0.861667 0.709030
vt 0.865727 0.704996
vt 0.866377 0.708198
vt 0.868680 0.702143
vt 0.870456 0.704257
vt 0.960142 0.602913
vt 0.957875 0.602913
vt 0.957875 0.593616
vt 0.960142 0.593616
vt 0.972183 0.380484
vt 0.973051 0.375905
vt 0.977594 0.375905
vt 0.976726 0.380484
vt 0.281054 0.927699
vt 0.281054 0.932278
vt 0.274629 0.932278
vt 0.274629 0.927699
vt 0.142599 0.948315
vt 0.149023 0.948315
vt 0.973051 0.385064
vt 0.977594 0.385064
vt 0.281054 0.923119
vt 0.274629 0.923119
vt 0.142599 0.951668
vt 0.149023 0.951668
vt 0.976921 0.298767
vt 0.976053 0.303347
vt 0.971510 0.303347
vt 0.972378 0.298767
vt 0.142599 0.935804
vt 0.149023 0.935804
vt 0.281054 0.919767
vt 0.274629 0.919767
vt 0.976921 0.307926
vt 0.972378 0.307926
vt 0.281054 0.935631
vt 0.274629 0.935631
vt 0.453977 0.927883
vt 0.453977 0.925576
vt 0.457190 0.923831
vt 0.457190 0.928492
vt 0.453133 0.923727
vt 0.455485 0.920096
vt 0.451671 0.922831
vt 0.452532 0.918287
vt 0.449983 0.923130
vt 0.449122 0.918890
vt 0.448521 0.924542
vt 0.446169 0.921743
vt 0.447677 0.926689
vt 0.444464 0.926081
vt 0.447677 0.928997
vt 0.444464 0.930742
vt 0.448521 0.930846
vt 0.446169 0.934477
vt 0.449983 0.931741
vt 0.449122 0.936285
vt 0.451671 0.931443
vt 0.452532 0.935682
vt 0.453133 0.930031
vt 0.455485 0.932830
vt 0.977811 0.114960
vt 0.977811 0.117267
vt 0.976967 0.119415
vt 0.975505 0.120827
vt 0.973816 0.121125
vt 0.972354 0.120230
vt 0.971510 0.118381
vt 0.971510 0.116073
vt 0.972354 0.113926
vt 0.973816 0.112514
vt 0.975505 0.112215
vt 0.976967 0.113110
vt 0.276896 0.980237
vt 0.274629 0.979808
vt 0.274629 0.973234
vt 0.276896 0.973664
vt 0.961235 0.892176
vt 0.963502 0.892176
vt 0.963502 0.901473
vt 0.961235 0.901473
vt 0.962409 0.602913
vt 0.962409 0.593616
vt 0.279163 0.979808
vt 0.279163 0.973234
vt 0.958967 0.892176
vt 0.958967 0.901473
vt 0.964069 0.602913
vt 0.964069 0.593616
vt 0.633062 0.972039
vt 0.635329 0.972469
vt 0.635329 0.979043
vt 0.633062 0.978613
vt 0.956215 0.602913
vt 0.956215 0.593616
vt 0.957308 0.892176
vt 0.957308 0.901473
vt 0.637596 0.972039
vt 0.637596 0.978613
vt 0.965161 0.892176
vt 0.965161 0.901473
vt 0.810375 0.901645
vt 0.796984 0.901645
vt 0.795190 0.892176
vt 0.808581 0.892176
vt 0.870669 0.784169
vt 0.851731 0.784169
vt 0.851731 0.777237
vt 0.870669 0.777237
vt 0.851731 0.767769
vt 0.870669 0.767769
vt 0.851731 0.758300
vt 0.870669 0.758300
vt 0.851731 0.751368
vt 0.870669 0.751368
vt 0.851731 0.892176
vt 0.865122 0.892176
vt 0.866916 0.901645
vt 0.853525 0.901645
vt 0.865122 0.911114
vt 0.851731 0.911114
vt 0.851731 0.821772
vt 0.870669 0.821772
vt 0.870669 0.828704
vt 0.851731 0.828704
vt 0.870669 0.838173
vt 0.851731 0.838173
vt 0.870669 0.847641
vt 0.851731 0.847641
vt 0.911773 0.614845
vt 0.911773 0.608934
vt 0.918612 0.608934
vt 0.918612 0.614845
vt 0.870669 0.854573
vt 0.851731 0.854573
vt 0.808581 0.911114
vt 0.795190 0.911114
vt 0.274629 0.866050
vt 0.274629 0.856413
vt 0.278154 0.848690
vt 0.284260 0.844951
vt 0.291311 0.846197
vt 0.297417 0.852095
vt 0.300942 0.861064
vt 0.300943 0.870701
vt 0.297417 0.878424
vt 0.291311 0.882163
vt 0.284260 0.880917
vt 0.278154 0.875019
vt 0.362922 0.861431
vt 0.359916 0.853783
vt 0.361334 0.852095
vt 0.364859 0.861064
vt 0.354709 0.848754
vt 0.355228 0.846197
vt 0.348696 0.847691
vt 0.348177 0.844951
vt 0.343490 0.850879
vt 0.342071 0.848690
vt 0.340484 0.857465
vt 0.338546 0.856413
vt 0.340484 0.865683
vt 0.338546 0.866050
vt 0.343490 0.873331
vt 0.342071 0.875019
vt 0.348697 0.878360
vt 0.348177 0.880917
vt 0.354709 0.879423
vt 0.355228 0.882163
vt 0.359916 0.876235
vt 0.361334 0.878424
vt 0.362922 0.869649
vt 0.364859 0.870701
vt 0.933907 0.148793
vt 0.933907 0.155119
vt 0.928214 0.155119
vt 0.928214 0.148793
vt 0.929863 0.468545
vt 0.929863 0.474455
vt 0.923024 0.474455
vt 0.923024 0.468545
vt 0.681866 0.926362
vt 0.683396 0.934436
vt 0.678560 0.934436
vt 0.677030 0.926362
vt 0.929863 0.490604
vt 0.929863 0.496515
vt 0.923024 0.496515
vt 0.923024 0.490604
vt 0.911773 0.622919
vt 0.918612 0.622919
vt 0.720999 0.926362
vt 0.722529 0.918287
vt 0.727365 0.918287
vt 0.725835 0.926362
vt 0.929863 0.482530
vt 0.923024 0.482530
vt 0.911773 0.630993
vt 0.918612 0.630993
vt 0.722529 0.934436
vt 0.727365 0.934436
vt 0.911773 0.636904
vt 0.918612 0.636904
vt 0.683396 0.918287
vt 0.678560 0.918287
vt 0.815199 0.696233
vt 0.812844 0.690241
vt 0.814622 0.688125
vt 0.817629 0.695773
vt 0.808765 0.686301
vt 0.809416 0.683095
vt 0.804054 0.685468
vt 0.803403 0.682032
vt 0.799975 0.687966
vt 0.798196 0.685221
vt 0.797620 0.693126
vt 0.795190 0.691806
vt 0.797620 0.699564
vt 0.795190 0.700024
vt 0.799975 0.705556
vt 0.798196 0.707673
vt 0.804054 0.709497
vt 0.803403 0.712702
vt 0.808765 0.710329
vt 0.809416 0.713765
vt 0.812844 0.707831
vt 0.814622 0.710576
vt 0.815199 0.702672
vt 0.817629 0.703991
vt 0.952714 0.815841
vt 0.952714 0.811262
vt 0.959139 0.811262
vt 0.959139 0.815841
vt 0.928214 0.214636
vt 0.928214 0.208310
vt 0.933907 0.208310
vt 0.933907 0.214636
vt 0.838018 0.961369
vt 0.839216 0.955043
vt 0.843241 0.955043
vt 0.842043 0.961369
vt 0.933907 0.142467
vt 0.928214 0.142467
vt 0.928214 0.219267
vt 0.933907 0.219267
vt 0.884870 0.948717
vt 0.886069 0.955043
vt 0.882043 0.955043
vt 0.880845 0.948717
vt 0.928214 0.201984
vt 0.928214 0.197353
vt 0.933907 0.197353
vt 0.933907 0.201984
vt 0.933907 0.137836
vt 0.928214 0.137836
vt 0.884870 0.961369
vt 0.880845 0.961369
vt 0.933907 0.159750
vt 0.928214 0.159750
vt 0.838018 0.948717
vt 0.842043 0.948717
vt 0.157752 0.830435
vt 0.157752 0.825774
vt 0.160178 0.824456
vt 0.160178 0.830894
vt 0.156047 0.822038
vt 0.157823 0.819296
vt 0.153093 0.820230
vt 0.153744 0.816798
vt 0.405729 0.846188
vt 0.405729 0.849651
vt 0.402463 0.849734
vt 0.402463 0.844951
vt 0.149683 0.820833
vt 0.146730 0.823685
vt 0.144954 0.821571
vt 0.149033 0.817631
vt 0.145025 0.828023
vt 0.142599 0.827564
vt 0.145025 0.832684
vt 0.142599 0.834002
vt 0.146730 0.836419
vt 0.144954 0.839162
vt 0.149683 0.838228
vt 0.149033 0.841660
vt 0.153093 0.837625
vt 0.153744 0.840827
vt 0.156047 0.834772
vt 0.157823 0.836887
vt 0.964987 0.760665
vt 0.962720 0.760665
vt 0.962720 0.751368
vt 0.964987 0.751368
vt 0.545123 0.976619
vt 0.545991 0.972039
vt 0.550534 0.972039
vt 0.549666 0.976619
vt 0.961282 0.692101
vt 0.961282 0.696680
vt 0.954857 0.696680
vt 0.954857 0.692101
vt 0.952714 0.820421
vt 0.959139 0.820421
vt 0.545991 0.981198
vt 0.550534 0.981198
vt 0.961282 0.687521
vt 0.954857 0.687521
vt 0.952714 0.823773
vt 0.959139 0.823773
vt 0.976921 0.252005
vt 0.976053 0.256584
vt 0.971510 0.256584
vt 0.972378 0.252005
vt 0.952714 0.807909
vt 0.959139 0.807909
vt 0.961282 0.684169
vt 0.954857 0.684169
vt 0.976921 0.261164
vt 0.972378 0.261164
vt 0.961282 0.700033
vt 0.954857 0.700033
vt 0.504307 0.926689
vt 0.503463 0.924542
vt 0.505815 0.921743
vt 0.507520 0.926081
vt 0.502001 0.923130
vt 0.502862 0.918890
vt 0.500313 0.922831
vt 0.499452 0.918287
vt 0.498851 0.923726
vt 0.496499 0.920096
vt 0.498007 0.925576
vt 0.494794 0.923831
vt 0.498007 0.927883
vt 0.494794 0.928492
vt 0.498851 0.930031
vt 0.496499 0.932830
vt 0.500313 0.931443
vt 0.499452 0.935682
vt 0.502001 0.931741
vt 0.502862 0.936285
vt 0.503463 0.930846
vt 0.505815 0.934477
vt 0.504307 0.928997
vt 0.507520 0.930742
vt 0.976967 0.067412
vt 0.977811 0.069560
vt 0.977811 0.071867
vt 0.976967 0.073716
vt 0.975505 0.074612
vt 0.973816 0.074313
vt 0.972354 0.072901
vt 0.971510 0.070754
vt 0.971510 0.068446
vt 0.972354 0.066597
vt 0.973816 0.065702
vt 0.975505 0.066000
vt 0.679298 0.979043
vt 0.677030 0.978613
vt 0.677030 0.972039
vt 0.679298 0.972469
vt 0.970426 0.948717
vt 0.972693 0.948717
vt 0.972693 0.958014
vt 0.970426 0.958014
vt 0.967254 0.760665
vt 0.967254 0.751368
vt 0.681565 0.978613
vt 0.681565 0.972039
vt 0.968159 0.948717
vt 0.968159 0.958014
vt 0.968914 0.760665
vt 0.968914 0.751368
vt 0.972183 0.422667
vt 0.974450 0.423097
vt 0.974450 0.429671
vt 0.972183 0.429241
vt 0.961060 0.760665
vt 0.961060 0.751368
vt 0.966499 0.948717
vt 0.966499 0.958014
vt 0.976717 0.422667
vt 0.976717 0.429241
vt 0.974353 0.948717
vt 0.974353 0.958014
vt 0.923457 0.760837
vt 0.910066 0.760837
vt 0.908272 0.751368
vt 0.921663 0.751368
vt 0.874169 0.576161
vt 0.855232 0.576161
vt 0.855232 0.569230
vt 0.874169 0.569230
vt 0.855232 0.559761
vt 0.874169 0.559761
vt 0.855232 0.550292
vt 0.874169 0.550292
vt 0.855232 0.543361
vt 0.874169 0.543361
vt 0.142599 0.879263
vt 0.155989 0.879263
vt 0.157783 0.888732
vt 0.144393 0.888732
vt 0.155989 0.898201
vt 0.142599 0.898201
vt 0.855232 0.613765
vt 0.874169 0.613765
vt 0.874169 0.620696
vt 0.855232 0.620696
vt 0.874169 0.630165
vt 0.855232 0.630165
vt 0.874169 0.639634
vt 0.855232 0.639634
vt 0.153999 0.722995
vt 0.153999 0.717084
vt 0.160838 0.717084
vt 0.160838 0.722995
vt 0.874169 0.646565
vt 0.855232 0.646565
vt 0.921663 0.770306
vt 0.908272 0.770306
vt 0.859107 0.489644
vt 0.859107 0.480006
vt 0.862632 0.472284
vt 0.868738 0.468544
vt 0.875789 0.469791
vt 0.881895 0.475689
vt 0.885421 0.484658
vt 0.885421 0.494295
vt 0.881895 0.502018
vt 0.875789 0.505757
vt 0.868739 0.504511
vt 0.862632 0.498613
vt 0.222817 0.859718
vt 0.219811 0.852070
vt 0.221230 0.850382
vt 0.224755 0.859351
vt 0.214604 0.847040
vt 0.215124 0.844484
vt 0.208592 0.845978
vt 0.208073 0.843237
vt 0.203385 0.849166
vt 0.201967 0.846977
vt 0.200379 0.855752
vt 0.198442 0.854699
vt 0.200379 0.863970
vt 0.198442 0.864337
vt 0.203385 0.871618
vt 0.201967 0.873306
vt 0.208592 0.876647
vt 0.208073 0.879204
vt 0.214604 0.877710
vt 0.215124 0.880450
vt 0.219811 0.874522
vt 0.221230 0.876711
vt 0.222817 0.867936
vt 0.224755 0.868988
vt 0.933907 0.267827
vt 0.933907 0.274153
vt 0.928214 0.274153
vt 0.928214 0.267827
vt 0.915111 0.807909
vt 0.915111 0.813820
vt 0.908272 0.813820
vt 0.908272 0.807909
vt 0.637897 0.926362
vt 0.639427 0.934436
vt 0.634591 0.934436
vt 0.633061 0.926362
vt 0.915111 0.829968
vt 0.915111 0.835879
vt 0.908272 0.835879
vt 0.908272 0.829968
vt 0.153999 0.731069
vt 0.160838 0.731069
vt 0.928214 0.383979
vt 0.929744 0.375905
vt 0.934580 0.375905
vt 0.933050 0.383979
vt 0.915111 0.821894
vt 0.908272 0.821894
vt 0.153999 0.739143
vt 0.160838 0.739143
vt 0.929744 0.392053
vt 0.934580 0.392053
vt 0.153999 0.745054
vt 0.160838 0.745054
vt 0.639427 0.918287
vt 0.634591 0.918287
vt 0.815199 0.557562
vt 0.812844 0.551569
vt 0.814622 0.549453
vt 0.817628 0.557101
vt 0.808765 0.547629
vt 0.809415 0.544424
vt 0.804054 0.546796
vt 0.803403 0.543361
vt 0.799975 0.549294
vt 0.798196 0.546549
vt 0.797619 0.554454
vt 0.795190 0.553135
vt 0.797619 0.560892
vt 0.795190 0.561353
vt 0.799975 0.566885
vt 0.798196 0.569001
vt 0.804054 0.570825
vt 0.803403 0.574030
vt 0.808765 0.571658
vt 0.809415 0.575093
vt 0.812844 0.569160
vt 0.814622 0.571905
vt 0.815199 0.564000
vt 0.817628 0.565319
vt 0.358435 0.927699
vt 0.358435 0.923119
vt 0.364859 0.923119
vt 0.364859 0.927699
vt 0.928214 0.333671
vt 0.928214 0.327345
vt 0.933907 0.327345
vt 0.933907 0.333671
vt 0.795190 0.961369
vt 0.796389 0.955043
vt 0.800414 0.955043
vt 0.799216 0.961369
vt 0.933907 0.261502
vt 0.928214 0.261502
vt 0.928214 0.338302
vt 0.933907 0.338302
vt 0.927697 0.948717
vt 0.928896 0.955043
vt 0.924871 0.955043
vt 0.923672 0.948717
vt 0.928214 0.321019
vt 0.928214 0.316388
vt 0.933907 0.316388
vt 0.933907 0.321019
vt 0.933907 0.256871
vt 0.928214 0.256871
vt 0.927697 0.961369
vt 0.923672 0.961369
vt 0.933907 0.278784
vt 0.928214 0.278784
vt 0.795190 0.948717
vt 0.799216 0.948717
vt 0.033955 0.874293
vt 0.033955 0.869632
vt 0.036381 0.868315
vt 0.036381 0.874753
vt 0.032250 0.865897
vt 0.034026 0.863155
vt 0.029297 0.864089
vt 0.029947 0.860657
vt 0.405729 0.930962
vt 0.405729 0.934425
vt 0.402463 0.934508
vt 0.402463 0.929725
vt 0.025887 0.864692
vt 0.022933 0.867544
vt 0.021157 0.865430
vt 0.025236 0.861490
vt 0.021228 0.871882
vt 0.018802 0.871422
vt 0.021228 0.876543
vt 0.018802 0.877861
vt 0.022933 0.880278
vt 0.021157 0.883020
vt 0.025887 0.882087
vt 0.025236 0.885518
vt 0.029297 0.881484
vt 0.029947 0.884686
vt 0.032250 0.878631
vt 0.034026 0.880745
vt 0.971393 0.477841
vt 0.969126 0.477841
vt 0.969126 0.468545
vt 0.971393 0.468545
vt 0.589092 0.976619
vt 0.589960 0.972039
vt 0.594503 0.972039
vt 0.593635 0.976619
vt 0.025226 0.931054
vt 0.025226 0.935633
vt 0.018802 0.935633
vt 0.018802 0.931054
vt 0.358435 0.932278
vt 0.364859 0.932278
vt 0.589960 0.981198
vt 0.594503 0.981198
vt 0.025226 0.926474
vt 0.018802 0.926474
vt 0.358435 0.935631
vt 0.364859 0.935631
vt 0.976921 0.205242
vt 0.976053 0.209822
vt 0.971510 0.209822
vt 0.972378 0.205242
vt 0.358435 0.919767
vt 0.364859 0.919767
vt 0.025226 0.923122
vt 0.018802 0.923122
vt 0.976921 0.214401
vt 0.972378 0.214401
vt 0.025226 0.938986
vt 0.018802 0.938986
vt 0.207955 0.927650
vt 0.207955 0.925342
vt 0.211168 0.923597
vt 0.211168 0.928258
vt 0.207111 0.923493
vt 0.209463 0.919862
vt 0.205649 0.922598
vt 0.206510 0.918054
vt 0.203961 0.922896
vt 0.203100 0.918657
vt 0.202499 0.924308
vt 0.200147 0.921509
vt 0.201655 0.926456
vt 0.198442 0.925847
vt 0.201655 0.928763
vt 0.198442 0.930508
vt 0.202499 0.930612
vt 0.200147 0.934243
vt 0.203961 0.931508
vt 0.203100 0.936052
vt 0.205649 0.931209
vt 0.206510 0.935449
vt 0.207111 0.929797
vt 0.209463 0.932596
vt 0.976967 0.160439
vt 0.977811 0.162587
vt 0.977811 0.164894
vt 0.976967 0.166743
vt 0.975505 0.167639
vt 0.973816 0.167340
vt 0.972354 0.165928
vt 0.971510 0.163781
vt 0.971510 0.161473
vt 0.972354 0.159624
vt 0.973816 0.158729
vt 0.975505 0.159027
vt 0.360702 0.980237
vt 0.358435 0.979808
vt 0.358435 0.973234
vt 0.360702 0.973664
vt 0.975437 0.018802
vt 0.977704 0.018802
vt 0.977704 0.028098
vt 0.975437 0.028098
vt 0.973660 0.477841
vt 0.973660 0.468545
vt 0.362969 0.979808
vt 0.362969 0.973234
vt 0.973170 0.018802
vt 0.973170 0.028098
vt 0.975320 0.477841
vt 0.975320 0.468545
vt 0.720999 0.972039
vt 0.723267 0.972469
vt 0.723267 0.979042
vt 0.720999 0.978613
vt 0.967466 0.477841
vt 0.967466 0.468545
vt 0.971510 0.018802
vt 0.971510 0.028098
vt 0.725534 0.972039
vt 0.725534 0.978613
vt 0.979364 0.018802
vt 0.979364 0.028098
s 0
f 1/1/1 2/2/1 4/3/1 3/4/1
f 3/4/2 4/3/2 6/5/2 5/6/2
f 5/6/3 6/5/3 8/7/3 7/8/3
f 7/9/4 8/10/4 10/11/4 9/12/4
f 9/12/5 10/11/5 12/13/5 11/14/5
f 11/14/6 12/13/6 14/15/6 13/16/6
f 13/17/7 14/18/7 16/19/7 15/20/7
f 15/20/8 16/19/8 18/21/8 17/22/8
f 17/22/9 18/21/9 20/23/9 19/24/9
f 19/25/10 20/26/10 22/27/10 21/28/10
f 10/11/4 8/10/4 28/29/4 29/30/4
f 21/28/11 22/27/11 24/31/11 23/32/11
f 23/32/12 24/31/12 2/33/12 1/34/12
f 9/12/5 11/14/5 42/35/5 41/36/5
f 26/37/13 25/38/13 36/39/13 35/40/13 34/41/13 33/42/13 32/43/13 31/44/13 30/45/13 29/46/13 28/47/13 27/48/13
f 2/33/12 24/31/12 36/49/12 25/50/12
f 4/3/1 2/2/1 25/51/1 26/52/1
f 8/7/3 6/5/3 27/53/3 28/54/3
f 24/31/11 22/27/11 35/55/11 36/49/11
f 6/5/2 4/3/2 26/52/2 27/53/2
f 22/27/10 20/26/10 34/56/10 35/55/10
f 20/23/9 18/21/9 33/57/9 34/58/9
f 18/21/8 16/19/8 32/59/8 33/57/8
f 16/19/7 14/18/7 31/60/7 32/59/7
f 14/15/6 12/13/6 30/61/6 31/62/6
f 12/13/5 10/11/5 29/30/5 30/61/5
f 41/36/5 42/35/5 54/63/5 53/64/5
f 7/9/4 9/12/4 41/36/4 40/65/4
f 23/32/12 1/34/12 37/66/12 48/67/12
f 1/1/1 3/4/1 38/68/1 37/69/1
f 5/6/3 7/8/3 40/70/3 39/71/3
f 21/28/11 23/32/11 48/67/11 47/72/11
f 3/4/2 5/6/2 39/71/2 38/68/2
f 19/25/10 21/28/10 47/72/10 46/73/10
f 17/22/9 19/24/9 46/74/9 45/75/9
f 15/20/8 17/22/8 45/75/8 44/76/8
f 13/17/7 15/20/7 44/76/7 43/77/7
f 11/14/6 13/16/6 43/78/6 42/35/6
f 227/79/1 228/80/1 386/81/1 385/82/1
f 48/67/12 37/66/12 49/83/12 60/84/12
f 38/68/2 39/71/2 51/85/2 50/86/2
f 45/75/9 46/74/9 58/87/9 57/88/9
f 42/35/6 43/78/6 55/89/6 54/63/6
f 39/71/3 40/70/3 52/90/3 51/85/3
f 46/73/10 47/72/10 59/91/10 58/92/10
f 43/77/7 44/76/7 56/93/7 55/94/7
f 40/65/4 41/36/4 53/64/4 52/95/4
f 47/72/11 48/67/11 60/84/11 59/91/11
f 37/69/1 38/68/1 50/86/1 49/96/1
f 44/76/8 45/75/8 57/88/8 56/93/8
f 67/97/14 65/98/14 83/99/14 64/100/14 80/101/14 78/102/14 76/103/14 63/104/14 62/105/14 72/106/14 61/107/14 69/108/14
f 65/109/15 66/110/15 68/111/15 67/112/15
f 67/112/16 68/111/16 70/113/16 69/114/16
f 69/108/17 70/115/17 71/116/17 61/107/17
f 61/107/18 71/116/18 73/117/18 72/106/18
f 72/118/19 73/119/19 74/120/19 62/121/19
f 62/121/20 74/120/20 75/122/20 63/123/20
f 63/123/21 75/122/21 77/124/21 76/125/21
f 76/125/22 77/124/22 79/126/22 78/127/22
f 78/128/23 79/129/23 81/130/23 80/131/23
f 80/131/24 81/130/24 82/132/24 64/133/24
f 73/134/18 71/135/18 88/136/18 89/137/18
f 64/138/25 82/139/25 84/140/25 83/141/25
f 83/141/26 84/140/26 66/110/26 65/109/26
f 86/142/14 85/143/14 94/144/14 93/145/14 92/146/14 91/147/14 163/148/14 90/149/14 160/150/14 89/151/14 88/152/14 87/153/14
f 66/110/26 84/140/26 94/154/26 85/155/26
f 68/111/15 66/110/15 85/155/15 86/156/15
f 71/135/17 70/157/17 87/158/17 88/136/17
f 84/140/25 82/139/25 93/159/25 94/154/25
f 70/113/16 68/111/16 86/156/16 87/160/16
f 82/132/24 81/130/24 92/161/24 93/162/24
f 81/130/23 79/129/23 91/163/23 92/161/23
f 79/126/22 77/124/22 163/164/22 91/165/22
f 77/124/21 75/122/21 90/166/21 163/164/21
f 75/122/20 74/120/20 160/167/20 90/166/20
f 74/120/19 73/119/19 89/168/19 160/167/19
f 95/169/1 96/170/1 98/171/1 97/172/1
f 97/172/2 98/171/2 100/173/2 99/174/2
f 99/174/3 100/173/3 102/175/3 101/176/3
f 101/177/4 102/178/4 104/179/4 103/180/4
f 103/180/5 104/179/5 106/181/5 105/182/5
f 105/182/6 106/181/6 108/183/6 107/184/6
f 107/185/7 108/186/7 110/187/7 109/188/7
f 109/188/8 110/187/8 112/189/8 111/190/8
f 111/190/9 112/189/9 114/191/9 113/192/9
f 113/193/10 114/194/10 116/195/10 115/196/10
f 104/179/4 102/178/4 122/197/4 123/198/4
f 115/196/11 116/195/11 118/199/11 117/200/11
f 117/200/12 118/199/12 96/201/12 95/202/12
f 103/180/5 105/182/5 136/203/5 135/204/5
f 120/205/13 119/206/13 130/207/13 129/208/13 128/209/13 127/210/13 126/211/13 125/212/13 124/213/13 123/214/13 122/215/13 121/216/13
f 96/201/12 118/199/12 130/217/12 119/218/12
f 98/171/1 96/170/1 119/219/1 120/220/1
f 102/175/3 100/173/3 121/221/3 122/222/3
f 118/199/11 116/195/11 129/223/11 130/217/11
f 100/173/2 98/171/2 120/220/2 121/221/2
f 116/195/10 114/194/10 128/224/10 129/223/10
f 114/191/9 112/189/9 127/225/9 128/226/9
f 112/189/8 110/187/8 126/227/8 127/225/8
f 110/187/7 108/186/7 125/228/7 126/227/7
f 108/183/6 106/181/6 124/229/6 125/230/6
f 106/181/5 104/179/5 123/198/5 124/229/5
f 135/204/5 136/203/5 148/231/5 147/232/5
f 101/177/4 103/180/4 135/204/4 134/233/4
f 117/200/12 95/202/12 131/234/12 142/235/12
f 95/169/1 97/172/1 132/236/1 131/237/1
f 99/174/3 101/176/3 134/238/3 133/239/3
f 115/196/11 117/200/11 142/235/11 141/240/11
f 97/172/2 99/174/2 133/239/2 132/236/2
f 113/193/10 115/196/10 141/240/10 140/241/10
f 111/190/9 113/192/9 140/242/9 139/243/9
f 109/188/8 111/190/8 139/243/8 138/244/8
f 107/185/7 109/188/7 138/244/7 137/245/7
f 105/182/6 107/184/6 137/246/6 136/203/6
f 59/91/11 60/84/11 372/247/11 371/248/11
f 142/235/12 131/234/12 143/249/12 154/250/12
f 132/236/2 133/239/2 145/251/2 144/252/2
f 139/243/9 140/242/9 152/253/9 151/254/9
f 136/203/6 137/246/6 149/255/6 148/231/6
f 133/239/3 134/238/3 146/256/3 145/251/3
f 140/241/10 141/240/10 153/257/10 152/258/10
f 137/245/7 138/244/7 150/259/7 149/260/7
f 134/233/4 135/204/4 147/232/4 146/261/4
f 141/240/11 142/235/11 154/250/11 153/257/11
f 131/237/1 132/236/1 144/252/1 143/262/1
f 138/244/8 139/243/8 151/254/8 150/259/8
f 85/155/15 155/263/15 156/264/15 86/156/15
f 86/156/16 156/264/16 157/265/16 87/160/16
f 87/153/17 157/266/17 158/267/17 88/152/17
f 88/152/18 158/267/18 159/268/18 89/151/18
f 89/168/19 159/269/19 161/270/19 160/167/19
f 160/167/20 161/270/20 162/271/20 90/166/20
f 90/166/21 162/271/21 164/272/21 163/164/21
f 163/164/22 164/272/22 165/273/22 91/165/22
f 91/163/23 165/274/23 166/275/23 92/161/23
f 92/161/24 166/275/24 167/276/24 93/162/24
f 159/277/18 158/278/18 172/279/18 243/280/18
f 93/159/25 167/281/25 168/282/25 94/154/25
f 94/154/26 168/282/26 155/263/26 85/155/26
f 170/283/14 169/284/14 178/285/14 177/286/14 176/287/14 175/288/14 174/289/14 246/290/14 173/291/14 243/292/14 172/293/14 171/294/14
f 155/263/26 168/282/26 178/295/26 169/296/26
f 156/264/15 155/263/15 169/296/15 170/297/15
f 158/278/17 157/298/17 171/299/17 172/279/17
f 168/282/25 167/281/25 177/300/25 178/295/25
f 157/265/16 156/264/16 170/297/16 171/301/16
f 167/276/24 166/275/24 176/302/24 177/303/24
f 166/275/23 165/274/23 175/304/23 176/302/23
f 165/273/22 164/272/22 174/305/22 175/306/22
f 164/272/21 162/271/21 246/307/21 174/305/21
f 162/271/20 161/270/20 173/308/20 246/307/20
f 161/270/19 159/269/19 243/309/19 173/308/19
f 179/310/1 180/311/1 182/312/1 181/313/1
f 181/313/2 182/312/2 184/314/2 183/315/2
f 183/315/3 184/314/3 186/316/3 185/317/3
f 185/318/4 186/319/4 188/320/4 187/321/4
f 187/321/5 188/320/5 190/322/5 189/323/5
f 189/323/6 190/322/6 192/324/6 191/325/6
f 191/326/7 192/327/7 194/328/7 193/329/7
f 193/329/8 194/328/8 196/330/8 195/331/8
f 195/331/9 196/330/9 198/332/9 197/333/9
f 197/334/10 198/335/10 200/336/10 199/337/10
f 188/320/4 186/319/4 206/338/4 207/339/4
f 199/337/11 200/336/11 202/340/11 201/341/11
f 201/341/12 202/340/12 180/342/12 179/343/12
f 187/321/5 189/323/5 220/344/5 219/345/5
f 204/346/13 203/347/13 214/348/13 213/349/13 212/350/13 211/351/13 210/352/13 209/353/13 208/354/13 207/355/13 206/356/13 205/357/13
f 180/342/12 202/340/12 214/358/12 203/359/12
f 182/312/1 180/311/1 203/360/1 204/361/1
f 186/316/3 184/314/3 205/362/3 206/363/3
f 202/340/11 200/336/11 213/364/11 214/358/11
f 184/314/2 182/312/2 204/361/2 205/362/2
f 200/336/10 198/335/10 212/365/10 213/364/10
f 198/332/9 196/330/9 211/366/9 212/367/9
f 196/330/8 194/328/8 210/368/8 211/366/8
f 194/328/7 192/327/7 209/369/7 210/368/7
f 192/324/6 190/322/6 208/370/6 209/371/6
f 190/322/5 188/320/5 207/339/5 208/370/5
f 219/345/5 220/344/5 232/372/5 231/373/5
f 185/318/4 187/321/4 219/345/4 218/374/4
f 201/341/12 179/343/12 215/375/12 226/376/12
f 179/310/1 181/313/1 216/377/1 215/378/1
f 183/315/3 185/317/3 218/379/3 217/380/3
f 199/337/11 201/341/11 226/376/11 225/381/11
f 181/313/2 183/315/2 217/380/2 216/377/2
f 197/334/10 199/337/10 225/381/10 224/382/10
f 195/331/9 197/333/9 224/383/9 223/384/9
f 193/329/8 195/331/8 223/384/8 222/385/8
f 191/326/7 193/329/7 222/385/7 221/386/7
f 189/323/6 191/325/6 221/387/6 220/344/6
f 148/231/6 149/255/6 379/388/6 378/389/6
f 226/376/12 215/375/12 227/390/12 238/391/12
f 216/377/2 217/380/2 229/392/2 228/80/2
f 223/384/9 224/383/9 236/393/9 235/394/9
f 220/344/6 221/387/6 233/395/6 232/372/6
f 217/380/3 218/379/3 230/396/3 229/392/3
f 224/382/10 225/381/10 237/397/10 236/398/10
f 221/386/7 222/385/7 234/399/7 233/400/7
f 218/374/4 219/345/4 231/373/4 230/401/4
f 225/381/11 226/376/11 238/391/11 237/397/11
f 215/378/1 216/377/1 228/80/1 227/79/1
f 222/385/8 223/384/8 235/394/8 234/399/8
f 169/296/15 239/402/15 240/403/15 170/297/15
f 170/297/16 240/403/16 241/404/16 171/301/16
f 171/299/17 241/405/17 242/406/17 172/279/17
f 172/279/18 242/406/18 244/407/18 243/280/18
f 243/309/19 244/408/19 245/409/19 173/308/19
f 173/308/20 245/409/20 247/410/20 246/307/20
f 246/307/21 247/410/21 248/411/21 174/305/21
f 174/305/22 248/411/22 249/412/22 175/306/22
f 175/304/23 249/413/23 250/414/23 176/302/23
f 176/302/24 250/414/24 251/415/24 177/303/24
f 244/407/18 242/406/18 256/416/18 257/417/18
f 177/300/25 251/418/25 252/419/25 178/295/25
f 178/295/26 252/419/26 239/402/26 169/296/26
f 261/420/27 260/421/27 272/422/27 273/423/27
f 239/402/26 252/419/26 264/424/26 253/425/26
f 240/403/15 239/402/15 253/425/15 254/426/15
f 242/406/17 241/405/17 255/427/17 256/416/17
f 252/419/25 251/418/25 263/428/25 264/424/25
f 241/404/16 240/403/16 254/426/16 255/429/16
f 251/415/24 250/414/24 262/430/24 263/431/24
f 250/414/23 249/413/23 261/432/23 262/430/23
f 249/412/22 248/411/22 260/421/22 261/420/22
f 248/411/21 247/410/21 259/433/21 260/421/21
f 247/410/20 245/409/20 258/434/20 259/433/20
f 245/409/19 244/408/19 257/435/19 258/434/19
f 269/436/28 268/437/28 280/438/28 281/439/28
f 258/434/29 257/435/29 269/440/29 270/441/29
f 253/425/30 264/424/30 276/442/30 265/443/30
f 255/429/31 254/426/31 266/444/31 267/445/31
f 262/446/32 261/447/32 273/448/32 274/446/32
f 259/433/33 258/434/33 270/441/33 271/449/33
f 256/450/34 255/451/34 267/452/34 268/437/34
f 263/453/35 262/446/35 274/446/35 275/454/35
f 260/421/36 259/433/36 271/449/36 272/422/36
f 257/455/37 256/450/37 268/437/37 269/436/37
f 264/424/38 263/428/38 275/456/38 276/442/38
f 254/426/39 253/425/39 265/443/39 266/444/39
f 281/439/40 280/438/40 292/457/40 293/458/40
f 276/442/41 275/456/41 287/459/41 288/460/41
f 266/444/42 265/443/42 277/461/42 278/462/42
f 273/423/43 272/422/43 284/463/43 285/464/43
f 270/441/44 269/440/44 281/465/44 282/466/44
f 265/443/45 276/442/45 288/460/45 277/461/45
f 267/445/46 266/444/46 278/462/46 279/467/46
f 274/446/47 273/448/47 285/468/47 286/446/47
f 271/449/48 270/441/48 282/466/48 283/469/48
f 268/437/49 267/452/49 279/470/49 280/438/49
f 275/454/50 274/446/50 286/446/50 287/471/50
f 272/422/51 271/449/51 283/469/51 284/463/51
f 296/472/52 295/473/52 307/474/52 308/475/52
f 288/460/53 287/459/53 299/476/53 300/477/53
f 278/462/54 277/461/54 289/478/54 290/479/54
f 285/464/55 284/463/55 296/472/55 297/480/55
f 282/466/56 281/465/56 293/481/56 294/482/56
f 277/461/57 288/460/57 300/477/57 289/478/57
f 279/467/58 278/462/58 290/479/58 291/483/58
f 286/446/59 285/468/59 297/484/59 298/446/59
f 283/469/60 282/466/60 294/482/60 295/473/60
f 280/438/61 279/470/61 291/485/61 292/457/61
f 287/471/62 286/446/62 298/446/62 299/486/62
f 284/463/63 283/469/63 295/473/63 296/472/63
f 308/475/64 307/474/64 319/487/64 320/488/64
f 293/458/65 292/457/65 304/489/65 305/490/65
f 300/491/66 299/486/66 311/492/66 312/493/66
f 290/479/67 289/478/67 301/494/67 302/495/67
f 297/484/68 296/496/68 308/497/68 309/498/68
f 294/482/69 293/481/69 305/499/69 306/500/69
f 289/478/70 300/477/70 312/501/70 301/494/70
f 291/483/71 290/479/71 302/495/71 303/502/71
f 298/446/72 297/484/72 309/498/72 310/446/72
f 295/473/73 294/482/73 306/500/73 307/474/73
f 292/457/74 291/485/74 303/503/74 304/489/74
f 299/486/75 298/446/75 310/446/75 311/492/75
f 323/504/76 322/446/76 334/446/76 335/505/76
f 305/490/77 304/489/77 316/506/77 317/507/77
f 312/493/78 311/492/78 323/504/78 324/508/78
f 302/495/79 301/494/79 313/509/79 314/510/79
f 309/498/80 308/497/80 320/511/80 321/512/80
f 306/500/81 305/499/81 317/513/81 318/514/81
f 301/494/82 312/501/82 324/515/82 313/509/82
f 303/502/83 302/495/83 314/510/83 315/516/83
f 310/446/84 309/498/84 321/512/84 322/446/84
f 307/474/85 306/500/85 318/514/85 319/487/85
f 304/489/86 303/503/86 315/517/86 316/506/86
f 311/492/87 310/446/87 322/446/87 323/504/87
f 328/518/88 327/519/88 339/520/88 340/521/88
f 320/488/89 319/487/89 331/522/89 332/523/89
f 317/507/90 316/506/90 328/518/90 329/524/90
f 324/515/91 323/525/91 335/526/91 336/527/91
f 314/510/92 313/509/92 325/528/92 326/529/92
f 321/530/93 320/488/93 332/523/93 333/531/93
f 318/514/94 317/513/94 329/532/94 330/533/94
f 313/509/95 324/515/95 336/527/95 325/528/95
f 315/516/96 314/510/96 326/529/96 327/534/96
f 322/446/97 321/512/97 333/535/97 334/446/97
f 319/487/98 318/514/98 330/533/98 331/522/98
f 316/506/99 315/517/99 327/519/99 328/518/99
f 340/521/100 339/520/100 351/536/100 352/537/100
f 335/505/101 334/446/101 346/446/101 347/538/101
f 332/523/102 331/522/102 343/539/102 344/540/102
f 329/524/103 328/518/103 340/521/103 341/541/103
f 336/527/104 335/526/104 347/542/104 348/543/104
f 326/529/105 325/528/105 337/544/105 338/545/105
f 333/531/106 332/523/106 344/540/106 345/546/106
f 330/533/107 329/532/107 341/547/107 342/548/107
f 325/528/108 336/527/108 348/543/108 337/544/108
f 327/534/109 326/529/109 338/545/109 339/549/109
f 334/446/110 333/535/110 345/550/110 346/446/110
f 331/522/111 330/533/111 342/548/111 343/539/111
f 350/551/112 349/552/112 360/553/112 359/554/112 358/555/112 357/556/112 356/557/112 355/558/112 354/559/112 353/560/112 352/561/112 351/562/112
f 347/538/113 346/446/113 358/563/113 359/564/113
f 344/540/114 343/539/114 355/565/114 356/566/114
f 341/541/115 340/521/115 352/537/115 353/567/115
f 348/543/116 347/542/116 359/568/116 360/569/116
f 338/545/117 337/544/117 349/570/117 350/571/117
f 345/546/118 344/540/118 356/566/118 357/572/118
f 342/548/119 341/547/119 353/573/119 354/574/119
f 337/544/120 348/543/120 360/569/120 349/570/120
f 339/549/121 338/545/121 350/571/121 351/575/121
f 346/446/122 345/550/122 357/576/122 358/563/122
f 343/539/123 342/548/123 354/574/123 355/565/123
f 361/577/124 362/578/124 363/579/124 364/580/124 365/581/124 366/582/124 367/583/124 368/584/124 369/585/124 370/586/124 371/587/124 372/588/124
f 373/589/124 374/590/124 375/591/124 376/592/124 377/593/124 378/594/124 379/595/124 380/596/124 381/597/124 382/598/124 383/599/124 384/600/124
f 385/601/124 386/602/124 387/603/124 388/604/124 389/605/124 390/606/124 391/607/124 392/608/124 393/609/124 394/610/124 395/611/124 396/612/124
f 149/260/7 150/259/7 380/613/7 379/614/7
f 60/84/12 49/83/12 361/615/12 372/247/12
f 228/80/2 229/392/2 387/616/2 386/81/2
f 150/259/8 151/254/8 381/617/8 380/613/8
f 229/392/3 230/396/3 388/618/3 387/616/3
f 151/254/9 152/253/9 382/619/9 381/617/9
f 49/96/1 50/86/1 362/620/1 361/621/1
f 230/401/4 231/373/4 389/622/4 388/623/4
f 152/258/10 153/257/10 383/624/10 382/625/10
f 50/86/2 51/85/2 363/626/2 362/620/2
f 231/373/5 232/372/5 390/627/5 389/622/5
f 153/257/11 154/250/11 384/628/11 383/624/11
f 51/85/3 52/90/3 364/629/3 363/626/3
f 232/372/6 233/395/6 391/630/6 390/627/6
f 154/250/12 143/249/12 373/631/12 384/628/12
f 52/95/4 53/64/4 365/632/4 364/633/4
f 233/400/7 234/399/7 392/634/7 391/635/7
f 53/64/5 54/63/5 366/636/5 365/632/5
f 234/399/8 235/394/8 393/637/8 392/634/8
f 143/262/1 144/252/1 374/638/1 373/639/1
f 54/63/6 55/89/6 367/640/6 366/636/6
f 235/394/9 236/393/9 394/641/9 393/637/9
f 144/252/2 145/251/2 375/642/2 374/638/2
f 55/94/7 56/93/7 368/643/7 367/644/7
f 236/398/10 237/397/10 395/645/10 394/646/10
f 145/251/3 146/256/3 376/647/3 375/642/3
f 56/93/8 57/88/8 369/648/8 368/643/8
f 237/397/11 238/391/11 396/649/11 395/645/11
f 146/261/4 147/232/4 377/650/4 376/651/4
f 57/88/9 58/87/9 370/652/9 369/648/9
f 238/391/12 227/390/12 385/653/12 396/649/12
f 147/232/5 148/231/5 378/389/5 377/650/5
f 58/92/10 59/91/10 371/248/10 370/654/10
f 397/655/125 422/656/125 421/657/125 399/658/125
f 399/659/126 421/660/126 423/661/126 401/662/126
f 401/662/127 423/661/127 424/663/127 403/664/127
f 403/664/128 424/663/128 425/665/128 405/666/128
f 405/666/129 425/665/129 426/667/129 407/668/129
f 407/669/130 426/670/130 427/671/130 409/672/130
f 409/672/131 427/671/131 428/673/131 411/674/131
f 411/675/132 428/676/132 429/677/132 413/678/132
f 413/678/133 429/677/133 430/679/133 415/680/133
f 415/680/134 430/679/134 431/681/134 417/682/134
f 414/683/126 412/684/126 452/685/126 453/686/126
f 417/682/135 431/681/135 432/687/135 419/688/135
f 419/689/136 432/690/136 422/656/136 397/655/136
f 397/691/112 399/692/112 401/693/112 403/694/112 405/695/112 407/696/112 409/697/112 411/698/112 413/699/112 415/700/112 417/701/112 419/702/112
f 398/703/137 400/704/137 421/705/137 422/706/137
f 400/704/137 402/707/137 423/708/137 421/705/137
f 402/707/137 404/709/137 424/710/137 423/708/137
f 404/709/137 406/711/137 425/712/137 424/710/137
f 406/711/137 408/713/137 426/714/137 425/712/137
f 408/713/137 410/715/137 427/716/137 426/714/137
f 410/715/137 412/717/137 428/718/137 427/716/137
f 412/717/137 414/719/137 429/720/137 428/718/137
f 414/719/137 416/721/137 430/722/137 429/720/137
f 416/721/137 418/723/137 431/724/137 430/722/137
f 418/723/137 420/725/137 432/726/137 431/724/137
f 420/725/137 398/703/137 422/706/137 432/726/137
f 436/727/127 435/728/127 471/729/127 472/730/127
f 408/731/135 406/732/135 449/733/135 450/734/135
f 398/735/130 420/736/130 456/737/130 446/738/130
f 402/739/132 400/740/132 445/741/132 447/742/132
f 416/743/127 414/683/127 453/686/127 454/744/127
f 410/745/136 408/746/136 450/747/136 451/748/136
f 404/749/133 402/739/133 447/742/133 448/750/133
f 418/751/128 416/743/128 454/744/128 455/752/128
f 412/753/125 410/745/125 451/748/125 452/754/125
f 406/732/134 404/749/134 448/750/134 449/733/134
f 420/755/129 418/751/129 455/752/129 456/756/129
f 400/757/131 398/735/131 446/738/131 445/758/131
f 434/759/137 433/760/137 445/761/137 446/762/137
f 433/760/137 435/763/137 447/764/137 445/761/137
f 435/763/137 436/765/137 448/766/137 447/764/137
f 436/765/137 437/767/137 449/768/137 448/766/137
f 437/767/137 438/769/137 450/770/137 449/768/137
f 438/769/137 439/771/137 451/772/137 450/770/137
f 439/771/137 440/773/137 452/774/137 451/772/137
f 440/773/137 441/775/137 453/776/137 452/774/137
f 441/775/137 442/777/137 454/778/137 453/776/137
f 442/777/137 443/779/137 455/780/137 454/778/137
f 443/779/137 444/781/137 456/782/137 455/780/137
f 444/781/137 434/759/137 446/762/137 456/782/137
f 466/783/127 465/784/127 501/785/127 502/786/127
f 443/787/134 442/788/134 478/789/134 479/790/134
f 440/791/131 439/792/131 475/793/131 476/794/131
f 437/795/128 436/727/128 472/730/128 473/796/128
f 444/797/135 443/787/135 479/790/135 480/798/135
f 433/799/125 434/800/125 470/801/125 469/802/125
f 441/803/132 440/804/132 476/805/132 477/806/132
f 438/807/129 437/795/129 473/796/129 474/808/129
f 434/800/136 444/809/136 480/810/136 470/801/136
f 435/728/126 433/811/126 469/812/126 471/729/126
f 442/788/133 441/803/133 477/806/133 478/789/133
f 439/792/130 438/813/130 474/814/130 475/793/130
f 458/815/137 457/816/137 469/817/137 470/818/137
f 457/816/137 459/819/137 471/820/137 469/817/137
f 459/819/137 460/821/137 472/822/137 471/820/137
f 460/823/137 461/824/137 473/825/137 472/826/137
f 461/827/137 462/828/137 474/829/137 473/830/137
f 462/828/137 463/831/137 475/832/137 474/829/137
f 463/831/137 464/833/137 476/834/137 475/832/137
f 464/833/137 465/835/137 477/836/137 476/834/137
f 465/835/137 466/837/137 478/838/137 477/836/137
f 466/837/137 467/839/137 479/840/137 478/838/137
f 467/839/137 468/841/137 480/842/137 479/840/137
f 468/841/137 458/815/137 470/818/137 480/842/137
f 490/843/127 489/844/127 513/845/127 514/846/127
f 463/847/136 462/848/136 498/849/136 499/850/136
f 460/851/133 459/852/133 495/853/133 496/854/133
f 467/855/128 466/783/128 502/786/128 503/856/128
f 464/857/125 463/847/125 499/850/125 500/858/125
f 461/859/134 460/851/134 496/854/134 497/860/134
f 468/861/129 467/855/129 503/856/129 504/862/129
f 457/863/131 458/864/131 494/865/131 493/866/131
f 465/784/126 464/867/126 500/868/126 501/785/126
f 462/869/135 461/859/135 497/860/135 498/870/135
f 458/864/130 468/871/130 504/872/130 494/865/130
f 459/852/132 457/873/132 493/874/132 495/853/132
f 482/875/137 481/876/137 493/877/137 494/878/137
f 481/876/137 483/879/137 495/880/137 493/877/137
f 483/879/137 484/881/137 496/882/137 495/880/137
f 484/881/137 485/883/137 497/884/137 496/882/137
f 485/883/137 486/885/137 498/886/137 497/884/137
f 486/885/137 487/887/137 499/888/137 498/886/137
f 487/887/137 488/889/137 500/890/137 499/888/137
f 488/889/137 489/891/137 501/892/137 500/890/137
f 489/891/137 490/893/137 502/894/137 501/892/137
f 490/893/137 491/895/137 503/896/137 502/894/137
f 491/895/137 492/897/137 504/898/137 503/896/137
f 492/897/137 482/875/137 494/878/137 504/898/137
f 505/899/137 506/900/137 516/901/137 515/902/137 514/903/137 513/904/137 512/905/137 511/906/137 510/907/137 509/908/137 508/909/137 507/910/137
f 487/911/136 486/912/136 510/913/136 511/914/136
f 484/915/133 483/916/133 507/917/133 508/918/133
f 491/919/128 490/843/128 514/846/128 515/920/128
f 488/921/125 487/911/125 511/914/125 512/922/125
f 485/923/134 484/915/134 508/918/134 509/924/134
f 492/925/129 491/919/129 515/920/129 516/926/129
f 481/927/131 482/928/131 506/929/131 505/930/131
f 489/844/126 488/931/126 512/932/126 513/845/126
f 486/933/135 485/923/135 509/924/135 510/934/135
f 482/928/130 492/935/130 516/936/130 506/929/130
f 483/916/132 481/937/132 505/938/132 507/917/132
f 517/939/125 542/940/125 541/941/125 519/942/125
f 519/943/126 541/944/126 543/945/126 521/946/126
f 521/946/127 543/945/127 544/947/127 523/948/127
f 523/948/128 544/947/128 545/949/128 525/950/128
f 525/950/129 545/949/129 546/951/129 527/952/129
f 527/953/130 546/954/130 547/955/130 529/956/130
f 529/956/131 547/955/131 548/957/131 531/958/131
f 531/959/132 548/960/132 549/961/132 533/962/132
f 533/962/133 549/961/133 550/963/133 535/964/133
f 535/964/134 550/963/134 551/965/134 537/966/134
f 534/967/126 532/968/126 572/969/126 573/970/126
f 537/966/135 551/965/135 552/971/135 539/972/135
f 539/973/136 552/974/136 542/940/136 517/939/136
f 517/975/112 519/976/112 521/977/112 523/978/112 525/979/112 527/980/112 529/981/112 531/982/112 533/983/112 535/984/112 537/985/112 539/986/112
f 518/987/137 520/988/137 541/989/137 542/990/137
f 520/988/137 522/991/137 543/992/137 541/989/137
f 522/991/137 524/993/137 544/994/137 543/992/137
f 524/993/137 526/995/137 545/996/137 544/994/137
f 526/995/137 528/997/137 546/998/137 545/996/137
f 528/997/137 530/999/137 547/1000/137 546/998/137
f 530/999/137 532/1001/137 548/1002/137 547/1000/137
f 532/1001/137 534/1003/137 549/1004/137 548/1002/137
f 534/1003/137 536/1005/137 550/1006/137 549/1004/137
f 536/1005/137 538/1007/137 551/1008/137 550/1006/137
f 538/1007/137 540/1009/137 552/1010/137 551/1008/137
f 540/1009/137 518/987/137 542/990/137 552/1010/137
f 556/1011/127 555/1012/127 591/1013/127 592/1014/127
f 528/1015/135 526/1016/135 569/1017/135 570/1018/135
f 518/1019/130 540/1020/130 576/1021/130 566/1022/130
f 522/1023/132 520/1024/132 565/1025/132 567/1026/132
f 536/1027/127 534/967/127 573/970/127 574/1028/127
f 530/1029/136 528/1030/136 570/1031/136 571/1032/136
f 524/1033/133 522/1023/133 567/1026/133 568/1034/133
f 538/1035/128 536/1027/128 574/1028/128 575/1036/128
f 532/1037/125 530/1029/125 571/1032/125 572/1038/125
f 526/1016/134 524/1033/134 568/1034/134 569/1017/134
f 540/1039/129 538/1035/129 575/1036/129 576/1040/129
f 520/1041/131 518/1019/131 566/1022/131 565/1042/131
f 554/1043/137 553/1044/137 565/1045/137 566/1046/137
f 553/1044/137 555/1047/137 567/1048/137 565/1045/137
f 555/1047/137 556/1049/137 568/1050/137 567/1048/137
f 556/1049/137 557/1051/137 569/1052/137 568/1050/137
f 557/1051/137 558/1053/137 570/1054/137 569/1052/137
f 558/1053/137 559/1055/137 571/1056/137 570/1054/137
f 559/1055/137 560/1057/137 572/1058/137 571/1056/137
f 560/1057/137 561/1059/137 573/1060/137 572/1058/137
f 561/1059/137 562/1061/137 574/1062/137 573/1060/137
f 562/1061/137 563/1063/137 575/1064/137 574/1062/137
f 563/1063/137 564/1065/137 576/1066/137 575/1064/137
f 564/1065/137 554/1043/137 566/1046/137 576/1066/137
f 586/1067/127 585/1068/127 621/1069/127 622/1070/127
f 563/1071/134 562/1072/134 598/1073/134 599/1074/134
f 560/1075/131 559/1076/131 595/1077/131 596/1078/131
f 557/1079/128 556/1011/128 592/1014/128 593/1080/128
f 564/1081/135 563/1071/135 599/1074/135 600/1082/135
f 553/1083/125 554/1084/125 590/1085/125 589/1086/125
f 561/1087/132 560/1088/132 596/1089/132 597/1090/132
f 558/1091/129 557/1079/129 593/1080/129 594/1092/129
f 554/1084/136 564/1093/136 600/1094/136 590/1085/136
f 555/1012/126 553/1095/126 589/1096/126 591/1013/126
f 562/1072/133 561/1087/133 597/1090/133 598/1073/133
f 559/1076/130 558/1097/130 594/1098/130 595/1077/130
f 578/1099/137 577/1100/137 589/1101/137 590/1102/137
f 577/1100/137 579/1103/137 591/1104/137 589/1101/137
f 579/1103/137 580/1105/137 592/1106/137 591/1104/137
f 580/1107/137 581/1108/137 593/1109/137 592/1110/137
f 581/1111/137 582/1112/137 594/1113/137 593/1114/137
f 582/1112/137 583/1115/137 595/1116/137 594/1113/137
f 583/1115/137 584/1117/137 596/1118/137 595/1116/137
f 584/1117/137 585/1119/137 597/1120/137 596/1118/137
f 585/1119/137 586/1121/137 598/1122/137 597/1120/137
f 586/1121/137 587/1123/137 599/1124/137 598/1122/137
f 587/1123/137 588/1125/137 600/1126/137 599/1124/137
f 588/1125/137 578/1099/137 590/1102/137 600/1126/137
f 610/1127/127 609/1128/127 633/1129/127 634/1130/127
f 583/1131/136 582/1132/136 618/1133/136 619/1134/136
f 580/1135/133 579/1136/133 615/1137/133 616/1138/133
f 587/1139/128 586/1067/128 622/1070/128 623/1140/128
f 584/1141/125 583/1131/125 619/1134/125 620/1142/125
f 581/1143/134 580/1135/134 616/1138/134 617/1144/134
f 588/1145/129 587/1139/129 623/1140/129 624/1146/129
f 577/1147/131 578/1148/131 614/1149/131 613/1150/131
f 585/1068/126 584/1151/126 620/1152/126 621/1069/126
f 582/1153/135 581/1143/135 617/1144/135 618/1154/135
f 578/1148/130 588/1155/130 624/1156/130 614/1149/130
f 579/1136/132 577/1157/132 613/1158/132 615/1137/132
f 602/1159/137 601/1160/137 613/1161/137 614/1162/137
f 601/1160/137 603/1163/137 615/1164/137 613/1161/137
f 603/1163/137 604/1165/137 616/1166/137 615/1164/137
f 604/1165/137 605/1167/137 617/1168/137 616/1166/137
f 605/1167/137 606/1169/137 618/1170/137 617/1168/137
f 606/1169/137 607/1171/137 619/1172/137 618/1170/137
f 607/1171/137 608/1173/137 620/1174/137 619/1172/137
f 608/1173/137 609/1175/137 621/1176/137 620/1174/137
f 609/1175/137 610/1177/137 622/1178/137 621/1176/137
f 610/1177/137 611/1179/137 623/1180/137 622/1178/137
f 611/1179/137 612/1181/137 624/1182/137 623/1180/137
f 612/1181/137 602/1159/137 614/1162/137 624/1182/137
f 625/1183/137 626/1184/137 636/1185/137 635/1186/137 634/1187/137 633/1188/137 632/1189/137 631/1190/137 630/1191/137 629/1192/137 628/1193/137 627/1194/137
f 607/1195/136 606/1196/136 630/1197/136 631/1198/136
f 604/1199/133 603/1200/133 627/1201/133 628/1202/133
f 611/1203/128 610/1127/128 634/1130/128 635/1204/128
f 608/1205/125 607/1195/125 631/1198/125 632/1206/125
f 605/1207/134 604/1199/134 628/1202/134 629/1208/134
f 612/1209/129 611/1203/129 635/1204/129 636/1210/129
f 601/1211/131 602/1212/131 626/1213/131 625/1214/131
f 609/1128/126 608/1215/126 632/1216/126 633/1129/126
f 606/1217/135 605/1207/135 629/1208/135 630/1218/135
f 602/1212/130 612/1219/130 636/1220/130 626/1213/130
f 603/1200/132 601/1221/132 625/1222/132 627/1201/132
f 637/1223/125 662/1224/125 661/1225/125 639/1226/125
f 639/1227/126 661/1228/126 663/1229/126 641/1230/126
f 641/1230/127 663/1229/127 664/1231/127 643/1232/127
f 643/1232/128 664/1231/128 665/1233/128 645/1234/128
f 645/1234/129 665/1233/129 666/1235/129 647/1236/129
f 647/1237/130 666/1238/130 667/1239/130 649/1240/130
f 649/1240/131 667/1239/131 668/1241/131 651/1242/131
f 651/1243/132 668/1244/132 669/1245/132 653/1246/132
f 653/1246/133 669/1245/133 670/1247/133 655/1248/133
f 655/1248/134 670/1247/134 671/1249/134 657/1250/134
f 654/1251/126 652/1252/126 692/1253/126 693/1254/126
f 657/1250/135 671/1249/135 672/1255/135 659/1256/135
f 659/1257/136 672/1258/136 662/1224/136 637/1223/136
f 637/1259/112 639/1260/112 641/1261/112 643/1262/112 645/1263/112 647/1264/112 649/1265/112 651/1266/112 653/1267/112 655/1268/112 657/1269/112 659/1270/112
f 638/1271/137 640/1272/137 661/1273/137 662/1274/137
f 640/1272/137 642/1275/137 663/1276/137 661/1273/137
f 642/1275/137 644/1277/137 664/1278/137 663/1276/137
f 644/1277/137 646/1279/137 665/1280/137 664/1278/137
f 646/1279/137 648/1281/137 666/1282/137 665/1280/137
f 648/1281/137 650/1283/137 667/1284/137 666/1282/137
f 650/1283/137 652/1285/137 668/1286/137 667/1284/137
f 652/1285/137 654/1287/137 669/1288/137 668/1286/137
f 654/1287/137 656/1289/137 670/1290/137 669/1288/137
f 656/1289/137 658/1291/137 671/1292/137 670/1290/137
f 658/1291/137 660/1293/137 672/1294/137 671/1292/137
f 660/1293/137 638/1271/137 662/1274/137 672/1294/137
f 676/1295/127 675/1296/127 711/1297/127 712/1298/127
f 648/1299/135 646/1300/135 689/1301/135 690/1302/135
f 638/1303/130 660/1304/130 696/1305/130 686/1306/130
f 642/1307/132 640/1308/132 685/1309/132 687/1310/132
f 656/1311/127 654/1251/127 693/1254/127 694/1312/127
f 650/1313/136 648/1314/136 690/1315/136 691/1316/136
f 644/1317/133 642/1307/133 687/1310/133 688/1318/133
f 658/1319/128 656/1311/128 694/1312/128 695/1320/128
f 652/1321/125 650/1313/125 691/1316/125 692/1322/125
f 646/1300/134 644/1317/134 688/1318/134 689/1301/134
f 660/1323/129 658/1319/129 695/1320/129 696/1324/129
f 640/1325/131 638/1303/131 686/1306/131 685/1326/131
f 674/1327/137 673/1328/137 685/1329/137 686/1330/137
f 673/1328/137 675/1331/137 687/1332/137 685/1329/137
f 675/1331/137 676/1333/137 688/1334/137 687/1332/137
f 676/1333/137 677/1335/137 689/1336/137 688/1334/137
f 677/1335/137 678/1337/137 690/1338/137 689/1336/137
f 678/1337/137 679/1339/137 691/1340/137 690/1338/137
f 679/1339/137 680/1341/137 692/1342/137 691/1340/137
f 680/1341/137 681/1343/137 693/1344/137 692/1342/137
f 681/1343/137 682/1345/137 694/1346/137 693/1344/137
f 682/1345/137 683/1347/137 695/1348/137 694/1346/137
f 683/1347/137 684/1349/137 696/1350/137 695/1348/137
f 684/1349/137 674/1327/137 686/1330/137 696/1350/137
f 706/1351/127 705/1352/127 741/1353/127 742/1354/127
f 683/1355/134 682/1356/134 718/1357/134 719/1358/134
f 680/1359/131 679/1360/131 715/1361/131 716/1362/131
f 677/1363/128 676/1295/128 712/1298/128 713/1364/128
f 684/1365/135 683/1355/135 719/1358/135 720/1366/135
f 673/1367/125 674/1368/125 710/1369/125 709/1370/125
f 681/1371/132 680/1372/132 716/1373/132 717/1374/132
f 678/1375/129 677/1363/129 713/1364/129 714/1376/129
f 674/1368/136 684/1377/136 720/1378/136 710/1369/136
f 675/1296/126 673/1379/126 709/1380/126 711/1297/126
f 682/1356/133 681/1371/133 717/1374/133 718/1357/133
f 679/1360/130 678/1381/130 714/1382/130 715/1361/130
f 698/1383/137 697/1384/137 709/1385/137 710/1386/137
f 697/1384/137 699/1387/137 711/1388/137 709/1385/137
f 699/1387/137 700/1389/137 712/1390/137 711/1388/137
f 700/1391/137 701/1392/137 713/1393/137 712/1394/137
f 701/1395/137 702/1396/137 714/1397/137 713/1398/137
f 702/1396/137 703/1399/137 715/1400/137 714/1397/137
f 703/1399/137 704/1401/137 716/1402/137 715/1400/137
f 704/1401/137 705/1403/137 717/1404/137 716/1402/137
f 705/1403/137 706/1405/137 718/1406/137 717/1404/137
f 706/1405/137 707/1407/137 719/1408/137 718/1406/137
f 707/1407/137 708/1409/137 720/1410/137 719/1408/137
f 708/1409/137 698/1383/137 710/1386/137 720/1410/137
f 730/1411/127 729/1412/127 753/1413/127 754/1414/127
f 703/1415/136 702/1416/136 738/1417/136 739/1418/136
f 700/1419/133 699/1420/133 735/1421/133 736/1422/133
f 707/1423/128 706/1351/128 742/1354/128 743/1424/128
f 704/1425/125 703/1415/125 739/1418/125 740/1426/125
f 701/1427/134 700/1419/134 736/1422/134 737/1428/134
f 708/1429/129 707/1423/129 743/1424/129 744/1430/129
f 697/1431/131 698/1432/131 734/1433/131 733/1434/131
f 705/1352/126 704/1435/126 740/1436/126 741/1353/126
f 702/1437/135 701/1427/135 737/1428/135 738/1438/135
f 698/1432/130 708/1439/130 744/1440/130 734/1433/130
f 699/1420/132 697/1441/132 733/1442/132 735/1421/132
f 722/1443/137 721/1444/137 733/1445/137 734/1446/137
f 721/1444/137 723/1447/137 735/1448/137 733/1445/137
f 723/1447/137 724/1449/137 736/1450/137 735/1448/137
f 724/1449/137 725/1451/137 737/1452/137 736/1450/137
f 725/1451/137 726/1453/137 738/1454/137 737/1452/137
f 726/1453/137 727/1455/137 739/1456/137 738/1454/137
f 727/1455/137 728/1457/137 740/1458/137 739/1456/137
f 728/1457/137 729/1459/137 741/1460/137 740/1458/137
f 729/1459/137 730/1461/137 742/1462/137 741/1460/137
f 730/1461/137 731/1463/137 743/1464/137 742/1462/137
f 731/1463/137 732/1465/137 744/1466/137 743/1464/137
f 732/1465/137 722/1443/137 734/1446/137 744/1466/137
f 745/1467/137 746/1468/137 756/1469/137 755/1470/137 754/1471/137 753/1472/137 752/1473/137 751/1474/137 750/1475/137 749/1476/137 748/1477/137 747/1478/137
f 727/1479/136 726/1480/136 750/1481/136 751/1482/136
f 724/1483/133 723/1484/133 747/1485/133 748/1486/133
f 731/1487/128 730/1411/128 754/1414/128 755/1488/128
f 728/1489/125 727/1479/125 751/1482/125 752/1490/125
f 725/1491/134 724/1483/134 748/1486/134 749/1492/134
f 732/1493/129 731/1487/129 755/1488/129 756/1494/129
f 721/1495/131 722/1496/131 746/1497/131 745/1498/131
f 729/1412/126 728/1499/126 752/1500/126 753/1413/126
f 726/1501/135 725/1491/135 749/1492/135 750/1502/135
f 722/1496/130 732/1503/130 756/1504/130 746/1497/130
f 723/1484/132 721/1505/132 745/1506/132 747/1485/132
