# Blender 5.1.2
# www.blender.org
mtllib PipeScreen.mtl
o Cylinder.010
v -0.638996 0.363294 -1.450348
v -0.866542 0.363294 -1.532013
v -0.638996 0.412599 -1.445492
v -0.866542 0.428531 -1.525587
v -0.638996 0.460009 -1.431110
v -0.866542 0.491261 -1.506559
v -0.638996 0.503702 -1.407755
v -0.866542 0.549073 -1.475657
v -0.638996 0.541999 -1.376326
v -0.866542 0.599745 -1.434071
v -0.638996 0.573429 -1.338028
v -0.866542 0.641331 -1.383399
v -0.638996 0.596784 -1.294335
v -0.866542 0.672232 -1.325587
v -0.638996 0.611165 -1.246925
v -0.866542 0.691261 -1.262857
v -0.638996 0.616021 -1.197621
v -0.866542 0.697686 -1.197621
v -0.638996 0.611165 -1.148316
v -0.866542 0.691261 -1.132384
v -0.638996 0.596784 -1.100906
v -0.866542 0.672232 -1.069654
v -0.638996 0.573429 -1.057213
v -0.866542 0.641331 -1.011842
v -0.638996 0.541999 -1.018915
v -0.866542 0.599745 -0.961170
v -0.638996 0.503702 -0.987486
v -0.866542 0.549073 -0.919584
v -0.638996 0.460009 -0.964131
v -0.866542 0.491261 -0.888682
v -0.638996 0.412599 -0.949749
v -0.866542 0.428531 -0.869654
v -0.638996 0.363294 -0.944893
v -0.866542 0.363294 -0.863228
v -0.638996 0.313990 -0.949749
v -0.866542 0.298058 -0.869654
v -0.638996 0.266580 -0.964131
v -0.866542 0.235328 -0.888682
v -0.638996 0.222887 -0.987486
v -0.866542 0.177516 -0.919584
v -0.638996 0.184589 -1.018915
v -0.866542 0.126843 -0.961170
v -0.638996 0.153159 -1.057213
v -0.866542 0.085257 -1.011842
v -0.638996 0.129805 -1.100906
v -0.866542 0.054356 -1.069654
v -0.638996 0.115423 -1.148316
v -0.866542 0.035327 -1.132384
v -0.638996 0.110567 -1.197621
v -0.866542 0.028902 -1.197621
v -0.638996 0.115423 -1.246925
v -0.866542 0.035327 -1.262857
v -0.638996 0.129805 -1.294335
v -0.866542 0.054356 -1.325587
v -0.638996 0.153159 -1.338028
v -0.866542 0.085257 -1.383399
v -0.638996 0.184589 -1.376326
v -0.866542 0.126843 -1.434071
v -0.638996 0.222887 -1.407755
v -0.866542 0.177516 -1.475657
v -0.638996 0.266580 -1.431110
v -0.866542 0.235328 -1.506559
v -0.638996 0.313990 -1.445492
v -0.866542 0.298058 -1.525587
v -0.638996 0.363294 -1.576863
v -0.638996 0.437281 -1.569577
v -0.638996 0.508424 -1.547995
v -0.638996 0.573990 -1.512949
v -0.638996 0.631459 -1.465786
v -0.638996 0.678623 -1.408317
v -0.638996 0.713669 -1.342751
v -0.638996 0.735250 -1.271607
v -0.638996 0.742537 -1.197621
v -0.638996 0.735250 -1.123634
v -0.638996 0.713669 -1.052490
v -0.638996 0.678623 -0.986924
v -0.638996 0.631459 -0.929455
v -0.638996 0.573990 -0.882292
v -0.638996 0.508424 -0.847246
v -0.638996 0.437281 -0.825665
v -0.638996 0.363294 -0.818378
v -0.638996 0.289308 -0.825665
v -0.638996 0.218164 -0.847246
v -0.638996 0.152598 -0.882292
v -0.638996 0.095129 -0.929455
v -0.638996 0.047965 -0.986924
v -0.638996 0.012919 -1.052490
v -0.638996 -0.008662 -1.123634
v -0.638996 -0.015949 -1.197621
v -0.638996 -0.008662 -1.271607
v -0.638996 0.012919 -1.342751
v -0.638996 0.047965 -1.408317
v -0.638996 0.095129 -1.465786
v -0.638996 0.152598 -1.512949
v -0.638996 0.218164 -1.547995
v -0.638996 0.289308 -1.569577
v -0.120750 0.363294 -1.450348
v -0.120750 0.412599 -1.445492
v -0.120750 0.460009 -1.431110
v -0.120750 0.503702 -1.407755
v -0.120750 0.541999 -1.376326
v -0.120750 0.573429 -1.338028
v -0.120750 0.596784 -1.294335
v -0.120750 0.611165 -1.246925
v -0.120750 0.616021 -1.197621
v -0.120750 0.611165 -1.148316
v -0.120750 0.596784 -1.100906
v -0.120750 0.573429 -1.057213
v -0.120750 0.541999 -1.018915
v -0.120750 0.503702 -0.987486
v -0.120750 0.460009 -0.964131
v -0.120750 0.412599 -0.949749
v -0.120750 0.363294 -0.944893
v -0.120750 0.313990 -0.949749
v -0.120750 0.266580 -0.964131
v -0.120750 0.222887 -0.987486
v -0.120750 0.184589 -1.018915
v -0.120750 0.153159 -1.057213
v -0.120750 0.129805 -1.100906
v -0.120750 0.115423 -1.148316
v -0.120750 0.110567 -1.197621
v -0.120750 0.115423 -1.246925
v -0.120750 0.129805 -1.294335
v -0.120750 0.153159 -1.338028
v -0.120750 0.184589 -1.376326
v -0.120750 0.222887 -1.407755
v -0.120750 0.266580 -1.431110
v -0.120750 0.313990 -1.445492
v -0.866542 0.437281 -1.569577
v -0.866542 0.363294 -1.576863
v -0.866542 0.508424 -1.547995
v -0.866542 0.573990 -1.512949
v -0.866542 0.631459 -1.465786
v -0.866542 0.678623 -1.408317
v -0.866542 0.713669 -1.342751
v -0.866542 0.735250 -1.271607
v -0.866542 0.742537 -1.197621
v -0.866542 0.735250 -1.123634
v -0.866542 0.713669 -1.052490
v -0.866542 0.678623 -0.986924
v -0.866542 0.631459 -0.929455
v -0.866542 0.573990 -0.882292
v -0.866542 0.508424 -0.847246
v -0.866542 0.437281 -0.825665
v -0.866542 0.363294 -0.818378
v -0.866542 0.289308 -0.825665
v -0.866542 0.218164 -0.847246
v -0.866542 0.152598 -0.882292
v -0.866542 0.095129 -0.929455
v -0.866542 0.047965 -0.986924
v -0.866542 0.012919 -1.052490
v -0.866542 -0.008662 -1.123634
v -0.866542 -0.015949 -1.197621
v -0.866542 -0.008662 -1.271607
v -0.866542 0.012919 -1.342751
v -0.866542 0.047965 -1.408317
v -0.866542 0.095129 -1.465786
v -0.866542 0.152598 -1.512949
v -0.866542 0.218164 -1.547995
v -0.866542 0.289308 -1.569577
v -0.730788 0.428531 -1.525587
v -0.730788 0.363294 -1.532013
v -0.730788 0.491261 -1.506559
v -0.730788 0.549073 -1.475657
v -0.730788 0.599745 -1.434071
v -0.730788 0.641331 -1.383399
v -0.730788 0.672232 -1.325587
v -0.730788 0.691261 -1.262857
v -0.730788 0.697686 -1.197621
v -0.730788 0.691261 -1.132384
v -0.730788 0.672232 -1.069654
v -0.730788 0.641331 -1.011842
v -0.730788 0.599745 -0.961170
v -0.730788 0.549073 -0.919584
v -0.730788 0.491261 -0.888682
v -0.730788 0.428531 -0.869654
v -0.730788 0.363294 -0.863228
v -0.730788 0.298058 -0.869654
v -0.730788 0.235328 -0.888682
v -0.730788 0.177516 -0.919584
v -0.730788 0.126843 -0.961170
v -0.730788 0.085257 -1.011842
v -0.730788 0.054356 -1.069654
v -0.730788 0.035327 -1.132384
v -0.730788 0.028902 -1.197621
v -0.730788 0.035327 -1.262857
v -0.730788 0.054356 -1.325587
v -0.730788 0.085257 -1.383399
v -0.730788 0.126843 -1.434071
v -0.730788 0.177516 -1.475657
v -0.730788 0.235328 -1.506559
v -0.730788 0.298058 -1.525587
v 0.120749 0.363294 -1.450348
v 0.120749 0.412599 -1.445492
v 0.120749 0.460009 -1.431110
v 0.120749 0.503702 -1.407755
v 0.120749 0.541999 -1.376326
v 0.120749 0.573429 -1.338028
v 0.120749 0.596784 -1.294335
v 0.120749 0.611165 -1.246925
v 0.120749 0.616021 -1.197621
v 0.120749 0.611165 -1.148316
v 0.120749 0.596784 -1.100906
v 0.120749 0.573429 -1.057213
v 0.120749 0.541999 -1.018915
v 0.120749 0.503702 -0.987486
v 0.120749 0.460009 -0.964131
v 0.120749 0.412599 -0.949749
v 0.120749 0.363294 -0.944893
v 0.120749 0.313990 -0.949749
v 0.120749 0.266580 -0.964131
v 0.120749 0.222887 -0.987486
v 0.120749 0.184589 -1.018915
v 0.120749 0.153159 -1.057213
v 0.120749 0.129805 -1.100906
v 0.120749 0.115423 -1.148316
v 0.120749 0.110567 -1.197621
v 0.120749 0.115423 -1.246925
v 0.120749 0.129805 -1.294335
v 0.120749 0.153159 -1.338028
v 0.120749 0.184589 -1.376326
v 0.120749 0.222887 -1.407755
v 0.120749 0.266580 -1.431110
v 0.120749 0.313990 -1.445492
v -0.120750 0.122314 0.007191
v -0.120750 0.073009 0.012047
v -0.120750 0.023705 0.007191
v -0.120750 -0.023705 -0.007191
v -0.120750 -0.067398 -0.030545
v -0.120750 -0.105696 -0.061975
v 0.120749 0.122314 0.007191
v 0.120749 0.073009 0.012047
v 0.120749 0.023705 0.007191
v 0.120749 -0.023705 -0.007191
v 0.120749 -0.067398 -0.030545
v 0.120749 -0.105696 -0.061975
v 0.120749 0.305237 -0.753505
v 0.120749 0.247180 -0.562117
v 0.120749 0.189123 -0.370729
v 0.120749 0.131066 -0.179341
v -0.120750 -0.047639 -0.253363
v -0.120750 0.010418 -0.444751
v -0.120750 0.068475 -0.636139
v -0.120750 0.126532 -0.827527
v 0.120749 -0.047639 -0.253363
v 0.120749 0.010418 -0.444751
v 0.120749 0.068475 -0.636139
v 0.120749 0.126532 -0.827527
v 0.120749 0.164830 -0.796098
v 0.120749 0.106773 -0.604709
v 0.120749 0.048716 -0.413321
v 0.120749 -0.009341 -0.221933
v 0.120749 0.081762 -0.184197
v 0.120749 0.139819 -0.375585
v 0.120749 0.197876 -0.566973
v 0.120749 0.255933 -0.758361
v -0.120750 0.354542 -0.758361
v -0.120750 0.296485 -0.566973
v -0.120750 0.238428 -0.375585
v -0.120750 0.180371 -0.184197
v 0.120749 0.180371 -0.184197
v 0.120749 0.238428 -0.375585
v 0.120749 0.296485 -0.566973
v 0.120749 0.354542 -0.758361
v -0.120750 0.164830 -0.796098
v -0.120750 0.106773 -0.604709
v -0.120750 0.048716 -0.413321
v -0.120750 -0.009341 -0.221933
v -0.120750 0.034352 -0.198579
v -0.120750 0.092409 -0.389967
v -0.120750 0.150466 -0.581355
v -0.120750 0.208523 -0.772743
v -0.120750 0.305237 -0.753505
v -0.120750 0.247180 -0.562117
v -0.120750 0.189123 -0.370729
v -0.120750 0.131066 -0.179341
v 0.120749 0.034352 -0.198579
v 0.120749 0.092409 -0.389967
v 0.120749 0.150466 -0.581355
v 0.120749 0.208523 -0.772743
v -0.120750 0.255933 -0.758361
v -0.120750 0.197876 -0.566973
v -0.120750 0.139819 -0.375585
v -0.120750 0.081762 -0.184197
vn -0.0000 0.0980 -0.9952
vn -0.0000 0.2903 -0.9569
vn -0.0000 0.4714 -0.8819
vn -0.0000 0.6344 -0.7730
vn -0.0000 0.7730 -0.6344
vn -0.0000 0.8819 -0.4714
vn -0.0000 0.9569 -0.2903
vn -0.0000 0.9952 -0.0980
vn -0.0000 0.9952 0.0980
vn -0.0000 0.9569 0.2903
vn -0.0000 0.8819 0.4714
vn -0.0000 0.7730 0.6344
vn -0.0000 0.6344 0.7730
vn -0.0000 0.4714 0.8819
vn -0.0000 0.2903 0.9569
vn -0.0000 0.0980 0.9952
vn -0.0000 -0.0980 0.9952
vn -0.0000 -0.2903 0.9569
vn -0.0000 -0.4714 0.8819
vn -0.0000 -0.6344 0.7730
vn -0.0000 -0.7730 0.6344
vn -0.0000 -0.8819 0.4714
vn -0.0000 -0.9569 0.2903
vn -0.0000 -0.9952 0.0980
vn -0.0000 -0.9952 -0.0980
vn -0.0000 -0.9569 -0.2903
vn -0.0000 -0.8819 -0.4714
vn -0.0000 -0.7730 -0.6344
vn -0.0000 -0.6344 -0.7730
vn -0.0000 -0.4714 -0.8819
vn -0.0000 -0.2903 -0.9569
vn -0.0000 -0.0980 -0.9952
vn 1.0000 -0.0000 -0.0000
vn -1.0000 -0.0000 -0.0000
vt 0.851156 0.908409
vt 0.851156 0.936265
vt 0.842054 0.936265
vt 0.842054 0.908409
vt 0.942729 0.010220
vt 0.942729 0.038077
vt 0.933628 0.038077
vt 0.933628 0.010220
vt 0.937594 0.554220
vt 0.937594 0.582077
vt 0.928492 0.582077
vt 0.928492 0.554220
vt 0.732987 0.908409
vt 0.732987 0.936265
vt 0.723886 0.936265
vt 0.723886 0.908409
vt 0.660376 0.904021
vt 0.660376 0.931878
vt 0.651275 0.931878
vt 0.651275 0.904021
vt 0.937594 0.602518
vt 0.937594 0.630374
vt 0.928492 0.630374
vt 0.928492 0.602518
vt 0.966740 0.214664
vt 0.966740 0.242521
vt 0.957639 0.242521
vt 0.957639 0.214664
vt 0.592190 0.931878
vt 0.592190 0.904021
vt 0.601292 0.904021
vt 0.601292 0.931878
vt 0.621733 0.931878
vt 0.621732 0.904021
vt 0.630834 0.904021
vt 0.630834 0.931878
vt 0.753428 0.936265
vt 0.753428 0.908409
vt 0.762529 0.908409
vt 0.762529 0.936265
vt 0.957639 0.290818
vt 0.957639 0.262961
vt 0.966740 0.262961
vt 0.966740 0.290818
vt 0.933628 0.086374
vt 0.933628 0.058518
vt 0.942730 0.058518
vt 0.942730 0.086374
vt 0.957639 0.339115
vt 0.957639 0.311259
vt 0.966740 0.311259
vt 0.966740 0.339115
vt 0.928097 0.242521
vt 0.928097 0.214664
vt 0.937198 0.214664
vt 0.937198 0.242521
vt 0.924924 0.827648
vt 0.924924 0.799791
vt 0.934025 0.799791
vt 0.934025 0.827648
vt 0.782970 0.936265
vt 0.782970 0.908409
vt 0.792071 0.908409
vt 0.792071 0.936265
vt 0.933628 0.134672
vt 0.933628 0.106815
vt 0.942730 0.106815
vt 0.942730 0.134672
vt 0.933628 0.182969
vt 0.933628 0.155112
vt 0.942730 0.155112
vt 0.942730 0.182969
vt 0.928492 0.533780
vt 0.928492 0.505923
vt 0.937594 0.505923
vt 0.937594 0.533780
vt 0.460329 0.958473
vt 0.460329 0.930616
vt 0.469431 0.930616
vt 0.469431 0.958473
vt 0.924924 0.779350
vt 0.924924 0.751494
vt 0.934025 0.751494
vt 0.934025 0.779350
vt 0.951429 0.695465
vt 0.951429 0.667608
vt 0.960531 0.667608
vt 0.960531 0.695465
vt 0.928097 0.290818
vt 0.928097 0.262961
vt 0.937198 0.262961
vt 0.937198 0.290818
vt 0.928097 0.339115
vt 0.928097 0.311259
vt 0.937198 0.311259
vt 0.937198 0.339115
vt 0.821613 0.908409
vt 0.821613 0.936265
vt 0.812512 0.936265
vt 0.812512 0.908409
vt 0.928492 0.388888
vt 0.928492 0.361031
vt 0.937594 0.361031
vt 0.937594 0.388888
vt 0.963567 0.751494
vt 0.963567 0.779350
vt 0.954466 0.779350
vt 0.954466 0.751494
vt 0.937594 0.409328
vt 0.937594 0.437185
vt 0.928492 0.437185
vt 0.928492 0.409328
vt 0.928492 0.485482
vt 0.928492 0.457626
vt 0.937594 0.457626
vt 0.937594 0.485482
vt 0.313292 0.911150
vt 0.313292 0.939006
vt 0.304190 0.939006
vt 0.304190 0.911150
vt 0.966059 0.451770
vt 0.958034 0.451770
vt 0.958034 0.435151
vt 0.966059 0.435151
vt 0.703445 0.908409
vt 0.703445 0.936265
vt 0.694344 0.936265
vt 0.694344 0.908409
vt 0.963567 0.799791
vt 0.963567 0.827648
vt 0.954466 0.827648
vt 0.954466 0.799791
vt 0.908051 0.567491
vt 0.901986 0.567491
vt 0.901986 0.504046
vt 0.908051 0.504046
vt 0.401463 0.670326
vt 0.395514 0.671510
vt 0.391018 0.656688
vt 0.399945 0.654913
vt 0.407528 0.670326
vt 0.409046 0.654913
vt 0.413477 0.671510
vt 0.417973 0.656688
vt 0.419080 0.673831
vt 0.426382 0.660171
vt 0.424123 0.677200
vt 0.433949 0.665228
vt 0.428412 0.681489
vt 0.440385 0.671663
vt 0.431782 0.686532
vt 0.445441 0.679231
vt 0.434103 0.692136
vt 0.448924 0.687639
vt 0.435286 0.698084
vt 0.450700 0.696566
vt 0.435286 0.704149
vt 0.450700 0.705667
vt 0.434103 0.710098
vt 0.448924 0.714594
vt 0.431782 0.715701
vt 0.445441 0.723003
vt 0.428412 0.720744
vt 0.440385 0.730570
vt 0.424123 0.725033
vt 0.433949 0.737006
vt 0.419080 0.728403
vt 0.426382 0.742062
vt 0.413477 0.730724
vt 0.417973 0.745545
vt 0.407528 0.731907
vt 0.409046 0.747321
vt 0.401463 0.731907
vt 0.399945 0.747321
vt 0.395514 0.730724
vt 0.391018 0.745545
vt 0.389911 0.728403
vt 0.382610 0.742062
vt 0.384868 0.725033
vt 0.375042 0.737006
vt 0.380579 0.720744
vt 0.368607 0.730570
vt 0.377210 0.715701
vt 0.363550 0.723003
vt 0.374889 0.710098
vt 0.360067 0.714594
vt 0.373705 0.704149
vt 0.358292 0.705667
vt 0.373705 0.698084
vt 0.358292 0.696566
vt 0.374889 0.692136
vt 0.360067 0.687639
vt 0.377210 0.686532
vt 0.363550 0.679231
vt 0.380579 0.681489
vt 0.368607 0.671663
vt 0.384868 0.677200
vt 0.375042 0.665228
vt 0.389911 0.673831
vt 0.382610 0.660171
vt 0.304190 0.747694
vt 0.310255 0.747694
vt 0.310255 0.777259
vt 0.304190 0.777259
vt 0.875085 0.214664
vt 0.881150 0.214664
vt 0.881150 0.278109
vt 0.875085 0.278109
vt 0.304190 0.684249
vt 0.310255 0.684249
vt 0.822073 0.214664
vt 0.828139 0.214664
vt 0.828139 0.278109
vt 0.822073 0.278109
vt 0.822469 0.361031
vt 0.828534 0.361031
vt 0.828534 0.424476
vt 0.822469 0.424476
vt 0.907122 0.010220
vt 0.913187 0.010220
vt 0.913187 0.073665
vt 0.907122 0.073665
vt 0.881546 0.454041
vt 0.875481 0.454041
vt 0.875481 0.390596
vt 0.881546 0.390596
vt 0.875480 0.474481
vt 0.881546 0.474481
vt 0.881546 0.537926
vt 0.875480 0.537926
vt 0.795963 0.361031
vt 0.802028 0.361031
vt 0.802028 0.424476
vt 0.795963 0.424476
vt 0.901986 0.361031
vt 0.908052 0.361031
vt 0.908052 0.424476
vt 0.901986 0.424476
vt 0.828534 0.567491
vt 0.822469 0.567491
vt 0.822469 0.504046
vt 0.828534 0.504046
vt 0.901591 0.214664
vt 0.907656 0.214664
vt 0.907656 0.278109
vt 0.901591 0.278109
vt 0.898418 0.667608
vt 0.904483 0.667608
vt 0.904483 0.731053
vt 0.898418 0.731053
vt 0.833670 0.103230
vt 0.827605 0.103230
vt 0.827605 0.039785
vt 0.833670 0.039785
vt 0.330696 0.795451
vt 0.336761 0.795451
vt 0.336761 0.858895
vt 0.330696 0.858895
vt 0.880616 0.010220
vt 0.886682 0.010220
vt 0.886682 0.073665
vt 0.880616 0.073665
vt 0.304190 0.797699
vt 0.310255 0.797699
vt 0.310255 0.861144
vt 0.304190 0.861144
vt 0.930989 0.731053
vt 0.924924 0.731053
vt 0.924924 0.667608
vt 0.930989 0.667608
vt 0.904483 0.874068
vt 0.898418 0.874068
vt 0.898418 0.810624
vt 0.904483 0.810624
vt 0.855040 0.454041
vt 0.848975 0.454041
vt 0.848975 0.390596
vt 0.855040 0.390596
vt 0.827605 0.123671
vt 0.833670 0.123671
vt 0.833670 0.187115
vt 0.827605 0.187115
vt 0.860176 0.103230
vt 0.854111 0.103230
vt 0.854111 0.039785
vt 0.860176 0.039785
vt 0.801099 0.010220
vt 0.807164 0.010220
vt 0.807164 0.073665
vt 0.801099 0.073665
vt 0.860176 0.187115
vt 0.854111 0.187115
vt 0.854111 0.123671
vt 0.860176 0.123671
vt 0.855040 0.567491
vt 0.848975 0.567491
vt 0.848975 0.504046
vt 0.855040 0.504046
vt 0.880616 0.123671
vt 0.886682 0.123671
vt 0.886682 0.187115
vt 0.880616 0.187115
vt 0.913187 0.187115
vt 0.907122 0.187115
vt 0.907122 0.123671
vt 0.913187 0.123671
vt 0.795963 0.474481
vt 0.802028 0.474481
vt 0.802028 0.537926
vt 0.795963 0.537926
vt 0.807164 0.187115
vt 0.801099 0.187115
vt 0.801099 0.123671
vt 0.807164 0.123671
vt 0.281571 0.893310
vt 0.275505 0.893310
vt 0.275505 0.829866
vt 0.281571 0.829866
vt 0.854644 0.307674
vt 0.848579 0.307674
vt 0.848579 0.244229
vt 0.854644 0.244229
vt 0.795568 0.214664
vt 0.801633 0.214664
vt 0.801633 0.278109
vt 0.795568 0.278109
vt 0.416379 0.853140
vt 0.423793 0.850069
vt 0.426382 0.854911
vt 0.417973 0.858394
vt 0.430466 0.845610
vt 0.433949 0.849855
vt 0.436141 0.839936
vt 0.440385 0.843419
vt 0.440599 0.833263
vt 0.445441 0.835852
vt 0.443670 0.825849
vt 0.448924 0.827443
vt 0.445236 0.817978
vt 0.450700 0.818516
vt 0.445236 0.809953
vt 0.450700 0.809415
vt 0.443670 0.802082
vt 0.448924 0.800488
vt 0.440599 0.794668
vt 0.445441 0.792080
vt 0.436141 0.787996
vt 0.440385 0.784512
vt 0.430466 0.782321
vt 0.433949 0.778077
vt 0.423793 0.777862
vt 0.426382 0.773020
vt 0.416379 0.774791
vt 0.417973 0.769537
vt 0.408508 0.773226
vt 0.409046 0.767762
vt 0.400483 0.773226
vt 0.399945 0.767762
vt 0.392612 0.774791
vt 0.391018 0.769537
vt 0.385198 0.777862
vt 0.382610 0.773020
vt 0.378526 0.782321
vt 0.375042 0.778077
vt 0.372851 0.787996
vt 0.368607 0.784512
vt 0.368393 0.794668
vt 0.363550 0.792080
vt 0.365321 0.802082
vt 0.360067 0.800488
vt 0.363756 0.809953
vt 0.358292 0.809415
vt 0.363756 0.817978
vt 0.358292 0.818516
vt 0.365321 0.825849
vt 0.360067 0.827443
vt 0.368393 0.833263
vt 0.363550 0.835852
vt 0.372851 0.839936
vt 0.368607 0.843419
vt 0.378526 0.845610
vt 0.375042 0.849855
vt 0.385198 0.850069
vt 0.382610 0.854911
vt 0.392612 0.853140
vt 0.391018 0.858394
vt 0.400483 0.854706
vt 0.399945 0.860170
vt 0.408508 0.854706
vt 0.409046 0.860170
vt 0.542893 0.905587
vt 0.550307 0.908658
vt 0.556980 0.913116
vt 0.562655 0.918791
vt 0.567113 0.925463
vt 0.570184 0.932878
vt 0.571750 0.940749
vt 0.571750 0.948774
vt 0.570184 0.956644
vt 0.567113 0.964059
vt 0.562655 0.970731
vt 0.556980 0.976406
vt 0.550308 0.980864
vt 0.542893 0.983935
vt 0.535022 0.985501
vt 0.526997 0.985501
vt 0.519127 0.983935
vt 0.511712 0.980864
vt 0.505040 0.976406
vt 0.499365 0.970731
vt 0.494907 0.964059
vt 0.491836 0.956644
vt 0.490270 0.948774
vt 0.490270 0.940749
vt 0.491836 0.932878
vt 0.494907 0.925463
vt 0.499365 0.918791
vt 0.505040 0.913116
vt 0.511712 0.908658
vt 0.519126 0.905587
vt 0.526997 0.904021
vt 0.535022 0.904021
vt 0.963170 0.121400
vt 0.971195 0.121400
vt 0.971195 0.138019
vt 0.963170 0.138019
vt 0.958034 0.472211
vt 0.966059 0.472211
vt 0.966059 0.488830
vt 0.958034 0.488830
vt 0.924924 0.848088
vt 0.932949 0.848088
vt 0.932949 0.864708
vt 0.924924 0.864708
vt 0.958034 0.509271
vt 0.966059 0.509271
vt 0.966059 0.525890
vt 0.958034 0.525890
vt 0.283530 0.930370
vt 0.275505 0.930370
vt 0.275505 0.913751
vt 0.283530 0.913751
vt 0.649122 0.952318
vt 0.657147 0.952318
vt 0.657147 0.968938
vt 0.649122 0.968938
vt 0.958034 0.546331
vt 0.966059 0.546331
vt 0.966059 0.562950
vt 0.958034 0.562950
vt 0.018245 0.961316
vt 0.010220 0.961316
vt 0.010220 0.944696
vt 0.018245 0.944696
vt 0.963170 0.010220
vt 0.971195 0.010220
vt 0.971195 0.026840
vt 0.963170 0.026840
vt 0.963170 0.158460
vt 0.971195 0.158460
vt 0.971195 0.175079
vt 0.963170 0.175079
vt 0.628681 0.968938
vt 0.620656 0.968938
vt 0.620656 0.952318
vt 0.628681 0.952318
vt 0.958034 0.583391
vt 0.966059 0.583391
vt 0.966059 0.600010
vt 0.958034 0.600010
vt 0.038686 0.944696
vt 0.046711 0.944696
vt 0.046711 0.961316
vt 0.038686 0.961316
vt 0.971195 0.063899
vt 0.963170 0.063899
vt 0.963170 0.047280
vt 0.971195 0.047280
vt 0.067152 0.944696
vt 0.075177 0.944696
vt 0.075177 0.961316
vt 0.067152 0.961316
vt 0.958034 0.398091
vt 0.966059 0.398091
vt 0.966059 0.414710
vt 0.958034 0.414710
vt 0.971195 0.100959
vt 0.963170 0.100959
vt 0.963170 0.084340
vt 0.971195 0.084340
vt 0.694344 0.956706
vt 0.702369 0.956706
vt 0.702369 0.973325
vt 0.694344 0.973325
vt 0.961414 0.864708
vt 0.953389 0.864708
vt 0.953389 0.848088
vt 0.961414 0.848088
vt 0.181015 0.944696
vt 0.189040 0.944696
vt 0.189040 0.961316
vt 0.181015 0.961316
vt 0.103642 0.961316
vt 0.095617 0.961316
vt 0.095617 0.944696
vt 0.103642 0.944696
vt 0.723886 0.956706
vt 0.731911 0.956706
vt 0.731911 0.973325
vt 0.723886 0.973325
vt 0.966059 0.377650
vt 0.958034 0.377650
vt 0.958034 0.361031
vt 0.966059 0.361031
vt 0.966059 0.637070
vt 0.958034 0.637070
vt 0.958034 0.620450
vt 0.966059 0.620450
vt 0.283530 0.967430
vt 0.275505 0.967430
vt 0.275505 0.950811
vt 0.283530 0.950811
vt 0.132108 0.961316
vt 0.124083 0.961316
vt 0.124083 0.944696
vt 0.132108 0.944696
vt 0.209480 0.944696
vt 0.217505 0.944696
vt 0.217505 0.961316
vt 0.209480 0.961316
vt 0.245971 0.961316
vt 0.237946 0.961316
vt 0.237946 0.944696
vt 0.245971 0.944696
vt 0.152549 0.944696
vt 0.160574 0.944696
vt 0.160574 0.961316
vt 0.152549 0.961316
vt 0.761453 0.973325
vt 0.753428 0.973325
vt 0.753428 0.956706
vt 0.761453 0.956706
vt 0.592190 0.952318
vt 0.600215 0.952318
vt 0.600215 0.968938
vt 0.592190 0.968938
vt 0.740887 0.011404
vt 0.746835 0.010220
vt 0.752900 0.010220
vt 0.758849 0.011404
vt 0.764453 0.013725
vt 0.769496 0.017094
vt 0.773784 0.021383
vt 0.777154 0.026426
vt 0.779475 0.032029
vt 0.780658 0.037978
vt 0.780658 0.044043
vt 0.779475 0.049992
vt 0.777154 0.055595
vt 0.773784 0.060638
vt 0.769496 0.064927
vt 0.764453 0.068297
vt 0.758849 0.070618
vt 0.752900 0.071801
vt 0.746835 0.071801
vt 0.740887 0.070618
vt 0.735283 0.068297
vt 0.730240 0.064927
vt 0.725951 0.060639
vt 0.722582 0.055596
vt 0.720261 0.049992
vt 0.719077 0.044043
vt 0.719077 0.037978
vt 0.720261 0.032030
vt 0.722582 0.026426
vt 0.725951 0.021383
vt 0.730240 0.017094
vt 0.735283 0.013725
vt 0.828139 0.307674
vt 0.822073 0.307674
vt 0.828534 0.454041
vt 0.822469 0.454041
vt 0.913187 0.103230
vt 0.907122 0.103230
vt 0.875481 0.361031
vt 0.881546 0.361031
vt 0.881546 0.567491
vt 0.875480 0.567491
vt 0.802028 0.454041
vt 0.795963 0.454041
vt 0.908052 0.454041
vt 0.901986 0.454041
vt 0.822469 0.474481
vt 0.828534 0.474481
vt 0.907656 0.307674
vt 0.901591 0.307674
vt 0.904483 0.760618
vt 0.898418 0.760618
vt 0.827605 0.010220
vt 0.833670 0.010220
vt 0.336761 0.888460
vt 0.330696 0.888460
vt 0.886682 0.103230
vt 0.880616 0.103230
vt 0.310255 0.890709
vt 0.304190 0.890709
vt 0.763575 0.316106
vt 0.769523 0.314923
vt 0.769523 0.339407
vt 0.763575 0.340590
vt 0.898418 0.781059
vt 0.904483 0.781059
vt 0.848975 0.361031
vt 0.855040 0.361031
vt 0.745957 0.601832
vt 0.775522 0.601832
vt 0.775522 0.626316
vt 0.745957 0.626316
vt 0.854111 0.010220
vt 0.860176 0.010220
vt 0.807164 0.103230
vt 0.801099 0.103230
vt 0.752901 0.169739
vt 0.758849 0.168556
vt 0.758849 0.193040
vt 0.752901 0.194223
vt 0.848975 0.474481
vt 0.855040 0.474481
vt 0.855040 0.617497
vt 0.848975 0.617497
vt 0.848975 0.587932
vt 0.855040 0.587932
vt 0.745957 0.458969
vt 0.775522 0.458969
vt 0.775522 0.483453
vt 0.745957 0.483453
vt 0.802028 0.567491
vt 0.795963 0.567491
vt 0.735283 0.166235
vt 0.740887 0.168556
vt 0.740887 0.193040
vt 0.735283 0.190719
vt 0.275505 0.800301
vt 0.281571 0.800301
vt 0.848579 0.214664
vt 0.854644 0.214664
vt 0.801633 0.307674
vt 0.795568 0.307674
vt 0.901986 0.474481
vt 0.908051 0.474481
vt 0.881150 0.307674
vt 0.875085 0.307674
vt 0.802028 0.617497
vt 0.795963 0.617497
vt 0.795963 0.587932
vt 0.802028 0.587932
vt 0.881546 0.617497
vt 0.875480 0.617497
vt 0.875480 0.587932
vt 0.881546 0.587932
vt 0.822469 0.587932
vt 0.828534 0.587932
vt 0.828534 0.617497
vt 0.822469 0.617497
vt 0.466395 0.910175
vt 0.460329 0.910175
vt 0.460329 0.880611
vt 0.466395 0.880611
vt 0.908051 0.617497
vt 0.901986 0.617497
vt 0.901986 0.587932
vt 0.908051 0.587932
vt 0.745957 0.312602
vt 0.751561 0.314923
vt 0.751561 0.339407
vt 0.745957 0.337086
vt 0.746835 0.169739
vt 0.746835 0.194223
vt 0.775127 0.312602
vt 0.775127 0.337086
vt 0.757509 0.316106
vt 0.757509 0.340590
vt 0.764453 0.166235
vt 0.764453 0.190719
vt 0.757509 0.218168
vt 0.763575 0.218168
vt 0.763575 0.242653
vt 0.757509 0.242653
vt 0.763575 0.267137
vt 0.757509 0.267137
vt 0.763575 0.291622
vt 0.757509 0.291622
vt 0.764453 0.092781
vt 0.758849 0.095102
vt 0.764453 0.117266
vt 0.758849 0.119587
vt 0.764453 0.141750
vt 0.758849 0.144071
vt 0.746835 0.096286
vt 0.740887 0.095102
vt 0.746835 0.120770
vt 0.740887 0.119587
vt 0.746835 0.145254
vt 0.740887 0.144071
vt 0.751561 0.216985
vt 0.751561 0.241469
vt 0.751561 0.265954
vt 0.751561 0.290438
vt 0.769523 0.216985
vt 0.775127 0.214664
vt 0.775127 0.239148
vt 0.769523 0.241469
vt 0.775127 0.263633
vt 0.769523 0.265954
vt 0.775127 0.288117
vt 0.769523 0.290438
vt 0.752900 0.096286
vt 0.752901 0.120770
vt 0.752901 0.145254
vt 0.745957 0.214664
vt 0.745957 0.239148
vt 0.745957 0.263633
vt 0.745957 0.288117
vt 0.735283 0.092781
vt 0.735283 0.117266
vt 0.735283 0.141750
vt 0.745957 0.361031
vt 0.775522 0.361031
vt 0.775522 0.385516
vt 0.745957 0.385516
vt 0.775522 0.410000
vt 0.745957 0.410000
vt 0.775522 0.434484
vt 0.745957 0.434484
vt 0.745957 0.503894
vt 0.775522 0.503894
vt 0.775522 0.528378
vt 0.745957 0.528378
vt 0.775522 0.552863
vt 0.745957 0.552863
vt 0.775522 0.577347
vt 0.745957 0.577347
s 0
usemtl скрин
f 65/1/1 130/2/1 129/3/1 66/4/1
f 66/5/2 129/6/2 131/7/2 67/8/2
f 67/9/3 131/10/3 132/11/3 68/12/3
f 68/13/4 132/14/4 133/15/4 69/16/4
f 69/17/5 133/18/5 134/19/5 70/20/5
f 70/21/6 134/22/6 135/23/6 71/24/6
f 71/25/7 135/26/7 136/27/7 72/28/7
f 72/29/8 136/30/8 137/31/8 73/32/8
f 73/33/9 137/34/9 138/35/9 74/36/9
f 74/37/10 138/38/10 139/39/10 75/40/10
f 75/41/11 139/42/11 140/43/11 76/44/11
f 76/45/12 140/46/12 141/47/12 77/48/12
f 77/49/13 141/50/13 142/51/13 78/52/13
f 78/53/14 142/54/14 143/55/14 79/56/14
f 79/57/15 143/58/15 144/59/15 80/60/15
f 80/61/16 144/62/16 145/63/16 81/64/16
f 81/65/17 145/66/17 146/67/17 82/68/17
f 82/69/18 146/70/18 147/71/18 83/72/18
f 83/73/19 147/74/19 148/75/19 84/76/19
f 84/77/20 148/78/20 149/79/20 85/80/20
f 85/81/21 149/82/21 150/83/21 86/84/21
f 86/85/22 150/86/22 151/87/22 87/88/22
f 87/89/23 151/90/23 152/91/23 88/92/23
f 88/93/24 152/94/24 153/95/24 89/96/24
f 89/97/25 153/98/25 154/99/25 90/100/25
f 90/101/26 154/102/26 155/103/26 91/104/26
f 91/105/27 155/106/27 156/107/27 92/108/27
f 92/109/28 156/110/28 157/111/28 93/112/28
f 93/113/29 157/114/29 158/115/29 94/116/29
f 94/117/30 158/118/30 159/119/30 95/120/30
f 28/121/29 26/122/29 173/123/29 174/124/29
f 95/125/31 159/126/31 160/127/31 96/128/31
f 96/129/32 160/130/32 130/131/32 65/132/32
f 43/133/22 45/134/22 119/135/22 118/136/22
f 3/137/33 1/138/33 65/139/33 66/140/33
f 5/141/33 3/137/33 66/140/33 67/142/33
f 7/143/33 5/141/33 67/142/33 68/144/33
f 9/145/33 7/143/33 68/144/33 69/146/33
f 11/147/33 9/145/33 69/146/33 70/148/33
f 13/149/33 11/147/33 70/148/33 71/150/33
f 15/151/33 13/149/33 71/150/33 72/152/33
f 17/153/33 15/151/33 72/152/33 73/154/33
f 19/155/33 17/153/33 73/154/33 74/156/33
f 21/157/33 19/155/33 74/156/33 75/158/33
f 23/159/33 21/157/33 75/158/33 76/160/33
f 25/161/33 23/159/33 76/160/33 77/162/33
f 27/163/33 25/161/33 77/162/33 78/164/33
f 29/165/33 27/163/33 78/164/33 79/166/33
f 31/167/33 29/165/33 79/166/33 80/168/33
f 33/169/33 31/167/33 80/168/33 81/170/33
f 35/171/33 33/169/33 81/170/33 82/172/33
f 37/173/33 35/171/33 82/172/33 83/174/33
f 39/175/33 37/173/33 83/174/33 84/176/33
f 41/177/33 39/175/33 84/176/33 85/178/33
f 43/179/33 41/177/33 85/178/33 86/180/33
f 45/181/33 43/179/33 86/180/33 87/182/33
f 47/183/33 45/181/33 87/182/33 88/184/33
f 49/185/33 47/183/33 88/184/33 89/186/33
f 51/187/33 49/185/33 89/186/33 90/188/33
f 53/189/33 51/187/33 90/188/33 91/190/33
f 55/191/33 53/189/33 91/190/33 92/192/33
f 57/193/33 55/191/33 92/192/33 93/194/33
f 59/195/33 57/193/33 93/194/33 94/196/33
f 61/197/33 59/195/33 94/196/33 95/198/33
f 63/199/33 61/197/33 95/198/33 96/200/33
f 1/138/33 63/199/33 96/200/33 65/139/33
f 119/201/23 120/202/23 216/203/23 215/204/23
f 17/205/9 19/206/9 106/207/9 105/208/9
f 45/209/23 47/210/23 120/202/23 119/201/23
f 19/211/10 21/212/10 107/213/10 106/214/10
f 47/215/24 49/216/24 121/217/24 120/218/24
f 21/219/11 23/220/11 108/221/11 107/222/11
f 49/223/25 51/224/25 122/225/25 121/226/25
f 23/227/12 25/228/12 109/229/12 108/230/12
f 51/231/26 53/232/26 123/233/26 122/234/26
f 25/235/13 27/236/13 110/237/13 109/238/13
f 53/239/27 55/240/27 124/241/27 123/242/27
f 27/243/14 29/244/14 111/245/14 110/246/14
f 1/247/1 3/248/1 98/249/1 97/250/1
f 55/251/28 57/252/28 125/253/28 124/254/28
f 29/255/15 31/256/15 112/257/15 111/258/15
f 3/259/2 5/260/2 99/261/2 98/262/2
f 57/263/29 59/264/29 126/265/29 125/266/29
f 31/267/16 33/268/16 113/269/16 112/270/16
f 5/271/3 7/272/3 100/273/3 99/274/3
f 59/275/30 61/276/30 127/277/30 126/278/30
f 33/279/17 35/280/17 114/281/17 113/282/17
f 7/283/4 9/284/4 101/285/4 100/286/4
f 61/287/31 63/288/31 128/289/31 127/290/31
f 35/291/18 37/292/18 115/293/18 114/294/18
f 9/295/5 11/296/5 102/297/5 101/298/5
f 63/299/32 1/300/32 97/301/32 128/302/32
f 37/303/19 39/304/19 116/305/19 115/306/19
f 11/307/6 13/308/6 103/309/6 102/310/6
f 39/311/20 41/312/20 117/313/20 116/314/20
f 13/315/7 15/316/7 104/317/7 103/318/7
f 41/319/21 43/320/21 118/321/21 117/322/21
f 15/323/8 17/324/8 105/325/8 104/326/8
f 2/327/34 4/328/34 129/329/34 130/330/34
f 4/328/34 6/331/34 131/332/34 129/329/34
f 6/331/34 8/333/34 132/334/34 131/332/34
f 8/333/34 10/335/34 133/336/34 132/334/34
f 10/335/34 12/337/34 134/338/34 133/336/34
f 12/337/34 14/339/34 135/340/34 134/338/34
f 14/339/34 16/341/34 136/342/34 135/340/34
f 16/341/34 18/343/34 137/344/34 136/342/34
f 18/343/34 20/345/34 138/346/34 137/344/34
f 20/345/34 22/347/34 139/348/34 138/346/34
f 22/347/34 24/349/34 140/350/34 139/348/34
f 24/349/34 26/351/34 141/352/34 140/350/34
f 26/351/34 28/353/34 142/354/34 141/352/34
f 28/353/34 30/355/34 143/356/34 142/354/34
f 30/355/34 32/357/34 144/358/34 143/356/34
f 32/357/34 34/359/34 145/360/34 144/358/34
f 34/359/34 36/361/34 146/362/34 145/360/34
f 36/361/34 38/363/34 147/364/34 146/362/34
f 38/363/34 40/365/34 148/366/34 147/364/34
f 40/365/34 42/367/34 149/368/34 148/366/34
f 42/367/34 44/369/34 150/370/34 149/368/34
f 44/369/34 46/371/34 151/372/34 150/370/34
f 46/371/34 48/373/34 152/374/34 151/372/34
f 48/373/34 50/375/34 153/376/34 152/374/34
f 50/375/34 52/377/34 154/378/34 153/376/34
f 52/377/34 54/379/34 155/380/34 154/378/34
f 54/379/34 56/381/34 156/382/34 155/380/34
f 56/381/34 58/383/34 157/384/34 156/382/34
f 58/383/34 60/385/34 158/386/34 157/384/34
f 60/385/34 62/387/34 159/388/34 158/386/34
f 62/387/34 64/389/34 160/390/34 159/388/34
f 64/389/34 2/327/34 130/330/34 160/390/34
f 161/391/34 162/392/34 192/393/34 191/394/34 190/395/34 189/396/34 188/397/34 187/398/34 186/399/34 185/400/34 184/401/34 183/402/34 182/403/34 181/404/34 180/405/34 179/406/34 178/407/34 177/408/34 176/409/34 175/410/34 174/411/34 173/412/34 172/413/34 171/414/34 170/415/34 169/416/34 168/417/34 167/418/34 166/419/34 165/420/34 164/421/34 163/422/34
f 56/423/11 54/424/11 187/425/11 188/426/11
f 30/427/30 28/428/30 174/429/30 175/430/30
f 4/431/17 2/432/17 162/433/17 161/434/17
f 58/435/12 56/436/12 188/437/12 189/438/12
f 32/439/31 30/440/31 175/441/31 176/442/31
f 6/443/18 4/444/18 161/445/18 163/446/18
f 60/447/13 58/448/13 189/449/13 190/450/13
f 34/451/32 32/452/32 176/453/32 177/454/32
f 8/455/19 6/456/19 163/457/19 164/458/19
f 62/459/14 60/460/14 190/461/14 191/462/14
f 36/463/1 34/464/1 177/465/1 178/466/1
f 10/467/20 8/468/20 164/469/20 165/470/20
f 64/471/15 62/472/15 191/473/15 192/474/15
f 38/475/2 36/476/2 178/477/2 179/478/2
f 12/479/21 10/480/21 165/481/21 166/482/21
f 2/483/16 64/484/16 192/485/16 162/486/16
f 40/487/3 38/488/3 179/489/3 180/490/3
f 14/491/22 12/492/22 166/493/22 167/494/22
f 42/495/4 40/496/4 180/497/4 181/498/4
f 16/499/23 14/500/23 167/501/23 168/502/23
f 44/503/5 42/504/5 181/505/5 182/506/5
f 18/507/24 16/508/24 168/509/24 169/510/24
f 46/511/6 44/512/6 182/513/6 183/514/6
f 20/515/25 18/516/25 169/517/25 170/518/25
f 48/519/7 46/520/7 183/521/7 184/522/7
f 22/523/26 20/524/26 170/525/26 171/526/26
f 50/527/8 48/528/8 184/529/8 185/530/8
f 24/531/27 22/532/27 171/533/27 172/534/27
f 52/535/9 50/536/9 185/537/9 186/538/9
f 26/539/28 24/540/28 172/541/28 173/542/28
f 54/543/10 52/544/10 186/545/10 187/546/10
f 193/547/33 194/548/33 195/549/33 196/550/33 197/551/33 198/552/33 199/553/33 200/554/33 201/555/33 202/556/33 203/557/33 204/558/33 205/559/33 206/560/33 207/561/33 208/562/33 209/563/33 210/564/33 211/565/33 212/566/33 213/567/33 214/568/33 215/569/33 216/570/33 217/571/33 218/572/33 219/573/33 220/574/33 221/575/33 222/576/33 223/577/33 224/578/33
f 106/214/10 107/213/10 203/579/10 202/580/10
f 120/218/24 121/217/24 217/581/24 216/582/24
f 107/222/11 108/221/11 204/583/11 203/584/11
f 121/226/25 122/225/25 218/585/25 217/586/25
f 108/230/12 109/229/12 205/587/12 204/588/12
f 122/234/26 123/233/26 219/589/26 218/590/26
f 109/238/13 110/237/13 206/591/13 205/592/13
f 123/242/27 124/241/27 220/593/27 219/594/27
f 110/246/14 111/245/14 207/595/14 206/596/14
f 97/250/1 98/249/1 194/597/1 193/598/1
f 124/254/28 125/253/28 221/599/28 220/600/28
f 111/258/15 112/257/15 208/601/15 207/602/15
f 98/262/2 99/261/2 195/603/2 194/604/2
f 125/266/29 126/265/29 222/605/29 221/606/29
f 269/607/34 268/608/34 229/609/34 228/610/34
f 99/274/3 100/273/3 196/611/3 195/612/3
f 126/278/30 127/277/30 223/613/30 222/614/30
f 261/615/10 260/616/10 225/617/10 231/618/10
f 100/286/4 101/285/4 197/619/4 196/620/4
f 127/290/31 128/289/31 224/621/31 223/622/31
f 253/623/33 240/624/33 232/625/33 233/626/33
f 101/298/5 102/297/5 198/627/5 197/628/5
f 128/629/32 97/630/32 193/631/32 224/632/32
f 241/633/26 245/634/26 236/635/26 230/636/26
f 102/310/6 103/309/6 199/637/6 198/638/6
f 245/639/33 252/640/33 235/641/33 236/642/33
f 103/318/7 104/317/7 200/643/7 199/644/7
f 117/322/21 118/321/21 214/645/21 213/646/21
f 104/326/8 105/325/8 201/647/8 200/648/8
f 118/136/22 119/135/22 215/649/22 214/650/22
f 105/208/9 106/207/9 202/651/9 201/652/9
f 225/653/16 226/654/16 232/655/16 231/656/16
f 226/657/17 227/658/17 233/659/17 232/660/17
f 227/661/18 228/662/18 234/663/18 233/664/18
f 228/665/19 229/666/19 235/667/19 234/668/19
f 229/669/20 230/670/20 236/671/20 235/672/20
f 260/673/34 276/674/34 226/675/34 225/676/34
f 277/677/33 253/623/33 233/626/33 234/678/33
f 268/608/34 241/679/34 230/680/34 229/609/34
f 276/674/34 284/681/34 227/682/34 226/675/34
f 252/640/33 277/677/33 234/678/33 235/641/33
f 240/624/33 261/683/33 231/684/33 232/625/33
f 284/681/34 269/607/34 228/610/34 227/682/34
f 114/685/34 115/686/34 272/687/34 281/688/34
f 281/688/34 272/687/34 271/689/34 282/690/34
f 282/690/34 271/689/34 270/691/34 283/692/34
f 283/692/34 270/691/34 269/607/34 284/681/34
f 209/563/33 208/562/33 264/693/33 237/694/33
f 237/694/33 264/693/33 263/695/33 238/696/33
f 238/696/33 263/695/33 262/697/33 239/698/33
f 239/698/33 262/697/33 261/683/33 240/624/33
f 212/566/33 211/565/33 280/699/33 249/700/33
f 249/700/33 280/699/33 279/701/33 250/702/33
f 250/702/33 279/701/33 278/703/33 251/704/33
f 251/704/33 278/703/33 277/677/33 252/640/33
f 113/705/34 114/685/34 281/688/34 273/706/34
f 273/706/34 281/688/34 282/690/34 274/707/34
f 274/707/34 282/690/34 283/692/34 275/708/34
f 275/708/34 283/692/34 284/681/34 276/674/34
f 116/709/34 117/710/34 244/711/34 265/712/34
f 265/712/34 244/711/34 243/713/34 266/714/34
f 266/714/34 243/713/34 242/715/34 267/716/34
f 267/716/34 242/715/34 241/679/34 268/608/34
f 211/565/33 210/564/33 256/717/33 280/699/33
f 280/699/33 256/717/33 255/718/33 279/701/33
f 279/701/33 255/718/33 254/719/33 278/703/33
f 278/703/33 254/719/33 253/623/33 277/677/33
f 112/720/34 113/705/34 273/706/34 257/721/34
f 257/721/34 273/706/34 274/707/34 258/722/34
f 258/722/34 274/707/34 275/708/34 259/723/34
f 259/723/34 275/708/34 276/674/34 260/673/34
f 213/567/33 212/566/33 249/700/33 248/724/33
f 248/724/33 249/700/33 250/702/33 247/725/33
f 247/725/33 250/702/33 251/704/33 246/726/33
f 246/726/33 251/704/33 252/640/33 245/639/33
f 117/727/26 213/728/26 248/729/26 244/730/26
f 244/730/26 248/729/26 247/731/26 243/732/26
f 243/732/26 247/731/26 246/733/26 242/734/26
f 242/734/26 246/733/26 245/634/26 241/633/26
f 210/564/33 209/563/33 237/694/33 256/717/33
f 256/717/33 237/694/33 238/696/33 255/718/33
f 255/718/33 238/696/33 239/698/33 254/719/33
f 254/719/33 239/698/33 240/624/33 253/623/33
f 208/735/10 112/736/10 257/737/10 264/738/10
f 264/738/10 257/737/10 258/739/10 263/740/10
f 263/740/10 258/739/10 259/741/10 262/742/10
f 262/742/10 259/741/10 260/616/10 261/615/10
f 115/686/34 116/709/34 265/712/34 272/687/34
f 272/687/34 265/712/34 266/714/34 271/689/34
f 271/689/34 266/714/34 267/716/34 270/691/34
f 270/691/34 267/716/34 268/608/34 269/607/34
o Cylinder.014
v -0.820325 0.369864 -1.537193
v -0.847115 0.369864 -1.537193
v -0.820325 0.435194 -1.530758
v -0.847115 0.435194 -1.530758
v -0.820325 0.498014 -1.511702
v -0.847115 0.498014 -1.511702
v -0.820325 0.555910 -1.480756
v -0.847115 0.555910 -1.480756
v -0.820325 0.606655 -1.439110
v -0.847115 0.606655 -1.439110
v -0.820325 0.648301 -1.388365
v -0.847115 0.648301 -1.388365
v -0.820325 0.679247 -1.330469
v -0.847115 0.679247 -1.330469
v -0.820325 0.698303 -1.267649
v -0.847115 0.698303 -1.267649
v -0.820325 0.704738 -1.202319
v -0.847115 0.704738 -1.202319
v -0.820325 0.698303 -1.136988
v -0.847115 0.698303 -1.136988
v -0.820325 0.679247 -1.074168
v -0.847115 0.679247 -1.074168
v -0.820325 0.648301 -1.016273
v -0.847115 0.648301 -1.016273
v -0.820325 0.606655 -0.965527
v -0.847115 0.606655 -0.965527
v -0.820325 0.555910 -0.923881
v -0.847115 0.555910 -0.923881
v -0.820325 0.498014 -0.892935
v -0.847115 0.498014 -0.892935
v -0.820325 0.435194 -0.873879
v -0.847115 0.435194 -0.873879
v -0.820325 0.369864 -0.867445
v -0.847115 0.369864 -0.867445
v -0.820325 0.304533 -0.873879
v -0.847115 0.304533 -0.873879
v -0.820325 0.241713 -0.892935
v -0.847115 0.241713 -0.892935
v -0.820325 0.183818 -0.923881
v -0.847115 0.183818 -0.923881
v -0.820325 0.133072 -0.965527
v -0.847115 0.133072 -0.965527
v -0.820325 0.091426 -1.016273
v -0.847115 0.091426 -1.016273
v -0.820325 0.060480 -1.074168
v -0.847115 0.060480 -1.074168
v -0.820325 0.041424 -1.136988
v -0.847115 0.041424 -1.136988
v -0.820325 0.034990 -1.202319
v -0.847115 0.034990 -1.202319
v -0.820325 0.041424 -1.267649
v -0.847115 0.041424 -1.267649
v -0.820325 0.060480 -1.330469
v -0.847115 0.060480 -1.330469
v -0.820325 0.091426 -1.388365
v -0.847115 0.091426 -1.388365
v -0.820325 0.133072 -1.439110
v -0.847115 0.133072 -1.439110
v -0.820325 0.183818 -1.480756
v -0.847115 0.183818 -1.480756
v -0.820325 0.241713 -1.511702
v -0.847115 0.241713 -1.511702
v -0.820325 0.304533 -1.530758
v -0.847115 0.304533 -1.530758
vn -0.0000 0.0980 -0.9952
vn -0.0000 0.2903 -0.9569
vn -0.0000 0.4714 -0.8819
vn -0.0000 0.6344 -0.7730
vn -0.0000 0.7730 -0.6344
vn -0.0000 0.8819 -0.4714
vn -0.0000 0.9569 -0.2903
vn -0.0000 0.9952 -0.0980
vn -0.0000 0.9952 0.0980
vn -0.0000 0.9569 0.2903
vn -0.0000 0.8819 0.4714
vn -0.0000 0.7730 0.6344
vn -0.0000 0.6344 0.7730
vn -0.0000 0.4714 0.8819
vn -0.0000 0.2903 0.9569
vn -0.0000 0.0980 0.9952
vn -0.0000 -0.0980 0.9952
vn -0.0000 -0.2903 0.9569
vn -0.0000 -0.4714 0.8819
vn -0.0000 -0.6344 0.7730
vn -0.0000 -0.7730 0.6344
vn -0.0000 -0.8819 0.4714
vn -0.0000 -0.9569 0.2903
vn -0.0000 -0.9952 0.0980
vn -0.0000 -0.9952 -0.0980
vn -0.0000 -0.9569 -0.2903
vn -0.0000 -0.8819 -0.4714
vn -0.0000 -0.7730 -0.6344
vn -0.0000 -0.6344 -0.7730
vn -0.0000 -0.4714 -0.8819
vn -1.0000 -0.0000 -0.0000
vn -0.0000 -0.2903 -0.9569
vn -0.0000 -0.0980 -0.9952
vn 1.0000 -0.0000 -0.0000
vt 0.893728 0.336151
vt 0.890449 0.336151
vt 0.890449 0.328114
vt 0.893728 0.328114
vt 0.822567 0.336151
vt 0.819288 0.336151
vt 0.819288 0.328114
vt 0.822567 0.328114
vt 0.987288 0.759530
vt 0.984008 0.759530
vt 0.984008 0.751494
vt 0.987288 0.751494
vt 0.870404 0.645974
vt 0.867124 0.645974
vt 0.867124 0.637937
vt 0.870404 0.637937
vt 0.337012 0.947664
vt 0.333732 0.947664
vt 0.333732 0.939627
vt 0.337012 0.939627
vt 0.822963 0.645974
vt 0.819683 0.645974
vt 0.819683 0.637937
vt 0.822963 0.637937
vt 0.954709 0.723942
vt 0.951429 0.723942
vt 0.951429 0.715906
vt 0.954709 0.715906
vt 0.989780 0.369068
vt 0.986500 0.369068
vt 0.986500 0.361031
vt 0.989780 0.361031
vt 0.781894 0.956706
vt 0.785173 0.956706
vt 0.785173 0.964743
vt 0.781894 0.964743
vt 0.805614 0.956706
vt 0.808894 0.956706
vt 0.808894 0.964743
vt 0.805614 0.964743
vt 0.986500 0.398091
vt 0.989780 0.398091
vt 0.989780 0.406128
vt 0.986500 0.406128
vt 0.829334 0.956706
vt 0.832614 0.956706
vt 0.832614 0.964743
vt 0.829334 0.964743
vt 0.719077 0.622812
vt 0.722357 0.622812
vt 0.722357 0.630848
vt 0.719077 0.630848
vt 0.304190 0.959447
vt 0.307470 0.959447
vt 0.307470 0.967484
vt 0.304190 0.967484
vt 0.843008 0.328114
vt 0.846288 0.328114
vt 0.846288 0.336151
vt 0.843008 0.336151
vt 0.866728 0.328114
vt 0.870008 0.328114
vt 0.870008 0.336151
vt 0.866728 0.336151
vt 0.871596 0.965363
vt 0.874876 0.965363
vt 0.874876 0.973400
vt 0.871596 0.973400
vt 0.890844 0.637937
vt 0.894124 0.637937
vt 0.894124 0.645974
vt 0.890844 0.645974
vt 0.871596 0.908409
vt 0.874876 0.908409
vt 0.874876 0.916445
vt 0.871596 0.916445
vt 0.333732 0.968104
vt 0.337012 0.968104
vt 0.337012 0.976141
vt 0.333732 0.976141
vt 0.984008 0.808448
vt 0.987288 0.808448
vt 0.987288 0.816485
vt 0.984008 0.816485
vt 0.843404 0.637937
vt 0.846683 0.637937
vt 0.846683 0.645974
vt 0.843404 0.645974
vt 0.795567 0.328114
vt 0.798847 0.328114
vt 0.798847 0.336151
vt 0.795567 0.336151
vt 0.975150 0.715906
vt 0.978429 0.715906
vt 0.978429 0.723942
vt 0.975150 0.723942
vt 0.989780 0.434605
vt 0.986500 0.434605
vt 0.986500 0.426568
vt 0.989780 0.426568
vt 0.799243 0.645974
vt 0.795963 0.645974
vt 0.795963 0.637937
vt 0.799243 0.637937
vt 0.337012 0.919186
vt 0.333732 0.919186
vt 0.333732 0.911150
vt 0.337012 0.911150
vt 0.874876 0.944923
vt 0.871596 0.944923
vt 0.871596 0.936886
vt 0.874876 0.936886
vt 0.984251 0.675645
vt 0.980971 0.675645
vt 0.980971 0.667608
vt 0.984251 0.667608
vt 0.985135 0.856125
vt 0.981855 0.856125
vt 0.981855 0.848088
vt 0.985135 0.848088
vt 0.410991 0.960640
vt 0.403108 0.962208
vt 0.395072 0.962208
vt 0.387190 0.960640
vt 0.379765 0.957564
vt 0.373083 0.953099
vt 0.367400 0.947417
vt 0.362935 0.940735
vt 0.359859 0.933310
vt 0.358292 0.925427
vt 0.358292 0.917391
vt 0.359859 0.909509
vt 0.362935 0.902084
vt 0.367400 0.895401
vt 0.373083 0.889719
vt 0.379765 0.885254
vt 0.387190 0.882178
vt 0.395072 0.880610
vt 0.403108 0.880610
vt 0.410991 0.882178
vt 0.418416 0.885254
vt 0.425098 0.889719
vt 0.430781 0.895401
vt 0.435245 0.902084
vt 0.438321 0.909509
vt 0.439889 0.917391
vt 0.439889 0.925427
vt 0.438321 0.933310
vt 0.435245 0.940734
vt 0.430781 0.947417
vt 0.425098 0.953099
vt 0.418416 0.957564
vt 0.463609 0.986950
vt 0.460329 0.986950
vt 0.460329 0.978913
vt 0.463609 0.978913
vt 0.987288 0.788007
vt 0.984008 0.788007
vt 0.984008 0.779971
vt 0.987288 0.779971
vt 0.899986 0.947208
vt 0.898418 0.939326
vt 0.898418 0.931289
vt 0.899986 0.923407
vt 0.903061 0.915982
vt 0.907526 0.909300
vt 0.913209 0.903617
vt 0.919891 0.899152
vt 0.927316 0.896077
vt 0.935198 0.894509
vt 0.943235 0.894509
vt 0.951117 0.896077
vt 0.958542 0.899152
vt 0.965224 0.903617
vt 0.970907 0.909300
vt 0.975372 0.915982
vt 0.978447 0.923407
vt 0.980015 0.931289
vt 0.980015 0.939326
vt 0.978447 0.947208
vt 0.975372 0.954633
vt 0.970907 0.961315
vt 0.965224 0.966998
vt 0.958542 0.971463
vt 0.951117 0.974538
vt 0.943235 0.976106
vt 0.935198 0.976106
vt 0.927316 0.974538
vt 0.919891 0.971463
vt 0.913209 0.966998
vt 0.907526 0.961315
vt 0.903061 0.954633
s 0
usemtl скрин
f 285/743/35 286/744/35 288/745/35 287/746/35
f 287/747/36 288/748/36 290/749/36 289/750/36
f 289/751/37 290/752/37 292/753/37 291/754/37
f 291/755/38 292/756/38 294/757/38 293/758/38
f 293/759/39 294/760/39 296/761/39 295/762/39
f 295/763/40 296/764/40 298/765/40 297/766/40
f 297/767/41 298/768/41 300/769/41 299/770/41
f 299/771/42 300/772/42 302/773/42 301/774/42
f 301/775/43 302/776/43 304/777/43 303/778/43
f 303/779/44 304/780/44 306/781/44 305/782/44
f 305/783/45 306/784/45 308/785/45 307/786/45
f 307/787/46 308/788/46 310/789/46 309/790/46
f 309/791/47 310/792/47 312/793/47 311/794/47
f 311/795/48 312/796/48 314/797/48 313/798/48
f 313/799/49 314/800/49 316/801/49 315/802/49
f 315/803/50 316/804/50 318/805/50 317/806/50
f 317/807/51 318/808/51 320/809/51 319/810/51
f 319/811/52 320/812/52 322/813/52 321/814/52
f 321/815/53 322/816/53 324/817/53 323/818/53
f 323/819/54 324/820/54 326/821/54 325/822/54
f 325/823/55 326/824/55 328/825/55 327/826/55
f 327/827/56 328/828/56 330/829/56 329/830/56
f 329/831/57 330/832/57 332/833/57 331/834/57
f 331/835/58 332/836/58 334/837/58 333/838/58
f 333/839/59 334/840/59 336/841/59 335/842/59
f 335/843/60 336/844/60 338/845/60 337/846/60
f 337/847/61 338/848/61 340/849/61 339/850/61
f 339/851/62 340/852/62 342/853/62 341/854/62
f 341/855/63 342/856/63 344/857/63 343/858/63
f 343/859/64 344/860/64 346/861/64 345/862/64
f 288/863/65 286/864/65 348/865/65 346/866/65 344/867/65 342/868/65 340/869/65 338/870/65 336/871/65 334/872/65 332/873/65 330/874/65 328/875/65 326/876/65 324/877/65 322/878/65 320/879/65 318/880/65 316/881/65 314/882/65 312/883/65 310/884/65 308/885/65 306/886/65 304/887/65 302/888/65 300/889/65 298/890/65 296/891/65 294/892/65 292/893/65 290/894/65
f 345/895/66 346/896/66 348/897/66 347/898/66
f 347/899/67 348/900/67 286/901/67 285/902/67
f 285/903/68 287/904/68 289/905/68 291/906/68 293/907/68 295/908/68 297/909/68 299/910/68 301/911/68 303/912/68 305/913/68 307/914/68 309/915/68 311/916/68 313/917/68 315/918/68 317/919/68 319/920/68 321/921/68 323/922/68 325/923/68 327/924/68 329/925/68 331/926/68 333/927/68 335/928/68 337/929/68 339/930/68 341/931/68 343/932/68 345/933/68 347/934/68
o Plane.004
v -0.730092 0.302065 -1.173533
v -0.732149 0.362066 -1.181533
v -0.730092 0.302065 -1.213533
v -0.732149 0.362066 -1.205533
v -0.740378 0.302065 -1.213533
v -0.740378 0.302065 -1.173533
v -0.738321 0.362066 -1.181533
v -0.738321 0.362066 -1.205533
v -0.733691 0.437066 -1.187533
v -0.733691 0.437066 -1.199533
v -0.736777 0.437066 -1.187533
v -0.736777 0.437066 -1.199533
v -0.730608 0.452065 -1.175533
v -0.730608 0.452065 -1.211533
v -0.739865 0.452065 -1.175533
v -0.739865 0.452065 -1.211533
v -0.730608 0.497065 -1.175533
v -0.730608 0.497065 -1.211533
v -0.739865 0.497065 -1.175533
v -0.739865 0.497065 -1.211533
v -0.735237 0.587065 -1.193533
vn 0.9994 0.0343 -0.0000
vn -0.9994 0.0343 -0.0000
vn -0.0000 0.0797 -0.9968
vn -0.0000 -1.0000 -0.0000
vn -0.0000 0.1322 -0.9912
vn -0.0000 0.1322 0.9912
vn 0.9795 -0.2013 -0.0000
vn -0.9998 0.0206 -0.0000
vn 0.9998 0.0205 -0.0000
vn -0.0000 0.0797 0.9968
vn -0.0000 -0.0000 1.0000
vn -0.0000 -0.6247 0.7809
vn -0.9794 -0.2017 -0.0000
vn -0.0000 -0.6247 -0.7808
vn -0.0000 0.1961 -0.9806
vn -1.0000 -0.0000 -0.0000
vn -0.0000 -0.0000 -1.0000
vn 1.0000 -0.0000 -0.0000
vn 0.9987 0.0514 -0.0000
vn -0.0000 0.1961 0.9806
vn -0.9987 0.0514 -0.0000
vt 0.255065 0.924256
vt 0.010220 0.924256
vt 0.059190 0.679404
vt 0.206097 0.679404
vt 0.255065 0.414112
vt 0.206097 0.658964
vt 0.059190 0.658964
vt 0.010220 0.414112
vt 0.694344 0.010220
vt 0.698637 0.010220
vt 0.697563 0.318474
vt 0.695416 0.318474
vt 0.337851 0.414112
vt 0.337851 0.658956
vt 0.330696 0.658956
vt 0.330696 0.414112
vt 0.276936 0.663808
vt 0.275505 0.414112
vt 0.282660 0.414112
vt 0.281229 0.663808
vt 0.303101 0.663808
vt 0.304532 0.414112
vt 0.308825 0.414112
vt 0.310255 0.663808
vt 0.439977 0.561020
vt 0.439977 0.487567
vt 0.501221 0.414112
vt 0.501221 0.634472
vt 0.526996 0.010220
vt 0.673903 0.010220
vt 0.637177 0.316280
vt 0.563724 0.316280
vt 0.673903 0.642780
vt 0.526997 0.642780
vt 0.563724 0.336721
vt 0.637177 0.336721
vt 0.698637 0.647168
vt 0.694344 0.647168
vt 0.695416 0.338914
vt 0.697563 0.338914
vt 0.719077 0.214664
vt 0.725517 0.214664
vt 0.725517 0.398297
vt 0.719077 0.398297
vt 0.279796 0.779860
vt 0.277650 0.779860
vt 0.275505 0.684249
vt 0.281945 0.684249
vt 0.419536 0.487567
vt 0.419536 0.561020
vt 0.358292 0.634472
vt 0.358292 0.414112
vt 0.332841 0.679397
vt 0.334987 0.679397
vt 0.337135 0.775010
vt 0.330696 0.775010
vt 0.473237 0.010274
vt 0.479676 0.010220
vt 0.479676 0.393671
vt 0.490270 0.883580
vt 0.490270 0.663220
vt 0.673903 0.663220
vt 0.673903 0.883580
vt 0.725517 0.602371
vt 0.719077 0.602371
vt 0.719077 0.418738
vt 0.725517 0.418738
vt 0.877977 0.667608
vt 0.877977 0.887968
vt 0.694344 0.887968
vt 0.694344 0.667608
vt 0.221288 0.393671
vt 0.010221 0.330354
vt 0.221288 0.010221
vt 0.506556 0.393657
vt 0.500117 0.393657
vt 0.503336 0.010220
vt 0.241730 0.010220
vt 0.452797 0.073538
vt 0.241730 0.393671
s 0
f 349/935/69 351/936/69 352/937/69 350/938/69
f 354/939/70 355/940/70 356/941/70 353/942/70
f 352/943/71 356/944/71 360/945/71 358/946/71
f 351/947/72 349/948/72 354/949/72 353/950/72
f 352/951/73 351/952/73 353/953/73 356/954/73
f 349/955/74 350/956/74 355/957/74 354/958/74
f 357/959/75 358/960/75 362/961/75 361/962/75
f 356/963/76 355/964/76 359/965/76 360/966/76
f 350/967/77 352/968/77 358/969/77 357/970/77
f 355/971/78 350/972/78 357/973/78 359/974/78
f 363/975/79 361/976/79 365/977/79 367/978/79
f 359/979/80 357/980/80 361/981/80 363/982/80
f 360/983/81 359/984/81 363/985/81 364/986/81
f 358/987/82 360/988/82 364/989/82 362/990/82
f 366/991/83 368/992/83 369/993/83
f 364/994/84 363/995/84 367/996/84 368/997/84
f 362/998/85 364/999/85 368/1000/85 366/1001/85
f 361/1002/86 362/1003/86 366/1004/86 365/1005/86
f 365/1006/87 366/1007/87 369/1008/87
f 367/1009/88 365/1010/88 369/1011/88
f 368/1012/89 367/1013/89 369/1014/89
