# Blender 5.1.2
# www.blender.org
mtllib PipeCrank.mtl
o Plane
v -0.493599 -0.037094 0.071111
v -0.493599 0.066791 -0.000000
v -0.493599 -0.037094 -0.071111
v -0.521231 -0.037094 -0.071111
v -0.521231 -0.037094 0.071111
v -0.521231 0.066791 -0.000000
v -0.493599 0.267629 -0.293400
v -0.493599 0.163744 -0.364511
v -0.521231 0.163744 -0.364511
v -0.521231 0.267629 -0.293400
v -0.493599 0.163744 0.364511
v -0.493599 0.267629 0.293400
v -0.521231 0.267629 0.293400
v -0.521231 0.163744 0.364511
v -0.493599 -0.392649 -0.071111
v -0.493599 -0.392649 0.071111
v -0.521231 -0.392649 0.071111
v -0.521231 -0.392649 -0.071111
v -0.493599 0.063325 -0.217811
v -0.493599 0.119802 -0.146700
v -0.521231 0.063325 -0.217811
v -0.521231 0.119802 -0.146700
v -0.493599 0.167210 0.146700
v -0.493599 0.063325 0.170404
v -0.521231 0.167210 0.146700
v -0.521231 0.063325 0.170404
v -0.493599 -0.214871 0.071111
v -0.493599 -0.167464 -0.023704
v -0.521231 -0.214871 0.071111
v -0.521231 -0.167464 -0.023704
v -0.508092 0.591185 -0.000000
v -0.567352 0.575306 -0.000000
v -0.610732 0.531926 -0.000000
v -0.626611 0.472667 -0.000000
v -0.610732 0.413407 -0.000000
v -0.567352 0.370027 -0.000000
v -0.508092 0.354148 -0.000000
v -0.448833 0.370027 -0.000000
v -0.405452 0.413407 -0.000000
v -0.389574 0.472667 -0.000000
v -0.405452 0.531926 -0.000000
v -0.448833 0.575306 -0.000000
v -0.508092 0.511793 -0.296296
v -0.567352 0.498041 -0.288357
v -0.610732 0.460473 -0.266666
v -0.626611 0.409153 -0.237037
v -0.610732 0.357833 -0.207407
v -0.567352 0.320264 -0.185717
v -0.508092 0.306513 -0.177778
v -0.448833 0.320264 -0.185717
v -0.405452 0.357833 -0.207407
v -0.389574 0.409153 -0.237037
v -0.405452 0.460473 -0.266666
v -0.448833 0.498041 -0.288357
v -0.508092 0.294889 -0.513200
v -0.567352 0.286950 -0.499448
v -0.610732 0.265259 -0.461880
v -0.626611 0.235630 -0.410560
v -0.610732 0.206000 -0.359240
v -0.567352 0.184310 -0.321671
v -0.508092 0.176371 -0.307920
v -0.448833 0.184310 -0.321671
v -0.405452 0.206000 -0.359240
v -0.389574 0.235630 -0.410560
v -0.405452 0.265259 -0.461880
v -0.448833 0.286950 -0.499448
v -0.508092 -0.001407 -0.592592
v -0.567352 -0.001407 -0.576713
v -0.610732 -0.001407 -0.533333
v -0.626611 -0.001407 -0.474073
v -0.610732 -0.001407 -0.414814
v -0.567352 -0.001407 -0.371434
v -0.508092 -0.001407 -0.355555
v -0.448833 -0.001407 -0.371434
v -0.405452 -0.001407 -0.414814
v -0.389574 -0.001407 -0.474073
v -0.405452 -0.001407 -0.533333
v -0.448833 -0.001407 -0.576713
v -0.508092 -0.297703 -0.513200
v -0.567352 -0.289764 -0.499448
v -0.610732 -0.268073 -0.461880
v -0.626611 -0.238444 -0.410560
v -0.610732 -0.208814 -0.359240
v -0.567352 -0.187124 -0.321671
v -0.508092 -0.179184 -0.307920
v -0.448833 -0.187124 -0.321671
v -0.405452 -0.208814 -0.359240
v -0.389574 -0.238444 -0.410560
v -0.405452 -0.268073 -0.461880
v -0.448833 -0.289764 -0.499448
v -0.508092 -0.514606 -0.296296
v -0.567352 -0.500855 -0.288357
v -0.610732 -0.463286 -0.266666
v -0.626611 -0.411967 -0.237037
v -0.610732 -0.360647 -0.207407
v -0.567352 -0.323078 -0.185717
v -0.508092 -0.309327 -0.177778
v -0.448833 -0.323078 -0.185717
v -0.405452 -0.360647 -0.207407
v -0.389574 -0.411967 -0.237037
v -0.405452 -0.463286 -0.266666
v -0.448833 -0.500855 -0.288357
v -0.508092 -0.593999 -0.000000
v -0.567352 -0.578120 -0.000000
v -0.610732 -0.534740 -0.000000
v -0.626611 -0.475480 -0.000000
v -0.610732 -0.416221 -0.000000
v -0.567352 -0.372840 -0.000000
v -0.508092 -0.356962 -0.000000
v -0.448833 -0.372840 -0.000000
v -0.405452 -0.416221 -0.000000
v -0.389574 -0.475480 -0.000000
v -0.405452 -0.534740 -0.000000
v -0.448833 -0.578120 -0.000000
v -0.508092 -0.514607 0.296296
v -0.567352 -0.500855 0.288357
v -0.610732 -0.463286 0.266666
v -0.626611 -0.411967 0.237037
v -0.610732 -0.360647 0.207407
v -0.567352 -0.323078 0.185717
v -0.508092 -0.309327 0.177777
v -0.448833 -0.323078 0.185717
v -0.405452 -0.360647 0.207407
v -0.389574 -0.411967 0.237037
v -0.405452 -0.463286 0.266666
v -0.448833 -0.500855 0.288357
v -0.508092 -0.297703 0.513200
v -0.567352 -0.289764 0.499448
v -0.610732 -0.268073 0.461880
v -0.626611 -0.238444 0.410560
v -0.610732 -0.208814 0.359240
v -0.567352 -0.187124 0.321671
v -0.508092 -0.179184 0.307920
v -0.448833 -0.187124 0.321671
v -0.405452 -0.208814 0.359240
v -0.389574 -0.238444 0.410560
v -0.405452 -0.268073 0.461880
v -0.448833 -0.289764 0.499448
v -0.508092 -0.001407 0.592592
v -0.567352 -0.001407 0.576713
v -0.610732 -0.001407 0.533333
v -0.626611 -0.001407 0.474073
v -0.610732 -0.001407 0.414814
v -0.567352 -0.001407 0.371434
v -0.508092 -0.001407 0.355555
v -0.448833 -0.001407 0.371434
v -0.405452 -0.001407 0.414814
v -0.389574 -0.001407 0.474073
v -0.405452 -0.001407 0.533333
v -0.448833 -0.001407 0.576713
v -0.508092 0.294889 0.513200
v -0.567352 0.286950 0.499448
v -0.610732 0.265259 0.461880
v -0.626611 0.235630 0.410560
v -0.610732 0.206000 0.359240
v -0.567352 0.184310 0.321671
v -0.508092 0.176371 0.307920
v -0.448833 0.184310 0.321671
v -0.405452 0.206000 0.359240
v -0.389574 0.235630 0.410560
v -0.405452 0.265259 0.461880
v -0.448833 0.286950 0.499448
v -0.508092 0.511793 0.296296
v -0.567352 0.498041 0.288357
v -0.610732 0.460473 0.266666
v -0.626611 0.409153 0.237037
v -0.610732 0.357833 0.207407
v -0.567352 0.320264 0.185717
v -0.508092 0.306513 0.177778
v -0.448833 0.320264 0.185717
v -0.405452 0.357833 0.207407
v -0.389574 0.409153 0.237037
v -0.405452 0.460473 0.266666
v -0.448833 0.498041 0.288357
v -0.000000 -0.000000 -0.065472
v -0.491040 0.000000 -0.065472
v -0.000000 0.032736 -0.056700
v -0.491040 0.032736 -0.056700
v -0.000000 0.056700 -0.032736
v -0.491040 0.056700 -0.032736
v -0.000000 0.065472 0.000000
v -0.491040 0.065472 0.000000
v -0.000000 0.056700 0.032736
v -0.491040 0.056700 0.032736
v -0.000000 0.032736 0.056700
v -0.491040 0.032736 0.056700
v -0.000000 -0.000000 0.065472
v -0.491040 0.000000 0.065472
v -0.000000 -0.032736 0.056700
v -0.491040 -0.032736 0.056700
v -0.000000 -0.056700 0.032736
v -0.491040 -0.056700 0.032736
v -0.000000 -0.065472 0.000000
v -0.491040 -0.065472 0.000000
v -0.000000 -0.056700 -0.032736
v -0.491040 -0.056700 -0.032736
v -0.000000 -0.032736 -0.056700
v -0.491040 -0.032736 -0.056700
vn 1.0000 -0.0000 -0.0000
vn -1.0000 -0.0000 -0.0000
vn -0.0000 -0.8252 -0.5649
vn -0.0000 0.9405 0.3399
vn -0.0000 0.5649 -0.8252
vn -0.0000 0.7044 0.7098
vn -0.0000 0.5649 0.8252
vn -0.0000 0.8252 -0.5649
vn -0.0000 -0.8882 0.4595
vn -0.0000 -1.0000 -0.0000
vn -0.0000 -0.0000 1.0000
vn -0.0000 0.2060 -0.9785
vn -0.0000 -0.7031 0.7111
vn -0.0000 -0.3417 -0.9398
vn -0.2506 0.9351 -0.2506
vn -0.6947 0.6947 -0.1862
vn -0.9636 0.2582 -0.0692
vn -0.9636 -0.2582 0.0692
vn -0.6947 -0.6947 0.1862
vn -0.2506 -0.9351 0.2506
vn 0.2506 -0.9351 0.2506
vn 0.6947 -0.6947 0.1862
vn 0.9636 -0.2582 0.0692
vn 0.9636 0.2582 -0.0692
vn 0.6947 0.6947 -0.1862
vn 0.2506 0.9351 -0.2506
vn -0.2506 0.6846 -0.6846
vn -0.6947 0.5086 -0.5086
vn -0.9636 0.1890 -0.1890
vn -0.9636 -0.1890 0.1890
vn -0.6947 -0.5086 0.5086
vn -0.2506 -0.6846 0.6846
vn 0.2506 -0.6846 0.6846
vn 0.6947 -0.5086 0.5086
vn 0.9636 -0.1890 0.1890
vn 0.9636 0.1890 -0.1890
vn 0.6947 0.5086 -0.5086
vn 0.2506 0.6846 -0.6846
vn -0.2506 0.2506 -0.9351
vn -0.6947 0.1862 -0.6947
vn -0.9636 0.0692 -0.2582
vn -0.9636 -0.0692 0.2582
vn -0.6947 -0.1862 0.6947
vn -0.2506 -0.2506 0.9351
vn 0.2506 -0.2506 0.9351
vn 0.6947 -0.1862 0.6947
vn 0.9636 -0.0692 0.2582
vn 0.9636 0.0692 -0.2582
vn 0.6947 0.1862 -0.6947
vn 0.2506 0.2506 -0.9351
vn -0.2506 -0.2506 -0.9351
vn -0.6947 -0.1862 -0.6947
vn -0.9636 -0.0692 -0.2582
vn -0.9636 0.0692 0.2582
vn -0.6947 0.1862 0.6947
vn -0.2506 0.2506 0.9351
vn 0.2506 0.2506 0.9351
vn 0.6947 0.1862 0.6947
vn 0.9636 0.0692 0.2582
vn 0.9636 -0.0692 -0.2582
vn 0.6947 -0.1862 -0.6947
vn 0.2506 -0.2506 -0.9351
vn -0.2506 -0.6846 -0.6846
vn -0.6947 -0.5086 -0.5086
vn -0.9636 -0.1890 -0.1890
vn -0.9636 0.1890 0.1890
vn -0.6947 0.5086 0.5086
vn -0.2506 0.6846 0.6846
vn 0.2506 0.6846 0.6846
vn 0.6947 0.5086 0.5086
vn 0.9636 0.1890 0.1890
vn 0.9636 -0.1890 -0.1890
vn 0.6947 -0.5086 -0.5086
vn 0.2506 -0.6846 -0.6845
vn -0.2506 -0.9351 -0.2506
vn -0.6947 -0.6947 -0.1862
vn -0.9636 -0.2582 -0.0692
vn -0.9636 0.2582 0.0692
vn -0.6947 0.6947 0.1862
vn -0.2506 0.9351 0.2506
vn 0.2506 0.9351 0.2506
vn 0.6947 0.6947 0.1862
vn 0.9636 0.2582 0.0692
vn 0.9636 -0.2582 -0.0692
vn 0.6947 -0.6947 -0.1862
vn 0.2506 -0.9351 -0.2506
vn 0.2506 -0.6846 0.6845
vn 0.2506 -0.6846 -0.6846
vn -0.0000 0.2588 -0.9659
vn -0.0000 0.7071 -0.7071
vn -0.0000 0.9659 -0.2588
vn -0.0000 0.9659 0.2588
vn -0.0000 0.7071 0.7071
vn -0.0000 0.2588 0.9659
vn -0.0000 -0.2588 0.9659
vn -0.0000 -0.7071 0.7071
vn -0.0000 -0.9659 0.2588
vn -0.0000 -0.9659 -0.2588
vn -0.0000 -0.7071 -0.7071
vn -0.0000 -0.2588 -0.9659
vt 0.129163 0.571344
vt 0.129163 0.624345
vt 0.090449 0.597845
vt 0.406432 0.624345
vt 0.367718 0.597845
vt 0.406432 0.571344
vt 0.466697 0.897130
vt 0.466697 0.831011
vt 0.476994 0.831011
vt 0.476994 0.897130
vt 0.347963 0.543175
vt 0.369009 0.516675
vt 0.785559 0.936141
vt 0.785559 0.882915
vt 0.795856 0.882915
vt 0.795856 0.936141
vt 0.476994 0.928338
vt 0.476994 0.973074
vt 0.466697 0.973074
vt 0.466697 0.928338
vt 0.091740 0.679015
vt 0.054318 0.733684
vt 0.015604 0.707184
vt 0.070694 0.652514
vt 0.466697 0.764893
vt 0.476994 0.764893
vt 0.292873 0.488506
vt 0.331587 0.462005
vt 0.785559 0.805335
vt 0.795856 0.805335
vt 0.719356 0.929654
vt 0.719356 0.883770
vt 0.729654 0.883770
vt 0.729654 0.929654
vt 0.053027 0.543175
vt 0.015604 0.488506
vt 0.054318 0.462005
vt 0.091740 0.534342
vt 0.974099 0.281476
vt 0.974099 0.229805
vt 0.984396 0.229805
vt 0.984396 0.281476
vt 0.369009 0.661348
vt 0.331587 0.733684
vt 0.292873 0.707184
vt 0.330296 0.652514
vt 0.508202 0.843315
vt 0.508202 0.764893
vt 0.518499 0.764893
vt 0.518500 0.843315
vt 0.518500 0.927107
vt 0.518500 0.972647
vt 0.508202 0.972647
vt 0.508202 0.927107
vt 0.195414 0.571344
vt 0.261665 0.571344
vt 0.261665 0.624345
vt 0.177747 0.606678
vt 0.688148 0.929434
vt 0.688148 0.975098
vt 0.677851 0.975098
vt 0.677851 0.929434
vt 0.455016 0.589011
vt 0.538934 0.571344
vt 0.538934 0.624345
vt 0.472683 0.624345
vt 0.837362 0.846706
vt 0.837362 0.932141
vt 0.827065 0.932141
vt 0.827065 0.846706
vt 0.508202 0.895899
vt 0.518500 0.895899
vt 0.974099 0.333147
vt 0.984396 0.333147
vt 0.837362 0.805335
vt 0.827065 0.805335
vt 0.688148 0.883770
vt 0.677851 0.883770
vt 0.608392 0.462005
vt 0.608392 0.522348
vt 0.586309 0.526394
vt 0.586309 0.467668
vt 0.430797 0.167575
vt 0.430797 0.278826
vt 0.415181 0.274642
vt 0.415181 0.171759
vt 0.393850 0.268926
vt 0.393850 0.177475
vt 0.372519 0.263210
vt 0.372519 0.183191
vt 0.356903 0.259026
vt 0.356903 0.187375
vt 0.183646 0.764893
vt 0.183646 0.828152
vt 0.161563 0.829484
vt 0.161563 0.768929
vt 0.139479 0.828152
vt 0.139479 0.764893
vt 0.803304 0.187375
vt 0.767479 0.125323
vt 0.778910 0.113892
vt 0.818920 0.183191
vt 0.794525 0.098276
vt 0.840251 0.177475
vt 0.810141 0.082661
vt 0.861582 0.171759
vt 0.821572 0.071229
vt 0.877198 0.167575
vt 0.630476 0.467668
vt 0.630476 0.526394
vt 0.608392 0.623150
vt 0.586309 0.624495
vt 0.375172 0.375171
vt 0.363740 0.363740
vt 0.348125 0.348125
vt 0.332509 0.332509
vt 0.199813 0.824512
vt 0.199813 0.904484
vt 0.183646 0.899760
vt 0.161563 0.898030
vt 0.139479 0.899760
vt 0.123313 0.904484
vt 0.123313 0.824512
vt 0.709611 0.073882
vt 0.715327 0.052551
vt 0.721042 0.031220
vt 0.725227 0.015604
vt 0.630476 0.624495
vt 0.608392 0.737404
vt 0.586309 0.735687
vt 0.570142 0.730998
vt 0.570142 0.628170
vt 0.274642 0.415181
vt 0.268926 0.393850
vt 0.263210 0.372519
vt 0.259026 0.356903
vt 0.321078 0.321078
vt 0.183646 0.960529
vt 0.161563 0.956202
vt 0.139479 0.960529
vt 0.705427 0.089498
vt 0.633776 0.089498
vt 0.629592 0.073882
vt 0.623876 0.052551
vt 0.618160 0.031220
vt 0.646643 0.628170
vt 0.646643 0.730998
vt 0.630476 0.735687
vt 0.608392 0.834493
vt 0.586309 0.830175
vt 0.278826 0.430797
vt 0.167575 0.430797
vt 0.171759 0.415181
vt 0.177475 0.393850
vt 0.183191 0.372519
vt 0.187375 0.356903
vt 0.075938 0.764893
vt 0.075938 0.826032
vt 0.053854 0.827705
vt 0.053854 0.769180
vt 0.031771 0.826032
vt 0.031771 0.764893
vt 0.571724 0.125323
vt 0.560293 0.113892
vt 0.544677 0.098276
vt 0.529062 0.082661
vt 0.517630 0.071229
vt 0.613976 0.015604
vt 0.630476 0.830175
vt 0.931518 0.726687
vt 0.931518 0.837493
vt 0.909434 0.837413
vt 0.909434 0.729576
vt 0.893268 0.837196
vt 0.893268 0.737471
vt 0.082661 0.363740
vt 0.098276 0.348125
vt 0.113892 0.332509
vt 0.092104 0.821459
vt 0.092104 0.901454
vt 0.075938 0.897660
vt 0.053854 0.896272
vt 0.031771 0.897660
vt 0.015604 0.901454
vt 0.015604 0.821459
vt 0.520283 0.183191
vt 0.498952 0.177475
vt 0.477621 0.171759
vt 0.969768 0.737471
vt 0.969768 0.837196
vt 0.953601 0.837413
vt 0.953601 0.729576
vt 0.931518 0.947504
vt 0.909434 0.944477
vt 0.071229 0.375172
vt 0.015604 0.278826
vt 0.031220 0.274642
vt 0.052551 0.268926
vt 0.073882 0.263210
vt 0.089498 0.259026
vt 0.125323 0.321078
vt 0.075938 0.960586
vt 0.053854 0.956508
vt 0.031771 0.960586
vt 0.535898 0.187375
vt 0.535898 0.259026
vt 0.520283 0.263210
vt 0.498952 0.268926
vt 0.477621 0.274642
vt 0.462005 0.278826
vt 0.462005 0.167575
vt 0.953601 0.944477
vt 0.823809 0.774127
vt 0.823809 0.673203
vt 0.845893 0.671870
vt 0.845893 0.770091
vt 0.015604 0.167575
vt 0.031220 0.171759
vt 0.052551 0.177475
vt 0.073882 0.183191
vt 0.089498 0.187375
vt 0.909434 0.695479
vt 0.909434 0.657656
vt 0.931518 0.653610
vt 0.931518 0.689816
vt 0.953601 0.657656
vt 0.953601 0.695479
vt 0.571724 0.321078
vt 0.560293 0.332509
vt 0.544677 0.348125
vt 0.529062 0.363740
vt 0.517630 0.375171
vt 0.801726 0.770091
vt 0.801726 0.671870
vt 0.823809 0.558958
vt 0.845893 0.560687
vt 0.862059 0.565411
vt 0.862059 0.668231
vt 0.082661 0.082661
vt 0.098276 0.098276
vt 0.113892 0.113892
vt 0.125323 0.125323
vt 0.909434 0.594474
vt 0.931518 0.593129
vt 0.953601 0.594474
vt 0.633776 0.356903
vt 0.629592 0.372519
vt 0.623876 0.393850
vt 0.618160 0.415181
vt 0.785559 0.668231
vt 0.785559 0.565411
vt 0.801726 0.560687
vt 0.823809 0.462005
vt 0.845893 0.466332
vt 0.071229 0.071229
vt 0.167575 0.015604
vt 0.171759 0.031220
vt 0.177475 0.052551
vt 0.183191 0.073882
vt 0.893268 0.598148
vt 0.893268 0.518171
vt 0.909434 0.522860
vt 0.931518 0.524577
vt 0.953601 0.522860
vt 0.969768 0.518171
vt 0.969768 0.598148
vt 0.709611 0.372519
vt 0.715327 0.393850
vt 0.721042 0.415181
vt 0.725227 0.430797
vt 0.613976 0.430797
vt 0.801726 0.466332
vt 0.716101 0.774218
vt 0.716101 0.676676
vt 0.738185 0.675003
vt 0.738185 0.769931
vt 0.278826 0.015604
vt 0.274642 0.031220
vt 0.268926 0.052551
vt 0.263210 0.073882
vt 0.259026 0.089498
vt 0.187375 0.089498
vt 0.909434 0.462005
vt 0.931518 0.466323
vt 0.953601 0.462005
vt 0.705427 0.356903
vt 0.767479 0.321078
vt 0.778910 0.332509
vt 0.794526 0.348125
vt 0.810141 0.363740
vt 0.821572 0.375171
vt 0.694017 0.769931
vt 0.694017 0.675003
vt 0.716101 0.562398
vt 0.738185 0.563787
vt 0.754351 0.567580
vt 0.754351 0.670430
vt 0.363740 0.082661
vt 0.348125 0.098276
vt 0.332509 0.113892
vt 0.231021 0.911194
vt 0.231021 0.833630
vt 0.247187 0.833847
vt 0.247187 0.903300
vt 0.269271 0.833927
vt 0.269271 0.900410
vt 0.291355 0.833847
vt 0.291355 0.903300
vt 0.307521 0.833630
vt 0.307521 0.911194
vt 0.818920 0.263210
vt 0.840251 0.268926
vt 0.861582 0.274642
vt 0.677851 0.670430
vt 0.677851 0.567580
vt 0.694017 0.563787
vt 0.716101 0.462005
vt 0.738185 0.466084
vt 0.375171 0.071229
vt 0.321078 0.125323
vt 0.247187 0.764893
vt 0.269271 0.767920
vt 0.291355 0.764893
vt 0.803304 0.259026
vt 0.877198 0.278826
vt 0.694017 0.466084
vt 0.349456 0.947885
vt 0.349456 0.764893
vt 0.362079 0.764893
vt 0.362079 0.947885
vt 0.373216 0.764893
vt 0.373216 0.947885
vt 0.379883 0.764893
vt 0.379883 0.947885
vt 0.942900 0.015604
vt 0.942900 0.198597
vt 0.931809 0.198597
vt 0.931809 0.015604
vt 0.919183 0.198597
vt 0.919183 0.015604
vt 0.908406 0.198597
vt 0.908406 0.015604
vt 0.942890 0.229805
vt 0.942890 0.412797
vt 0.932179 0.412797
vt 0.932179 0.229805
vt 0.919556 0.412797
vt 0.919556 0.229805
vt 0.908406 0.412797
vt 0.908406 0.229805
vt 0.411092 0.947885
vt 0.411092 0.764893
vt 0.423246 0.764893
vt 0.423246 0.947885
vt 0.724986 0.835309
vt 0.718671 0.846247
vt 0.707733 0.852562
vt 0.695103 0.852562
vt 0.684166 0.846247
vt 0.677851 0.835309
vt 0.677851 0.822679
vt 0.684166 0.811742
vt 0.695103 0.805427
vt 0.707733 0.805427
vt 0.718671 0.811742
vt 0.724986 0.822679
vt 0.435488 0.764893
vt 0.435488 0.947885
vt 0.338729 0.947885
vt 0.338729 0.764893
vt 0.587395 0.865701
vt 0.600025 0.865701
vt 0.610963 0.872016
vt 0.617278 0.882954
vt 0.617278 0.895584
vt 0.610963 0.906522
vt 0.600025 0.912837
vt 0.587395 0.912837
vt 0.576457 0.906522
vt 0.570142 0.895584
vt 0.570142 0.882954
vt 0.576457 0.872016
s 0
f 1/1/1 3/2/1 2/3/1
f 5/4/2 6/5/2 4/6/2
f 4/7/3 21/8/3 19/9/3 3/10/3
f 6/5/2 22/11/2 21/12/2 4/6/2
f 2/13/4 20/14/4 22/15/4 6/16/4
f 7/17/5 8/18/5 9/19/5 10/20/5
f 19/21/1 8/22/1 7/23/1 20/24/1
f 21/8/3 9/25/3 8/26/3 19/9/3
f 22/11/2 10/27/2 9/28/2 21/12/2
f 20/14/6 7/29/6 10/30/6 22/15/6
f 11/31/7 12/32/7 13/33/7 14/34/7
f 23/35/1 12/36/1 11/37/1 24/38/1
f 25/39/8 13/40/8 12/41/8 23/42/8
f 26/43/2 14/44/2 13/45/2 25/46/2
f 24/47/9 11/48/9 14/49/9 26/50/9
f 15/51/10 16/52/10 17/53/10 18/54/10
f 27/55/1 16/56/1 15/57/1 28/58/1
f 29/59/11 17/60/11 16/61/11 27/62/11
f 30/63/2 18/64/2 17/65/2 29/66/2
f 28/67/12 15/68/12 18/69/12 30/70/12
f 3/2/1 19/21/1 20/24/1 2/3/1
f 1/71/13 24/47/13 26/50/13 5/72/13
f 5/4/2 26/43/2 25/46/2 6/5/2
f 6/73/8 25/39/8 23/42/8 2/74/8
f 2/3/1 23/35/1 24/38/1 1/1/1
f 3/75/14 28/67/14 30/70/14 4/76/14
f 4/6/2 30/63/2 29/66/2 5/4/2
f 5/77/11 29/59/11 27/62/11 1/78/11
f 1/1/1 27/55/1 28/58/1 3/2/1
f 31/79/15 43/80/15 44/81/15 32/82/15
f 32/83/16 44/84/16 45/85/16 33/86/16
f 33/86/17 45/85/17 46/87/17 34/88/17
f 34/88/18 46/87/18 47/89/18 35/90/18
f 35/90/19 47/89/19 48/91/19 36/92/19
f 36/93/20 48/94/20 49/95/20 37/96/20
f 37/96/21 49/95/21 50/97/21 38/98/21
f 38/99/22 50/100/22 51/101/22 39/102/22
f 39/102/23 51/101/23 52/103/23 40/104/23
f 40/104/24 52/103/24 53/105/24 41/106/24
f 41/106/25 53/105/25 54/107/25 42/108/25
f 42/109/26 54/110/26 43/80/26 31/79/26
f 43/80/27 55/111/27 56/112/27 44/81/27
f 44/84/28 56/113/28 57/114/28 45/85/28
f 45/85/29 57/114/29 58/115/29 46/87/29
f 46/87/30 58/115/30 59/116/30 47/89/30
f 47/117/31 59/118/31 60/119/31 48/94/31
f 48/94/32 60/119/32 61/120/32 49/95/32
f 49/95/33 61/120/33 62/121/33 50/97/33
f 50/97/34 62/121/34 63/122/34 51/123/34
f 51/101/35 63/124/35 64/125/35 52/103/35
f 52/103/36 64/125/36 65/126/36 53/105/36
f 53/105/37 65/126/37 66/127/37 54/107/37
f 54/110/38 66/128/38 55/111/38 43/80/38
f 55/111/39 67/129/39 68/130/39 56/112/39
f 56/112/40 68/130/40 69/131/40 57/132/40
f 57/114/41 69/133/41 70/134/41 58/115/41
f 58/115/42 70/134/42 71/135/42 59/116/42
f 59/116/43 71/135/43 72/136/43 60/137/43
f 60/119/44 72/138/44 73/139/44 61/120/44
f 61/120/45 73/139/45 74/140/45 62/121/45
f 62/141/46 74/142/46 75/143/46 63/124/46
f 63/124/47 75/143/47 76/144/47 64/125/47
f 64/125/48 76/144/48 77/145/48 65/126/48
f 65/146/49 77/147/49 78/148/49 66/128/49
f 66/128/50 78/148/50 67/129/50 55/111/50
f 67/129/51 79/149/51 80/150/51 68/130/51
f 68/151/52 80/152/52 81/153/52 69/133/52
f 69/133/53 81/153/53 82/154/53 70/134/53
f 70/134/54 82/154/54 83/155/54 71/135/54
f 71/135/55 83/155/55 84/156/55 72/136/55
f 72/157/56 84/158/56 85/159/56 73/160/56
f 73/160/57 85/159/57 86/161/57 74/162/57
f 74/142/58 86/163/58 87/164/58 75/143/58
f 75/143/59 87/164/59 88/165/59 76/144/59
f 76/144/60 88/165/60 89/166/60 77/145/60
f 77/145/61 89/166/61 90/167/61 78/168/61
f 78/148/62 90/169/62 79/149/62 67/129/62
f 79/170/63 91/171/63 92/172/63 80/173/63
f 80/173/64 92/172/64 93/174/64 81/175/64
f 81/153/65 93/176/65 94/177/65 82/154/65
f 82/154/66 94/177/66 95/178/66 83/155/66
f 83/179/67 95/180/67 96/181/67 84/158/67
f 84/158/68 96/181/68 97/182/68 85/159/68
f 85/159/69 97/182/69 98/183/69 86/161/69
f 86/161/70 98/183/70 99/184/70 87/185/70
f 87/164/71 99/186/71 100/187/71 88/165/71
f 88/165/72 100/187/72 101/188/72 89/166/72
f 89/189/73 101/190/73 102/191/73 90/192/73
f 90/192/74 102/191/74 91/171/74 79/170/74
f 91/171/75 103/193/75 104/194/75 92/172/75
f 92/195/76 104/196/76 105/197/76 93/176/76
f 93/176/77 105/197/77 106/198/77 94/177/77
f 94/177/78 106/198/78 107/199/78 95/178/78
f 95/178/79 107/199/79 108/200/79 96/201/79
f 96/181/80 108/202/80 109/203/80 97/182/80
f 97/182/81 109/203/81 110/204/81 98/183/81
f 98/205/82 110/206/82 111/207/82 99/186/82
f 99/186/83 111/207/83 112/208/83 100/187/83
f 100/187/84 112/208/84 113/209/84 101/188/84
f 101/188/85 113/209/85 114/210/85 102/211/85
f 102/191/86 114/212/86 103/193/86 91/171/86
f 103/213/20 115/214/20 116/215/20 104/216/20
f 104/196/19 116/217/19 117/218/19 105/197/19
f 105/197/18 117/218/18 118/219/18 106/198/18
f 106/198/17 118/219/17 119/220/17 107/199/17
f 107/199/16 119/220/16 120/221/16 108/200/16
f 108/222/15 120/223/15 121/224/15 109/225/15
f 109/225/26 121/224/26 122/226/26 110/227/26
f 110/206/25 122/228/25 123/229/25 111/207/25
f 111/207/24 123/229/24 124/230/24 112/208/24
f 112/208/23 124/230/23 125/231/23 113/209/23
f 113/209/22 125/231/22 126/232/22 114/210/22
f 114/233/21 126/234/21 115/214/21 103/213/21
f 115/214/32 127/235/32 128/236/32 116/215/32
f 116/215/31 128/236/31 129/237/31 117/238/31
f 117/218/30 129/239/30 130/240/30 118/219/30
f 118/219/29 130/240/29 131/241/29 119/220/29
f 119/220/28 131/241/28 132/242/28 120/221/28
f 120/223/27 132/243/27 133/244/27 121/224/27
f 121/224/38 133/244/38 134/245/38 122/226/38
f 122/228/37 134/246/37 135/247/37 123/229/37
f 123/229/36 135/247/36 136/248/36 124/230/36
f 124/230/35 136/248/35 137/249/35 125/231/35
f 125/250/34 137/251/34 138/252/34 126/234/34
f 126/234/87 138/252/87 127/235/87 115/214/87
f 127/235/44 139/253/44 140/254/44 128/236/44
f 128/255/43 140/256/43 141/257/43 129/239/43
f 129/239/42 141/257/42 142/258/42 130/240/42
f 130/240/41 142/258/41 143/259/41 131/241/41
f 131/260/40 143/261/40 144/262/40 132/243/40
f 132/243/39 144/262/39 145/263/39 133/244/39
f 133/244/50 145/263/50 146/264/50 134/245/50
f 134/245/49 146/264/49 147/265/49 135/266/49
f 135/247/48 147/267/48 148/268/48 136/248/48
f 136/248/47 148/268/47 149/269/47 137/249/47
f 137/249/46 149/269/46 150/270/46 138/271/46
f 138/252/45 150/272/45 139/253/45 127/235/45
f 139/273/56 151/274/56 152/275/56 140/276/56
f 140/256/55 152/277/55 153/278/55 141/257/55
f 141/257/54 153/278/54 154/279/54 142/258/54
f 142/258/53 154/279/53 155/280/53 143/259/53
f 143/259/52 155/280/52 156/281/52 144/282/52
f 144/262/51 156/283/51 157/284/51 145/263/51
f 145/263/62 157/284/62 158/285/62 146/264/62
f 146/286/61 158/287/61 159/288/61 147/267/61
f 147/267/60 159/288/60 160/289/60 148/268/60
f 148/268/59 160/289/59 161/290/59 149/269/59
f 149/269/58 161/290/58 162/291/58 150/270/58
f 150/292/57 162/293/57 151/274/57 139/273/57
f 151/274/68 163/294/68 164/295/68 152/275/68
f 152/275/67 164/295/67 165/296/67 153/297/67
f 153/278/66 165/298/66 166/299/66 154/279/66
f 154/279/65 166/299/65 167/300/65 155/280/65
f 155/301/64 167/302/64 168/303/64 156/304/64
f 156/304/63 168/303/63 169/305/63 157/306/63
f 157/306/88 169/305/88 170/307/88 158/308/88
f 158/308/73 170/307/73 171/309/73 159/310/73
f 159/288/72 171/311/72 172/312/72 160/289/72
f 160/289/71 172/312/71 173/313/71 161/290/71
f 161/314/70 173/315/70 174/316/70 162/293/70
f 162/293/69 174/316/69 163/294/69 151/274/69
f 163/294/80 31/317/80 32/318/80 164/295/80
f 164/319/79 32/83/79 33/86/79 165/298/79
f 165/298/78 33/86/78 34/88/78 166/299/78
f 166/299/77 34/88/77 35/90/77 167/300/77
f 167/300/76 35/90/76 36/92/76 168/320/76
f 168/303/75 36/321/75 37/322/75 169/305/75
f 169/305/86 37/322/86 38/323/86 170/307/86
f 170/324/85 38/99/85 39/102/85 171/311/85
f 171/311/84 39/102/84 40/104/84 172/312/84
f 172/312/83 40/104/83 41/106/83 173/313/83
f 173/313/82 41/106/82 42/108/82 174/325/82
f 174/316/81 42/326/81 31/317/81 163/294/81
f 175/327/89 176/328/89 178/329/89 177/330/89
f 177/330/90 178/329/90 180/331/90 179/332/90
f 179/332/91 180/331/91 182/333/91 181/334/91
f 181/335/92 182/336/92 184/337/92 183/338/92
f 183/338/93 184/337/93 186/339/93 185/340/93
f 185/340/94 186/339/94 188/341/94 187/342/94
f 187/343/95 188/344/95 190/345/95 189/346/95
f 189/346/96 190/345/96 192/347/96 191/348/96
f 191/348/97 192/347/97 194/349/97 193/350/97
f 193/351/98 194/352/98 196/353/98 195/354/98
f 178/355/2 176/356/2 198/357/2 196/358/2 194/359/2 192/360/2 190/361/2 188/362/2 186/363/2 184/364/2 182/365/2 180/366/2
f 195/354/99 196/353/99 198/367/99 197/368/99
f 197/369/100 198/370/100 176/328/100 175/327/100
f 175/371/1 177/372/1 179/373/1 181/374/1 183/375/1 185/376/1 187/377/1 189/378/1 191/379/1 193/380/1 195/381/1 197/382/1
