# Blender 5.1.2
# www.blender.org
mtllib PipeMonitorTV.mtl
o Cube.017
v -0.373227 -0.268937 0.569777
v 0.268936 0.373227 0.569777
v -0.373227 -0.268937 -0.569777
v 0.268936 0.373227 -0.569777
v 0.323452 0.219162 -0.481450
v -0.219163 -0.323453 -0.481450
v -0.219163 -0.323453 0.481450
v 0.323452 0.219162 0.481450
v 0.381869 0.175800 -0.450382
v -0.160746 -0.366815 -0.450382
v -0.160746 -0.366815 0.512517
v 0.381869 0.175800 0.512517
v -0.314217 -0.327947 -0.569777
v -0.314217 -0.327947 0.569777
v 0.327947 0.314216 0.569777
v 0.327947 0.314216 -0.569777
v 0.361043 0.256753 -0.652882
v 0.420058 0.315768 -0.548157
v 0.378328 0.274038 -0.578830
v 0.383627 0.279337 -0.644910
v 0.402773 0.298483 -0.622208
v 0.415565 0.311276 -0.588233
v -0.315768 -0.420058 -0.548157
v -0.256754 -0.361043 -0.652882
v -0.274039 -0.378329 -0.578830
v -0.311276 -0.415566 -0.588233
v -0.298483 -0.402773 -0.622208
v -0.279338 -0.383627 -0.644910
v -0.256754 -0.361043 0.652882
v -0.315768 -0.420058 0.548157
v -0.274039 -0.378329 0.578830
v -0.279338 -0.383627 0.644910
v -0.298483 -0.402773 0.622208
v -0.311276 -0.415566 0.588233
v 0.420058 0.315768 0.548157
v 0.361043 0.256753 0.652882
v 0.378328 0.274038 0.578830
v 0.415565 0.311276 0.588233
v 0.402773 0.298483 0.622208
v 0.383627 0.279337 0.644910
v -0.361044 -0.256753 -0.652882
v -0.420059 -0.315768 -0.548157
v -0.378329 -0.274038 -0.578830
v -0.383628 -0.279337 -0.644910
v -0.402774 -0.298483 -0.622208
v -0.415566 -0.311276 -0.588233
v -0.420059 -0.315768 0.548157
v -0.361044 -0.256753 0.652882
v -0.378329 -0.274038 0.578830
v -0.415566 -0.311276 0.588233
v -0.402774 -0.298483 0.622208
v -0.383628 -0.279337 0.644910
v 0.256753 0.361043 0.652882
v 0.315767 0.420058 0.548157
v 0.274038 0.378328 0.578830
v 0.279337 0.383627 0.644910
v 0.298482 0.402773 0.622208
v 0.311275 0.415566 0.588233
v 0.315767 0.420058 -0.548157
v 0.256753 0.361043 -0.652882
v 0.274038 0.378328 -0.578830
v 0.311275 0.415566 -0.588233
v 0.298482 0.402773 -0.622208
v 0.279337 0.383627 -0.644910
v 1.569333 -0.134078 -0.036888
v 1.498622 -0.063367 -0.036888
v 1.569333 -0.134078 -0.136889
v 1.498622 -0.063367 -0.136888
v 1.640043 -0.063367 -0.036888
v 1.569333 0.007343 -0.036888
v 1.640043 -0.063367 -0.136889
v 1.569333 0.007343 -0.136888
v 0.791516 -0.770474 -0.036888
v 0.791516 -0.770474 -0.136888
v 0.932936 -0.770474 -0.036888
v 0.932936 -0.770474 -0.136888
v 0.084408 -0.063368 -0.036888
v 0.084408 -0.063368 -0.136888
v 0.155119 0.007343 -0.136888
v 0.155119 0.007343 -0.036888
v 0.784445 -0.621983 -0.136888
v 0.940006 -0.621983 -0.136888
v 0.940006 -0.621983 -0.036888
v 0.784445 -0.621983 -0.036888
v 1.569333 -0.134078 0.213112
v 1.498622 -0.063367 0.213112
v 1.569333 -0.134078 0.113112
v 1.498622 -0.063367 0.113112
v 1.640043 -0.063367 0.213112
v 1.569333 0.007343 0.213112
v 1.640043 -0.063367 0.113112
v 1.569333 0.007343 0.113112
v 0.791516 -0.770474 0.213112
v 0.791516 -0.770474 0.113112
v 0.932936 -0.770474 0.213112
v 0.932936 -0.770474 0.113112
v 0.084408 -0.063368 0.213112
v 0.084408 -0.063368 0.113112
v 0.155119 0.007343 0.113112
v 0.155119 0.007343 0.213112
v 0.784445 -0.621983 0.113112
v 0.940006 -0.621983 0.113112
v 0.940006 -0.621983 0.213112
v 0.784445 -0.621983 0.213112
vn -0.0000 -0.0000 1.0000
vn 0.5960 0.8030 -0.0000
vn 0.7071 -0.7071 -0.0000
vn 0.2802 -0.2802 -0.9181
vn -0.2802 0.2802 0.9181
vn -0.5960 -0.8030 -0.0000
vn -0.7071 0.7071 -0.0000
vn -0.0000 -0.0000 -1.0000
vn -0.7071 -0.7071 -0.0000
vn 0.7071 0.7071 -0.0000
vn -0.6984 -0.6984 -0.1566
vn -0.6241 -0.6241 -0.4700
vn -0.4543 -0.4543 -0.7663
vn -0.1712 -0.1712 -0.9702
vn 0.6984 0.6984 -0.1566
vn 0.6241 0.6241 -0.4700
vn 0.4543 0.4543 -0.7663
vn 0.1712 0.1712 -0.9702
vn -0.6984 -0.6984 0.1566
vn -0.6241 -0.6241 0.4700
vn -0.4543 -0.4543 0.7663
vn -0.1712 -0.1712 0.9702
vn 0.6984 0.6984 0.1566
vn 0.6241 0.6241 0.4700
vn 0.4543 0.4543 0.7663
vn 0.1712 0.1712 0.9702
vn -0.0000 -1.0000 -0.0000
vn -0.0000 1.0000 -0.0000
vt 0.996361 0.544744
vt 0.996361 0.732238
vt 0.974286 0.732238
vt 0.974286 0.544744
vt 0.644673 0.665015
vt 0.644673 0.919425
vt 0.625597 0.927513
vt 0.625597 0.673102
vt 0.880062 0.909252
vt 0.677081 0.909252
vt 0.677081 0.654552
vt 0.880062 0.654552
vt 0.927996 0.976187
vt 0.927996 0.773206
vt 0.947277 0.770390
vt 0.947277 0.973371
vt 0.965648 0.010974
vt 0.965648 0.169403
vt 0.946611 0.162068
vt 0.946611 0.003639
vt 0.965648 0.328626
vt 0.946611 0.321291
vt 0.429583 0.356309
vt 0.669803 0.356309
vt 0.669803 0.657737
vt 0.429583 0.657737
vt 0.596255 0.905234
vt 0.596255 0.665014
vt 0.618319 0.665014
vt 0.618319 0.905234
vt 0.996361 0.356309
vt 0.974286 0.356309
vt 0.521518 0.665014
vt 0.521518 0.966099
vt 0.499446 0.966115
vt 0.499446 0.665030
vt 0.308250 0.349031
vt 0.299802 0.346923
vt 0.301784 0.329444
vt 0.292640 0.340918
vt 0.287854 0.331931
vt 0.286174 0.321330
vt 0.561431 0.321330
vt 0.559750 0.331931
vt 0.545821 0.329444
vt 0.554965 0.340918
vt 0.547803 0.346923
vt 0.539355 0.349031
vt 0.539355 0.003639
vt 0.547803 0.005748
vt 0.545821 0.023227
vt 0.554965 0.011752
vt 0.559750 0.020739
vt 0.561431 0.031340
vt 0.286174 0.031340
vt 0.287854 0.020739
vt 0.301784 0.023227
vt 0.292640 0.011752
vt 0.299802 0.005748
vt 0.308250 0.003639
vt 0.025715 0.349031
vt 0.017267 0.346923
vt 0.019249 0.329444
vt 0.010105 0.340918
vt 0.005319 0.331931
vt 0.003639 0.321330
vt 0.003639 0.031340
vt 0.005319 0.020739
vt 0.019249 0.023227
vt 0.010105 0.011752
vt 0.017267 0.005748
vt 0.025715 0.003639
vt 0.256820 0.003639
vt 0.265268 0.005748
vt 0.263286 0.023227
vt 0.272430 0.011752
vt 0.277215 0.020739
vt 0.278896 0.031340
vt 0.278896 0.321330
vt 0.277215 0.331931
vt 0.263286 0.329444
vt 0.272430 0.340918
vt 0.265268 0.346923
vt 0.256820 0.349031
vt 0.927996 0.757797
vt 0.967009 0.757797
vt 0.967009 0.763113
vt 0.927996 0.763113
vt 0.905604 0.270790
vt 0.866610 0.270750
vt 0.866338 0.265964
vt 0.905332 0.266004
vt 0.866160 0.258802
vt 0.905155 0.258842
vt 0.866104 0.250353
vt 0.905098 0.250394
vt 0.858724 0.022896
vt 0.819716 0.022911
vt 0.819744 0.012403
vt 0.858752 0.012387
vt 0.819818 0.003654
vt 0.858826 0.003639
vt 0.866610 0.003639
vt 0.905604 0.003679
vt 0.905412 0.010841
vt 0.866417 0.010801
vt 0.905338 0.019289
vt 0.866344 0.019249
vt 0.967009 0.576512
vt 0.927996 0.576512
vt 0.927996 0.568574
vt 0.967009 0.568574
vt 0.927996 0.559221
vt 0.967009 0.559221
vt 0.927996 0.549877
vt 0.967009 0.549877
vt 0.927996 0.541964
vt 0.967009 0.541964
vt 0.819624 0.312572
vt 0.858632 0.312556
vt 0.858654 0.323225
vt 0.819645 0.323240
vt 0.858722 0.332430
vt 0.819713 0.332445
vt 0.858826 0.338769
vt 0.819818 0.338785
vt 0.927996 0.356309
vt 0.967009 0.356309
vt 0.967009 0.361585
vt 0.927996 0.361585
vt 0.322312 0.048985
vt 0.322312 0.303685
vt 0.525293 0.303685
vt 0.525293 0.048985
vt 0.021158 0.025621
vt 0.021158 0.327049
vt 0.261377 0.327049
vt 0.261377 0.025621
vt 0.041038 0.375017
vt 0.022338 0.393708
vt 0.003639 0.375000
vt 0.022338 0.356309
vt 0.669866 0.328330
vt 0.669866 0.301882
vt 0.696287 0.301900
vt 0.696287 0.328349
vt 0.677081 0.647274
vt 0.677081 0.620823
vt 0.697726 0.620823
vt 0.697726 0.647274
vt 0.887340 0.681004
vt 0.887340 0.654552
vt 0.913791 0.654552
vt 0.913791 0.681004
vt 0.588977 0.665014
vt 0.588977 0.691466
vt 0.562525 0.691466
vt 0.562525 0.665014
vt 0.913791 0.919066
vt 0.887340 0.919066
vt 0.628889 0.301882
vt 0.628889 0.328333
vt 0.602438 0.328333
vt 0.602438 0.301882
vt 0.920718 0.620823
vt 0.904182 0.620823
vt 0.904182 0.356309
vt 0.920718 0.356309
vt 0.913791 0.945517
vt 0.887340 0.945517
vt 0.170065 0.582643
vt 0.170065 0.541505
vt 0.209333 0.543393
vt 0.209333 0.580792
vt 0.860827 0.620823
vt 0.883537 0.591727
vt 0.883537 0.647274
vt 0.465747 0.900523
vt 0.492168 0.900403
vt 0.490936 0.929934
vt 0.464515 0.930054
vt 0.588977 0.900432
vt 0.562525 0.900432
vt 0.464515 0.665134
vt 0.490936 0.665014
vt 0.022338 0.767698
vt 0.003639 0.748990
vt 0.883537 0.356309
vt 0.254010 0.375017
vt 0.235311 0.393708
vt 0.216611 0.375000
vt 0.235311 0.356309
vt 0.636167 0.328330
vt 0.636167 0.301882
vt 0.662588 0.301901
vt 0.662588 0.328349
vt 0.568709 0.294604
vt 0.568709 0.268153
vt 0.589354 0.268153
vt 0.589354 0.294604
vt 0.912882 0.030090
vt 0.912882 0.003639
vt 0.939333 0.003639
vt 0.939333 0.030090
vt 0.555248 0.665014
vt 0.555248 0.691466
vt 0.528796 0.691466
vt 0.528796 0.665014
vt 0.939333 0.268153
vt 0.912882 0.268153
vt 0.595160 0.301882
vt 0.595160 0.328333
vt 0.568709 0.328333
vt 0.568709 0.301882
vt 0.812346 0.268153
vt 0.795810 0.268153
vt 0.795810 0.003639
vt 0.812346 0.003639
vt 0.939333 0.294604
vt 0.912882 0.294604
vt 0.383037 0.582643
vt 0.383037 0.541505
vt 0.422306 0.543393
vt 0.422306 0.580792
vt 0.752455 0.268153
vt 0.775164 0.239057
vt 0.775164 0.294604
vt 0.430816 0.900523
vt 0.457237 0.900403
vt 0.456004 0.929934
vt 0.429583 0.930054
vt 0.555248 0.900432
vt 0.528796 0.900432
vt 0.429583 0.665134
vt 0.456004 0.665014
vt 0.235311 0.767698
vt 0.216611 0.748990
vt 0.775164 0.003639
s 0
f 4/1/1 3/2/1 13/3/1 16/4/1
f 5/5/2 8/6/2 12/7/2 9/8/2
f 10/9/3 9/10/3 12/11/3 11/12/3
f 6/13/4 5/14/4 9/15/4 10/16/4
f 8/17/5 7/18/5 11/19/5 12/20/5
f 7/18/6 6/21/6 10/22/6 11/19/6
f 14/23/7 15/24/7 16/25/7 13/26/7
f 1/27/8 2/28/8 15/29/8 14/30/8
f 2/31/9 4/1/9 16/4/9 15/32/9
f 3/33/10 1/34/10 14/35/10 13/36/10
f 17/37/3 20/38/3 19/39/3
f 20/38/3 21/40/3 19/39/3
f 21/40/3 22/41/3 19/39/3
f 22/41/3 18/42/3 19/39/3
f 23/43/3 26/44/3 25/45/3
f 26/44/3 27/46/3 25/45/3
f 27/46/3 28/47/3 25/45/3
f 28/47/3 24/48/3 25/45/3
f 29/49/3 32/50/3 31/51/3
f 32/50/3 33/52/3 31/51/3
f 33/52/3 34/53/3 31/51/3
f 34/53/3 30/54/3 31/51/3
f 35/55/3 38/56/3 37/57/3
f 38/56/3 39/58/3 37/57/3
f 39/58/3 40/59/3 37/57/3
f 40/59/3 36/60/3 37/57/3
f 41/61/7 44/62/7 43/63/7
f 44/62/7 45/64/7 43/63/7
f 45/64/7 46/65/7 43/63/7
f 46/65/7 42/66/7 43/63/7
f 47/67/7 50/68/7 49/69/7
f 50/68/7 51/70/7 49/69/7
f 51/70/7 52/71/7 49/69/7
f 52/71/7 48/72/7 49/69/7
f 53/73/7 56/74/7 55/75/7
f 56/74/7 57/76/7 55/75/7
f 57/76/7 58/77/7 55/75/7
f 58/77/7 54/78/7 55/75/7
f 59/79/7 62/80/7 61/81/7
f 62/80/7 63/82/7 61/81/7
f 63/82/7 64/83/7 61/81/7
f 64/83/7 60/84/7 61/81/7
f 23/85/11 42/86/11 46/87/11 26/88/11
f 26/89/12 46/90/12 45/91/12 27/92/12
f 27/92/13 45/91/13 44/93/13 28/94/13
f 28/94/14 44/93/14 41/95/14 24/96/14
f 59/97/15 18/98/15 22/99/15 62/100/15
f 62/100/16 22/99/16 21/101/16 63/102/16
f 63/103/17 21/104/17 20/105/17 64/106/17
f 64/106/18 20/105/18 17/107/18 60/108/18
f 47/109/19 30/110/19 34/111/19 50/112/19
f 50/112/20 34/111/20 33/113/20 51/114/20
f 51/114/21 33/113/21 32/115/21 52/116/21
f 52/116/22 32/115/22 29/117/22 48/118/22
f 35/119/23 54/120/23 58/121/23 38/122/23
f 38/122/24 58/121/24 57/123/24 39/124/24
f 39/124/25 57/123/25 56/125/25 40/126/25
f 40/127/26 56/128/26 53/129/26 36/130/26
f 18/98/10 59/97/10 54/120/10 35/119/10
f 41/95/8 60/108/8 17/107/8 24/96/8
f 8/131/3 5/132/3 19/39/3 18/42/3 35/55/3 37/57/3
f 5/132/3 6/133/3 25/45/3 24/48/3 17/37/3 19/39/3
f 42/86/9 23/85/9 30/110/9 47/109/9
f 6/133/3 7/134/3 31/51/3 30/54/3 23/43/3 25/45/3
f 29/117/1 36/130/1 53/129/1 48/118/1
f 7/134/3 8/131/3 37/57/3 36/60/3 29/49/3 31/51/3
f 1/135/7 3/136/7 43/63/7 42/66/7 47/67/7 49/69/7
f 3/136/7 4/137/7 61/81/7 60/84/7 41/61/7 43/63/7
f 2/138/7 1/135/7 49/69/7 48/72/7 53/73/7 55/75/7
f 4/137/7 2/138/7 55/75/7 54/78/7 59/79/7 61/81/7
f 67/139/8 68/140/8 72/141/8 71/142/8
f 71/143/10 72/144/10 70/145/10 69/146/10
f 69/147/1 70/148/1 66/149/1 65/150/1
f 67/151/3 71/152/3 69/153/3 65/154/3
f 72/155/7 68/156/7 66/157/7 70/158/7
f 67/151/3 65/154/3 75/159/3 76/160/3
f 80/161/7 79/162/7 78/163/7 77/164/7
f 74/165/9 73/166/9 77/167/9 78/168/9
f 76/160/27 75/159/27 73/169/27 74/170/27
f 81/171/8 82/172/8 76/173/8 74/174/8
f 83/175/1 84/176/1 73/166/1 75/177/1
f 81/178/28 84/179/28 83/180/28 82/181/28
f 66/157/7 68/156/7 82/182/7 83/183/7
f 84/179/10 81/178/10 79/184/10 80/185/10
f 81/171/8 74/174/8 78/186/8 79/187/8
f 68/140/8 67/139/8 76/173/8 82/172/8
f 65/150/1 66/149/1 83/175/1 75/177/1
f 73/166/1 84/176/1 80/188/1 77/167/1
f 87/189/8 88/190/8 92/191/8 91/192/8
f 91/193/10 92/194/10 90/195/10 89/196/10
f 89/197/1 90/198/1 86/199/1 85/200/1
f 87/201/3 91/202/3 89/203/3 85/204/3
f 92/205/7 88/206/7 86/207/7 90/208/7
f 87/201/3 85/204/3 95/209/3 96/210/3
f 100/211/7 99/212/7 98/213/7 97/214/7
f 94/215/9 93/216/9 97/217/9 98/218/9
f 96/210/27 95/209/27 93/219/27 94/220/27
f 101/221/8 102/222/8 96/223/8 94/224/8
f 103/225/1 104/226/1 93/216/1 95/227/1
f 101/228/28 104/229/28 103/230/28 102/231/28
f 86/207/7 88/206/7 102/232/7 103/233/7
f 104/229/10 101/228/10 99/234/10 100/235/10
f 101/221/8 94/224/8 98/236/8 99/237/8
f 88/190/8 87/189/8 96/223/8 102/222/8
f 85/200/1 86/199/1 103/225/1 95/227/1
f 93/216/1 104/226/1 100/238/1 97/217/1
