# Blender 5.1.2
# www.blender.org
mtllib Holster.mtl
o Cube
v -1.000000 -2.000000 1.000000
v -0.780444 2.000000 2.780444
v -1.000000 -2.000000 -1.000000
v -0.780444 2.000000 -0.780444
v 1.000000 -2.000000 1.000000
v 0.780444 2.000000 2.780444
v 1.000000 -2.000000 -1.000000
v 0.780444 2.000000 -0.780444
v -1.000000 2.000000 3.000000
v -1.000000 2.000000 -1.000000
v 1.000000 2.000000 -1.000000
v 1.000000 2.000000 3.000000
v -0.780444 -1.297553 0.780444
v -0.780444 -1.297553 -0.780444
v 0.780444 -1.297553 -0.780444
v 0.780444 -1.297553 0.780444
v -1.000000 0.000000 1.600000
v -1.000000 0.000000 -1.000000
v 1.000000 0.000000 -1.000000
v 1.000000 0.000000 1.600000
vn -1.0000 -0.0000 -0.0000
vn -0.0000 -0.0000 -1.0000
vn 1.0000 -0.0000 -0.0000
vn -0.0000 -0.5735 0.8192
vn -0.0000 -1.0000 -0.0000
vn -0.0000 0.5186 -0.8550
vn -0.0000 1.0000 -0.0000
vn -0.0000 -0.0000 1.0000
vn -0.0000 -0.2873 0.9578
vt 0.536269 0.230741
vt 0.362987 0.352038
vt 0.362987 0.005474
vt 0.536269 0.005474
vt 0.783008 0.533479
vt 0.783008 0.362987
vt 0.956290 0.362987
vt 0.956290 0.533479
vt 0.178756 0.352038
vt 0.005474 0.352038
vt 0.005474 0.005474
vt 0.178756 0.126772
vt 0.598777 0.552046
vt 0.598777 0.362987
vt 0.772060 0.362987
vt 0.772060 0.552046
vt 0.471127 0.682454
vt 0.471127 0.855736
vt 0.297845 0.855736
vt 0.297845 0.682454
vt 0.005474 0.682454
vt 0.140711 0.682454
vt 0.140711 0.994526
vt 0.005474 0.994526
vt 0.739522 0.024497
vt 0.739522 0.333016
vt 0.720499 0.352038
vt 0.720499 0.005474
vt 0.874759 0.333016
vt 0.893781 0.352038
vt 0.874759 0.024497
vt 0.893781 0.005474
vt 0.151659 0.682454
vt 0.286896 0.682454
vt 0.286896 0.965129
vt 0.151659 0.965129
vt 0.302126 0.671506
vt 0.302126 0.362987
vt 0.587829 0.362987
vt 0.587829 0.498224
vt 0.005474 0.671506
vt 0.005474 0.362987
vt 0.291178 0.536269
vt 0.291178 0.671506
vt 0.734014 0.741988
vt 0.734014 0.877226
vt 0.598777 0.877225
vt 0.598777 0.741988
vt 0.598777 0.731040
vt 0.772060 0.731040
vt 0.352038 0.352038
vt 0.352038 0.178756
vt 0.783008 0.703972
vt 0.956290 0.703972
vt 0.709551 0.178756
vt 0.709551 0.005474
s 0
f 17/1/1 9/2/1 10/3/1 18/4/1
f 18/5/2 10/6/2 11/7/2 19/8/2
f 19/9/3 11/10/3 12/11/3 20/12/3
f 20/13/4 12/14/4 9/15/4 17/16/4
f 3/17/5 7/18/5 5/19/5 1/20/5
f 2/21/6 6/22/6 16/23/6 13/24/6
f 2/25/7 4/26/7 10/27/7 9/28/7
f 4/26/7 8/29/7 11/30/7 10/27/7
f 8/29/7 6/31/7 12/32/7 11/30/7
f 6/31/7 2/25/7 9/28/7 12/32/7
f 8/33/8 4/34/8 14/35/8 15/36/8
f 6/37/1 8/38/1 15/39/1 16/40/1
f 4/41/3 2/42/3 13/43/3 14/44/3
f 15/45/7 14/46/7 13/47/7 16/48/7
f 5/49/9 20/13/9 17/16/9 1/50/9
f 7/51/3 19/9/3 20/12/3 5/52/3
f 3/53/2 18/5/2 19/8/2 7/54/2
f 1/55/1 17/1/1 18/4/1 3/56/1
