# Blender 5.1.2
# www.blender.org
mtllib AlarmLight.mtl
o Cube
v -0.500000 2.075621 0.499996
v -0.500000 2.075621 -0.500004
v 0.500000 2.075621 0.499996
v 0.500000 2.075621 -0.500004
v -0.609568 1.575621 0.609566
v -0.572933 1.872271 0.572929
v -0.572933 2.148554 0.296646
v -0.609568 2.185189 -0.000004
v -0.572933 2.148554 -0.296654
v -0.572933 1.872271 -0.572937
v -0.609568 1.575621 -0.609573
v -0.296650 2.148554 -0.572937
v 0.000000 2.185189 -0.609574
v 0.296650 2.148554 -0.572937
v 0.572933 1.872271 -0.572937
v 0.609568 1.575621 -0.609573
v 0.572933 2.148554 -0.296654
v 0.609568 2.185189 -0.000004
v 0.572933 2.148554 0.296646
v 0.572933 1.872271 0.572929
v 0.609568 1.575621 0.609566
v 0.296650 2.148554 0.572929
v 0.000000 2.185189 0.609566
v -0.296650 2.148554 0.572929
v -0.781829 1.575621 0.333137
v -0.728990 1.891778 0.316154
v -0.839506 1.575621 -0.000004
v -0.781829 1.908761 -0.000004
v -0.781829 1.575621 -0.333145
v -0.728990 1.891778 -0.316162
v -0.333140 1.575621 -0.781834
v -0.316157 1.891778 -0.728993
v 0.000000 1.575621 -0.839512
v 0.000000 1.908761 -0.781834
v 0.333140 1.575621 -0.781834
v 0.316157 1.891778 -0.728993
v 0.781829 1.575621 -0.333145
v 0.728990 1.891778 -0.316162
v 0.839506 1.575621 -0.000004
v 0.781829 1.908761 -0.000004
v 0.781829 1.575621 0.333137
v 0.728990 1.891778 0.316154
v 0.333140 1.575621 0.781826
v 0.316157 1.891778 0.728985
v 0.000000 1.575621 0.839504
v 0.000000 1.908761 0.781826
v -0.333140 1.575621 0.781826
v -0.316157 1.891778 0.728985
v 0.316157 2.304611 -0.316162
v 0.000000 2.357450 -0.333145
v -0.316157 2.304611 -0.316162
v 0.333140 2.357450 -0.000004
v 0.000000 2.415127 -0.000004
v -0.333140 2.357450 -0.000004
v 0.316157 2.304611 0.316154
v 0.000000 2.357450 0.333137
v -0.316157 2.304611 0.316154
v -0.609568 0.575621 0.609566
v -0.609568 0.575621 -0.609573
v 0.609568 0.575621 -0.609573
v 0.609568 0.575621 0.609566
v -0.781829 0.575621 0.333137
v -0.839506 0.575621 -0.000004
v -0.781829 0.575621 -0.333145
v -0.333140 0.575621 -0.781834
v 0.000000 0.575621 -0.839512
v 0.333140 0.575621 -0.781834
v 0.781829 0.575621 -0.333145
v 0.839506 0.575621 -0.000004
v 0.781829 0.575621 0.333137
v 0.333140 0.575621 0.781826
v 0.000000 0.575621 0.839504
v -0.333140 0.575621 0.781826
v -0.609568 0.000000 0.609566
v -0.609568 0.000000 -0.609573
v 0.609568 0.000000 -0.609573
v 0.609568 0.000000 0.609566
v -0.781829 0.000000 0.333138
v -0.839506 0.000000 -0.000004
v -0.781829 0.000000 -0.333145
v -0.333140 0.000000 -0.781834
v 0.000000 0.000000 -0.839512
v 0.333140 0.000000 -0.781834
v 0.781829 0.000000 -0.333145
v 0.839506 0.000000 -0.000004
v 0.781829 0.000000 0.333138
v 0.333140 0.000000 0.781826
v 0.000000 0.000000 0.839504
v -0.333140 0.000000 0.781826
v -1.025700 0.575621 0.437050
v -1.101368 0.575621 -0.000004
v -1.025700 0.575621 -0.437058
v -0.799706 0.575621 0.799702
v -0.799707 0.575621 -0.799709
v -0.437055 0.575621 -1.025703
v 0.000000 0.575621 -1.101372
v 0.437055 0.575621 -1.025703
v 0.799706 0.575621 -0.799709
v 1.025700 0.575621 -0.437058
v 1.101368 0.575621 -0.000004
v 1.025700 0.575621 0.437050
v 0.799707 0.575621 0.799702
v 0.437055 0.575621 1.025696
v 0.000000 0.575621 1.101364
v -0.437055 0.575621 1.025696
v -1.025700 0.000000 0.437050
v -1.101368 0.000000 -0.000004
v -1.025700 0.000000 -0.437057
v -0.799706 0.000000 0.799702
v -0.799707 0.000000 -0.799709
v -0.437055 0.000000 -1.025703
v 0.000000 0.000000 -1.101372
v 0.437055 0.000000 -1.025703
v 0.799706 0.000000 -0.799709
v 1.025700 0.000000 -0.437057
v 1.101368 0.000000 -0.000004
v 1.025700 0.000000 0.437050
v 0.799707 0.000000 0.799702
v 0.437055 0.000000 1.025696
v 0.000000 0.000000 1.101364
v -0.437055 0.000000 1.025696
vn -0.9708 0.1697 0.1697
vn -0.9708 0.1697 -0.1697
vn -0.8367 0.1678 0.5213
vn -0.7504 0.4674 0.4674
vn -0.8367 0.5213 0.1678
vn -0.8367 0.5213 -0.1678
vn -0.7504 0.4674 -0.4674
vn -0.8367 0.1678 -0.5213
vn -0.1697 0.1697 -0.9708
vn 0.1697 0.1697 -0.9708
vn -0.5213 0.1678 -0.8367
vn -0.4674 0.4674 -0.7504
vn -0.1678 0.5213 -0.8367
vn 0.1678 0.5213 -0.8367
vn 0.4674 0.4674 -0.7504
vn 0.5213 0.1678 -0.8367
vn 0.9708 0.1697 -0.1697
vn 0.9708 0.1697 0.1697
vn 0.8367 0.1678 -0.5213
vn 0.7504 0.4674 -0.4674
vn 0.8367 0.5213 -0.1678
vn 0.8367 0.5213 0.1678
vn 0.7504 0.4674 0.4674
vn 0.8367 0.1678 0.5213
vn 0.1697 0.1697 0.9708
vn -0.1697 0.1697 0.9708
vn 0.5213 0.1678 0.8367
vn 0.4674 0.4674 0.7504
vn 0.1678 0.5213 0.8367
vn -0.1678 0.5213 0.8367
vn -0.4674 0.4674 0.7504
vn -0.5213 0.1678 0.8367
vn 0.1697 0.9708 -0.1697
vn -0.1697 0.9708 -0.1697
vn 0.1697 0.9708 0.1697
vn -0.1697 0.9708 0.1697
vn 0.4674 0.7504 -0.4674
vn 0.1678 0.8367 -0.5213
vn -0.1678 0.8367 -0.5213
vn -0.4674 0.7504 -0.4674
vn -0.5213 0.8367 -0.1678
vn -0.5213 0.8367 0.1678
vn -0.4674 0.7504 0.4674
vn -0.1678 0.8367 0.5213
vn 0.1678 0.8367 0.5213
vn 0.4674 0.7504 0.4674
vn 0.5213 0.8367 0.1678
vn 0.5213 0.8367 -0.1678
vn -0.9853 -0.0000 0.1706
vn -0.1706 -0.0000 0.9853
vn 0.9853 -0.0000 0.1706
vn -0.5289 -0.0000 0.8487
vn 0.1706 -0.0000 -0.9853
vn -0.9853 -0.0000 -0.1706
vn 0.8487 -0.0000 0.5289
vn 0.5289 -0.0000 0.8487
vn 0.5289 -0.0000 -0.8487
vn 0.8487 -0.0000 -0.5289
vn -0.8487 -0.0000 -0.5289
vn 0.1706 -0.0000 0.9853
vn -0.5289 -0.0000 -0.8487
vn 0.9853 -0.0000 -0.1706
vn -0.8487 -0.0000 0.5289
vn -0.1706 -0.0000 -0.9853
vn -0.0000 1.0000 -0.0000
vn -0.0000 -1.0000 -0.0000
vt 0.783380 0.277788
vt 0.785051 0.257596
vt 0.804083 0.257192
vt 0.803412 0.278501
vt 0.824345 0.258299
vt 0.824786 0.278529
vt 0.768207 0.276458
vt 0.770910 0.257612
vt 0.776291 0.244462
vt 0.788079 0.240531
vt 0.806088 0.238772
vt 0.824949 0.241190
vt 0.838435 0.245574
vt 0.842119 0.258886
vt 0.843969 0.277814
vt 0.801939 0.076457
vt 0.803609 0.056264
vt 0.822641 0.055861
vt 0.821970 0.077170
vt 0.842904 0.056968
vt 0.843344 0.077198
vt 0.786765 0.075127
vt 0.789468 0.056280
vt 0.794849 0.043130
vt 0.806638 0.039199
vt 0.824646 0.037441
vt 0.843508 0.039859
vt 0.856994 0.044242
vt 0.860677 0.057554
vt 0.862527 0.076482
vt 0.783380 0.455363
vt 0.785051 0.435170
vt 0.804083 0.434767
vt 0.803412 0.456075
vt 0.824345 0.435873
vt 0.824786 0.456103
vt 0.768207 0.454032
vt 0.770910 0.435186
vt 0.776291 0.422036
vt 0.788079 0.418105
vt 0.806088 0.416347
vt 0.824949 0.418765
vt 0.838435 0.423148
vt 0.842119 0.436460
vt 0.843969 0.455388
vt 0.788277 0.708642
vt 0.789948 0.688450
vt 0.808980 0.688046
vt 0.808309 0.709355
vt 0.829242 0.689153
vt 0.829683 0.709383
vt 0.773104 0.707312
vt 0.775807 0.688465
vt 0.781188 0.675315
vt 0.792976 0.671385
vt 0.810985 0.669626
vt 0.829847 0.672044
vt 0.843332 0.676427
vt 0.847016 0.689740
vt 0.848866 0.708668
vt 0.793965 0.907738
vt 0.790449 0.888031
vt 0.811353 0.885450
vt 0.813935 0.906354
vt 0.789065 0.868062
vt 0.808772 0.864546
vt 0.832257 0.882868
vt 0.833641 0.902838
vt 0.828741 0.863162
vt 0.783854 0.920698
vt 0.777701 0.908504
vt 0.797179 0.923699
vt 0.773104 0.890173
vt 0.773104 0.871275
vt 0.776104 0.857950
vt 0.788299 0.851798
vt 0.806629 0.847201
vt 0.825528 0.847201
vt 0.838853 0.850201
vt 0.845005 0.862396
vt 0.849602 0.880726
vt 0.849602 0.899624
vt 0.834407 0.919102
vt 0.846602 0.912949
vt 0.816077 0.923699
vt 0.803412 0.341437
vt 0.783380 0.340724
vt 0.829683 0.772319
vt 0.808309 0.772291
vt 0.824786 0.519039
vt 0.803412 0.519011
vt 0.848866 0.771603
vt 0.843344 0.140133
vt 0.821970 0.140105
vt 0.824786 0.341465
vt 0.843969 0.518324
vt 0.788277 0.771578
vt 0.773104 0.770248
vt 0.862527 0.139418
vt 0.783380 0.518298
vt 0.768207 0.516968
vt 0.843969 0.340749
vt 0.801939 0.139392
vt 0.786765 0.138062
vt 0.768207 0.339394
vt 0.135241 0.151167
vt 0.150604 0.137454
vt 0.164500 0.147249
vt 0.144345 0.165239
vt 0.053754 0.305841
vt 0.053754 0.327217
vt 0.037441 0.330041
vt 0.037441 0.301997
vt 0.074654 0.150604
vt 0.093733 0.158354
vt 0.089889 0.174667
vt 0.064859 0.164500
vt 0.060941 0.347349
vt 0.046869 0.356453
vt 0.115109 0.158354
vt 0.117933 0.174667
vt 0.074654 0.362711
vt 0.093733 0.370461
vt 0.089889 0.386775
vt 0.064859 0.376608
vt 0.135241 0.363275
vt 0.150604 0.349562
vt 0.164500 0.359357
vt 0.144345 0.377347
vt 0.060941 0.135241
vt 0.046869 0.144345
vt 0.158354 0.330483
vt 0.174667 0.334327
vt 0.115109 0.370461
vt 0.117933 0.386775
vt 0.061504 0.074654
vt 0.053754 0.093733
vt 0.037441 0.089889
vt 0.047608 0.064859
vt 0.151167 0.288975
vt 0.137454 0.273612
vt 0.147249 0.259716
vt 0.165239 0.279871
vt 0.053754 0.115109
vt 0.037441 0.117933
vt 0.158354 0.309107
vt 0.174667 0.306283
vt 0.955537 0.258707
vt 0.955072 0.284999
vt 0.918851 0.285647
vt 0.919316 0.259355
vt 0.955072 0.459940
vt 0.955537 0.487977
vt 0.919316 0.488625
vt 0.918851 0.460588
vt 0.955537 0.313037
vt 0.919316 0.313685
vt 0.956926 0.413713
vt 0.955537 0.433647
vt 0.919316 0.434296
vt 0.920705 0.414361
vt 0.956926 0.238772
vt 0.920705 0.239421
vt 0.956926 0.513123
vt 0.920705 0.513771
vt 0.956926 0.338183
vt 0.920705 0.338831
vt 0.960434 0.689561
vt 0.959969 0.715853
vt 0.923748 0.716501
vt 0.924213 0.690209
vt 0.961170 0.867135
vt 0.960706 0.893427
vt 0.924484 0.894076
vt 0.924949 0.867783
vt 0.960434 0.743891
vt 0.924213 0.744539
vt 0.961170 0.921465
vt 0.924949 0.922113
vt 0.961823 0.669626
vt 0.925602 0.670274
vt 0.962559 0.847201
vt 0.926338 0.847849
vt 0.961823 0.769037
vt 0.925602 0.769685
vt 0.962559 0.946611
vt 0.926338 0.947259
vt 0.158354 0.118375
vt 0.158354 0.096999
vt 0.174667 0.094175
vt 0.174667 0.122219
vt 0.061504 0.286762
vt 0.047608 0.276967
vt 0.151167 0.076867
vt 0.165239 0.067763
vt 0.096999 0.265862
vt 0.076867 0.273049
vt 0.067763 0.258977
vt 0.094175 0.249549
vt 0.118375 0.053754
vt 0.096999 0.053754
vt 0.094175 0.037441
vt 0.122219 0.037441
vt 0.118375 0.265862
vt 0.122219 0.249549
vt 0.076867 0.060941
vt 0.067763 0.046869
vt 0.137454 0.061504
vt 0.147249 0.047608
s 1
f 25/1/1 26/2/1 28/3/1 27/4/1
f 27/4/2 28/3/2 30/5/2 29/6/2
f 5/7/3 6/8/3 26/2/3 25/1/3
f 6/8/4 1/9/4 7/10/4 26/2/4
f 26/2/5 7/10/5 8/11/5 28/3/5
f 28/3/6 8/11/6 9/12/6 30/5/6
f 30/5/7 9/12/7 2/13/7 10/14/7
f 29/6/8 30/5/8 10/14/8 11/15/8
f 31/16/9 32/17/9 34/18/9 33/19/9
f 33/19/10 34/18/10 36/20/10 35/21/10
f 11/22/11 10/23/11 32/17/11 31/16/11
f 10/23/12 2/24/12 12/25/12 32/17/12
f 32/17/13 12/25/13 13/26/13 34/18/13
f 34/18/14 13/26/14 14/27/14 36/20/14
f 36/20/15 14/27/15 4/28/15 15/29/15
f 35/21/16 36/20/16 15/29/16 16/30/16
f 37/31/17 38/32/17 40/33/17 39/34/17
f 39/34/18 40/33/18 42/35/18 41/36/18
f 16/37/19 15/38/19 38/32/19 37/31/19
f 15/38/20 4/39/20 17/40/20 38/32/20
f 38/32/21 17/40/21 18/41/21 40/33/21
f 40/33/22 18/41/22 19/42/22 42/35/22
f 42/35/23 19/42/23 3/43/23 20/44/23
f 41/36/24 42/35/24 20/44/24 21/45/24
f 43/46/25 44/47/25 46/48/25 45/49/25
f 45/49/26 46/48/26 48/50/26 47/51/26
f 21/52/27 20/53/27 44/47/27 43/46/27
f 20/53/28 3/54/28 22/55/28 44/47/28
f 44/47/29 22/55/29 23/56/29 46/48/29
f 46/48/30 23/56/30 24/57/30 48/50/30
f 48/50/31 24/57/31 1/58/31 6/59/31
f 47/51/32 48/50/32 6/59/32 5/60/32
f 49/61/33 50/62/33 53/63/33 52/64/33
f 50/62/34 51/65/34 54/66/34 53/63/34
f 52/64/35 53/63/35 56/67/35 55/68/35
f 53/63/36 54/66/36 57/69/36 56/67/36
f 4/70/37 14/71/37 49/61/37 17/72/37
f 14/71/38 13/73/38 50/62/38 49/61/38
f 13/73/39 12/74/39 51/65/39 50/62/39
f 12/74/40 2/75/40 9/76/40 51/65/40
f 51/65/41 9/76/41 8/77/41 54/66/41
f 54/66/42 8/77/42 7/78/42 57/69/42
f 57/69/43 7/78/43 1/79/43 24/80/43
f 56/67/44 57/69/44 24/80/44 23/81/44
f 55/68/45 56/67/45 23/81/45 22/82/45
f 19/83/46 55/68/46 22/82/46 3/84/46
f 18/85/47 52/64/47 55/68/47 19/83/47
f 17/72/48 49/61/48 52/64/48 18/85/48
f 25/1/49 27/4/49 63/86/49 62/87/49
f 45/49/50 47/51/50 73/88/50 72/89/50
f 39/34/51 41/36/51 70/90/51 69/91/51
f 47/51/52 5/60/52 58/92/52 73/88/52
f 33/19/53 35/21/53 67/93/53 66/94/53
f 27/4/54 29/6/54 64/95/54 63/86/54
f 41/36/55 21/45/55 61/96/55 70/90/55
f 21/52/56 43/46/56 71/97/56 61/98/56
f 35/21/57 16/30/57 60/99/57 67/93/57
f 16/37/58 37/31/58 68/100/58 60/101/58
f 29/6/59 11/15/59 59/102/59 64/95/59
f 43/46/60 45/49/60 72/89/60 71/97/60
f 11/22/61 31/16/61 65/103/61 59/104/61
f 37/31/62 39/34/62 69/91/62 68/100/62
f 5/7/63 25/1/63 62/87/63 58/105/63
f 31/16/64 33/19/64 66/94/64 65/103/64
f 70/106/65 61/107/65 102/108/65 101/109/65
f 83/110/66 82/111/66 112/112/66 113/113/66
f 60/114/65 68/115/65 99/116/65 98/117/65
f 82/111/66 81/118/66 111/119/66 112/112/66
f 69/120/65 70/106/65 101/109/65 100/121/65
f 75/122/66 80/123/66 108/124/66 110/125/66
f 68/115/65 69/120/65 100/121/65 99/116/65
f 78/126/66 74/127/66 109/128/66 106/129/66
f 67/130/65 60/114/65 98/117/65 97/131/65
f 74/127/66 89/132/66 121/133/66 109/128/66
f 80/123/66 79/134/66 107/135/66 108/124/66
f 59/136/65 65/137/65 95/138/65 94/139/65
f 87/140/66 77/141/66 118/142/66 119/143/66
f 79/134/66 78/126/66 106/129/66 107/135/66
f 66/144/65 67/130/65 97/131/65 96/145/65
f 89/132/66 88/146/66 120/147/66 121/133/66
f 99/148/62 100/149/62 116/150/62 115/151/62
f 91/152/54 92/153/54 108/154/54 107/155/54
f 100/149/51 101/156/51 117/157/51 116/150/51
f 93/158/63 90/159/63 106/160/63 109/161/63
f 98/162/58 99/148/58 115/151/58 114/163/58
f 92/153/59 94/164/59 110/165/59 108/154/59
f 101/156/55 102/166/55 118/167/55 117/157/55
f 95/168/64 96/169/64 112/170/64 111/171/64
f 103/172/60 104/173/60 120/174/60 119/175/60
f 96/169/53 97/176/53 113/177/53 112/170/53
f 104/173/50 105/178/50 121/179/50 120/174/50
f 94/180/61 95/168/61 111/171/61 110/181/61
f 102/182/56 103/172/56 119/175/56 118/183/56
f 97/176/57 98/184/57 114/185/57 113/177/57
f 90/159/49 91/152/49 107/155/49 106/160/49
f 105/178/52 93/186/52 109/187/52 121/179/52
f 81/118/66 75/122/66 110/125/66 111/119/66
f 71/188/65 72/189/65 104/190/65 103/191/65
f 76/192/66 83/110/66 113/113/66 114/193/66
f 72/189/65 73/194/65 105/195/65 104/190/65
f 85/196/66 84/197/66 115/198/66 116/199/66
f 62/200/65 63/201/65 91/202/65 90/203/65
f 61/107/65 71/188/65 103/191/65 102/108/65
f 86/204/66 85/196/66 116/199/66 117/205/66
f 63/201/65 64/206/65 92/207/65 91/202/65
f 73/194/65 58/208/65 93/209/65 105/195/65
f 84/197/66 76/192/66 114/193/66 115/198/66
f 58/208/65 62/200/65 90/203/65 93/209/65
f 77/141/66 86/204/66 117/205/66 118/142/66
f 64/206/65 59/136/65 94/139/65 92/207/65
f 88/146/66 87/140/66 119/143/66 120/147/66
f 65/137/65 66/144/65 96/145/65 95/138/65
