# Blender 5.0.0
# www.blender.org
mtllib room.mtl
o Plane
v -6.519509 0.000000 6.519509
v 3.448554 0.000000 6.519509
v -6.519509 0.000000 -6.519509
v 3.448554 0.000000 -6.519509
v -6.519509 11.366454 6.519509
v 3.448554 11.367177 6.519509
v -6.519509 11.366454 -6.519509
v 3.448554 11.367177 -6.519509
v -6.519509 0.000000 -2.173170
v -6.519509 0.000000 2.173170
v 7.423600 0.000000 2.173170
v 7.423600 0.000000 -2.173170
v -6.519509 11.366454 -2.173170
v -6.519509 11.366454 2.173170
v 3.448554 0.000000 6.519509
v 3.448554 0.000000 -6.519509
v 7.423600 0.000000 2.173170
v 7.423600 0.000000 -2.173170
v 3.448554 0.000000 6.519509
v 3.448554 0.000000 -6.519509
v 7.423600 0.000000 2.173170
v 7.423600 0.000000 -2.173170
v 7.423600 11.367900 2.173170
v 7.423600 11.367900 -2.173170
v 7.423600 5.152158 -2.173170
v 7.423600 5.152158 2.173170
v 3.448554 5.146945 6.519509
v 3.448554 5.146945 -6.519509
v -6.519509 0.000000 3.621950
v -6.519509 0.000000 5.070730
v -6.519509 11.366454 3.621950
v -6.519509 11.366454 5.070730
v 4.773570 0.000000 5.070730
v 6.098585 0.000000 3.621950
v 4.773570 0.000000 5.070730
v 6.098585 0.000000 3.621950
v 4.773570 0.000000 5.070730
v 6.098585 0.000000 3.621950
v 4.773570 11.367900 5.070730
v 6.098585 11.367900 3.621950
v 4.773570 5.152158 5.070730
v 6.098585 5.152158 3.621950
v -6.519509 0.000000 -0.724390
v -6.519509 0.000000 0.724390
v 7.423600 0.000000 1.088502
v 7.423600 0.000000 -1.088502
v -6.519509 11.366454 -0.724390
v -6.519509 11.366454 0.724390
v 7.423600 11.367900 0.724390
v 7.423600 11.367900 -0.724390
v 7.423600 5.152157 1.088502
v 7.423600 5.152157 -1.088502
v 6.098585 0.000000 -3.621950
v 4.773570 0.000000 -5.070730
v -6.519509 0.000000 -5.070730
v -6.519509 0.000000 -3.621950
v -6.519509 11.366454 -5.070730
v -6.519509 11.366454 -3.621950
v 6.098585 0.000000 -3.621950
v 4.773570 0.000000 -5.070730
v 6.098585 0.000000 -3.621950
v 4.773570 0.000000 -5.070730
v 6.098585 11.367900 -3.621950
v 4.773570 11.367900 -5.070730
v 6.098585 5.152158 -3.621950
v 4.773570 5.152158 -5.070730
v 14.561502 -0.005145 12.913980
v 15.886518 -0.005145 11.465200
v 14.561502 5.147013 12.913980
v 15.886518 5.147013 11.465200
v 15.886610 -0.005145 -11.465085
v 14.561595 -0.005145 -12.913865
v 15.886610 5.147013 -11.465085
v 14.561595 5.147013 -12.913865
v 19.393177 0.002574 1.088502
v 19.393177 0.002574 -1.088502
v 19.393177 5.154731 1.088502
v 19.393177 5.154731 -1.088502
v 16.928576 -0.005145 -12.645189
v 15.346378 -0.005145 -13.807632
v 16.928576 5.147013 -12.645189
v 15.346378 5.147013 -13.807632
v 17.720295 -0.005145 -14.005894
v 15.941717 -0.005145 -14.837331
v 17.720295 5.147012 -14.005894
v 15.941717 5.147012 -14.837331
v 18.231340 -0.005145 -15.494909
v 16.324734 -0.005145 -15.963387
v 18.231340 5.147012 -15.494909
v 16.324734 5.147012 -15.963387
v 18.442074 -0.005145 -17.055014
v 16.480705 -0.005145 -17.142532
v 18.442074 5.147011 -17.055014
v 16.480705 5.147011 -17.142532
v 15.406475 -0.005145 14.025817
v 16.988672 -0.005145 12.863374
v 15.406475 5.147013 14.025817
v 16.988672 5.147013 12.863374
v 16.018303 -0.005145 15.281136
v 17.796881 -0.005145 14.449701
v 16.018303 5.147012 15.281136
v 17.796881 5.147012 14.449701
v 16.373474 -0.005145 16.631695
v 18.280081 -0.005145 16.163221
v 16.373474 5.147012 16.631695
v 18.280081 5.147012 16.163221
v 16.458340 -0.005145 18.025595
v 18.419708 -0.005145 17.938084
v 16.458340 5.147011 18.025595
v 18.419708 5.147011 17.938084
v 29.386282 -3.750898 1.088502
v 29.386282 -3.750898 -1.088502
v 33.033222 -0.111591 1.088502
v 33.033222 -0.111591 -1.088502
v 52.933659 -2.968721 1.088502
v 52.933651 -2.968721 -1.088502
v 56.580593 0.670586 1.088502
v 56.580589 0.670586 -1.088502
v -6.519509 5.141732 -6.519509
v -6.519509 5.141732 6.519509
v -6.519509 5.141732 2.173170
v -6.519509 5.141732 -2.173170
v -6.519509 5.141732 5.070730
v -6.519509 5.141732 3.621950
v -6.519509 5.141732 0.724390
v -6.519509 5.141732 -0.724390
v -6.519509 5.141732 -3.621950
v -6.519509 5.141732 -5.070730
vn -0.0000 -1.0000 -0.0000
vn -0.0000 -0.0000 -1.0000
vn 0.4036 -0.0000 -0.9150
vn 0.4032 -0.0000 -0.9151
vn 0.4032 -0.0000 0.9151
vn 0.4036 -0.0000 0.9150
vn -0.0000 -0.0000 1.0000
vn -1.0000 -0.0000 -0.0000
vn 0.0001 -1.0000 -0.0000
vn -0.0000 -0.0000 -0.0000
vn -0.0000 1.0000 -0.0000
vn 1.0000 -0.0000 -0.0000
vn 0.9322 -0.0000 0.3620
vn 0.7379 -0.0000 0.6749
vn 0.7379 -0.0000 -0.6749
vn 0.9322 -0.0000 -0.3620
vn -0.6253 -0.0000 0.7804
vn -0.7162 -0.0000 0.6979
vn -0.7161 -0.0000 0.6980
vn 0.0003 1.0000 0.0003
vn 0.0001 1.0000 0.0001
vn 0.0002 1.0000 0.0001
vn -0.0003 -1.0000 -0.0003
vn -0.0002 -1.0000 -0.0001
vn -0.0001 -1.0000 -0.0001
vn 0.6253 -0.0000 -0.7804
vn 0.7099 -0.0000 -0.7043
vn 0.7100 -0.0000 -0.7042
vn -0.0003 -1.0000 0.0003
vn -0.0001 -1.0000 0.0001
vn -0.0002 -1.0000 0.0001
vn -0.6253 -0.0000 -0.7804
vn -0.6910 -0.0000 -0.7229
vn -0.6911 -0.0000 -0.7228
vn 0.6253 -0.0000 0.7804
vn 0.6901 -0.0000 0.7237
vn 0.6900 -0.0000 0.7238
vn 0.0003 1.0000 -0.0003
vn 0.0002 1.0000 -0.0001
vn 0.0001 1.0000 -0.0001
vn -0.0002 1.0000 -0.0000
vn 0.0002 -1.0000 -0.0000
vn 0.8109 -0.0000 0.5852
vn -0.8125 -0.0000 -0.5830
vn -0.9106 -0.0000 -0.4133
vn 0.9095 -0.0000 0.4158
vn -0.9737 -0.0000 -0.2277
vn 0.9731 -0.0000 0.2304
vn 0.9910 -0.0000 0.1339
vn -0.9914 -0.0000 -0.1311
vn 0.8422 -0.0000 -0.5391
vn -0.8516 -0.0000 0.5241
vn 0.9312 -0.0000 -0.3644
vn -0.9375 -0.0000 0.3479
vn -0.9874 -0.0000 0.1583
vn 0.9844 -0.0000 -0.1758
vn 0.9969 -0.0000 -0.0784
vn -0.9982 -0.0000 0.0608
vn -0.3516 -0.9361 -0.0000
vn 0.3602 0.9329 -0.0000
vn 0.0332 -0.9994 -0.0000
vn -0.0332 0.9994 -0.0000
vn -0.0001 1.0000 0.0002
vn -0.0001 1.0000 -0.0000
vn -0.0001 1.0000 0.0001
vn -0.0001 1.0000 -0.0001
vn -0.0001 1.0000 -0.0002
vn 0.0446 -0.0000 -0.9990
vn 0.0446 -0.0000 0.9990
vn 0.7064 -0.7078 -0.0000
vt 0.849925 0.689158
vt 0.860217 0.689158
vt 0.860217 0.759975
vt 0.849925 0.769388
vt 0.256725 0.238674
vt 0.256725 0.526984
vt 0.185909 0.527018
vt 0.185909 0.238916
vt 0.071342 0.238916
vt 0.071342 0.527018
vt 0.000525 0.526984
vt 0.000525 0.238674
vt 0.268069 0.238674
vt 0.268069 0.526984
vt 0.257776 0.526984
vt 0.257776 0.238674
vt 0.329825 0.238674
vt 0.329825 0.526984
vt 0.319532 0.526984
vt 0.319532 0.238674
vt 0.298947 0.238674
vt 0.298947 0.526984
vt 0.288654 0.526984
vt 0.288654 0.238674
vt 0.788169 0.689158
vt 0.798461 0.689158
vt 0.798461 0.788215
vt 0.788169 0.778801
vt 0.819047 0.689158
vt 0.829339 0.689158
vt 0.829339 0.788215
vt 0.821634 0.788215
vt 0.341229 0.576162
vt 0.341235 0.562655
vt 0.341247 0.562655
vt 0.341246 0.541545
vt 0.341231 0.541545
vt 0.341227 0.528035
vt 0.341247 0.528035
vt 0.340161 0.552096
vt 0.340147 0.552096
vt 0.340147 0.541543
vt 0.340162 0.541543
vt 0.341220 0.562655
vt 0.341219 0.541545
vt 0.341213 0.528035
vt 0.340134 0.552096
vt 0.340136 0.541543
vt 0.120892 0.239157
vt 0.123479 0.527051
vt 0.113186 0.527051
vt 0.113186 0.239157
vt 0.085290 0.239157
vt 0.085290 0.527051
vt 0.158012 0.239157
vt 0.158012 0.527051
vt 0.144064 0.527051
vt 0.144064 0.239157
vt 0.158012 0.000525
vt 0.144064 0.000525
vt 0.085290 0.000525
vt 0.071342 0.000525
vt 0.120892 0.000525
vt 0.113186 0.000525
vt 0.099238 0.239157
vt 0.099238 0.000525
vt 0.099238 0.527051
vt 0.341220 0.552101
vt 0.341233 0.552101
vt 0.341246 0.552101
vt 0.767584 0.689158
vt 0.777876 0.689158
vt 0.777876 0.769388
vt 0.767584 0.759975
vt 0.350410 0.238674
vt 0.350410 0.526984
vt 0.340117 0.526984
vt 0.340117 0.238674
vt 0.136358 0.239157
vt 0.136358 0.000525
vt 0.133772 0.527051
vt 0.340156 0.528035
vt 0.808754 0.689158
vt 0.806167 0.788215
vt 0.309239 0.526984
vt 0.309239 0.238674
vt 0.185909 0.000525
vt 0.171961 0.239157
vt 0.171961 0.000525
vt 0.171960 0.527051
vt 0.340149 0.576162
vt 0.340129 0.576162
vt 0.340132 0.562652
vt 0.340147 0.562652
vt 0.340162 0.576162
vt 0.340159 0.562652
vt 0.278361 0.526984
vt 0.278361 0.238674
vt 0.839632 0.689158
vt 0.839632 0.778801
vt 0.000525 0.528340
vt 0.089633 0.528102
vt 0.089633 0.766734
vt 0.000525 0.766972
vt 0.396177 0.729476
vt 0.381861 0.817427
vt 0.367978 0.816089
vt 0.382293 0.728138
vt 0.411112 0.728138
vt 0.425427 0.816089
vt 0.411544 0.817427
vt 0.397228 0.729476
vt 0.507679 0.727087
vt 0.418570 0.726849
vt 0.418570 0.488217
vt 0.507679 0.488455
vt 0.452579 0.856861
vt 0.463707 0.768450
vt 0.477630 0.769285
vt 0.466502 0.857696
vt 0.766533 0.727087
vt 0.677425 0.726849
vt 0.677425 0.488217
vt 0.766533 0.488455
vt 0.508729 0.488455
vt 0.597837 0.488217
vt 0.597837 0.726849
vt 0.508729 0.727087
vt 0.440401 0.728138
vt 0.451529 0.816548
vt 0.437605 0.817384
vt 0.426478 0.728973
vt 0.391608 0.339685
vt 0.444257 0.272907
vt 0.631859 0.420388
vt 0.579210 0.487166
vt 0.685558 0.487166
vt 0.632910 0.420388
vt 0.820512 0.272907
vt 0.873160 0.339685
vt 0.255353 0.700319
vt 0.255353 0.785355
vt 0.239887 0.785355
vt 0.239887 0.700319
vt 0.821634 0.873251
vt 0.806167 0.873251
vt 0.609021 0.488217
vt 0.609021 0.726849
vt 0.451006 0.827720
vt 0.437187 0.825823
vt 0.668975 0.726849
vt 0.668975 0.488217
vt 0.463288 0.760010
vt 0.477107 0.758113
vt 0.448314 0.838576
vt 0.435131 0.834019
vt 0.660525 0.726849
vt 0.660525 0.488217
vt 0.461232 0.751814
vt 0.474415 0.747258
vt 0.620206 0.488217
vt 0.620206 0.726849
vt 0.652075 0.726849
vt 0.652075 0.488217
vt 0.457616 0.744177
vt 0.469657 0.737137
vt 0.631390 0.488217
vt 0.631390 0.726849
vt 0.443555 0.848697
vt 0.431515 0.841657
vt 0.642574 0.488217
vt 0.642574 0.726848
vt 0.436914 0.857696
vt 0.426478 0.848442
vt 0.643625 0.726849
vt 0.643625 0.488217
vt 0.452579 0.737392
vt 0.463015 0.728138
vt 0.405922 0.726849
vt 0.405922 0.488217
vt 0.424589 0.828709
vt 0.410711 0.827313
vt 0.099554 0.528102
vt 0.099554 0.766734
vt 0.382694 0.827313
vt 0.368816 0.828709
vt 0.393274 0.726849
vt 0.393274 0.488217
vt 0.421304 0.840923
vt 0.407965 0.836846
vt 0.109476 0.528102
vt 0.109476 0.766734
vt 0.385440 0.836847
vt 0.372101 0.840923
vt 0.119397 0.528102
vt 0.119397 0.766734
vt 0.389992 0.845661
vt 0.377705 0.852262
vt 0.380626 0.726849
vt 0.380626 0.488217
vt 0.415700 0.852262
vt 0.403413 0.845661
vt 0.367978 0.726849
vt 0.367978 0.488217
vt 0.407991 0.862290
vt 0.397228 0.853419
vt 0.129318 0.528102
vt 0.129318 0.766734
vt 0.396177 0.853419
vt 0.385414 0.862290
vt 0.351461 0.109651
vt 0.499989 0.193458
vt 0.307095 0.715821
vt 0.307094 0.528035
vt 0.322561 0.528035
vt 0.322561 0.715821
vt 0.764780 0.193458
vt 0.913308 0.109651
vt 0.351461 0.750680
vt 0.351461 0.488217
vt 0.366927 0.488217
vt 0.366927 0.750680
vt 0.323611 0.699202
vt 0.323611 0.528035
vt 0.339078 0.528035
vt 0.339078 0.699202
vt 0.632910 0.084332
vt 0.781438 0.000525
vt 0.239887 0.699268
vt 0.239887 0.528102
vt 0.255353 0.528102
vt 0.255353 0.699268
vt 0.483331 0.000525
vt 0.631859 0.084332
vt 0.278361 0.000525
vt 0.268069 0.000525
vt 0.288654 0.000525
vt 0.309239 0.000525
vt 0.298947 0.000525
vt 0.319532 0.000525
vt 0.340117 0.000525
vt 0.329825 0.000525
vt 0.350410 0.000525
vt 0.257776 0.000525
vt 0.071342 0.000525
vt 0.000525 0.000525
vt 0.256725 0.000525
vt 0.185909 0.000525
vt 0.621689 0.798954
vt 0.611396 0.808368
vt 0.611396 0.728138
vt 0.621689 0.728138
vt 0.601103 0.817781
vt 0.601103 0.728138
vt 0.590811 0.827195
vt 0.590811 0.728138
vt 0.580518 0.827195
vt 0.580518 0.728138
vt 0.570226 0.827195
vt 0.570225 0.728138
vt 0.559933 0.827195
vt 0.559933 0.728138
vt 0.549640 0.817781
vt 0.549640 0.728138
vt 0.539348 0.808368
vt 0.539348 0.728138
vt 0.529055 0.798954
vt 0.529055 0.728138
vt 0.271724 0.528035
vt 0.271724 0.766667
vt 0.257776 0.766667
vt 0.257776 0.528035
vt 0.286723 0.528035
vt 0.286723 0.766667
vt 0.272775 0.766667
vt 0.272775 0.528035
vt 0.339078 0.700252
vt 0.339078 0.870793
vt 0.323612 0.870793
vt 0.323612 0.700252
s 1
usemtl Material.002
f 55/1/1 3/2/1 4/3/1 54/4/1
f 119/5/2 7/6/2 8/7/3 28/8/4
f 27/9/5 6/10/6 5/11/7 120/12/7
f 128/13/8 57/14/8 7/15/8 119/16/8
f 124/17/8 31/18/8 14/19/8 121/20/8
f 126/21/8 47/22/8 13/23/8 122/24/8
f 29/25/1 10/26/1 11/27/1 34/28/1
f 43/29/1 9/30/1 12/31/1 46/32/9
f 45/33/10 17/34/11 11/35/11
f 33/36/11 35/37/11 15/38/11 2/39/11
f 53/40/11 59/41/11 18/42/11 12/43/11
f 45/33/10 21/44/11 17/34/11
f 35/37/11 37/45/11 19/46/11 15/38/11
f 59/41/11 61/47/11 22/48/11 18/42/11
f 51/49/12 49/50/12 23/51/13 26/52/13
f 41/53/14 39/54/14 6/10/6 27/9/5
f 65/55/15 63/56/15 24/57/16 25/58/16
f 61/59/15 65/55/15 25/58/16 22/60/16
f 37/61/14 41/53/14 27/9/5 19/62/14
f 45/63/12 51/49/12 26/52/13 21/64/13
f 21/64/13 26/52/13 42/65/14 38/66/14
f 26/52/13 23/51/13 40/67/14 42/65/14
f 42/65/14 40/67/14 39/54/14 41/53/14
f 17/34/11 21/44/11 38/68/11 36/69/11
f 36/69/11 38/68/11 37/45/11 35/37/11
f 11/35/11 17/34/11 36/69/11 34/70/11
f 34/70/11 36/69/11 35/37/11 33/36/11
f 1/71/1 30/72/1 33/73/1 2/74/1
f 30/72/1 29/25/1 34/28/1 33/73/1
f 120/75/8 5/76/8 32/77/8 123/78/8
f 123/78/8 32/77/8 31/18/8 124/17/8
f 22/60/16 25/58/16 52/79/12 46/80/12
f 25/58/16 24/57/16 50/81/12 52/79/12
f 52/79/12 50/81/12 49/50/12 51/49/12
f 18/42/11 22/48/11 46/82/10
f 12/43/11 18/42/11 46/82/10
f 10/26/1 44/83/1 45/84/9 11/27/1
f 44/83/1 43/29/1 46/32/9 45/84/9
f 121/20/8 14/19/8 48/85/8 125/86/8
f 125/86/8 48/85/8 47/22/8 126/21/8
f 20/87/15 28/8/4 66/88/15 62/89/15
f 28/8/4 8/7/3 64/90/15 66/88/15
f 66/88/15 64/90/15 63/56/15 65/55/15
f 16/91/11 20/92/11 62/93/11 60/94/11
f 60/94/11 62/93/11 61/47/11 59/41/11
f 4/95/11 16/91/11 60/94/11 54/96/11
f 54/96/11 60/94/11 59/41/11 53/40/11
f 122/24/8 13/23/8 58/97/8 127/98/8
f 127/98/8 58/97/8 57/14/8 128/13/8
f 9/30/1 56/99/1 53/100/1 12/31/1
f 56/99/1 55/1/1 54/4/1 53/100/1
f 37/101/17 67/102/18 69/103/19 41/104/17
f 41/105/20 69/106/21 70/107/22 42/108/20
f 38/109/23 68/110/24 67/111/25 37/112/23
f 42/113/26 70/114/27 68/115/28 38/116/26
f 62/117/29 72/118/30 71/119/31 61/120/29
f 66/121/32 74/122/33 72/123/34 62/124/32
f 61/125/35 71/126/36 73/127/37 65/128/35
f 65/129/38 73/130/39 74/131/40 66/132/38
f 45/133/7 75/134/7 77/135/7 51/136/7
f 52/137/2 78/138/2 76/139/2 46/140/2
f 51/141/41 77/142/41 78/143/41 52/144/41
f 46/32/9 76/145/42 75/146/42 45/84/9
f 71/126/36 79/147/43 81/148/43 73/127/37
f 73/130/39 81/149/11 82/150/11 74/131/40
f 74/122/33 82/151/44 80/152/44 72/123/34
f 72/118/30 80/153/1 79/154/1 71/119/31
f 81/149/11 85/155/11 86/156/11 82/150/11
f 82/151/44 86/157/45 84/158/45 80/152/44
f 80/153/1 84/159/1 83/160/1 79/154/1
f 79/147/43 83/161/46 85/162/46 81/148/43
f 86/157/45 90/163/47 88/164/47 84/158/45
f 84/159/1 88/165/1 87/166/1 83/160/1
f 83/161/46 87/167/48 89/168/48 85/162/46
f 85/155/11 89/169/11 90/170/11 86/156/11
f 87/167/48 91/171/49 93/172/49 89/168/48
f 89/169/11 93/173/11 94/174/11 90/170/11
f 90/163/47 94/175/50 92/176/50 88/164/47
f 88/165/1 92/177/1 91/178/1 87/166/1
f 70/114/27 98/179/51 96/180/51 68/115/28
f 68/110/24 96/181/1 95/182/1 67/111/25
f 67/102/18 95/183/52 97/184/52 69/103/19
f 69/106/21 97/185/11 98/186/11 70/107/22
f 98/179/51 102/187/53 100/188/53 96/180/51
f 96/181/1 100/189/1 99/190/1 95/182/1
f 95/183/52 99/191/54 101/192/54 97/184/52
f 97/185/11 101/193/11 102/194/11 98/186/11
f 99/191/54 103/195/55 105/196/55 101/192/54
f 101/193/11 105/197/11 106/198/11 102/194/11
f 102/187/53 106/199/56 104/200/56 100/188/53
f 100/189/1 104/201/1 103/202/1 99/190/1
f 106/199/56 110/203/57 108/204/57 104/200/56
f 104/201/1 108/205/1 107/206/1 103/202/1
f 103/195/55 107/207/58 109/208/58 105/196/55
f 105/197/11 109/209/11 110/210/11 106/198/11
f 75/134/7 111/211/7 113/212/7 77/135/7
f 76/213/59 112/214/59 111/215/59 75/216/59
f 78/138/2 114/217/2 112/218/2 76/139/2
f 77/219/60 113/220/60 114/221/60 78/222/60
f 112/223/61 116/224/61 115/225/61 111/226/61
f 114/217/2 118/227/2 116/228/2 112/218/2
f 113/229/62 117/230/62 118/231/62 114/232/62
f 111/211/7 115/233/7 117/234/7 113/212/7
f 56/235/8 127/98/8 128/13/8 55/236/8
f 9/237/8 122/24/8 127/98/8 56/235/8
f 44/238/8 125/86/8 126/21/8 43/239/8
f 10/240/8 121/20/8 125/86/8 44/238/8
f 30/241/8 123/78/8 124/17/8 29/242/8
f 1/243/8 120/75/8 123/78/8 30/241/8
f 43/239/8 126/21/8 122/24/8 9/237/8
f 29/242/8 124/17/8 121/20/8 10/240/8
f 55/236/8 128/13/8 119/16/8 3/244/8
f 2/245/7 27/9/5 120/12/7 1/246/7
f 3/247/2 119/5/2 28/8/4 4/248/2
f 6/249/63 39/250/64 32/251/65 5/252/63
f 39/250/64 40/253/66 31/254/66 32/251/65
f 40/253/66 23/255/64 14/256/64 31/254/66
f 23/255/64 49/257/64 48/258/64 14/256/64
f 49/257/64 50/259/64 47/260/64 48/258/64
f 50/259/64 24/261/64 13/262/64 47/260/64
f 24/261/64 63/263/65 58/264/65 13/262/64
f 63/263/65 64/265/64 57/266/66 58/264/65
f 64/265/64 8/267/67 7/268/67 57/266/66
f 92/269/68 94/270/68 93/271/68 91/272/68
f 108/273/69 110/274/69 109/275/69 107/276/69
f 116/277/70 118/278/70 117/279/70 115/280/70
o Cube.002
v -3.146192 1.603330 17.175484
v -4.334613 2.239477 18.025614
v -2.136883 1.603330 15.905152
v -1.577385 2.239477 14.555326
v -2.627333 1.292144 17.587730
v -2.917195 1.389382 19.151787
v -1.618023 1.292144 16.317398
v -0.159967 1.389382 15.681499
v -1.712203 1.872784 14.448212
v -4.469430 1.872784 17.918499
v -0.294785 1.022690 15.574385
v -3.052012 1.022690 19.044670
v -2.136883 -0.319675 15.905152
v -3.146192 -0.319675 17.175484
v -1.618023 -0.630860 16.317398
v -2.627333 -0.630860 17.587730
vn -0.7087 0.4250 -0.5631
vn 0.6221 -0.0000 -0.7830
vn 0.7087 -0.4250 0.5631
vn -0.6221 -0.0000 0.7830
vn 0.7830 -0.0000 0.6221
vn 0.3328 0.9052 0.2644
vn -0.3328 -0.9052 -0.2644
vn -0.7830 -0.0000 -0.6221
vt 0.220566 0.546372
vt 0.238836 0.546372
vt 0.238836 0.746262
vt 0.220566 0.746262
vt 0.220566 0.764532
vt 0.130369 0.764532
vt 0.130369 0.746262
vt 0.306044 0.727925
vt 0.287774 0.727925
vt 0.287774 0.528035
vt 0.306044 0.528035
vt 0.130369 0.546372
vt 0.130369 0.528102
vt 0.220566 0.528102
vt 0.203540 0.852308
vt 0.130369 0.852308
vt 0.130369 0.765583
vt 0.203540 0.765583
vt 0.857781 0.688107
vt 0.767584 0.688107
vt 0.767584 0.488217
vt 0.857781 0.488217
vt 0.191976 0.682903
vt 0.191976 0.609731
vt 0.158958 0.682903
vt 0.158958 0.609731
vt 0.760917 0.801310
vt 0.727899 0.801310
vt 0.727899 0.728138
vt 0.760917 0.728138
vt 0.726849 0.814863
vt 0.653677 0.814863
vt 0.653677 0.728138
vt 0.726849 0.728138
vt 0.652626 0.814863
vt 0.622739 0.828897
vt 0.622739 0.742172
vt 0.652626 0.728138
vt 0.503342 0.833236
vt 0.478680 0.811282
vt 0.503342 0.728138
vt 0.528004 0.750091
s 0
usemtl Material.002
f 138/281/71 130/282/71 132/283/71 137/284/71
f 137/284/72 132/285/72 136/286/72 139/287/72
f 139/288/73 136/289/73 134/290/73 140/291/73
f 140/292/74 134/293/74 130/294/74 138/281/74
f 135/295/75 133/296/75 144/297/75 143/298/75
f 136/299/76 132/300/76 130/301/76 134/302/76
f 131/303/77 129/304/77 138/281/77 137/284/77
f 135/305/77 131/303/77 137/284/77 139/287/77
f 133/306/77 135/305/77 139/287/77 140/292/77
f 129/304/77 133/306/77 140/292/77 138/281/77
f 141/307/77 143/308/77 144/309/77 142/310/77
f 129/311/78 131/312/78 141/313/78 142/314/78
f 133/315/74 129/316/74 142/317/74 144/318/74
f 131/319/72 135/320/72 143/321/72 141/322/72
o Cube.001
v -2.136883 1.603330 24.094849
v -1.577385 2.239477 25.444674
v -3.146192 1.603330 22.824516
v -4.334613 2.239477 21.974386
v -1.618023 1.292144 23.682602
v -0.159967 1.389382 24.318501
v -2.627333 1.292144 22.412270
v -2.917195 1.389382 20.848213
v -4.469430 1.872784 22.081501
v -1.712203 1.872784 25.551788
v -3.052012 1.022690 20.955330
v -0.294785 1.022690 24.425615
v -3.146192 -0.319675 22.824516
v -2.136882 -0.319675 24.094849
v -2.627332 -0.630860 22.412270
v -1.618023 -0.630860 23.682602
vn -0.7087 0.4250 0.5631
vn -0.6221 -0.0000 -0.7830
vn 0.7087 -0.4250 -0.5631
vn 0.6221 -0.0000 0.7830
vn 0.7830 -0.0000 -0.6221
vn 0.3328 0.9052 -0.2644
vn -0.3328 -0.9052 0.2644
vn -0.7830 -0.0000 0.6221
vt 0.220566 0.546372
vt 0.238836 0.546372
vt 0.238836 0.746262
vt 0.220566 0.746262
vt 0.220566 0.764532
vt 0.130369 0.764532
vt 0.130369 0.746262
vt 0.306044 0.727925
vt 0.287774 0.727925
vt 0.287774 0.528035
vt 0.306044 0.528035
vt 0.130369 0.546372
vt 0.130369 0.528102
vt 0.220566 0.528102
vt 0.203540 0.852308
vt 0.130369 0.852308
vt 0.130369 0.765583
vt 0.203540 0.765583
vt 0.857781 0.688107
vt 0.767584 0.688107
vt 0.767584 0.488217
vt 0.857781 0.488217
vt 0.191976 0.682903
vt 0.191976 0.609731
vt 0.158958 0.682903
vt 0.158958 0.609731
vt 0.760917 0.801310
vt 0.727899 0.801310
vt 0.727899 0.728138
vt 0.760917 0.728138
vt 0.726849 0.814863
vt 0.653677 0.814863
vt 0.653677 0.728138
vt 0.726849 0.728138
vt 0.652626 0.814863
vt 0.622739 0.828897
vt 0.622739 0.742172
vt 0.652626 0.728138
vt 0.503342 0.833236
vt 0.478680 0.811282
vt 0.503342 0.728138
vt 0.528004 0.750091
s 0
usemtl Material.002
f 154/323/79 146/324/79 148/325/79 153/326/79
f 153/326/80 148/327/80 152/328/80 155/329/80
f 155/330/81 152/331/81 150/332/81 156/333/81
f 156/334/82 150/335/82 146/336/82 154/323/82
f 151/337/83 149/338/83 160/339/83 159/340/83
f 152/341/84 148/342/84 146/343/84 150/344/84
f 147/345/85 145/346/85 154/323/85 153/326/85
f 151/347/85 147/345/85 153/326/85 155/329/85
f 149/348/85 151/347/85 155/329/85 156/334/85
f 145/346/85 149/348/85 156/334/85 154/323/85
f 157/349/85 159/350/85 160/351/85 158/352/85
f 145/353/86 147/354/86 157/355/86 158/356/86
f 149/357/82 145/358/82 158/359/82 160/360/82
f 147/361/80 151/362/80 159/363/80 157/364/80
o Cube.003
v -6.473579 2.758142 24.500710
v -6.473579 6.469365 24.500710
v -6.473579 2.758142 15.499291
v -6.473579 6.469365 15.499291
v -6.269609 2.758142 24.500710
v -6.269609 6.469365 24.500710
v -6.269609 2.758142 15.499291
v -6.269609 6.469365 15.499291
vn -1.0000 -0.0000 -0.0000
vn -0.0000 -0.0000 -1.0000
vn 1.0000 -0.0000 -0.0000
vn -0.0000 -0.0000 1.0000
vn -0.0000 -1.0000 -0.0000
vn -0.0000 1.0000 -0.0000
vt 0.340311 0.863340
vt 0.425427 0.863340
vt 0.425427 0.948457
vt 0.340311 0.948457
vt 0.767584 0.959418
vt 0.767584 0.874302
vt 0.852700 0.874302
vt 0.852700 0.959418
vt 0.511594 0.858747
vt 0.511594 0.943863
vt 0.426478 0.943863
vt 0.426478 0.858747
vt 0.943948 0.488217
vt 0.943948 0.573333
vt 0.858832 0.573333
vt 0.858832 0.488217
vt 0.085642 0.768023
vt 0.085642 0.853139
vt 0.000525 0.853139
vt 0.000525 0.768023
vt 0.215485 0.938475
vt 0.130369 0.938475
vt 0.130369 0.853358
vt 0.215485 0.853358
s 0
usemtl Material.002
f 161/365/87 162/366/87 164/367/87 163/368/87
f 163/369/88 164/370/88 168/371/88 167/372/88
f 167/373/89 168/374/89 166/375/89 165/376/89
f 165/377/90 166/378/90 162/379/90 161/380/90
f 163/381/91 167/382/91 165/383/91 161/384/91
f 168/385/92 164/386/92 162/387/92 166/388/92
o Cube.004
v -4.875353 -0.603653 20.806919
v -4.875353 1.396347 20.806919
v -4.875353 -0.603653 19.193081
v -4.875353 1.396347 19.193081
v -3.261516 -0.603653 20.806919
v -3.261516 1.396347 20.806919
v -3.261516 -0.603653 19.193081
v -3.261516 1.396347 19.193081
vn -1.0000 -0.0000 -0.0000
vn -0.0000 -0.0000 -1.0000
vn 1.0000 -0.0000 -0.0000
vn -0.0000 -0.0000 1.0000
vn -0.0000 -1.0000 -0.0000
vn -0.0000 1.0000 -0.0000
vt 0.653677 0.902081
vt 0.738793 0.902081
vt 0.738793 0.987197
vt 0.653677 0.987197
vt 0.914358 0.085642
vt 0.914358 0.000525
vt 0.999475 0.000525
vt 0.999475 0.085642
vt 0.943948 0.574384
vt 0.943948 0.659500
vt 0.858832 0.659500
vt 0.858832 0.574384
vt 0.946384 0.689158
vt 0.946384 0.774274
vt 0.861268 0.774274
vt 0.861268 0.689158
vt 0.738793 0.815913
vt 0.738793 0.901030
vt 0.653677 0.901030
vt 0.653677 0.815913
vt 0.301652 0.938475
vt 0.216536 0.938475
vt 0.216536 0.853358
vt 0.301652 0.853358
s 0
usemtl Material.002
f 169/389/93 170/390/93 172/391/93 171/392/93
f 171/393/94 172/394/94 176/395/94 175/396/94
f 175/397/95 176/398/95 174/399/95 173/400/95
f 173/401/96 174/402/96 170/403/96 169/404/96
f 171/405/97 175/406/97 173/407/97 169/408/97
f 176/409/98 172/410/98 170/411/98 174/412/98
o Cube.005
v -6.407469 1.025772 21.583223
v -6.407469 2.331276 21.583223
v -6.407469 1.025772 18.416777
v -6.407469 2.331276 18.416777
v -6.335719 1.025772 21.583223
v -6.335719 2.331276 21.583223
v -6.335719 1.025772 18.416777
v -6.335719 2.331276 18.416777
vn -1.0000 -0.0000 -0.0000
vn -0.0000 -0.0000 -1.0000
vn 1.0000 -0.0000 -0.0000
vn -0.0000 -0.0000 1.0000
vn -0.0000 -1.0000 -0.0000
vn -0.0000 1.0000 -0.0000
vt 0.914358 0.086692
vt 0.999475 0.086692
vt 0.999475 0.171809
vt 0.914358 0.171809
vt 0.914358 0.257976
vt 0.914358 0.172859
vt 0.999475 0.172859
vt 0.999475 0.257976
vt 0.946384 0.775325
vt 0.946384 0.860441
vt 0.861268 0.860441
vt 0.861268 0.775325
vt 0.946384 0.861492
vt 0.946384 0.946608
vt 0.861268 0.946608
vt 0.861268 0.861492
vt 0.614171 0.828245
vt 0.614171 0.913361
vt 0.529055 0.913361
vt 0.529055 0.828245
vt 0.085642 0.939306
vt 0.000525 0.939306
vt 0.000525 0.854190
vt 0.085642 0.854190
s 0
usemtl Material.002
f 177/413/99 178/414/99 180/415/99 179/416/99
f 179/417/100 180/418/100 184/419/100 183/420/100
f 183/421/101 184/422/101 182/423/101 181/424/101
f 181/425/102 182/426/102 178/427/102 177/428/102
f 179/429/103 183/430/103 181/431/103 177/432/103
f 184/433/104 180/434/104 178/435/104 182/436/104
