# Blender 5.0.0
# www.blender.org
mtllib room.mtl
o Cube.002
v -3.146192 1.603330 -3.028143
v -4.334613 2.239477 -2.178013
v -2.136883 1.603330 -4.298474
v -1.577385 2.239477 -5.648300
v -2.627333 1.292144 -2.615896
v -2.917195 1.389382 -1.051840
v -1.618023 1.292144 -3.886228
v -0.159967 1.389382 -4.522127
v -1.712203 1.872784 -5.755415
v -4.469430 1.872784 -2.285129
v -0.294785 1.022690 -4.629242
v -3.052012 1.022690 -1.158956
v -2.136883 -0.319675 -4.298474
v -3.146192 -0.319675 -3.028143
v -1.618023 -0.630860 -3.886228
v -2.627333 -0.630860 -2.615896
vn -0.7087 0.4250 -0.5631
vn 0.6221 -0.0000 -0.7830
vn 0.7087 -0.4250 0.5631
vn -0.6221 -0.0000 0.7830
vn 0.7830 -0.0000 0.6221
vn 0.3328 0.9052 0.2644
vn -0.3328 -0.9052 -0.2644
vn -0.7830 -0.0000 -0.6221
vt 0.178940 0.036601
vt 0.215095 0.036601
vt 0.215094 0.432169
vt 0.178940 0.432169
vt 0.178940 0.468323
vt 0.000446 0.468323
vt 0.000446 0.432169
vt 0.431527 0.396014
vt 0.395372 0.396014
vt 0.395372 0.000446
vt 0.431527 0.000446
vt 0.000446 0.036601
vt 0.000446 0.000446
vt 0.178940 0.000446
vt 0.577220 0.581228
vt 0.432419 0.581228
vt 0.432419 0.409605
vt 0.577220 0.409605
vt 0.394480 0.396014
vt 0.215986 0.396014
vt 0.215986 0.000446
vt 0.394480 0.000446
vt 0.122363 0.306785
vt 0.122363 0.161984
vt 0.057023 0.306785
vt 0.057023 0.161984
vt 0.427019 0.541708
vt 0.361680 0.541708
vt 0.361680 0.396906
vt 0.427019 0.396906
vt 0.360788 0.568528
vt 0.215986 0.568528
vt 0.215986 0.396906
vt 0.360788 0.396906
vt 0.491562 0.380941
vt 0.432419 0.408713
vt 0.432419 0.237091
vt 0.491562 0.209319
vt 0.481223 0.208427
vt 0.432419 0.164983
vt 0.481223 0.000446
vt 0.530027 0.043890
s 0
usemtl Material.002
f 10/1/1 2/2/1 4/3/1 9/4/1
f 9/4/2 4/5/2 8/6/2 11/7/2
f 11/8/3 8/9/3 6/10/3 12/11/3
f 12/12/4 6/13/4 2/14/4 10/1/4
f 7/15/5 5/16/5 16/17/5 15/18/5
f 8/19/6 4/20/6 2/21/6 6/22/6
f 3/23/7 1/24/7 10/1/7 9/4/7
f 7/25/7 3/23/7 9/4/7 11/7/7
f 5/26/7 7/25/7 11/7/7 12/12/7
f 1/24/7 5/26/7 12/12/7 10/1/7
f 13/27/7 15/28/7 16/29/7 14/30/7
f 1/31/8 3/32/8 13/33/8 14/34/8
f 5/35/4 1/36/4 14/37/4 16/38/4
f 3/39/2 7/40/2 15/41/2 13/42/2
o Cube.001
v -2.136883 1.603330 3.891221
v -1.577385 2.239477 5.241046
v -3.146192 1.603330 2.620890
v -4.334613 2.239477 1.770760
v -1.618023 1.292144 3.478975
v -0.159967 1.389382 4.114873
v -2.627333 1.292144 2.208643
v -2.917195 1.389382 0.644587
v -4.469430 1.872784 1.877875
v -1.712203 1.872784 5.348162
v -3.052012 1.022690 0.751702
v -0.294785 1.022690 4.221989
v -3.146192 -0.319675 2.620890
v -2.136882 -0.319675 3.891222
v -2.627332 -0.630860 2.208643
v -1.618023 -0.630860 3.478975
vn -0.7087 0.4250 0.5631
vn -0.6221 -0.0000 -0.7830
vn 0.7087 -0.4250 -0.5631
vn 0.6221 -0.0000 0.7830
vn 0.7830 -0.0000 -0.6221
vn 0.3328 0.9052 -0.2644
vn -0.3328 -0.9052 0.2644
vn -0.7830 -0.0000 0.6221
vt 0.178940 0.036601
vt 0.215095 0.036601
vt 0.215094 0.432169
vt 0.178940 0.432169
vt 0.178940 0.468323
vt 0.000446 0.468323
vt 0.000446 0.432169
vt 0.431527 0.396014
vt 0.395372 0.396014
vt 0.395372 0.000446
vt 0.431527 0.000446
vt 0.000446 0.036601
vt 0.000446 0.000446
vt 0.178940 0.000446
vt 0.577220 0.581228
vt 0.432419 0.581228
vt 0.432419 0.409605
vt 0.577220 0.409605
vt 0.394480 0.396014
vt 0.215986 0.396014
vt 0.215986 0.000446
vt 0.394480 0.000446
vt 0.122363 0.306785
vt 0.122363 0.161984
vt 0.057023 0.306785
vt 0.057023 0.161984
vt 0.427019 0.541708
vt 0.361680 0.541708
vt 0.361680 0.396906
vt 0.427019 0.396906
vt 0.360788 0.568528
vt 0.215986 0.568528
vt 0.215986 0.396906
vt 0.360788 0.396906
vt 0.491562 0.380941
vt 0.432419 0.408713
vt 0.432419 0.237091
vt 0.491562 0.209319
vt 0.481223 0.208427
vt 0.432419 0.164983
vt 0.481223 0.000446
vt 0.530027 0.043890
s 0
usemtl Material.002
f 26/43/9 18/44/9 20/45/9 25/46/9
f 25/46/10 20/47/10 24/48/10 27/49/10
f 27/50/11 24/51/11 22/52/11 28/53/11
f 28/54/12 22/55/12 18/56/12 26/43/12
f 23/57/13 21/58/13 32/59/13 31/60/13
f 24/61/14 20/62/14 18/63/14 22/64/14
f 19/65/15 17/66/15 26/43/15 25/46/15
f 23/67/15 19/65/15 25/46/15 27/49/15
f 21/68/15 23/67/15 27/49/15 28/54/15
f 17/66/15 21/68/15 28/54/15 26/43/15
f 29/69/15 31/70/15 32/71/15 30/72/15
f 17/73/16 19/74/16 29/75/16 30/76/16
f 21/77/12 17/78/12 30/79/12 32/80/12
f 19/81/10 23/82/10 31/83/10 29/84/10
o Cube.003
v -6.473579 2.758142 4.297082
v -6.473579 6.469365 4.297082
v -6.473579 2.758142 -4.704335
v -6.473579 6.469365 -4.704335
v -6.269609 2.758142 4.297082
v -6.269609 6.469365 4.297082
v -6.269609 2.758142 -4.704335
v -6.269609 6.469365 -4.704335
vn -1.0000 -0.0000 -0.0000
vn -0.0000 -0.0000 -1.0000
vn 1.0000 -0.0000 -0.0000
vn -0.0000 -0.0000 1.0000
vn -0.0000 -1.0000 -0.0000
vn -0.0000 1.0000 -0.0000
vt 0.747443 0.748267
vt 0.915882 0.748267
vt 0.915882 0.916705
vt 0.747443 0.916705
vt 0.408782 0.919889
vt 0.408782 0.751450
vt 0.577220 0.751450
vt 0.577220 0.919889
vt 0.830223 0.209319
vt 0.830223 0.377758
vt 0.661785 0.377758
vt 0.661785 0.209319
vt 0.868688 0.000446
vt 0.868688 0.168885
vt 0.700249 0.168885
vt 0.700249 0.000446
vt 0.660893 0.209319
vt 0.660893 0.377758
vt 0.492454 0.377758
vt 0.492454 0.209319
vt 0.746551 0.578044
vt 0.578112 0.578044
vt 0.578112 0.409605
vt 0.746551 0.409605
s 0
usemtl Material.002
f 33/85/17 34/86/17 36/87/17 35/88/17
f 35/89/18 36/90/18 40/91/18 39/92/18
f 39/93/19 40/94/19 38/95/19 37/96/19
f 37/97/20 38/98/20 34/99/20 33/100/20
f 35/101/21 39/102/21 37/103/21 33/104/21
f 40/105/22 36/106/22 34/107/22 38/108/22
o Cube.004
v -4.875353 -0.603653 0.603292
v -4.875353 1.396347 0.603292
v -4.875353 -0.603653 -1.010545
v -4.875353 1.396347 -1.010545
v -3.261516 -0.603653 0.603292
v -3.261516 1.396347 0.603292
v -3.261516 -0.603653 -1.010545
v -3.261516 1.396347 -1.010545
vn -1.0000 -0.0000 -0.0000
vn -0.0000 -0.0000 -1.0000
vn 1.0000 -0.0000 -0.0000
vn -0.0000 -0.0000 1.0000
vn -0.0000 -1.0000 -0.0000
vn -0.0000 1.0000 -0.0000
vt 0.747443 0.578936
vt 0.915882 0.578936
vt 0.915882 0.747375
vt 0.747443 0.747375
vt 0.578112 0.916705
vt 0.578112 0.748267
vt 0.746551 0.748267
vt 0.746551 0.916705
vt 0.577220 0.582119
vt 0.577220 0.750558
vt 0.408782 0.750558
vt 0.408782 0.582119
vt 0.168885 0.638546
vt 0.168885 0.806985
vt 0.000446 0.806985
vt 0.000446 0.638546
vt 0.168885 0.469215
vt 0.168885 0.637654
vt 0.000446 0.637654
vt 0.000446 0.469215
vt 0.384425 0.737859
vt 0.215986 0.737859
vt 0.215986 0.569420
vt 0.384425 0.569420
s 0
usemtl Material.002
f 41/109/23 42/110/23 44/111/23 43/112/23
f 43/113/24 44/114/24 48/115/24 47/116/24
f 47/117/25 48/118/25 46/119/25 45/120/25
f 45/121/26 46/122/26 42/123/26 41/124/26
f 43/125/27 47/126/27 45/127/27 41/128/27
f 48/129/28 44/130/28 42/131/28 46/132/28
o Cube.005
v -6.407469 1.025772 1.379596
v -6.407469 2.331276 1.379596
v -6.407469 1.025772 -1.786850
v -6.407469 2.331276 -1.786850
v -6.335719 1.025772 1.379596
v -6.335719 2.331276 1.379596
v -6.335719 1.025772 -1.786850
v -6.335719 2.331276 -1.786850
vn -1.0000 -0.0000 -0.0000
vn -0.0000 -0.0000 -1.0000
vn 1.0000 -0.0000 -0.0000
vn -0.0000 -0.0000 1.0000
vn -0.0000 -1.0000 -0.0000
vn -0.0000 1.0000 -0.0000
vt 0.000446 0.807877
vt 0.168885 0.807877
vt 0.168885 0.976315
vt 0.000446 0.976315
vt 0.831115 0.377758
vt 0.831115 0.209319
vt 0.999554 0.209319
vt 0.999554 0.377758
vt 0.384425 0.738751
vt 0.384425 0.907189
vt 0.215986 0.907189
vt 0.215986 0.738751
vt 0.915882 0.409605
vt 0.915882 0.578044
vt 0.747443 0.578044
vt 0.747443 0.409605
vt 0.699357 0.000446
vt 0.699357 0.168885
vt 0.530919 0.168885
vt 0.530919 0.000446
vt 0.746551 0.747375
vt 0.578112 0.747375
vt 0.578112 0.578936
vt 0.746551 0.578936
s 0
usemtl Material.002
f 49/133/29 50/134/29 52/135/29 51/136/29
f 51/137/30 52/138/30 56/139/30 55/140/30
f 55/141/31 56/142/31 54/143/31 53/144/31
f 53/145/32 54/146/32 50/147/32 49/148/32
f 51/149/33 55/150/33 53/151/33 49/152/33
f 56/153/34 52/154/34 50/155/34 54/156/34
