# Blender 5.0.0
# www.blender.org
mtllib vent.mtl
o Cube.005
v -6.407469 1.025772 1.379596
v -6.407469 2.331276 1.379596
v -6.407469 1.025772 -1.786850
v -6.407469 2.331276 -1.786850
v -6.335719 1.025772 1.379596
v -6.335719 2.331276 1.379596
v -6.335719 1.025772 -1.786850
v -6.335719 2.331276 -1.786850
vn -1.0000 -0.0000 -0.0000
vn -0.0000 -0.0000 -1.0000
vn 1.0000 -0.0000 -0.0000
vn -0.0000 -0.0000 1.0000
vn -0.0000 -1.0000 -0.0000
vn -0.0000 1.0000 -0.0000
vt 0.000446 0.807877
vt 0.168885 0.807877
vt 0.168885 0.976315
vt 0.000446 0.976315
vt 0.831115 0.377758
vt 0.831115 0.209319
vt 0.999554 0.209319
vt 0.999554 0.377758
vt 0.384425 0.738751
vt 0.384425 0.907189
vt 0.215986 0.907189
vt 0.215986 0.738751
vt 0.915882 0.409605
vt 0.915882 0.578044
vt 0.747443 0.578044
vt 0.747443 0.409605
vt 0.699357 0.000446
vt 0.699357 0.168885
vt 0.530919 0.168885
vt 0.530919 0.000446
vt 0.746551 0.747375
vt 0.578112 0.747375
vt 0.578112 0.578936
vt 0.746551 0.578936
s 1
usemtl Material.002
f 1/1/1 2/2/1 4/3/1 3/4/1
f 3/5/2 4/6/2 8/7/2 7/8/2
f 7/9/3 8/10/3 6/11/3 5/12/3
f 5/13/4 6/14/4 2/15/4 1/16/4
f 3/17/5 7/18/5 5/19/5 1/20/5
f 8/21/6 4/22/6 2/23/6 6/24/6
