# Blender 5.1.2
# www.blender.org
mtllib room.mtl
o Wall.010
v -10.288552 -5.113213 5.994106
v -10.168551 2.636790 5.994106
v -10.288552 -5.113214 1.994106
v -10.168551 2.636790 1.994106
v -9.210576 -5.113213 5.994106
v -9.608552 2.636790 5.994106
v -9.210576 -5.113214 1.994106
v -9.608552 2.636790 1.994106
v -10.168551 -0.738208 5.994106
v -10.168551 -0.738209 1.994106
v -9.608552 -0.738209 1.994106
v -9.608552 -0.738208 5.994106
v -10.168551 -3.425711 1.994106
v -9.608552 -3.425711 1.994106
v -9.608552 -3.425709 5.994106
v -10.168551 -3.425709 5.994106
v -10.168551 3.311791 5.994106
v -10.168551 3.311791 1.994106
v -9.608552 3.311791 1.994106
v -9.608552 3.311791 5.994106
v -9.208552 2.636790 1.994106
v -9.208552 2.636790 5.994106
v -9.208552 3.311791 1.994106
v -9.208552 3.311791 5.994106
v -10.168552 -5.113209 9.594112
v -10.168552 2.636792 9.994106
v -10.168552 -5.113209 5.994106
v -10.168552 2.636790 5.994106
v -9.208551 -5.113209 9.547367
v -9.608552 2.636792 9.947361
v -9.208551 -5.113209 5.994106
v -9.608552 2.636790 5.994106
v -10.168552 -0.738209 9.994106
v -10.168552 -0.738210 5.994106
v -9.608552 -0.738210 5.994106
v -9.608552 -0.738209 9.947361
v -10.168552 -3.425710 5.994106
v -9.608552 -3.425710 5.994106
v -9.608552 -3.425708 9.947361
v -10.168552 -3.425708 9.994106
v -10.168552 3.311793 9.994106
v -10.168552 3.311790 5.994106
v -9.608552 3.311790 5.994106
v -9.608552 3.311793 9.994106
v -9.208551 2.636790 5.994106
v -9.208551 2.636792 9.994106
v -9.208551 3.311790 5.994106
v -9.208551 3.311793 9.994106
v -10.168552 -0.738209 10.496372
v -10.168552 2.636792 10.496372
v -9.608552 -3.425708 10.496372
v -9.208551 -5.113209 10.496372
v -10.168552 -5.113209 10.496372
v -9.608552 2.636792 10.496372
v -10.168552 -3.425708 10.496372
v -9.608552 -0.738209 10.496372
v -9.608552 3.311793 10.496372
v -10.168552 3.311793 10.496372
v -9.208551 2.636792 10.496372
v -9.208551 3.311793 10.496372
v -5.663578 -3.425708 9.947361
v -5.663578 -5.113209 9.547367
v -5.663578 2.636792 10.496372
v -5.663578 2.636792 9.994106
v -5.663578 2.636792 9.947361
v -5.663578 -0.738209 9.947361
v -5.663578 3.311793 10.496372
v -5.663578 3.311793 9.994106
v -5.663578 -3.425708 10.496372
v -5.663578 -5.113209 10.496372
v -5.663578 2.636792 10.496372
v -5.663578 -0.738209 10.496372
v -9.208551 2.636792 9.547359
v -9.208551 3.311793 9.547359
v -5.663578 2.636792 9.547359
v -5.663578 3.311793 9.547359
v -10.288552 -5.113213 1.994106
v -10.168551 2.636790 1.994106
v -10.288552 -5.113214 -2.005894
v -10.168551 2.636790 -2.005894
v -9.210576 -5.113213 1.994106
v -9.608552 2.636790 1.994106
v -9.210576 -5.113214 -2.005894
v -9.608552 2.636790 -2.005894
v -10.168551 -0.738208 1.994106
v -10.168551 -0.738209 -2.005894
v -9.608552 -0.738209 -2.005894
v -9.608552 -0.738208 1.994106
v -10.168551 -3.425711 -2.005894
v -9.608552 -3.425711 -2.005894
v -9.608552 -3.425709 1.994106
v -10.168551 -3.425709 1.994106
v -10.168551 3.311791 1.994106
v -10.168551 3.311791 -2.005894
v -9.608552 3.311791 -2.005894
v -9.608552 3.311791 1.994106
v -9.208552 2.636790 -2.005894
v -9.208552 2.636790 1.994106
v -9.208552 3.311791 -2.005894
v -9.208552 3.311791 1.994106
v -10.288552 -5.113213 -2.005894
v -10.168551 2.636790 -2.005894
v -10.288552 -5.113214 -6.005894
v -10.168551 2.636790 -6.005894
v -9.210576 -5.113213 -2.005894
v -9.608552 2.636790 -2.005894
v -9.210576 -5.113214 -6.005894
v -9.608552 2.636790 -6.005894
v -10.168551 -0.738208 -2.005894
v -10.168551 -0.738209 -6.005894
v -9.608552 -0.738209 -6.005894
v -9.608552 -0.738208 -2.005894
v -10.168551 -3.425711 -6.005894
v -9.608552 -3.425711 -6.005894
v -9.608552 -3.425709 -2.005894
v -10.168551 -3.425709 -2.005894
v -10.168551 3.311791 -2.005894
v -10.168551 3.311791 -6.005894
v -9.608552 3.311791 -6.005894
v -9.608552 3.311791 -2.005894
v -9.208552 2.636790 -6.005894
v -9.208552 2.636790 -2.005894
v -9.208552 3.311791 -6.005894
v -9.208552 3.311791 -2.005894
v -9.261889 -5.113209 -10.512562
v -9.661885 2.636792 -10.512562
v -5.661887 -5.113209 -10.512562
v -5.661885 2.636790 -10.512562
v -9.215142 -5.113209 -9.552559
v -9.615140 2.636792 -9.952560
v -5.661887 -5.113209 -9.552559
v -5.661885 2.636790 -9.952560
v -9.661887 -0.738209 -10.512562
v -5.661887 -0.738210 -10.512562
v -5.661887 -0.738210 -9.952560
v -9.615140 -0.738209 -9.952560
v -5.661887 -3.425710 -10.512562
v -5.661887 -3.425710 -9.952560
v -9.615140 -3.425708 -9.952560
v -9.661887 -3.425708 -10.512562
v -9.661885 3.311793 -10.512562
v -5.661885 3.311790 -10.512562
v -5.661885 3.311790 -9.952560
v -9.661885 3.311793 -9.952560
v -5.661885 2.636790 -9.552559
v -9.661885 2.636792 -9.552559
v -5.661885 3.311790 -9.552559
v -9.661885 3.311793 -9.552559
v -10.164153 -0.738209 -10.512562
v -10.164151 2.636792 -10.512562
v -10.164153 -3.425708 -9.952560
v -10.164153 -5.113209 -9.552559
v -10.164153 -5.113209 -10.512562
v -10.164151 2.636792 -9.952560
v -10.164153 -3.425708 -10.512562
v -10.164153 -0.738209 -9.952560
v -10.164151 3.311793 -9.952560
v -10.164151 3.311793 -10.512562
v -10.164151 2.636792 -9.552559
v -10.164151 3.311793 -9.552559
v -9.615140 -3.425708 -6.007587
v -9.215142 -5.113209 -6.007587
v -10.164151 2.636792 -6.007587
v -9.661885 2.636792 -6.007587
v -9.615140 2.636792 -6.007587
v -9.615140 -0.738209 -6.007587
v -10.164151 3.311793 -6.007587
v -9.661885 3.311793 -6.007587
v -10.164153 -3.425708 -6.007587
v -10.164153 -5.113209 -6.007587
v -10.164151 2.636792 -6.007587
v -10.164153 -0.738209 -6.007587
v -9.215140 2.636792 -9.552559
v -9.215140 3.311793 -9.552559
v -9.215140 2.636792 -6.007587
v -9.215140 3.311793 -6.007587
v -5.661885 -5.113213 -10.632561
v -5.661885 2.636790 -10.512562
v -1.661885 -5.113214 -10.632561
v -1.661885 2.636790 -10.512562
v -5.661885 -5.113213 -9.554585
v -5.661885 2.636790 -9.952560
v -1.661885 -5.113214 -9.554585
v -1.661885 2.636790 -9.952560
v -5.661885 -0.738208 -10.512562
v -1.661885 -0.738209 -10.512562
v -1.661885 -0.738209 -9.952560
v -5.661885 -0.738208 -9.952560
v -1.661885 -3.425711 -10.512562
v -1.661885 -3.425711 -9.952560
v -5.661885 -3.425709 -9.952560
v -5.661885 -3.425709 -10.512562
v -5.661885 3.311791 -10.512562
v -1.661885 3.311791 -10.512562
v -1.661885 3.311791 -9.952560
v -5.661885 3.311791 -9.952560
v -1.661885 2.636790 -9.552563
v -5.661885 2.636790 -9.552563
v -1.661885 3.311791 -9.552563
v -5.661885 3.311791 -9.552563
v -1.661885 -5.113213 10.620777
v -1.661885 2.636790 10.500774
v -5.661885 -5.113214 10.620777
v -5.661885 2.636790 10.500774
v -1.661885 -5.113213 9.542797
v -1.661885 2.636790 9.940769
v -5.661885 -5.113214 9.542797
v -5.661885 2.636790 9.940769
v -1.661885 -0.738208 10.500774
v -5.661885 -0.738209 10.500774
v -5.661885 -0.738209 9.940769
v -1.661885 -0.738208 9.940769
v -5.661885 -3.425711 10.500774
v -5.661885 -3.425711 9.940769
v -1.661885 -3.425709 9.940769
v -1.661885 -3.425709 10.500774
v -1.661885 3.311791 10.500774
v -5.661885 3.311791 10.500774
v -5.661885 3.311791 9.940769
v -1.661885 3.311791 9.940769
v -5.661885 2.636790 9.540775
v -1.661885 2.636790 9.540775
v -5.661885 3.311791 9.540775
v -1.661885 3.311791 9.540775
v -1.252309 1.717678 -10.522778
v 2.011420 1.717678 -10.522778
v -1.252309 1.717678 -9.956169
v 2.011420 1.717678 -9.956169
v -1.252311 -1.677408 -10.522778
v 2.011420 -1.677408 -10.522778
v 2.011420 -1.677408 -9.956169
v -1.252311 -1.677408 -9.956169
v 2.011420 -3.374950 -10.522778
v 2.011420 -3.374950 -9.956169
v -1.252311 -3.374950 -9.956169
v -1.252311 -3.374950 -10.522778
v -1.663713 -1.677408 -10.522778
v -1.663711 1.717678 -10.522778
v -1.663713 -3.374950 -9.956169
v -1.663713 -5.110145 -9.956169
v -1.663713 -5.110145 -10.522778
v -1.663711 1.717678 -9.956169
v -1.663713 -3.374950 -10.522778
v -1.663713 -1.677408 -9.956169
v -1.252309 2.396695 -10.522778
v 2.011420 2.396695 -10.522778
v -1.663711 2.396695 -9.956169
v -1.663711 2.396695 -10.522778
v 2.011420 1.717678 -9.551449
v -1.252309 1.717678 -9.551449
v -1.252309 2.396695 -9.551449
v -1.252311 -1.677408 -9.551449
v -1.252311 -3.374950 -9.551449
v -1.663711 1.717678 -9.551449
v -1.663713 -1.677408 -9.551449
v -1.663713 -3.374950 -9.551449
v 2.011420 2.396695 -9.551449
v -1.663711 2.396695 -9.551449
v -1.252311 -3.374950 -9.551449
v -1.252311 -5.110145 -9.146732
v -1.663713 -3.374950 -9.551449
v -1.663713 -5.110145 -9.146732
v 2.337794 -3.374950 -10.522778
v 2.337794 -5.110145 -10.522778
v 2.337794 -5.110145 -9.956169
v 2.337794 1.717678 -10.522778
v 2.337794 1.717678 -9.956169
v 2.337794 -3.374950 -9.956169
v 2.337794 -1.677408 -10.522778
v 2.337794 -1.677408 -9.956169
v 2.337794 2.396695 -10.522778
v 2.337794 2.396695 -9.956169
v 2.011420 -5.110145 -9.146732
v 2.337794 -5.110145 -9.146732
v 2.011420 -3.374950 -9.551449
v 2.011420 1.717678 -9.551449
v 2.011420 -1.677408 -9.551449
v 2.337794 2.396695 -9.551449
v 2.011420 2.396695 -9.551449
v 2.337794 1.717678 -9.551449
v 2.337794 -3.374950 -9.551449
v 2.337794 -1.677408 -9.551449
v -1.252311 0.020135 -10.522778
v -1.252311 0.020135 -9.956169
v -1.663711 0.020135 -10.522778
v -1.663711 0.020135 -9.956169
v -1.252311 0.020135 -9.551449
v -1.663711 0.020135 -9.551449
v 2.011420 0.020135 -10.522778
v 2.011420 0.020135 -9.956169
v 2.337794 0.020135 -10.522778
v 2.337794 0.020135 -9.956169
v 2.011420 0.020135 -9.551449
v 2.337794 0.020135 -9.551449
v -0.599565 1.717678 -10.522778
v 0.053184 1.717678 -10.522778
v 0.705932 1.717678 -10.522778
v 1.358676 1.717678 -10.522778
v 1.358676 1.717678 -9.956169
v 0.705932 1.717678 -9.956169
v 0.053184 1.717678 -9.956169
v -0.599565 1.717678 -9.956169
v -0.599561 2.396695 -10.522778
v 0.053184 2.396695 -10.522778
v 0.705932 2.396695 -10.522778
v 1.358676 2.396695 -10.522778
v 1.358676 1.717678 -9.551449
v 0.705932 1.717678 -9.551449
v 0.053184 1.717678 -9.551449
v -0.599565 1.717678 -9.551449
v 1.358676 2.396695 -9.551449
v 0.705932 2.396695 -9.551449
v 0.053184 2.396695 -9.551449
v -0.599561 2.396695 -9.551449
v 2.337794 -4.223722 -10.522778
v 2.337794 -4.223722 -9.956169
v 2.011420 -4.223722 -9.349091
v 2.337794 -4.223722 -9.349091
v -1.663713 -4.223722 -9.956169
v -1.663713 -4.223722 -10.522778
v -1.252311 -4.223722 -9.349091
v -1.663713 -4.223722 -9.349091
v -1.252311 -5.110145 -10.522778
v 2.011420 -5.110145 -10.522778
v -1.252311 -5.110145 -9.956169
v 2.011420 -5.110145 -9.956169
v 2.011420 -4.223722 -10.522778
v 2.011420 -4.223722 -9.956169
v -1.252311 -4.223722 -9.956169
v -1.252311 -4.223722 -10.522778
v -1.252309 3.311502 -9.956169
v -0.599561 3.311502 -9.956169
v -0.599561 3.311502 -10.522778
v -1.252309 3.311502 -10.522778
v -1.663711 3.311502 -9.956169
v -1.663711 3.311502 -10.522778
v 2.011420 3.311502 -9.551449
v 1.358676 3.311502 -9.551449
v -1.252309 3.311502 -9.551449
v -1.663711 3.311502 -9.551449
v -0.599561 3.311502 -9.551449
v 2.337794 3.311502 -10.522778
v 2.337794 3.311502 -9.956169
v 2.011420 3.311502 -9.956169
v 2.011420 3.311502 -9.551449
v 2.011420 3.311502 -10.522778
v 2.337794 3.311502 -9.551449
v 1.358676 3.311502 -9.956169
v 0.705932 3.311502 -9.956169
v 0.705932 3.311502 -9.551449
v 0.053184 3.311502 -9.956169
v 0.053184 3.311502 -9.551449
v 1.358676 3.311502 -10.522778
v 0.705932 3.311502 -10.522778
v 0.053184 3.311502 -10.522778
v 1.928538 1.717678 10.510990
v -1.335191 1.717678 10.510990
v 1.928538 1.717678 9.944386
v -1.335191 1.717678 9.944386
v 1.928540 -1.677408 10.510990
v -1.335191 -1.677408 10.510990
v -1.335191 -1.677408 9.944386
v 1.928540 -1.677408 9.944386
v -1.335191 -3.374950 10.510990
v -1.335191 -3.374950 9.944386
v 1.928540 -3.374950 9.944386
v 1.928540 -3.374950 10.510990
v 2.339942 -1.677408 10.510990
v 2.339940 1.717678 10.510990
v 2.339942 -3.374950 9.944386
v 2.339942 -5.110145 9.944386
v 2.339942 -5.110145 10.510990
v 2.339940 1.717678 9.944386
v 2.339942 -3.374950 10.510990
v 2.339942 -1.677408 9.944386
v 1.928538 2.396695 10.510990
v -1.335191 2.396695 10.510990
v 2.339940 2.396695 9.944386
v 2.339940 2.396695 10.510990
v -1.335191 1.717678 9.539661
v 1.928538 1.717678 9.539661
v 1.928538 2.396695 9.539661
v 1.928540 -1.677408 9.539661
v 1.928540 -3.374950 9.539661
v 2.339940 1.717678 9.539661
v 2.339942 -1.677408 9.539661
v 2.339942 -3.374950 9.539661
v -1.335191 2.396695 9.539661
v 2.339940 2.396695 9.539661
v 1.928540 -3.374950 9.539661
v 1.928540 -5.110145 9.134945
v 2.339942 -3.374950 9.539661
v 2.339942 -5.110145 9.134945
v -1.661565 -3.374950 10.510990
v -1.661565 -5.110145 10.510990
v -1.661565 -5.110145 9.944386
v -1.661565 1.717678 10.510990
v -1.661565 1.717678 9.944386
v -1.661565 -3.374950 9.944386
v -1.661565 -1.677408 10.510990
v -1.661565 -1.677408 9.944386
v -1.661565 2.396695 10.510990
v -1.661565 2.396695 9.944386
v -1.335191 -5.110145 9.134945
v -1.661565 -5.110145 9.134945
v -1.335191 -3.374950 9.539661
v -1.335191 1.717678 9.539661
v -1.335191 -1.677408 9.539661
v -1.661565 2.396695 9.539661
v -1.335191 2.396695 9.539661
v -1.661565 1.717678 9.539661
v -1.661565 -3.374950 9.539661
v -1.661565 -1.677408 9.539661
v 1.928540 0.020135 10.510990
v 1.928540 0.020135 9.944386
v 2.339940 0.020135 10.510990
v 2.339940 0.020135 9.944386
v 1.928540 0.020135 9.539661
v 2.339940 0.020135 9.539661
v -1.335191 0.020135 10.510990
v -1.335191 0.020135 9.944386
v -1.661565 0.020135 10.510990
v -1.661565 0.020135 9.944386
v -1.335191 0.020135 9.539661
v -1.661565 0.020135 9.539661
v 1.275794 1.717678 10.510990
v 0.623046 1.717678 10.510990
v -0.029702 1.717678 10.510990
v -0.682446 1.717678 10.510990
v -0.682446 1.717678 9.944386
v -0.029702 1.717678 9.944386
v 0.623046 1.717678 9.944386
v 1.275794 1.717678 9.944386
v 1.275790 2.396695 10.510990
v 0.623046 2.396695 10.510990
v -0.029702 2.396695 10.510990
v -0.682446 2.396695 10.510990
v -0.682446 1.717678 9.539661
v -0.029702 1.717678 9.539661
v 0.623046 1.717678 9.539661
v 1.275794 1.717678 9.539661
v -0.682446 2.396695 9.539661
v -0.029702 2.396695 9.539661
v 0.623046 2.396695 9.539661
v 1.275790 2.396695 9.539661
v -1.661565 -4.223722 10.510990
v -1.661565 -4.223722 9.944386
v -1.335191 -4.223722 9.337299
v -1.661565 -4.223722 9.337299
v 2.339942 -4.223722 9.944386
v 2.339942 -4.223722 10.510990
v 1.928540 -4.223722 9.337299
v 2.339942 -4.223722 9.337299
v 1.928540 -5.110145 10.510990
v -1.335191 -5.110145 10.510990
v 1.928540 -5.110145 9.944386
v -1.335191 -5.110145 9.944386
v -1.335191 -4.223722 10.510990
v -1.335191 -4.223722 9.944386
v 1.928540 -4.223722 9.944386
v 1.928540 -4.223722 10.510990
v 1.928538 3.311502 9.944386
v 1.275790 3.311502 9.944386
v 1.275790 3.311502 10.510990
v 1.928538 3.311502 10.510990
v 2.339940 3.311502 9.944386
v 2.339940 3.311502 10.510990
v -1.335191 3.311502 9.539661
v -0.682446 3.311502 9.539661
v 1.928538 3.311502 9.539661
v 2.339940 3.311502 9.539661
v 1.275790 3.311502 9.539661
v -1.661565 3.311502 10.510990
v -1.661565 3.311502 9.944386
v -1.335191 3.311502 9.944386
v -1.335191 3.311502 9.539661
v -1.335191 3.311502 10.510990
v -1.661565 3.311502 9.539661
v -0.682446 3.311502 9.944386
v -0.029702 3.311502 9.944386
v -0.029702 3.311502 9.539661
v 0.623046 3.311502 9.944386
v 0.623046 3.311502 9.539661
v -0.682446 3.311502 10.510990
v -0.029702 3.311502 10.510990
v 0.623046 3.311502 10.510990
v 6.844781 -5.113209 -9.605900
v 6.844781 2.636792 -10.005894
v 6.844783 -5.113209 -6.005894
v 6.844783 2.636790 -6.005894
v 5.884781 -5.113209 -9.559151
v 6.284781 2.636792 -9.959148
v 5.884781 -5.113209 -6.005894
v 6.284781 2.636790 -6.005894
v 6.844781 -0.738209 -10.005894
v 6.844783 -0.738210 -6.005894
v 6.284781 -0.738210 -6.005894
v 6.284781 -0.738209 -9.959148
v 6.844783 -3.425710 -6.005894
v 6.284781 -3.425710 -6.005894
v 6.284781 -3.425708 -9.959148
v 6.844781 -3.425708 -10.005894
v 6.844781 3.311793 -10.005894
v 6.844783 3.311790 -6.005894
v 6.284781 3.311790 -6.005894
v 6.284781 3.311793 -10.005894
v 5.884781 2.636790 -6.005894
v 5.884781 2.636792 -10.005894
v 5.884781 3.311790 -6.005894
v 5.884781 3.311793 -10.005894
v 6.844781 -0.738209 -10.508160
v 6.844781 2.636792 -10.508160
v 6.284781 -3.425708 -10.508160
v 5.884780 -5.113209 -10.508160
v 6.844781 -5.113209 -10.508160
v 6.284781 2.636792 -10.508160
v 6.844781 -3.425708 -10.508160
v 6.284781 -0.738209 -10.508160
v 6.284781 3.311793 -10.508160
v 6.844781 3.311793 -10.508160
v 5.884780 2.636792 -10.508160
v 5.884780 3.311793 -10.508160
v 2.339807 -3.425708 -9.959148
v 2.339807 -5.113209 -9.559151
v 2.339807 2.636792 -10.508160
v 2.339807 2.636792 -10.005894
v 2.339807 2.636792 -9.959148
v 2.339807 -0.738209 -9.959148
v 2.339807 3.311793 -10.508160
v 2.339807 3.311793 -10.005894
v 2.339807 -3.425708 -10.508160
v 2.339807 -5.113209 -10.508160
v 2.339807 2.636792 -10.508160
v 2.339807 -0.738209 -10.508160
v 5.884781 2.636792 -9.559147
v 5.884781 3.311793 -9.559147
v 2.339807 2.636792 -9.559147
v 2.339807 3.311793 -9.559147
v 5.938119 -5.113209 10.500774
v 6.338115 2.636792 10.500774
v 2.338117 -5.113209 10.500774
v 2.338115 2.636790 10.500774
v 5.891372 -5.113209 9.540775
v 6.291369 2.636792 9.940769
v 2.338117 -5.113209 9.540775
v 2.338115 2.636790 9.940769
v 6.338117 -0.738209 10.500774
v 2.338117 -0.738210 10.500774
v 2.338117 -0.738210 9.940769
v 6.291369 -0.738209 9.940769
v 2.338117 -3.425710 10.500774
v 2.338117 -3.425710 9.940769
v 6.291369 -3.425708 9.940769
v 6.338117 -3.425708 10.500774
v 6.338115 3.311793 10.500774
v 2.338115 3.311790 10.500774
v 2.338115 3.311790 9.940769
v 6.338115 3.311793 9.940769
v 2.338115 2.636790 9.540775
v 6.338115 2.636792 9.540775
v 2.338115 3.311790 9.540775
v 6.338115 3.311793 9.540775
v 6.840383 -0.738209 10.500774
v 6.840381 2.636792 10.500774
v 6.840383 -3.425708 9.940769
v 6.840383 -5.113209 9.540775
v 6.840383 -5.113209 10.500774
v 6.840381 2.636792 9.940769
v 6.840383 -3.425708 10.500774
v 6.840383 -0.738209 9.940769
v 6.840381 3.311793 9.940769
v 6.840381 3.311793 10.500774
v 6.840381 2.636792 9.540775
v 6.840381 3.311793 9.540775
v 6.291369 -3.425708 5.995800
v 5.891372 -5.113209 5.995800
v 6.840381 2.636792 5.995800
v 6.338115 2.636792 5.995800
v 6.291369 2.636792 5.995800
v 6.291369 -0.738209 5.995800
v 6.840381 3.311793 5.995800
v 6.338115 3.311793 5.995800
v 6.840383 -3.425708 5.995800
v 6.840383 -5.113209 5.995800
v 6.840381 2.636792 5.995800
v 6.840383 -0.738209 5.995800
v 5.891370 2.636792 9.540775
v 5.891370 3.311793 9.540775
v 5.891370 2.636792 5.995800
v 5.891370 3.311793 5.995800
v 6.964780 -5.113213 -6.005894
v 6.844781 2.636790 -6.005894
v 6.964782 -5.113214 -2.005894
v 6.844781 2.636790 -2.005894
v 5.886805 -5.113213 -6.005894
v 6.284781 2.636790 -6.005894
v 5.886806 -5.113214 -2.005894
v 6.284781 2.636790 -2.005894
v 6.844781 -0.738208 -6.005894
v 6.844781 -0.738209 -2.005894
v 6.284781 -0.738209 -2.005894
v 6.284781 -0.738208 -6.005894
v 6.844781 -3.425711 -2.005894
v 6.284781 -3.425711 -2.005894
v 6.284781 -3.425709 -6.005894
v 6.844781 -3.425709 -6.005894
v 6.844781 3.311791 -6.005894
v 6.844781 3.311791 -2.005894
v 6.284781 3.311791 -2.005894
v 6.284781 3.311791 -6.005894
v 5.884781 2.636790 -2.005894
v 5.884781 2.636790 -6.005894
v 5.884781 3.311791 -2.005894
v 5.884781 3.311791 -6.005894
v 6.964782 -5.113213 1.994106
v 6.844781 2.636790 1.994106
v 6.964782 -5.113214 5.994106
v 6.844783 2.636790 5.994106
v 5.886806 -5.113213 1.994106
v 6.284781 2.636790 1.994106
v 5.886806 -5.113214 5.994106
v 6.284782 2.636790 5.994106
v 6.844781 -0.738208 1.994106
v 6.844783 -0.738209 5.994106
v 6.284782 -0.738209 5.994106
v 6.284781 -0.738208 1.994106
v 6.844783 -3.425711 5.994106
v 6.284782 -3.425711 5.994106
v 6.284781 -3.425709 1.994106
v 6.844781 -3.425709 1.994106
v 6.844781 3.311791 1.994106
v 6.844783 3.311791 5.994106
v 6.284782 3.311791 5.994106
v 6.284781 3.311791 1.994106
v 5.884782 2.636790 5.994106
v 5.884782 2.636790 1.994106
v 5.884782 3.311791 5.994106
v 5.884782 3.311791 1.994106
v 6.854997 1.717678 -1.596317
v 6.854997 1.717678 1.667412
v 6.288389 1.717678 -1.596317
v 6.288390 1.717678 1.667412
v 6.854997 -1.677408 -1.596317
v 6.854997 -1.677408 1.667412
v 6.288390 -1.677408 1.667412
v 6.288389 -1.677408 -1.596317
v 6.854997 -3.374950 1.667412
v 6.288390 -3.374950 1.667412
v 6.288389 -3.374950 -1.596317
v 6.854997 -3.374950 -1.596317
v 6.854997 -1.677408 -2.007721
v 6.854997 1.717678 -2.007717
v 6.288389 -3.374950 -2.007721
v 6.288389 -5.110145 -2.007721
v 6.854997 -5.110145 -2.007721
v 6.288389 1.717678 -2.007717
v 6.854997 -3.374950 -2.007721
v 6.288389 -1.677408 -2.007721
v 6.854997 2.396695 -1.596317
v 6.854997 2.396695 1.667412
v 6.288389 2.396695 -2.007717
v 6.854997 2.396695 -2.007717
v 5.883671 1.717678 1.667412
v 5.883670 1.717678 -1.596317
v 5.883670 2.396695 -1.596317
v 5.883670 -1.677408 -1.596317
v 5.883670 -3.374950 -1.596317
v 5.883670 1.717678 -2.007717
v 5.883670 -1.677408 -2.007721
v 5.883670 -3.374950 -2.007721
v 5.883671 2.396695 1.667412
v 5.883670 2.396695 -2.007717
v 5.883670 -3.374950 -1.596317
v 5.478951 -5.110145 -1.596317
v 5.883670 -3.374950 -2.007721
v 5.478951 -5.110145 -2.007721
v 6.854997 -3.374950 1.993786
v 6.854997 -5.110145 1.993786
v 6.288390 -5.110145 1.993786
v 6.854997 1.717678 1.993786
v 6.288390 1.717678 1.993786
v 6.288390 -3.374950 1.993786
v 6.854997 -1.677408 1.993786
v 6.288390 -1.677408 1.993786
v 6.854997 2.396695 1.993786
v 6.288390 2.396695 1.993786
v 5.478951 -5.110145 1.667412
v 5.478951 -5.110145 1.993786
v 5.883671 -3.374950 1.667412
v 5.883671 1.717678 1.667412
v 5.883671 -1.677408 1.667412
v 5.883671 2.396695 1.993786
v 5.883671 2.396695 1.667412
v 5.883671 1.717678 1.993786
v 5.883671 -3.374950 1.993786
v 5.883671 -1.677408 1.993786
v 6.854997 0.020135 -1.596317
v 6.288389 0.020135 -1.596317
v 6.854997 0.020135 -2.007717
v 6.288389 0.020135 -2.007717
v 5.883670 0.020135 -1.596317
v 5.883670 0.020135 -2.007717
v 6.854997 0.020135 1.667412
v 6.288390 0.020135 1.667412
v 6.854997 0.020135 1.993786
v 6.288390 0.020135 1.993786
v 5.883671 0.020135 1.667412
v 5.883671 0.020135 1.993786
v 6.854997 1.717678 -0.943573
v 6.854997 1.717678 -0.290825
v 6.854997 1.717678 0.361923
v 6.854997 1.717678 1.014668
v 6.288390 1.717678 1.014668
v 6.288389 1.717678 0.361923
v 6.288389 1.717678 -0.290825
v 6.288389 1.717678 -0.943573
v 6.854997 2.396695 -0.943569
v 6.854997 2.396695 -0.290825
v 6.854997 2.396695 0.361923
v 6.854997 2.396695 1.014668
v 5.883671 1.717678 1.014668
v 5.883671 1.717678 0.361923
v 5.883671 1.717678 -0.290825
v 5.883671 1.717678 -0.943573
v 5.883671 2.396695 1.014668
v 5.883671 2.396695 0.361923
v 5.883671 2.396695 -0.290825
v 5.883671 2.396695 -0.943569
v 6.854997 -4.223722 1.993786
v 6.288390 -4.223722 1.993786
v 5.681312 -4.223722 1.667412
v 5.681312 -4.223722 1.993786
v 6.288389 -4.223722 -2.007721
v 6.854997 -4.223722 -2.007721
v 5.681311 -4.223722 -1.596317
v 5.681311 -4.223722 -2.007721
v 6.854997 -5.110145 -1.596317
v 6.854997 -5.110145 1.667412
v 6.288389 -5.110145 -1.596317
v 6.288390 -5.110145 1.667412
v 6.854997 -4.223722 1.667412
v 6.288390 -4.223722 1.667412
v 6.288389 -4.223722 -1.596317
v 6.854997 -4.223722 -1.596317
v 6.288389 3.311502 -1.596317
v 6.288389 3.311502 -0.943569
v 6.854997 3.311502 -0.943569
v 6.854997 3.311502 -1.596317
v 6.288389 3.311502 -2.007717
v 6.854997 3.311502 -2.007717
v 5.883671 3.311502 1.667412
v 5.883671 3.311502 1.014668
v 5.883670 3.311502 -1.596317
v 5.883670 3.311502 -2.007717
v 5.883671 3.311502 -0.943569
v 6.854997 3.311502 1.993786
v 6.288390 3.311502 1.993786
v 6.288390 3.311502 1.667412
v 5.883671 3.311502 1.667412
v 6.854997 3.311502 1.667412
v 5.883671 3.311502 1.993786
v 6.288390 3.311502 1.014668
v 6.288389 3.311502 0.361923
v 5.883671 3.311502 0.361923
v 6.288389 3.311502 -0.290825
v 5.883671 3.311502 -0.290825
v 6.854997 3.311502 1.014668
v 6.854997 3.311502 0.361923
v 6.854997 3.311502 -0.290825
vn -1.0000 -0.0000 -0.0000
vn -0.0000 -0.0000 -1.0000
vn 1.0000 -0.0000 -0.0000
vn -0.0000 -0.0000 1.0000
vn -0.0000 -1.0000 -0.0000
vn -0.9994 0.0355 -0.0000
vn -0.9975 0.0709 -0.0000
vn 0.9733 0.2295 -0.0000
vn -0.0000 1.0000 -0.0000
vn 0.9730 0.2306 -0.0000
vn -0.0000 0.2306 -0.9730
vn -0.0000 0.2306 0.9730
vn -0.0000 0.0355 -0.9994
vn -0.0000 0.0709 -0.9975
vn -0.0000 0.2295 0.9733
vn -0.0000 0.0355 0.9994
vn -0.0000 0.0709 0.9975
vn -0.0000 0.2295 -0.9733
vn -0.0000 0.2319 0.9727
vn -0.0000 0.2226 0.9749
vn -0.0000 0.2319 -0.9727
vn -0.0000 0.2226 -0.9749
vn -0.9730 0.2306 -0.0000
vn 0.9994 0.0355 -0.0000
vn 0.9975 0.0709 -0.0000
vn -0.9733 0.2295 -0.0000
vn -0.9727 0.2319 -0.0000
vn -0.9749 0.2226 -0.0000
vt 0.589333 0.584291
vt 0.589333 0.480776
vt 0.796364 0.480776
vt 0.796364 0.584291
vt 0.159273 0.389964
vt 0.055758 0.389964
vt 0.055758 0.182933
vt 0.159273 0.182933
vt 0.692848 0.964945
vt 0.589333 0.964945
vt 0.589333 0.757915
vt 0.692848 0.757915
vt 0.457115 0.242085
vt 0.353600 0.242085
vt 0.353600 0.035055
vt 0.457115 0.035055
vt 0.242085 0.460073
vt 0.242085 0.814982
vt 0.035054 0.814982
vt 0.035055 0.460073
vt 0.332897 0.242085
vt 0.332897 0.035055
vt 0.508873 0.242085
vt 0.508873 0.035055
vt 0.744606 0.964945
vt 0.744606 0.757915
vt 0.211030 0.389964
vt 0.211030 0.182933
vt 0.589333 0.636048
vt 0.796364 0.636048
vt 0.589333 0.687806
vt 0.796364 0.687806
vt 0.262788 0.389964
vt 0.262788 0.035055
vt 0.787414 0.242085
vt 0.630739 0.242085
vt 0.630739 0.035055
vt 0.787414 0.035055
vt 0.560630 0.389964
vt 0.560630 0.035055
vt 0.519224 0.607952
vt 0.519224 0.814982
vt 0.312194 0.814982
vt 0.312194 0.607952
vt 0.035054 0.389964
vt 0.035055 0.182933
vt 0.353600 0.389964
vt 0.332897 0.389964
vt 0.589333 0.460073
vt 0.796364 0.460073
vt 0.878226 0.035055
vt 0.878226 0.242085
vt 0.857523 0.242085
vt 0.857523 0.035055
vt 0.560630 0.242085
vt 0.312194 0.460073
vt 0.519224 0.460073
vt 0.035055 0.035055
vt 0.055758 0.035055
vt 0.921976 0.132476
vt 0.867524 0.132476
vt 0.867524 0.023572
vt 0.921976 0.023572
vt 0.805908 0.957508
vt 0.751456 0.957508
vt 0.751456 0.848603
vt 0.805908 0.848603
vt 0.589729 0.910365
vt 0.535277 0.910365
vt 0.535277 0.801460
vt 0.589729 0.801460
vt 0.116140 0.132476
vt 0.143367 0.210265
vt 0.143367 0.910365
vt 0.116140 0.910365
vt 0.310305 0.023572
vt 0.310305 0.210265
vt 0.212291 0.210265
vt 0.201401 0.023572
vt 0.921976 0.143367
vt 0.867524 0.143367
vt 0.907504 0.770815
vt 0.918394 0.770815
vt 0.918394 0.868829
vt 0.907504 0.868829
vt 0.616955 0.910365
vt 0.616955 0.801460
vt 0.833134 0.957508
vt 0.833134 0.848603
vt 0.949202 0.132476
vt 0.949202 0.023572
vt 0.976428 0.132476
vt 0.976428 0.023572
vt 0.860360 0.957508
vt 0.860360 0.770815
vt 0.939049 0.299414
vt 0.856633 0.299414
vt 0.856633 0.190510
vt 0.939049 0.201400
vt 0.368339 0.801460
vt 0.368339 0.910365
vt 0.357448 0.910365
vt 0.357448 0.801460
vt 0.477243 0.801460
vt 0.477243 0.910365
vt 0.740566 0.957508
vt 0.740566 0.848603
vt 0.368339 0.723671
vt 0.357448 0.723671
vt 0.856633 0.132476
vt 0.856633 0.023572
vt 0.934422 0.346558
vt 0.934422 0.455462
vt 0.856633 0.455462
vt 0.856633 0.346558
vt 0.477243 0.723671
vt 0.740566 0.770815
vt 0.751456 0.770815
vt 0.088914 0.132476
vt 0.034462 0.132476
vt 0.034462 0.023572
vt 0.088914 0.023572
vt 0.023572 0.132476
vt 0.023572 0.023572
vt 0.116141 0.023572
vt 0.143367 0.023572
vt 0.034462 0.210265
vt 0.023572 0.210265
vt 0.524387 0.801460
vt 0.524387 0.023572
vt 0.535277 0.023572
vt 0.949202 0.143367
vt 0.740566 0.723671
vt 0.740566 0.023572
vt 0.751456 0.023572
vt 0.751456 0.723671
vt 0.856633 0.143367
vt 0.976428 0.143367
vt 0.190510 0.210265
vt 0.190510 0.023572
vt 0.867524 0.557058
vt 0.867524 0.502606
vt 0.878414 0.502606
vt 0.878414 0.557058
vt 0.867524 0.669544
vt 0.856634 0.669544
vt 0.856634 0.658653
vt 0.867524 0.658653
vt 0.867524 0.584284
vt 0.878414 0.584284
vt 0.856633 0.611510
vt 0.878414 0.611510
vt 0.212291 0.910365
vt 0.190510 0.910365
vt 0.088914 0.910365
vt 0.034462 0.910365
vt 0.589729 0.023572
vt 0.616955 0.023572
vt 0.693422 0.723671
vt 0.664099 0.801460
vt 0.664099 0.023572
vt 0.693422 0.023572
vt 0.023572 0.910365
vt 0.357448 0.023572
vt 0.368339 0.023572
vt 0.809490 0.723671
vt 0.798600 0.723671
vt 0.798600 0.023572
vt 0.809490 0.023572
vt 0.379229 0.023572
vt 0.379229 0.723671
vt 0.867524 0.680434
vt 0.856634 0.680434
vt 0.460335 0.399182
vt 0.460335 0.348576
vt 0.500820 0.348576
vt 0.500820 0.399182
vt 0.055486 0.146151
vt 0.055486 0.247363
vt 0.004453 0.247363
vt 0.004453 0.146151
vt 0.610939 0.085423
vt 0.509727 0.085423
vt 0.509727 0.044938
vt 0.610939 0.044938
vt 0.055486 0.348576
vt 0.004453 0.348576
vt 0.460335 0.146151
vt 0.460335 0.044938
vt 0.500820 0.044938
vt 0.500820 0.146151
vt 0.863971 0.686220
vt 0.813364 0.686220
vt 0.813364 0.645735
vt 0.863971 0.625493
vt 0.055486 0.399182
vt 0.055486 0.449788
vt 0.004453 0.449788
vt 0.004453 0.399182
vt 0.610939 0.515374
vt 0.509727 0.515374
vt 0.509727 0.458695
vt 0.610939 0.458695
vt 0.813364 0.515374
vt 0.712152 0.515374
vt 0.712152 0.458695
vt 0.813364 0.458695
vt 0.863970 0.515374
vt 0.863970 0.458695
vt 0.647376 0.308112
vt 0.590697 0.308112
vt 0.590697 0.257080
vt 0.647376 0.257080
vt 0.833607 0.207688
vt 0.914577 0.207688
vt 0.914577 0.248173
vt 0.833607 0.248173
vt 0.813364 0.555859
vt 0.712152 0.555859
vt 0.055486 0.004453
vt 0.004453 0.004453
vt 0.379365 0.004453
vt 0.298396 0.004453
vt 0.055486 0.044938
vt 0.004453 0.044938
vt 0.136456 0.044938
vt 0.136456 0.004453
vt 0.469242 0.515374
vt 0.469242 0.458695
vt 0.449788 0.867572
vt 0.490273 0.867572
vt 0.490273 0.948542
vt 0.449788 0.948542
vt 0.085423 0.499082
vt 0.004453 0.499082
vt 0.004453 0.458695
vt 0.085423 0.458695
vt 0.409303 0.600050
vt 0.409303 0.499082
vt 0.460335 0.499082
vt 0.460335 0.600050
vt 0.409303 0.801986
vt 0.409303 0.701018
vt 0.460335 0.701018
vt 0.460335 0.801986
vt 0.409303 0.458695
vt 0.460335 0.458695
vt 0.813364 0.085423
vt 0.712152 0.085423
vt 0.712152 0.044938
vt 0.813364 0.044938
vt 0.328333 0.458695
vt 0.610939 0.555859
vt 0.500820 0.004453
vt 0.460335 0.004453
vt 0.509727 0.555859
vt 0.469242 0.555859
vt 0.561617 0.368051
vt 0.509727 0.368051
vt 0.509727 0.317019
vt 0.561617 0.317019
vt 0.863970 0.085423
vt 0.863970 0.024696
vt 0.914577 0.515374
vt 0.914577 0.596344
vt 0.863970 0.576101
vt 0.509727 0.308112
vt 0.509727 0.257080
vt 0.610939 0.742899
vt 0.509727 0.742899
vt 0.509727 0.686220
vt 0.610939 0.686220
vt 0.813364 0.742899
vt 0.712152 0.742899
vt 0.712152 0.686220
vt 0.863971 0.742899
vt 0.469242 0.742899
vt 0.469242 0.686220
vt 0.460335 0.247363
vt 0.500820 0.247363
vt 0.449788 0.810893
vt 0.490273 0.810893
vt 0.864423 0.751806
vt 0.916313 0.751806
vt 0.916313 0.792291
vt 0.864423 0.792291
vt 0.469242 0.751806
vt 0.509629 0.751806
vt 0.509629 0.792291
vt 0.469242 0.792291
vt 0.610598 0.751806
vt 0.711566 0.751806
vt 0.711566 0.792291
vt 0.610598 0.792291
vt 0.812534 0.751806
vt 0.812534 0.792291
vt 0.399182 0.867572
vt 0.399182 0.928300
vt 0.469242 0.645735
vt 0.509727 0.645735
vt 0.712152 0.645735
vt 0.146151 0.867572
vt 0.247363 0.867572
vt 0.247363 0.908057
vt 0.146151 0.908057
vt 0.348576 0.867572
vt 0.348576 0.908057
vt 0.610939 0.645735
vt 0.833607 0.151009
vt 0.914577 0.151009
vt 0.146151 0.810893
vt 0.044938 0.867572
vt 0.044938 0.810893
vt 0.348576 0.810893
vt 0.247363 0.810893
vt 0.399182 0.810893
vt 0.610939 0.142102
vt 0.509727 0.142102
vt 0.813364 0.142102
vt 0.712152 0.142102
vt 0.044938 0.908057
vt 0.509727 0.151009
vt 0.590697 0.151009
vt 0.590697 0.207688
vt 0.509727 0.207688
vt 0.671667 0.151009
vt 0.671667 0.207688
vt 0.752637 0.151009
vt 0.752637 0.207688
vt 0.166393 0.458695
vt 0.328333 0.499082
vt 0.247363 0.499082
vt 0.247363 0.458695
vt 0.166393 0.499082
vt 0.379365 0.044938
vt 0.298396 0.044938
vt 0.217426 0.044938
vt 0.217426 0.004453
vt 0.590697 0.248173
vt 0.509727 0.248173
vt 0.671667 0.248173
vt 0.752637 0.248173
vt 0.914577 0.742899
vt 0.914577 0.686220
vt 0.914577 0.605250
vt 0.460335 0.449788
vt 0.500820 0.449788
vt 0.863970 0.142102
vt 0.914577 0.085423
vt 0.914577 0.004453
vt 0.613506 0.368051
vt 0.613506 0.317019
vt 0.914577 0.458695
vt 0.914577 0.142102
vt 0.631182 0.851378
vt 0.631182 0.908057
vt 0.550212 0.908057
vt 0.550212 0.851378
vt 0.499180 0.908057
vt 0.499180 0.851378
vt 0.550212 0.810893
vt 0.631182 0.810893
vt 0.499180 0.810893
vt 0.995547 0.851378
vt 0.955062 0.851378
vt 0.955062 0.810893
vt 0.995547 0.810893
vt 0.955062 0.908057
vt 0.995547 0.908057
vt 0.874092 0.851378
vt 0.874092 0.810893
vt 0.793122 0.851378
vt 0.793122 0.810893
vt 0.712152 0.851378
vt 0.712152 0.810893
vt 0.874092 0.908057
vt 0.793122 0.908057
vt 0.712152 0.908057
s 1
usemtl Wall
f 9/1/1 2/2/1 4/3/1 10/4/1
f 10/5/2 4/6/2 8/7/2 11/8/2
f 11/9/3 8/10/3 6/11/3 12/12/3
f 12/13/4 6/14/4 2/15/4 9/16/4
f 3/17/5 7/18/5 5/19/5 1/20/5
f 2/15/4 6/14/4 20/21/4 17/22/4
f 15/23/4 12/13/4 9/16/4 16/24/4
f 14/25/3 11/9/3 12/12/3 15/26/3
f 13/27/2 10/5/2 11/8/2 14/28/2
f 16/29/6 9/1/1 10/4/1 13/30/6
f 1/31/7 16/29/6 13/30/6 3/32/7
f 3/33/2 13/27/2 14/28/2 7/34/2
f 7/35/8 14/36/8 15/37/8 5/38/8
f 5/39/4 15/23/4 16/24/4 1/40/4
f 19/41/9 18/42/9 17/43/9 20/44/9
f 8/7/2 4/6/2 18/45/2 19/46/2
f 20/21/4 6/14/4 22/47/4 24/48/4
f 4/3/1 2/2/1 17/49/1 18/50/1
f 22/51/3 21/52/3 23/53/3 24/54/3
f 6/14/5 8/55/5 21/39/5 22/47/5
f 19/41/9 20/44/9 24/56/9 23/57/9
f 8/7/2 19/46/2 23/58/2 21/59/2
f 85/1/1 78/2/1 80/3/1 86/4/1
f 86/5/2 80/6/2 84/7/2 87/8/2
f 87/9/3 84/10/3 82/11/3 88/12/3
f 88/13/4 82/14/4 78/15/4 85/16/4
f 79/17/5 83/18/5 81/19/5 77/20/5
f 78/15/4 82/14/4 96/21/4 93/22/4
f 91/23/4 88/13/4 85/16/4 92/24/4
f 90/25/3 87/9/3 88/12/3 91/26/3
f 89/27/2 86/5/2 87/8/2 90/28/2
f 92/29/6 85/1/1 86/4/1 89/30/6
f 77/31/7 92/29/6 89/30/6 79/32/7
f 79/33/2 89/27/2 90/28/2 83/34/2
f 83/35/8 90/36/8 91/37/8 81/38/8
f 81/39/4 91/23/4 92/24/4 77/40/4
f 95/41/9 94/42/9 93/43/9 96/44/9
f 84/7/2 80/6/2 94/45/2 95/46/2
f 96/21/4 82/14/4 98/47/4 100/48/4
f 80/3/1 78/2/1 93/49/1 94/50/1
f 98/51/3 97/52/3 99/53/3 100/54/3
f 82/14/5 84/55/5 97/39/5 98/47/5
f 95/41/9 96/44/9 100/56/9 99/57/9
f 84/7/2 95/46/2 99/58/2 97/59/2
f 109/1/1 102/2/1 104/3/1 110/4/1
f 110/5/2 104/6/2 108/7/2 111/8/2
f 111/9/3 108/10/3 106/11/3 112/12/3
f 112/13/4 106/14/4 102/15/4 109/16/4
f 103/17/5 107/18/5 105/19/5 101/20/5
f 102/15/4 106/14/4 120/21/4 117/22/4
f 115/23/4 112/13/4 109/16/4 116/24/4
f 114/25/3 111/9/3 112/12/3 115/26/3
f 113/27/2 110/5/2 111/8/2 114/28/2
f 116/29/6 109/1/1 110/4/1 113/30/6
f 101/31/7 116/29/6 113/30/6 103/32/7
f 103/33/2 113/27/2 114/28/2 107/34/2
f 107/35/8 114/36/8 115/37/8 105/38/8
f 105/39/4 115/23/4 116/24/4 101/40/4
f 119/41/9 118/42/9 117/43/9 120/44/9
f 108/7/2 104/6/2 118/45/2 119/46/2
f 120/21/4 106/14/4 122/47/4 124/48/4
f 104/3/1 102/2/1 117/49/1 118/50/1
f 122/51/3 121/52/3 123/53/3 124/54/3
f 106/14/5 108/55/5 121/39/5 122/47/5
f 119/41/9 120/44/9 124/56/9 123/57/9
f 108/7/2 119/46/2 123/58/2 121/59/2
f 185/1/2 178/2/2 180/3/2 186/4/2
f 186/5/3 180/6/3 184/7/3 187/8/3
f 187/9/4 184/10/4 182/11/4 188/12/4
f 188/13/1 182/14/1 178/15/1 185/16/1
f 179/17/5 183/18/5 181/19/5 177/20/5
f 178/15/1 182/14/1 196/21/1 193/22/1
f 191/23/1 188/13/1 185/16/1 192/24/1
f 190/25/4 187/9/4 188/12/4 191/26/4
f 189/27/3 186/5/3 187/8/3 190/28/3
f 192/29/13 185/1/2 186/4/2 189/30/13
f 177/31/14 192/29/13 189/30/13 179/32/14
f 179/33/3 189/27/3 190/28/3 183/34/3
f 183/35/15 190/36/15 191/37/15 181/38/15
f 181/39/1 191/23/1 192/24/1 177/40/1
f 195/41/9 194/42/9 193/43/9 196/44/9
f 184/7/3 180/6/3 194/45/3 195/46/3
f 196/21/1 182/14/1 198/47/1 200/48/1
f 180/3/2 178/2/2 193/49/2 194/50/2
f 198/51/4 197/52/4 199/53/4 200/54/4
f 182/14/5 184/55/5 197/39/5 198/47/5
f 195/41/9 196/44/9 200/56/9 199/57/9
f 184/7/3 195/46/3 199/58/3 197/59/3
f 209/1/4 202/2/4 204/3/4 210/4/4
f 210/5/1 204/6/1 208/7/1 211/8/1
f 211/9/2 208/10/2 206/11/2 212/12/2
f 212/13/3 206/14/3 202/15/3 209/16/3
f 203/17/5 207/18/5 205/19/5 201/20/5
f 202/15/3 206/14/3 220/21/3 217/22/3
f 215/23/3 212/13/3 209/16/3 216/24/3
f 214/25/2 211/9/2 212/12/2 215/26/2
f 213/27/1 210/5/1 211/8/1 214/28/1
f 216/29/16 209/1/4 210/4/4 213/30/16
f 201/31/17 216/29/16 213/30/16 203/32/17
f 203/33/1 213/27/1 214/28/1 207/34/1
f 207/35/18 214/36/18 215/37/18 205/38/18
f 205/39/3 215/23/3 216/24/3 201/40/3
f 219/41/9 218/42/9 217/43/9 220/44/9
f 208/7/1 204/6/1 218/45/1 219/46/1
f 220/21/3 206/14/3 222/47/3 224/48/3
f 204/3/4 202/2/4 217/49/4 218/50/4
f 222/51/2 221/52/2 223/53/2 224/54/2
f 206/14/5 208/55/5 221/39/5 222/47/5
f 219/41/9 220/44/9 224/56/9 223/57/9
f 208/7/1 219/46/1 223/58/1 221/59/1
f 599/1/3 592/2/3 594/3/3 600/4/3
f 600/5/4 594/6/4 598/7/4 601/8/4
f 601/9/1 598/10/1 596/11/1 602/12/1
f 602/13/2 596/14/2 592/15/2 599/16/2
f 593/17/5 597/18/5 595/19/5 591/20/5
f 592/15/2 596/14/2 610/21/2 607/22/2
f 605/23/2 602/13/2 599/16/2 606/24/2
f 604/25/1 601/9/1 602/12/1 605/26/1
f 603/27/4 600/5/4 601/8/4 604/28/4
f 606/29/24 599/1/3 600/4/3 603/30/24
f 591/31/25 606/29/24 603/30/24 593/32/25
f 593/33/4 603/27/4 604/28/4 597/34/4
f 597/35/26 604/36/26 605/37/26 595/38/26
f 595/39/2 605/23/2 606/24/2 591/40/2
f 609/41/9 608/42/9 607/43/9 610/44/9
f 598/7/4 594/6/4 608/45/4 609/46/4
f 610/21/2 596/14/2 612/47/2 614/48/2
f 594/3/3 592/2/3 607/49/3 608/50/3
f 612/51/1 611/52/1 613/53/1 614/54/1
f 596/14/5 598/55/5 611/39/5 612/47/5
f 609/41/9 610/44/9 614/56/9 613/57/9
f 598/7/4 609/46/4 613/58/4 611/59/4
f 623/1/3 616/2/3 618/3/3 624/4/3
f 624/5/4 618/6/4 622/7/4 625/8/4
f 625/9/1 622/10/1 620/11/1 626/12/1
f 626/13/2 620/14/2 616/15/2 623/16/2
f 617/17/5 621/18/5 619/19/5 615/20/5
f 616/15/2 620/14/2 634/21/2 631/22/2
f 629/23/2 626/13/2 623/16/2 630/24/2
f 628/25/1 625/9/1 626/12/1 629/26/1
f 627/27/4 624/5/4 625/8/4 628/28/4
f 630/29/24 623/1/3 624/4/3 627/30/24
f 615/31/25 630/29/24 627/30/24 617/32/25
f 617/33/4 627/27/4 628/28/4 621/34/4
f 621/35/26 628/36/26 629/37/26 619/38/26
f 619/39/2 629/23/2 630/24/2 615/40/2
f 633/41/9 632/42/9 631/43/9 634/44/9
f 622/7/4 618/6/4 632/45/4 633/46/4
f 634/21/2 620/14/2 636/47/2 638/48/2
f 618/3/3 616/2/3 631/49/3 632/50/3
f 636/51/1 635/52/1 637/53/1 638/54/1
f 620/14/5 622/55/5 635/39/5 636/47/5
f 633/41/9 634/44/9 638/56/9 637/57/9
f 622/7/4 633/46/4 637/58/4 635/59/4
usemtl corners
f 33/60/1 26/61/1 28/62/1 34/63/1
f 34/64/2 28/65/2 32/66/2 35/67/2
f 35/68/3 32/69/3 30/70/3 36/71/3
f 51/72/4 52/73/4 70/74/4 69/75/4
f 27/76/5 31/77/5 29/78/5 25/79/5
f 26/61/1 33/60/1 49/80/1 50/81/1
f 74/82/3 73/83/3 45/84/3 47/85/3
f 38/86/3 35/68/3 36/71/3 39/87/3
f 37/88/2 34/64/2 35/67/2 38/89/2
f 40/90/1 33/60/1 34/63/1 37/91/1
f 25/92/1 40/90/1 37/91/1 27/93/1
f 27/94/2 37/88/2 38/89/2 31/95/2
f 31/96/10 38/97/10 39/98/10 29/99/10
f 44/100/9 41/101/9 58/102/9 57/103/9
f 43/104/9 42/105/9 41/101/9 44/100/9
f 32/66/2 28/65/2 42/106/2 43/107/2
f 48/108/9 44/100/9 57/103/9 60/109/9
f 28/62/1 26/61/1 41/110/1 42/111/1
f 30/112/5 32/113/5 45/114/5 46/115/5
f 43/104/9 44/100/9 48/108/9 47/116/9
f 32/66/2 43/107/2 47/117/2 45/118/2
f 56/119/4 54/120/4 50/121/4 49/122/4
f 50/121/4 54/120/4 57/123/4 58/124/4
f 51/72/4 56/119/4 49/122/4 55/125/4
f 52/73/4 51/72/4 55/125/4 53/126/4
f 57/123/4 54/120/4 59/127/4 60/128/4
f 30/70/9 54/129/9 71/130/9 65/131/9
f 33/60/1 40/90/1 55/132/1 49/80/1
f 64/133/5 46/134/5 73/135/5 75/136/5
f 41/110/1 26/61/1 50/81/1 58/137/1
f 40/90/1 25/92/1 53/138/1 55/132/1
f 25/79/5 29/78/5 52/139/5 53/140/5
f 66/141/3 65/142/3 71/143/3 72/144/3
f 64/145/3 68/146/3 67/147/3 63/148/3
f 61/149/3 66/141/3 72/144/3 69/150/3
f 62/151/3 61/149/3 69/150/3 70/152/3
f 52/139/5 29/78/5 62/153/5 70/154/5
f 54/120/4 56/119/4 72/155/4 71/156/4
f 36/71/2 30/70/2 65/131/2 66/157/2
f 39/87/2 36/71/2 66/157/2 61/158/2
f 29/159/11 39/160/11 61/161/11 62/162/11
f 60/128/4 59/127/4 63/156/4 67/163/4
f 48/108/9 60/109/9 67/164/9 68/165/9
f 56/119/4 51/72/4 69/75/4 72/155/4
f 73/166/2 74/167/2 76/168/2 75/169/2
f 48/108/9 68/165/9 76/170/9 74/171/9
f 68/146/3 64/145/3 75/172/3 76/173/3
f 133/60/2 126/61/2 128/62/2 134/63/2
f 134/64/3 128/65/3 132/66/3 135/67/3
f 135/68/4 132/69/4 130/70/4 136/71/4
f 151/72/1 152/73/1 170/74/1 169/75/1
f 127/76/5 131/77/5 129/78/5 125/79/5
f 126/61/2 133/60/2 149/80/2 150/81/2
f 174/82/4 173/83/4 145/84/4 147/85/4
f 138/86/4 135/68/4 136/71/4 139/87/4
f 137/88/3 134/64/3 135/67/3 138/89/3
f 140/90/2 133/60/2 134/63/2 137/91/2
f 125/92/2 140/90/2 137/91/2 127/93/2
f 127/94/3 137/88/3 138/89/3 131/95/3
f 131/96/12 138/97/12 139/98/12 129/99/12
f 144/100/9 141/101/9 158/102/9 157/103/9
f 143/104/9 142/105/9 141/101/9 144/100/9
f 132/66/3 128/65/3 142/106/3 143/107/3
f 148/108/9 144/100/9 157/103/9 160/109/9
f 128/62/2 126/61/2 141/110/2 142/111/2
f 130/112/5 132/113/5 145/114/5 146/115/5
f 143/104/9 144/100/9 148/108/9 147/116/9
f 132/66/3 143/107/3 147/117/3 145/118/3
f 156/119/1 154/120/1 150/121/1 149/122/1
f 150/121/1 154/120/1 157/123/1 158/124/1
f 151/72/1 156/119/1 149/122/1 155/125/1
f 152/73/1 151/72/1 155/125/1 153/126/1
f 157/123/1 154/120/1 159/127/1 160/128/1
f 130/70/9 154/129/9 171/130/9 165/131/9
f 133/60/2 140/90/2 155/132/2 149/80/2
f 164/133/5 146/134/5 173/135/5 175/136/5
f 141/110/2 126/61/2 150/81/2 158/137/2
f 140/90/2 125/92/2 153/138/2 155/132/2
f 125/79/5 129/78/5 152/139/5 153/140/5
f 166/141/4 165/142/4 171/143/4 172/144/4
f 164/145/4 168/146/4 167/147/4 163/148/4
f 161/149/4 166/141/4 172/144/4 169/150/4
f 162/151/4 161/149/4 169/150/4 170/152/4
f 152/139/5 129/78/5 162/153/5 170/154/5
f 154/120/1 156/119/1 172/155/1 171/156/1
f 136/71/3 130/70/3 165/131/3 166/157/3
f 139/87/3 136/71/3 166/157/3 161/158/3
f 129/159/10 139/160/10 161/161/10 162/162/10
f 160/128/1 159/127/1 163/156/1 167/163/1
f 148/108/9 160/109/9 167/164/9 168/165/9
f 156/119/1 151/72/1 169/75/1 172/155/1
f 173/166/3 174/167/3 176/168/3 175/169/3
f 148/108/9 168/165/9 176/170/9 174/171/9
f 168/146/4 164/145/4 175/172/4 176/173/4
f 495/60/3 488/61/3 490/62/3 496/63/3
f 496/64/4 490/65/4 494/66/4 497/67/4
f 497/68/1 494/69/1 492/70/1 498/71/1
f 513/72/2 514/73/2 532/74/2 531/75/2
f 489/76/5 493/77/5 491/78/5 487/79/5
f 488/61/3 495/60/3 511/80/3 512/81/3
f 536/82/1 535/83/1 507/84/1 509/85/1
f 500/86/1 497/68/1 498/71/1 501/87/1
f 499/88/4 496/64/4 497/67/4 500/89/4
f 502/90/3 495/60/3 496/63/3 499/91/3
f 487/92/3 502/90/3 499/91/3 489/93/3
f 489/94/4 499/88/4 500/89/4 493/95/4
f 493/96/23 500/97/23 501/98/23 491/99/23
f 506/100/9 503/101/9 520/102/9 519/103/9
f 505/104/9 504/105/9 503/101/9 506/100/9
f 494/66/4 490/65/4 504/106/4 505/107/4
f 510/108/9 506/100/9 519/103/9 522/109/9
f 490/62/3 488/61/3 503/110/3 504/111/3
f 492/112/5 494/113/5 507/114/5 508/115/5
f 505/104/9 506/100/9 510/108/9 509/116/9
f 494/66/4 505/107/4 509/117/4 507/118/4
f 518/119/2 516/120/2 512/121/2 511/122/2
f 512/121/2 516/120/2 519/123/2 520/124/2
f 513/72/2 518/119/2 511/122/2 517/125/2
f 514/73/2 513/72/2 517/125/2 515/126/2
f 519/123/2 516/120/2 521/127/2 522/128/2
f 492/70/9 516/129/9 533/130/9 527/131/9
f 495/60/3 502/90/3 517/132/3 511/80/3
f 526/133/5 508/134/5 535/135/5 537/136/5
f 503/110/3 488/61/3 512/81/3 520/137/3
f 502/90/3 487/92/3 515/138/3 517/132/3
f 487/79/5 491/78/5 514/139/5 515/140/5
f 528/141/1 527/142/1 533/143/1 534/144/1
f 526/145/1 530/146/1 529/147/1 525/148/1
f 523/149/1 528/141/1 534/144/1 531/150/1
f 524/151/1 523/149/1 531/150/1 532/152/1
f 514/139/5 491/78/5 524/153/5 532/154/5
f 516/120/2 518/119/2 534/155/2 533/156/2
f 498/71/4 492/70/4 527/131/4 528/157/4
f 501/87/4 498/71/4 528/157/4 523/158/4
f 491/159/12 501/160/12 523/161/12 524/162/12
f 522/128/2 521/127/2 525/156/2 529/163/2
f 510/108/9 522/109/9 529/164/9 530/165/9
f 518/119/2 513/72/2 531/75/2 534/155/2
f 535/166/4 536/167/4 538/168/4 537/169/4
f 510/108/9 530/165/9 538/170/9 536/171/9
f 530/146/1 526/145/1 537/172/1 538/173/1
f 547/60/4 540/61/4 542/62/4 548/63/4
f 548/64/1 542/65/1 546/66/1 549/67/1
f 549/68/2 546/69/2 544/70/2 550/71/2
f 565/72/3 566/73/3 584/74/3 583/75/3
f 541/76/5 545/77/5 543/78/5 539/79/5
f 540/61/4 547/60/4 563/80/4 564/81/4
f 588/82/2 587/83/2 559/84/2 561/85/2
f 552/86/2 549/68/2 550/71/2 553/87/2
f 551/88/1 548/64/1 549/67/1 552/89/1
f 554/90/4 547/60/4 548/63/4 551/91/4
f 539/92/4 554/90/4 551/91/4 541/93/4
f 541/94/1 551/88/1 552/89/1 545/95/1
f 545/96/11 552/97/11 553/98/11 543/99/11
f 558/100/9 555/101/9 572/102/9 571/103/9
f 557/104/9 556/105/9 555/101/9 558/100/9
f 546/66/1 542/65/1 556/106/1 557/107/1
f 562/108/9 558/100/9 571/103/9 574/109/9
f 542/62/4 540/61/4 555/110/4 556/111/4
f 544/112/5 546/113/5 559/114/5 560/115/5
f 557/104/9 558/100/9 562/108/9 561/116/9
f 546/66/1 557/107/1 561/117/1 559/118/1
f 570/119/3 568/120/3 564/121/3 563/122/3
f 564/121/3 568/120/3 571/123/3 572/124/3
f 565/72/3 570/119/3 563/122/3 569/125/3
f 566/73/3 565/72/3 569/125/3 567/126/3
f 571/123/3 568/120/3 573/127/3 574/128/3
f 544/70/9 568/129/9 585/130/9 579/131/9
f 547/60/4 554/90/4 569/132/4 563/80/4
f 578/133/5 560/134/5 587/135/5 589/136/5
f 555/110/4 540/61/4 564/81/4 572/137/4
f 554/90/4 539/92/4 567/138/4 569/132/4
f 539/79/5 543/78/5 566/139/5 567/140/5
f 580/141/2 579/142/2 585/143/2 586/144/2
f 578/145/2 582/146/2 581/147/2 577/148/2
f 575/149/2 580/141/2 586/144/2 583/150/2
f 576/151/2 575/149/2 583/150/2 584/152/2
f 566/139/5 543/78/5 576/153/5 584/154/5
f 568/120/3 570/119/3 586/155/3 585/156/3
f 550/71/1 544/70/1 579/131/1 580/157/1
f 553/87/1 550/71/1 580/157/1 575/158/1
f 543/159/23 553/160/23 575/161/23 576/162/23
f 574/128/3 573/127/3 577/156/3 581/163/3
f 562/108/9 574/109/9 581/164/9 582/165/9
f 570/119/3 565/72/3 583/75/3 586/155/3
f 587/166/1 588/167/1 590/168/1 589/169/1
f 562/108/9 582/165/9 590/170/9 588/171/9
f 582/146/2 578/145/2 589/172/2 590/173/2
s 0
usemtl frames
f 327/174/2 233/175/2 263/176/2 315/177/2
f 283/178/2 229/179/2 237/180/2 285/181/2
f 284/182/3 227/183/3 250/184/3 287/185/3
f 229/179/2 236/186/2 243/187/2 237/180/2
f 289/188/2 226/189/2 266/190/2 291/191/2
f 316/192/3 268/193/3 281/194/3 318/195/3
f 330/196/2 323/197/2 241/198/2 320/199/2
f 286/200/1 242/201/1 238/202/1 285/203/1
f 239/204/1 244/205/1 237/206/1 243/207/1
f 319/208/1 239/204/1 243/207/1 320/209/1
f 323/210/5 325/211/5 240/212/5 241/213/5
f 299/214/5 228/215/5 249/216/5 307/217/5
f 244/205/1 239/204/1 256/218/1 255/219/1
f 245/220/2 248/221/2 336/221/2 334/220/2
f 306/222/2 305/223/2 354/223/2 353/222/2
f 225/224/2 238/225/2 248/221/2 245/220/2
f 295/226/2 225/224/2 245/220/2 303/227/2
f 238/202/1 242/201/1 247/228/1 248/229/1
f 326/230/5 265/231/5 274/232/5 273/233/5
f 307/234/4 249/235/4 257/236/4 311/237/4
f 287/238/4 250/239/4 254/240/4 288/241/4
f 253/242/4 252/243/4 255/244/4 256/245/4
f 254/240/4 250/239/4 251/246/4 258/247/4
f 235/248/3 232/249/3 252/250/3 253/251/3
f 251/246/4 314/252/4 341/252/4 339/246/4
f 286/200/1 244/205/1 255/219/1 288/253/1
f 271/254/2 246/255/2 346/255/2 342/254/2
f 247/228/1 242/201/1 254/256/1 258/257/1
f 321/258/19 259/259/19 261/260/19 322/261/19
f 329/262/3 235/248/3 259/251/3 321/263/3
f 319/208/1 240/264/1 262/265/1 322/266/1
f 240/212/5 325/211/5 260/267/5 262/268/5
f 291/269/3 266/270/3 267/271/3 292/272/3
f 263/273/3 269/274/3 270/275/3 268/193/3
f 315/276/3 263/273/3 268/193/3 316/192/3
f 267/271/3 266/270/3 271/277/3 272/278/3
f 233/175/2 230/279/2 269/280/2 263/176/2
f 226/189/2 246/255/2 271/254/2 266/190/2
f 326/230/5 324/281/5 264/282/5 265/231/5
f 311/237/4 257/236/4 337/236/4 338/237/4
f 272/278/3 271/277/3 342/277/3 343/278/3
f 317/283/20 273/284/20 274/285/20 318/286/20
f 279/287/4 276/288/4 280/289/4 278/290/4
f 293/291/4 277/292/4 282/293/4 294/294/4
f 277/292/4 275/295/4 281/296/4 282/293/4
f 328/297/1 326/230/1 273/233/1 317/298/1
f 267/271/3 272/278/3 278/299/3 280/300/3
f 268/193/3 270/275/3 282/301/3 281/194/3
f 290/302/1 231/303/1 277/304/1 293/305/1
f 231/303/1 234/306/1 275/307/1 277/304/1
f 292/272/3 267/271/3 280/300/3 294/308/3
f 298/309/5 226/310/5 228/215/5 299/214/5
f 289/311/1 290/302/1 228/312/1 226/313/1
f 233/314/1 234/306/1 231/303/1 230/315/1
f 327/316/1 328/297/1 234/306/1 233/314/1
f 283/317/3 225/318/3 227/183/3 284/182/3
f 236/319/3 229/320/3 232/249/3 235/248/3
f 229/320/3 283/317/3 284/182/3 232/249/3
f 242/201/1 286/200/1 288/253/1 254/256/1
f 252/243/4 287/238/4 288/241/4 255/244/4
f 244/205/1 286/200/1 285/203/1 237/206/1
f 232/249/3 284/182/3 287/185/3 252/250/3
f 225/224/2 283/178/2 285/181/2 238/225/2
f 230/315/1 231/303/1 290/302/1 289/311/1
f 270/275/3 292/272/3 294/308/3 282/301/3
f 228/312/1 290/302/1 293/305/1 276/321/1
f 276/288/4 293/291/4 294/294/4 280/289/4
f 269/274/3 291/269/3 292/272/3 270/275/3
f 230/279/2 289/188/2 291/191/2 269/280/2
f 225/322/5 295/323/5 302/324/5 227/325/5
f 295/323/5 296/326/5 301/327/5 302/324/5
f 296/326/5 297/328/5 300/329/5 301/327/5
f 297/328/5 298/309/5 299/214/5 300/329/5
f 312/330/4 311/237/4 338/237/4 350/330/4
f 279/287/4 278/290/4 347/290/4 345/287/4
f 246/255/2 306/222/2 353/222/2 346/255/2
f 303/227/2 245/220/2 334/220/2 333/227/2
f 250/239/4 310/331/4 314/252/4 251/246/4
f 310/331/4 309/332/4 313/333/4 314/252/4
f 309/332/4 308/334/4 312/330/4 313/333/4
f 308/334/4 307/234/4 311/237/4 312/330/4
f 226/189/2 298/335/2 306/222/2 246/255/2
f 298/335/2 297/336/2 305/223/2 306/222/2
f 297/336/2 296/337/2 304/338/2 305/223/2
f 296/337/2 295/226/2 303/227/2 304/338/2
f 314/252/4 313/333/4 352/333/4 341/252/4
f 278/299/3 272/278/3 343/278/3 347/299/3
f 247/228/1 258/257/1 340/257/1 335/228/1
f 304/338/2 303/227/2 333/227/2 355/338/2
f 227/325/5 302/324/5 310/339/5 250/340/5
f 302/324/5 301/327/5 309/341/5 310/339/5
f 301/327/5 300/329/5 308/342/5 309/341/5
f 300/329/5 299/214/5 307/217/5 308/342/5
f 234/306/1 328/297/1 317/298/1 275/307/1
f 275/295/19 317/283/19 318/286/19 281/296/19
f 264/343/3 315/276/3 316/192/3 265/344/3
f 265/344/3 316/192/3 318/195/3 274/345/3
f 324/346/2 327/174/2 315/177/2 264/347/2
f 235/248/3 329/262/3 330/348/3 236/319/3
f 239/204/1 319/208/1 322/266/1 261/218/1
f 325/349/3 329/262/3 321/263/3 260/350/3
f 260/351/20 321/258/20 322/261/20 262/352/20
f 240/264/1 319/208/1 320/209/1 241/353/1
f 236/186/2 330/196/2 320/199/2 243/187/2
f 329/262/3 325/349/3 323/354/3 330/348/3
f 324/281/1 326/230/1 328/297/1 327/316/1
f 332/355/9 333/356/9 334/357/9 331/358/9
f 331/358/9 334/357/9 336/359/9 335/360/9
f 332/355/9 331/358/9 339/361/9 341/362/9
f 331/358/9 335/360/9 340/363/9 339/361/9
f 343/364/9 344/365/9 345/366/9 347/367/9
f 346/368/9 344/365/9 343/364/9 342/369/9
f 344/365/9 348/370/9 338/371/9 337/366/9
f 348/370/9 349/372/9 350/373/9 338/371/9
f 349/372/9 351/374/9 352/375/9 350/373/9
f 351/374/9 332/355/9 341/362/9 352/375/9
f 344/365/9 346/368/9 353/376/9 348/370/9
f 348/370/9 353/376/9 354/377/9 349/372/9
f 349/372/9 354/377/9 355/378/9 351/374/9
f 351/374/9 355/378/9 333/356/9 332/355/9
f 258/247/4 251/246/4 339/246/4 340/247/4
f 248/229/1 247/228/1 335/228/1 336/229/1
f 313/333/4 312/330/4 350/330/4 352/333/4
f 305/223/2 304/338/2 355/338/2 354/223/2
f 458/174/4 364/175/4 394/176/4 446/177/4
f 414/178/4 360/179/4 368/180/4 416/181/4
f 415/182/1 358/183/1 381/184/1 418/185/1
f 360/179/4 367/186/4 374/187/4 368/180/4
f 420/188/4 357/189/4 397/190/4 422/191/4
f 447/192/1 399/193/1 412/194/1 449/195/1
f 461/196/4 454/197/4 372/198/4 451/199/4
f 417/200/3 373/201/3 369/202/3 416/203/3
f 370/204/3 375/205/3 368/206/3 374/207/3
f 450/208/3 370/204/3 374/207/3 451/209/3
f 454/210/5 456/211/5 371/212/5 372/213/5
f 430/214/5 359/215/5 380/216/5 438/217/5
f 375/205/3 370/204/3 387/218/3 386/219/3
f 376/220/4 379/221/4 467/221/4 465/220/4
f 437/222/4 436/223/4 485/223/4 484/222/4
f 356/224/4 369/225/4 379/221/4 376/220/4
f 426/226/4 356/224/4 376/220/4 434/227/4
f 369/202/3 373/201/3 378/228/3 379/229/3
f 457/230/5 396/231/5 405/232/5 404/233/5
f 438/234/2 380/235/2 388/236/2 442/237/2
f 418/238/2 381/239/2 385/240/2 419/241/2
f 384/242/2 383/243/2 386/244/2 387/245/2
f 385/240/2 381/239/2 382/246/2 389/247/2
f 366/248/1 363/249/1 383/250/1 384/251/1
f 382/246/2 445/252/2 472/252/2 470/246/2
f 417/200/3 375/205/3 386/219/3 419/253/3
f 402/254/4 377/255/4 477/255/4 473/254/4
f 378/228/3 373/201/3 385/256/3 389/257/3
f 452/258/21 390/259/21 392/260/21 453/261/21
f 460/262/1 366/248/1 390/251/1 452/263/1
f 450/208/3 371/264/3 393/265/3 453/266/3
f 371/212/5 456/211/5 391/267/5 393/268/5
f 422/269/1 397/270/1 398/271/1 423/272/1
f 394/273/1 400/274/1 401/275/1 399/193/1
f 446/276/1 394/273/1 399/193/1 447/192/1
f 398/271/1 397/270/1 402/277/1 403/278/1
f 364/175/4 361/279/4 400/280/4 394/176/4
f 357/189/4 377/255/4 402/254/4 397/190/4
f 457/230/5 455/281/5 395/282/5 396/231/5
f 442/237/2 388/236/2 468/236/2 469/237/2
f 403/278/1 402/277/1 473/277/1 474/278/1
f 448/283/22 404/284/22 405/285/22 449/286/22
f 410/287/2 407/288/2 411/289/2 409/290/2
f 424/291/2 408/292/2 413/293/2 425/294/2
f 408/292/2 406/295/2 412/296/2 413/293/2
f 459/297/3 457/230/3 404/233/3 448/298/3
f 398/271/1 403/278/1 409/299/1 411/300/1
f 399/193/1 401/275/1 413/301/1 412/194/1
f 421/302/3 362/303/3 408/304/3 424/305/3
f 362/303/3 365/306/3 406/307/3 408/304/3
f 423/272/1 398/271/1 411/300/1 425/308/1
f 429/309/5 357/310/5 359/215/5 430/214/5
f 420/311/3 421/302/3 359/312/3 357/313/3
f 364/314/3 365/306/3 362/303/3 361/315/3
f 458/316/3 459/297/3 365/306/3 364/314/3
f 414/317/1 356/318/1 358/183/1 415/182/1
f 367/319/1 360/320/1 363/249/1 366/248/1
f 360/320/1 414/317/1 415/182/1 363/249/1
f 373/201/3 417/200/3 419/253/3 385/256/3
f 383/243/2 418/238/2 419/241/2 386/244/2
f 375/205/3 417/200/3 416/203/3 368/206/3
f 363/249/1 415/182/1 418/185/1 383/250/1
f 356/224/4 414/178/4 416/181/4 369/225/4
f 361/315/3 362/303/3 421/302/3 420/311/3
f 401/275/1 423/272/1 425/308/1 413/301/1
f 359/312/3 421/302/3 424/305/3 407/321/3
f 407/288/2 424/291/2 425/294/2 411/289/2
f 400/274/1 422/269/1 423/272/1 401/275/1
f 361/279/4 420/188/4 422/191/4 400/280/4
f 356/322/5 426/323/5 433/324/5 358/325/5
f 426/323/5 427/326/5 432/327/5 433/324/5
f 427/326/5 428/328/5 431/329/5 432/327/5
f 428/328/5 429/309/5 430/214/5 431/329/5
f 443/330/2 442/237/2 469/237/2 481/330/2
f 410/287/2 409/290/2 478/290/2 476/287/2
f 377/255/4 437/222/4 484/222/4 477/255/4
f 434/227/4 376/220/4 465/220/4 464/227/4
f 381/239/2 441/331/2 445/252/2 382/246/2
f 441/331/2 440/332/2 444/333/2 445/252/2
f 440/332/2 439/334/2 443/330/2 444/333/2
f 439/334/2 438/234/2 442/237/2 443/330/2
f 357/189/4 429/335/4 437/222/4 377/255/4
f 429/335/4 428/336/4 436/223/4 437/222/4
f 428/336/4 427/337/4 435/338/4 436/223/4
f 427/337/4 426/226/4 434/227/4 435/338/4
f 445/252/2 444/333/2 483/333/2 472/252/2
f 409/299/1 403/278/1 474/278/1 478/299/1
f 378/228/3 389/257/3 471/257/3 466/228/3
f 435/338/4 434/227/4 464/227/4 486/338/4
f 358/325/5 433/324/5 441/339/5 381/340/5
f 433/324/5 432/327/5 440/341/5 441/339/5
f 432/327/5 431/329/5 439/342/5 440/341/5
f 431/329/5 430/214/5 438/217/5 439/342/5
f 365/306/3 459/297/3 448/298/3 406/307/3
f 406/295/21 448/283/21 449/286/21 412/296/21
f 395/343/1 446/276/1 447/192/1 396/344/1
f 396/344/1 447/192/1 449/195/1 405/345/1
f 455/346/4 458/174/4 446/177/4 395/347/4
f 366/248/1 460/262/1 461/348/1 367/319/1
f 370/204/3 450/208/3 453/266/3 392/218/3
f 456/349/1 460/262/1 452/263/1 391/350/1
f 391/351/22 452/258/22 453/261/22 393/352/22
f 371/264/3 450/208/3 451/209/3 372/353/3
f 367/186/4 461/196/4 451/199/4 374/187/4
f 460/262/1 456/349/1 454/354/1 461/348/1
f 455/281/3 457/230/3 459/297/3 458/316/3
f 463/355/9 464/356/9 465/357/9 462/358/9
f 462/358/9 465/357/9 467/359/9 466/360/9
f 463/355/9 462/358/9 470/361/9 472/362/9
f 462/358/9 466/360/9 471/363/9 470/361/9
f 474/364/9 475/365/9 476/366/9 478/367/9
f 477/368/9 475/365/9 474/364/9 473/369/9
f 475/365/9 479/370/9 469/371/9 468/366/9
f 479/370/9 480/372/9 481/373/9 469/371/9
f 480/372/9 482/374/9 483/375/9 481/373/9
f 482/374/9 463/355/9 472/362/9 483/375/9
f 475/365/9 477/368/9 484/376/9 479/370/9
f 479/370/9 484/376/9 485/377/9 480/372/9
f 480/372/9 485/377/9 486/378/9 482/374/9
f 482/374/9 486/378/9 464/356/9 463/355/9
f 389/247/2 382/246/2 470/246/2 471/247/2
f 379/229/3 378/228/3 466/228/3 467/229/3
f 444/333/2 443/330/2 481/330/2 483/333/2
f 436/223/4 435/338/4 486/338/4 485/223/4
f 741/174/3 647/175/3 677/176/3 729/177/3
f 697/178/3 643/179/3 651/180/3 699/181/3
f 698/182/4 641/183/4 664/184/4 701/185/4
f 643/179/3 650/186/3 657/187/3 651/180/3
f 703/188/3 640/189/3 680/190/3 705/191/3
f 730/192/4 682/193/4 695/194/4 732/195/4
f 744/196/3 737/197/3 655/198/3 734/199/3
f 700/200/2 656/201/2 652/202/2 699/203/2
f 653/204/2 658/205/2 651/206/2 657/207/2
f 733/208/2 653/204/2 657/207/2 734/209/2
f 737/210/5 739/211/5 654/212/5 655/213/5
f 713/214/5 642/215/5 663/216/5 721/217/5
f 658/205/2 653/204/2 670/218/2 669/219/2
f 659/220/3 662/221/3 750/221/3 748/220/3
f 720/222/3 719/223/3 768/223/3 767/222/3
f 639/224/3 652/225/3 662/221/3 659/220/3
f 709/226/3 639/224/3 659/220/3 717/227/3
f 652/202/2 656/201/2 661/228/2 662/229/2
f 740/230/5 679/231/5 688/232/5 687/233/5
f 721/234/1 663/235/1 671/236/1 725/237/1
f 701/238/1 664/239/1 668/240/1 702/241/1
f 667/242/1 666/243/1 669/244/1 670/245/1
f 668/240/1 664/239/1 665/246/1 672/247/1
f 649/248/4 646/249/4 666/250/4 667/251/4
f 665/246/1 728/252/1 755/252/1 753/246/1
f 700/200/2 658/205/2 669/219/2 702/253/2
f 685/254/3 660/255/3 760/255/3 756/254/3
f 661/228/2 656/201/2 668/256/2 672/257/2
f 735/258/27 673/259/27 675/260/27 736/261/27
f 743/262/4 649/248/4 673/251/4 735/263/4
f 733/208/2 654/264/2 676/265/2 736/266/2
f 654/212/5 739/211/5 674/267/5 676/268/5
f 705/269/4 680/270/4 681/271/4 706/272/4
f 677/273/4 683/274/4 684/275/4 682/193/4
f 729/276/4 677/273/4 682/193/4 730/192/4
f 681/271/4 680/270/4 685/277/4 686/278/4
f 647/175/3 644/279/3 683/280/3 677/176/3
f 640/189/3 660/255/3 685/254/3 680/190/3
f 740/230/5 738/281/5 678/282/5 679/231/5
f 725/237/1 671/236/1 751/236/1 752/237/1
f 686/278/4 685/277/4 756/277/4 757/278/4
f 731/283/28 687/284/28 688/285/28 732/286/28
f 693/287/1 690/288/1 694/289/1 692/290/1
f 707/291/1 691/292/1 696/293/1 708/294/1
f 691/292/1 689/295/1 695/296/1 696/293/1
f 742/297/2 740/230/2 687/233/2 731/298/2
f 681/271/4 686/278/4 692/299/4 694/300/4
f 682/193/4 684/275/4 696/301/4 695/194/4
f 704/302/2 645/303/2 691/304/2 707/305/2
f 645/303/2 648/306/2 689/307/2 691/304/2
f 706/272/4 681/271/4 694/300/4 708/308/4
f 712/309/5 640/310/5 642/215/5 713/214/5
f 703/311/2 704/302/2 642/312/2 640/313/2
f 647/314/2 648/306/2 645/303/2 644/315/2
f 741/316/2 742/297/2 648/306/2 647/314/2
f 697/317/4 639/318/4 641/183/4 698/182/4
f 650/319/4 643/320/4 646/249/4 649/248/4
f 643/320/4 697/317/4 698/182/4 646/249/4
f 656/201/2 700/200/2 702/253/2 668/256/2
f 666/243/1 701/238/1 702/241/1 669/244/1
f 658/205/2 700/200/2 699/203/2 651/206/2
f 646/249/4 698/182/4 701/185/4 666/250/4
f 639/224/3 697/178/3 699/181/3 652/225/3
f 644/315/2 645/303/2 704/302/2 703/311/2
f 684/275/4 706/272/4 708/308/4 696/301/4
f 642/312/2 704/302/2 707/305/2 690/321/2
f 690/288/1 707/291/1 708/294/1 694/289/1
f 683/274/4 705/269/4 706/272/4 684/275/4
f 644/279/3 703/188/3 705/191/3 683/280/3
f 639/322/5 709/323/5 716/324/5 641/325/5
f 709/323/5 710/326/5 715/327/5 716/324/5
f 710/326/5 711/328/5 714/329/5 715/327/5
f 711/328/5 712/309/5 713/214/5 714/329/5
f 726/330/1 725/237/1 752/237/1 764/330/1
f 693/287/1 692/290/1 761/290/1 759/287/1
f 660/255/3 720/222/3 767/222/3 760/255/3
f 717/227/3 659/220/3 748/220/3 747/227/3
f 664/239/1 724/331/1 728/252/1 665/246/1
f 724/331/1 723/332/1 727/333/1 728/252/1
f 723/332/1 722/334/1 726/330/1 727/333/1
f 722/334/1 721/234/1 725/237/1 726/330/1
f 640/189/3 712/335/3 720/222/3 660/255/3
f 712/335/3 711/336/3 719/223/3 720/222/3
f 711/336/3 710/337/3 718/338/3 719/223/3
f 710/337/3 709/226/3 717/227/3 718/338/3
f 728/252/1 727/333/1 766/333/1 755/252/1
f 692/299/4 686/278/4 757/278/4 761/299/4
f 661/228/2 672/257/2 754/257/2 749/228/2
f 718/338/3 717/227/3 747/227/3 769/338/3
f 641/325/5 716/324/5 724/339/5 664/340/5
f 716/324/5 715/327/5 723/341/5 724/339/5
f 715/327/5 714/329/5 722/342/5 723/341/5
f 714/329/5 713/214/5 721/217/5 722/342/5
f 648/306/2 742/297/2 731/298/2 689/307/2
f 689/295/27 731/283/27 732/286/27 695/296/27
f 678/343/4 729/276/4 730/192/4 679/344/4
f 679/344/4 730/192/4 732/195/4 688/345/4
f 738/346/3 741/174/3 729/177/3 678/347/3
f 649/248/4 743/262/4 744/348/4 650/319/4
f 653/204/2 733/208/2 736/266/2 675/218/2
f 739/349/4 743/262/4 735/263/4 674/350/4
f 674/351/28 735/258/28 736/261/28 676/352/28
f 654/264/2 733/208/2 734/209/2 655/353/2
f 650/186/3 744/196/3 734/199/3 657/187/3
f 743/262/4 739/349/4 737/354/4 744/348/4
f 738/281/2 740/230/2 742/297/2 741/316/2
f 746/355/9 747/356/9 748/357/9 745/358/9
f 745/358/9 748/357/9 750/359/9 749/360/9
f 746/355/9 745/358/9 753/361/9 755/362/9
f 745/358/9 749/360/9 754/363/9 753/361/9
f 757/364/9 758/365/9 759/366/9 761/367/9
f 760/368/9 758/365/9 757/364/9 756/369/9
f 758/365/9 762/370/9 752/371/9 751/366/9
f 762/370/9 763/372/9 764/373/9 752/371/9
f 763/372/9 765/374/9 766/375/9 764/373/9
f 765/374/9 746/355/9 755/362/9 766/375/9
f 758/365/9 760/368/9 767/376/9 762/370/9
f 762/370/9 767/376/9 768/377/9 763/372/9
f 763/372/9 768/377/9 769/378/9 765/374/9
f 765/374/9 769/378/9 747/356/9 746/355/9
f 672/247/1 665/246/1 753/246/1 754/247/1
f 662/229/2 661/228/2 749/228/2 750/229/2
f 727/333/1 726/330/1 764/330/1 766/333/1
f 719/223/3 718/338/3 769/338/3 768/223/3
