# Blender 5.0.0
# www.blender.org
mtllib ююю ровно.mtl
o Cube.005
v 0.058346 -0.095703 0.064224
v 0.058346 0.095703 0.064224
v 0.058346 -0.095703 -0.064224
v 0.058346 0.095703 -0.064224
v -0.058346 -0.095703 0.064224
v -0.058346 0.095703 0.064224
v -0.058346 -0.095703 -0.064224
v -0.058346 0.095703 -0.064224
v 0.058346 0.220573 0.082971
v 0.058346 0.281379 -0.035699
v -0.058346 0.220573 0.082971
v -0.058346 0.281379 -0.035699
v 0.058346 0.327063 0.138920
v 0.058346 0.439418 0.048094
v -0.058346 0.327063 0.138920
v -0.058346 0.439418 0.048094
v 0.058346 0.398961 0.223553
v 0.058346 0.545760 0.174398
v -0.058346 0.398961 0.223553
v -0.058346 0.545760 0.174398
v 0.058346 0.425321 0.323986
v 0.058346 0.584215 0.323986
v -0.058346 0.425321 0.323986
v -0.058346 0.584215 0.323986
vn 1.0000 -0.0000 -0.0000
vn -0.0000 -0.0000 -1.0000
vn -1.0000 -0.0000 -0.0000
vn -0.0000 -0.0000 1.0000
vn -0.0000 -1.0000 -0.0000
vn -0.0000 -0.4651 0.8853
vn -0.0000 -0.1485 0.9889
vn -0.0000 0.1518 -0.9884
vn -0.0000 0.4684 -0.8835
vn -0.0000 -0.7621 0.6474
vn -0.0000 0.7650 -0.6441
vn -0.0000 -0.9672 0.2539
vn -0.0000 0.9685 -0.2490
vt 0.375000 0.000000
vt 0.375000 0.250000
vt 0.625000 0.250000
vt 0.625000 0.000000
vt 0.375000 0.500000
vt 0.625000 0.500000
vt 0.375000 0.750000
vt 0.625000 0.750000
vt 0.375000 1.000000
vt 0.625000 1.000000
vt 0.125000 0.500000
vt 0.125000 0.750000
vt 0.875000 0.750000
vt 0.875000 0.500000
s 0
f 1/1/1 3/2/1 4/3/1 2/4/1
f 3/2/2 7/5/2 8/6/2 4/3/2
f 7/5/3 5/7/3 6/8/3 8/6/3
f 5/7/4 1/9/4 2/10/4 6/8/4
f 3/11/5 1/12/5 5/7/5 7/5/5
f 6/8/3 11/8/3 12/6/3 8/6/3
f 9/10/6 13/10/6 15/8/6 11/8/6
f 4/3/1 10/3/1 9/4/1 2/4/1
f 2/10/7 9/10/7 11/8/7 6/8/7
f 8/6/8 12/6/8 10/3/8 4/3/8
f 15/8/3 19/8/3 20/6/3 16/6/3
f 12/6/9 16/6/9 14/3/9 10/3/9
f 11/8/3 15/8/3 16/6/3 12/6/3
f 10/3/1 14/3/1 13/4/1 9/4/1
f 19/8/3 23/8/3 24/6/3 20/6/3
f 14/3/1 18/3/1 17/4/1 13/4/1
f 13/10/10 17/10/10 19/8/10 15/8/10
f 16/6/11 20/6/11 18/3/11 14/3/11
f 24/6/4 23/8/4 21/13/4 22/14/4
f 18/3/1 22/3/1 21/4/1 17/4/1
f 17/10/12 21/10/12 23/8/12 19/8/12
f 20/6/13 24/6/13 22/3/13 18/3/13
