# Blender 5.1.2
# www.blender.org
mtllib Wall.mtl
o Wall
v -0.685515 -0.000000 -4.890052
v -0.565515 6.750003 -4.890053
v -0.685515 -0.000001 -8.890053
v -0.565515 6.750003 -8.890054
v 0.514485 -0.000000 -4.890052
v -0.005515 6.750003 -4.890053
v 0.514485 -0.000001 -8.890053
v -0.005515 6.750003 -8.890054
v -0.565515 3.375005 -4.890053
v -0.565515 3.375004 -8.890053
v -0.005515 3.375004 -8.890053
v -0.005515 3.375005 -4.890053
v -0.565515 1.687502 -8.890053
v -0.005515 1.687502 -8.890053
v -0.005515 1.687504 -4.890052
v -0.565515 1.687504 -4.890052
v -0.565515 7.425004 -4.890053
v -0.565515 7.425004 -8.890054
v -0.005515 7.425004 -8.890054
v -0.005515 7.425004 -4.890053
v 0.394485 6.750003 -8.890054
v 0.394485 6.750003 -4.890053
v 0.394485 7.425004 -8.890054
v 0.394485 7.425004 -4.890053
vn -1.0000 -0.0000 -0.0000
vn -0.0000 -0.0000 -1.0000
vn 1.0000 -0.0000 -0.0000
vn -0.0000 -0.0000 1.0000
vn -0.0000 -1.0000 -0.0000
vn -0.9994 0.0355 -0.0000
vn -0.9975 0.0709 -0.0000
vn 0.9557 0.2945 -0.0000
vn -0.0000 1.0000 -0.0000
vt 0.589333 0.584291
vt 0.589333 0.480776
vt 0.796364 0.480776
vt 0.796364 0.584291
vt 0.159273 0.389964
vt 0.055758 0.389964
vt 0.055758 0.182933
vt 0.159273 0.182933
vt 0.692848 0.964945
vt 0.589333 0.964945
vt 0.589333 0.757915
vt 0.692848 0.757915
vt 0.457115 0.242085
vt 0.353600 0.242085
vt 0.353600 0.035055
vt 0.457115 0.035055
vt 0.242085 0.460073
vt 0.242085 0.814982
vt 0.035054 0.814982
vt 0.035055 0.460073
vt 0.332897 0.242085
vt 0.332897 0.035055
vt 0.508873 0.242085
vt 0.508873 0.035055
vt 0.744606 0.964945
vt 0.744606 0.757915
vt 0.211030 0.389964
vt 0.211030 0.182933
vt 0.589333 0.636048
vt 0.796364 0.636048
vt 0.589333 0.687806
vt 0.796364 0.687806
vt 0.262788 0.389964
vt 0.262788 0.035055
vt 0.787414 0.242085
vt 0.630739 0.242085
vt 0.630739 0.035055
vt 0.787414 0.035055
vt 0.560630 0.389964
vt 0.560630 0.035055
vt 0.519224 0.607952
vt 0.519224 0.814982
vt 0.312194 0.814982
vt 0.312194 0.607952
vt 0.035054 0.389964
vt 0.035055 0.182933
vt 0.353600 0.389964
vt 0.332897 0.389964
vt 0.589333 0.460073
vt 0.796364 0.460073
vt 0.878226 0.035055
vt 0.878226 0.242085
vt 0.857523 0.242085
vt 0.857523 0.035055
vt 0.560630 0.242085
vt 0.312194 0.460073
vt 0.519224 0.460073
vt 0.035055 0.035055
vt 0.055758 0.035055
s 1
usemtl Material.001
f 9/1/1 2/2/1 4/3/1 10/4/1
f 10/5/2 4/6/2 8/7/2 11/8/2
f 11/9/3 8/10/3 6/11/3 12/12/3
f 12/13/4 6/14/4 2/15/4 9/16/4
f 3/17/5 7/18/5 5/19/5 1/20/5
f 2/15/4 6/14/4 20/21/4 17/22/4
f 15/23/4 12/13/4 9/16/4 16/24/4
f 14/25/3 11/9/3 12/12/3 15/26/3
f 13/27/2 10/5/2 11/8/2 14/28/2
f 16/29/6 9/1/1 10/4/1 13/30/6
f 1/31/7 16/29/6 13/30/6 3/32/7
f 3/33/2 13/27/2 14/28/2 7/34/2
f 7/35/8 14/36/8 15/37/8 5/38/8
f 5/39/4 15/23/4 16/24/4 1/40/4
f 19/41/9 18/42/9 17/43/9 20/44/9
f 8/7/2 4/6/2 18/45/2 19/46/2
f 20/21/4 6/14/4 22/47/4 24/48/4
f 4/3/1 2/2/1 17/49/1 18/50/1
f 22/51/3 21/52/3 23/53/3 24/54/3
f 6/14/5 8/55/5 21/39/5 22/47/5
f 19/41/9 20/44/9 24/56/9 23/57/9
f 8/7/2 19/46/2 23/58/2 21/59/2
