# Blender 5.1.2
# www.blender.org
mtllib Holster.mtl
o Cube
v -0.500000 -1.500000 0.625000
v -0.544691 1.450408 1.933580
v -0.500000 -1.500000 -0.475000
v -0.544691 1.450408 -0.266913
v 0.500000 -1.500000 0.625000
v 0.544691 1.450408 1.933580
v 0.500000 -1.500000 -0.475000
v 0.544691 1.450408 -0.266913
v -0.642272 1.666667 2.114494
v -0.642272 1.666667 -0.347827
v 0.642272 1.666667 -0.347827
v 0.642272 1.666667 2.114494
v -0.390222 -0.473164 0.806889
v -0.390222 -0.473164 -0.306889
v 0.390222 -0.473164 -0.306889
v 0.390222 -0.473164 0.806889
v -0.666667 0.000000 1.277778
v -0.666667 0.000000 -0.544445
v 0.666667 0.000000 -0.544444
v 0.666667 0.000000 1.277778
v -0.572933 -1.572933 -0.260975
v -0.609568 -1.609568 0.058565
v -0.572933 -1.572933 0.389096
v -0.666286 0.494792 1.501789
v -0.663617 0.958333 1.736534
v -0.656375 1.359375 1.951080
v -0.822911 1.666667 1.556624
v -0.883123 1.666667 0.883333
v -0.822911 1.666667 0.210042
v -0.663098 -0.492091 -0.578361
v -0.638117 -0.936729 -0.582446
v -0.576501 -1.288741 -0.541188
v 0.296650 -1.572933 -0.559676
v 0.000000 -1.609568 -0.601698
v -0.296650 -1.572933 -0.559676
v -0.351242 1.666667 -0.694091
v 0.000000 1.666667 -0.809512
v 0.351242 1.666667 -0.694091
v 0.663098 -0.492091 -0.578361
v 0.638117 -0.936729 -0.582446
v 0.576501 -1.288741 -0.541188
v 0.572933 -1.572933 0.389095
v 0.609568 -1.609568 0.058565
v 0.572933 -1.572933 -0.260975
v 0.822911 1.666667 0.210042
v 0.883123 1.666667 0.883333
v 0.822911 1.666667 1.556624
v 0.663098 -0.492091 1.086984
v 0.638117 -0.936729 0.918094
v 0.576501 -1.288741 0.756649
v -0.296650 -1.572933 0.687796
v -0.000000 -1.609568 0.718827
v 0.296650 -1.572933 0.687796
v 0.351242 1.666667 2.460758
v -0.000000 1.666667 2.576179
v -0.351242 1.666667 2.460758
v -0.697886 1.450408 1.435031
v -0.748950 1.450408 0.833333
v -0.697886 1.450408 0.231636
v -0.297878 1.450408 -0.576358
v 0.000000 1.450408 -0.679506
v 0.297878 1.450408 -0.576358
v 0.697886 1.450408 0.231636
v 0.748950 1.450408 0.833333
v 0.697886 1.450408 1.435031
v 0.297878 1.450408 2.243025
v 0.000000 1.450408 2.346173
v -0.297878 1.450408 2.243025
v -0.620164 1.850788 2.200459
v -0.593481 1.889634 2.201121
v -0.566799 1.762933 2.113240
v -0.566799 1.762933 -0.257511
v -0.593481 1.889634 -0.271954
v -0.620164 1.850788 -0.304105
v 0.566799 1.762933 -0.257511
v 0.593481 1.889634 -0.271954
v 0.620164 1.850788 -0.304105
v 0.566799 1.762933 2.113240
v 0.593481 1.889634 2.201120
v 0.620164 1.850788 2.200459
v 0.527803 0.956793 1.667319
v 0.501064 0.386845 1.353302
v 0.450308 -0.133433 1.040675
v -0.450308 -0.133433 1.040675
v -0.501064 0.386845 1.353302
v -0.527803 0.956793 1.667319
v -0.527803 0.956793 -0.300035
v -0.501064 0.386845 -0.331697
v -0.450308 -0.133433 -0.334624
v 0.450308 -0.133433 -0.334624
v 0.501064 0.386845 -0.331697
v 0.527803 0.956793 -0.300035
v -0.447142 -0.593414 0.539670
v -0.475734 -0.653817 0.195216
v -0.447142 -0.593414 -0.112603
v -0.231519 -0.593414 -0.402952
v 0.000000 -0.653817 -0.449499
v 0.231519 -0.593414 -0.402952
v 0.447142 -0.593414 -0.112603
v 0.475734 -0.653817 0.195216
v 0.447142 -0.593414 0.539671
v 0.231519 -0.593414 0.830019
v -0.000000 -0.653817 0.839931
v -0.231519 -0.593414 0.830019
v -0.576501 -1.288741 0.756650
v -0.638117 -0.936729 0.918094
v -0.663098 -0.492091 1.086984
v -0.656375 1.359375 -0.397434
v -0.663617 0.958333 -0.449034
v -0.666286 0.494792 -0.499185
v 0.656375 1.359375 -0.397434
v 0.663617 0.958333 -0.449034
v 0.666286 0.494792 -0.499185
v 0.656375 1.359375 1.951080
v 0.663617 0.958333 1.736534
v 0.666286 0.494792 1.501789
v 0.364583 0.000000 1.534028
v 0.000000 0.000000 1.619444
v -0.364583 0.000000 1.534028
v 0.854167 0.000000 -0.131597
v 0.916667 0.000000 0.366667
v 0.854167 0.000000 0.864931
v -0.364583 0.000000 -0.800695
v 0.000000 0.000000 -0.886111
v 0.364583 0.000000 -0.800694
v -0.854167 0.000000 0.864931
v -0.916667 0.000000 0.366667
v -0.854167 0.000000 -0.131597
v -0.853678 0.494792 1.048443
v -0.850260 0.958333 1.241366
v -0.840981 1.359375 1.418995
v -0.916143 0.494792 0.501302
v -0.912474 0.958333 0.643750
v -0.902516 1.359375 0.776823
v -0.853678 0.494792 -0.045839
v -0.850260 0.958333 0.046134
v -0.840980 1.359375 0.134651
v -0.364375 0.494792 -0.780572
v -0.362916 0.958333 -0.756379
v -0.358955 1.359375 -0.727694
v -0.000000 0.494792 -0.874367
v -0.000000 0.958333 -0.858828
v -0.000000 1.359375 -0.837780
v 0.364375 0.494792 -0.780572
v 0.362916 0.958333 -0.756379
v 0.358955 1.359375 -0.727694
v 0.853678 0.494792 -0.045839
v 0.850260 0.958333 0.046134
v 0.840981 1.359375 0.134651
v 0.916143 0.494792 0.501302
v 0.912474 0.958333 0.643750
v 0.902516 1.359375 0.776823
v 0.853678 0.494792 1.048443
v 0.850260 0.958333 1.241366
v 0.840980 1.359375 1.418995
v 0.364375 0.494792 1.783176
v 0.362916 0.958333 2.043879
v 0.358955 1.359375 2.281340
v 0.000000 0.494792 1.876972
v 0.000000 0.958333 2.146328
v 0.000000 1.359375 2.391427
v -0.364375 0.494792 1.783176
v -0.362916 0.958333 2.043880
v -0.358955 1.359375 2.281340
v -0.316157 -1.728990 -0.298802
v -0.000000 -1.781829 -0.322377
v 0.316157 -1.728990 -0.298802
v -0.333140 -1.781829 0.032726
v 0.000000 -1.839506 0.024074
v 0.333140 -1.781829 0.032726
v -0.316157 -1.728990 0.380105
v 0.000000 -1.781829 0.387828
v 0.316157 -1.728990 0.380105
v -0.288631 0.955680 1.943142
v 0.000000 0.954566 2.034702
v 0.288631 0.955680 1.943142
v -0.273935 0.377940 1.583570
v 0.000000 0.369035 1.657276
v 0.273935 0.377940 1.583570
v -0.248485 -0.166709 1.205239
v 0.000000 -0.195824 1.251446
v 0.248485 -0.166709 1.205239
v -0.726212 1.762933 1.576117
v -0.779349 1.762933 0.927865
v -0.726212 1.762933 0.279612
v -0.760398 1.889634 1.640814
v -0.816037 1.889634 0.964583
v -0.760398 1.889634 0.288352
v -0.794585 1.850788 1.633019
v -0.852725 1.850788 0.948177
v -0.794585 1.850788 0.263336
v -0.309968 1.762933 -0.590898
v 0.000000 1.762933 -0.702027
v 0.309968 1.762933 -0.590898
v -0.324560 1.889634 -0.619730
v 0.000000 1.889634 -0.735655
v 0.324560 1.889634 -0.619730
v -0.339152 1.850788 -0.656309
v 0.000000 1.850788 -0.773710
v 0.339152 1.850788 -0.656309
v 0.726212 1.762933 0.279612
v 0.779349 1.762933 0.927865
v 0.726212 1.762933 1.576117
v 0.760398 1.889634 0.288352
v 0.816037 1.889634 0.964583
v 0.760398 1.889634 1.640814
v 0.794585 1.850788 0.263336
v 0.852725 1.850788 0.948177
v 0.794585 1.850788 1.633019
v 0.309968 1.762933 2.446627
v 0.000000 1.762933 2.557756
v -0.309968 1.762933 2.446627
v 0.324560 1.889634 2.548896
v 0.000000 1.889634 2.664822
v -0.324560 1.889634 2.548896
v 0.339152 1.850788 2.552663
v 0.000000 1.850788 2.670065
v -0.339152 1.850788 2.552663
v 0.288631 0.955680 -0.576533
v 0.000000 0.954566 -0.668768
v -0.288631 0.955680 -0.576533
v 0.273935 0.377940 -0.567367
v -0.000000 0.369035 -0.646473
v -0.273935 0.377940 -0.567366
v 0.248485 -0.166709 -0.519370
v -0.000000 -0.195824 -0.583236
v -0.248485 -0.166709 -0.519370
v 0.676287 0.955680 1.221384
v 0.725794 0.954566 0.682967
v 0.676287 0.955680 0.145224
v 0.642309 0.377940 0.969898
v 0.689490 0.369035 0.505401
v 0.642309 0.377940 0.046305
v 0.572953 -0.166709 0.724639
v 0.614462 -0.195824 0.334105
v 0.572953 -0.166709 -0.038770
v -0.676287 0.955680 0.145224
v -0.725794 0.954566 0.682967
v -0.676287 0.955680 1.221384
v -0.642309 0.377940 0.046305
v -0.689491 0.369035 0.505401
v -0.642309 0.377940 0.969898
v -0.572953 -0.166709 -0.038770
v -0.614462 -0.195824 0.334105
v -0.572953 -0.166709 0.724639
v 0.246743 -0.850718 -0.188893
v 0.000000 -0.937837 -0.224118
v -0.246743 -0.850718 -0.188893
v 0.259998 -0.937837 0.109086
v -0.000000 -1.032934 0.080247
v -0.259998 -0.937837 0.109086
v 0.246743 -0.850718 0.459903
v -0.000000 -0.937837 0.442289
v -0.246743 -0.850717 0.459903
v 0.318122 -1.308923 0.926577
v 0.348862 -0.942130 1.127416
v 0.362618 -0.492766 1.320962
v -0.000000 -1.326582 0.981240
v 0.000000 -0.947531 1.196373
v 0.000000 -0.493441 1.398852
v -0.318122 -1.308923 0.926577
v -0.348862 -0.942130 1.127416
v -0.362618 -0.492766 1.320962
v 0.733511 -1.308923 -0.254050
v 0.817998 -0.942130 -0.243523
v 0.849646 -0.492766 -0.201187
v 0.786651 -1.326582 0.102054
v 0.878087 -0.947531 0.166204
v 0.911844 -0.493441 0.254109
v 0.733511 -1.308923 0.463456
v 0.817998 -0.942130 0.577551
v 0.849646 -0.492766 0.709607
v -0.318122 -1.308923 -0.717170
v -0.348862 -0.942130 -0.793388
v -0.362618 -0.492766 -0.812542
v 0.000000 -1.326582 -0.777132
v -0.000000 -0.947531 -0.863966
v 0.000000 -0.493441 -0.890635
v 0.318122 -1.308923 -0.717170
v 0.348862 -0.942130 -0.793388
v 0.362618 -0.492766 -0.812542
v -0.733511 -1.308923 0.463456
v -0.817998 -0.942130 0.577551
v -0.849646 -0.492766 0.709607
v -0.786651 -1.326582 0.102054
v -0.878087 -0.947531 0.166204
v -0.911844 -0.493441 0.254109
v -0.733511 -1.308923 -0.254050
v -0.817998 -0.942130 -0.243523
v -0.849646 -0.492766 -0.201187
vn -0.9936 -0.0316 0.1082
vn -0.9949 -0.0146 0.0993
vn -0.9935 0.0350 -0.1082
vn -0.9937 0.0512 -0.0992
vn -0.9058 -0.1607 0.3920
vn -0.9181 -0.1610 0.3621
vn -0.9305 -0.1453 0.3363
vn -0.9429 -0.1054 0.3160
vn -0.9955 0.0241 0.0921
vn -0.9919 0.0876 -0.0918
vn -0.9421 0.1135 -0.3157
vn -0.9376 0.0785 -0.3388
vn -0.9285 0.0622 -0.3661
vn -0.9164 0.0533 -0.3966
vn -0.9926 0.0274 -0.1186
vn -0.9922 -0.0371 0.1186
vn -0.2603 0.0418 -0.9646
vn -0.2819 0.0608 -0.9575
vn 0.2603 0.0418 -0.9646
vn 0.2819 0.0608 -0.9575
vn -0.6641 0.0497 -0.7460
vn -0.6975 0.0604 -0.7140
vn -0.7271 0.0784 -0.6821
vn -0.7495 0.1149 -0.6519
vn -0.3011 0.0993 -0.9484
vn 0.3011 0.0993 -0.9484
vn 0.7495 0.1149 -0.6519
vn 0.7271 0.0784 -0.6821
vn 0.6975 0.0604 -0.7140
vn 0.6641 0.0497 -0.7460
vn 0.2386 0.0313 -0.9706
vn -0.2386 0.0313 -0.9706
vn 0.9935 0.0350 -0.1082
vn 0.9937 0.0512 -0.0992
vn 0.9936 -0.0316 0.1082
vn 0.9949 -0.0146 0.0993
vn 0.9164 0.0533 -0.3966
vn 0.9285 0.0622 -0.3661
vn 0.9376 0.0785 -0.3388
vn 0.9420 0.1135 -0.3157
vn 0.9919 0.0876 -0.0918
vn 0.9955 0.0241 0.0921
vn 0.9429 -0.1054 0.3160
vn 0.9305 -0.1453 0.3363
vn 0.9181 -0.1610 0.3621
vn 0.9058 -0.1607 0.3920
vn 0.9922 -0.0371 0.1186
vn 0.9926 0.0274 -0.1186
vn 0.2281 -0.4830 0.8454
vn 0.2448 -0.4990 0.8313
vn -0.2281 -0.4830 0.8454
vn -0.2448 -0.4990 0.8313
vn 0.6262 -0.3360 0.7035
vn 0.6534 -0.3545 0.6688
vn 0.6828 -0.3514 0.6405
vn 0.7145 -0.3213 0.6215
vn 0.2639 -0.4892 0.8312
vn -0.2639 -0.4892 0.8312
vn -0.7145 -0.3213 0.6215
vn -0.6828 -0.3514 0.6405
vn -0.6534 -0.3545 0.6688
vn -0.6262 -0.3360 0.7035
vn -0.2138 -0.4452 0.8696
vn 0.2138 -0.4452 0.8696
vn -0.1734 -0.9713 -0.1627
vn 0.1734 -0.9713 -0.1627
vn -0.1655 -0.9739 0.1553
vn 0.1655 -0.9739 0.1553
vn -0.4909 -0.7435 -0.4541
vn -0.1776 -0.8381 -0.5158
vn 0.1776 -0.8381 -0.5158
vn 0.4909 -0.7435 -0.4541
vn 0.5313 -0.8323 -0.1581
vn 0.5110 -0.8460 0.1521
vn 0.4442 -0.7961 0.4109
vn 0.1568 -0.8764 0.4553
vn -0.1568 -0.8764 0.4553
vn -0.4443 -0.7961 0.4109
vn -0.5110 -0.8460 0.1521
vn -0.5313 -0.8323 -0.1581
vn 0.2492 0.5205 -0.8167
vn -0.2492 0.5205 -0.8167
vn 0.2233 0.5660 -0.7936
vn -0.2233 0.5660 -0.7936
vn 0.7181 0.3601 -0.5956
vn 0.2724 0.5072 -0.8177
vn -0.2724 0.5072 -0.8177
vn -0.7181 0.3601 -0.5956
vn -0.6815 0.3886 -0.6202
vn -0.6268 0.4552 -0.6324
vn -0.5578 0.5500 -0.6216
vn -0.2069 0.6524 -0.7291
vn 0.2069 0.6524 -0.7291
vn 0.5578 0.5500 -0.6216
vn 0.6268 0.4552 -0.6324
vn 0.6815 0.3886 -0.6202
vn 0.9515 0.2974 -0.0781
vn 0.9636 0.2553 0.0791
vn -0.7470 0.6619 0.0624
vn -0.7212 0.6901 -0.0603
vn 0.9339 0.2200 -0.2819
vn 0.9889 0.1240 -0.0824
vn 0.9938 0.0745 0.0828
vn 0.9561 0.0507 0.2886
vn 0.9328 0.2303 0.2774
vn -0.6894 0.6937 -0.2087
vn -0.9333 0.2054 -0.2945
vn -0.9793 0.1836 -0.0853
vn -0.9885 0.1246 0.0861
vn -0.9537 -0.0021 0.3009
vn -0.7774 0.5834 0.2353
vn 0.8894 0.3729 -0.2645
vn 0.3267 0.2439 0.9131
vn -0.3267 0.2439 0.9131
vn -0.2382 0.6957 -0.6777
vn 0.2382 0.6957 -0.6777
vn 0.7863 0.0481 0.6160
vn 0.3318 0.0622 0.9413
vn -0.3318 0.0622 0.9413
vn -0.7863 0.0481 0.6160
vn -0.7709 0.2272 0.5950
vn 0.5661 0.6941 -0.4447
vn 0.7568 0.2075 -0.6198
vn 0.3134 0.1960 -0.9292
vn -0.3134 0.1960 -0.9292
vn -0.7568 0.2075 -0.6198
vn -0.5661 0.6941 -0.4447
vn 0.7709 0.2272 0.5950
vn -0.9636 0.2553 0.0791
vn -0.9515 0.2974 -0.0781
vn 0.7212 0.6901 -0.0603
vn 0.7470 0.6619 0.0624
vn -0.9561 0.0507 0.2886
vn -0.9938 0.0745 0.0828
vn -0.9889 0.1240 -0.0824
vn -0.9339 0.2200 -0.2819
vn -0.8894 0.3729 -0.2645
vn 0.7774 0.5834 0.2353
vn 0.9537 -0.0021 0.3009
vn 0.9885 0.1246 0.0861
vn 0.9793 0.1835 -0.0853
vn 0.9333 0.2054 -0.2945
vn 0.6894 0.6937 -0.2087
vn -0.9328 0.2303 0.2774
vn -0.2634 0.6234 -0.7362
vn 0.2634 0.6234 -0.7362
vn 0.3269 0.1692 0.9298
vn -0.3269 0.1692 0.9298
vn -0.7254 0.3882 -0.5684
vn -0.2809 0.5348 -0.7969
vn 0.2809 0.5348 -0.7969
vn 0.7254 0.3882 -0.5684
vn 0.6826 0.5065 -0.5268
vn -0.7191 0.4046 0.5650
vn -0.7533 -0.2280 0.6169
vn -0.2895 -0.4236 0.8584
vn 0.2895 -0.4236 0.8584
vn 0.7533 -0.2280 0.6169
vn 0.7191 0.4046 0.5650
vn -0.6826 0.5065 -0.5268
vn -0.2917 0.0295 0.9560
vn 0.2917 0.0295 0.9560
vn -0.2695 0.1022 0.9576
vn 0.2695 0.1022 0.9576
vn -0.7697 -0.0012 0.6384
vn -0.3160 0.0131 0.9487
vn 0.3160 0.0131 0.9487
vn 0.7697 -0.0012 0.6384
vn 0.7395 0.0135 0.6730
vn 0.7017 0.0802 0.7079
vn 0.6540 0.2028 0.7288
vn 0.2631 0.2672 0.9270
vn -0.2631 0.2672 0.9270
vn -0.6540 0.2028 0.7288
vn -0.7017 0.0802 0.7079
vn -0.7395 0.0135 0.6730
vn -0.9907 0.0954 -0.0965
vn -0.9946 0.0371 0.0968
vn -0.9797 0.1684 -0.1091
vn -0.9885 0.1032 0.1101
vn -0.9366 0.1818 -0.2994
vn -0.9932 0.0771 -0.0877
vn -0.9958 0.0240 0.0879
vn -0.9525 0.0003 0.3045
vn -0.9432 0.0121 0.3321
vn -0.9270 0.0742 0.3677
vn -0.8997 0.1947 0.3906
vn -0.9580 0.2547 0.1321
vn -0.9361 0.3272 -0.1291
vn -0.8396 0.4028 -0.3645
vn -0.8908 0.2856 -0.3533
vn -0.9224 0.2088 -0.3248
vn 0.9946 0.0371 0.0968
vn 0.9907 0.0954 -0.0965
vn 0.9885 0.1032 0.1101
vn 0.9797 0.1684 -0.1091
vn 0.9525 0.0003 0.3045
vn 0.9958 0.0240 0.0879
vn 0.9932 0.0771 -0.0877
vn 0.9366 0.1818 -0.2994
vn 0.9224 0.2088 -0.3248
vn 0.8908 0.2856 -0.3533
vn 0.8396 0.4028 -0.3645
vn 0.9361 0.3272 -0.1291
vn 0.9580 0.2547 0.1321
vn 0.8997 0.1947 0.3906
vn 0.9270 0.0742 0.3677
vn 0.9432 0.0121 0.3321
vn -0.3560 0.8923 0.2778
vn 0.3560 0.8923 0.2778
vn -0.3088 0.9201 -0.2409
vn 0.3088 0.9201 -0.2409
vn -0.7205 0.4410 0.5351
vn -0.3101 0.5939 0.7424
vn 0.3101 0.5939 0.7424
vn 0.7205 0.4410 0.5351
vn 0.8051 0.5612 0.1923
vn 0.7525 0.6336 -0.1797
vn 0.6108 0.6490 -0.4536
vn 0.2353 0.7921 -0.5632
vn -0.2353 0.7921 -0.5632
vn -0.6108 0.6490 -0.4536
vn -0.7525 0.6336 -0.1797
vn -0.8051 0.5612 0.1923
vn 0.1756 -0.4850 0.8567
vn 0.1888 -0.3967 0.8983
vn -0.1756 -0.4850 0.8567
vn -0.1888 -0.3967 0.8983
vn 0.4524 -0.6044 0.6558
vn 0.5261 -0.4357 0.7303
vn 0.5694 -0.3299 0.7530
vn 0.6010 -0.3061 0.7383
vn 0.2017 -0.3946 0.8964
vn -0.2017 -0.3946 0.8964
vn -0.6010 -0.3061 0.7383
vn -0.5694 -0.3299 0.7530
vn -0.5261 -0.4357 0.7303
vn -0.4524 -0.6044 0.6558
vn -0.1602 -0.6703 0.7246
vn 0.1602 -0.6703 0.7246
vn 0.9656 -0.2128 -0.1492
vn 0.9888 -0.0514 -0.1401
vn 0.9542 -0.2603 0.1476
vn 0.9846 -0.1053 0.1396
vn 0.7802 -0.4441 -0.4405
vn 0.8603 -0.1950 -0.4709
vn 0.8896 -0.0327 -0.4555
vn 0.9032 0.0375 -0.4276
vn 0.9915 0.0146 -0.1296
vn 0.9906 -0.0446 0.1295
vn 0.8928 -0.1559 0.4227
vn 0.8710 -0.2054 0.4463
vn 0.8244 -0.3408 0.4520
vn 0.7306 -0.5436 0.4132
vn 0.8266 -0.5425 0.1498
vn 0.8471 -0.5088 -0.1534
vn -0.1947 -0.2171 -0.9565
vn -0.2047 -0.0527 -0.9774
vn 0.1947 -0.2171 -0.9565
vn 0.2047 -0.0527 -0.9774
vn -0.5061 -0.4505 -0.7355
vn -0.5713 -0.2034 -0.7951
vn -0.6022 -0.0395 -0.7973
vn -0.6309 0.0325 -0.7752
vn -0.2193 0.0158 -0.9755
vn 0.2193 0.0158 -0.9755
vn 0.6309 0.0325 -0.7752
vn 0.6022 -0.0395 -0.7973
vn 0.5713 -0.2034 -0.7951
vn 0.5061 -0.4505 -0.7355
vn 0.1843 -0.5163 -0.8363
vn -0.1843 -0.5163 -0.8363
vn -0.9542 -0.2603 0.1476
vn -0.9846 -0.1053 0.1396
vn -0.9656 -0.2128 -0.1492
vn -0.9888 -0.0514 -0.1401
vn -0.7306 -0.5436 0.4132
vn -0.8244 -0.3408 0.4520
vn -0.8710 -0.2054 0.4463
vn -0.8928 -0.1559 0.4227
vn -0.9906 -0.0446 0.1295
vn -0.9915 0.0146 -0.1296
vn -0.9032 0.0375 -0.4276
vn -0.8896 -0.0327 -0.4555
vn -0.8603 -0.1950 -0.4709
vn -0.7802 -0.4441 -0.4405
vn -0.8471 -0.5088 -0.1534
vn -0.8266 -0.5425 0.1498
vt 0.535202 0.155569
vt 0.514392 0.105763
vt 0.578914 0.105793
vt 0.594300 0.155613
vt 0.495207 0.062656
vt 0.564514 0.062672
vt 0.642845 0.105453
vt 0.652805 0.155286
vt 0.633237 0.062322
vt 0.509731 0.208280
vt 0.485591 0.155130
vt 0.554990 0.208730
vt 0.460291 0.105336
vt 0.437148 0.062245
vt 0.419479 0.029201
vt 0.480291 0.029593
vt 0.552936 0.029598
vt 0.625009 0.029244
vt 0.684107 0.028562
vt 0.689545 0.061636
vt 0.695176 0.104769
vt 0.700638 0.154611
vt 0.662087 0.208472
vt 0.705567 0.207807
vt 0.608835 0.208787
vt 0.776661 0.625653
vt 0.775015 0.580286
vt 0.815560 0.579072
vt 0.817126 0.624788
vt 0.773665 0.541359
vt 0.814002 0.539817
vt 0.850610 0.585864
vt 0.852559 0.631253
vt 0.848434 0.546877
vt 0.740070 0.682002
vt 0.737670 0.634327
vt 0.778405 0.674311
vt 0.735454 0.589984
vt 0.733831 0.551978
vt 0.719940 0.027607
vt 0.723627 0.060666
vt 0.772806 0.512023
vt 0.812483 0.510212
vt 0.845968 0.517421
vt 0.009404 0.071407
vt 0.012196 0.038291
vt 0.050269 0.039534
vt 0.045775 0.072743
vt 0.007373 0.114537
vt 0.041290 0.115962
vt 0.005980 0.164340
vt 0.037110 0.165847
vt 0.005102 0.217475
vt 0.033530 0.219053
vt 0.818666 0.673776
vt 0.854346 0.679915
vt 0.086392 0.166003
vt 0.095066 0.115996
vt 0.159494 0.114797
vt 0.145394 0.164948
vt 0.103514 0.072658
vt 0.172730 0.071330
vt 0.223559 0.112654
vt 0.204033 0.162943
vt 0.241587 0.069066
vt 0.078459 0.219323
vt 0.110768 0.039347
vt 0.183326 0.037921
vt 0.255532 0.035581
vt 0.314980 0.032648
vt 0.298251 0.066176
vt 0.276249 0.109851
vt 0.252224 0.160252
vt 0.185590 0.216537
vt 0.229427 0.213958
vt 0.132206 0.218405
vt 0.772713 0.168469
vt 0.771495 0.115478
vt 0.811526 0.108970
vt 0.812747 0.162694
vt 0.770932 0.068649
vt 0.810679 0.061478
vt 0.847985 0.119633
vt 0.849511 0.172641
vt 0.846587 0.072758
vt 0.738362 0.242346
vt 0.735991 0.190323
vt 0.774664 0.222600
vt 0.734447 0.139514
vt 0.733831 0.094624
vt 0.734243 0.060359
vt 0.770950 0.033006
vt 0.809977 0.025343
vt 0.844980 0.037027
vt 0.400244 0.061446
vt 0.380886 0.028426
vt 0.039870 0.755463
vt 0.036608 0.716993
vt 0.077867 0.717353
vt 0.080690 0.756237
vt 0.042860 0.800084
vt 0.082931 0.801280
vt 0.044937 0.848137
vt 0.084179 0.849724
vt 0.814574 0.217528
vt 0.851506 0.226774
vt 0.836521 0.496292
vt 0.803467 0.500009
vt 0.810243 0.474850
vt 0.844765 0.472156
vt 0.769886 0.492672
vt 0.774551 0.468342
vt 0.815849 0.440489
vt 0.848357 0.439395
vt 0.781723 0.435775
vt 0.759282 0.835897
vt 0.782912 0.841440
vt 0.774270 0.867078
vt 0.746126 0.850987
vt 0.815026 0.845739
vt 0.807961 0.873867
vt 0.844704 0.845999
vt 0.840125 0.871938
vt 0.863431 0.843582
vt 0.865467 0.859793
vt 0.741493 0.477545
vt 0.743671 0.453018
vt 0.752827 0.423065
vt 0.763695 0.398811
vt 0.787151 0.399613
vt 0.819421 0.401173
vt 0.849674 0.403009
vt 0.873582 0.429624
vt 0.869078 0.404535
vt 0.872147 0.459996
vt 0.763740 0.885182
vt 0.733831 0.866852
vt 0.894566 0.133526
vt 0.922445 0.124510
vt 0.924821 0.198025
vt 0.898135 0.205001
vt 0.954742 0.128737
vt 0.955247 0.200456
vt 0.928114 0.272003
vt 0.903652 0.275170
vt 0.955458 0.271047
vt 0.423499 0.458893
vt 0.426119 0.424993
vt 0.478571 0.458444
vt 0.475968 0.488707
vt 0.892051 0.072882
vt 0.920628 0.062852
vt 0.954155 0.067939
vt 0.987308 0.088568
vt 0.986305 0.146879
vt 0.984550 0.214749
vt 0.980825 0.278826
vt 0.976295 0.323063
vt 0.957824 0.332103
vt 0.932763 0.338028
vt 0.909556 0.335944
vt 0.886941 0.286297
vt 0.894939 0.329538
vt 0.536592 0.523820
vt 0.539833 0.498506
vt 0.597584 0.540474
vt 0.592076 0.558599
vt 0.387748 0.497010
vt 0.385845 0.566843
vt 0.372055 0.562673
vt 0.374041 0.489825
vt 0.384764 0.636405
vt 0.370928 0.635237
vt 0.470918 0.005453
vt 0.543857 0.005443
vt 0.545799 0.009725
vt 0.471923 0.009730
vt 0.616268 0.005102
vt 0.619124 0.009374
vt 0.421168 0.512885
vt 0.390217 0.438854
vt 0.419388 0.577708
vt 0.418397 0.642270
vt 0.418434 0.695482
vt 0.384759 0.693749
vt 0.370928 0.695054
vt 0.358774 0.402163
vt 0.325661 0.439965
vt 0.319679 0.438621
vt 0.353062 0.399796
vt 0.679280 0.008709
vt 0.410112 0.009358
vt 0.409910 0.005102
vt 0.376621 0.429158
vt 0.992369 0.528477
vt 0.964025 0.524240
vt 0.965205 0.510212
vt 0.994898 0.514641
vt 0.928639 0.524248
vt 0.928168 0.510212
vt 0.309721 0.480089
vt 0.310961 0.517140
vt 0.305324 0.518706
vt 0.303777 0.480129
vt 0.327829 0.545510
vt 0.322699 0.548491
vt 0.419629 0.728123
vt 0.385976 0.728939
vt 0.990381 0.561690
vt 0.963027 0.557687
vt 0.929137 0.557625
vt 0.893961 0.561852
vt 0.891675 0.528864
vt 0.889505 0.515020
vt 0.358774 0.559591
vt 0.354280 0.563625
vt 0.015745 0.018343
vt 0.054427 0.019493
vt 0.305933 0.551794
vt 0.288354 0.520716
vt 0.286336 0.480995
vt 0.301558 0.438699
vt 0.372205 0.731760
vt 0.210841 0.414809
vt 0.140925 0.414044
vt 0.136941 0.400275
vt 0.209875 0.401073
vt 0.071509 0.413601
vt 0.064530 0.399813
vt 0.118426 0.014735
vt 0.191286 0.013267
vt 0.189730 0.017758
vt 0.115937 0.019232
vt 0.263822 0.010953
vt 0.263185 0.015401
vt 0.270097 0.449473
vt 0.215797 0.448545
vt 0.269315 0.415792
vt 0.150894 0.447830
vt 0.086472 0.447423
vt 0.033616 0.447422
vt 0.014537 0.413582
vt 0.005102 0.399796
vt 0.323572 0.008118
vt 0.323679 0.012489
vt 0.057705 0.015033
vt 0.270876 0.402101
vt 0.954095 0.028443
vt 0.919117 0.022871
vt 0.917993 0.005102
vt 0.954608 0.010904
vt 0.889471 0.033586
vt 0.886941 0.016289
vt 0.286336 0.681936
vt 0.290871 0.652259
vt 0.295075 0.652476
vt 0.290407 0.683605
vt 0.291005 0.615222
vt 0.295285 0.613892
vt 0.988867 0.050743
vt 0.392969 0.402355
vt 0.379500 0.391081
vt 0.286336 0.576542
vt 0.290619 0.573829
vt 0.370928 0.008614
vt 0.313078 0.609969
vt 0.312743 0.649733
vt 0.771476 0.013000
vt 0.809263 0.005102
vt 0.360724 0.009369
vt 0.351357 0.029469
vt 0.360176 0.005102
vt 0.990985 0.034159
vt 0.929642 0.609951
vt 0.962235 0.610276
vt 0.960995 0.672561
vt 0.930336 0.671263
vt 0.988985 0.613889
vt 0.986658 0.675000
vt 0.958477 0.733444
vt 0.930936 0.729893
vt 0.982025 0.733284
vt 0.896297 0.613483
vt 0.471439 0.700229
vt 0.472771 0.729351
vt 0.532713 0.704985
vt 0.534881 0.729767
vt 0.588910 0.706466
vt 0.593614 0.725898
vt 0.625882 0.704178
vt 0.639787 0.714401
vt 0.976204 0.780471
vt 0.953823 0.784384
vt 0.928603 0.777312
vt 0.904366 0.728529
vt 0.909355 0.765360
vt 0.899529 0.673274
vt 0.109007 0.500885
vt 0.166635 0.501357
vt 0.185266 0.564594
vt 0.135579 0.563346
vt 0.224659 0.501888
vt 0.234835 0.564207
vt 0.203427 0.625719
vt 0.161684 0.622350
vt 0.243725 0.623062
vt 0.061785 0.500799
vt 0.273210 0.502633
vt 0.276133 0.564029
vt 0.276133 0.620130
vt 0.273073 0.656817
vt 0.251798 0.669394
vt 0.218519 0.675516
vt 0.181700 0.668786
vt 0.128333 0.618849
vt 0.153379 0.655779
vt 0.095051 0.562459
vt 0.471436 0.652738
vt 0.472411 0.595051
vt 0.535095 0.615508
vt 0.533447 0.664726
vt 0.473914 0.537033
vt 0.535573 0.565425
vt 0.595874 0.635141
vt 0.592213 0.675053
vt 0.593971 0.592974
vt 0.628446 0.584428
vt 0.640291 0.613603
vt 0.645757 0.650861
vt 0.638789 0.683733
vt 0.920023 0.808480
vt 0.946425 0.818694
vt 0.936696 0.834554
vt 0.909141 0.823285
vt 0.678935 0.695441
vt 0.667764 0.692066
vt 0.677693 0.660279
vt 0.689837 0.662954
vt 0.974161 0.411671
vt 0.946665 0.423389
vt 0.939064 0.389411
vt 0.965356 0.379250
vt 0.919955 0.415985
vt 0.913914 0.383344
vt 0.897239 0.781387
vt 0.970754 0.811847
vt 0.669258 0.622310
vt 0.642626 0.581836
vt 0.987268 0.351591
vt 0.228489 0.706789
vt 0.190943 0.697134
vt 0.260667 0.697739
vt 0.785680 0.361737
vt 0.781260 0.320080
vt 0.819295 0.316661
vt 0.820384 0.360163
vt 0.777448 0.273582
vt 0.817028 0.269176
vt 0.854788 0.324074
vt 0.852730 0.365379
vt 0.007220 0.935619
vt 0.006214 0.891119
vt 0.045605 0.896495
vt 0.044976 0.940385
vt 0.755231 0.373142
vt 0.747059 0.335604
vt 0.741694 0.291426
vt 0.005102 0.842771
vt 0.083945 0.898325
vt 0.081409 0.941894
vt 0.043926 0.975192
vt 0.076093 0.975192
vt 0.876738 0.379742
vt 0.068341 0.359158
vt 0.068767 0.320424
vt 0.113003 0.320314
vt 0.106825 0.360460
vt 0.072244 0.272343
vt 0.121373 0.271615
vt 0.157036 0.318128
vt 0.145477 0.357151
vt 0.170158 0.269796
vt 0.044404 0.378498
vt 0.036963 0.356603
vt 0.067815 0.386277
vt 0.031793 0.319426
vt 0.031151 0.271908
vt 0.210183 0.267251
vt 0.193108 0.315230
vt 0.176487 0.352973
vt 0.733831 0.398172
vt 0.102369 0.389592
vt 0.137700 0.384459
vt 0.784246 0.808737
vt 0.782180 0.768868
vt 0.820420 0.769331
vt 0.819030 0.810604
vt 0.780148 0.723107
vt 0.820010 0.722910
vt 0.854847 0.774230
vt 0.850510 0.813627
vt 0.855680 0.728681
vt 0.752566 0.811611
vt 0.746383 0.774347
vt 0.742571 0.729881
vt 0.005102 0.270352
vt 0.008287 0.318397
vt 0.879302 0.784155
vt 0.872650 0.820472
vt 0.597732 0.349021
vt 0.585824 0.309859
vt 0.630317 0.310512
vt 0.636826 0.350984
vt 0.571724 0.261666
vt 0.620972 0.261805
vt 0.674065 0.309646
vt 0.674843 0.348835
vt 0.669608 0.261429
vt 0.579288 0.368916
vt 0.565475 0.346460
vt 0.604996 0.376915
vt 0.548371 0.308832
vt 0.530282 0.261136
vt 0.709258 0.260704
vt 0.709636 0.308443
vt 0.704955 0.346124
vt 0.674859 0.376746
vt 0.697506 0.368631
vt 0.640697 0.380877
s 0
f 129/1/1 130/2/1 133/3/1 132/4/1
f 130/2/2 131/5/2 134/6/2 133/3/2
f 132/4/3 133/3/3 136/7/3 135/8/3
f 133/3/4 134/6/4 137/9/4 136/7/4
f 17/10/5 24/11/5 129/1/5 126/12/5
f 24/11/6 25/13/6 130/2/6 129/1/6
f 25/13/7 26/14/7 131/5/7 130/2/7
f 26/14/8 9/15/8 27/16/8 131/5/8
f 131/5/9 27/16/9 28/17/9 134/6/9
f 134/6/10 28/17/10 29/18/10 137/9/10
f 137/9/11 29/18/11 10/19/11 108/20/11
f 136/7/12 137/9/12 108/20/12 109/21/12
f 135/8/13 136/7/13 109/21/13 110/22/13
f 128/23/14 135/8/14 110/22/14 18/24/14
f 127/25/15 132/4/15 135/8/15 128/23/15
f 126/12/16 129/1/16 132/4/16 127/25/16
f 138/26/17 139/27/17 142/28/17 141/29/17
f 139/27/18 140/30/18 143/31/18 142/28/18
f 141/29/19 142/28/19 145/32/19 144/33/19
f 142/28/20 143/31/20 146/34/20 145/32/20
f 18/35/21 110/36/21 138/26/21 123/37/21
f 110/36/22 109/38/22 139/27/22 138/26/22
f 109/38/23 108/39/23 140/30/23 139/27/23
f 108/20/24 10/19/24 36/40/24 140/41/24
f 140/30/25 36/42/25 37/43/25 143/31/25
f 143/31/26 37/43/26 38/44/26 146/34/26
f 146/45/27 38/46/27 11/47/27 111/48/27
f 145/49/28 146/45/28 111/48/28 112/50/28
f 144/51/29 145/49/29 112/50/29 113/52/29
f 125/53/30 144/51/30 113/52/30 19/54/30
f 124/55/31 141/29/31 144/33/31 125/56/31
f 123/37/32 138/26/32 141/29/32 124/55/32
f 147/57/33 148/58/33 151/59/33 150/60/33
f 148/58/34 149/61/34 152/62/34 151/59/34
f 150/60/35 151/59/35 154/63/35 153/64/35
f 151/59/36 152/62/36 155/65/36 154/63/36
f 19/54/37 113/52/37 147/57/37 120/66/37
f 113/52/38 112/50/38 148/58/38 147/57/38
f 112/50/39 111/48/39 149/61/39 148/58/39
f 111/48/40 11/47/40 45/67/40 149/61/40
f 149/61/41 45/67/41 46/68/41 152/62/41
f 152/62/42 46/68/42 47/69/42 155/65/42
f 155/65/43 47/69/43 12/70/43 114/71/43
f 154/63/44 155/65/44 114/71/44 115/72/44
f 153/64/45 154/63/45 115/72/45 116/73/45
f 122/74/46 153/64/46 116/73/46 20/75/46
f 121/76/47 150/60/47 153/64/47 122/74/47
f 120/66/48 147/57/48 150/60/48 121/76/48
f 156/77/49 157/78/49 160/79/49 159/80/49
f 157/78/50 158/81/50 161/82/50 160/79/50
f 159/80/51 160/79/51 163/83/51 162/84/51
f 160/79/52 161/82/52 164/85/52 163/83/52
f 20/86/53 116/87/53 156/77/53 117/88/53
f 116/87/54 115/89/54 157/78/54 156/77/54
f 115/89/55 114/90/55 158/81/55 157/78/55
f 114/90/56 12/91/56 54/92/56 158/81/56
f 158/81/57 54/92/57 55/93/57 161/82/57
f 161/82/58 55/93/58 56/94/58 164/85/58
f 164/95/59 56/96/59 9/15/59 26/14/59
f 163/97/60 164/98/60 26/99/60 25/100/60
f 162/101/61 163/97/61 25/100/61 24/102/61
f 119/103/62 162/101/62 24/102/62 17/104/62
f 118/105/63 159/80/63 162/84/63 119/106/63
f 117/88/64 156/77/64 159/80/64 118/105/64
f 165/107/65 166/108/65 169/109/65 168/110/65
f 166/108/66 167/111/66 170/112/66 169/109/66
f 168/110/67 169/109/67 172/113/67 171/114/67
f 169/109/68 170/112/68 173/115/68 172/113/68
f 3/116/69 35/117/69 165/118/69 21/119/69
f 35/117/70 34/120/70 166/121/70 165/118/70
f 34/120/71 33/122/71 167/123/71 166/121/71
f 33/122/72 7/124/72 44/125/72 167/123/72
f 167/111/73 44/126/73 43/127/73 170/112/73
f 170/112/74 43/127/74 42/128/74 173/115/74
f 173/115/75 42/128/75 5/129/75 53/130/75
f 172/113/76 173/115/76 53/130/76 52/131/76
f 171/114/77 172/113/77 52/131/77 51/132/77
f 23/133/78 171/114/78 51/132/78 1/134/78
f 22/135/79 168/110/79 171/114/79 23/133/79
f 21/119/80 165/118/80 168/136/80 22/137/80
f 174/138/81 175/139/81 178/140/81 177/141/81
f 175/139/82 176/142/82 179/143/82 178/140/82
f 177/141/83 178/140/83 181/144/83 180/145/83
f 178/140/84 179/143/84 182/146/84 181/144/84
f 2/147/85 68/148/85 174/149/85 86/150/85
f 68/151/86 67/152/86 175/139/86 174/138/86
f 67/152/87 66/153/87 176/142/87 175/139/87
f 66/153/88 6/154/88 81/155/88 176/142/88
f 176/142/89 81/155/89 82/156/89 179/143/89
f 179/143/90 82/156/90 83/157/90 182/146/90
f 182/146/91 83/157/91 16/158/91 102/159/91
f 181/144/92 182/146/92 102/159/92 103/160/92
f 180/145/93 181/144/93 103/160/93 104/161/93
f 84/162/94 180/145/94 104/161/94 13/163/94
f 85/164/95 177/165/95 180/166/95 84/167/95
f 86/150/96 174/149/96 177/165/96 85/164/96
f 183/168/97 184/169/97 187/170/97 186/171/97
f 184/169/98 185/172/98 188/173/98 187/170/98
f 186/174/99 187/175/99 190/176/99 189/177/99
f 187/175/100 188/178/100 191/179/100 190/176/100
f 2/147/101 57/180/101 183/168/101 71/181/101
f 57/180/102 58/182/102 184/169/102 183/168/102
f 58/182/103 59/183/103 185/172/103 184/169/103
f 59/183/104 4/184/104 72/185/104 185/172/104
f 185/172/105 72/185/105 73/186/105 188/173/105
f 188/187/106 73/188/106 74/189/106 191/190/106
f 191/179/107 74/191/107 10/19/107 29/18/107
f 190/176/108 191/179/108 29/18/108 28/17/108
f 189/177/109 190/176/109 28/17/109 27/16/109
f 69/192/110 189/177/110 27/16/110 9/15/110
f 70/193/111 186/174/111 189/177/111 69/192/111
f 71/181/112 183/168/112 186/171/112 70/194/112
f 192/195/113 193/196/113 196/197/113 195/198/113
f 193/196/114 194/199/114 197/200/114 196/197/114
f 195/201/115 196/202/115 199/203/115 198/204/115
f 196/202/116 197/205/116 200/206/116 199/203/116
f 4/184/117 60/207/117 192/208/117 72/185/117
f 60/209/118 61/210/118 193/196/118 192/195/118
f 61/210/119 62/211/119 194/199/119 193/196/119
f 62/211/120 8/212/120 75/213/120 194/199/120
f 194/199/121 75/213/121 76/214/121 197/200/121
f 197/205/122 76/215/122 77/216/122 200/206/122
f 200/217/123 77/218/123 11/47/123 38/46/123
f 199/203/124 200/206/124 38/219/124 37/220/124
f 198/204/125 199/203/125 37/220/125 36/221/125
f 74/189/126 198/204/126 36/221/126 10/222/126
f 73/188/127 195/201/127 198/204/127 74/189/127
f 72/185/128 192/208/128 195/223/128 73/186/128
f 201/224/129 202/225/129 205/226/129 204/227/129
f 202/225/130 203/228/130 206/229/130 205/226/130
f 204/230/131 205/231/131 208/232/131 207/233/131
f 205/231/132 206/234/132 209/235/132 208/232/132
f 8/236/133 63/237/133 201/224/133 75/238/133
f 63/237/134 64/239/134 202/225/134 201/224/134
f 64/239/135 65/240/135 203/228/135 202/225/135
f 65/240/136 6/241/136 78/242/136 203/228/136
f 203/228/137 78/242/137 79/243/137 206/229/137
f 206/234/138 79/244/138 80/245/138 209/235/138
f 209/235/139 80/245/139 12/70/139 47/69/139
f 208/232/140 209/235/140 47/69/140 46/68/140
f 207/233/141 208/232/141 46/68/141 45/67/141
f 77/218/142 207/233/142 45/67/142 11/47/142
f 76/246/143 204/230/143 207/233/143 77/218/143
f 75/238/144 201/224/144 204/227/144 76/247/144
f 210/248/145 211/249/145 214/250/145 213/251/145
f 211/249/146 212/252/146 215/253/146 214/250/146
f 213/254/147 214/255/147 217/256/147 216/257/147
f 214/255/148 215/258/148 218/259/148 217/256/148
f 6/154/149 66/153/149 210/248/149 78/260/149
f 66/153/150 67/152/150 211/249/150 210/248/150
f 67/152/151 68/151/151 212/252/151 211/249/151
f 68/148/152 2/147/152 71/181/152 212/261/152
f 212/261/153 71/181/153 70/194/153 215/262/153
f 215/258/154 70/263/154 69/264/154 218/259/154
f 218/265/155 69/192/155 9/15/155 56/96/155
f 217/256/156 218/259/156 56/266/156 55/267/156
f 216/268/157 217/269/157 55/93/157 54/92/157
f 80/245/158 216/270/158 54/271/158 12/70/158
f 79/244/159 213/272/159 216/270/159 80/245/159
f 78/260/160 210/248/160 213/251/160 79/273/160
f 219/274/161 220/275/161 223/276/161 222/277/161
f 220/275/162 221/278/162 224/279/162 223/276/162
f 222/277/163 223/276/163 226/280/163 225/281/163
f 223/276/164 224/279/164 227/282/164 226/280/164
f 8/212/165 62/211/165 219/274/165 92/283/165
f 62/211/166 61/210/166 220/275/166 219/274/166
f 61/210/167 60/209/167 221/278/167 220/275/167
f 60/207/168 4/184/168 87/284/168 221/285/168
f 221/285/169 87/284/169 88/286/169 224/287/169
f 224/287/170 88/286/170 89/288/170 227/289/170
f 227/289/171 89/288/171 14/290/171 96/291/171
f 226/280/172 227/282/172 96/292/172 97/293/172
f 225/281/173 226/280/173 97/293/173 98/294/173
f 90/295/174 225/281/174 98/294/174 15/296/174
f 91/297/175 222/277/175 225/281/175 90/295/175
f 92/283/176 219/274/176 222/277/176 91/297/176
f 228/298/177 229/299/177 232/300/177 231/301/177
f 229/299/178 230/302/178 233/303/178 232/300/178
f 231/301/179 232/300/179 235/304/179 234/305/179
f 232/300/180 233/303/180 236/306/180 235/304/180
f 6/241/181 65/240/181 228/298/181 81/307/181
f 65/240/182 64/239/182 229/299/182 228/298/182
f 64/239/183 63/237/183 230/302/183 229/299/183
f 63/237/184 8/236/184 92/308/184 230/302/184
f 230/302/185 92/308/185 91/309/185 233/303/185
f 233/303/186 91/309/186 90/310/186 236/306/186
f 236/306/187 90/310/187 15/311/187 99/312/187
f 235/304/188 236/306/188 99/312/188 100/313/188
f 234/305/189 235/304/189 100/313/189 101/314/189
f 83/315/190 234/305/190 101/314/190 16/316/190
f 82/317/191 231/301/191 234/305/191 83/315/191
f 81/307/192 228/298/192 231/301/192 82/317/192
f 237/318/193 238/319/193 241/320/193 240/321/193
f 238/319/194 239/322/194 242/323/194 241/320/194
f 240/321/195 241/320/195 244/324/195 243/325/195
f 241/320/196 242/323/196 245/326/196 244/324/196
f 4/184/197 59/183/197 237/318/197 87/284/197
f 59/183/198 58/182/198 238/319/198 237/318/198
f 58/182/199 57/180/199 239/322/199 238/319/199
f 57/180/200 2/147/200 86/150/200 239/322/200
f 239/322/201 86/150/201 85/164/201 242/323/201
f 242/323/202 85/164/202 84/167/202 245/326/202
f 245/326/203 84/167/203 13/327/203 93/328/203
f 244/324/204 245/326/204 93/328/204 94/329/204
f 243/325/205 244/324/205 94/329/205 95/330/205
f 89/288/206 243/325/206 95/330/206 14/290/206
f 88/286/207 240/321/207 243/325/207 89/288/207
f 87/284/208 237/318/208 240/321/208 88/286/208
f 246/331/209 247/332/209 250/333/209 249/334/209
f 247/335/210 248/336/210 251/337/210 250/338/210
f 249/339/211 250/340/211 253/341/211 252/342/211
f 250/340/212 251/343/212 254/344/212 253/341/212
f 15/296/213 98/294/213 246/331/213 99/345/213
f 98/294/214 97/293/214 247/332/214 246/331/214
f 97/293/215 96/292/215 248/346/215 247/332/215
f 96/291/216 14/290/216 95/330/216 248/336/216
f 248/336/217 95/330/217 94/329/217 251/337/217
f 251/337/218 94/329/218 93/328/218 254/347/218
f 254/347/219 93/328/219 13/327/219 104/348/219
f 253/341/220 254/344/220 104/161/220 103/160/220
f 252/342/221 253/341/221 103/160/221 102/159/221
f 101/349/222 252/342/222 102/159/222 16/158/222
f 100/313/223 249/350/223 252/351/223 101/314/223
f 99/312/224 246/352/224 249/350/224 100/313/224
f 255/353/225 256/354/225 259/355/225 258/356/225
f 256/354/226 257/357/226 260/358/226 259/355/226
f 258/356/227 259/355/227 262/359/227 261/360/227
f 259/361/228 260/362/228 263/363/228 262/364/228
f 5/129/229 50/365/229 255/353/229 53/130/229
f 50/365/230 49/366/230 256/354/230 255/353/230
f 49/366/231 48/367/231 257/357/231 256/354/231
f 48/367/232 20/86/232 117/88/232 257/357/232
f 257/357/233 117/88/233 118/105/233 260/358/233
f 260/362/234 118/368/234 119/103/234 263/363/234
f 263/363/235 119/103/235 17/104/235 107/369/235
f 262/364/236 263/363/236 107/369/236 106/370/236
f 261/371/237 262/364/237 106/370/237 105/372/237
f 51/132/238 261/360/238 105/373/238 1/134/238
f 52/131/239 258/356/239 261/360/239 51/132/239
f 53/130/240 255/353/240 258/356/240 52/131/240
f 264/374/241 265/375/241 268/376/241 267/377/241
f 265/375/242 266/378/242 269/379/242 268/376/242
f 267/377/243 268/376/243 271/380/243 270/381/243
f 268/376/244 269/379/244 272/382/244 271/380/244
f 7/383/245 41/384/245 264/374/245 44/385/245
f 41/384/246 40/386/246 265/375/246 264/374/246
f 40/386/247 39/387/247 266/378/247 265/375/247
f 39/387/248 19/54/248 120/66/248 266/378/248
f 266/378/249 120/66/249 121/76/249 269/379/249
f 269/379/250 121/76/250 122/74/250 272/382/250
f 272/382/251 122/74/251 20/75/251 48/388/251
f 271/380/252 272/382/252 48/388/252 49/389/252
f 270/381/253 271/380/253 49/389/253 50/390/253
f 42/128/254 270/391/254 50/365/254 5/129/254
f 43/392/255 267/377/255 270/381/255 42/393/255
f 44/385/256 264/374/256 267/377/256 43/392/256
f 273/394/257 274/395/257 277/396/257 276/397/257
f 274/395/258 275/398/258 278/399/258 277/396/258
f 276/397/259 277/396/259 280/400/259 279/401/259
f 277/396/260 278/399/260 281/402/260 280/400/260
f 3/116/261 32/403/261 273/394/261 35/117/261
f 32/403/262 31/404/262 274/395/262 273/394/262
f 31/404/263 30/405/263 275/398/263 274/395/263
f 30/405/264 18/35/264 123/37/264 275/398/264
f 275/398/265 123/37/265 124/55/265 278/399/265
f 278/399/266 124/55/266 125/56/266 281/402/266
f 281/406/267 125/53/267 19/54/267 39/387/267
f 280/407/268 281/406/268 39/387/268 40/386/268
f 279/401/269 280/400/269 40/408/269 41/409/269
f 33/122/270 279/401/270 41/409/270 7/124/270
f 34/120/271 276/397/271 279/401/271 33/122/271
f 35/117/272 273/394/272 276/397/272 34/120/272
f 282/410/273 283/411/273 286/412/273 285/413/273
f 283/411/274 284/414/274 287/415/274 286/412/274
f 285/413/275 286/412/275 289/416/275 288/417/275
f 286/412/276 287/415/276 290/418/276 289/416/276
f 1/419/277 105/420/277 282/410/277 23/421/277
f 105/420/278 106/422/278 283/411/278 282/410/278
f 106/422/279 107/423/279 284/414/279 283/411/279
f 107/423/280 17/10/280 126/12/280 284/414/280
f 284/414/281 126/12/281 127/25/281 287/415/281
f 287/415/282 127/25/282 128/23/282 290/418/282
f 290/418/283 128/23/283 18/24/283 30/424/283
f 289/416/284 290/418/284 30/424/284 31/425/284
f 288/417/285 289/416/285 31/425/285 32/426/285
f 21/427/286 288/417/286 32/426/286 3/428/286
f 22/429/287 285/413/287 288/417/287 21/427/287
f 23/421/288 282/410/288 285/413/288 22/429/288
