# Blender 5.1.2
# www.blender.org
mtllib DoorFrame.mtl
o WallALLColumns.001
v -0.700000 5.000000 29.000000
v -0.700000 5.000000 19.000000
v 0.700000 5.000000 29.000000
v 0.700000 5.000000 19.000000
v -0.700000 0.000000 29.000000
v -0.700000 0.000000 19.000000
v 0.700000 0.000000 19.000000
v 0.700000 0.000000 29.000000
v -0.700000 -2.500000 19.000000
v 0.700000 -2.500000 19.000000
v 0.700000 -2.500000 29.000000
v -0.700000 -2.500000 29.000000
v -0.700000 0.000000 30.260527
v -0.700000 5.000000 30.260527
v 0.700000 -2.500000 30.260527
v 0.700000 -5.000000 30.260527
v -0.700000 -5.000000 30.260527
v 0.700000 5.000000 30.260527
v -0.700000 -2.500000 30.260527
v 0.700000 0.000000 30.260527
v -0.700000 6.000000 29.000000
v -0.700000 6.000000 19.000000
v 0.700000 6.000000 19.000000
v 0.700000 6.000000 29.000000
v 0.700000 6.000000 30.260527
v -0.700000 6.000000 30.260527
v 1.700000 5.000000 19.000000
v 1.700000 5.000000 29.000000
v 1.700000 6.000000 29.000000
v 1.700000 0.000000 29.000000
v 1.700000 -2.500000 29.000000
v 1.700000 5.000000 30.260527
v 1.700000 0.000000 30.260527
v 1.700000 -2.500000 30.260527
v 1.700000 6.000000 19.000000
v 1.700000 6.000000 30.260527
v 1.700000 -2.500000 29.000000
v 2.700000 -5.000000 29.000000
v 1.700000 -2.500000 30.260527
v 2.700000 -5.000000 30.260527
v -0.700000 -2.500000 18.000000
v -0.700000 -5.000000 18.000000
v 0.700000 -5.000000 18.000000
v -0.700000 5.000000 18.000000
v 0.700000 5.000000 18.000000
v 0.700000 -2.500000 18.000000
v -0.700000 0.000000 18.000000
v 0.700000 0.000000 18.000000
v -0.700000 6.000000 18.000000
v 0.700000 6.000000 18.000000
v 2.700000 -5.000000 19.000000
v 2.700000 -5.000000 18.000000
v 1.700000 -2.500000 19.000000
v 1.700000 5.000000 19.000000
v 1.700000 0.000000 19.000000
v 1.700000 6.000000 18.000000
v 1.700000 6.000000 19.000000
v 1.700000 5.000000 18.000000
v 1.700000 -2.500000 18.000000
v 1.700000 0.000000 18.000000
v -0.700000 2.500000 29.000000
v 0.700000 2.500000 29.000000
v -0.700000 2.500000 30.260527
v 0.700000 2.500000 30.260527
v 1.700000 2.500000 29.000000
v 1.700000 2.500000 30.260527
v -0.700000 2.500000 19.000000
v 0.700000 2.500000 19.000000
v -0.700000 2.500000 18.000000
v 0.700000 2.500000 18.000000
v 1.700000 2.500000 19.000000
v 1.700000 2.500000 18.000000
v -0.700000 5.000000 27.000000
v -0.700000 5.000000 25.000000
v -0.700000 5.000000 23.000000
v -0.700000 5.000000 21.000000
v 0.700000 5.000000 21.000000
v 0.700000 5.000000 23.000000
v 0.700000 5.000000 25.000000
v 0.700000 5.000000 27.000000
v -0.700000 6.000000 27.000000
v -0.700000 6.000000 25.000000
v -0.700000 6.000000 23.000000
v -0.700000 6.000000 21.000000
v 0.700000 6.000000 21.000000
v 0.700000 6.000000 23.000000
v 0.700000 6.000000 25.000000
v 0.700000 6.000000 27.000000
v 1.700000 5.000000 21.000000
v 1.700000 5.000000 23.000000
v 1.700000 5.000000 25.000000
v 1.700000 5.000000 27.000000
v 1.700000 6.000000 21.000000
v 1.700000 6.000000 23.000000
v 1.700000 6.000000 25.000000
v 1.700000 6.000000 27.000000
v -0.700000 -3.750000 18.000000
v 0.700000 -3.750000 18.000000
v 2.200000 -3.750000 19.000000
v 2.200000 -3.750000 18.000000
v 0.700000 -3.750000 30.260527
v -0.700000 -3.750000 30.260527
v 2.200000 -3.750000 29.000000
v 2.200000 -3.750000 30.260527
v -0.700000 -5.000000 29.000000
v -0.700000 -5.000000 19.000000
v 0.700000 -5.000000 29.000000
v 0.700000 -5.000000 19.000000
v -0.700000 -3.750000 19.000000
v 0.700000 -3.750000 19.000000
v 0.700000 -3.750000 29.000000
v -0.700000 -3.750000 29.000000
vn -1.0000 -0.0000 -0.0000
vn -0.0000 -0.0000 -1.0000
vn -0.0000 -0.0000 1.0000
vn -0.0000 -1.0000 -0.0000
vn -0.0000 1.0000 -0.0000
vn 1.0000 -0.0000 -0.0000
vn 0.9285 0.3714 -0.0000
vt 0.460335 0.399182
vt 0.460335 0.348576
vt 0.500820 0.348576
vt 0.500820 0.399182
vt 0.055486 0.146151
vt 0.055486 0.247363
vt 0.004453 0.247363
vt 0.004453 0.146151
vt 0.610939 0.085423
vt 0.509727 0.085423
vt 0.509727 0.044938
vt 0.610939 0.044938
vt 0.055486 0.348576
vt 0.004453 0.348576
vt 0.460335 0.146151
vt 0.460335 0.044938
vt 0.500820 0.044938
vt 0.500820 0.146151
vt 0.863971 0.686220
vt 0.813364 0.686220
vt 0.813364 0.645735
vt 0.863971 0.625493
vt 0.055486 0.399182
vt 0.055486 0.449788
vt 0.004453 0.449788
vt 0.004453 0.399182
vt 0.610939 0.515374
vt 0.509727 0.515374
vt 0.509727 0.458695
vt 0.610939 0.458695
vt 0.813364 0.515374
vt 0.712152 0.515374
vt 0.712152 0.458695
vt 0.813364 0.458695
vt 0.863970 0.515374
vt 0.863970 0.458695
vt 0.647376 0.308112
vt 0.590697 0.308112
vt 0.590697 0.257080
vt 0.647376 0.257080
vt 0.833607 0.207688
vt 0.914577 0.207688
vt 0.914577 0.248173
vt 0.833607 0.248173
vt 0.813364 0.555859
vt 0.712152 0.555859
vt 0.631182 0.851378
vt 0.631182 0.908057
vt 0.550212 0.908057
vt 0.550212 0.851378
vt 0.499180 0.908057
vt 0.499180 0.851378
vt 0.055486 0.044938
vt 0.004453 0.044938
vt 0.004453 0.004453
vt 0.055486 0.004453
vt 0.136456 0.044938
vt 0.136456 0.004453
vt 0.469242 0.515374
vt 0.469242 0.458695
vt 0.449788 0.867572
vt 0.490273 0.867572
vt 0.490273 0.948542
vt 0.449788 0.948542
vt 0.085423 0.499082
vt 0.004453 0.499082
vt 0.004453 0.458695
vt 0.085423 0.458695
vt 0.409303 0.600050
vt 0.409303 0.499082
vt 0.460335 0.499082
vt 0.460335 0.600050
vt 0.409303 0.801986
vt 0.409303 0.701018
vt 0.460335 0.701018
vt 0.460335 0.801986
vt 0.409303 0.458695
vt 0.460335 0.458695
vt 0.813364 0.085423
vt 0.712152 0.085423
vt 0.712152 0.044938
vt 0.813364 0.044938
vt 0.550212 0.810893
vt 0.631182 0.810893
vt 0.610939 0.555859
vt 0.499180 0.810893
vt 0.509727 0.555859
vt 0.469242 0.555859
vt 0.561617 0.368051
vt 0.509727 0.368051
vt 0.509727 0.317019
vt 0.561617 0.317019
vt 0.863970 0.085423
vt 0.863970 0.024696
vt 0.914577 0.515374
vt 0.914577 0.596344
vt 0.863970 0.576101
vt 0.509727 0.308112
vt 0.509727 0.257080
vt 0.610939 0.742899
vt 0.509727 0.742899
vt 0.509727 0.686220
vt 0.610939 0.686220
vt 0.813364 0.742899
vt 0.712152 0.742899
vt 0.712152 0.686220
vt 0.863971 0.742899
vt 0.469242 0.742899
vt 0.469242 0.686220
vt 0.460335 0.247363
vt 0.500820 0.247363
vt 0.004453 0.867572
vt 0.044938 0.867572
vt 0.044938 0.908057
vt 0.004453 0.908057
vt 0.460335 0.004453
vt 0.500820 0.004453
vt 0.449788 0.810893
vt 0.490273 0.810893
vt 0.995547 0.851378
vt 0.955062 0.851378
vt 0.955062 0.810893
vt 0.995547 0.810893
vt 0.955062 0.908057
vt 0.995547 0.908057
vt 0.864423 0.751806
vt 0.916313 0.751806
vt 0.916313 0.792291
vt 0.864423 0.792291
vt 0.469242 0.751806
vt 0.509629 0.751806
vt 0.509629 0.792291
vt 0.469242 0.792291
vt 0.610598 0.751806
vt 0.711566 0.751806
vt 0.711566 0.792291
vt 0.610598 0.792291
vt 0.812534 0.751806
vt 0.812534 0.792291
vt 0.399182 0.867572
vt 0.399182 0.928300
vt 0.469242 0.645735
vt 0.509727 0.645735
vt 0.712152 0.645735
vt 0.146151 0.867572
vt 0.247363 0.867572
vt 0.247363 0.908057
vt 0.146151 0.908057
vt 0.348576 0.867572
vt 0.348576 0.908057
vt 0.610939 0.645735
vt 0.833607 0.151009
vt 0.914577 0.151009
vt 0.146151 0.810893
vt 0.044938 0.810893
vt 0.348576 0.810893
vt 0.247363 0.810893
vt 0.399182 0.810893
vt 0.610939 0.142102
vt 0.509727 0.142102
vt 0.813364 0.142102
vt 0.712152 0.142102
vt 0.509727 0.151009
vt 0.590697 0.151009
vt 0.590697 0.207688
vt 0.509727 0.207688
vt 0.671667 0.151009
vt 0.671667 0.207688
vt 0.752637 0.151009
vt 0.752637 0.207688
vt 0.874092 0.851378
vt 0.874092 0.810893
vt 0.793122 0.851378
vt 0.793122 0.810893
vt 0.712152 0.851378
vt 0.712152 0.810893
vt 0.328333 0.499082
vt 0.328333 0.458695
vt 0.247363 0.499082
vt 0.247363 0.458695
vt 0.166393 0.499082
vt 0.166393 0.458695
vt 0.379365 0.044938
vt 0.379365 0.004453
vt 0.298396 0.044938
vt 0.298396 0.004453
vt 0.217426 0.044938
vt 0.217426 0.004453
vt 0.874092 0.908057
vt 0.793122 0.908057
vt 0.712152 0.908057
vt 0.590697 0.248173
vt 0.509727 0.248173
vt 0.671667 0.248173
vt 0.752637 0.248173
vt 0.914577 0.742899
vt 0.914577 0.686220
vt 0.914577 0.605250
vt 0.460335 0.449788
vt 0.500820 0.449788
vt 0.863970 0.142102
vt 0.914577 0.085423
vt 0.914577 0.004453
vt 0.613506 0.368051
vt 0.613506 0.317019
vt 0.914577 0.458695
vt 0.914577 0.142102
s 0
f 109/1/1 9/2/1 41/3/1 97/4/1
f 61/5/1 5/6/1 13/7/1 63/8/1
f 62/9/2 3/10/2 28/11/2 65/12/2
f 5/6/1 12/13/1 19/14/1 13/7/1
f 67/15/1 2/16/1 44/17/1 69/18/1
f 98/19/2 46/20/2 59/21/2 100/22/2
f 112/23/1 105/24/1 17/25/1 102/26/1
f 64/27/3 18/28/3 14/29/3 63/30/3
f 15/31/3 20/32/3 13/33/3 19/34/3
f 101/35/3 15/31/3 19/34/3 102/36/3
f 105/37/4 107/38/4 16/39/4 17/40/4
f 77/41/4 4/42/4 27/43/4 89/44/4
f 20/32/3 15/31/3 34/45/3 33/46/3
f 88/47/5 81/48/5 21/49/5 24/50/5
f 24/50/5 21/49/5 26/51/5 25/52/5
f 1/53/1 14/54/1 26/55/1 21/56/1
f 73/57/1 1/53/1 21/56/1 81/58/1
f 14/29/3 18/28/3 25/59/3 26/60/3
f 108/61/4 43/62/4 52/63/4 51/64/4
f 89/65/6 27/66/6 35/67/6 93/68/6
f 65/69/6 28/70/6 32/71/6 66/72/6
f 31/73/6 30/74/6 33/75/6 34/76/6
f 32/71/6 28/70/6 29/77/6 36/78/6
f 11/79/2 8/80/2 30/81/2 31/82/2
f 88/47/5 24/50/5 29/83/5 96/84/5
f 64/27/3 20/32/3 33/46/3 66/85/3
f 24/50/5 25/52/5 36/86/5 29/83/5
f 25/59/3 18/28/3 32/87/3 36/88/3
f 103/89/7 37/90/7 39/91/7 104/92/7
f 111/93/2 11/79/2 37/82/2 103/94/2
f 101/35/3 16/95/3 40/96/3 104/97/3
f 16/39/4 107/38/4 38/98/4 40/99/4
f 69/100/2 44/101/2 45/102/2 70/103/2
f 41/104/2 47/105/2 48/106/2 46/20/2
f 97/107/2 41/104/2 46/20/2 98/19/2
f 45/102/2 44/101/2 49/108/2 50/109/2
f 9/2/1 6/110/1 47/111/1 41/3/1
f 23/112/3 4/113/3 54/114/3 57/115/3
f 2/16/1 22/116/1 49/117/1 44/17/1
f 108/61/4 106/118/4 42/119/4 43/62/4
f 50/120/5 23/121/5 57/122/5 56/123/5
f 22/124/5 23/121/5 50/120/5 49/125/5
f 99/126/7 51/127/7 52/128/7 100/129/7
f 57/130/6 54/131/6 58/132/6 56/133/6
f 71/134/6 55/135/6 60/136/6 72/137/6
f 55/135/6 53/138/6 59/139/6 60/136/6
f 110/140/3 108/61/3 51/64/3 99/141/3
f 45/102/2 50/109/2 56/142/2 58/143/2
f 46/20/2 48/106/2 60/144/2 59/21/2
f 68/145/3 7/146/3 55/147/3 71/148/3
f 7/146/3 10/149/3 53/150/3 55/147/3
f 70/103/2 45/102/2 58/143/2 72/151/2
f 76/152/4 2/153/4 4/42/4 77/41/4
f 67/154/3 68/145/3 4/113/3 2/155/3
f 9/156/3 10/149/3 7/146/3 6/157/3
f 109/158/3 110/140/3 10/149/3 9/156/3
f 61/159/2 1/160/2 3/10/2 62/9/2
f 12/161/2 5/162/2 8/80/2 11/79/2
f 5/162/2 61/159/2 62/9/2 8/80/2
f 18/28/3 64/27/3 66/85/3 32/87/3
f 30/74/6 65/69/6 66/72/6 33/75/6
f 20/32/3 64/27/3 63/30/3 13/33/3
f 8/80/2 62/9/2 65/12/2 30/81/2
f 1/53/1 61/5/1 63/8/1 14/54/1
f 6/157/3 7/146/3 68/145/3 67/154/3
f 48/106/2 70/103/2 72/151/2 60/144/2
f 4/113/3 68/145/3 71/148/3 54/114/3
f 54/131/6 71/134/6 72/137/6 58/132/6
f 47/105/2 69/100/2 70/103/2 48/106/2
f 6/110/1 67/15/1 69/18/1 47/111/1
f 1/163/4 73/164/4 80/165/4 3/166/4
f 73/164/4 74/167/4 79/168/4 80/165/4
f 74/167/4 75/169/4 78/170/4 79/168/4
f 75/169/4 76/152/4 77/41/4 78/170/4
f 23/121/5 85/171/5 93/172/5 35/122/5
f 85/171/5 86/173/5 94/174/5 93/172/5
f 86/173/5 87/175/5 95/176/5 94/174/5
f 87/175/5 88/47/5 96/84/5 95/176/5
f 28/70/6 92/177/6 96/178/6 29/77/6
f 92/177/6 91/179/6 95/180/6 96/178/6
f 91/179/6 90/181/6 94/182/6 95/180/6
f 90/181/6 89/65/6 93/68/6 94/182/6
f 2/16/1 76/183/1 84/184/1 22/116/1
f 76/183/1 75/185/1 83/186/1 84/184/1
f 75/185/1 74/187/1 82/188/1 83/186/1
f 74/187/1 73/57/1 81/58/1 82/188/1
f 23/121/5 22/124/5 84/189/5 85/171/5
f 85/171/5 84/189/5 83/190/5 86/173/5
f 86/173/5 83/190/5 82/191/5 87/175/5
f 87/175/5 82/191/5 81/48/5 88/47/5
f 3/166/4 80/165/4 92/192/4 28/193/4
f 80/165/4 79/168/4 91/194/4 92/192/4
f 79/168/4 78/170/4 90/195/4 91/194/4
f 78/170/4 77/41/4 89/44/4 90/195/4
f 10/149/3 110/140/3 99/141/3 53/150/3
f 53/138/7 99/126/7 100/129/7 59/139/7
f 42/196/2 97/107/2 98/19/2 43/197/2
f 43/197/2 98/19/2 100/22/2 52/198/2
f 106/199/1 109/1/1 97/4/1 42/200/1
f 11/79/2 111/93/2 112/201/2 12/161/2
f 15/31/3 101/35/3 104/97/3 39/45/3
f 107/202/2 111/93/2 103/94/2 38/203/2
f 38/204/7 103/89/7 104/92/7 40/205/7
f 16/95/3 101/35/3 102/36/3 17/206/3
f 12/13/1 112/23/1 102/26/1 19/14/1
f 111/93/2 107/202/2 105/207/2 112/201/2
f 106/118/3 108/61/3 110/140/3 109/158/3
