# Blender 5.1.2
# www.blender.org
mtllib CorridorMiddle.mtl
o WallALLColumns.005
v 7.375377 5.743387 -1.745290
v 7.375377 5.743388 1.518439
v 6.808770 5.743387 -1.745290
v 6.808770 5.743388 1.518439
v 7.375377 2.348302 -1.745292
v 7.375377 2.348302 1.518439
v 6.808770 2.348302 1.518439
v 6.808770 2.348302 -1.745292
v 7.375377 0.650759 1.518439
v 6.808770 0.650759 1.518439
v 6.808770 0.650759 -1.745292
v 7.375377 0.650759 -1.745292
v 7.375377 2.348302 -2.156694
v 7.375377 5.743387 -2.156692
v 6.808770 0.650759 -2.156694
v 6.808770 -1.084435 -2.156694
v 7.375377 -1.084435 -2.156694
v 6.808770 5.743387 -2.156692
v 7.375377 0.650759 -2.156694
v 6.808770 2.348302 -2.156694
v 7.375377 6.422404 -1.745290
v 7.375377 6.422405 1.518439
v 6.808770 6.422404 -2.156692
v 7.375377 6.422404 -2.156692
v 6.404051 5.743388 1.518439
v 6.404051 5.743387 -1.745290
v 6.404051 6.422404 -1.745290
v 6.404051 2.348302 -1.745292
v 6.404051 0.650759 -1.745292
v 6.404051 5.743387 -2.156692
v 6.404051 2.348302 -2.156694
v 6.404051 0.650759 -2.156694
v 6.404051 6.422405 1.518439
v 6.404051 6.422404 -2.156692
v 6.405812 -1.084435 -1.745292
v 6.405812 -1.084435 -2.156694
v 7.375377 0.650759 1.844813
v 7.375377 -1.084435 1.844813
v 6.808770 -1.084435 1.844813
v 7.375377 5.743388 1.844813
v 6.808770 5.743388 1.844813
v 6.808770 0.650759 1.844813
v 7.375377 2.348302 1.844813
v 6.808770 2.348302 1.844813
v 7.375377 6.422405 1.844813
v 6.808770 6.422405 1.844813
v 6.405812 -1.084435 1.518439
v 6.405812 -1.084435 1.844813
v 6.404051 0.650759 1.518439
v 6.404051 2.348302 1.518439
v 6.404051 6.422405 1.844813
v 6.404051 5.743388 1.844813
v 6.404051 0.650759 1.844813
v 6.404051 2.348302 1.844813
v 7.375377 4.045845 -1.745292
v 6.808770 4.045845 -1.745292
v 7.375377 4.045845 -2.156692
v 6.808770 4.045845 -2.156692
v 6.404051 4.045845 -1.745292
v 6.404051 4.045845 -2.156692
v 7.375377 4.045845 1.518439
v 6.808770 4.045845 1.518439
v 7.375377 4.045845 1.844813
v 6.808770 4.045845 1.844813
v 6.404051 4.045845 1.518439
v 6.404051 4.045845 1.844813
v 7.375377 5.743387 -1.092546
v 7.375377 5.743387 -0.439798
v 7.375377 5.743387 0.212951
v 7.375377 5.743387 0.865695
v 6.808770 5.743387 0.865695
v 6.808770 5.743387 0.212950
v 6.808770 5.743387 -0.439798
v 6.808770 5.743387 -1.092546
v 7.375377 6.422405 -1.092542
v 7.375377 6.422405 -0.439798
v 7.375377 6.422405 0.212951
v 7.375377 6.422405 0.865695
v 6.404051 5.743387 0.865695
v 6.404051 5.743387 0.212950
v 6.404051 5.743387 -0.439798
v 6.404051 5.743387 -1.092546
v 6.404051 6.422405 0.865695
v 6.404051 6.422405 0.212950
v 6.404051 6.422405 -0.439798
v 6.404051 6.422405 -1.092542
v 7.375377 -0.198012 1.844813
v 6.808770 -0.198012 1.844813
v 6.407978 -0.198012 1.518439
v 6.407978 -0.198012 1.844813
v 6.808770 -0.198012 -2.156694
v 7.375377 -0.198012 -2.156694
v 6.407978 -0.198012 -1.745292
v 6.407978 -0.198012 -2.156694
v 7.375377 -1.084435 -1.745292
v 7.375377 -1.084435 1.518439
v 6.808770 -1.084435 -1.745292
v 6.808770 -1.084435 1.518439
v 7.375377 -0.198012 1.518439
v 6.808770 -0.198012 1.518439
v 6.808770 -0.198012 -1.745292
v 7.375377 -0.198012 -1.745292
v 6.808770 7.337212 -1.745290
v 6.808770 7.337212 -1.092542
v 7.375377 7.337212 -1.092542
v 7.375377 7.337212 -1.745290
v 6.808770 7.337212 -2.156692
v 7.375377 7.337212 -2.156692
v 6.404051 7.337212 1.518439
v 6.404051 7.337212 0.865695
v 6.404051 7.337212 -1.745290
v 6.404051 7.337212 -2.156692
v 6.404051 7.337212 -1.092542
v 7.375377 7.337212 1.844813
v 6.808770 7.337212 1.844813
v 6.808770 7.337212 1.518439
v 7.375377 7.337212 1.518439
v 6.404051 7.337212 1.844813
v 6.808770 7.337212 0.865695
v 6.808770 7.337212 0.212950
v 6.404051 7.337212 0.212950
v 6.808770 7.337212 -0.439798
v 6.404051 7.337212 -0.439798
v 7.375377 7.337212 0.865695
v 7.375377 7.337212 0.212951
v 7.375377 7.337212 -0.439798
v 12.375377 -0.198012 1.844813
v 12.375377 -0.198012 1.518439
v 12.375377 0.650759 1.518439
v 12.375377 0.650759 1.844813
v 12.375377 4.045845 -1.745292
v 12.375377 4.045845 -2.156692
v 12.375377 2.348302 -1.745292
v 12.375377 2.348302 -2.156693
v 12.375377 0.650759 -1.745292
v 12.375377 0.650759 -2.156693
v 12.375377 4.045845 1.518439
v 12.375377 4.045845 1.844813
v 12.375377 5.743388 1.518439
v 12.375377 5.743388 1.844813
v 12.375377 -0.198012 -2.156693
v 12.375377 -0.198012 -1.745292
v 12.375377 -1.084435 -1.745292
v 12.375377 -1.084435 -2.156693
v 12.375377 5.743387 -2.156692
v 12.375377 6.422404 -1.745290
v 12.375377 6.422405 -1.092542
v 12.375377 6.422404 -2.156692
v 12.375377 5.743387 -1.745290
v 12.375377 5.743387 -1.092546
v 12.375377 2.348302 1.844813
v 12.375377 6.422405 1.844813
v 12.375377 2.348302 1.518439
v 12.375377 6.422405 1.518439
v 12.375377 -1.084435 1.844813
v 12.375377 -1.084435 1.518439
v 12.375377 5.743387 0.865695
v 12.375377 5.743387 -0.439798
v 12.375377 5.743387 0.212951
v 12.375377 6.422405 0.865695
v 12.375377 6.422405 0.212951
v 12.375377 6.422405 -0.439798
v 17.375393 -0.198012 9.151470
v 17.375393 -0.198012 7.617511
v 17.375393 0.650759 7.617511
v 17.375393 0.650759 9.151470
v 17.375397 4.045845 -7.722024
v 17.375397 4.045845 -9.655605
v 17.375397 2.348302 -7.722024
v 17.375397 2.348302 -9.655613
v 17.375397 0.650759 -7.722024
v 17.375397 0.650759 -9.655613
v 17.375393 4.045845 7.617511
v 17.375393 4.045845 9.151470
v 17.375393 5.743388 7.617511
v 17.375393 5.743388 9.151470
v 17.375397 -0.198012 -9.655613
v 17.375397 -0.198012 -7.722024
v 17.375397 -1.084435 -7.722024
v 17.375397 -1.084435 -9.655613
v 17.375397 5.743387 -9.655605
v 17.375397 6.422404 -7.722015
v 17.375395 6.422405 -4.654099
v 17.375397 6.422404 -9.655605
v 17.375397 5.743387 -7.722015
v 17.375395 5.743387 -4.654117
v 17.375393 2.348302 9.151470
v 17.375393 6.422405 9.151470
v 17.375393 2.348302 7.617511
v 17.375393 6.422405 7.617511
v 17.375393 -1.084435 9.151470
v 17.375393 -1.084435 7.617511
v 17.375395 5.743387 4.549613
v 17.375395 5.743387 -1.586201
v 17.375395 5.743387 1.481715
v 17.375395 6.422405 4.549613
v 17.375395 6.422405 1.481715
v 17.375395 6.422405 -1.586201
v 28.375393 -0.198012 9.151472
v 28.375393 -0.198012 7.617513
v 28.375393 0.650759 7.617513
v 28.375393 0.650759 9.151472
v 28.375397 4.045845 -7.722023
v 28.375397 4.045845 -9.655603
v 28.375397 2.348302 -7.722023
v 28.375397 2.348302 -9.655611
v 28.375397 0.650759 -7.722023
v 28.375397 0.650759 -9.655611
v 28.375393 4.045845 7.617513
v 28.375393 4.045845 9.151472
v 28.375393 5.743388 7.617513
v 28.375393 5.743388 9.151472
v 28.375397 -0.198012 -9.655611
v 28.375397 -0.198012 -7.722023
v 28.375397 -1.084435 -7.722023
v 28.375397 -1.084435 -9.655611
v 28.375397 5.743387 -9.655603
v 28.375397 6.422404 -7.722014
v 28.375395 6.422405 -4.654098
v 28.375397 6.422404 -9.655603
v 28.375397 5.743387 -7.722014
v 28.375395 5.743387 -4.654116
v 28.375393 2.348302 9.151472
v 28.375393 6.422405 9.151472
v 28.375393 2.348302 7.617513
v 28.375393 6.422405 7.617513
v 28.375393 -1.084435 9.151472
v 28.375393 -1.084435 7.617513
v 28.375393 5.743387 4.549615
v 28.375395 5.743387 -1.586199
v 28.375395 5.743387 1.481717
v 28.375393 6.422405 4.549615
v 28.375395 6.422405 1.481717
v 28.375395 6.422405 -1.586199
v 39.375393 -0.198012 9.151474
v 39.375393 -0.198012 7.617515
v 39.375393 0.650759 7.617515
v 39.375393 0.650759 9.151474
v 39.375397 4.045845 -7.722021
v 39.375397 4.045845 -9.655602
v 39.375397 2.348302 -7.722021
v 39.375397 2.348302 -9.655609
v 39.375397 0.650759 -7.722021
v 39.375397 0.650759 -9.655609
v 39.375393 4.045845 7.617515
v 39.375393 4.045845 9.151474
v 39.375393 5.743388 7.617515
v 39.375393 5.743388 9.151474
v 39.375397 -0.198012 -9.655609
v 39.375397 -0.198012 -7.722021
v 39.375397 -1.084435 -7.722021
v 39.375397 -1.084435 -9.655609
v 39.375397 5.743387 -9.655602
v 39.375397 6.422404 -7.722012
v 39.375397 6.422405 -4.654096
v 39.375397 6.422404 -9.655602
v 39.375397 5.743387 -7.722012
v 39.375397 5.743387 -4.654114
v 39.375393 2.348302 9.151474
v 39.375393 6.422405 9.151474
v 39.375393 2.348302 7.617515
v 39.375393 6.422405 7.617515
v 39.375393 -1.084435 9.151474
v 39.375393 -1.084435 7.617515
v 39.375397 5.743387 4.549617
v 39.375397 5.743387 -1.586198
v 39.375397 5.743387 1.481718
v 39.375397 6.422405 4.549617
v 39.375397 6.422405 1.481718
v 39.375397 6.422405 -1.586198
v 35.708729 5.743387 -9.655602
v 32.042065 5.743387 -9.655602
v 32.042061 6.422404 -9.655602
v 35.708729 6.422404 -9.655602
v 35.708725 4.045845 9.151472
v 32.042061 4.045845 9.151472
v 32.042061 2.348302 9.151472
v 35.708725 2.348302 9.151472
v 35.708729 0.650759 -7.722022
v 32.042065 0.650759 -7.722022
v 32.042061 -0.198012 -7.722022
v 35.708729 -0.198012 -7.722022
v 35.708729 2.348302 7.617514
v 32.042061 2.348302 7.617514
v 32.042061 4.045845 7.617514
v 35.708725 4.045845 7.617514
v 35.708729 0.650759 -9.655611
v 32.042065 0.650759 -9.655611
v 32.042061 2.348302 -9.655611
v 35.708729 2.348302 -9.655611
v 35.708729 -1.084435 7.617514
v 32.042061 -1.084435 7.617514
v 32.042061 -0.198012 7.617514
v 35.708725 -0.198012 7.617514
v 35.708729 5.743387 -7.722013
v 32.042065 5.743387 -7.722013
v 32.042061 4.045845 -7.722022
v 35.708729 4.045845 -7.722022
v 35.708725 -0.198012 9.151472
v 32.042061 -0.198012 9.151472
v 32.042061 -1.084435 9.151472
v 35.708725 -1.084435 9.151472
v 32.042061 5.743388 7.617514
v 35.708725 5.743388 7.617514
v 32.042061 5.743387 -4.654115
v 35.708729 5.743387 -4.654114
v 35.708729 5.743387 -1.586198
v 32.042061 5.743387 -1.586199
v 35.708729 5.743387 1.481718
v 32.042061 5.743387 1.481717
v 35.708725 5.743388 9.151472
v 32.042061 5.743388 9.151472
v 35.708729 5.743387 4.549616
v 32.042061 5.743387 4.549616
v 32.042061 0.650759 7.617514
v 35.708725 0.650759 7.617514
v 32.042061 0.650759 9.151472
v 35.708725 0.650759 9.151472
v 35.708725 6.422405 9.151472
v 32.042061 6.422405 9.151472
v 32.042061 -1.084435 -7.722022
v 35.708729 -1.084435 -7.722022
v 32.042061 6.422405 7.617514
v 35.708725 6.422405 7.617514
v 35.708729 6.422405 4.549616
v 32.042061 6.422405 4.549616
v 32.042061 -1.084435 -9.655611
v 35.708729 -1.084435 -9.655611
v 32.042061 -0.198012 -9.655611
v 35.708729 -0.198012 -9.655611
v 35.708729 6.422405 1.481718
v 32.042061 6.422405 1.481717
v 32.042061 2.348302 -7.722022
v 35.708729 2.348302 -7.722022
v 35.708729 4.045845 -9.655602
v 32.042065 4.045845 -9.655602
v 35.708729 6.422405 -1.586198
v 32.042061 6.422405 -1.586199
v 32.042061 6.422405 -4.654097
v 35.708729 6.422405 -4.654097
v 35.708729 6.422404 -7.722013
v 32.042065 6.422404 -7.722013
v 35.708729 0.650761 -9.598785
v 32.042065 0.650761 -9.598785
v 32.042061 -0.198010 -9.598785
v 35.708729 -0.198010 -9.598785
v 35.708729 5.743389 -9.598778
v 32.042065 5.743389 -9.598778
v 32.042061 4.045847 -9.598785
v 35.708729 4.045847 -9.598785
v 32.042061 -1.084433 -9.598785
v 35.708729 -1.084433 -9.598785
v 32.042061 2.348304 -9.598785
v 35.708729 2.348304 -9.598785
v 27.000000 -1.082510 3.252691
v 27.000000 5.955491 3.252691
v 23.747309 -1.082510 -0.000000
v 23.747309 5.955491 -0.000000
v 30.252691 -1.082510 -0.000000
v 30.252691 5.955491 -0.000000
v 27.000000 -1.082510 -3.252691
v 27.000000 5.955491 -3.252691
v 8.625377 5.743387 0.865695
v 9.875377 5.743387 0.865695
v 11.125377 5.743387 0.865695
v 8.625377 -0.198012 -2.156694
v 9.875377 -0.198012 -2.156694
v 11.125377 -0.198012 -2.156693
v 11.125377 6.422405 -1.092542
v 9.875377 6.422405 -1.092542
v 8.625377 6.422405 -1.092542
v 11.125377 2.348302 -1.745292
v 9.875377 2.348302 -1.745292
v 8.625377 2.348302 -1.745292
v 11.125377 6.422404 -2.156692
v 9.875377 6.422404 -2.156692
v 8.625377 6.422404 -2.156692
v 8.625377 6.422404 -1.745290
v 9.875377 6.422404 -1.745290
v 11.125377 6.422404 -1.745290
v 8.625377 -1.084435 -2.156694
v 9.875377 -1.084435 -2.156694
v 11.125377 -1.084435 -2.156693
v 11.125377 6.422405 -0.439798
v 9.875377 6.422405 -0.439798
v 8.625377 6.422405 -0.439798
v 8.625377 6.422405 0.212951
v 9.875377 6.422405 0.212951
v 11.125377 6.422405 0.212951
v 11.125377 5.743387 0.212951
v 9.875377 5.743387 0.212951
v 8.625377 5.743387 0.212951
v 8.625377 5.743387 -0.439798
v 9.875377 5.743387 -0.439798
v 11.125377 5.743387 -0.439798
v 11.125377 0.650759 -1.745292
v 9.875377 0.650759 -1.745292
v 8.625377 0.650759 -1.745292
v 11.125377 -1.084435 1.844813
v 9.875377 -1.084435 1.844813
v 8.625377 -1.084435 1.844813
v 8.625377 -1.084435 1.518439
v 9.875377 -1.084435 1.518439
v 11.125377 -1.084435 1.518439
v 11.125377 -0.198012 -1.745292
v 9.875377 -0.198012 -1.745292
v 8.625377 -0.198012 -1.745292
v 8.625377 -1.084435 -1.745292
v 9.875377 -1.084435 -1.745292
v 11.125377 -1.084435 -1.745292
v 11.125377 5.743388 1.518439
v 9.875377 5.743388 1.518439
v 8.625377 5.743388 1.518439
v 8.625377 2.348302 -2.156694
v 9.875377 2.348302 -2.156694
v 11.125377 2.348302 -2.156693
v 11.125377 0.650759 -2.156693
v 9.875377 0.650759 -2.156693
v 8.625377 0.650759 -2.156693
v 8.625377 0.650759 1.518439
v 9.875377 0.650759 1.518439
v 11.125377 0.650759 1.518439
v 11.125377 -0.198012 1.518439
v 9.875377 -0.198012 1.518439
v 8.625377 -0.198012 1.518439
v 8.625377 5.743388 1.844813
v 9.875377 5.743388 1.844813
v 11.125377 5.743388 1.844813
v 11.125377 6.422405 1.844813
v 9.875377 6.422405 1.844813
v 8.625377 6.422405 1.844813
v 8.625377 4.045845 1.518439
v 9.875377 4.045845 1.518439
v 11.125377 4.045845 1.518439
v 11.125377 2.348302 1.518439
v 9.875377 2.348302 1.518439
v 8.625377 2.348302 1.518439
v 11.125377 5.743387 -2.156692
v 9.875377 5.743387 -2.156692
v 8.625377 5.743387 -2.156692
v 8.625377 -0.198012 1.844813
v 9.875377 -0.198012 1.844813
v 11.125377 -0.198012 1.844813
v 11.125377 0.650759 1.844813
v 9.875377 0.650759 1.844813
v 8.625377 0.650759 1.844813
v 11.125377 4.045845 -2.156692
v 9.875377 4.045845 -2.156692
v 8.625377 4.045845 -2.156692
v 8.625377 5.743387 -1.745290
v 9.875377 5.743387 -1.745290
v 11.125377 5.743387 -1.745290
v 11.125377 5.743387 -1.092546
v 9.875377 5.743387 -1.092546
v 8.625377 5.743387 -1.092546
v 8.625377 4.045845 1.844813
v 9.875377 4.045845 1.844813
v 11.125377 4.045845 1.844813
v 11.125377 4.045845 -1.745292
v 9.875377 4.045845 -1.745292
v 8.625377 4.045845 -1.745292
v 8.625377 2.348302 1.844813
v 9.875377 2.348302 1.844813
v 11.125377 2.348302 1.844813
v 8.625377 6.422405 1.518439
v 9.875377 6.422405 1.518439
v 11.125377 6.422405 1.518439
v 11.125377 6.422405 0.865695
v 9.875377 6.422405 0.865695
v 8.625377 6.422405 0.865695
v 13.625381 0.650759 3.043207
v 14.875384 0.650759 4.567975
v 16.125389 0.650759 6.092743
v 16.125391 5.743387 3.628634
v 14.875386 5.743387 2.707654
v 13.625381 5.743387 1.786674
v 16.125389 5.743388 7.324806
v 14.875385 5.743388 5.498142
v 13.625381 5.743388 3.671477
v 13.625381 5.743387 -3.239471
v 14.875386 5.743387 -4.733653
v 16.125391 5.743387 -6.227834
v 16.125391 5.743387 1.164524
v 14.875386 5.743387 0.847333
v 13.625381 5.743387 0.530142
v 16.125391 5.743387 -1.299600
v 14.875386 5.743387 -1.012999
v 13.625381 5.743387 -0.726398
v 13.625381 5.743387 -1.982939
v 14.875386 5.743387 -2.873332
v 16.125391 5.743387 -3.763724
v 13.625381 5.743388 3.043207
v 14.875384 5.743388 4.567975
v 16.125389 5.743388 6.092743
v 16.125391 5.743387 -7.780877
v 14.875386 5.743387 -5.906148
v 13.625381 5.743387 -4.031420
v 13.625381 6.422404 -4.031420
v 14.875386 6.422404 -5.906148
v 16.125391 6.422404 -7.780877
v 16.125389 4.045845 7.324806
v 14.875385 4.045845 5.498142
v 13.625381 4.045845 3.671477
v 13.625381 2.348302 3.671477
v 14.875384 2.348302 5.498142
v 16.125389 2.348302 7.324806
v 16.125391 0.650759 -6.227841
v 14.875386 0.650759 -4.733658
v 13.625381 0.650759 -3.239475
v 13.625381 -0.198012 -3.239475
v 14.875386 -0.198012 -4.733658
v 16.125391 -0.198012 -6.227841
v 16.125389 2.348302 6.092743
v 14.875385 2.348302 4.567975
v 13.625381 2.348302 3.043207
v 13.625381 4.045845 3.043207
v 14.875384 4.045845 4.567975
v 16.125389 4.045845 6.092743
v 16.125389 -0.198012 6.092743
v 14.875385 -0.198012 4.567975
v 13.625381 -0.198012 3.043207
v 13.625381 0.650759 3.671477
v 14.875384 0.650759 5.498142
v 16.125389 0.650759 7.324806
v 16.125389 6.422405 7.324806
v 14.875385 6.422405 5.498142
v 13.625381 6.422405 3.671477
v 13.625381 -1.084435 -3.239475
v 14.875386 -1.084435 -4.733658
v 16.125391 -1.084435 -6.227841
v 13.625381 6.422405 3.043207
v 14.875384 6.422405 4.567975
v 16.125389 6.422405 6.092743
v 16.125391 6.422405 3.628634
v 14.875386 6.422405 2.707654
v 13.625381 6.422405 1.786674
v 13.625381 -0.198012 3.671477
v 14.875384 -0.198012 5.498142
v 16.125389 -0.198012 7.324806
v 13.625381 -1.084435 -4.031424
v 14.875386 -1.084435 -5.906154
v 16.125391 -1.084435 -7.780883
v 13.625381 -0.198012 -4.031424
v 14.875386 -0.198012 -5.906154
v 16.125391 -0.198012 -7.780883
v 16.125391 6.422405 1.164524
v 14.875386 6.422405 0.847333
v 13.625381 6.422405 0.530142
v 13.625381 2.348302 -3.239475
v 14.875386 2.348302 -4.733658
v 16.125391 2.348302 -6.227841
v 16.125391 4.045845 -6.227841
v 14.875386 4.045845 -4.733658
v 13.625381 4.045845 -3.239475
v 16.125391 4.045845 -7.780877
v 14.875386 4.045845 -5.906148
v 13.625381 4.045845 -4.031420
v 13.625381 0.650759 -4.031424
v 14.875386 0.650759 -5.906154
v 16.125391 0.650759 -7.780883
v 16.125391 6.422405 -1.299600
v 14.875386 6.422405 -1.012999
v 13.625381 6.422405 -0.726398
v 16.125391 2.348302 -7.780883
v 14.875386 2.348302 -5.906153
v 13.625381 2.348302 -4.031423
v 13.625381 -1.084435 3.043207
v 14.875384 -1.084435 4.567975
v 16.125389 -1.084435 6.092743
v 16.125389 -1.084435 7.324806
v 14.875385 -1.084435 5.498142
v 13.625381 -1.084435 3.671477
v 13.625381 6.422405 -1.982931
v 14.875386 6.422405 -2.873321
v 16.125391 6.422405 -3.763710
v 16.125391 6.422404 -6.227834
v 14.875386 6.422404 -4.733652
v 13.625381 6.422404 -3.239471
v 19.575394 5.743387 4.549614
v 21.775394 5.743387 4.549614
v 23.975393 5.743387 4.549614
v 26.175392 5.743387 4.549615
v 26.175396 2.348302 -7.722023
v 23.975395 2.348302 -7.722024
v 21.775396 2.348302 -7.722024
v 19.575397 2.348302 -7.722024
v 19.575397 0.650759 -7.722024
v 21.775398 0.650759 -7.722024
v 23.975397 0.650759 -7.722023
v 26.175396 0.650759 -7.722023
v 26.175396 6.422404 -7.722014
v 23.975395 6.422404 -7.722014
v 21.775396 6.422404 -7.722015
v 19.575397 6.422404 -7.722015
v 19.575396 6.422405 -4.654099
v 21.775394 6.422405 -4.654099
v 23.975395 6.422405 -4.654099
v 26.175396 6.422405 -4.654099
v 26.175392 -1.084435 9.151472
v 23.975391 -1.084435 9.151472
v 21.775393 -1.084435 9.151471
v 19.575394 -1.084435 9.151470
v 19.575394 -1.084435 7.617512
v 21.775394 -1.084435 7.617512
v 23.975393 -1.084435 7.617513
v 26.175392 -1.084435 7.617513
v 26.175396 2.348302 -9.655611
v 23.975395 2.348302 -9.655611
v 21.775396 2.348302 -9.655612
v 19.575397 2.348302 -9.655613
v 26.175394 6.422405 -1.586200
v 23.975395 6.422405 -1.586200
v 21.775394 6.422405 -1.586200
v 19.575394 6.422405 -1.586201
v 19.575396 6.422405 1.481715
v 21.775394 6.422405 1.481716
v 23.975395 6.422405 1.481716
v 26.175396 6.422405 1.481716
v 26.175396 -0.198012 -9.655611
v 23.975395 -0.198012 -9.655611
v 21.775396 -0.198012 -9.655612
v 19.575397 -0.198012 -9.655613
v 19.575397 0.650759 -9.655613
v 21.775398 0.650759 -9.655613
v 23.975397 0.650759 -9.655612
v 26.175396 0.650759 -9.655611
v 26.175392 6.422405 7.617513
v 23.975391 6.422405 7.617512
v 21.775393 6.422405 7.617512
v 19.575394 6.422405 7.617512
v 19.575394 6.422405 9.151470
v 21.775394 6.422405 9.151470
v 23.975393 6.422405 9.151471
v 26.175392 6.422405 9.151472
v 26.175396 4.045845 -9.655603
v 23.975395 4.045845 -9.655603
v 21.775396 4.045845 -9.655604
v 19.575397 4.045845 -9.655605
v 19.575397 5.743387 -9.655605
v 21.775398 5.743387 -9.655605
v 23.975397 5.743387 -9.655604
v 26.175396 5.743387 -9.655603
v 26.175392 5.743388 7.617513
v 23.975391 5.743388 7.617512
v 21.775393 5.743388 7.617512
v 19.575394 5.743388 7.617512
v 26.175396 6.422404 -9.655603
v 23.975395 6.422404 -9.655603
v 21.775396 6.422404 -9.655604
v 19.575397 6.422404 -9.655605
v 26.175392 -0.198012 9.151472
v 23.975391 -0.198012 9.151472
v 21.775393 -0.198012 9.151471
v 19.575394 -0.198012 9.151470
v 19.575397 4.045845 -7.722024
v 21.775398 4.045845 -7.722024
v 23.975397 4.045845 -7.722023
v 26.175396 4.045845 -7.722023
v 26.175396 5.743387 -7.722014
v 23.975395 5.743387 -7.722014
v 21.775396 5.743387 -7.722015
v 19.575397 5.743387 -7.722015
v 19.575394 -0.198012 7.617512
v 21.775394 -0.198012 7.617512
v 23.975393 -0.198012 7.617513
v 26.175392 -0.198012 7.617513
v 19.575394 4.045845 7.617512
v 21.775394 4.045845 7.617512
v 23.975393 4.045845 7.617513
v 26.175392 4.045845 7.617513
v 26.175392 2.348302 7.617513
v 23.975391 2.348302 7.617512
v 21.775393 2.348302 7.617512
v 19.575394 2.348302 7.617512
v 19.575397 -0.198012 -7.722024
v 21.775398 -0.198012 -7.722024
v 23.975397 -0.198012 -7.722023
v 26.175396 -0.198012 -7.722023
v 19.575394 2.348302 9.151470
v 21.775394 2.348302 9.151470
v 23.975393 2.348302 9.151471
v 26.175392 2.348302 9.151472
v 26.175392 4.045845 9.151472
v 23.975391 4.045845 9.151472
v 21.775393 4.045845 9.151471
v 19.575394 4.045845 9.151470
v 19.575396 5.743387 -4.654117
v 21.775394 5.743387 -4.654117
v 23.975395 5.743387 -4.654116
v 26.175396 5.743387 -4.654116
v 26.175394 5.743387 -1.586200
v 23.975395 5.743387 -1.586200
v 21.775394 5.743387 -1.586200
v 19.575394 5.743387 -1.586201
v 26.175394 5.743387 1.481716
v 23.975395 5.743387 1.481716
v 21.775394 5.743387 1.481716
v 19.575394 5.743387 1.481715
v 26.175392 5.743388 9.151472
v 23.975391 5.743388 9.151472
v 21.775393 5.743388 9.151471
v 19.575394 5.743388 9.151470
v 19.575394 0.650759 7.617512
v 21.775394 0.650759 7.617512
v 23.975393 0.650759 7.617513
v 26.175392 0.650759 7.617513
v 19.575394 0.650759 9.151470
v 21.775394 0.650759 9.151470
v 23.975393 0.650759 9.151471
v 26.175392 0.650759 9.151472
v 19.575397 -1.084435 -7.722024
v 21.775398 -1.084435 -7.722024
v 23.975397 -1.084435 -7.722023
v 26.175396 -1.084435 -7.722023
v 26.175394 6.422405 4.549614
v 23.975395 6.422405 4.549614
v 21.775394 6.422405 4.549614
v 19.575394 6.422405 4.549614
v 19.575397 -1.084435 -9.655613
v 21.775398 -1.084435 -9.655613
v 23.975397 -1.084435 -9.655612
v 26.175396 -1.084435 -9.655611
v 30.208731 5.743387 -9.655602
v 30.208727 4.045845 9.151472
v 30.208731 0.650759 -7.722023
v 30.208727 2.348302 7.617514
v 30.208731 0.650759 -9.655611
v 30.208727 -1.084435 7.617514
v 30.208731 5.743387 -7.722013
v 30.208727 -0.198012 9.151472
v 30.208729 5.743387 -1.586199
v 30.208729 5.743387 1.481717
v 30.208727 5.743388 9.151472
v 30.208727 5.743387 4.549615
v 30.208727 6.422405 9.151472
v 30.208727 6.422405 4.549615
v 30.208729 6.422405 1.481717
v 30.208731 4.045845 -9.655602
v 30.208729 6.422405 -1.586199
v 30.208731 6.422404 -7.722013
v 30.208729 6.422404 -9.655602
v 30.208727 2.348302 9.151472
v 30.208729 -0.198012 -7.722023
v 30.208727 4.045845 7.617514
v 30.208729 2.348302 -9.655611
v 30.208727 -0.198012 7.617514
v 30.208729 4.045845 -7.722023
v 30.208727 -1.084435 9.151472
v 30.208727 5.743388 7.617514
v 30.208729 5.743387 -4.654115
v 30.208727 0.650759 7.617514
v 30.208727 0.650759 9.151472
v 30.208729 -1.084435 -7.722023
v 30.208727 6.422405 7.617514
v 30.208729 -1.084435 -9.655611
v 30.208729 -0.198012 -9.655611
v 30.208729 2.348302 -7.722023
v 30.208729 6.422405 -4.654098
v 33.875393 4.045845 9.151472
v 33.875393 2.348302 9.151472
v 33.875393 -0.198012 9.151472
v 33.875393 -1.084435 9.151472
v 33.875393 0.650759 9.151472
v 33.875397 5.743387 -9.655602
v 33.875397 6.422404 -9.655602
v 33.875397 0.650759 -9.655611
v 33.875397 2.348302 -9.655611
v 33.875393 6.422405 9.151472
v 33.875393 6.422405 7.617514
v 33.875397 6.422405 4.549616
v 33.875397 -1.084435 -9.655611
v 33.875397 -0.198012 -9.655611
v 33.875397 6.422405 1.481718
v 33.875397 4.045845 -9.655602
v 33.875397 6.422405 -1.586199
v 33.875397 6.422405 -4.654097
v 33.875397 6.422404 -7.722013
v 37.542061 6.422404 -9.655602
v 37.542061 2.348302 9.151473
v 37.542061 -0.198012 -7.722021
v 37.542061 4.045845 7.617515
v 37.542061 2.348302 -9.655610
v 37.542061 -0.198012 7.617515
v 37.542061 4.045845 -7.722021
v 37.542061 -1.084435 9.151473
v 37.542061 5.743388 7.617515
v 37.542061 5.743387 -4.654114
v 37.542061 0.650759 7.617515
v 37.542061 0.650759 9.151473
v 37.542061 -1.084435 -7.722021
v 37.542061 6.422405 7.617515
v 37.542061 -1.084435 -9.655610
v 37.542061 -0.198012 -9.655610
v 37.542061 2.348302 -7.722021
v 37.542061 6.422405 -4.654097
v 37.542061 5.743387 -9.655602
v 37.542061 4.045845 9.151473
v 37.542061 0.650759 -7.722021
v 37.542061 2.348302 7.617515
v 37.542061 0.650759 -9.655610
v 37.542061 -1.084435 7.617515
v 37.542061 5.743387 -7.722013
v 37.542061 -0.198012 9.151473
v 37.542061 5.743387 -1.586198
v 37.542061 5.743387 1.481718
v 37.542061 5.743388 9.151473
v 37.542061 5.743387 4.549617
v 37.542061 6.422405 9.151473
v 37.542061 6.422405 4.549617
v 37.542061 6.422405 1.481718
v 37.542061 4.045845 -9.655602
v 37.542061 6.422405 -1.586198
v 37.542061 6.422404 -7.722013
v 33.875397 5.743388 9.151472
vn -0.0000 -0.0000 -1.0000
vn -0.0000 -0.0000 1.0000
vn -0.0000 -1.0000 -0.0000
vn 1.0000 -0.0000 -0.0000
vn -1.0000 -0.0000 -0.0000
vn -1.0000 -0.0046 -0.0000
vn -0.0000 1.0000 -0.0000
vn -1.0000 0.0024 -0.0000
vn 0.7733 -0.0000 -0.6340
vn -0.8253 -0.0000 0.5647
vn 0.7670 -0.0000 0.6417
vn -0.8320 -0.0000 -0.5548
vn -0.7071 -0.0000 0.7071
vn -0.7071 -0.0000 -0.7071
vn 0.7071 -0.0000 -0.7071
vn 0.7071 -0.0000 0.7071
vt 0.892006 0.631872
vt 0.892006 0.620329
vt 0.914402 0.620329
vt 0.914402 0.631872
vt 0.892006 0.403272
vt 0.892006 0.374416
vt 0.914402 0.374416
vt 0.914402 0.403272
vt 0.649329 0.822120
vt 0.649329 0.793264
vt 0.656581 0.793264
vt 0.656581 0.822120
vt 0.829810 0.477174
vt 0.829810 0.488716
vt 0.807414 0.488716
vt 0.807414 0.477174
vt 0.892006 0.446556
vt 0.892006 0.432128
vt 0.914402 0.432128
vt 0.914402 0.446556
vt 0.907151 0.589711
vt 0.907151 0.575283
vt 0.914402 0.575283
vt 0.914332 0.589711
vt 0.148456 0.080256
vt 0.160151 0.080256
vt 0.160151 0.101504
vt 0.148456 0.101504
vt 0.814665 0.660727
vt 0.814665 0.631872
vt 0.824817 0.631872
vt 0.824817 0.660727
vt 0.814665 0.718439
vt 0.814665 0.689583
vt 0.824817 0.689583
vt 0.824817 0.718439
vt 0.814665 0.732867
vt 0.824817 0.732867
vt 0.361997 0.559722
vt 0.364948 0.550506
vt 0.372001 0.552540
vt 0.369049 0.561755
vt 0.148456 0.006880
vt 0.136761 0.006880
vt 0.136761 0.000000
vt 0.148456 0.000000
vt 0.807414 0.718439
vt 0.807414 0.689583
vt 0.991930 0.061026
vt 0.991930 0.068020
vt 0.975540 0.068020
vt 0.975540 0.061026
vt 0.991930 0.016644
vt 0.991930 0.027739
vt 0.975540 0.027739
vt 0.975540 0.016644
vt 0.892006 0.718439
vt 0.892006 0.689583
vt 0.914402 0.689583
vt 0.914402 0.718439
vt 0.136761 0.080256
vt 0.136761 0.101504
vt 0.814665 0.620329
vt 0.824817 0.620329
vt 0.475047 0.992065
vt 0.480632 0.990422
vt 0.482771 0.996964
vt 0.477186 0.998607
vt 0.274377 0.587556
vt 0.262682 0.587556
vt 0.262682 0.576014
vt 0.274377 0.576014
vt 0.321158 0.616412
vt 0.321158 0.587556
vt 0.328529 0.587556
vt 0.328529 0.616412
vt 0.321158 0.674123
vt 0.321158 0.645268
vt 0.328529 0.645268
vt 0.328529 0.674123
vt 0.321158 0.576014
vt 0.328529 0.576014
vt 0.649329 0.879831
vt 0.649329 0.850976
vt 0.656581 0.850976
vt 0.656581 0.879831
vt 0.309463 0.576014
vt 0.309463 0.560464
vt 0.321158 0.560464
vt 0.807414 0.660727
vt 0.991930 0.000000
vt 0.991930 0.005548
vt 0.975540 0.005548
vt 0.975540 0.000000
vt 0.807414 0.631872
vt 0.807414 0.620329
vt 0.321158 0.688551
vt 0.328529 0.688551
vt 0.649329 0.894259
vt 0.656510 0.894259
vt 0.814665 0.747935
vt 0.807445 0.747935
vt 0.807484 0.732867
vt 0.367048 0.543953
vt 0.374100 0.545986
vt 0.896999 0.517572
vt 0.896999 0.488716
vt 0.907151 0.488716
vt 0.907151 0.517572
vt 0.896999 0.575283
vt 0.896999 0.546428
vt 0.907151 0.546428
vt 0.896999 0.589711
vt 0.896999 0.477174
vt 0.907151 0.477174
vt 0.892006 0.747935
vt 0.892006 0.732867
vt 0.914402 0.732867
vt 0.914402 0.747935
vt 0.519490 0.480208
vt 0.507794 0.480208
vt 0.507794 0.458960
vt 0.519490 0.458960
vt 0.472040 0.982866
vt 0.477625 0.981223
vt 0.262682 0.560464
vt 0.274377 0.560464
vt 0.896999 0.461624
vt 0.907151 0.461624
vt 0.262682 0.688551
vt 0.262682 0.703619
vt 0.256834 0.703619
vt 0.256834 0.688551
vt 0.256834 0.587556
vt 0.256834 0.576014
vt 0.262682 0.616412
vt 0.262682 0.645268
vt 0.256834 0.645268
vt 0.256834 0.616412
vt 0.262682 0.674123
vt 0.256834 0.674123
vt 0.814665 0.446556
vt 0.814665 0.461624
vt 0.807446 0.461624
vt 0.807484 0.446556
vt 0.914402 0.477174
vt 0.914402 0.488716
vt 0.914402 0.546428
vt 0.814665 0.374416
vt 0.814665 0.403272
vt 0.807414 0.403272
vt 0.807414 0.374416
vt 0.814665 0.432128
vt 0.807414 0.432128
vt 0.914402 0.517572
vt 0.148456 0.016511
vt 0.136761 0.016511
vt 0.824817 0.374416
vt 0.814665 0.345561
vt 0.824817 0.345561
vt 0.824817 0.432128
vt 0.824817 0.403272
vt 0.824817 0.446556
vt 0.639178 0.822120
vt 0.639178 0.793264
vt 0.639178 0.879831
vt 0.639178 0.850976
vt 0.571989 0.850976
vt 0.571989 0.879831
vt 0.549593 0.879831
vt 0.549593 0.850976
vt 0.807414 0.345561
vt 0.538556 0.480208
vt 0.531185 0.480208
vt 0.531185 0.458960
vt 0.538556 0.458960
vt 0.195237 0.016511
vt 0.183542 0.016511
vt 0.183542 0.006880
vt 0.195237 0.006880
vt 0.171847 0.016511
vt 0.171847 0.006880
vt 0.160151 0.016511
vt 0.160151 0.006880
vt 0.286072 0.576014
vt 0.286072 0.560464
vt 0.256834 0.560464
vt 0.991930 0.049931
vt 0.975540 0.049931
vt 0.309463 0.587556
vt 0.297767 0.587556
vt 0.297767 0.576014
vt 0.286072 0.587556
vt 0.342460 0.620712
vt 0.349513 0.622745
vt 0.343001 0.643075
vt 0.335948 0.641042
vt 0.496099 0.480208
vt 0.496099 0.458960
vt 0.171847 0.080256
vt 0.171847 0.101504
vt 0.571989 0.894259
vt 0.549593 0.894259
vt 0.297767 0.560464
vt 0.914402 0.461624
vt 0.807414 0.604779
vt 0.814665 0.604779
vt 0.991930 0.038835
vt 0.975540 0.038835
vt 0.183542 0.000000
vt 0.195237 0.000000
vt 0.171847 0.000000
vt 0.160151 0.000000
vt 0.896999 0.604779
vt 0.907151 0.604779
vt 0.914371 0.604779
vt 0.457724 0.920339
vt 0.452138 0.921982
vt 0.445505 0.901687
vt 0.451090 0.900044
vt 0.639178 0.894259
vt 0.649329 0.909327
vt 0.656549 0.909327
vt 0.321158 0.703619
vt 0.328529 0.703619
vt 0.824817 0.747935
vt 0.571989 0.909327
vt 0.549593 0.909327
vt 0.639178 0.909327
vt 0.824817 0.461624
vt 0.976649 0.282056
vt 0.986801 0.282056
vt 0.986801 0.293152
vt 0.976649 0.293152
vt 0.986801 0.300145
vt 0.976649 0.300145
vt 0.969398 0.293152
vt 0.969398 0.282056
vt 0.969398 0.300145
vt 0.976649 0.232126
vt 0.976649 0.237673
vt 0.969398 0.237673
vt 0.969398 0.232126
vt 0.986801 0.237673
vt 0.986801 0.232126
vt 0.976649 0.248769
vt 0.969398 0.248769
vt 0.976649 0.259865
vt 0.969398 0.259865
vt 0.976649 0.270961
vt 0.969398 0.270961
vt 0.986801 0.248769
vt 0.986801 0.259865
vt 0.986801 0.270961
vt 0.328529 0.560464
vt 0.824817 0.604779
vt 0.764158 0.781427
vt 0.733744 0.781427
vt 0.733744 0.747934
vt 0.764158 0.747934
vt 0.910824 0.265563
vt 0.926032 0.265563
vt 0.926032 0.303119
vt 0.910824 0.303119
vt 0.434900 0.395215
vt 0.390751 0.395215
vt 0.363432 0.373967
vt 0.418399 0.373967
vt 0.901700 0.847223
vt 0.917582 0.847223
vt 0.917582 0.880319
vt 0.901700 0.880319
vt 0.807414 0.265563
vt 0.819580 0.265563
vt 0.819580 0.303119
vt 0.807414 0.303119
vt 0.880410 0.265563
vt 0.880410 0.303119
vt 0.779366 0.781427
vt 0.779366 0.747934
vt 0.098953 0.165248
vt 0.143102 0.165248
vt 0.137419 0.186496
vt 0.082451 0.186496
vt 0.849995 0.265563
vt 0.849995 0.303119
vt 0.231401 0.165248
vt 0.275551 0.165248
vt 0.302322 0.186497
vt 0.247355 0.186496
vt 0.187252 0.165248
vt 0.192387 0.186496
vt 0.703329 0.781427
vt 0.672914 0.781427
vt 0.672914 0.747934
vt 0.703329 0.747934
vt 0.929748 0.114672
vt 0.941914 0.114672
vt 0.941914 0.152896
vt 0.929748 0.152896
vt 0.886492 0.847223
vt 0.886492 0.880319
vt 0.892006 0.345561
vt 0.914402 0.345561
vt 0.829810 0.575283
vt 0.829810 0.589711
vt 0.807414 0.589711
vt 0.807414 0.575283
vt 0.892006 0.660727
vt 0.914402 0.660727
vt 0.183542 0.080256
vt 0.195237 0.080256
vt 0.195237 0.101504
vt 0.183542 0.101504
vt 0.829810 0.517572
vt 0.807414 0.517572
vt 0.571989 0.822120
vt 0.549593 0.822120
vt 0.829810 0.546428
vt 0.807414 0.546428
vt 0.829810 0.604779
vt 0.807414 0.604779
vt 0.484404 0.480208
vt 0.472709 0.480208
vt 0.472709 0.458960
vt 0.484404 0.458960
vt 0.466861 0.480208
vt 0.466861 0.458960
vt 0.892006 0.461624
vt 0.914402 0.461624
vt 0.571989 0.793264
vt 0.549593 0.793264
vt 0.640837 0.693540
vt 0.656044 0.693540
vt 0.656044 0.730936
vt 0.640837 0.730936
vt 0.195330 0.660188
vt 0.164915 0.660188
vt 0.164915 0.622792
vt 0.195330 0.622792
vt 0.776324 0.224380
vt 0.745910 0.224380
vt 0.745910 0.186984
vt 0.776324 0.186984
vt 0.256834 0.660188
vt 0.240952 0.660188
vt 0.240952 0.622792
vt 0.256834 0.622792
vt 0.549593 0.693540
vt 0.580007 0.693540
vt 0.580007 0.730936
vt 0.549593 0.730936
vt 0.791532 0.523554
vt 0.807414 0.523554
vt 0.807414 0.560951
vt 0.791532 0.560951
vt 0.672914 0.224380
vt 0.638270 0.224380
vt 0.638270 0.186984
vt 0.672914 0.186984
vt 0.027484 0.336083
vt 0.082451 0.336083
vt 0.082451 0.373480
vt 0.027484 0.373480
vt 0.610422 0.693540
vt 0.610422 0.730936
vt 0.583302 0.224380
vt 0.528335 0.224380
vt 0.528335 0.186984
vt 0.583302 0.186984
vt 0.502890 0.639202
vt 0.476640 0.646926
vt 0.464964 0.611207
vt 0.491214 0.603483
vt 0.715495 0.224380
vt 0.715495 0.186984
vt 0.473367 0.224380
vt 0.473367 0.186984
vt 0.791532 0.224380
vt 0.791532 0.186984
vt 0.363432 0.224380
vt 0.335948 0.224380
vt 0.335948 0.186984
vt 0.363432 0.186984
vt 0.685080 0.224380
vt 0.685080 0.186984
vt 0.393255 0.724188
vt 0.419879 0.731864
vt 0.445505 0.761461
vt 0.412357 0.751904
vt 0.807414 0.114672
vt 0.823296 0.114672
vt 0.823296 0.152896
vt 0.807414 0.152896
vt 0.479050 0.395215
vt 0.473367 0.373967
vt 0.825663 0.847223
vt 0.856078 0.847223
vt 0.856078 0.880319
vt 0.825663 0.880319
vt 0.899333 0.114672
vt 0.899333 0.152896
vt 0.368676 0.395215
vt 0.335948 0.373967
vt 0.838503 0.114672
vt 0.838503 0.152896
vt 0.523200 0.395215
vt 0.528335 0.373967
vt 0.868918 0.114672
vt 0.868918 0.152896
vt 0.524967 0.811568
vt 0.503883 0.817771
vt 0.523342 0.789800
vt 0.549593 0.782076
vt 0.611499 0.395215
vt 0.567349 0.395215
vt 0.583302 0.373967
vt 0.638270 0.373967
vt 0.054803 0.165248
vt 0.027484 0.186496
vt 0.639324 0.395216
vt 0.672914 0.373967
vt 0.941914 0.265563
vt 0.941914 0.303119
vt 0.795248 0.847223
vt 0.795248 0.880319
vt 0.795248 0.781427
vt 0.795248 0.747934
vt 0.672914 0.716771
vt 0.685080 0.716771
vt 0.685080 0.747934
vt 0.745910 0.716771
vt 0.776324 0.716771
vt 0.776324 0.747934
vt 0.745910 0.747934
vt 0.947250 0.685827
vt 0.947250 0.671399
vt 0.980098 0.671399
vt 0.980098 0.685827
vt 0.082451 0.529300
vt 0.137419 0.529300
vt 0.137419 0.560464
vt 0.082451 0.560464
vt 0.715495 0.716771
vt 0.715495 0.747934
vt 0.247354 0.529300
vt 0.302322 0.529300
vt 0.302322 0.560464
vt 0.247354 0.560464
vt 0.192387 0.529300
vt 0.192387 0.560464
vt 0.947250 0.613688
vt 0.947250 0.584832
vt 0.980098 0.584832
vt 0.980098 0.613688
vt 0.685080 0.031164
vt 0.672914 0.031164
vt 0.672914 0.000000
vt 0.685080 0.000000
vt 0.950430 0.834501
vt 0.950430 0.848929
vt 0.917582 0.848929
vt 0.917582 0.834501
vt 0.947250 0.642543
vt 0.980098 0.642543
vt 0.776324 0.031164
vt 0.745910 0.031164
vt 0.745910 0.000000
vt 0.776324 0.000000
vt 0.947250 0.700895
vt 0.980098 0.700895
vt 0.950430 0.747934
vt 0.950430 0.776790
vt 0.917582 0.776790
vt 0.917582 0.747934
vt 0.791532 0.716771
vt 0.807414 0.716771
vt 0.807414 0.747934
vt 0.791532 0.747934
vt 0.715495 0.523554
vt 0.745910 0.523554
vt 0.745910 0.560951
vt 0.715495 0.560951
vt 0.672914 0.224380
vt 0.672914 0.186984
vt 0.134500 0.660188
vt 0.134500 0.622792
vt 0.192387 0.336083
vt 0.247355 0.336083
vt 0.247355 0.373480
vt 0.192387 0.373480
vt 0.137419 0.336083
vt 0.137419 0.373480
vt 0.302322 0.336083
vt 0.302322 0.373480
vt 0.685080 0.523554
vt 0.685080 0.560951
vt 0.225745 0.660188
vt 0.225745 0.622792
vt 0.776324 0.523554
vt 0.776324 0.560951
vt 0.672914 0.523554
vt 0.672914 0.560951
vt 0.671926 0.693540
vt 0.671926 0.730936
vt 0.418399 0.224380
vt 0.418399 0.186984
vt 0.366512 0.895027
vt 0.399659 0.904584
vt 0.388197 0.940365
vt 0.355050 0.930808
vt 0.807414 0.224380
vt 0.807414 0.186984
vt 0.118618 0.586539
vt 0.103411 0.586539
vt 0.103411 0.560464
vt 0.118618 0.560464
vt 0.042581 0.847288
vt 0.072996 0.847288
vt 0.072996 0.880156
vt 0.042581 0.880156
vt 0.103410 0.847288
vt 0.103410 0.880156
vt 0.042581 0.586539
vt 0.012166 0.586539
vt 0.012166 0.560464
vt 0.042581 0.560464
vt 0.118618 0.847288
vt 0.134500 0.847288
vt 0.134500 0.880156
vt 0.118618 0.880156
vt 0.012166 0.847288
vt 0.012166 0.880156
vt 0.000000 0.880156
vt 0.000000 0.847288
vt 0.012166 0.795138
vt 0.000000 0.795138
vt 0.072996 0.586539
vt 0.072996 0.560464
vt 0.000000 0.586539
vt 0.000000 0.560464
vt 0.012166 0.638689
vt 0.000000 0.638689
vt 0.012166 0.690838
vt 0.000000 0.690838
vt 0.012166 0.742988
vt 0.000000 0.742988
vt 0.134500 0.586539
vt 0.134500 0.560464
vt 0.950430 0.863997
vt 0.917582 0.863997
vt 0.418399 0.031164
vt 0.363432 0.031164
vt 0.363432 0.000000
vt 0.418399 0.000000
vt 0.291478 0.734783
vt 0.256834 0.734783
vt 0.256834 0.703619
vt 0.291478 0.703619
vt 0.807414 0.031164
vt 0.791532 0.031164
vt 0.791532 0.000000
vt 0.807414 0.000000
vt 0.473367 0.031164
vt 0.473367 0.000000
vt 0.950430 0.805646
vt 0.917582 0.805646
vt 0.715495 0.031164
vt 0.715495 0.000000
vt 0.335948 0.031164
vt 0.335948 0.000000
vt 0.528335 0.031164
vt 0.528335 0.000000
vt 0.969398 0.263290
vt 0.941914 0.263290
vt 0.941914 0.232126
vt 0.969398 0.232126
vt 0.638270 0.031164
vt 0.583302 0.031164
vt 0.583302 0.000000
vt 0.638270 0.000000
vt 0.027484 0.529300
vt 0.027484 0.560464
vt 0.672914 0.031164
vt 0.672914 0.000000
vt 0.672914 0.155820
vt 0.638270 0.155820
vt 0.638270 0.124656
vt 0.672914 0.124656
vt 0.672914 0.093492
vt 0.638270 0.093492
vt 0.638270 0.062328
vt 0.672914 0.062328
vt 0.027484 0.404644
vt 0.082451 0.404644
vt 0.082451 0.435808
vt 0.027484 0.435808
vt 0.082451 0.498136
vt 0.027484 0.498136
vt 0.610422 0.762100
vt 0.640837 0.762100
vt 0.640837 0.793264
vt 0.610422 0.793264
vt 0.583302 0.155820
vt 0.528335 0.155820
vt 0.528335 0.124656
vt 0.583302 0.124656
vt 0.583302 0.093492
vt 0.528335 0.093492
vt 0.528335 0.062328
vt 0.583302 0.062328
vt 0.481485 0.573718
vt 0.455234 0.581442
vt 0.445505 0.551676
vt 0.471755 0.543953
vt 0.745910 0.155820
vt 0.715495 0.155820
vt 0.715495 0.124656
vt 0.745910 0.124656
vt 0.745910 0.093492
vt 0.715495 0.093492
vt 0.715495 0.062328
vt 0.745910 0.062328
vt 0.473367 0.155820
vt 0.473367 0.124656
vt 0.473367 0.093492
vt 0.473367 0.062328
vt 0.791532 0.155820
vt 0.776324 0.155820
vt 0.776324 0.124656
vt 0.791532 0.124656
vt 0.791532 0.093492
vt 0.776324 0.093492
vt 0.776324 0.062328
vt 0.791532 0.062328
vt 0.363432 0.155820
vt 0.335948 0.155820
vt 0.335948 0.124656
vt 0.363432 0.124656
vt 0.363432 0.093492
vt 0.335948 0.093492
vt 0.335948 0.062328
vt 0.363432 0.062328
vt 0.685080 0.155820
vt 0.685080 0.124656
vt 0.685080 0.093492
vt 0.685080 0.062328
vt 0.580007 0.762100
vt 0.580007 0.793264
vt 0.418399 0.155820
vt 0.418399 0.124656
vt 0.418399 0.093492
vt 0.418399 0.062328
vt 0.807414 0.155820
vt 0.807414 0.124656
vt 0.807414 0.093492
vt 0.807414 0.062328
vt 0.345499 0.960626
vt 0.378646 0.970183
vt 0.369095 1.000000
vt 0.335948 0.990443
vt 0.225745 0.591628
vt 0.195330 0.591628
vt 0.195330 0.560464
vt 0.225745 0.560464
vt 0.776324 0.592115
vt 0.791532 0.592115
vt 0.791532 0.623279
vt 0.776324 0.623279
vt 0.776324 0.654443
vt 0.791532 0.654443
vt 0.791532 0.685607
vt 0.776324 0.685607
vt 0.656044 0.762100
vt 0.671926 0.762100
vt 0.671926 0.793264
vt 0.656044 0.793264
vt 0.807414 0.592115
vt 0.807414 0.623279
vt 0.807414 0.654443
vt 0.807414 0.685607
vt 0.549593 0.762100
vt 0.549593 0.793264
vt 0.256834 0.591628
vt 0.240952 0.591628
vt 0.240952 0.560464
vt 0.256834 0.560464
vt 0.164915 0.591628
vt 0.164915 0.560464
vt 0.715495 0.592115
vt 0.745910 0.592115
vt 0.745910 0.623279
vt 0.715495 0.623279
vt 0.715495 0.654443
vt 0.745910 0.654443
vt 0.745910 0.685607
vt 0.715495 0.685607
vt 0.672914 0.155820
vt 0.672914 0.124656
vt 0.672914 0.093492
vt 0.672914 0.062328
vt 0.134500 0.591628
vt 0.134500 0.560464
vt 0.192387 0.404644
vt 0.247354 0.404644
vt 0.247354 0.435808
vt 0.192387 0.435808
vt 0.247354 0.498136
vt 0.192387 0.498136
vt 0.137419 0.404644
vt 0.137419 0.435808
vt 0.137419 0.498136
vt 0.302322 0.404644
vt 0.302322 0.435808
vt 0.302322 0.498136
vt 0.685080 0.592115
vt 0.685080 0.623279
vt 0.685080 0.654443
vt 0.672914 0.592115
vt 0.672914 0.623279
vt 0.672914 0.654443
vt 0.975540 0.202630
vt 0.975540 0.217058
vt 0.941914 0.217058
vt 0.941914 0.202630
vt 0.941914 0.086567
vt 0.941914 0.057711
vt 0.975540 0.057711
vt 0.975540 0.086567
vt 0.975540 0.232126
vt 0.941914 0.232126
vt 0.941914 0.028856
vt 0.941914 0.000000
vt 0.975540 0.000000
vt 0.975540 0.028856
vt 0.975540 0.173774
vt 0.941914 0.173774
vt 0.941914 0.116063
vt 0.941914 0.100995
vt 0.975540 0.100995
vt 0.975540 0.116063
vt 0.975540 0.144919
vt 0.941914 0.144919
vt 0.975540 0.116063
vt 0.941914 0.116063
vt 0.335948 0.435808
vt 0.335948 0.498136
vt 0.328529 0.920677
vt 0.328529 0.935745
vt 0.301045 0.935745
vt 0.301045 0.920677
vt 0.301045 0.906249
vt 0.301045 0.877393
vt 0.301045 0.848538
vt 0.301045 0.819682
vt 0.328529 0.819682
vt 0.328529 0.848538
vt 0.328529 0.877393
vt 0.328529 0.906249
vt 0.000000 0.498136
vt 0.000000 0.466972
vt 0.000000 0.435808
vt 0.301045 0.804614
vt 0.301045 0.790186
vt 0.301045 0.761331
vt 0.301045 0.732475
vt 0.301045 0.703619
vt 0.328529 0.703619
vt 0.328529 0.732475
vt 0.328529 0.761331
vt 0.328529 0.790186
vt 0.328529 0.804614
vt 0.914402 0.465196
vt 0.914402 0.345561
vt 0.996181 0.345561
vt 0.996181 0.465196
vt 0.914402 0.584832
vt 0.914402 0.465196
vt 0.996086 0.465196
vt 0.996086 0.584832
vt 0.216793 0.929411
vt 0.216793 0.809775
vt 0.299054 0.809775
vt 0.299054 0.929411
vt 0.134500 0.929411
vt 0.134500 0.809775
vt 1.000000 0.942190
vt 0.917582 0.942190
vt 0.917582 0.863997
vt 1.000000 0.863997
vt 0.000000 0.958349
vt 0.000000 0.880156
vt 0.082418 0.880156
vt 0.082418 0.958349
vt 0.874603 0.575283
vt 0.874603 0.546428
vt 0.852206 0.575283
vt 0.852206 0.546428
vt 0.616781 0.822120
vt 0.616781 0.793264
vt 0.594385 0.822120
vt 0.594385 0.793264
vt 0.496099 0.543953
vt 0.484404 0.543953
vt 0.484404 0.522705
vt 0.496099 0.522705
vt 0.484404 0.501456
vt 0.496099 0.501456
vt 0.847213 0.718439
vt 0.847213 0.732867
vt 0.869610 0.718439
vt 0.869610 0.732867
vt 0.847213 0.446556
vt 0.847213 0.461624
vt 0.869610 0.446556
vt 0.869610 0.461624
vt 0.531185 0.543953
vt 0.519490 0.543953
vt 0.519490 0.522705
vt 0.531185 0.522705
vt 0.519490 0.501456
vt 0.531185 0.501456
vt 0.472709 0.543953
vt 0.466861 0.543953
vt 0.466861 0.522705
vt 0.472709 0.522705
vt 0.466861 0.501456
vt 0.472709 0.501456
vt 0.183542 0.037759
vt 0.171847 0.037759
vt 0.183542 0.059007
vt 0.171847 0.059007
vt 0.847213 0.660727
vt 0.847213 0.689583
vt 0.869610 0.660727
vt 0.869610 0.689583
vt 0.874603 0.604779
vt 0.874603 0.589711
vt 0.852206 0.604779
vt 0.852206 0.589711
vt 0.874603 0.517572
vt 0.852206 0.517572
vt 0.616781 0.850976
vt 0.594385 0.850976
vt 0.874603 0.488716
vt 0.852206 0.488716
vt 0.195237 0.037759
vt 0.195237 0.059007
vt 0.847213 0.403272
vt 0.847213 0.432128
vt 0.869610 0.403272
vt 0.869610 0.432128
vt 0.847213 0.631872
vt 0.869610 0.631872
vt 0.847213 0.345561
vt 0.847213 0.374416
vt 0.869610 0.345561
vt 0.869610 0.374416
vt 0.616781 0.909327
vt 0.616781 0.894259
vt 0.594385 0.909327
vt 0.594385 0.894259
vt 0.465406 0.962571
vt 0.470991 0.960928
vt 0.458772 0.942277
vt 0.464358 0.940633
vt 0.616781 0.879831
vt 0.594385 0.879831
vt 0.160151 0.037759
vt 0.160151 0.059007
vt 0.507794 0.543953
vt 0.507794 0.522705
vt 0.507794 0.501456
vt 0.362537 0.582085
vt 0.355484 0.580052
vt 0.356025 0.602415
vt 0.348972 0.600382
vt 0.538556 0.543953
vt 0.538556 0.522705
vt 0.538556 0.501456
vt 0.847213 0.747935
vt 0.869610 0.747935
vt 0.148456 0.037759
vt 0.136761 0.037759
vt 0.148456 0.059007
vt 0.136761 0.059007
vt 0.874603 0.477174
vt 0.852206 0.477174
vt 0.847213 0.620329
vt 0.869610 0.620329
vt 0.838503 0.000000
vt 0.868918 0.000000
vt 0.868918 0.038224
vt 0.838503 0.038224
vt 0.868918 0.076448
vt 0.838503 0.076448
vt 0.795248 0.881903
vt 0.779366 0.881903
vt 0.779366 0.848411
vt 0.795248 0.848411
vt 0.779366 0.814919
vt 0.795248 0.814919
vt 0.795248 0.747935
vt 0.825663 0.747935
vt 0.825663 0.781031
vt 0.795248 0.781031
vt 0.825663 0.814127
vt 0.795248 0.814127
vt 0.926032 0.152896
vt 0.941914 0.152896
vt 0.941914 0.190452
vt 0.926032 0.190452
vt 0.941914 0.228008
vt 0.926032 0.228008
vt 0.557956 0.437712
vt 0.572145 0.437712
vt 0.584727 0.416464
vt 0.605735 0.416464
vt 0.131955 0.122752
vt 0.109442 0.122752
vt 0.115454 0.144000
vt 0.082122 0.144000
vt 0.856078 0.747935
vt 0.886492 0.747935
vt 0.886492 0.781031
vt 0.856078 0.781031
vt 0.886492 0.814127
vt 0.856078 0.814127
vt 0.512929 0.437712
vt 0.535443 0.437712
vt 0.518064 0.416464
vt 0.551396 0.416464
vt 0.464964 0.873715
vt 0.475715 0.870552
vt 0.484423 0.845743
vt 0.500341 0.841060
vt 0.899333 0.000000
vt 0.899333 0.038224
vt 0.899333 0.076448
vt 0.490416 0.437712
vt 0.484733 0.416464
vt 0.823296 0.000000
vt 0.823296 0.038224
vt 0.823296 0.076448
vt 0.434133 0.437712
vt 0.445390 0.437712
vt 0.401405 0.416464
vt 0.418070 0.416464
vt 0.929748 0.000000
vt 0.929748 0.038224
vt 0.929748 0.076448
vt 0.467903 0.437712
vt 0.451402 0.416464
vt 0.807414 0.000000
vt 0.807414 0.038224
vt 0.807414 0.076448
vt 0.368627 0.672672
vt 0.355050 0.668757
vt 0.394253 0.702268
vt 0.374153 0.696473
vt 0.733744 0.881903
vt 0.703329 0.881903
vt 0.703329 0.848411
vt 0.733744 0.848411
vt 0.703329 0.814919
vt 0.733744 0.814919
vt 0.901700 0.747935
vt 0.901700 0.781031
vt 0.901700 0.814127
vt 0.849995 0.152896
vt 0.880410 0.152896
vt 0.880410 0.190452
vt 0.849995 0.190452
vt 0.880410 0.228008
vt 0.849995 0.228008
vt 0.941914 0.000000
vt 0.941914 0.038224
vt 0.941914 0.076448
vt 0.672914 0.881903
vt 0.672914 0.848411
vt 0.672914 0.814919
vt 0.199495 0.122752
vt 0.176982 0.122752
vt 0.215448 0.144000
vt 0.182117 0.144000
vt 0.154468 0.122752
vt 0.148785 0.144000
vt 0.222008 0.122752
vt 0.248780 0.144000
vt 0.819580 0.152896
vt 0.819580 0.190452
vt 0.819580 0.228008
vt 0.764158 0.881903
vt 0.764158 0.848411
vt 0.764158 0.814919
vt 0.910824 0.152896
vt 0.910824 0.190452
vt 0.910824 0.228008
vt 0.807414 0.152896
vt 0.807414 0.190452
vt 0.807414 0.228008
vt 0.917582 0.747935
vt 0.917582 0.781031
vt 0.917582 0.814127
vt 0.580007 0.543953
vt 0.610422 0.543953
vt 0.610422 0.581349
vt 0.580007 0.581349
vt 0.610422 0.618746
vt 0.580007 0.618746
vt 0.610422 0.656143
vt 0.580007 0.656143
vt 0.418399 0.336571
vt 0.473367 0.336571
vt 0.418399 0.299174
vt 0.473367 0.299174
vt 0.418399 0.261777
vt 0.473367 0.261777
vt 0.807414 0.373967
vt 0.791532 0.373967
vt 0.791532 0.336571
vt 0.807414 0.336571
vt 0.791532 0.299174
vt 0.807414 0.299174
vt 0.791532 0.261777
vt 0.807414 0.261777
vt 0.434043 0.797242
vt 0.400896 0.787684
vt 0.422582 0.833022
vt 0.389434 0.823465
vt 0.411120 0.868803
vt 0.377973 0.859246
vt 0.225744 0.809775
vt 0.195330 0.809775
vt 0.195330 0.772378
vt 0.225745 0.772378
vt 0.195330 0.734982
vt 0.225745 0.734982
vt 0.195330 0.697585
vt 0.225745 0.697585
vt 0.776324 0.373967
vt 0.791532 0.411364
vt 0.776324 0.411364
vt 0.791532 0.448761
vt 0.776324 0.448761
vt 0.791532 0.486157
vt 0.776324 0.486157
vt 0.363432 0.336571
vt 0.363432 0.299174
vt 0.363432 0.261777
vt 0.656044 0.543953
vt 0.671926 0.543953
vt 0.671926 0.581349
vt 0.656044 0.581349
vt 0.671926 0.618746
vt 0.656044 0.618746
vt 0.671926 0.656143
vt 0.656044 0.656143
vt 0.672914 0.373967
vt 0.685080 0.373967
vt 0.685080 0.411364
vt 0.672914 0.411364
vt 0.685080 0.448761
vt 0.672914 0.448761
vt 0.685080 0.486157
vt 0.672914 0.486157
vt 0.745910 0.373967
vt 0.745910 0.411364
vt 0.745910 0.448761
vt 0.745910 0.486157
vt 0.240952 0.809775
vt 0.240952 0.772378
vt 0.240952 0.734982
vt 0.240952 0.697585
vt 0.137419 0.223893
vt 0.082451 0.223893
vt 0.137419 0.261290
vt 0.082451 0.261290
vt 0.137419 0.298687
vt 0.082451 0.298687
vt 0.715495 0.373967
vt 0.715495 0.411364
vt 0.715495 0.448761
vt 0.715495 0.486157
vt 0.302322 0.223893
vt 0.247355 0.223893
vt 0.302322 0.261290
vt 0.247355 0.261290
vt 0.302322 0.298687
vt 0.247355 0.298687
vt 0.192387 0.223893
vt 0.192387 0.261290
vt 0.192387 0.298687
vt 0.164915 0.809775
vt 0.134500 0.809775
vt 0.134500 0.772378
vt 0.164915 0.772378
vt 0.134500 0.734982
vt 0.164915 0.734982
vt 0.134500 0.697585
vt 0.164915 0.697585
vt 0.672914 0.336571
vt 0.685080 0.336571
vt 0.672914 0.299174
vt 0.685080 0.299174
vt 0.672914 0.261777
vt 0.685080 0.261777
vt 0.715495 0.373967
vt 0.715495 0.336571
vt 0.715495 0.299174
vt 0.715495 0.261777
vt 0.335948 0.336571
vt 0.335948 0.299174
vt 0.335948 0.261777
vt 0.776324 0.336571
vt 0.776324 0.299174
vt 0.776324 0.261777
vt 0.528335 0.336571
vt 0.528335 0.299174
vt 0.528335 0.261777
vt 0.745910 0.373967
vt 0.745910 0.336571
vt 0.745910 0.299174
vt 0.745910 0.261777
vt 0.511666 0.754081
vt 0.537917 0.746358
vt 0.499991 0.718363
vt 0.526241 0.710639
vt 0.488315 0.682644
vt 0.514566 0.674920
vt 0.583302 0.336571
vt 0.638270 0.336571
vt 0.583302 0.299174
vt 0.638270 0.299174
vt 0.583302 0.261777
vt 0.638270 0.261777
vt 0.640837 0.543953
vt 0.640837 0.581349
vt 0.640837 0.618746
vt 0.640837 0.656143
vt 0.027484 0.223893
vt 0.027484 0.261290
vt 0.027484 0.298687
vt 0.672914 0.336571
vt 0.672914 0.299174
vt 0.672914 0.261777
vt 0.807414 0.411364
vt 0.807414 0.448761
vt 0.807414 0.486157
vt 0.549593 0.543953
vt 0.549593 0.581349
vt 0.549593 0.618746
vt 0.549593 0.656143
vt 0.256834 0.809775
vt 0.256834 0.772378
vt 0.256834 0.734982
vt 0.256834 0.697585
vt 0.983278 0.805646
vt 0.983278 0.834501
vt 0.969398 0.294454
vt 0.941914 0.294453
vt 0.983278 0.776790
vt 0.291478 0.765947
vt 0.256834 0.765947
vt 0.914402 0.671399
vt 0.914402 0.642543
vt 0.983278 0.848929
vt 0.983278 0.863997
vt 0.983278 0.747934
vt 0.914402 0.700895
vt 0.914402 0.685827
vt 0.914402 0.613688
vt 0.914402 0.584832
vt 0.685080 0.685607
vt 0.672914 0.685607
s 0
f 438/1/1 375/2/1 148/3/1 145/4/1
f 435/5/1 434/6/1 137/7/1 153/8/1
f 56/9/2 3/10/2 26/11/2 59/12/2
f 429/13/2 428/14/2 140/15/2 152/16/2
f 423/17/1 422/18/1 129/19/1 128/20/1
f 88/21/2 42/22/2 53/23/2 90/24/2
f 365/25/3 390/26/3 159/27/3 157/28/3
f 58/29/1 18/30/1 14/31/1 57/32/1
f 15/33/1 20/34/1 13/35/1 19/36/1
f 91/37/1 15/33/1 19/36/1 92/38/1
f 95/39/3 97/40/3 16/41/3 17/42/3
f 71/43/3 4/44/3 25/45/3 79/46/3
f 20/34/1 15/33/1 32/47/1 31/48/1
f 21/49/4 24/50/4 108/51/4 106/52/4
f 78/53/4 77/54/4 125/55/4 124/56/4
f 417/57/1 416/58/1 134/59/1 136/60/1
f 411/61/3 365/25/3 157/28/3 139/62/3
f 14/31/1 18/30/1 23/63/1 24/64/1
f 98/65/3 39/66/3 48/67/3 47/68/3
f 79/69/5 25/70/5 33/71/5 83/72/5
f 59/73/5 26/74/5 30/75/5 60/76/5
f 29/77/5 28/78/5 31/79/5 32/80/5
f 30/75/5 26/74/5 27/81/5 34/82/5
f 11/83/2 8/84/2 28/85/2 29/86/2
f 27/81/5 86/87/5 113/88/5 111/89/5
f 58/29/1 20/34/1 31/48/1 60/90/1
f 45/91/4 22/92/4 117/93/4 114/94/4
f 23/63/1 18/30/1 30/95/1 34/96/1
f 93/97/6 29/77/6 32/80/6 94/98/6
f 101/99/2 11/83/2 29/86/2 93/100/2
f 91/37/1 16/101/1 36/102/1 94/103/1
f 16/41/3 97/40/3 35/104/3 36/105/3
f 63/106/2 40/107/2 41/108/2 64/109/2
f 37/110/2 43/111/2 44/112/2 42/22/2
f 87/113/2 37/110/2 42/22/2 88/21/2
f 41/108/2 40/107/2 45/114/2 46/115/2
f 383/116/1 368/117/1 141/118/1 144/119/1
f 369/120/7 384/121/7 162/122/7 147/123/7
f 98/65/3 96/124/3 38/125/3 39/66/3
f 83/72/5 33/71/5 109/126/5 110/127/5
f 46/115/2 45/114/2 114/128/2 115/129/2
f 89/130/8 47/131/8 48/132/8 90/133/8
f 33/71/5 25/70/5 52/134/5 51/135/5
f 65/136/5 50/137/5 54/138/5 66/139/5
f 50/137/5 49/140/5 53/141/5 54/138/5
f 100/142/1 98/143/1 47/144/1 89/145/1
f 41/108/2 46/115/2 51/146/2 52/147/2
f 42/22/2 44/112/2 54/148/2 53/23/2
f 62/149/1 7/150/1 50/151/1 65/152/1
f 7/150/1 10/153/1 49/154/1 50/151/1
f 64/109/2 41/108/2 52/147/2 66/155/2
f 70/156/3 2/157/3 4/44/3 71/43/3
f 61/158/1 62/149/1 4/159/1 2/160/1
f 9/161/1 10/153/1 7/150/1 6/162/1
f 99/163/1 100/142/1 10/153/1 9/161/1
f 55/164/2 1/165/2 3/10/2 56/9/2
f 12/166/2 5/167/2 8/84/2 11/83/2
f 5/167/2 55/164/2 56/9/2 8/84/2
f 18/30/1 58/29/1 60/90/1 30/95/1
f 28/78/5 59/73/5 60/76/5 31/79/5
f 20/34/1 58/29/1 57/32/1 13/35/1
f 8/84/2 56/9/2 59/12/2 28/85/2
f 372/168/2 396/169/2 135/170/2 133/171/2
f 6/162/1 7/150/1 62/149/1 61/158/1
f 44/112/2 64/109/2 66/155/2 54/148/2
f 4/159/1 62/149/1 65/152/1 25/172/1
f 25/70/5 65/136/5 66/139/5 52/134/5
f 43/111/2 63/106/2 64/109/2 44/112/2
f 375/173/7 380/174/7 146/175/7 148/176/7
f 1/177/3 67/178/3 74/179/3 3/180/3
f 67/178/3 68/181/3 73/182/3 74/179/3
f 68/181/3 69/183/3 72/184/3 73/182/3
f 69/183/3 70/156/3 71/43/3 72/184/3
f 84/185/5 83/72/5 110/127/5 121/186/5
f 33/71/5 51/135/5 118/187/5 109/126/5
f 22/92/4 78/53/4 124/56/4 117/93/4
f 75/188/4 21/49/4 106/52/4 105/189/4
f 26/74/5 82/190/5 86/87/5 27/81/5
f 82/190/5 81/191/5 85/192/5 86/87/5
f 81/191/5 80/193/5 84/185/5 85/192/5
f 80/193/5 79/69/5 83/72/5 84/185/5
f 410/194/3 383/195/3 144/196/3 143/197/3
f 384/121/7 389/198/7 161/199/7 162/122/7
f 390/26/3 395/200/3 158/201/3 159/27/3
f 396/169/2 405/202/2 142/203/2 135/170/2
f 86/87/5 85/192/5 123/204/5 113/88/5
f 51/146/2 46/115/2 115/129/2 118/205/2
f 23/63/1 34/96/1 112/206/1 107/207/1
f 76/208/4 75/188/4 105/189/4 126/209/4
f 3/180/3 74/179/3 82/210/3 26/211/3
f 74/179/3 73/182/3 81/212/3 82/210/3
f 73/182/3 72/184/3 80/213/3 81/212/3
f 72/184/3 71/43/3 79/46/3 80/213/3
f 10/153/1 100/142/1 89/145/1 49/154/1
f 49/140/6 89/130/6 90/133/6 53/141/6
f 38/214/2 87/113/2 88/21/2 39/215/2
f 39/215/2 88/21/2 90/24/2 48/216/2
f 399/217/3 404/218/3 156/219/3 155/220/3
f 11/83/2 101/99/2 102/221/2 12/166/2
f 15/33/1 91/37/1 94/103/1 32/47/1
f 97/222/2 101/99/2 93/100/2 35/223/2
f 35/224/8 93/97/8 94/98/8 36/225/8
f 16/101/1 91/37/1 92/38/1 17/226/1
f 405/202/2 410/227/2 143/228/2 142/203/2
f 101/99/2 97/222/2 95/229/2 102/221/2
f 96/230/1 98/143/1 100/142/1 99/163/1
f 104/231/7 105/232/7 106/233/7 103/234/7
f 103/234/7 106/233/7 108/235/7 107/236/7
f 104/231/7 103/234/7 111/237/7 113/238/7
f 103/234/7 107/236/7 112/239/7 111/237/7
f 115/240/7 116/241/7 109/242/7 118/243/7
f 117/244/7 116/241/7 115/240/7 114/245/7
f 116/241/7 119/246/7 110/247/7 109/242/7
f 119/246/7 120/248/7 121/249/7 110/247/7
f 120/248/7 122/250/7 123/251/7 121/249/7
f 122/250/7 104/231/7 113/238/7 123/251/7
f 116/241/7 117/244/7 124/252/7 119/246/7
f 119/246/7 124/252/7 125/253/7 120/248/7
f 120/248/7 125/253/7 126/254/7 122/250/7
f 122/250/7 126/254/7 105/232/7 104/231/7
f 34/82/5 27/81/5 111/89/5 112/255/5
f 24/64/1 23/63/1 107/207/1 108/256/1
f 85/192/5 84/185/5 121/186/5 123/204/5
f 77/54/4 76/208/4 126/209/4 125/55/4
f 473/257/9 513/258/9 189/259/9 165/260/9
f 524/261/10 539/262/10 163/263/10 166/264/10
f 534/265/7 533/266/7 190/267/7 196/268/7
f 512/269/11 530/270/11 179/271/11 178/272/11
f 525/273/10 477/274/10 176/275/10 188/276/10
f 506/277/10 524/261/10 166/264/10 187/278/10
f 519/279/9 473/257/9 165/260/9 164/280/9
f 474/281/3 483/282/3 195/283/3 193/284/3
f 477/274/10 501/285/10 174/286/10 176/275/10
f 491/287/3 482/288/3 185/289/3 186/290/3
f 483/282/3 486/291/3 194/292/3 195/283/3
f 486/291/3 491/287/3 186/290/3 194/292/3
f 518/293/9 494/294/9 175/295/9 173/296/9
f 495/297/12 500/298/12 184/299/12 181/300/12
f 501/285/10 506/277/10 187/278/10 174/286/10
f 507/301/11 512/269/11 178/272/11 171/302/11
f 513/258/9 518/293/9 173/296/9 189/259/9
f 434/6/1 411/303/1 139/304/1 137/7/1
f 444/305/2 443/306/2 127/307/2 130/308/2
f 447/309/1 438/1/1 145/4/1 132/310/1
f 422/18/1 435/5/1 153/8/1 129/19/1
f 453/311/3 452/312/3 149/313/3 150/314/3
f 428/14/2 458/315/2 138/316/2 140/15/2
f 459/317/2 372/168/2 133/171/2 131/318/2
f 458/315/2 464/319/2 151/320/2 138/316/2
f 443/306/2 399/321/2 155/322/2 127/307/2
f 416/58/1 447/309/1 132/310/1 134/59/1
f 468/323/7 467/324/7 154/325/7 160/326/7
f 395/200/3 453/311/3 150/314/3 158/201/3
f 467/324/7 429/327/7 152/328/7 154/325/7
f 380/174/7 369/120/7 147/123/7 146/175/7
f 404/329/1 423/17/1 128/20/1 156/330/1
f 368/117/1 417/57/1 136/60/1 141/118/1
f 389/198/7 468/323/7 160/326/7 161/199/7
f 452/331/2 459/317/2 131/318/2 149/332/2
f 464/319/2 444/305/2 130/308/2 151/320/2
f 590/333/2 678/334/2 214/335/2 207/336/2
f 671/337/1 670/338/1 209/339/1 225/340/1
f 626/341/1 607/342/1 206/343/1 208/344/1
f 606/345/1 666/346/1 200/347/1 228/348/1
f 659/349/2 658/350/2 203/351/2 221/352/2
f 651/353/2 599/354/2 227/355/2 199/356/2
f 647/357/7 591/358/7 218/359/7 220/360/7
f 643/361/3 582/362/3 229/363/3 211/364/3
f 583/365/2 590/333/2 207/336/2 205/366/2
f 598/367/7 611/368/7 234/369/7 219/370/7
f 591/358/7 598/367/7 219/370/7 218/359/7
f 599/371/3 606/372/3 228/373/3 227/374/3
f 607/342/1 635/375/1 204/376/1 206/343/1
f 611/368/7 618/377/7 233/378/7 234/369/7
f 619/379/1 626/341/1 208/344/1 213/380/1
f 627/381/7 634/382/7 224/383/7 226/384/7
f 635/375/1 642/385/1 217/386/1 204/376/1
f 530/387/3 542/388/3 180/389/3 179/390/3
f 542/391/12 545/392/12 177/393/12 180/394/12
f 546/395/7 534/265/7 196/268/7 197/396/7
f 552/397/11 551/398/11 169/399/11 167/400/11
f 555/401/12 495/297/12 181/300/12 168/402/12
f 533/266/7 525/403/7 188/404/7 190/267/7
f 545/392/12 560/405/12 172/406/12 177/393/12
f 561/407/7 546/395/7 197/396/7 198/408/7
f 564/409/12 555/401/12 168/402/12 170/410/12
f 570/411/3 569/412/3 192/413/3 191/414/3
f 576/415/7 575/416/7 183/417/7 182/418/7
f 575/416/7 561/407/7 198/408/7 183/417/7
f 551/398/11 507/301/11 171/302/11 169/399/11
f 494/419/3 474/281/3 193/284/3 175/420/3
f 500/421/7 576/415/7 182/418/7 184/422/7
f 539/262/10 570/423/10 191/424/10 163/263/10
f 482/425/11 552/397/11 167/400/11 185/426/11
f 569/427/9 519/279/9 164/280/9 192/428/9
f 560/405/12 564/409/12 170/410/12 172/406/12
f 808/429/2 806/430/2 248/431/2 260/295/2
f 779/432/2 789/433/2 238/434/2 259/435/2
f 783/436/1 788/437/1 237/438/1 236/439/1
f 807/440/3 805/441/3 267/442/3 265/443/3
f 806/430/2 797/444/2 246/445/2 248/431/2
f 787/446/3 802/447/3 257/448/3 258/449/3
f 805/441/3 804/450/3 266/451/3 267/442/3
f 804/450/3 787/446/3 258/449/3 266/451/3
f 781/452/1 786/453/1 247/454/1 245/455/1
f 796/456/1 778/457/1 256/458/1 253/459/1
f 797/444/2 779/432/2 259/435/2 246/445/2
f 798/460/2 780/461/2 250/462/2 243/463/2
f 799/464/1 781/452/1 245/455/1 261/465/1
f 800/466/1 782/467/1 242/468/1 244/469/1
f 801/470/1 783/436/1 236/439/1 264/471/1
f 802/472/2 784/473/2 239/474/2 257/475/2
f 803/476/2 785/477/2 263/478/2 235/479/2
f 683/480/2 682/481/2 223/482/2 210/483/2
f 642/385/1 647/484/1 220/485/1 217/386/1
f 670/338/1 643/486/1 211/487/1 209/339/1
f 691/488/3 690/489/3 222/490/3 230/491/3
f 695/492/3 691/488/3 230/491/3 231/493/3
f 690/489/3 659/494/3 221/495/3 222/490/3
f 699/496/2 683/480/2 210/483/2 212/497/2
f 582/362/3 695/492/3 231/493/3 229/363/3
f 666/346/1 706/498/1 201/499/1 200/347/1
f 682/481/2 710/500/2 202/501/2 223/482/2
f 634/502/2 699/496/2 212/497/2 224/503/2
f 678/334/2 714/504/2 215/505/2 214/335/2
f 715/506/7 627/381/7 226/384/7 232/507/7
f 710/500/2 651/353/2 199/356/2 202/501/2
f 706/498/1 671/337/1 225/340/1 201/499/1
f 714/508/3 722/509/3 216/510/3 215/511/3
f 722/512/1 619/379/1 213/380/1 216/513/1
f 618/377/7 715/506/7 232/507/7 233/378/7
f 658/350/2 583/365/2 205/366/2 203/351/2
f 236/514/4 237/515/4 238/516/4 235/517/4
f 239/518/4 241/519/4 242/520/4 240/521/4
f 241/519/4 243/522/4 244/523/4 242/520/4
f 245/524/4 247/525/4 248/526/4 246/527/4
f 250/528/4 251/529/4 252/530/4 249/531/4
f 257/532/4 253/533/4 256/534/4 254/535/4
f 258/536/4 257/532/4 254/535/4 255/537/4
f 237/515/4 261/538/4 259/539/4 238/516/4
f 247/525/4 262/540/4 260/541/4 248/526/4
f 257/532/4 239/518/4 240/521/4 253/533/4
f 261/538/4 245/524/4 246/527/4 259/539/4
f 247/525/4 265/542/4 268/543/4 262/540/4
f 265/542/4 267/544/4 269/545/4 268/543/4
f 267/544/4 266/546/4 270/547/4 269/545/4
f 266/546/4 258/536/4 255/537/4 270/547/4
f 264/548/4 236/514/4 235/517/4 263/549/4
f 243/522/4 250/528/4 249/531/4 244/523/4
f 780/461/2 790/550/2 251/551/2 250/462/2
f 809/552/7 791/553/7 262/554/7 268/555/7
f 789/433/2 803/476/2 235/479/2 238/434/2
f 788/437/1 799/464/1 261/465/1 237/438/1
f 790/556/3 792/557/3 252/558/3 251/559/3
f 792/560/1 793/561/1 249/562/1 252/563/1
f 810/564/7 809/552/7 268/555/7 269/565/7
f 784/473/2 794/566/2 241/567/2 239/474/2
f 811/568/1 796/456/1 253/459/1 240/569/1
f 791/553/7 808/570/7 260/571/7 262/554/7
f 793/561/1 800/466/1 244/469/1 249/562/1
f 812/572/7 810/564/7 269/565/7 270/573/7
f 782/467/1 811/568/1 240/569/1 242/468/1
f 785/574/3 801/575/3 264/576/3 263/577/3
f 813/578/7 795/579/7 255/580/7 254/581/7
f 795/579/7 812/572/7 270/573/7 255/580/7
f 794/566/2 798/460/2 243/463/2 241/567/2
f 786/582/3 807/440/3 265/443/3 247/583/3
f 778/584/7 813/578/7 254/581/7 256/585/7
f 261/538/4 237/515/4 236/514/4 264/548/4 251/529/4 250/528/4 243/522/4 241/519/4 239/518/4 257/532/4 258/536/4 266/546/4 267/544/4 265/542/4 247/525/4 245/524/4
f 741/586/7 740/587/7 342/588/7 273/589/7
f 765/590/7 777/591/7 341/592/7 274/593/7
f 749/594/3 734/595/3 314/596/3 303/597/3
f 303/597/3 314/596/3 313/598/3 304/599/3
f 757/600/2 725/601/2 280/602/2 333/603/2
f 758/604/7 739/605/7 338/606/7 339/607/7
f 776/608/7 775/609/7 337/610/7 340/611/7
f 740/587/7 758/604/7 339/607/7 342/588/7
f 777/591/7 776/608/7 340/611/7 341/592/7
f 748/612/3 728/613/3 292/614/3 301/615/3
f 745/616/1 738/617/1 336/618/1 289/619/1
f 767/620/1 774/621/1 335/622/1 290/623/1
f 739/605/7 737/624/7 332/625/7 338/606/7
f 775/609/7 773/626/7 331/627/7 337/610/7
f 756/628/1 727/629/1 288/630/1 329/631/1
f 772/632/1 766/633/1 287/634/1 330/635/1
f 754/636/7 735/637/7 320/638/7 323/639/7
f 769/640/7 768/641/7 319/642/7 324/643/7
f 738/617/1 723/644/1 272/645/1 336/618/1
f 774/621/1 764/646/1 271/647/1 335/622/1
f 747/648/2 757/600/2 333/603/2 297/649/2
f 737/624/7 736/650/7 326/651/7 332/625/7
f 773/626/7 770/652/7 325/653/7 331/627/7
f 755/654/1 756/628/1 329/631/1 327/655/1
f 771/656/1 772/632/1 330/635/1 328/657/1
f 753/658/3 755/659/3 327/660/3 321/661/3
f 751/662/1 726/663/1 284/664/1 315/665/1
f 752/666/2 730/667/2 300/668/2 317/669/2
f 763/670/2 761/671/2 299/672/2 318/673/2
f 736/650/7 754/636/7 323/639/7 326/651/7
f 770/652/7 769/640/7 324/643/7 325/653/7
f 743/674/2 753/675/2 321/676/2 281/677/2
f 730/667/2 748/678/2 301/679/2 300/668/2
f 761/671/2 762/680/2 302/681/2 299/672/2
f 729/682/2 747/648/2 297/649/2 296/683/2
f 728/684/1 746/685/1 293/686/1 292/687/1
f 727/629/1 745/616/1 289/619/1 288/630/1
f 766/633/1 767/620/1 290/623/1 287/634/1
f 726/663/1 744/688/1 285/689/1 284/664/1
f 725/601/2 743/674/2 281/677/2 280/602/2
f 724/690/2 742/691/2 277/692/2 276/693/2
f 759/694/2 760/695/2 278/696/2 275/697/2
f 723/644/1 741/698/1 273/699/1 272/645/1
f 764/646/1 765/700/1 274/701/1 271/647/1
f 744/688/1 749/702/1 303/703/1 285/689/1
f 731/704/3 750/705/3 305/706/3 308/707/3
f 308/707/3 305/706/3 306/708/3 307/709/3
f 732/710/3 731/704/3 308/707/3 310/711/3
f 310/711/3 308/707/3 307/709/3 309/712/3
f 750/705/3 729/713/3 296/714/3 305/706/3
f 305/706/3 296/714/3 295/715/3 306/708/3
f 733/716/2 724/690/2 276/693/2 312/717/2
f 312/717/2 276/693/2 759/694/2 814/718/2
f 734/595/3 732/710/3 310/711/3 314/596/3
f 314/596/3 310/711/3 309/712/3 313/598/3
f 746/685/1 751/662/1 315/665/1 293/686/1
f 742/691/2 752/666/2 317/669/2 277/692/2
f 760/695/2 763/670/2 318/673/2 278/696/2
f 735/719/2 733/716/2 312/717/2 320/720/2
f 320/720/2 312/717/2 814/718/2 768/721/2
f 280/722/4 281/723/4 345/724/4 344/725/4
f 279/726/5 334/727/5 354/728/5 343/729/5
f 281/723/4 321/730/4 351/731/4 345/724/4
f 298/732/5 295/733/5 347/734/5 350/735/5
f 333/736/4 280/722/4 344/725/4 353/737/4
f 322/738/5 282/739/5 346/740/5 352/741/5
f 297/742/4 333/736/4 353/737/4 349/743/4
f 282/739/5 279/726/5 343/729/5 346/740/5
f 296/744/4 297/742/4 349/743/4 348/745/4
f 295/715/3 296/714/3 348/746/3 347/747/3
f 334/727/5 298/732/5 350/735/5 354/728/5
f 294/748/5 291/749/5 302/750/5 299/751/5 318/752/5 278/753/5 275/754/5 311/755/5 304/756/5 286/757/5 283/758/5 316/759/5
f 303/597/3 304/599/3 311/760/3 814/761/3 312/762/3
f 292/755/4 293/763/4 315/764/4 284/765/4 285/766/4 303/767/4 312/768/4 276/769/4 277/770/4 317/771/4 300/772/4 301/756/4
f 355/773/13 356/774/13 358/775/13 357/776/13
f 357/777/14 358/778/14 362/779/14 361/780/14
f 361/781/15 362/782/15 360/783/15 359/784/15
f 359/785/16 360/786/16 356/782/16 355/781/16
f 357/787/3 361/788/3 359/789/3 355/790/3
f 362/791/7 358/792/7 356/793/7 360/794/7
f 43/111/2 37/110/2 446/795/2 462/796/2
f 462/796/2 446/795/2 445/797/2 463/798/2
f 463/798/2 445/797/2 444/305/2 464/319/2
f 1/165/2 55/164/2 461/799/2 450/800/2
f 450/800/2 461/799/2 460/801/2 451/802/2
f 451/802/2 460/801/2 459/317/2 452/331/2
f 77/803/7 78/804/7 470/805/7 387/806/7
f 387/806/7 470/805/7 469/807/7 388/808/7
f 388/808/7 469/807/7 468/323/7 389/198/7
f 92/38/1 19/36/1 419/809/1 366/810/1
f 366/810/1 419/809/1 418/811/1 367/812/1
f 367/812/1 418/811/1 417/57/1 368/117/1
f 96/230/1 99/163/1 425/813/1 402/814/1
f 402/814/1 425/813/1 424/815/1 403/816/1
f 403/816/1 424/815/1 423/17/1 404/329/1
f 21/817/7 75/818/7 371/819/7 378/820/7
f 378/820/7 371/819/7 370/821/7 379/822/7
f 379/822/7 370/821/7 369/120/7 380/174/7
f 22/823/7 45/824/7 431/825/7 465/826/7
f 465/826/7 431/825/7 430/827/7 466/828/7
f 466/828/7 430/827/7 429/327/7 467/324/7
f 68/181/3 67/178/3 455/829/3 393/830/3
f 393/830/3 455/829/3 454/831/3 394/832/3
f 394/832/3 454/831/3 453/311/3 395/200/3
f 78/804/7 22/823/7 465/826/7 470/805/7
f 470/805/7 465/826/7 466/828/7 469/807/7
f 469/807/7 466/828/7 467/324/7 468/323/7
f 13/35/1 57/32/1 449/833/1 414/834/1
f 414/834/1 449/833/1 448/835/1 415/836/1
f 415/836/1 448/835/1 447/309/1 416/58/1
f 87/113/2 38/214/2 401/837/2 441/838/2
f 441/838/2 401/837/2 400/839/2 442/840/2
f 442/840/2 400/839/2 399/321/2 443/306/2
f 63/106/2 43/111/2 462/796/2 456/841/2
f 456/841/2 462/796/2 463/798/2 457/842/2
f 457/842/2 463/798/2 464/319/2 458/315/2
f 55/164/2 5/167/2 374/843/2 461/799/2
f 461/799/2 374/843/2 373/844/2 460/801/2
f 460/801/2 373/844/2 372/168/2 459/317/2
f 40/107/2 63/106/2 456/841/2 426/845/2
f 426/845/2 456/841/2 457/842/2 427/846/2
f 427/846/2 457/842/2 458/315/2 428/14/2
f 67/178/3 1/177/3 450/847/3 455/829/3
f 455/829/3 450/847/3 451/848/3 454/831/3
f 454/831/3 451/848/3 452/312/3 453/311/3
f 9/161/1 6/162/1 437/849/1 420/850/1
f 420/850/1 437/849/1 436/851/1 421/852/1
f 421/852/1 436/851/1 435/5/1 422/18/1
f 57/32/1 14/31/1 440/853/1 449/833/1
f 449/833/1 440/853/1 439/854/1 448/835/1
f 448/835/1 439/854/1 438/1/1 447/309/1
f 37/110/2 87/113/2 441/838/2 446/795/2
f 446/795/2 441/838/2 442/840/2 445/797/2
f 445/797/2 442/840/2 443/306/2 444/305/2
f 61/158/1 2/160/1 413/855/1 432/856/1
f 432/856/1 413/855/1 412/857/1 433/858/1
f 433/858/1 412/857/1 411/303/1 434/6/1
f 102/221/2 95/229/2 408/859/2 407/860/2
f 407/860/2 408/859/2 409/861/2 406/862/2
f 406/862/2 409/861/2 410/227/2 405/202/2
f 38/125/3 96/124/3 402/863/3 401/864/3
f 401/864/3 402/863/3 403/865/3 400/866/3
f 400/866/3 403/865/3 404/218/3 399/217/3
f 12/166/2 102/221/2 407/860/2 398/867/2
f 398/867/2 407/860/2 406/862/2 397/868/2
f 397/868/2 406/862/2 405/202/2 396/169/2
f 69/183/3 68/181/3 393/830/3 392/869/3
f 392/869/3 393/830/3 394/832/3 391/870/3
f 391/870/3 394/832/3 395/200/3 390/26/3
f 76/871/7 77/803/7 387/806/7 386/872/7
f 386/872/7 387/806/7 388/808/7 385/873/7
f 385/873/7 388/808/7 389/198/7 384/121/7
f 95/39/3 17/42/3 381/874/3 408/875/3
f 408/875/3 381/874/3 382/876/3 409/877/3
f 409/877/3 382/876/3 383/195/3 410/194/3
f 24/878/7 21/817/7 378/820/7 377/879/7
f 377/879/7 378/820/7 379/822/7 376/880/7
f 376/880/7 379/822/7 380/174/7 375/173/7
f 5/167/2 12/166/2 398/867/2 374/843/2
f 374/843/2 398/867/2 397/868/2 373/844/2
f 373/844/2 397/868/2 396/169/2 372/168/2
f 75/818/7 76/871/7 386/872/7 371/819/7
f 371/819/7 386/872/7 385/873/7 370/821/7
f 370/821/7 385/873/7 384/121/7 369/120/7
f 17/226/1 92/38/1 366/810/1 381/881/1
f 381/881/1 366/810/1 367/812/1 382/882/1
f 382/882/1 367/812/1 368/117/1 383/116/1
f 2/157/3 70/156/3 363/883/3 413/884/3
f 413/884/3 363/883/3 364/885/3 412/886/3
f 412/886/3 364/885/3 365/25/3 411/61/3
f 19/36/1 13/35/1 414/834/1 419/809/1
f 419/809/1 414/834/1 415/836/1 418/811/1
f 418/811/1 415/836/1 416/58/1 417/57/1
f 70/156/3 69/183/3 392/869/3 363/883/3
f 363/883/3 392/869/3 391/870/3 364/885/3
f 364/885/3 391/870/3 390/26/3 365/25/3
f 99/163/1 9/161/1 420/850/1 425/813/1
f 425/813/1 420/850/1 421/852/1 424/815/1
f 424/815/1 421/852/1 422/18/1 423/17/1
f 45/114/2 40/107/2 426/845/2 431/887/2
f 431/887/2 426/845/2 427/846/2 430/888/2
f 430/888/2 427/846/2 428/14/2 429/13/2
f 6/162/1 61/158/1 432/856/1 437/849/1
f 437/849/1 432/856/1 433/858/1 436/851/1
f 436/851/1 433/858/1 434/6/1 435/5/1
f 14/31/1 24/64/1 377/889/1 440/853/1
f 440/853/1 377/889/1 376/890/1 439/854/1
f 439/854/1 376/890/1 375/2/1 438/1/1
f 136/891/12 134/892/12 566/893/12 558/894/12
f 558/894/12 566/893/12 565/895/12 559/896/12
f 559/896/12 565/895/12 564/409/12 560/405/12
f 156/897/9 128/898/9 521/899/9 567/900/9
f 567/900/9 521/899/9 520/901/9 568/902/9
f 568/902/9 520/901/9 519/279/9 569/427/9
f 149/903/11 131/904/11 554/905/11 480/906/11
f 480/906/11 554/905/11 553/907/11 481/908/11
f 481/908/11 553/907/11 552/397/11 482/425/11
f 127/909/10 155/910/10 572/911/10 537/912/10
f 537/912/10 572/911/10 571/913/10 538/914/10
f 538/914/10 571/913/10 570/423/10 539/262/10
f 148/176/7 146/175/7 578/915/7 498/916/7
f 498/916/7 578/915/7 577/917/7 499/918/7
f 499/918/7 577/917/7 576/415/7 500/421/7
f 139/62/3 157/28/3 476/919/3 492/920/3
f 492/920/3 476/919/3 475/921/3 493/922/3
f 493/922/3 475/921/3 474/281/3 494/419/3
f 133/923/11 135/924/11 509/925/11 549/926/11
f 549/926/11 509/925/11 508/927/11 550/928/11
f 550/928/11 508/927/11 507/301/11 551/398/11
f 147/123/7 162/122/7 563/929/7 573/930/7
f 573/930/7 563/929/7 562/931/7 574/932/7
f 574/932/7 562/931/7 561/407/7 575/416/7
f 146/175/7 147/123/7 573/930/7 578/915/7
f 578/915/7 573/930/7 574/932/7 577/917/7
f 577/917/7 574/932/7 575/416/7 576/415/7
f 155/220/3 156/219/3 567/933/3 572/934/3
f 572/934/3 567/933/3 568/935/3 571/936/3
f 571/936/3 568/935/3 569/412/3 570/411/3
f 134/892/12 132/937/12 557/938/12 566/893/12
f 566/893/12 557/938/12 556/939/12 565/895/12
f 565/895/12 556/939/12 555/401/12 564/409/12
f 162/122/7 161/199/7 548/940/7 563/929/7
f 563/929/7 548/940/7 547/941/7 562/931/7
f 562/931/7 547/941/7 546/395/7 561/407/7
f 141/942/12 136/891/12 558/894/12 543/943/12
f 543/943/12 558/894/12 559/896/12 544/944/12
f 544/944/12 559/896/12 560/405/12 545/392/12
f 154/325/7 152/328/7 527/945/7 531/946/7
f 531/946/7 527/945/7 526/947/7 532/948/7
f 532/948/7 526/947/7 525/403/7 533/266/7
f 132/937/12 145/949/12 497/950/12 557/938/12
f 557/938/12 497/950/12 496/951/12 556/939/12
f 556/939/12 496/951/12 495/297/12 555/401/12
f 131/904/11 133/923/11 549/926/11 554/905/11
f 554/905/11 549/926/11 550/928/11 553/907/11
f 553/907/11 550/928/11 551/398/11 552/397/11
f 161/199/7 160/326/7 536/952/7 548/940/7
f 548/940/7 536/952/7 535/953/7 547/941/7
f 547/941/7 535/953/7 534/265/7 546/395/7
f 144/954/12 141/942/12 543/943/12 540/955/12
f 540/955/12 543/943/12 544/944/12 541/956/12
f 541/956/12 544/944/12 545/392/12 542/391/12
f 143/197/3 144/196/3 540/957/3 528/958/3
f 528/958/3 540/957/3 541/959/3 529/960/3
f 529/960/3 541/959/3 542/388/3 530/387/3
f 153/961/9 137/962/9 516/963/9 515/964/9
f 515/964/9 516/963/9 517/965/9 514/966/9
f 514/966/9 517/965/9 518/293/9 513/258/9
f 135/924/11 142/967/11 510/968/11 509/925/11
f 509/925/11 510/968/11 511/969/11 508/927/11
f 508/927/11 511/969/11 512/269/11 507/301/11
f 138/970/10 151/971/10 504/972/10 503/973/10
f 503/973/10 504/972/10 505/974/10 502/975/10
f 502/975/10 505/974/10 506/277/10 501/285/10
f 145/949/12 148/976/12 498/977/12 497/950/12
f 497/950/12 498/977/12 499/978/12 496/951/12
f 496/951/12 499/978/12 500/298/12 495/297/12
f 137/962/9 139/979/9 492/980/9 516/963/9
f 516/963/9 492/980/9 493/981/9 517/965/9
f 517/965/9 493/981/9 494/294/9 518/293/9
f 158/201/3 150/314/3 489/982/3 488/983/3
f 488/983/3 489/982/3 490/984/3 487/985/3
f 487/985/3 490/984/3 491/287/3 486/291/3
f 159/27/3 158/201/3 488/983/3 485/986/3
f 485/986/3 488/983/3 487/985/3 484/987/3
f 484/987/3 487/985/3 486/291/3 483/282/3
f 150/314/3 149/313/3 480/988/3 489/982/3
f 489/982/3 480/988/3 481/989/3 490/984/3
f 490/984/3 481/989/3 482/288/3 491/287/3
f 140/990/10 138/970/10 503/973/10 479/991/10
f 479/991/10 503/973/10 502/975/10 478/992/10
f 478/992/10 502/975/10 501/285/10 477/274/10
f 157/28/3 159/27/3 485/986/3 476/919/3
f 476/919/3 485/986/3 484/987/3 475/921/3
f 475/921/3 484/987/3 483/282/3 474/281/3
f 128/898/9 129/993/9 471/994/9 521/899/9
f 521/899/9 471/994/9 472/995/9 520/901/9
f 520/901/9 472/995/9 473/257/9 519/279/9
f 151/971/10 130/996/10 522/997/10 504/972/10
f 504/972/10 522/997/10 523/998/10 505/974/10
f 505/974/10 523/998/10 524/261/10 506/277/10
f 152/999/10 140/990/10 479/991/10 527/1000/10
f 527/1000/10 479/991/10 478/992/10 526/1001/10
f 526/1001/10 478/992/10 477/274/10 525/273/10
f 142/967/11 143/1002/11 528/1003/11 510/968/11
f 510/968/11 528/1003/11 529/1004/11 511/969/11
f 511/969/11 529/1004/11 530/270/11 512/269/11
f 160/326/7 154/325/7 531/946/7 536/952/7
f 536/952/7 531/946/7 532/948/7 535/953/7
f 535/953/7 532/948/7 533/266/7 534/265/7
f 130/996/10 127/909/10 537/912/10 522/997/10
f 522/997/10 537/912/10 538/914/10 523/998/10
f 523/998/10 538/914/10 539/262/10 524/261/10
f 129/993/9 153/961/9 515/964/9 471/994/9
f 471/994/9 515/964/9 514/966/9 472/995/9
f 472/995/9 514/966/9 513/258/9 473/257/9
f 167/1005/2 169/1006/2 586/1007/2 655/1008/2
f 655/1008/2 586/1007/2 585/1009/2 656/1010/2
f 656/1010/2 585/1009/2 584/1011/2 657/1012/2
f 657/1012/2 584/1011/2 583/365/2 658/350/2
f 197/396/7 196/268/7 718/1013/7 615/1014/7
f 615/1014/7 718/1013/7 717/1015/7 616/1016/7
f 616/1016/7 717/1015/7 716/1017/7 617/1018/7
f 617/1018/7 716/1017/7 715/506/7 618/377/7
f 180/1019/1 177/1020/1 622/1021/1 719/1022/1
f 719/1022/1 622/1021/1 621/1023/1 720/1024/1
f 720/1024/1 621/1023/1 620/1025/1 721/1026/1
f 721/1026/1 620/1025/1 619/379/1 722/512/1
f 179/390/3 180/389/3 719/1027/3 711/1028/3
f 711/1028/3 719/1027/3 720/1029/3 712/1030/3
f 712/1030/3 720/1029/3 721/1031/3 713/1032/3
f 713/1032/3 721/1031/3 722/509/3 714/508/3
f 165/1033/1 189/1034/1 674/1035/1 703/1036/1
f 703/1036/1 674/1035/1 673/1037/1 704/1038/1
f 704/1038/1 673/1037/1 672/1039/1 705/1040/1
f 705/1040/1 672/1039/1 671/337/1 706/498/1
f 166/1041/2 163/1020/2 654/1042/2 707/1043/2
f 707/1043/2 654/1042/2 653/1044/2 708/1045/2
f 708/1045/2 653/1044/2 652/1046/2 709/1047/2
f 709/1047/2 652/1046/2 651/353/2 710/500/2
f 196/268/7 190/267/7 630/1048/7 718/1013/7
f 718/1013/7 630/1048/7 629/1049/7 717/1015/7
f 717/1015/7 629/1049/7 628/1050/7 716/1017/7
f 716/1017/7 628/1050/7 627/381/7 715/506/7
f 178/1051/2 179/1052/2 711/1053/2 675/1054/2
f 675/1054/2 711/1053/2 712/1055/2 676/1056/2
f 676/1056/2 712/1055/2 713/1057/2 677/1058/2
f 677/1058/2 713/1057/2 714/504/2 678/334/2
f 188/1059/2 176/1060/2 702/1061/2 631/1062/2
f 631/1062/2 702/1061/2 701/1063/2 632/1064/2
f 632/1064/2 701/1063/2 700/1065/2 633/1066/2
f 633/1066/2 700/1065/2 699/496/2 634/502/2
f 187/1067/2 166/1041/2 707/1043/2 679/1068/2
f 679/1068/2 707/1043/2 708/1045/2 680/1069/2
f 680/1069/2 708/1045/2 709/1047/2 681/1070/2
f 681/1070/2 709/1047/2 710/500/2 682/481/2
f 164/1071/1 165/1033/1 703/1036/1 663/1072/1
f 663/1072/1 703/1036/1 704/1038/1 664/1073/1
f 664/1073/1 704/1038/1 705/1040/1 665/1074/1
f 665/1074/1 705/1040/1 706/498/1 666/346/1
f 193/284/3 195/283/3 698/1075/3 579/1076/3
f 579/1076/3 698/1075/3 697/1077/3 580/1078/3
f 580/1078/3 697/1077/3 696/1079/3 581/1080/3
f 581/1080/3 696/1079/3 695/492/3 582/362/3
f 176/1060/2 174/1081/2 686/1082/2 702/1061/2
f 702/1061/2 686/1082/2 685/1083/2 701/1063/2
f 701/1063/2 685/1083/2 684/1084/2 700/1065/2
f 700/1065/2 684/1084/2 683/480/2 699/496/2
f 186/290/3 185/289/3 662/1085/3 687/1086/3
f 687/1086/3 662/1085/3 661/1087/3 688/1088/3
f 688/1088/3 661/1087/3 660/1089/3 689/1090/3
f 689/1090/3 660/1089/3 659/494/3 690/489/3
f 195/283/3 194/292/3 694/1091/3 698/1075/3
f 698/1075/3 694/1091/3 693/1092/3 697/1077/3
f 697/1077/3 693/1092/3 692/1093/3 696/1079/3
f 696/1079/3 692/1093/3 691/488/3 695/492/3
f 194/292/3 186/290/3 687/1086/3 694/1091/3
f 694/1091/3 687/1086/3 688/1088/3 693/1092/3
f 693/1092/3 688/1088/3 689/1090/3 692/1093/3
f 692/1093/3 689/1090/3 690/489/3 691/488/3
f 173/1094/1 175/1095/1 646/1096/1 667/1097/1
f 667/1097/1 646/1096/1 645/1098/1 668/1099/1
f 668/1099/1 645/1098/1 644/1100/1 669/1101/1
f 669/1101/1 644/1100/1 643/486/1 670/338/1
f 181/1060/1 184/1059/1 650/1102/1 639/1103/1
f 639/1103/1 650/1102/1 649/1104/1 640/1105/1
f 640/1105/1 649/1104/1 648/1106/1 641/1107/1
f 641/1107/1 648/1106/1 647/484/1 642/385/1
f 174/1081/2 187/1067/2 679/1068/2 686/1082/2
f 686/1082/2 679/1068/2 680/1069/2 685/1083/2
f 685/1083/2 680/1069/2 681/1070/2 684/1084/2
f 684/1084/2 681/1070/2 682/481/2 683/480/2
f 168/1108/1 181/1060/1 639/1103/1 638/1109/1
f 638/1109/1 639/1103/1 640/1105/1 637/1110/1
f 637/1110/1 640/1105/1 641/1107/1 636/1111/1
f 636/1111/1 641/1107/1 642/385/1 635/375/1
f 190/267/7 188/404/7 631/1112/7 630/1048/7
f 630/1048/7 631/1112/7 632/1113/7 629/1049/7
f 629/1049/7 632/1113/7 633/1114/7 628/1050/7
f 628/1050/7 633/1114/7 634/382/7 627/381/7
f 177/1020/1 172/1041/1 623/1115/1 622/1021/1
f 622/1021/1 623/1115/1 624/1116/1 621/1023/1
f 621/1023/1 624/1116/1 625/1117/1 620/1025/1
f 620/1025/1 625/1117/1 626/341/1 619/379/1
f 198/408/7 197/396/7 615/1014/7 614/1118/7
f 614/1118/7 615/1014/7 616/1016/7 613/1119/7
f 613/1119/7 616/1016/7 617/1018/7 612/1120/7
f 612/1120/7 617/1018/7 618/377/7 611/368/7
f 170/1121/1 168/1108/1 638/1109/1 610/1122/1
f 610/1122/1 638/1109/1 637/1110/1 609/1123/1
f 609/1123/1 637/1110/1 636/1111/1 608/1124/1
f 608/1124/1 636/1111/1 635/375/1 607/342/1
f 191/414/3 192/413/3 603/1125/3 602/1126/3
f 602/1126/3 603/1125/3 604/1127/3 601/1128/3
f 601/1128/3 604/1127/3 605/1129/3 600/1130/3
f 600/1130/3 605/1129/3 606/372/3 599/371/3
f 182/418/7 183/417/7 595/1131/7 594/1132/7
f 594/1132/7 595/1131/7 596/1133/7 593/1134/7
f 593/1134/7 596/1133/7 597/1135/7 592/1136/7
f 592/1136/7 597/1135/7 598/367/7 591/358/7
f 183/417/7 198/408/7 614/1118/7 595/1131/7
f 595/1131/7 614/1118/7 613/1119/7 596/1133/7
f 596/1133/7 613/1119/7 612/1120/7 597/1135/7
f 597/1135/7 612/1120/7 611/368/7 598/367/7
f 169/1006/2 171/1137/2 587/1138/2 586/1007/2
f 586/1007/2 587/1138/2 588/1139/2 585/1009/2
f 585/1009/2 588/1139/2 589/1140/2 584/1011/2
f 584/1011/2 589/1140/2 590/333/2 583/365/2
f 175/420/3 193/284/3 579/1076/3 646/1141/3
f 646/1141/3 579/1076/3 580/1078/3 645/1142/3
f 645/1142/3 580/1078/3 581/1080/3 644/1143/3
f 644/1143/3 581/1080/3 582/362/3 643/361/3
f 184/422/7 182/418/7 594/1132/7 650/1144/7
f 650/1144/7 594/1132/7 593/1134/7 649/1145/7
f 649/1145/7 593/1134/7 592/1136/7 648/1146/7
f 648/1146/7 592/1136/7 591/358/7 647/357/7
f 163/1020/2 191/1019/2 602/1147/2 654/1042/2
f 654/1042/2 602/1147/2 601/1148/2 653/1044/2
f 653/1044/2 601/1148/2 600/1149/2 652/1046/2
f 652/1046/2 600/1149/2 599/354/2 651/353/2
f 185/1150/2 167/1005/2 655/1008/2 662/1151/2
f 662/1151/2 655/1008/2 656/1010/2 661/1152/2
f 661/1152/2 656/1010/2 657/1012/2 660/1153/2
f 660/1153/2 657/1012/2 658/350/2 659/349/2
f 192/1154/1 164/1071/1 663/1072/1 603/1155/1
f 603/1155/1 663/1072/1 664/1073/1 604/1156/1
f 604/1156/1 664/1073/1 665/1074/1 605/1157/1
f 605/1157/1 665/1074/1 666/346/1 606/345/1
f 172/1041/1 170/1121/1 610/1122/1 623/1115/1
f 623/1115/1 610/1122/1 609/1123/1 624/1116/1
f 624/1116/1 609/1123/1 608/1124/1 625/1117/1
f 625/1117/1 608/1124/1 607/342/1 626/341/1
f 189/1034/1 173/1094/1 667/1097/1 674/1035/1
f 674/1035/1 667/1097/1 668/1099/1 673/1037/1
f 673/1037/1 668/1099/1 669/1101/1 672/1039/1
f 672/1039/1 669/1101/1 670/338/1 671/337/1
f 171/1137/2 178/1051/2 675/1054/2 587/1138/2
f 587/1138/2 675/1054/2 676/1056/2 588/1139/2
f 588/1139/2 676/1056/2 677/1058/2 589/1140/2
f 589/1140/2 677/1058/2 678/334/2 590/333/2
f 224/503/2 212/497/2 733/716/2 735/719/2
f 223/482/2 202/501/2 752/666/2 742/691/2
f 200/347/1 201/499/1 751/662/1 746/685/1
f 229/363/3 231/493/3 732/710/3 734/595/3
f 212/497/2 210/483/2 724/690/2 733/716/2
f 222/490/3 221/495/3 729/713/3 750/705/3
f 231/493/3 230/491/3 731/704/3 732/710/3
f 230/491/3 222/490/3 750/705/3 731/704/3
f 209/339/1 211/487/1 749/702/1 744/688/1
f 217/386/1 220/485/1 741/698/1 723/644/1
f 210/483/2 223/482/2 742/691/2 724/690/2
f 207/336/2 214/335/2 743/674/2 725/601/2
f 225/340/1 209/339/1 744/688/1 726/663/1
f 208/344/1 206/343/1 745/616/1 727/629/1
f 228/348/1 200/347/1 746/685/1 728/684/1
f 221/352/2 203/351/2 747/648/2 729/682/2
f 199/356/2 227/355/2 748/678/2 730/667/2
f 214/335/2 215/505/2 753/675/2 743/674/2
f 232/507/7 226/384/7 754/636/7 736/650/7
f 202/501/2 199/356/2 730/667/2 752/666/2
f 201/499/1 225/340/1 726/663/1 751/662/1
f 215/511/3 216/510/3 755/659/3 753/658/3
f 216/513/1 213/380/1 756/628/1 755/654/1
f 233/378/7 232/507/7 736/650/7 737/624/7
f 203/351/2 205/366/2 757/600/2 747/648/2
f 204/376/1 217/386/1 723/644/1 738/617/1
f 226/384/7 224/383/7 735/637/7 754/636/7
f 213/380/1 208/344/1 727/629/1 756/628/1
f 234/369/7 233/378/7 737/624/7 739/605/7
f 206/343/1 204/376/1 738/617/1 745/616/1
f 227/374/3 228/373/3 728/613/3 748/612/3
f 218/359/7 219/370/7 758/604/7 740/587/7
f 219/370/7 234/369/7 739/605/7 758/604/7
f 205/366/2 207/336/2 725/601/2 757/600/2
f 211/364/3 229/363/3 734/595/3 749/594/3
f 220/360/7 218/359/7 740/587/7 741/586/7
f 277/692/2 317/669/2 763/670/2 760/695/2
f 276/693/2 277/692/2 760/695/2 759/694/2
f 300/668/2 301/679/2 762/680/2 761/671/2
f 317/669/2 300/668/2 761/671/2 763/670/2
f 272/645/1 273/699/1 765/700/1 764/646/1
f 288/630/1 289/619/1 767/620/1 766/633/1
f 326/651/7 323/639/7 769/640/7 770/652/7
f 327/655/1 329/631/1 772/632/1 771/656/1
f 332/625/7 326/651/7 770/652/7 773/626/7
f 336/618/1 272/645/1 764/646/1 774/621/1
f 323/639/7 320/638/7 768/641/7 769/640/7
f 329/631/1 288/630/1 766/633/1 772/632/1
f 338/606/7 332/625/7 773/626/7 775/609/7
f 289/619/1 336/618/1 774/621/1 767/620/1
f 342/588/7 339/607/7 776/608/7 777/591/7
f 339/607/7 338/606/7 775/609/7 776/608/7
f 273/589/7 342/588/7 777/591/7 765/590/7
f 274/593/7 341/592/7 813/578/7 778/584/7
f 304/599/3 313/598/3 807/440/3 786/582/3
f 334/1158/2 279/1159/2 798/460/2 794/566/2
f 340/611/7 337/610/7 812/572/7 795/579/7
f 341/592/7 340/611/7 795/579/7 813/578/7
f 302/1160/3 291/1161/3 801/575/3 785/574/3
f 290/623/1 335/622/1 811/568/1 782/467/1
f 337/610/7 331/627/7 810/564/7 812/572/7
f 330/635/1 287/634/1 800/466/1 793/561/1
f 324/643/7 319/642/7 808/570/7 791/553/7
f 335/622/1 271/647/1 796/456/1 811/568/1
f 298/1162/2 334/1158/2 794/566/2 784/473/2
f 331/627/7 325/653/7 809/552/7 810/564/7
f 328/657/1 330/635/1 793/561/1 792/560/1
f 322/1163/3 328/1164/3 792/557/3 790/556/3
f 316/1165/1 283/1166/1 799/464/1 788/437/1
f 318/673/2 299/672/2 803/476/2 789/433/2
f 325/653/7 324/643/7 791/553/7 809/552/7
f 282/1167/2 322/1168/2 790/550/2 780/461/2
f 299/672/2 302/681/2 785/477/2 803/476/2
f 295/1169/2 298/1162/2 784/473/2 802/472/2
f 291/1170/1 294/1171/1 783/436/1 801/470/1
f 287/634/1 290/623/1 782/467/1 800/466/1
f 283/1166/1 286/1172/1 781/452/1 799/464/1
f 279/1159/2 282/1167/2 780/461/2 798/460/2
f 275/697/2 278/696/2 779/432/2 797/444/2
f 271/647/1 274/701/1 778/457/1 796/456/1
f 286/1172/1 304/1173/1 786/453/1 781/452/1
f 307/709/3 306/708/3 787/446/3 804/450/3
f 309/712/3 307/709/3 804/450/3 805/441/3
f 306/708/3 295/715/3 802/447/3 787/446/3
f 311/1174/2 275/697/2 797/444/2 806/430/2
f 313/598/3 309/712/3 805/441/3 807/440/3
f 294/1171/1 316/1165/1 788/437/1 783/436/1
f 278/696/2 318/673/2 789/433/2 779/432/2
f 319/1175/2 311/1174/2 806/430/2 808/429/2
f 814/718/2 759/694/2 275/697/2 311/1174/2
f 768/721/2 814/718/2 311/1174/2 319/1175/2
