# Blender 5.0.0
# www.blender.org
mtllib Untitled.mtl
o Cube
v 3.926371 0.187444 -3.926371
v 3.926371 -0.187444 -3.926371
v 3.926371 0.187444 3.926371
v 3.926371 -0.187444 3.926371
v -3.926371 0.187444 -3.926371
v -3.926371 -0.187444 -3.926371
v -3.926371 0.187444 3.926371
v -3.926371 -0.187444 3.926371
v 1.963185 -0.187444 -3.926371
v 0.000000 -0.187444 -3.926371
v -1.963185 -0.187444 -3.926371
v 1.963185 0.187444 3.926371
v 0.000000 0.187444 3.926371
v -1.963185 0.187444 3.926371
v -1.963185 -0.187444 3.926371
v 0.000000 -0.187444 3.926371
v 1.963185 -0.187444 3.926371
v -1.963185 0.187444 -3.926371
v 0.000000 0.187444 -3.926371
v 1.963185 0.187444 -3.926371
v -2.591404 0.187444 -3.298151
v -3.298151 0.187444 -3.298151
v -3.298151 0.187444 3.298151
v -2.591404 0.187444 3.298151
v 3.298151 0.187444 -3.298151
v 2.591404 0.187444 -3.298151
v 2.591404 0.187444 3.298151
v 3.298151 0.187444 3.298151
v 1.334966 0.187444 -3.298151
v 0.628219 0.187444 -3.298151
v 0.628219 0.187444 3.298151
v 1.334966 0.187444 3.298151
v -0.628219 0.187444 -3.298151
v -1.334966 0.187444 -3.298151
v -1.334966 0.187444 3.298151
v -0.628219 0.187444 3.298151
v -3.298151 -0.059093 -3.298151
v -2.591404 -0.059093 -3.298151
v -2.591404 -0.059093 3.298151
v -3.298151 -0.059093 3.298151
v 2.591404 -0.059093 -3.298151
v 3.298151 -0.059093 -3.298151
v 3.298151 -0.059093 3.298151
v 2.591404 -0.059093 3.298151
v 0.628219 -0.059093 -3.298151
v 1.334966 -0.059093 -3.298151
v 1.334966 -0.059093 3.298151
v 0.628219 -0.059093 3.298151
v -1.334966 -0.059093 -3.298151
v -0.628219 -0.059093 -3.298151
v -0.628219 -0.059093 3.298151
v -1.334966 -0.059093 3.298151
vn -0.0000 -0.0000 1.0000
vn -1.0000 -0.0000 -0.0000
vn -0.0000 -1.0000 -0.0000
vn 1.0000 -0.0000 -0.0000
vn -0.0000 -0.0000 -1.0000
vn -0.0000 1.0000 -0.0000
vt 0.647150 0.950132
vt 0.622794 0.950132
vt 0.622794 0.772164
vt 0.647150 0.772164
vt 0.411586 0.272164
vt 0.411586 0.542785
vt 0.343931 0.542785
vt 0.343931 0.272164
vt 0.271136 0.271136
vt 0.000514 0.271136
vt 0.000514 0.000514
vt 0.271136 0.000514
vt 0.412614 0.272164
vt 0.480270 0.272164
vt 0.480270 0.542785
vt 0.412614 0.542786
vt 0.272164 0.000514
vt 0.542785 0.000514
vt 0.542785 0.271136
vt 0.272164 0.271136
vt 0.548953 0.272164
vt 0.548953 0.542785
vt 0.481298 0.542786
vt 0.481298 0.272164
vt 0.611469 0.000514
vt 0.611469 0.271136
vt 0.543813 0.271136
vt 0.543813 0.000514
vt 0.136853 0.272164
vt 0.136853 0.542785
vt 0.069197 0.542786
vt 0.069197 0.272164
vt 0.205536 0.272164
vt 0.205536 0.542785
vt 0.137881 0.542785
vt 0.137881 0.272164
vt 0.206564 0.272164
vt 0.274220 0.272164
vt 0.274220 0.542786
vt 0.206564 0.542786
vt 0.275247 0.272164
vt 0.342903 0.272164
vt 0.342903 0.542786
vt 0.275247 0.542786
vt 0.549981 0.272164
vt 0.617637 0.272164
vt 0.617637 0.542785
vt 0.549981 0.542785
vt 0.680152 0.000514
vt 0.680152 0.271136
vt 0.612497 0.271136
vt 0.612497 0.000514
vt 0.686320 0.272164
vt 0.686320 0.542785
vt 0.618664 0.542785
vt 0.618664 0.272164
vt 0.748836 0.000514
vt 0.748836 0.271136
vt 0.681180 0.271136
vt 0.681180 0.000514
vt 0.137881 0.771136
vt 0.137881 0.543813
vt 0.315850 0.543813
vt 0.315850 0.771136
vt 0.520230 0.950133
vt 0.495874 0.950133
vt 0.495874 0.772164
vt 0.520230 0.772164
vt 0.545614 0.950133
vt 0.521258 0.950133
vt 0.521258 0.772164
vt 0.545614 0.772164
vt 0.068169 0.542786
vt 0.000514 0.542786
vt 0.022164 0.521136
vt 0.046520 0.521136
vt 0.000514 0.272164
vt 0.022164 0.293813
vt 0.068169 0.272164
vt 0.046520 0.293813
vt 0.068169 0.542785
vt 0.046520 0.521136
vt 0.687348 0.272164
vt 0.755003 0.272164
vt 0.733354 0.293813
vt 0.708998 0.293813
vt 0.755003 0.542785
vt 0.733354 0.521136
vt 0.687348 0.542785
vt 0.708998 0.521136
vt 0.000514 0.543813
vt 0.068169 0.543813
vt 0.046520 0.565463
vt 0.022164 0.565463
vt 0.068169 0.814435
vt 0.046520 0.792785
vt 0.000514 0.814435
vt 0.022164 0.792785
vt 0.069197 0.543813
vt 0.136853 0.543813
vt 0.115203 0.565463
vt 0.090847 0.565463
vt 0.136853 0.814435
vt 0.115203 0.792785
vt 0.069197 0.814435
vt 0.090847 0.792785
vt 0.853868 0.543813
vt 0.878224 0.543813
vt 0.878224 0.771136
vt 0.853868 0.771136
vt 0.879252 0.543813
vt 0.903608 0.543813
vt 0.903608 0.771136
vt 0.879252 0.771136
vt 0.904636 0.543813
vt 0.928992 0.543813
vt 0.928992 0.771136
vt 0.904636 0.771136
vt 0.928860 0.000514
vt 0.953216 0.000514
vt 0.953216 0.227836
vt 0.928860 0.227836
vt 0.316878 0.771136
vt 0.316878 0.543813
vt 0.494846 0.543813
vt 0.494846 0.771136
vt 0.621766 0.950132
vt 0.597410 0.950132
vt 0.597410 0.772164
vt 0.621766 0.772164
vt 0.749864 0.227836
vt 0.749864 0.000514
vt 0.927832 0.000514
vt 0.927832 0.227836
vt 0.495874 0.771136
vt 0.495874 0.543813
vt 0.673843 0.543813
vt 0.673843 0.771136
vt 0.756031 0.499486
vt 0.756031 0.272164
vt 0.934000 0.272164
vt 0.934000 0.499486
vt 0.674871 0.771136
vt 0.674871 0.543813
vt 0.852840 0.543813
vt 0.852840 0.771136
vt 0.570998 0.950133
vt 0.546642 0.950133
vt 0.546642 0.772164
vt 0.570998 0.772164
vt 0.137881 0.999486
vt 0.137881 0.772164
vt 0.315850 0.772164
vt 0.315850 0.999486
vt 0.596382 0.950133
vt 0.572026 0.950133
vt 0.572026 0.772164
vt 0.596382 0.772164
vt 0.316878 0.999486
vt 0.316878 0.772164
vt 0.494846 0.772164
vt 0.494846 0.999486
vt 0.672534 0.950132
vt 0.648178 0.950132
vt 0.648178 0.772164
vt 0.672534 0.772164
vt 0.697917 0.950132
vt 0.673561 0.950132
vt 0.673561 0.772164
vt 0.697917 0.772164
s 0
usemtl Material
f 29/1/1 30/2/1 45/3/1 46/4/1
f 15/5/1 14/6/1 7/7/1 8/8/1
f 8/9/2 7/10/2 5/11/2 6/12/2
f 9/13/3 2/14/3 4/15/3 17/16/3
f 2/17/4 1/18/4 3/19/4 4/20/4
f 9/21/5 20/22/5 1/23/5 2/24/5
f 6/25/5 5/26/5 18/27/5 11/28/5
f 11/29/5 18/30/5 19/31/5 10/32/5
f 10/33/5 19/34/5 20/35/5 9/36/5
f 6/37/3 11/38/3 15/39/3 8/40/3
f 11/41/3 10/42/3 16/43/3 15/44/3
f 10/45/3 9/46/3 17/47/3 16/48/3
f 4/49/1 3/50/1 12/51/1 17/52/1
f 17/53/1 12/54/1 13/55/1 16/56/1
f 16/57/1 13/58/1 14/59/1 15/60/1
f 24/61/2 21/62/2 38/63/2 39/64/2
f 25/65/1 26/66/1 41/67/1 42/68/1
f 21/69/1 22/70/1 37/71/1 38/72/1
f 18/73/6 5/74/6 22/75/6 21/76/6
f 5/74/6 7/77/6 23/78/6 22/75/6
f 7/77/6 14/79/6 24/80/6 23/78/6
f 14/79/6 18/81/6 21/82/6 24/80/6
f 1/83/6 20/84/6 26/85/6 25/86/6
f 20/84/6 12/87/6 27/88/6 26/85/6
f 12/87/6 3/89/6 28/90/6 27/88/6
f 3/89/6 1/83/6 25/86/6 28/90/6
f 20/91/6 19/92/6 30/93/6 29/94/6
f 19/92/6 13/95/6 31/96/6 30/93/6
f 13/95/6 12/97/6 32/98/6 31/96/6
f 12/97/6 20/91/6 29/94/6 32/98/6
f 19/99/6 18/100/6 34/101/6 33/102/6
f 18/100/6 14/103/6 35/104/6 34/101/6
f 14/103/6 13/105/6 36/106/6 35/104/6
f 13/105/6 19/99/6 33/102/6 36/106/6
f 38/107/6 37/108/6 40/109/6 39/110/6
f 42/111/6 41/112/6 44/113/6 43/114/6
f 46/115/6 45/116/6 48/117/6 47/118/6
f 50/119/6 49/120/6 52/121/6 51/122/6
f 28/123/2 25/124/2 42/125/2 43/126/2
f 33/127/1 34/128/1 49/129/1 50/130/1
f 22/131/4 23/132/4 40/133/4 37/134/4
f 32/135/2 29/136/2 46/137/2 47/138/2
f 26/139/4 27/140/4 44/141/4 41/142/4
f 36/143/2 33/144/2 50/145/2 51/146/2
f 23/147/5 24/148/5 39/149/5 40/150/5
f 30/151/4 31/152/4 48/153/4 45/154/4
f 27/155/5 28/156/5 43/157/5 44/158/5
f 34/159/4 35/160/4 52/161/4 49/162/4
f 31/163/5 32/164/5 47/165/5 48/166/5
f 35/167/5 36/168/5 51/169/5 52/170/5
