# Blender 5.0.0
# www.blender.org
mtllib BB.mtl
o Cylinder
v 0.000000 0.113958 -1.897800
v 0.000000 1.399349 -1.897800
v 0.370242 0.113958 -1.861334
v 0.370242 1.399349 -1.861334
v 0.726257 0.113958 -1.753339
v 0.726257 1.399349 -1.753339
v 1.054361 0.113958 -1.577963
v 1.054361 1.399349 -1.577963
v 1.341947 0.113958 -1.341947
v 1.341947 1.399349 -1.341947
v 1.577963 0.113958 -1.054361
v 1.577963 1.399349 -1.054361
v 1.753339 0.113958 -0.726257
v 1.753339 1.399349 -0.726257
v 1.861334 0.113958 -0.370242
v 1.861334 1.399349 -0.370242
v 1.897800 0.113958 0.000000
v 1.897800 1.399349 0.000000
v 1.861334 0.113958 0.370242
v 1.861334 1.399349 0.370242
v 1.753339 0.113958 0.726257
v 1.753339 1.399349 0.726257
v 1.577963 0.113958 1.054361
v 1.577963 1.399349 1.054361
v 1.341947 0.113958 1.341947
v 1.341947 1.399349 1.341947
v 1.054361 0.113958 1.577963
v 1.054361 1.399349 1.577963
v 0.726257 0.113958 1.753339
v 0.726257 1.399349 1.753339
v 0.370242 0.113958 1.861334
v 0.370242 1.399349 1.861334
v 0.000000 0.113958 1.897800
v 0.000000 1.399349 1.897800
v -0.370242 0.113958 1.861334
v -0.370242 1.399349 1.861334
v -0.726257 0.113958 1.753339
v -0.726257 1.399349 1.753339
v -1.054361 0.113958 1.577963
v -1.054361 1.399349 1.577963
v -1.341947 0.113958 1.341947
v -1.341947 1.399349 1.341947
v -1.577963 0.113958 1.054361
v -1.577963 1.399349 1.054361
v -1.753339 0.113958 0.726257
v -1.753339 1.399349 0.726257
v -1.861334 0.113958 0.370242
v -1.861334 1.399349 0.370242
v -1.897800 0.113958 0.000000
v -1.897800 1.399349 0.000000
v -1.861334 0.113958 -0.370242
v -1.861334 1.399349 -0.370242
v -1.753339 0.113958 -0.726257
v -1.753339 1.399349 -0.726257
v -1.577963 0.113958 -1.054361
v -1.577963 1.399349 -1.054361
v -1.341947 0.113958 -1.341947
v -1.341947 1.399349 -1.341947
v -1.054361 0.113958 -1.577963
v -1.054361 1.399349 -1.577963
v -0.726257 0.113958 -1.753339
v -0.726257 1.399349 -1.753339
v -0.370242 0.113958 -1.861334
v -0.370242 1.399349 -1.861334
vn -0.0000 -0.0000 -1.0000
vn 0.1951 -0.0000 -0.9808
vn 0.3827 -0.0000 -0.9239
vn 0.5556 -0.0000 -0.8315
vn 0.7071 -0.0000 -0.7071
vn 0.8315 -0.0000 -0.5556
vn 0.9239 -0.0000 -0.3827
vn 0.9808 -0.0000 -0.1951
vn 1.0000 -0.0000 -0.0000
vn 0.9808 -0.0000 0.1951
vn 0.9239 -0.0000 0.3827
vn 0.8315 -0.0000 0.5556
vn 0.7071 -0.0000 0.7071
vn 0.5556 -0.0000 0.8315
vn 0.3827 -0.0000 0.9239
vn 0.1951 -0.0000 0.9808
vn -0.0000 -0.0000 1.0000
vn -0.1951 -0.0000 0.9808
vn -0.3827 -0.0000 0.9239
vn -0.5556 -0.0000 0.8315
vn -0.7071 -0.0000 0.7071
vn -0.8315 -0.0000 0.5556
vn -0.9239 -0.0000 0.3827
vn -0.9808 -0.0000 0.1951
vn -1.0000 -0.0000 -0.0000
vn -0.9808 -0.0000 -0.1951
vn -0.9239 -0.0000 -0.3827
vn -0.8315 -0.0000 -0.5556
vn -0.7071 -0.0000 -0.7071
vn -0.5556 -0.0000 -0.8315
vn -0.3827 -0.0000 -0.9239
vn -0.0000 1.0000 -0.0000
vn -0.1951 -0.0000 -0.9808
vn -0.0000 -1.0000 -0.0000
vt 0.318865 0.343787
vt 0.000120 0.343787
vt 0.000120 0.312545
vt 0.318865 0.312545
vt 0.000120 0.281302
vt 0.318865 0.281302
vt 0.000120 0.250060
vt 0.318865 0.250060
vt 0.000120 0.218817
vt 0.318865 0.218817
vt 0.000120 0.187575
vt 0.318865 0.187575
vt 0.000120 0.156332
vt 0.318865 0.156332
vt 0.000120 0.125090
vt 0.318865 0.125090
vt 0.000120 0.093847
vt 0.318865 0.093847
vt 0.000120 0.062605
vt 0.318865 0.062605
vt 0.000120 0.031362
vt 0.318865 0.031362
vt 0.000120 0.000120
vt 0.318865 0.000120
vt 0.318865 0.999880
vt 0.000120 0.999880
vt 0.000120 0.968638
vt 0.318865 0.968638
vt 0.000120 0.937395
vt 0.318865 0.937395
vt 0.000120 0.906153
vt 0.318865 0.906153
vt 0.000120 0.874910
vt 0.318865 0.874910
vt 0.000120 0.843668
vt 0.318865 0.843668
vt 0.000120 0.812425
vt 0.318865 0.812425
vt 0.000120 0.781183
vt 0.318865 0.781183
vt 0.000120 0.749940
vt 0.318865 0.749940
vt 0.000120 0.718698
vt 0.318865 0.718698
vt 0.000120 0.687455
vt 0.318865 0.687455
vt 0.000120 0.656213
vt 0.318865 0.656213
vt 0.000120 0.624970
vt 0.318865 0.624970
vt 0.000120 0.593728
vt 0.318865 0.593728
vt 0.000120 0.562485
vt 0.318865 0.562485
vt 0.000120 0.531243
vt 0.318865 0.531242
vt 0.000120 0.500000
vt 0.318865 0.500000
vt 0.000120 0.468758
vt 0.318865 0.468757
vt 0.000120 0.437515
vt 0.318865 0.437515
vt 0.000120 0.406273
vt 0.318865 0.406272
vt 0.618264 0.551303
vt 0.600907 0.577280
vt 0.578815 0.599372
vt 0.552838 0.616729
vt 0.523974 0.628685
vt 0.493331 0.634780
vt 0.462089 0.634780
vt 0.431447 0.628685
vt 0.402583 0.616729
vt 0.376605 0.599372
vt 0.354514 0.577280
vt 0.337156 0.551303
vt 0.325200 0.522439
vt 0.319105 0.491796
vt 0.319105 0.460554
vt 0.325200 0.429912
vt 0.337156 0.401047
vt 0.354514 0.375070
vt 0.376605 0.352979
vt 0.402583 0.335621
vt 0.431447 0.323665
vt 0.462089 0.317570
vt 0.493332 0.317570
vt 0.523974 0.323665
vt 0.552838 0.335621
vt 0.578815 0.352978
vt 0.600907 0.375070
vt 0.618264 0.401047
vt 0.630220 0.429912
vt 0.636315 0.460554
vt 0.636315 0.491796
vt 0.630220 0.522439
vt 0.000120 0.375030
vt 0.318865 0.375030
vt 0.354514 0.057620
vt 0.376605 0.035528
vt 0.402583 0.018171
vt 0.431447 0.006215
vt 0.462089 0.000120
vt 0.493331 0.000120
vt 0.523974 0.006215
vt 0.552838 0.018171
vt 0.578815 0.035528
vt 0.600907 0.057620
vt 0.618264 0.083597
vt 0.630220 0.112462
vt 0.636315 0.143104
vt 0.636315 0.174346
vt 0.630220 0.204988
vt 0.618264 0.233853
vt 0.600907 0.259830
vt 0.578815 0.281922
vt 0.552838 0.299279
vt 0.523974 0.311235
vt 0.493331 0.317330
vt 0.462089 0.317330
vt 0.431447 0.311235
vt 0.402582 0.299279
vt 0.376605 0.281922
vt 0.354514 0.259830
vt 0.337156 0.233853
vt 0.325200 0.204988
vt 0.319105 0.174346
vt 0.319105 0.143104
vt 0.325200 0.112462
vt 0.337156 0.083597
s 1
f 1/1/1 2/2/1 4/3/2 3/4/2
f 3/4/2 4/3/2 6/5/3 5/6/3
f 5/6/3 6/5/3 8/7/4 7/8/4
f 7/8/4 8/7/4 10/9/5 9/10/5
f 9/10/5 10/9/5 12/11/6 11/12/6
f 11/12/6 12/11/6 14/13/7 13/14/7
f 13/14/7 14/13/7 16/15/8 15/16/8
f 15/16/8 16/15/8 18/17/9 17/18/9
f 17/18/9 18/17/9 20/19/10 19/20/10
f 19/20/10 20/19/10 22/21/11 21/22/11
f 21/22/11 22/21/11 24/23/12 23/24/12
f 23/25/12 24/26/12 26/27/13 25/28/13
f 25/28/13 26/27/13 28/29/14 27/30/14
f 27/30/14 28/29/14 30/31/15 29/32/15
f 29/32/15 30/31/15 32/33/16 31/34/16
f 31/34/16 32/33/16 34/35/17 33/36/17
f 33/36/17 34/35/17 36/37/18 35/38/18
f 35/38/18 36/37/18 38/39/19 37/40/19
f 37/40/19 38/39/19 40/41/20 39/42/20
f 39/42/20 40/41/20 42/43/21 41/44/21
f 41/44/21 42/43/21 44/45/22 43/46/22
f 43/46/22 44/45/22 46/47/23 45/48/23
f 45/48/23 46/47/23 48/49/24 47/50/24
f 47/50/24 48/49/24 50/51/25 49/52/25
f 49/52/25 50/51/25 52/53/26 51/54/26
f 51/54/26 52/53/26 54/55/27 53/56/27
f 53/56/27 54/55/27 56/57/28 55/58/28
f 55/58/28 56/57/28 58/59/29 57/60/29
f 57/60/29 58/59/29 60/61/30 59/62/30
f 59/62/30 60/61/30 62/63/31 61/64/31
f 4/65/32 2/66/32 64/67/32 62/68/32 60/69/32 58/70/32 56/71/32 54/72/32 52/73/32 50/74/32 48/75/32 46/76/32 44/77/32 42/78/32 40/79/32 38/80/32 36/81/32 34/82/32 32/83/32 30/84/32 28/85/32 26/86/32 24/87/32 22/88/32 20/89/32 18/90/32 16/91/32 14/92/32 12/93/32 10/94/32 8/95/32 6/96/32
f 61/64/31 62/63/31 64/97/33 63/98/33
f 63/98/33 64/97/33 2/2/1 1/1/1
f 1/99/34 3/100/34 5/101/34 7/102/34 9/103/34 11/104/34 13/105/34 15/106/34 17/107/34 19/108/34 21/109/34 23/110/34 25/111/34 27/112/34 29/113/34 31/114/34 33/115/34 35/116/34 37/117/34 39/118/34 41/119/34 43/120/34 45/121/34 47/122/34 49/123/34 51/124/34 53/125/34 55/126/34 57/127/34 59/128/34 61/129/34 63/130/34
