# Blender 5.0.0
# www.blender.org
mtllib knob.mtl
o Cube.003
v -0.271075 -0.099242 0.271075
v -0.271075 0.399242 0.271075
v -0.271075 -0.099242 -0.271075
v -0.271075 0.399242 -0.271075
v 0.271075 -0.099242 0.271075
v 0.271075 0.399242 0.271075
v 0.271075 -0.099242 -0.271075
v 0.271075 0.399242 -0.271075
v -0.271075 0.629616 0.271075
v -0.271075 0.629616 -0.271075
v 0.271075 0.629616 -0.271075
v 0.271075 0.629616 0.271075
v 0.499732 0.399242 0.271075
v 0.499732 0.399242 -0.271075
v 0.499732 0.629616 -0.271075
v 0.499732 0.629616 0.271075
v -0.499732 0.399242 -0.271075
v -0.499732 0.399242 0.271075
v -0.499732 0.629616 0.271075
v -0.499732 0.629616 -0.271075
vn -1.0000 -0.0000 -0.0000
vn -0.0000 -0.0000 -1.0000
vn 1.0000 -0.0000 -0.0000
vn -0.0000 -0.0000 1.0000
vn -0.0000 -1.0000 -0.0000
vn -0.0000 1.0000 -0.0000
vt 0.000377 0.577065
vt 0.000377 0.289098
vt 0.288344 0.289098
vt 0.288344 0.577065
vt 0.289098 0.288344
vt 0.289097 0.000377
vt 0.577065 0.000377
vt 0.577065 0.288344
vt 0.577065 0.289098
vt 0.577065 0.577065
vt 0.289098 0.577065
vt 0.289097 0.289098
vt 0.288344 0.577818
vt 0.288344 0.865785
vt 0.000377 0.865785
vt 0.000377 0.577818
vt 0.288344 0.000377
vt 0.288344 0.288344
vt 0.000377 0.288344
vt 0.000377 0.000377
vt 0.865786 0.288344
vt 0.577818 0.288344
vt 0.577818 0.000377
vt 0.865786 0.000377
vt 0.710902 0.289098
vt 0.710902 0.577065
vt 0.577818 0.577065
vt 0.577818 0.289098
vt 0.422182 0.577818
vt 0.422182 0.865785
vt 0.289098 0.865786
vt 0.289098 0.577818
vt 0.844740 0.289098
vt 0.844740 0.577065
vt 0.711656 0.577065
vt 0.711656 0.289098
vt 0.577818 0.577818
vt 0.699272 0.577818
vt 0.699272 0.865786
vt 0.577818 0.865786
vt 0.987992 0.133461
vt 0.866539 0.133461
vt 0.866539 0.000377
vt 0.987992 0.000377
vt 0.943685 0.865786
vt 0.822232 0.865786
vt 0.822232 0.577818
vt 0.943685 0.577818
vt 0.866539 0.134214
vt 0.987992 0.134214
vt 0.987992 0.267299
vt 0.866539 0.267299
vt 0.556019 0.577818
vt 0.556019 0.865785
vt 0.422935 0.865786
vt 0.422935 0.577818
vt 0.821478 0.865786
vt 0.700025 0.865786
vt 0.700025 0.577818
vt 0.821478 0.577818
vt 0.121830 0.999623
vt 0.000377 0.999623
vt 0.000377 0.866539
vt 0.121830 0.866539
vt 0.845494 0.289098
vt 0.966947 0.289098
vt 0.966947 0.577065
vt 0.845494 0.577065
vt 0.122583 0.866539
vt 0.244037 0.866539
vt 0.244037 0.999623
vt 0.122583 0.999623
s 0
usemtl Material.001
f 1/1/1 2/2/1 4/3/1 3/4/1
f 3/5/2 4/6/2 8/7/2 7/8/2
f 7/9/3 8/10/3 6/11/3 5/12/3
f 5/13/4 6/14/4 2/15/4 1/16/4
f 3/17/5 7/18/5 5/19/5 1/20/5
f 11/21/6 10/22/6 9/23/6 12/24/6
f 2/25/4 6/26/4 12/27/4 9/28/4
f 8/29/2 4/30/2 10/31/2 11/32/2
f 13/33/3 14/34/3 15/35/3 16/36/3
f 8/37/5 14/38/5 13/39/5 6/40/5
f 11/41/2 15/42/2 14/43/2 8/44/2
f 12/45/6 16/46/6 15/47/6 11/48/6
f 6/49/4 13/50/4 16/51/4 12/52/4
f 17/53/1 18/54/1 19/55/1 20/56/1
f 2/57/5 18/58/5 17/59/5 4/60/5
f 9/61/4 19/62/4 18/63/4 2/64/4
f 10/65/6 20/66/6 19/67/6 9/68/6
f 4/69/2 17/70/2 20/71/2 10/72/2
