# Blender 5.0.0
# www.blender.org
mtllib baseDoor.mtl
o Cube
v -1.348474 -0.167864 2.727588
v -1.348474 0.167864 2.727588
v -1.348474 -0.167864 -2.727588
v -1.348474 0.167864 -2.727588
v 1.348474 -0.167864 2.727588
v 1.348474 0.167864 2.727588
v 1.348474 -0.167864 -2.727588
v 1.348474 0.167864 -2.727588
v 0.000000 -0.167864 -2.727588
v 0.000000 0.167864 -2.727588
v 0.000000 -0.167864 2.727588
v 0.000000 0.167864 2.727588
v -0.555402 0.167864 -2.255967
v -1.091211 0.167864 -2.255967
v -1.091211 0.167864 2.255967
v -0.555402 0.167864 2.255967
v 1.091211 0.167864 -2.255967
v 0.555402 0.167864 -2.255967
v 0.555402 0.167864 2.255967
v 1.091211 0.167864 2.255967
v -1.091211 -0.074706 -2.255967
v -0.555402 -0.074706 -2.255967
v -0.555402 -0.074706 2.255967
v -1.091211 -0.074706 2.255967
v 0.555402 -0.074706 -2.255967
v 1.091211 -0.074706 -2.255967
v 1.091211 -0.074706 2.255967
v 0.555402 -0.074706 2.255967
vn -1.0000 -0.0000 -0.0000
vn -0.0000 -0.0000 -1.0000
vn 1.0000 -0.0000 -0.0000
vn -0.0000 -0.0000 1.0000
vn -0.0000 -1.0000 -0.0000
vn -0.0000 1.0000 -0.0000
vt 0.664772 0.000236
vt 0.706046 0.000236
vt 0.706046 0.670891
vt 0.664772 0.670891
vt 0.041510 0.837143
vt 0.000236 0.837143
vt 0.000236 0.671362
vt 0.041510 0.671362
vt 0.706518 0.000236
vt 0.747792 0.000236
vt 0.747792 0.670891
vt 0.706518 0.670891
vt 0.748263 0.615044
vt 0.789538 0.615044
vt 0.789538 0.780824
vt 0.748263 0.780824
vt 0.332268 0.000236
vt 0.498048 0.000236
vt 0.498048 0.670891
vt 0.332268 0.670891
vt 0.778085 0.000236
vt 0.843957 0.000236
vt 0.843957 0.030057
vt 0.778085 0.030057
vt 0.969943 0.614572
vt 0.904071 0.614572
vt 0.904071 0.584751
vt 0.969943 0.584751
vt 0.498520 0.000236
vt 0.664300 0.000236
vt 0.664300 0.670891
vt 0.498520 0.670891
vt 0.790009 0.615043
vt 0.831283 0.615043
vt 0.831283 0.780824
vt 0.790009 0.780824
vt 0.083256 0.837143
vt 0.041981 0.837143
vt 0.041981 0.671362
vt 0.083256 0.671362
vt 0.166016 0.000236
vt 0.331796 0.000236
vt 0.300169 0.058216
vt 0.234297 0.058217
vt 0.331797 0.670891
vt 0.300169 0.612910
vt 0.166016 0.670891
vt 0.234297 0.612910
vt 0.000236 0.000236
vt 0.097735 0.058217
vt 0.031863 0.058217
vt 0.000236 0.670891
vt 0.031864 0.612910
vt 0.097736 0.612910
vt 0.843957 0.584751
vt 0.778085 0.584751
vt 0.904071 0.030057
vt 0.969943 0.030057
vt 0.874250 0.584751
vt 0.874250 0.030057
vt 0.843957 0.614572
vt 0.778085 0.614572
vt 0.748263 0.584751
vt 0.748263 0.030057
vt 0.999764 0.030057
vt 0.999764 0.584751
vt 0.904071 0.000236
vt 0.969943 0.000236
vt 0.873778 0.030057
vt 0.873778 0.584751
s 0
f 1/1/1 2/2/1 4/3/1 3/4/1
f 9/5/2 10/6/2 8/7/2 7/8/2
f 7/9/3 8/10/3 6/11/3 5/12/3
f 11/13/4 12/14/4 2/15/4 1/16/4
f 9/17/5 7/18/5 5/19/5 11/20/5
f 13/21/4 14/22/4 21/23/4 22/24/4
f 19/25/2 20/26/2 27/27/2 28/28/2
f 3/29/5 9/30/5 11/31/5 1/32/5
f 5/33/4 6/34/4 12/35/4 11/36/4
f 3/37/2 4/38/2 10/39/2 9/40/2
f 10/41/6 4/42/6 14/43/6 13/44/6
f 4/42/6 2/45/6 15/46/6 14/43/6
f 2/45/6 12/47/6 16/48/6 15/46/6
f 16/48/6 12/47/6 10/41/6 13/44/6
f 8/49/6 10/41/6 18/50/6 17/51/6
f 12/47/6 6/52/6 20/53/6 19/54/6
f 6/52/6 8/49/6 17/51/6 20/53/6
f 22/24/6 21/23/6 24/55/6 23/56/6
f 26/57/6 25/58/6 28/28/6 27/27/6
f 20/59/1 17/60/1 26/57/1 27/27/1
f 15/61/2 16/62/2 23/56/2 24/55/2
f 16/63/1 13/64/1 22/24/1 23/56/1
f 18/65/3 19/66/3 28/28/3 25/58/3
f 17/67/4 18/68/4 25/58/4 26/57/4
f 14/69/3 15/70/3 24/55/3 21/23/3
f 12/47/6 19/54/6 18/50/6 10/41/6
