# Blender 5.0.0
# www.blender.org
mtllib base.mtl
o Cube.001
v 3.926371 0.187444 -3.926371
v 3.926371 -0.187444 -3.926371
v 3.926371 0.187444 3.926371
v 3.926371 -0.187444 3.926371
v -3.926371 0.187444 -3.926371
v -3.926371 -0.187444 -3.926371
v -3.926371 0.187444 3.926371
v -3.926371 -0.187444 3.926371
v 1.963185 -0.187444 -3.926371
v 0.000000 -0.187444 -3.926371
v -1.963185 -0.187444 -3.926371
v 1.963185 0.187444 3.926371
v 0.000000 0.187444 3.926371
v -1.963185 0.187444 3.926371
v -1.963185 -0.187444 3.926371
v 0.000000 -0.187444 3.926371
v 1.963185 -0.187444 3.926371
v -1.963185 0.187444 -3.926371
v 0.000000 0.187444 -3.926371
v 1.963185 0.187444 -3.926371
v -2.591404 0.187444 -3.298151
v -3.298151 0.187444 -3.298151
v -3.298151 0.187444 3.298151
v -2.591404 0.187444 3.298151
v 3.298151 0.187444 -3.298151
v 2.591404 0.187444 -3.298151
v 2.591404 0.187444 3.298151
v 3.298151 0.187444 3.298151
v 1.334966 0.187444 -3.298151
v 0.628219 0.187444 -3.298151
v 0.628219 0.187444 3.298151
v 1.334966 0.187444 3.298151
v -0.628219 0.187444 -3.298151
v -1.334966 0.187444 -3.298151
v -1.334966 0.187444 3.298151
v -0.628219 0.187444 3.298151
v -3.298151 -0.059093 -3.298151
v -2.591404 -0.059093 -3.298151
v -2.591404 -0.059093 3.298151
v -3.298151 -0.059093 3.298151
v 2.591404 -0.059093 -3.298151
v 3.298151 -0.059093 -3.298151
v 3.298151 -0.059093 3.298151
v 2.591404 -0.059093 3.298151
v 0.628219 -0.059093 -3.298151
v 1.334966 -0.059093 -3.298151
v 1.334966 -0.059093 3.298151
v 0.628219 -0.059093 3.298151
v -1.334966 -0.059093 -3.298151
v -0.628219 -0.059093 -3.298151
v -0.628219 -0.059093 3.298151
v -1.334966 -0.059093 3.298151
vn -0.0000 -0.0000 1.0000
vn -1.0000 -0.0000 -0.0000
vn -0.0000 -1.0000 -0.0000
vn 1.0000 -0.0000 -0.0000
vn -0.0000 -0.0000 -1.0000
vn -0.0000 1.0000 -0.0000
vt 0.503747 0.545943
vt 0.503747 0.590883
vt 0.488071 0.590883
vt 0.488071 0.545943
vt 0.876840 0.374833
vt 0.900678 0.374833
vt 0.900678 0.499666
vt 0.876840 0.499666
vt 0.949691 0.499666
vt 0.925853 0.499666
vt 0.925853 0.000334
vt 0.949691 0.000334
vt 0.499665 0.374833
vt 0.499665 0.499665
vt 0.000335 0.499665
vt 0.000334 0.374833
vt 0.950360 0.000334
vt 0.974198 0.000334
vt 0.974198 0.499665
vt 0.950360 0.499665
vt 0.925184 0.125167
vt 0.901347 0.125167
vt 0.901347 0.000334
vt 0.925184 0.000334
vt 0.925184 0.499665
vt 0.901347 0.499665
vt 0.901347 0.374833
vt 0.925184 0.374833
vt 0.901347 0.250000
vt 0.925184 0.250000
vt 0.499665 0.000334
vt 0.499665 0.125167
vt 0.000334 0.125167
vt 0.000334 0.000334
vt 0.499665 0.250000
vt 0.000334 0.250000
vt 0.876840 0.000334
vt 0.900678 0.000334
vt 0.900678 0.125167
vt 0.876840 0.125167
vt 0.900678 0.250000
vt 0.876840 0.250000
vt 0.308271 0.919772
vt 0.308271 0.500334
vt 0.323948 0.500334
vt 0.323948 0.919772
vt 0.455380 0.545274
vt 0.455380 0.500334
vt 0.471056 0.500334
vt 0.471056 0.545274
vt 0.471725 0.545274
vt 0.471725 0.500334
vt 0.487402 0.500334
vt 0.487402 0.545274
vt 0.500334 0.000334
vt 0.625167 0.000335
vt 0.585221 0.040281
vt 0.540281 0.040281
vt 0.625167 0.499665
vt 0.585221 0.459719
vt 0.500334 0.499666
vt 0.540281 0.459719
vt 0.625836 0.000335
vt 0.750669 0.000334
vt 0.710723 0.040281
vt 0.665783 0.040281
vt 0.750669 0.499666
vt 0.710723 0.459719
vt 0.625836 0.499666
vt 0.665783 0.459719
vt 0.751338 0.000334
vt 0.876171 0.000335
vt 0.836224 0.040281
vt 0.791284 0.040281
vt 0.876171 0.499665
vt 0.836224 0.459719
vt 0.751338 0.499666
vt 0.791284 0.459719
vt 0.000334 0.500334
vt 0.125167 0.500335
vt 0.085221 0.540281
vt 0.040281 0.540281
vt 0.125167 0.999665
vt 0.085221 0.959719
vt 0.000334 0.999665
vt 0.040281 0.959719
vt 0.125836 0.500334
vt 0.170776 0.500334
vt 0.170776 0.919772
vt 0.125836 0.919772
vt 0.171445 0.500334
vt 0.216385 0.500334
vt 0.216385 0.919772
vt 0.171445 0.919772
vt 0.217054 0.500334
vt 0.261993 0.500334
vt 0.261993 0.919772
vt 0.217054 0.919772
vt 0.262662 0.500334
vt 0.307602 0.500334
vt 0.307602 0.919772
vt 0.262662 0.919772
vt 0.324616 0.919772
vt 0.324616 0.500334
vt 0.340293 0.500334
vt 0.340293 0.919772
vt 0.471056 0.545943
vt 0.471056 0.590883
vt 0.455380 0.590883
vt 0.455380 0.545943
vt 0.389329 0.500334
vt 0.389329 0.919772
vt 0.373653 0.919772
vt 0.373653 0.500334
vt 0.340962 0.919772
vt 0.340962 0.500334
vt 0.356638 0.500334
vt 0.356638 0.919772
vt 0.405675 0.500334
vt 0.405675 0.919772
vt 0.389998 0.919772
vt 0.389998 0.500334
vt 0.357307 0.919772
vt 0.357307 0.500334
vt 0.372984 0.500334
vt 0.372984 0.919772
vt 0.454711 0.500334
vt 0.454711 0.545274
vt 0.439034 0.545274
vt 0.439034 0.500334
vt 0.422020 0.500334
vt 0.422020 0.919772
vt 0.406344 0.919772
vt 0.406344 0.500334
vt 0.439034 0.590883
vt 0.439034 0.545943
vt 0.454711 0.545943
vt 0.454711 0.590883
vt 0.438365 0.500334
vt 0.438365 0.919772
vt 0.422689 0.919772
vt 0.422689 0.500334
vt 0.504416 0.590883
vt 0.504416 0.545943
vt 0.520093 0.545943
vt 0.520093 0.590883
vt 0.487402 0.545943
vt 0.487402 0.590883
vt 0.471725 0.590883
vt 0.471725 0.545943
s 0
usemtl Material.001
f 29/1/1 30/2/1 45/3/1 46/4/1
f 15/5/1 14/6/1 7/7/1 8/8/1
f 8/9/2 7/10/2 5/11/2 6/12/2
f 9/13/3 2/14/3 4/15/3 17/16/3
f 2/17/4 1/18/4 3/19/4 4/20/4
f 9/21/5 20/22/5 1/23/5 2/24/5
f 6/25/5 5/26/5 18/27/5 11/28/5
f 11/28/5 18/27/5 19/29/5 10/30/5
f 10/30/5 19/29/5 20/22/5 9/21/5
f 6/31/3 11/32/3 15/33/3 8/34/3
f 11/32/3 10/35/3 16/36/3 15/33/3
f 10/35/3 9/13/3 17/16/3 16/36/3
f 4/37/1 3/38/1 12/39/1 17/40/1
f 17/40/1 12/39/1 13/41/1 16/42/1
f 16/42/1 13/41/1 14/6/1 15/5/1
f 24/43/2 21/44/2 38/45/2 39/46/2
f 25/47/1 26/48/1 41/49/1 42/50/1
f 21/51/1 22/52/1 37/53/1 38/54/1
f 18/55/6 5/56/6 22/57/6 21/58/6
f 5/56/6 7/59/6 23/60/6 22/57/6
f 7/59/6 14/61/6 24/62/6 23/60/6
f 14/61/6 18/55/6 21/58/6 24/62/6
f 1/63/6 20/64/6 26/65/6 25/66/6
f 20/64/6 12/67/6 27/68/6 26/65/6
f 12/67/6 3/69/6 28/70/6 27/68/6
f 3/69/6 1/63/6 25/66/6 28/70/6
f 20/71/6 19/72/6 30/73/6 29/74/6
f 19/72/6 13/75/6 31/76/6 30/73/6
f 13/75/6 12/77/6 32/78/6 31/76/6
f 12/77/6 20/71/6 29/74/6 32/78/6
f 19/79/6 18/80/6 34/81/6 33/82/6
f 18/80/6 14/83/6 35/84/6 34/81/6
f 14/83/6 13/85/6 36/86/6 35/84/6
f 13/85/6 19/79/6 33/82/6 36/86/6
f 38/87/6 37/88/6 40/89/6 39/90/6
f 42/91/6 41/92/6 44/93/6 43/94/6
f 46/95/6 45/96/6 48/97/6 47/98/6
f 50/99/6 49/100/6 52/101/6 51/102/6
f 28/103/2 25/104/2 42/105/2 43/106/2
f 33/107/1 34/108/1 49/109/1 50/110/1
f 22/111/4 23/112/4 40/113/4 37/114/4
f 32/115/2 29/116/2 46/117/2 47/118/2
f 26/119/4 27/120/4 44/121/4 41/122/4
f 36/123/2 33/124/2 50/125/2 51/126/2
f 23/127/5 24/128/5 39/129/5 40/130/5
f 30/131/4 31/132/4 48/133/4 45/134/4
f 27/135/5 28/136/5 43/137/5 44/138/5
f 34/139/4 35/140/4 52/141/4 49/142/4
f 31/143/5 32/144/5 47/145/5 48/146/5
f 35/147/5 36/148/5 51/149/5 52/150/5
